<?xml version="1.0" encoding="utf-8"?>
<svg xmlns="http://www.w3.org/2000/svg" xmlns:xlink="http://www.w3.org/1999/xlink" width="900" height="450" viewBox="0 0 3600 1800">
<defs>
  <clipPath id="clip460">
    <rect x="0" y="0" width="3600" height="1800"/>
  </clipPath>
</defs>
<path clip-path="url(#clip460)" d="
M0 1800 L3600 1800 L3600 0 L0 0  Z
  " fill="#ffffff" fill-rule="evenodd" fill-opacity="1"/>
<defs>
  <clipPath id="clip461">
    <rect x="720" y="0" width="2521" height="1800"/>
  </clipPath>
</defs>
<path clip-path="url(#clip460)" d="
M398.784 1641.7 L2844.41 1641.7 L2844.41 47.2441 L398.784 47.2441  Z
  " fill="#ffffff" fill-rule="evenodd" fill-opacity="1"/>
<defs>
  <clipPath id="clip462">
    <rect x="398" y="47" width="2447" height="1595"/>
  </clipPath>
</defs>
<polyline clip-path="url(#clip462)" style="stroke:#000000; stroke-linecap:butt; stroke-linejoin:round; stroke-width:2; stroke-opacity:0.1; fill:none" points="
  468,1641.7 468,47.2441 
  "/>
<polyline clip-path="url(#clip462)" style="stroke:#000000; stroke-linecap:butt; stroke-linejoin:round; stroke-width:2; stroke-opacity:0.1; fill:none" points="
  929.438,1641.7 929.438,47.2441 
  "/>
<polyline clip-path="url(#clip462)" style="stroke:#000000; stroke-linecap:butt; stroke-linejoin:round; stroke-width:2; stroke-opacity:0.1; fill:none" points="
  1390.88,1641.7 1390.88,47.2441 
  "/>
<polyline clip-path="url(#clip462)" style="stroke:#000000; stroke-linecap:butt; stroke-linejoin:round; stroke-width:2; stroke-opacity:0.1; fill:none" points="
  1852.31,1641.7 1852.31,47.2441 
  "/>
<polyline clip-path="url(#clip462)" style="stroke:#000000; stroke-linecap:butt; stroke-linejoin:round; stroke-width:2; stroke-opacity:0.1; fill:none" points="
  2313.75,1641.7 2313.75,47.2441 
  "/>
<polyline clip-path="url(#clip462)" style="stroke:#000000; stroke-linecap:butt; stroke-linejoin:round; stroke-width:2; stroke-opacity:0.1; fill:none" points="
  2775.19,1641.7 2775.19,47.2441 
  "/>
<polyline clip-path="url(#clip460)" style="stroke:#000000; stroke-linecap:butt; stroke-linejoin:round; stroke-width:4; stroke-opacity:1; fill:none" points="
  398.784,1641.7 2844.41,1641.7 
  "/>
<polyline clip-path="url(#clip460)" style="stroke:#000000; stroke-linecap:butt; stroke-linejoin:round; stroke-width:4; stroke-opacity:1; fill:none" points="
  468,1641.7 468,1622.57 
  "/>
<polyline clip-path="url(#clip460)" style="stroke:#000000; stroke-linecap:butt; stroke-linejoin:round; stroke-width:4; stroke-opacity:1; fill:none" points="
  929.438,1641.7 929.438,1622.57 
  "/>
<polyline clip-path="url(#clip460)" style="stroke:#000000; stroke-linecap:butt; stroke-linejoin:round; stroke-width:4; stroke-opacity:1; fill:none" points="
  1390.88,1641.7 1390.88,1622.57 
  "/>
<polyline clip-path="url(#clip460)" style="stroke:#000000; stroke-linecap:butt; stroke-linejoin:round; stroke-width:4; stroke-opacity:1; fill:none" points="
  1852.31,1641.7 1852.31,1622.57 
  "/>
<polyline clip-path="url(#clip460)" style="stroke:#000000; stroke-linecap:butt; stroke-linejoin:round; stroke-width:4; stroke-opacity:1; fill:none" points="
  2313.75,1641.7 2313.75,1622.57 
  "/>
<polyline clip-path="url(#clip460)" style="stroke:#000000; stroke-linecap:butt; stroke-linejoin:round; stroke-width:4; stroke-opacity:1; fill:none" points="
  2775.19,1641.7 2775.19,1622.57 
  "/>
<path clip-path="url(#clip460)" d="M412.526 1708.04 L420.165 1708.04 L420.165 1681.67 L411.855 1683.34 L411.855 1679.08 L420.119 1677.41 L424.794 1677.41 L424.794 1708.04 L432.433 1708.04 L432.433 1711.97 L412.526 1711.97 L412.526 1708.04 Z" fill="#000000" fill-rule="evenodd" fill-opacity="1" /><path clip-path="url(#clip460)" d="M441.924 1677.41 L460.28 1677.41 L460.28 1681.35 L446.206 1681.35 L446.206 1689.82 Q447.225 1689.47 448.243 1689.31 Q449.262 1689.12 450.28 1689.12 Q456.067 1689.12 459.447 1692.3 Q462.827 1695.47 462.827 1700.88 Q462.827 1706.46 459.354 1709.56 Q455.882 1712.64 449.563 1712.64 Q447.387 1712.64 445.118 1712.27 Q442.873 1711.9 440.466 1711.16 L440.466 1706.46 Q442.549 1707.6 444.771 1708.15 Q446.993 1708.71 449.47 1708.71 Q453.475 1708.71 455.813 1706.6 Q458.151 1704.5 458.151 1700.88 Q458.151 1697.27 455.813 1695.17 Q453.475 1693.06 449.47 1693.06 Q447.595 1693.06 445.72 1693.48 Q443.868 1693.89 441.924 1694.77 L441.924 1677.41 Z" fill="#000000" fill-rule="evenodd" fill-opacity="1" /><path clip-path="url(#clip460)" d="M482.039 1680.49 Q478.428 1680.49 476.6 1684.06 Q474.794 1687.6 474.794 1694.73 Q474.794 1701.83 476.6 1705.4 Q478.428 1708.94 482.039 1708.94 Q485.674 1708.94 487.479 1705.4 Q489.308 1701.83 489.308 1694.73 Q489.308 1687.6 487.479 1684.06 Q485.674 1680.49 482.039 1680.49 M482.039 1676.79 Q487.85 1676.79 490.905 1681.39 Q493.984 1685.98 493.984 1694.73 Q493.984 1703.45 490.905 1708.06 Q487.85 1712.64 482.039 1712.64 Q476.229 1712.64 473.151 1708.06 Q470.095 1703.45 470.095 1694.73 Q470.095 1685.98 473.151 1681.39 Q476.229 1676.79 482.039 1676.79 Z" fill="#000000" fill-rule="evenodd" fill-opacity="1" /><path clip-path="url(#clip460)" d="M512.201 1680.49 Q508.59 1680.49 506.762 1684.06 Q504.956 1687.6 504.956 1694.73 Q504.956 1701.83 506.762 1705.4 Q508.59 1708.94 512.201 1708.94 Q515.836 1708.94 517.641 1705.4 Q519.47 1701.83 519.47 1694.73 Q519.47 1687.6 517.641 1684.06 Q515.836 1680.49 512.201 1680.49 M512.201 1676.79 Q518.012 1676.79 521.067 1681.39 Q524.146 1685.98 524.146 1694.73 Q524.146 1703.45 521.067 1708.06 Q518.012 1712.64 512.201 1712.64 Q506.391 1712.64 503.313 1708.06 Q500.257 1703.45 500.257 1694.73 Q500.257 1685.98 503.313 1681.39 Q506.391 1676.79 512.201 1676.79 Z" fill="#000000" fill-rule="evenodd" fill-opacity="1" /><path clip-path="url(#clip460)" d="M878.05 1708.04 L894.369 1708.04 L894.369 1711.97 L872.425 1711.97 L872.425 1708.04 Q875.087 1705.28 879.67 1700.65 Q884.276 1696 885.457 1694.66 Q887.702 1692.13 888.582 1690.4 Q889.485 1688.64 889.485 1686.95 Q889.485 1684.19 887.54 1682.46 Q885.619 1680.72 882.517 1680.72 Q880.318 1680.72 877.864 1681.49 Q875.434 1682.25 872.656 1683.8 L872.656 1679.08 Q875.48 1677.94 877.934 1677.37 Q880.388 1676.79 882.425 1676.79 Q887.795 1676.79 890.989 1679.47 Q894.184 1682.16 894.184 1686.65 Q894.184 1688.78 893.374 1690.7 Q892.587 1692.6 890.48 1695.19 Q889.901 1695.86 886.8 1699.08 Q883.698 1702.27 878.05 1708.04 Z" fill="#000000" fill-rule="evenodd" fill-opacity="1" /><path clip-path="url(#clip460)" d="M914.184 1680.49 Q910.573 1680.49 908.744 1684.06 Q906.938 1687.6 906.938 1694.73 Q906.938 1701.83 908.744 1705.4 Q910.573 1708.94 914.184 1708.94 Q917.818 1708.94 919.623 1705.4 Q921.452 1701.83 921.452 1694.73 Q921.452 1687.6 919.623 1684.06 Q917.818 1680.49 914.184 1680.49 M914.184 1676.79 Q919.994 1676.79 923.049 1681.39 Q926.128 1685.98 926.128 1694.73 Q926.128 1703.45 923.049 1708.06 Q919.994 1712.64 914.184 1712.64 Q908.373 1712.64 905.295 1708.06 Q902.239 1703.45 902.239 1694.73 Q902.239 1685.98 905.295 1681.39 Q908.373 1676.79 914.184 1676.79 Z" fill="#000000" fill-rule="evenodd" fill-opacity="1" /><path clip-path="url(#clip460)" d="M944.346 1680.49 Q940.734 1680.49 938.906 1684.06 Q937.1 1687.6 937.1 1694.73 Q937.1 1701.83 938.906 1705.4 Q940.734 1708.94 944.346 1708.94 Q947.98 1708.94 949.785 1705.4 Q951.614 1701.83 951.614 1694.73 Q951.614 1687.6 949.785 1684.06 Q947.98 1680.49 944.346 1680.49 M944.346 1676.79 Q950.156 1676.79 953.211 1681.39 Q956.29 1685.98 956.29 1694.73 Q956.29 1703.45 953.211 1708.06 Q950.156 1712.64 944.346 1712.64 Q938.535 1712.64 935.457 1708.06 Q932.401 1703.45 932.401 1694.73 Q932.401 1685.98 935.457 1681.39 Q938.535 1676.79 944.346 1676.79 Z" fill="#000000" fill-rule="evenodd" fill-opacity="1" /><path clip-path="url(#clip460)" d="M974.507 1680.49 Q970.896 1680.49 969.068 1684.06 Q967.262 1687.6 967.262 1694.73 Q967.262 1701.83 969.068 1705.4 Q970.896 1708.94 974.507 1708.94 Q978.142 1708.94 979.947 1705.4 Q981.776 1701.83 981.776 1694.73 Q981.776 1687.6 979.947 1684.06 Q978.142 1680.49 974.507 1680.49 M974.507 1676.79 Q980.318 1676.79 983.373 1681.39 Q986.452 1685.98 986.452 1694.73 Q986.452 1703.45 983.373 1708.06 Q980.318 1712.64 974.507 1712.64 Q968.697 1712.64 965.619 1708.06 Q962.563 1703.45 962.563 1694.73 Q962.563 1685.98 965.619 1681.39 Q968.697 1676.79 974.507 1676.79 Z" fill="#000000" fill-rule="evenodd" fill-opacity="1" /><path clip-path="url(#clip460)" d="M1339.49 1708.04 L1355.81 1708.04 L1355.81 1711.97 L1333.86 1711.97 L1333.86 1708.04 Q1336.52 1705.28 1341.11 1700.65 Q1345.71 1696 1346.89 1694.66 Q1349.14 1692.13 1350.02 1690.4 Q1350.92 1688.64 1350.92 1686.95 Q1350.92 1684.19 1348.98 1682.46 Q1347.06 1680.72 1343.96 1680.72 Q1341.76 1680.72 1339.3 1681.49 Q1336.87 1682.25 1334.09 1683.8 L1334.09 1679.08 Q1336.92 1677.94 1339.37 1677.37 Q1341.83 1676.79 1343.86 1676.79 Q1349.23 1676.79 1352.43 1679.47 Q1355.62 1682.16 1355.62 1686.65 Q1355.62 1688.78 1354.81 1690.7 Q1354.02 1692.6 1351.92 1695.19 Q1351.34 1695.86 1348.24 1699.08 Q1345.14 1702.27 1339.49 1708.04 Z" fill="#000000" fill-rule="evenodd" fill-opacity="1" /><path clip-path="url(#clip460)" d="M1365.67 1677.41 L1384.02 1677.41 L1384.02 1681.35 L1369.95 1681.35 L1369.95 1689.82 Q1370.97 1689.47 1371.99 1689.31 Q1373.01 1689.12 1374.02 1689.12 Q1379.81 1689.12 1383.19 1692.3 Q1386.57 1695.47 1386.57 1700.88 Q1386.57 1706.46 1383.1 1709.56 Q1379.63 1712.64 1373.31 1712.64 Q1371.13 1712.64 1368.86 1712.27 Q1366.62 1711.9 1364.21 1711.16 L1364.21 1706.46 Q1366.29 1707.6 1368.52 1708.15 Q1370.74 1708.71 1373.21 1708.71 Q1377.22 1708.71 1379.56 1706.6 Q1381.89 1704.5 1381.89 1700.88 Q1381.89 1697.27 1379.56 1695.17 Q1377.22 1693.06 1373.21 1693.06 Q1371.34 1693.06 1369.46 1693.48 Q1367.61 1693.89 1365.67 1694.77 L1365.67 1677.41 Z" fill="#000000" fill-rule="evenodd" fill-opacity="1" /><path clip-path="url(#clip460)" d="M1405.78 1680.49 Q1402.17 1680.49 1400.34 1684.06 Q1398.54 1687.6 1398.54 1694.73 Q1398.54 1701.83 1400.34 1705.4 Q1402.17 1708.94 1405.78 1708.94 Q1409.42 1708.94 1411.22 1705.4 Q1413.05 1701.83 1413.05 1694.73 Q1413.05 1687.6 1411.22 1684.06 Q1409.42 1680.49 1405.78 1680.49 M1405.78 1676.79 Q1411.59 1676.79 1414.65 1681.39 Q1417.73 1685.98 1417.73 1694.73 Q1417.73 1703.45 1414.65 1708.06 Q1411.59 1712.64 1405.78 1712.64 Q1399.97 1712.64 1396.89 1708.06 Q1393.84 1703.45 1393.84 1694.73 Q1393.84 1685.98 1396.89 1681.39 Q1399.97 1676.79 1405.78 1676.79 Z" fill="#000000" fill-rule="evenodd" fill-opacity="1" /><path clip-path="url(#clip460)" d="M1435.95 1680.49 Q1432.33 1680.49 1430.51 1684.06 Q1428.7 1687.6 1428.7 1694.73 Q1428.7 1701.83 1430.51 1705.4 Q1432.33 1708.94 1435.95 1708.94 Q1439.58 1708.94 1441.39 1705.4 Q1443.21 1701.83 1443.21 1694.73 Q1443.21 1687.6 1441.39 1684.06 Q1439.58 1680.49 1435.95 1680.49 M1435.95 1676.79 Q1441.76 1676.79 1444.81 1681.39 Q1447.89 1685.98 1447.89 1694.73 Q1447.89 1703.45 1444.81 1708.06 Q1441.76 1712.64 1435.95 1712.64 Q1430.14 1712.64 1427.06 1708.06 Q1424 1703.45 1424 1694.73 Q1424 1685.98 1427.06 1681.39 Q1430.14 1676.79 1435.95 1676.79 Z" fill="#000000" fill-rule="evenodd" fill-opacity="1" /><path clip-path="url(#clip460)" d="M1810.99 1693.34 Q1814.35 1694.06 1816.23 1696.32 Q1818.12 1698.59 1818.12 1701.93 Q1818.12 1707.04 1814.61 1709.84 Q1811.09 1712.64 1804.61 1712.64 Q1802.43 1712.64 1800.12 1712.2 Q1797.82 1711.79 1795.37 1710.93 L1795.37 1706.42 Q1797.31 1707.55 1799.63 1708.13 Q1801.94 1708.71 1804.47 1708.71 Q1808.87 1708.71 1811.16 1706.97 Q1813.47 1705.24 1813.47 1701.93 Q1813.47 1698.87 1811.32 1697.16 Q1809.19 1695.42 1805.37 1695.42 L1801.34 1695.42 L1801.34 1691.58 L1805.56 1691.58 Q1809 1691.58 1810.83 1690.21 Q1812.66 1688.82 1812.66 1686.23 Q1812.66 1683.57 1810.76 1682.16 Q1808.89 1680.72 1805.37 1680.72 Q1803.45 1680.72 1801.25 1681.14 Q1799.05 1681.56 1796.41 1682.43 L1796.41 1678.27 Q1799.07 1677.53 1801.39 1677.16 Q1803.73 1676.79 1805.79 1676.79 Q1811.11 1676.79 1814.21 1679.22 Q1817.31 1681.62 1817.31 1685.75 Q1817.31 1688.62 1815.67 1690.61 Q1814.03 1692.57 1810.99 1693.34 Z" fill="#000000" fill-rule="evenodd" fill-opacity="1" /><path clip-path="url(#clip460)" d="M1836.99 1680.49 Q1833.38 1680.49 1831.55 1684.06 Q1829.74 1687.6 1829.74 1694.73 Q1829.74 1701.83 1831.55 1705.4 Q1833.38 1708.94 1836.99 1708.94 Q1840.62 1708.94 1842.43 1705.4 Q1844.26 1701.83 1844.26 1694.73 Q1844.26 1687.6 1842.43 1684.06 Q1840.62 1680.49 1836.99 1680.49 M1836.99 1676.79 Q1842.8 1676.79 1845.86 1681.39 Q1848.93 1685.98 1848.93 1694.73 Q1848.93 1703.45 1845.86 1708.06 Q1842.8 1712.64 1836.99 1712.64 Q1831.18 1712.64 1828.1 1708.06 Q1825.05 1703.45 1825.05 1694.73 Q1825.05 1685.98 1828.1 1681.39 Q1831.18 1676.79 1836.99 1676.79 Z" fill="#000000" fill-rule="evenodd" fill-opacity="1" /><path clip-path="url(#clip460)" d="M1867.15 1680.49 Q1863.54 1680.49 1861.71 1684.06 Q1859.91 1687.6 1859.91 1694.73 Q1859.91 1701.83 1861.71 1705.4 Q1863.54 1708.94 1867.15 1708.94 Q1870.79 1708.94 1872.59 1705.4 Q1874.42 1701.83 1874.42 1694.73 Q1874.42 1687.6 1872.59 1684.06 Q1870.79 1680.49 1867.15 1680.49 M1867.15 1676.79 Q1872.96 1676.79 1876.02 1681.39 Q1879.1 1685.98 1879.1 1694.73 Q1879.1 1703.45 1876.02 1708.06 Q1872.96 1712.64 1867.15 1712.64 Q1861.34 1712.64 1858.26 1708.06 Q1855.21 1703.45 1855.21 1694.73 Q1855.21 1685.98 1858.26 1681.39 Q1861.34 1676.79 1867.15 1676.79 Z" fill="#000000" fill-rule="evenodd" fill-opacity="1" /><path clip-path="url(#clip460)" d="M1897.31 1680.49 Q1893.7 1680.49 1891.87 1684.06 Q1890.07 1687.6 1890.07 1694.73 Q1890.07 1701.83 1891.87 1705.4 Q1893.7 1708.94 1897.31 1708.94 Q1900.95 1708.94 1902.75 1705.4 Q1904.58 1701.83 1904.58 1694.73 Q1904.58 1687.6 1902.75 1684.06 Q1900.95 1680.49 1897.31 1680.49 M1897.31 1676.79 Q1903.12 1676.79 1906.18 1681.39 Q1909.26 1685.98 1909.26 1694.73 Q1909.26 1703.45 1906.18 1708.06 Q1903.12 1712.64 1897.31 1712.64 Q1891.5 1712.64 1888.43 1708.06 Q1885.37 1703.45 1885.37 1694.73 Q1885.37 1685.98 1888.43 1681.39 Q1891.5 1676.79 1897.31 1676.79 Z" fill="#000000" fill-rule="evenodd" fill-opacity="1" /><path clip-path="url(#clip460)" d="M2272.43 1693.34 Q2275.79 1694.06 2277.66 1696.32 Q2279.56 1698.59 2279.56 1701.93 Q2279.56 1707.04 2276.04 1709.84 Q2272.53 1712.64 2266.04 1712.64 Q2263.87 1712.64 2261.55 1712.2 Q2259.26 1711.79 2256.81 1710.93 L2256.81 1706.42 Q2258.75 1707.55 2261.07 1708.13 Q2263.38 1708.71 2265.91 1708.71 Q2270.3 1708.71 2272.59 1706.97 Q2274.91 1705.24 2274.91 1701.93 Q2274.91 1698.87 2272.76 1697.16 Q2270.63 1695.42 2266.81 1695.42 L2262.78 1695.42 L2262.78 1691.58 L2266.99 1691.58 Q2270.44 1691.58 2272.27 1690.21 Q2274.1 1688.82 2274.1 1686.23 Q2274.1 1683.57 2272.2 1682.16 Q2270.33 1680.72 2266.81 1680.72 Q2264.89 1680.72 2262.69 1681.14 Q2260.49 1681.56 2257.85 1682.43 L2257.85 1678.27 Q2260.51 1677.53 2262.83 1677.16 Q2265.16 1676.79 2267.22 1676.79 Q2272.55 1676.79 2275.65 1679.22 Q2278.75 1681.62 2278.75 1685.75 Q2278.75 1688.62 2277.11 1690.61 Q2275.47 1692.57 2272.43 1693.34 Z" fill="#000000" fill-rule="evenodd" fill-opacity="1" /><path clip-path="url(#clip460)" d="M2288.47 1677.41 L2306.83 1677.41 L2306.83 1681.35 L2292.76 1681.35 L2292.76 1689.82 Q2293.78 1689.47 2294.79 1689.31 Q2295.81 1689.12 2296.83 1689.12 Q2302.62 1689.12 2306 1692.3 Q2309.38 1695.47 2309.38 1700.88 Q2309.38 1706.46 2305.9 1709.56 Q2302.43 1712.64 2296.11 1712.64 Q2293.94 1712.64 2291.67 1712.27 Q2289.42 1711.9 2287.02 1711.16 L2287.02 1706.46 Q2289.1 1707.6 2291.32 1708.15 Q2293.54 1708.71 2296.02 1708.71 Q2300.03 1708.71 2302.36 1706.6 Q2304.7 1704.5 2304.7 1700.88 Q2304.7 1697.27 2302.36 1695.17 Q2300.03 1693.06 2296.02 1693.06 Q2294.15 1693.06 2292.27 1693.48 Q2290.42 1693.89 2288.47 1694.77 L2288.47 1677.41 Z" fill="#000000" fill-rule="evenodd" fill-opacity="1" /><path clip-path="url(#clip460)" d="M2328.59 1680.49 Q2324.98 1680.49 2323.15 1684.06 Q2321.34 1687.6 2321.34 1694.73 Q2321.34 1701.83 2323.15 1705.4 Q2324.98 1708.94 2328.59 1708.94 Q2332.22 1708.94 2334.03 1705.4 Q2335.86 1701.83 2335.86 1694.73 Q2335.86 1687.6 2334.03 1684.06 Q2332.22 1680.49 2328.59 1680.49 M2328.59 1676.79 Q2334.4 1676.79 2337.46 1681.39 Q2340.53 1685.98 2340.53 1694.73 Q2340.53 1703.45 2337.46 1708.06 Q2334.4 1712.64 2328.59 1712.64 Q2322.78 1712.64 2319.7 1708.06 Q2316.65 1703.45 2316.65 1694.73 Q2316.65 1685.98 2319.7 1681.39 Q2322.78 1676.79 2328.59 1676.79 Z" fill="#000000" fill-rule="evenodd" fill-opacity="1" /><path clip-path="url(#clip460)" d="M2358.75 1680.49 Q2355.14 1680.49 2353.31 1684.06 Q2351.51 1687.6 2351.51 1694.73 Q2351.51 1701.83 2353.31 1705.4 Q2355.14 1708.94 2358.75 1708.94 Q2362.39 1708.94 2364.19 1705.4 Q2366.02 1701.83 2366.02 1694.73 Q2366.02 1687.6 2364.19 1684.06 Q2362.39 1680.49 2358.75 1680.49 M2358.75 1676.79 Q2364.56 1676.79 2367.62 1681.39 Q2370.7 1685.98 2370.7 1694.73 Q2370.7 1703.45 2367.62 1708.06 Q2364.56 1712.64 2358.75 1712.64 Q2352.94 1712.64 2349.86 1708.06 Q2346.81 1703.45 2346.81 1694.73 Q2346.81 1685.98 2349.86 1681.39 Q2352.94 1676.79 2358.75 1676.79 Z" fill="#000000" fill-rule="evenodd" fill-opacity="1" /><path clip-path="url(#clip460)" d="M2733.2 1681.49 L2721.39 1699.93 L2733.2 1699.93 L2733.2 1681.49 M2731.97 1677.41 L2737.85 1677.41 L2737.85 1699.93 L2742.78 1699.93 L2742.78 1703.82 L2737.85 1703.82 L2737.85 1711.97 L2733.2 1711.97 L2733.2 1703.82 L2717.6 1703.82 L2717.6 1699.31 L2731.97 1677.41 Z" fill="#000000" fill-rule="evenodd" fill-opacity="1" /><path clip-path="url(#clip460)" d="M2760.51 1680.49 Q2756.9 1680.49 2755.07 1684.06 Q2753.27 1687.6 2753.27 1694.73 Q2753.27 1701.83 2755.07 1705.4 Q2756.9 1708.94 2760.51 1708.94 Q2764.15 1708.94 2765.95 1705.4 Q2767.78 1701.83 2767.78 1694.73 Q2767.78 1687.6 2765.95 1684.06 Q2764.15 1680.49 2760.51 1680.49 M2760.51 1676.79 Q2766.32 1676.79 2769.38 1681.39 Q2772.46 1685.98 2772.46 1694.73 Q2772.46 1703.45 2769.38 1708.06 Q2766.32 1712.64 2760.51 1712.64 Q2754.7 1712.64 2751.63 1708.06 Q2748.57 1703.45 2748.57 1694.73 Q2748.57 1685.98 2751.63 1681.39 Q2754.7 1676.79 2760.51 1676.79 Z" fill="#000000" fill-rule="evenodd" fill-opacity="1" /><path clip-path="url(#clip460)" d="M2790.68 1680.49 Q2787.07 1680.49 2785.24 1684.06 Q2783.43 1687.6 2783.43 1694.73 Q2783.43 1701.83 2785.24 1705.4 Q2787.07 1708.94 2790.68 1708.94 Q2794.31 1708.94 2796.12 1705.4 Q2797.94 1701.83 2797.94 1694.73 Q2797.94 1687.6 2796.12 1684.06 Q2794.31 1680.49 2790.68 1680.49 M2790.68 1676.79 Q2796.49 1676.79 2799.54 1681.39 Q2802.62 1685.98 2802.62 1694.73 Q2802.62 1703.45 2799.54 1708.06 Q2796.49 1712.64 2790.68 1712.64 Q2784.87 1712.64 2781.79 1708.06 Q2778.73 1703.45 2778.73 1694.73 Q2778.73 1685.98 2781.79 1681.39 Q2784.87 1676.79 2790.68 1676.79 Z" fill="#000000" fill-rule="evenodd" fill-opacity="1" /><path clip-path="url(#clip460)" d="M2820.84 1680.49 Q2817.23 1680.49 2815.4 1684.06 Q2813.59 1687.6 2813.59 1694.73 Q2813.59 1701.83 2815.4 1705.4 Q2817.23 1708.94 2820.84 1708.94 Q2824.47 1708.94 2826.28 1705.4 Q2828.11 1701.83 2828.11 1694.73 Q2828.11 1687.6 2826.28 1684.06 Q2824.47 1680.49 2820.84 1680.49 M2820.84 1676.79 Q2826.65 1676.79 2829.7 1681.39 Q2832.78 1685.98 2832.78 1694.73 Q2832.78 1703.45 2829.7 1708.06 Q2826.65 1712.64 2820.84 1712.64 Q2815.03 1712.64 2811.95 1708.06 Q2808.89 1703.45 2808.89 1694.73 Q2808.89 1685.98 2811.95 1681.39 Q2815.03 1676.79 2820.84 1676.79 Z" fill="#000000" fill-rule="evenodd" fill-opacity="1" /><path clip-path="url(#clip460)" d="M1625.62 1782.28 Q1627.69 1782.98 1629.63 1785.28 Q1631.61 1787.57 1633.58 1791.58 L1640.1 1804.56 L1633.2 1804.56 L1627.12 1792.37 Q1624.76 1787.6 1622.53 1786.04 Q1620.34 1784.48 1616.52 1784.48 L1609.52 1784.48 L1609.52 1804.56 L1603.09 1804.56 L1603.09 1757.04 L1617.6 1757.04 Q1625.75 1757.04 1629.76 1760.45 Q1633.77 1763.86 1633.77 1770.73 Q1633.77 1775.22 1631.67 1778.18 Q1629.6 1781.14 1625.62 1782.28 M1609.52 1762.33 L1609.52 1779.2 L1617.6 1779.2 Q1622.25 1779.2 1624.6 1777.06 Q1626.99 1774.9 1626.99 1770.73 Q1626.99 1766.56 1624.6 1764.46 Q1622.25 1762.33 1617.6 1762.33 L1609.52 1762.33 Z" fill="#000000" fill-rule="evenodd" fill-opacity="1" /><polyline clip-path="url(#clip462)" style="stroke:#000000; stroke-linecap:butt; stroke-linejoin:round; stroke-width:2; stroke-opacity:0.1; fill:none" points="
  398.784,1481.88 2844.41,1481.88 
  "/>
<polyline clip-path="url(#clip462)" style="stroke:#000000; stroke-linecap:butt; stroke-linejoin:round; stroke-width:2; stroke-opacity:0.1; fill:none" points="
  398.784,1250.3 2844.41,1250.3 
  "/>
<polyline clip-path="url(#clip462)" style="stroke:#000000; stroke-linecap:butt; stroke-linejoin:round; stroke-width:2; stroke-opacity:0.1; fill:none" points="
  398.784,1018.71 2844.41,1018.71 
  "/>
<polyline clip-path="url(#clip462)" style="stroke:#000000; stroke-linecap:butt; stroke-linejoin:round; stroke-width:2; stroke-opacity:0.1; fill:none" points="
  398.784,787.127 2844.41,787.127 
  "/>
<polyline clip-path="url(#clip462)" style="stroke:#000000; stroke-linecap:butt; stroke-linejoin:round; stroke-width:2; stroke-opacity:0.1; fill:none" points="
  398.784,555.541 2844.41,555.541 
  "/>
<polyline clip-path="url(#clip462)" style="stroke:#000000; stroke-linecap:butt; stroke-linejoin:round; stroke-width:2; stroke-opacity:0.1; fill:none" points="
  398.784,323.955 2844.41,323.955 
  "/>
<polyline clip-path="url(#clip462)" style="stroke:#000000; stroke-linecap:butt; stroke-linejoin:round; stroke-width:2; stroke-opacity:0.1; fill:none" points="
  398.784,92.3692 2844.41,92.3692 
  "/>
<polyline clip-path="url(#clip460)" style="stroke:#000000; stroke-linecap:butt; stroke-linejoin:round; stroke-width:4; stroke-opacity:1; fill:none" points="
  398.784,1641.7 398.784,47.2441 
  "/>
<polyline clip-path="url(#clip460)" style="stroke:#000000; stroke-linecap:butt; stroke-linejoin:round; stroke-width:4; stroke-opacity:1; fill:none" points="
  398.784,1481.88 428.132,1481.88 
  "/>
<polyline clip-path="url(#clip460)" style="stroke:#000000; stroke-linecap:butt; stroke-linejoin:round; stroke-width:4; stroke-opacity:1; fill:none" points="
  398.784,1250.3 428.132,1250.3 
  "/>
<polyline clip-path="url(#clip460)" style="stroke:#000000; stroke-linecap:butt; stroke-linejoin:round; stroke-width:4; stroke-opacity:1; fill:none" points="
  398.784,1018.71 428.132,1018.71 
  "/>
<polyline clip-path="url(#clip460)" style="stroke:#000000; stroke-linecap:butt; stroke-linejoin:round; stroke-width:4; stroke-opacity:1; fill:none" points="
  398.784,787.127 428.132,787.127 
  "/>
<polyline clip-path="url(#clip460)" style="stroke:#000000; stroke-linecap:butt; stroke-linejoin:round; stroke-width:4; stroke-opacity:1; fill:none" points="
  398.784,555.541 428.132,555.541 
  "/>
<polyline clip-path="url(#clip460)" style="stroke:#000000; stroke-linecap:butt; stroke-linejoin:round; stroke-width:4; stroke-opacity:1; fill:none" points="
  398.784,323.955 428.132,323.955 
  "/>
<polyline clip-path="url(#clip460)" style="stroke:#000000; stroke-linecap:butt; stroke-linejoin:round; stroke-width:4; stroke-opacity:1; fill:none" points="
  398.784,92.3692 428.132,92.3692 
  "/>
<path clip-path="url(#clip460)" d="M96.3802 1488.78 L126.056 1488.78 L126.056 1492.72 L96.3802 1492.72 L96.3802 1488.78 Z" fill="#000000" fill-rule="evenodd" fill-opacity="1" /><path clip-path="url(#clip460)" d="M146.727 1486.47 Q143.579 1486.47 141.727 1488.62 Q139.898 1490.77 139.898 1494.52 Q139.898 1498.25 141.727 1500.43 Q143.579 1502.58 146.727 1502.58 Q149.875 1502.58 151.704 1500.43 Q153.556 1498.25 153.556 1494.52 Q153.556 1490.77 151.704 1488.62 Q149.875 1486.47 146.727 1486.47 M156.009 1471.82 L156.009 1476.07 Q154.25 1475.24 152.445 1474.8 Q150.662 1474.36 148.903 1474.36 Q144.273 1474.36 141.82 1477.49 Q139.389 1480.61 139.042 1486.93 Q140.408 1484.92 142.468 1483.85 Q144.528 1482.76 147.005 1482.76 Q152.213 1482.76 155.222 1485.94 Q158.255 1489.08 158.255 1494.52 Q158.255 1499.85 155.107 1503.07 Q151.959 1506.28 146.727 1506.28 Q140.732 1506.28 137.56 1501.7 Q134.389 1497.09 134.389 1488.37 Q134.389 1480.17 138.278 1475.31 Q142.167 1470.43 148.718 1470.43 Q150.477 1470.43 152.259 1470.77 Q154.065 1471.12 156.009 1471.82 Z" fill="#000000" fill-rule="evenodd" fill-opacity="1" /><path clip-path="url(#clip460)" d="M166.31 1499.73 L171.195 1499.73 L171.195 1505.61 L166.31 1505.61 L166.31 1499.73 Z" fill="#000000" fill-rule="evenodd" fill-opacity="1" /><path clip-path="url(#clip460)" d="M191.38 1474.13 Q187.769 1474.13 185.94 1477.69 Q184.134 1481.24 184.134 1488.37 Q184.134 1495.47 185.94 1499.04 Q187.769 1502.58 191.38 1502.58 Q195.014 1502.58 196.819 1499.04 Q198.648 1495.47 198.648 1488.37 Q198.648 1481.24 196.819 1477.69 Q195.014 1474.13 191.38 1474.13 M191.38 1470.43 Q197.19 1470.43 200.245 1475.03 Q203.324 1479.62 203.324 1488.37 Q203.324 1497.09 200.245 1501.7 Q197.19 1506.28 191.38 1506.28 Q185.569 1506.28 182.491 1501.7 Q179.435 1497.09 179.435 1488.37 Q179.435 1479.62 182.491 1475.03 Q185.569 1470.43 191.38 1470.43 Z" fill="#000000" fill-rule="evenodd" fill-opacity="1" /><path clip-path="url(#clip460)" d="M239.713 1480.15 L229.134 1490.77 L239.713 1501.35 L236.958 1504.15 L226.333 1493.53 L215.708 1504.15 L212.977 1501.35 L223.532 1490.77 L212.977 1480.15 L215.708 1477.35 L226.333 1487.97 L236.958 1477.35 L239.713 1480.15 Z" fill="#000000" fill-rule="evenodd" fill-opacity="1" /><path clip-path="url(#clip460)" d="M252.074 1501.68 L259.713 1501.68 L259.713 1475.31 L251.402 1476.98 L251.402 1472.72 L259.666 1471.05 L264.342 1471.05 L264.342 1501.68 L271.981 1501.68 L271.981 1505.61 L252.074 1505.61 L252.074 1501.68 Z" fill="#000000" fill-rule="evenodd" fill-opacity="1" /><path clip-path="url(#clip460)" d="M291.425 1474.13 Q287.814 1474.13 285.986 1477.69 Q284.18 1481.24 284.18 1488.37 Q284.18 1495.47 285.986 1499.04 Q287.814 1502.58 291.425 1502.58 Q295.06 1502.58 296.865 1499.04 Q298.694 1495.47 298.694 1488.37 Q298.694 1481.24 296.865 1477.69 Q295.06 1474.13 291.425 1474.13 M291.425 1470.43 Q297.236 1470.43 300.291 1475.03 Q303.37 1479.62 303.37 1488.37 Q303.37 1497.09 300.291 1501.7 Q297.236 1506.28 291.425 1506.28 Q285.615 1506.28 282.537 1501.7 Q279.481 1497.09 279.481 1488.37 Q279.481 1479.62 282.537 1475.03 Q285.615 1470.43 291.425 1470.43 Z" fill="#000000" fill-rule="evenodd" fill-opacity="1" /><path clip-path="url(#clip460)" d="M303.915 1475 L310.122 1475 L310.122 1453.58 L303.37 1454.94 L303.37 1451.48 L310.084 1450.12 L313.883 1450.12 L313.883 1475 L320.09 1475 L320.09 1478.2 L303.915 1478.2 L303.915 1475 Z" fill="#000000" fill-rule="evenodd" fill-opacity="1" /><path clip-path="url(#clip460)" d="M327.801 1450.12 L342.716 1450.12 L342.716 1453.32 L331.281 1453.32 L331.281 1460.2 Q332.108 1459.92 332.936 1459.79 Q333.763 1459.64 334.591 1459.64 Q339.293 1459.64 342.039 1462.21 Q344.784 1464.79 344.784 1469.19 Q344.784 1473.72 341.963 1476.24 Q339.142 1478.75 334.008 1478.75 Q332.24 1478.75 330.397 1478.45 Q328.572 1478.14 326.616 1477.54 L326.616 1473.72 Q328.309 1474.65 330.114 1475.1 Q331.92 1475.55 333.932 1475.55 Q337.186 1475.55 339.086 1473.84 Q340.985 1472.13 340.985 1469.19 Q340.985 1466.26 339.086 1464.55 Q337.186 1462.84 333.932 1462.84 Q332.409 1462.84 330.886 1463.17 Q329.381 1463.51 327.801 1464.23 L327.801 1450.12 Z" fill="#000000" fill-rule="evenodd" fill-opacity="1" /><path clip-path="url(#clip460)" d="M96.3802 1257.2 L126.056 1257.2 L126.056 1261.13 L96.3802 1261.13 L96.3802 1257.2 Z" fill="#000000" fill-rule="evenodd" fill-opacity="1" /><path clip-path="url(#clip460)" d="M136.195 1239.47 L154.551 1239.47 L154.551 1243.4 L140.477 1243.4 L140.477 1251.87 Q141.496 1251.53 142.514 1251.36 Q143.533 1251.18 144.551 1251.18 Q150.338 1251.18 153.718 1254.35 Q157.097 1257.52 157.097 1262.94 Q157.097 1268.52 153.625 1271.62 Q150.153 1274.7 143.834 1274.7 Q141.658 1274.7 139.389 1274.33 Q137.144 1273.96 134.736 1273.22 L134.736 1268.52 Q136.82 1269.65 139.042 1270.21 Q141.264 1270.76 143.741 1270.76 Q147.746 1270.76 150.084 1268.66 Q152.422 1266.55 152.422 1262.94 Q152.422 1259.33 150.084 1257.22 Q147.746 1255.11 143.741 1255.11 Q141.866 1255.11 139.991 1255.53 Q138.139 1255.95 136.195 1256.83 L136.195 1239.47 Z" fill="#000000" fill-rule="evenodd" fill-opacity="1" /><path clip-path="url(#clip460)" d="M166.31 1268.15 L171.195 1268.15 L171.195 1274.03 L166.31 1274.03 L166.31 1268.15 Z" fill="#000000" fill-rule="evenodd" fill-opacity="1" /><path clip-path="url(#clip460)" d="M191.38 1242.54 Q187.769 1242.54 185.94 1246.11 Q184.134 1249.65 184.134 1256.78 Q184.134 1263.89 185.94 1267.45 Q187.769 1270.99 191.38 1270.99 Q195.014 1270.99 196.819 1267.45 Q198.648 1263.89 198.648 1256.78 Q198.648 1249.65 196.819 1246.11 Q195.014 1242.54 191.38 1242.54 M191.38 1238.84 Q197.19 1238.84 200.245 1243.45 Q203.324 1248.03 203.324 1256.78 Q203.324 1265.51 200.245 1270.11 Q197.19 1274.7 191.38 1274.7 Q185.569 1274.7 182.491 1270.11 Q179.435 1265.51 179.435 1256.78 Q179.435 1248.03 182.491 1243.45 Q185.569 1238.84 191.38 1238.84 Z" fill="#000000" fill-rule="evenodd" fill-opacity="1" /><path clip-path="url(#clip460)" d="M239.713 1248.56 L229.134 1259.19 L239.713 1269.77 L236.958 1272.57 L226.333 1261.94 L215.708 1272.57 L212.977 1269.77 L223.532 1259.19 L212.977 1248.56 L215.708 1245.76 L226.333 1256.39 L236.958 1245.76 L239.713 1248.56 Z" fill="#000000" fill-rule="evenodd" fill-opacity="1" /><path clip-path="url(#clip460)" d="M252.074 1270.09 L259.713 1270.09 L259.713 1243.72 L251.402 1245.39 L251.402 1241.13 L259.666 1239.47 L264.342 1239.47 L264.342 1270.09 L271.981 1270.09 L271.981 1274.03 L252.074 1274.03 L252.074 1270.09 Z" fill="#000000" fill-rule="evenodd" fill-opacity="1" /><path clip-path="url(#clip460)" d="M291.425 1242.54 Q287.814 1242.54 285.986 1246.11 Q284.18 1249.65 284.18 1256.78 Q284.18 1263.89 285.986 1267.45 Q287.814 1270.99 291.425 1270.99 Q295.06 1270.99 296.865 1267.45 Q298.694 1263.89 298.694 1256.78 Q298.694 1249.65 296.865 1246.11 Q295.06 1242.54 291.425 1242.54 M291.425 1238.84 Q297.236 1238.84 300.291 1243.45 Q303.37 1248.03 303.37 1256.78 Q303.37 1265.51 300.291 1270.11 Q297.236 1274.7 291.425 1274.7 Q285.615 1274.7 282.537 1270.11 Q279.481 1265.51 279.481 1256.78 Q279.481 1248.03 282.537 1243.45 Q285.615 1238.84 291.425 1238.84 Z" fill="#000000" fill-rule="evenodd" fill-opacity="1" /><path clip-path="url(#clip460)" d="M303.915 1243.42 L310.122 1243.42 L310.122 1222 L303.37 1223.35 L303.37 1219.89 L310.084 1218.54 L313.883 1218.54 L313.883 1243.42 L320.09 1243.42 L320.09 1246.62 L303.915 1246.62 L303.915 1243.42 Z" fill="#000000" fill-rule="evenodd" fill-opacity="1" /><path clip-path="url(#clip460)" d="M327.801 1218.54 L342.716 1218.54 L342.716 1221.73 L331.281 1221.73 L331.281 1228.62 Q332.108 1228.33 332.936 1228.2 Q333.763 1228.05 334.591 1228.05 Q339.293 1228.05 342.039 1230.63 Q344.784 1233.21 344.784 1237.61 Q344.784 1242.14 341.963 1244.66 Q339.142 1247.16 334.008 1247.16 Q332.24 1247.16 330.397 1246.86 Q328.572 1246.56 326.616 1245.96 L326.616 1242.14 Q328.309 1243.06 330.114 1243.51 Q331.92 1243.96 333.932 1243.96 Q337.186 1243.96 339.086 1242.25 Q340.985 1240.54 340.985 1237.61 Q340.985 1234.67 339.086 1232.96 Q337.186 1231.25 333.932 1231.25 Q332.409 1231.25 330.886 1231.59 Q329.381 1231.93 327.801 1232.64 L327.801 1218.54 Z" fill="#000000" fill-rule="evenodd" fill-opacity="1" /><path clip-path="url(#clip460)" d="M96.3802 1025.61 L126.056 1025.61 L126.056 1029.55 L96.3802 1029.55 L96.3802 1025.61 Z" fill="#000000" fill-rule="evenodd" fill-opacity="1" /><path clip-path="url(#clip460)" d="M148.996 1011.95 L137.19 1030.4 L148.996 1030.4 L148.996 1011.95 M147.769 1007.88 L153.648 1007.88 L153.648 1030.4 L158.579 1030.4 L158.579 1034.29 L153.648 1034.29 L153.648 1042.44 L148.996 1042.44 L148.996 1034.29 L133.394 1034.29 L133.394 1029.78 L147.769 1007.88 Z" fill="#000000" fill-rule="evenodd" fill-opacity="1" /><path clip-path="url(#clip460)" d="M166.31 1036.56 L171.195 1036.56 L171.195 1042.44 L166.31 1042.44 L166.31 1036.56 Z" fill="#000000" fill-rule="evenodd" fill-opacity="1" /><path clip-path="url(#clip460)" d="M191.38 1010.96 Q187.769 1010.96 185.94 1014.52 Q184.134 1018.07 184.134 1025.19 Q184.134 1032.3 185.94 1035.87 Q187.769 1039.41 191.38 1039.41 Q195.014 1039.41 196.819 1035.87 Q198.648 1032.3 198.648 1025.19 Q198.648 1018.07 196.819 1014.52 Q195.014 1010.96 191.38 1010.96 M191.38 1007.25 Q197.19 1007.25 200.245 1011.86 Q203.324 1016.44 203.324 1025.19 Q203.324 1033.92 200.245 1038.53 Q197.19 1043.11 191.38 1043.11 Q185.569 1043.11 182.491 1038.53 Q179.435 1033.92 179.435 1025.19 Q179.435 1016.44 182.491 1011.86 Q185.569 1007.25 191.38 1007.25 Z" fill="#000000" fill-rule="evenodd" fill-opacity="1" /><path clip-path="url(#clip460)" d="M239.713 1016.98 L229.134 1027.6 L239.713 1038.18 L236.958 1040.98 L226.333 1030.36 L215.708 1040.98 L212.977 1038.18 L223.532 1027.6 L212.977 1016.98 L215.708 1014.18 L226.333 1024.8 L236.958 1014.18 L239.713 1016.98 Z" fill="#000000" fill-rule="evenodd" fill-opacity="1" /><path clip-path="url(#clip460)" d="M252.074 1038.5 L259.713 1038.5 L259.713 1012.14 L251.402 1013.81 L251.402 1009.55 L259.666 1007.88 L264.342 1007.88 L264.342 1038.5 L271.981 1038.5 L271.981 1042.44 L252.074 1042.44 L252.074 1038.5 Z" fill="#000000" fill-rule="evenodd" fill-opacity="1" /><path clip-path="url(#clip460)" d="M291.425 1010.96 Q287.814 1010.96 285.986 1014.52 Q284.18 1018.07 284.18 1025.19 Q284.18 1032.3 285.986 1035.87 Q287.814 1039.41 291.425 1039.41 Q295.06 1039.41 296.865 1035.87 Q298.694 1032.3 298.694 1025.19 Q298.694 1018.07 296.865 1014.52 Q295.06 1010.96 291.425 1010.96 M291.425 1007.25 Q297.236 1007.25 300.291 1011.86 Q303.37 1016.44 303.37 1025.19 Q303.37 1033.92 300.291 1038.53 Q297.236 1043.11 291.425 1043.11 Q285.615 1043.11 282.537 1038.53 Q279.481 1033.92 279.481 1025.19 Q279.481 1016.44 282.537 1011.86 Q285.615 1007.25 291.425 1007.25 Z" fill="#000000" fill-rule="evenodd" fill-opacity="1" /><path clip-path="url(#clip460)" d="M303.915 1011.83 L310.122 1011.83 L310.122 990.41 L303.37 991.764 L303.37 988.304 L310.084 986.949 L313.883 986.949 L313.883 1011.83 L320.09 1011.83 L320.09 1015.03 L303.915 1015.03 L303.915 1011.83 Z" fill="#000000" fill-rule="evenodd" fill-opacity="1" /><path clip-path="url(#clip460)" d="M327.801 986.949 L342.716 986.949 L342.716 990.147 L331.281 990.147 L331.281 997.03 Q332.108 996.748 332.936 996.617 Q333.763 996.466 334.591 996.466 Q339.293 996.466 342.039 999.043 Q344.784 1001.62 344.784 1006.02 Q344.784 1010.55 341.963 1013.07 Q339.142 1015.57 334.008 1015.57 Q332.24 1015.57 330.397 1015.27 Q328.572 1014.97 326.616 1014.37 L326.616 1010.55 Q328.309 1011.47 330.114 1011.93 Q331.92 1012.38 333.932 1012.38 Q337.186 1012.38 339.086 1010.67 Q340.985 1008.95 340.985 1006.02 Q340.985 1003.09 339.086 1001.38 Q337.186 999.664 333.932 999.664 Q332.409 999.664 330.886 1000 Q329.381 1000.34 327.801 1001.06 L327.801 986.949 Z" fill="#000000" fill-rule="evenodd" fill-opacity="1" /><path clip-path="url(#clip460)" d="M96.3802 794.026 L126.056 794.026 L126.056 797.961 L96.3802 797.961 L96.3802 794.026 Z" fill="#000000" fill-rule="evenodd" fill-opacity="1" /><path clip-path="url(#clip460)" d="M150.315 792.22 Q153.672 792.938 155.547 795.206 Q157.445 797.475 157.445 800.808 Q157.445 805.924 153.926 808.725 Q150.408 811.525 143.926 811.525 Q141.75 811.525 139.435 811.086 Q137.144 810.669 134.69 809.812 L134.69 805.299 Q136.635 806.433 138.949 807.012 Q141.264 807.59 143.787 807.59 Q148.185 807.59 150.477 805.854 Q152.792 804.118 152.792 800.808 Q152.792 797.752 150.639 796.039 Q148.51 794.303 144.69 794.303 L140.662 794.303 L140.662 790.461 L144.875 790.461 Q148.324 790.461 150.153 789.095 Q151.982 787.706 151.982 785.114 Q151.982 782.452 150.084 781.039 Q148.209 779.604 144.69 779.604 Q142.769 779.604 140.57 780.021 Q138.371 780.438 135.732 781.317 L135.732 777.151 Q138.394 776.41 140.709 776.039 Q143.047 775.669 145.107 775.669 Q150.431 775.669 153.533 778.1 Q156.634 780.507 156.634 784.627 Q156.634 787.498 154.991 789.489 Q153.347 791.456 150.315 792.22 Z" fill="#000000" fill-rule="evenodd" fill-opacity="1" /><path clip-path="url(#clip460)" d="M166.31 804.975 L171.195 804.975 L171.195 810.854 L166.31 810.854 L166.31 804.975 Z" fill="#000000" fill-rule="evenodd" fill-opacity="1" /><path clip-path="url(#clip460)" d="M191.38 779.373 Q187.769 779.373 185.94 782.938 Q184.134 786.479 184.134 793.609 Q184.134 800.715 185.94 804.28 Q187.769 807.822 191.38 807.822 Q195.014 807.822 196.819 804.28 Q198.648 800.715 198.648 793.609 Q198.648 786.479 196.819 782.938 Q195.014 779.373 191.38 779.373 M191.38 775.669 Q197.19 775.669 200.245 780.276 Q203.324 784.859 203.324 793.609 Q203.324 802.336 200.245 806.942 Q197.19 811.525 191.38 811.525 Q185.569 811.525 182.491 806.942 Q179.435 802.336 179.435 793.609 Q179.435 784.859 182.491 780.276 Q185.569 775.669 191.38 775.669 Z" fill="#000000" fill-rule="evenodd" fill-opacity="1" /><path clip-path="url(#clip460)" d="M239.713 785.391 L229.134 796.016 L239.713 806.595 L236.958 809.396 L226.333 798.771 L215.708 809.396 L212.977 806.595 L223.532 796.016 L212.977 785.391 L215.708 782.59 L226.333 793.215 L236.958 782.59 L239.713 785.391 Z" fill="#000000" fill-rule="evenodd" fill-opacity="1" /><path clip-path="url(#clip460)" d="M252.074 806.919 L259.713 806.919 L259.713 780.553 L251.402 782.22 L251.402 777.961 L259.666 776.294 L264.342 776.294 L264.342 806.919 L271.981 806.919 L271.981 810.854 L252.074 810.854 L252.074 806.919 Z" fill="#000000" fill-rule="evenodd" fill-opacity="1" /><path clip-path="url(#clip460)" d="M291.425 779.373 Q287.814 779.373 285.986 782.938 Q284.18 786.479 284.18 793.609 Q284.18 800.715 285.986 804.28 Q287.814 807.822 291.425 807.822 Q295.06 807.822 296.865 804.28 Q298.694 800.715 298.694 793.609 Q298.694 786.479 296.865 782.938 Q295.06 779.373 291.425 779.373 M291.425 775.669 Q297.236 775.669 300.291 780.276 Q303.37 784.859 303.37 793.609 Q303.37 802.336 300.291 806.942 Q297.236 811.525 291.425 811.525 Q285.615 811.525 282.537 806.942 Q279.481 802.336 279.481 793.609 Q279.481 784.859 282.537 780.276 Q285.615 775.669 291.425 775.669 Z" fill="#000000" fill-rule="evenodd" fill-opacity="1" /><path clip-path="url(#clip460)" d="M303.915 780.246 L310.122 780.246 L310.122 758.824 L303.37 760.179 L303.37 756.718 L310.084 755.364 L313.883 755.364 L313.883 780.246 L320.09 780.246 L320.09 783.444 L303.915 783.444 L303.915 780.246 Z" fill="#000000" fill-rule="evenodd" fill-opacity="1" /><path clip-path="url(#clip460)" d="M327.801 755.364 L342.716 755.364 L342.716 758.561 L331.281 758.561 L331.281 765.445 Q332.108 765.163 332.936 765.031 Q333.763 764.88 334.591 764.88 Q339.293 764.88 342.039 767.457 Q344.784 770.034 344.784 774.435 Q344.784 778.967 341.963 781.488 Q339.142 783.989 334.008 783.989 Q332.24 783.989 330.397 783.688 Q328.572 783.387 326.616 782.785 L326.616 778.967 Q328.309 779.889 330.114 780.34 Q331.92 780.792 333.932 780.792 Q337.186 780.792 339.086 779.08 Q340.985 777.369 340.985 774.435 Q340.985 771.501 339.086 769.789 Q337.186 768.078 333.932 768.078 Q332.409 768.078 330.886 768.416 Q329.381 768.755 327.801 769.47 L327.801 755.364 Z" fill="#000000" fill-rule="evenodd" fill-opacity="1" /><path clip-path="url(#clip460)" d="M96.3802 562.44 L126.056 562.44 L126.056 566.375 L96.3802 566.375 L96.3802 562.44 Z" fill="#000000" fill-rule="evenodd" fill-opacity="1" /><path clip-path="url(#clip460)" d="M140.176 575.333 L156.496 575.333 L156.496 579.268 L134.551 579.268 L134.551 575.333 Q137.213 572.579 141.797 567.949 Q146.403 563.296 147.584 561.954 Q149.829 559.431 150.709 557.694 Q151.611 555.935 151.611 554.245 Q151.611 551.491 149.667 549.755 Q147.746 548.019 144.644 548.019 Q142.445 548.019 139.991 548.782 Q137.56 549.546 134.783 551.097 L134.783 546.375 Q137.607 545.241 140.06 544.662 Q142.514 544.083 144.551 544.083 Q149.922 544.083 153.116 546.769 Q156.31 549.454 156.31 553.944 Q156.31 556.074 155.5 557.995 Q154.713 559.893 152.607 562.486 Q152.028 563.157 148.926 566.375 Q145.824 569.569 140.176 575.333 Z" fill="#000000" fill-rule="evenodd" fill-opacity="1" /><path clip-path="url(#clip460)" d="M166.31 573.389 L171.195 573.389 L171.195 579.268 L166.31 579.268 L166.31 573.389 Z" fill="#000000" fill-rule="evenodd" fill-opacity="1" /><path clip-path="url(#clip460)" d="M191.38 547.787 Q187.769 547.787 185.94 551.352 Q184.134 554.893 184.134 562.023 Q184.134 569.13 185.94 572.694 Q187.769 576.236 191.38 576.236 Q195.014 576.236 196.819 572.694 Q198.648 569.13 198.648 562.023 Q198.648 554.893 196.819 551.352 Q195.014 547.787 191.38 547.787 M191.38 544.083 Q197.19 544.083 200.245 548.69 Q203.324 553.273 203.324 562.023 Q203.324 570.75 200.245 575.356 Q197.19 579.94 191.38 579.94 Q185.569 579.94 182.491 575.356 Q179.435 570.75 179.435 562.023 Q179.435 553.273 182.491 548.69 Q185.569 544.083 191.38 544.083 Z" fill="#000000" fill-rule="evenodd" fill-opacity="1" /><path clip-path="url(#clip460)" d="M239.713 553.806 L229.134 564.43 L239.713 575.009 L236.958 577.81 L226.333 567.185 L215.708 577.81 L212.977 575.009 L223.532 564.43 L212.977 553.806 L215.708 551.005 L226.333 561.63 L236.958 551.005 L239.713 553.806 Z" fill="#000000" fill-rule="evenodd" fill-opacity="1" /><path clip-path="url(#clip460)" d="M252.074 575.333 L259.713 575.333 L259.713 548.968 L251.402 550.634 L251.402 546.375 L259.666 544.708 L264.342 544.708 L264.342 575.333 L271.981 575.333 L271.981 579.268 L252.074 579.268 L252.074 575.333 Z" fill="#000000" fill-rule="evenodd" fill-opacity="1" /><path clip-path="url(#clip460)" d="M291.425 547.787 Q287.814 547.787 285.986 551.352 Q284.18 554.893 284.18 562.023 Q284.18 569.13 285.986 572.694 Q287.814 576.236 291.425 576.236 Q295.06 576.236 296.865 572.694 Q298.694 569.13 298.694 562.023 Q298.694 554.893 296.865 551.352 Q295.06 547.787 291.425 547.787 M291.425 544.083 Q297.236 544.083 300.291 548.69 Q303.37 553.273 303.37 562.023 Q303.37 570.75 300.291 575.356 Q297.236 579.94 291.425 579.94 Q285.615 579.94 282.537 575.356 Q279.481 570.75 279.481 562.023 Q279.481 553.273 282.537 548.69 Q285.615 544.083 291.425 544.083 Z" fill="#000000" fill-rule="evenodd" fill-opacity="1" /><path clip-path="url(#clip460)" d="M303.915 548.661 L310.122 548.661 L310.122 527.239 L303.37 528.593 L303.37 525.132 L310.084 523.778 L313.883 523.778 L313.883 548.661 L320.09 548.661 L320.09 551.858 L303.915 551.858 L303.915 548.661 Z" fill="#000000" fill-rule="evenodd" fill-opacity="1" /><path clip-path="url(#clip460)" d="M327.801 523.778 L342.716 523.778 L342.716 526.975 L331.281 526.975 L331.281 533.859 Q332.108 533.577 332.936 533.445 Q333.763 533.295 334.591 533.295 Q339.293 533.295 342.039 535.871 Q344.784 538.448 344.784 542.849 Q344.784 547.382 341.963 549.902 Q339.142 552.403 334.008 552.403 Q332.24 552.403 330.397 552.102 Q328.572 551.802 326.616 551.2 L326.616 547.382 Q328.309 548.303 330.114 548.755 Q331.92 549.206 333.932 549.206 Q337.186 549.206 339.086 547.495 Q340.985 545.783 340.985 542.849 Q340.985 539.915 339.086 538.204 Q337.186 536.492 333.932 536.492 Q332.409 536.492 330.886 536.831 Q329.381 537.169 327.801 537.884 L327.801 523.778 Z" fill="#000000" fill-rule="evenodd" fill-opacity="1" /><path clip-path="url(#clip460)" d="M96.3802 330.854 L126.056 330.854 L126.056 334.789 L96.3802 334.789 L96.3802 330.854 Z" fill="#000000" fill-rule="evenodd" fill-opacity="1" /><path clip-path="url(#clip460)" d="M136.959 343.747 L144.597 343.747 L144.597 317.382 L136.287 319.049 L136.287 314.789 L144.551 313.123 L149.227 313.123 L149.227 343.747 L156.866 343.747 L156.866 347.683 L136.959 347.683 L136.959 343.747 Z" fill="#000000" fill-rule="evenodd" fill-opacity="1" /><path clip-path="url(#clip460)" d="M166.31 341.803 L171.195 341.803 L171.195 347.683 L166.31 347.683 L166.31 341.803 Z" fill="#000000" fill-rule="evenodd" fill-opacity="1" /><path clip-path="url(#clip460)" d="M191.38 316.201 Q187.769 316.201 185.94 319.766 Q184.134 323.308 184.134 330.437 Q184.134 337.544 185.94 341.109 Q187.769 344.65 191.38 344.65 Q195.014 344.65 196.819 341.109 Q198.648 337.544 198.648 330.437 Q198.648 323.308 196.819 319.766 Q195.014 316.201 191.38 316.201 M191.38 312.498 Q197.19 312.498 200.245 317.104 Q203.324 321.687 203.324 330.437 Q203.324 339.164 200.245 343.771 Q197.19 348.354 191.38 348.354 Q185.569 348.354 182.491 343.771 Q179.435 339.164 179.435 330.437 Q179.435 321.687 182.491 317.104 Q185.569 312.498 191.38 312.498 Z" fill="#000000" fill-rule="evenodd" fill-opacity="1" /><path clip-path="url(#clip460)" d="M239.713 322.22 L229.134 332.845 L239.713 343.423 L236.958 346.224 L226.333 335.599 L215.708 346.224 L212.977 343.423 L223.532 332.845 L212.977 322.22 L215.708 319.419 L226.333 330.044 L236.958 319.419 L239.713 322.22 Z" fill="#000000" fill-rule="evenodd" fill-opacity="1" /><path clip-path="url(#clip460)" d="M252.074 343.747 L259.713 343.747 L259.713 317.382 L251.402 319.049 L251.402 314.789 L259.666 313.123 L264.342 313.123 L264.342 343.747 L271.981 343.747 L271.981 347.683 L252.074 347.683 L252.074 343.747 Z" fill="#000000" fill-rule="evenodd" fill-opacity="1" /><path clip-path="url(#clip460)" d="M291.425 316.201 Q287.814 316.201 285.986 319.766 Q284.18 323.308 284.18 330.437 Q284.18 337.544 285.986 341.109 Q287.814 344.65 291.425 344.65 Q295.06 344.65 296.865 341.109 Q298.694 337.544 298.694 330.437 Q298.694 323.308 296.865 319.766 Q295.06 316.201 291.425 316.201 M291.425 312.498 Q297.236 312.498 300.291 317.104 Q303.37 321.687 303.37 330.437 Q303.37 339.164 300.291 343.771 Q297.236 348.354 291.425 348.354 Q285.615 348.354 282.537 343.771 Q279.481 339.164 279.481 330.437 Q279.481 321.687 282.537 317.104 Q285.615 312.498 291.425 312.498 Z" fill="#000000" fill-rule="evenodd" fill-opacity="1" /><path clip-path="url(#clip460)" d="M303.915 317.075 L310.122 317.075 L310.122 295.653 L303.37 297.007 L303.37 293.546 L310.084 292.192 L313.883 292.192 L313.883 317.075 L320.09 317.075 L320.09 320.272 L303.915 320.272 L303.915 317.075 Z" fill="#000000" fill-rule="evenodd" fill-opacity="1" /><path clip-path="url(#clip460)" d="M327.801 292.192 L342.716 292.192 L342.716 295.39 L331.281 295.39 L331.281 302.273 Q332.108 301.991 332.936 301.859 Q333.763 301.709 334.591 301.709 Q339.293 301.709 342.039 304.286 Q344.784 306.862 344.784 311.263 Q344.784 315.796 341.963 318.316 Q339.142 320.818 334.008 320.818 Q332.24 320.818 330.397 320.517 Q328.572 320.216 326.616 319.614 L326.616 315.796 Q328.309 316.718 330.114 317.169 Q331.92 317.62 333.932 317.62 Q337.186 317.62 339.086 315.909 Q340.985 314.197 340.985 311.263 Q340.985 308.329 339.086 306.618 Q337.186 304.906 333.932 304.906 Q332.409 304.906 330.886 305.245 Q329.381 305.583 327.801 306.298 L327.801 292.192 Z" fill="#000000" fill-rule="evenodd" fill-opacity="1" /><path clip-path="url(#clip460)" d="M332.84 78.1679 Q329.229 78.1679 327.4 81.7327 Q325.595 85.2744 325.595 92.404 Q325.595 99.5104 327.4 103.075 Q329.229 106.617 332.84 106.617 Q336.474 106.617 338.28 103.075 Q340.109 99.5104 340.109 92.404 Q340.109 85.2744 338.28 81.7327 Q336.474 78.1679 332.84 78.1679 M332.84 74.4642 Q338.65 74.4642 341.706 79.0707 Q344.784 83.654 344.784 92.404 Q344.784 101.131 341.706 105.737 Q338.65 110.321 332.84 110.321 Q327.03 110.321 323.951 105.737 Q320.896 101.131 320.896 92.404 Q320.896 83.654 323.951 79.0707 Q327.03 74.4642 332.84 74.4642 Z" fill="#000000" fill-rule="evenodd" fill-opacity="1" /><path clip-path="url(#clip460)" d="M-19.3958 989.546 L-19.3958 979.966 L12.9419 967.839 L-19.3958 955.649 L-19.3958 946.069 L28.1242 946.069 L28.1242 952.339 L-13.603 952.339 L18.9894 964.593 L18.9894 971.054 L-13.603 983.308 L28.1242 983.308 L28.1242 989.546 L-19.3958 989.546 Z" fill="#000000" fill-rule="evenodd" fill-opacity="1" /><path clip-path="url(#clip460)" d="M-7.5238 933.56 L-7.5238 927.704 L28.1242 927.704 L28.1242 933.56 L-7.5238 933.56 M-21.401 933.56 L-21.401 927.704 L-13.985 927.704 L-13.985 933.56 L-21.401 933.56 Z" fill="#000000" fill-rule="evenodd" fill-opacity="1" /><path clip-path="url(#clip460)" d="M6.60807 885.817 L28.1242 885.817 L28.1242 891.674 L6.79904 891.674 Q1.7383 891.674 -0.776151 893.647 Q-3.2906 895.62 -3.2906 899.567 Q-3.2906 904.31 -0.266894 907.047 Q2.75682 909.784 7.9767 909.784 L28.1242 909.784 L28.1242 915.672 L-7.5238 915.672 L-7.5238 909.784 L-1.98563 909.784 Q-5.20032 907.683 -6.79174 904.851 Q-8.38317 901.986 -8.38317 898.262 Q-8.38317 892.119 -4.56375 888.968 Q-0.776151 885.817 6.60807 885.817 Z" fill="#000000" fill-rule="evenodd" fill-opacity="1" /><path clip-path="url(#clip460)" d="M-7.5238 874.136 L-7.5238 868.28 L28.1242 868.28 L28.1242 874.136 L-7.5238 874.136 M-21.401 874.136 L-21.401 868.28 L-13.985 868.28 L-13.985 874.136 L-21.401 874.136 Z" fill="#000000" fill-rule="evenodd" fill-opacity="1" /><path clip-path="url(#clip460)" d="M-0.680665 828.271 Q-4.6274 826.075 -6.50529 823.02 Q-8.38317 819.964 -8.38317 815.826 Q-8.38317 810.256 -4.46826 807.233 Q-0.585179 804.209 6.60807 804.209 L28.1242 804.209 L28.1242 810.097 L6.79904 810.097 Q1.67465 810.097 -0.807979 811.911 Q-3.2906 813.726 -3.2906 817.45 Q-3.2906 822.001 -0.266894 824.643 Q2.75682 827.285 7.9767 827.285 L28.1242 827.285 L28.1242 833.173 L6.79904 833.173 Q1.64282 833.173 -0.807979 834.987 Q-3.2906 836.801 -3.2906 840.589 Q-3.2906 845.077 -0.235066 847.718 Q2.78865 850.36 7.9767 850.36 L28.1242 850.36 L28.1242 856.249 L-7.5238 856.249 L-7.5238 850.36 L-1.98563 850.36 Q-5.26397 848.355 -6.82357 845.554 Q-8.38317 842.753 -8.38317 838.902 Q-8.38317 835.019 -6.4098 832.313 Q-4.43643 829.576 -0.680665 828.271 Z" fill="#000000" fill-rule="evenodd" fill-opacity="1" /><path clip-path="url(#clip460)" d="M14.0559 793.133 L-7.5238 793.133 L-7.5238 787.276 L13.8331 787.276 Q18.8939 787.276 21.4402 785.303 Q23.9546 783.329 23.9546 779.383 Q23.9546 774.64 20.9309 771.903 Q17.9072 769.134 12.6873 769.134 L-7.5238 769.134 L-7.5238 763.277 L28.1242 763.277 L28.1242 769.134 L22.6496 769.134 Q25.8962 771.266 27.4876 774.099 Q29.0472 776.9 29.0472 780.624 Q29.0472 786.767 25.2278 789.95 Q21.4083 793.133 14.0559 793.133 M-8.38317 778.396 L-8.38317 778.396 Z" fill="#000000" fill-rule="evenodd" fill-opacity="1" /><path clip-path="url(#clip460)" d="M-0.680665 723.46 Q-4.6274 721.264 -6.50529 718.208 Q-8.38317 715.153 -8.38317 711.015 Q-8.38317 705.445 -4.46826 702.421 Q-0.585179 699.398 6.60807 699.398 L28.1242 699.398 L28.1242 705.286 L6.79904 705.286 Q1.67465 705.286 -0.807979 707.1 Q-3.2906 708.914 -3.2906 712.638 Q-3.2906 717.19 -0.266894 719.831 Q2.75682 722.473 7.9767 722.473 L28.1242 722.473 L28.1242 728.361 L6.79904 728.361 Q1.64282 728.361 -0.807979 730.176 Q-3.2906 731.99 -3.2906 735.778 Q-3.2906 740.265 -0.235066 742.907 Q2.78865 745.549 7.9767 745.549 L28.1242 745.549 L28.1242 751.437 L-7.5238 751.437 L-7.5238 745.549 L-1.98563 745.549 Q-5.26397 743.544 -6.82357 740.743 Q-8.38317 737.942 -8.38317 734.091 Q-8.38317 730.208 -6.4098 727.502 Q-4.43643 724.765 -0.680665 723.46 Z" fill="#000000" fill-rule="evenodd" fill-opacity="1" /><polyline clip-path="url(#clip462)" style="stroke:#009af9; stroke-linecap:butt; stroke-linejoin:round; stroke-width:4; stroke-opacity:1; fill:none" points="
  468,92.3702 560.288,92.3729 652.575,92.3773 744.863,92.3821 837.151,92.3836 929.438,92.4004 1021.73,92.4409 1114.01,92.4571 1206.3,92.5495 1298.59,92.607 
  1390.88,93.0625 1483.16,92.9272 1575.45,95.5016 1667.74,96.5033 1760.03,95.4632 1852.31,108.849 1944.6,102.429 2036.89,100.223 2129.18,113.929 2221.46,142.488 
  2313.75,150.913 2406.04,261.722 2498.33,488.792 2590.61,575.024 2682.9,376.117 2775.19,742.598 
  "/>
<polyline clip-path="url(#clip462)" style="stroke:#e26f46; stroke-linecap:butt; stroke-linejoin:round; stroke-width:4; stroke-opacity:1; fill:none" points="
  468,92.3719 560.288,92.3792 652.575,92.3902 744.863,92.4173 837.151,92.4312 929.438,92.4376 1021.73,92.5439 1114.01,92.7202 1206.3,93.1144 1298.59,93.3333 
  1390.88,94.0384 1483.16,94.9846 1575.45,96.8696 1667.74,102.56 1760.03,117.188 1852.31,112.533 1944.6,126.091 2036.89,190.639 2129.18,177.522 2221.46,134.221 
  2313.75,174.217 2406.04,314.312 2498.33,1434.17 2590.61,359.261 2682.9,866.831 2775.19,1596.57 
  "/>
<path clip-path="url(#clip460)" d="
M2949.54 281.833 L3552.76 281.833 L3552.76 100.393 L2949.54 100.393  Z
  " fill="#ffffff" fill-rule="evenodd" fill-opacity="1"/>
<polyline clip-path="url(#clip460)" style="stroke:#000000; stroke-linecap:butt; stroke-linejoin:round; stroke-width:4; stroke-opacity:1; fill:none" points="
  2949.54,281.833 3552.76,281.833 3552.76,100.393 2949.54,100.393 2949.54,281.833 
  "/>
<polyline clip-path="url(#clip460)" style="stroke:#009af9; stroke-linecap:butt; stroke-linejoin:round; stroke-width:4; stroke-opacity:1; fill:none" points="
  2984.58,160.873 3194.85,160.873 
  "/>
<path clip-path="url(#clip460)" d="M3229.89 143.593 L3234.57 143.593 L3234.57 157.759 L3251.56 157.759 L3251.56 143.593 L3256.23 143.593 L3256.23 178.153 L3251.56 178.153 L3251.56 161.694 L3234.57 161.694 L3234.57 178.153 L3229.89 178.153 L3229.89 143.593 Z" fill="#000000" fill-rule="evenodd" fill-opacity="1" /><path clip-path="url(#clip460)" d="M3276.14 180.56 Q3274.34 185.19 3272.62 186.602 Q3270.91 188.014 3268.04 188.014 L3264.64 188.014 L3264.64 184.449 L3267.14 184.449 Q3268.9 184.449 3269.87 183.616 Q3270.84 182.782 3272.02 179.68 L3272.78 177.736 L3262.3 152.227 L3266.81 152.227 L3274.91 172.505 L3283.02 152.227 L3287.53 152.227 L3276.14 180.56 Z" fill="#000000" fill-rule="evenodd" fill-opacity="1" /><path clip-path="url(#clip460)" d="M3297.53 174.264 L3297.53 188.014 L3293.25 188.014 L3293.25 152.227 L3297.53 152.227 L3297.53 156.162 Q3298.87 153.847 3300.91 152.736 Q3302.97 151.602 3305.82 151.602 Q3310.54 151.602 3313.48 155.352 Q3316.44 159.102 3316.44 165.213 Q3316.44 171.324 3313.48 175.074 Q3310.54 178.824 3305.82 178.824 Q3302.97 178.824 3300.91 177.713 Q3298.87 176.579 3297.53 174.264 M3312.02 165.213 Q3312.02 160.514 3310.08 157.852 Q3308.15 155.167 3304.78 155.167 Q3301.4 155.167 3299.45 157.852 Q3297.53 160.514 3297.53 165.213 Q3297.53 169.912 3299.45 172.597 Q3301.4 175.259 3304.78 175.259 Q3308.15 175.259 3310.08 172.597 Q3312.02 169.912 3312.02 165.213 Z" fill="#000000" fill-rule="evenodd" fill-opacity="1" /><path clip-path="url(#clip460)" d="M3345.68 164.125 L3345.68 166.208 L3326.09 166.208 Q3326.37 170.606 3328.73 172.921 Q3331.12 175.213 3335.35 175.213 Q3337.81 175.213 3340.1 174.611 Q3342.41 174.009 3344.68 172.805 L3344.68 176.833 Q3342.39 177.805 3339.98 178.315 Q3337.58 178.824 3335.1 178.824 Q3328.9 178.824 3325.26 175.213 Q3321.65 171.602 3321.65 165.444 Q3321.65 159.079 3325.08 155.352 Q3328.52 151.602 3334.36 151.602 Q3339.59 151.602 3342.62 154.981 Q3345.68 158.338 3345.68 164.125 M3341.42 162.875 Q3341.37 159.38 3339.45 157.296 Q3337.55 155.213 3334.4 155.213 Q3330.84 155.213 3328.69 157.227 Q3326.56 159.241 3326.23 162.898 L3341.42 162.875 Z" fill="#000000" fill-rule="evenodd" fill-opacity="1" /><path clip-path="url(#clip460)" d="M3367.69 156.208 Q3366.97 155.792 3366.12 155.606 Q3365.28 155.398 3364.27 155.398 Q3360.65 155.398 3358.71 157.759 Q3356.79 160.097 3356.79 164.495 L3356.79 178.153 L3352.51 178.153 L3352.51 152.227 L3356.79 152.227 L3356.79 156.255 Q3358.13 153.893 3360.28 152.759 Q3362.44 151.602 3365.52 151.602 Q3365.96 151.602 3366.49 151.671 Q3367.02 151.718 3367.67 151.833 L3367.69 156.208 Z" fill="#000000" fill-rule="evenodd" fill-opacity="1" /><path clip-path="url(#clip460)" d="M3390.77 165.213 Q3390.77 160.514 3388.83 157.852 Q3386.9 155.167 3383.52 155.167 Q3380.15 155.167 3378.2 157.852 Q3376.28 160.514 3376.28 165.213 Q3376.28 169.912 3378.2 172.597 Q3380.15 175.259 3383.52 175.259 Q3386.9 175.259 3388.83 172.597 Q3390.77 169.912 3390.77 165.213 M3376.28 156.162 Q3377.62 153.847 3379.66 152.736 Q3381.72 151.602 3384.57 151.602 Q3389.29 151.602 3392.23 155.352 Q3395.19 159.102 3395.19 165.213 Q3395.19 171.324 3392.23 175.074 Q3389.29 178.824 3384.57 178.824 Q3381.72 178.824 3379.66 177.713 Q3377.62 176.579 3376.28 174.264 L3376.28 178.153 L3372 178.153 L3372 142.134 L3376.28 142.134 L3376.28 156.162 Z" fill="#000000" fill-rule="evenodd" fill-opacity="1" /><path clip-path="url(#clip460)" d="M3414.03 165.12 Q3408.87 165.12 3406.88 166.301 Q3404.89 167.481 3404.89 170.329 Q3404.89 172.597 3406.37 173.94 Q3407.88 175.259 3410.45 175.259 Q3413.99 175.259 3416.12 172.759 Q3418.27 170.236 3418.27 166.069 L3418.27 165.12 L3414.03 165.12 M3422.53 163.361 L3422.53 178.153 L3418.27 178.153 L3418.27 174.217 Q3416.81 176.579 3414.64 177.713 Q3412.46 178.824 3409.31 178.824 Q3405.33 178.824 3402.97 176.602 Q3400.63 174.356 3400.63 170.606 Q3400.63 166.231 3403.55 164.009 Q3406.49 161.787 3412.3 161.787 L3418.27 161.787 L3418.27 161.37 Q3418.27 158.431 3416.33 156.833 Q3414.4 155.213 3410.91 155.213 Q3408.69 155.213 3406.58 155.745 Q3404.47 156.278 3402.53 157.343 L3402.53 153.407 Q3404.87 152.505 3407.07 152.065 Q3409.27 151.602 3411.35 151.602 Q3416.97 151.602 3419.75 154.518 Q3422.53 157.435 3422.53 163.361 Z" fill="#000000" fill-rule="evenodd" fill-opacity="1" /><path clip-path="url(#clip460)" d="M3452.85 162.505 L3452.85 178.153 L3448.59 178.153 L3448.59 162.643 Q3448.59 158.963 3447.16 157.134 Q3445.72 155.306 3442.85 155.306 Q3439.4 155.306 3437.41 157.505 Q3435.42 159.704 3435.42 163.5 L3435.42 178.153 L3431.14 178.153 L3431.14 152.227 L3435.42 152.227 L3435.42 156.255 Q3436.95 153.917 3439.01 152.759 Q3441.09 151.602 3443.8 151.602 Q3448.27 151.602 3450.56 154.38 Q3452.85 157.134 3452.85 162.505 Z" fill="#000000" fill-rule="evenodd" fill-opacity="1" /><path clip-path="url(#clip460)" d="M3478.41 156.162 L3478.41 142.134 L3482.67 142.134 L3482.67 178.153 L3478.41 178.153 L3478.41 174.264 Q3477.07 176.579 3475.01 177.713 Q3472.97 178.824 3470.1 178.824 Q3465.4 178.824 3462.44 175.074 Q3459.5 171.324 3459.5 165.213 Q3459.5 159.102 3462.44 155.352 Q3465.4 151.602 3470.1 151.602 Q3472.97 151.602 3475.01 152.736 Q3477.07 153.847 3478.41 156.162 M3463.89 165.213 Q3463.89 169.912 3465.82 172.597 Q3467.76 175.259 3471.14 175.259 Q3474.52 175.259 3476.46 172.597 Q3478.41 169.912 3478.41 165.213 Q3478.41 160.514 3476.46 157.852 Q3474.52 155.167 3471.14 155.167 Q3467.76 155.167 3465.82 157.852 Q3463.89 160.514 3463.89 165.213 Z" fill="#000000" fill-rule="evenodd" fill-opacity="1" /><polyline clip-path="url(#clip460)" style="stroke:#e26f46; stroke-linecap:butt; stroke-linejoin:round; stroke-width:4; stroke-opacity:1; fill:none" points="
  2984.58,221.353 3194.85,221.353 
  "/>
<path clip-path="url(#clip460)" d="M3234.57 222.128 L3234.57 234.79 L3242.07 234.79 Q3245.84 234.79 3247.65 233.239 Q3249.47 231.665 3249.47 228.447 Q3249.47 225.207 3247.65 223.679 Q3245.84 222.128 3242.07 222.128 L3234.57 222.128 M3234.57 207.915 L3234.57 218.332 L3241.49 218.332 Q3244.91 218.332 3246.58 217.059 Q3248.27 215.762 3248.27 213.123 Q3248.27 210.508 3246.58 209.211 Q3244.91 207.915 3241.49 207.915 L3234.57 207.915 M3229.89 204.073 L3241.84 204.073 Q3247.18 204.073 3250.08 206.295 Q3252.97 208.517 3252.97 212.614 Q3252.97 215.786 3251.49 217.661 Q3250.01 219.535 3247.14 219.998 Q3250.59 220.739 3252.48 223.1 Q3254.4 225.438 3254.4 228.957 Q3254.4 233.586 3251.26 236.109 Q3248.11 238.633 3242.3 238.633 L3229.89 238.633 L3229.89 204.073 Z" fill="#000000" fill-rule="evenodd" fill-opacity="1" /><path clip-path="url(#clip460)" d="M3275.61 207.244 Q3270.52 207.244 3267.51 211.04 Q3264.52 214.836 3264.52 221.387 Q3264.52 227.915 3267.51 231.711 Q3270.52 235.508 3275.61 235.508 Q3280.7 235.508 3283.66 231.711 Q3286.65 227.915 3286.65 221.387 Q3286.65 214.836 3283.66 211.04 Q3280.7 207.244 3275.61 207.244 M3275.61 203.448 Q3282.88 203.448 3287.23 208.332 Q3291.58 213.193 3291.58 221.387 Q3291.58 229.559 3287.23 234.443 Q3282.88 239.304 3275.61 239.304 Q3268.32 239.304 3263.94 234.443 Q3259.59 229.582 3259.59 221.387 Q3259.59 213.193 3263.94 208.332 Q3268.32 203.448 3275.61 203.448 Z" fill="#000000" fill-rule="evenodd" fill-opacity="1" /><path clip-path="url(#clip460)" d="M3298.9 204.073 L3303.57 204.073 L3303.57 218.239 L3320.56 218.239 L3320.56 204.073 L3325.24 204.073 L3325.24 238.633 L3320.56 238.633 L3320.56 222.174 L3303.57 222.174 L3303.57 238.633 L3298.9 238.633 L3298.9 204.073 Z" fill="#000000" fill-rule="evenodd" fill-opacity="1" /><path clip-path="url(#clip460)" d="M3339.22 222.128 L3339.22 234.79 L3346.72 234.79 Q3350.49 234.79 3352.3 233.239 Q3354.13 231.665 3354.13 228.447 Q3354.13 225.207 3352.3 223.679 Q3350.49 222.128 3346.72 222.128 L3339.22 222.128 M3339.22 207.915 L3339.22 218.332 L3346.14 218.332 Q3349.57 218.332 3351.23 217.059 Q3352.92 215.762 3352.92 213.123 Q3352.92 210.508 3351.23 209.211 Q3349.57 207.915 3346.14 207.915 L3339.22 207.915 M3334.54 204.073 L3346.49 204.073 Q3351.84 204.073 3354.73 206.295 Q3357.62 208.517 3357.62 212.614 Q3357.62 215.786 3356.14 217.661 Q3354.66 219.535 3351.79 219.998 Q3355.24 220.739 3357.14 223.1 Q3359.06 225.438 3359.06 228.957 Q3359.06 233.586 3355.91 236.109 Q3352.76 238.633 3346.95 238.633 L3334.54 238.633 L3334.54 204.073 Z" fill="#000000" fill-rule="evenodd" fill-opacity="1" /></svg>
