<?xml version="1.0" encoding="utf-8"?>
<svg xmlns="http://www.w3.org/2000/svg" xmlns:xlink="http://www.w3.org/1999/xlink" width="600" height="400" viewBox="0 0 2400 1600">
<defs>
  <clipPath id="clip540">
    <rect x="0" y="0" width="2400" height="1600"/>
  </clipPath>
</defs>
<path clip-path="url(#clip540)" d="
M0 1600 L2400 1600 L2400 0 L0 0  Z
  " fill="#ffffff" fill-rule="evenodd" fill-opacity="1"/>
<defs>
  <clipPath id="clip541">
    <rect x="480" y="0" width="1681" height="1600"/>
  </clipPath>
</defs>
<path clip-path="url(#clip540)" d="
M202.227 1410.9 L2352.76 1410.9 L2352.76 123.472 L202.227 123.472  Z
  " fill="#ffffff" fill-rule="evenodd" fill-opacity="1"/>
<defs>
  <clipPath id="clip542">
    <rect x="202" y="123" width="2152" height="1288"/>
  </clipPath>
</defs>
<polyline clip-path="url(#clip542)" style="stroke:#000000; stroke-linecap:butt; stroke-linejoin:round; stroke-width:2; stroke-opacity:0.1; fill:none" points="
  496.988,1410.9 496.988,123.472 
  "/>
<polyline clip-path="url(#clip542)" style="stroke:#000000; stroke-linecap:butt; stroke-linejoin:round; stroke-width:2; stroke-opacity:0.1; fill:none" points="
  1154.07,1410.9 1154.07,123.472 
  "/>
<polyline clip-path="url(#clip542)" style="stroke:#000000; stroke-linecap:butt; stroke-linejoin:round; stroke-width:2; stroke-opacity:0.1; fill:none" points="
  1811.14,1410.9 1811.14,123.472 
  "/>
<polyline clip-path="url(#clip540)" style="stroke:#000000; stroke-linecap:butt; stroke-linejoin:round; stroke-width:4; stroke-opacity:1; fill:none" points="
  202.227,1410.9 2352.76,1410.9 
  "/>
<polyline clip-path="url(#clip540)" style="stroke:#000000; stroke-linecap:butt; stroke-linejoin:round; stroke-width:4; stroke-opacity:1; fill:none" points="
  496.988,1410.9 496.988,1395.45 
  "/>
<polyline clip-path="url(#clip540)" style="stroke:#000000; stroke-linecap:butt; stroke-linejoin:round; stroke-width:4; stroke-opacity:1; fill:none" points="
  1154.07,1410.9 1154.07,1395.45 
  "/>
<polyline clip-path="url(#clip540)" style="stroke:#000000; stroke-linecap:butt; stroke-linejoin:round; stroke-width:4; stroke-opacity:1; fill:none" points="
  1811.14,1410.9 1811.14,1395.45 
  "/>
<path clip-path="url(#clip540)" d="M447.103 1489.17 L454.742 1489.17 L454.742 1462.8 L446.432 1464.47 L446.432 1460.21 L454.696 1458.54 L459.372 1458.54 L459.372 1489.17 L467.011 1489.17 L467.011 1493.1 L447.103 1493.1 L447.103 1489.17 Z" fill="#000000" fill-rule="evenodd" fill-opacity="1" /><path clip-path="url(#clip540)" d="M486.455 1461.62 Q482.844 1461.62 481.015 1465.19 Q479.21 1468.73 479.21 1475.86 Q479.21 1482.97 481.015 1486.53 Q482.844 1490.07 486.455 1490.07 Q490.089 1490.07 491.895 1486.53 Q493.723 1482.97 493.723 1475.86 Q493.723 1468.73 491.895 1465.19 Q490.089 1461.62 486.455 1461.62 M486.455 1457.92 Q492.265 1457.92 495.321 1462.53 Q498.399 1467.11 498.399 1475.86 Q498.399 1484.59 495.321 1489.19 Q492.265 1493.78 486.455 1493.78 Q480.645 1493.78 477.566 1489.19 Q474.511 1484.59 474.511 1475.86 Q474.511 1467.11 477.566 1462.53 Q480.645 1457.92 486.455 1457.92 Z" fill="#000000" fill-rule="evenodd" fill-opacity="1" /><path clip-path="url(#clip540)" d="M498.399 1452.02 L522.511 1452.02 L522.511 1455.22 L498.399 1455.22 L498.399 1452.02 Z" fill="#000000" fill-rule="evenodd" fill-opacity="1" /><path clip-path="url(#clip540)" d="M531.369 1462.5 L537.576 1462.5 L537.576 1441.07 L530.824 1442.43 L530.824 1438.97 L537.538 1437.61 L541.338 1437.61 L541.338 1462.5 L547.544 1462.5 L547.544 1465.69 L531.369 1465.69 L531.369 1462.5 Z" fill="#000000" fill-rule="evenodd" fill-opacity="1" /><path clip-path="url(#clip540)" d="M1119.05 1489.17 L1126.69 1489.17 L1126.69 1462.8 L1118.38 1464.47 L1118.38 1460.21 L1126.64 1458.54 L1131.32 1458.54 L1131.32 1489.17 L1138.96 1489.17 L1138.96 1493.1 L1119.05 1493.1 L1119.05 1489.17 Z" fill="#000000" fill-rule="evenodd" fill-opacity="1" /><path clip-path="url(#clip540)" d="M1158.4 1461.62 Q1154.79 1461.62 1152.96 1465.19 Q1151.15 1468.73 1151.15 1475.86 Q1151.15 1482.97 1152.96 1486.53 Q1154.79 1490.07 1158.4 1490.07 Q1162.03 1490.07 1163.84 1486.53 Q1165.67 1482.97 1165.67 1475.86 Q1165.67 1468.73 1163.84 1465.19 Q1162.03 1461.62 1158.4 1461.62 M1158.4 1457.92 Q1164.21 1457.92 1167.27 1462.53 Q1170.34 1467.11 1170.34 1475.86 Q1170.34 1484.59 1167.27 1489.19 Q1164.21 1493.78 1158.4 1493.78 Q1152.59 1493.78 1149.51 1489.19 Q1146.46 1484.59 1146.46 1475.86 Q1146.46 1467.11 1149.51 1462.53 Q1152.59 1457.92 1158.4 1457.92 Z" fill="#000000" fill-rule="evenodd" fill-opacity="1" /><path clip-path="url(#clip540)" d="M1180.05 1440.11 Q1177.12 1440.11 1175.63 1443.01 Q1174.16 1445.89 1174.16 1451.68 Q1174.16 1457.46 1175.63 1460.35 Q1177.12 1463.23 1180.05 1463.23 Q1183 1463.23 1184.47 1460.35 Q1185.95 1457.46 1185.95 1451.68 Q1185.95 1445.89 1184.47 1443.01 Q1183 1440.11 1180.05 1440.11 M1180.05 1437.11 Q1184.77 1437.11 1187.25 1440.85 Q1189.75 1444.57 1189.75 1451.68 Q1189.75 1458.77 1187.25 1462.51 Q1184.77 1466.24 1180.05 1466.24 Q1175.33 1466.24 1172.83 1462.51 Q1170.34 1458.77 1170.34 1451.68 Q1170.34 1444.57 1172.83 1440.85 Q1175.33 1437.11 1180.05 1437.11 Z" fill="#000000" fill-rule="evenodd" fill-opacity="1" /><path clip-path="url(#clip540)" d="M1777.47 1489.17 L1785.11 1489.17 L1785.11 1462.8 L1776.8 1464.47 L1776.8 1460.21 L1785.06 1458.54 L1789.74 1458.54 L1789.74 1489.17 L1797.38 1489.17 L1797.38 1493.1 L1777.47 1493.1 L1777.47 1489.17 Z" fill="#000000" fill-rule="evenodd" fill-opacity="1" /><path clip-path="url(#clip540)" d="M1816.82 1461.62 Q1813.21 1461.62 1811.38 1465.19 Q1809.58 1468.73 1809.58 1475.86 Q1809.58 1482.97 1811.38 1486.53 Q1813.21 1490.07 1816.82 1490.07 Q1820.46 1490.07 1822.26 1486.53 Q1824.09 1482.97 1824.09 1475.86 Q1824.09 1468.73 1822.26 1465.19 Q1820.46 1461.62 1816.82 1461.62 M1816.82 1457.92 Q1822.63 1457.92 1825.69 1462.53 Q1828.77 1467.11 1828.77 1475.86 Q1828.77 1484.59 1825.69 1489.19 Q1822.63 1493.78 1816.82 1493.78 Q1811.01 1493.78 1807.93 1489.19 Q1804.88 1484.59 1804.88 1475.86 Q1804.88 1467.11 1807.93 1462.53 Q1811.01 1457.92 1816.82 1457.92 Z" fill="#000000" fill-rule="evenodd" fill-opacity="1" /><path clip-path="url(#clip540)" d="M1829.31 1462.5 L1835.52 1462.5 L1835.52 1441.07 L1828.77 1442.43 L1828.77 1438.97 L1835.48 1437.61 L1839.28 1437.61 L1839.28 1462.5 L1845.49 1462.5 L1845.49 1465.69 L1829.31 1465.69 L1829.31 1462.5 Z" fill="#000000" fill-rule="evenodd" fill-opacity="1" /><path clip-path="url(#clip540)" d="M1080.03 1528.42 L1080.03 1538.54 L1092.09 1538.54 L1092.09 1543.09 L1080.03 1543.09 L1080.03 1562.44 Q1080.03 1566.8 1081.21 1568.04 Q1082.41 1569.28 1086.07 1569.28 L1092.09 1569.28 L1092.09 1574.19 L1086.07 1574.19 Q1079.3 1574.19 1076.72 1571.67 Q1074.14 1569.12 1074.14 1562.44 L1074.14 1543.09 L1069.84 1543.09 L1069.84 1538.54 L1074.14 1538.54 L1074.14 1528.42 L1080.03 1528.42 Z" fill="#000000" fill-rule="evenodd" fill-opacity="1" /><path clip-path="url(#clip540)" d="M1099.79 1538.54 L1105.65 1538.54 L1105.65 1574.19 L1099.79 1574.19 L1099.79 1538.54 M1099.79 1524.66 L1105.65 1524.66 L1105.65 1532.08 L1099.79 1532.08 L1099.79 1524.66 Z" fill="#000000" fill-rule="evenodd" fill-opacity="1" /><path clip-path="url(#clip540)" d="M1145.66 1545.38 Q1147.85 1541.43 1150.91 1539.56 Q1153.97 1537.68 1158.1 1537.68 Q1163.67 1537.68 1166.7 1541.59 Q1169.72 1545.48 1169.72 1552.67 L1169.72 1574.19 L1163.83 1574.19 L1163.83 1552.86 Q1163.83 1547.74 1162.02 1545.25 Q1160.2 1542.77 1156.48 1542.77 Q1151.93 1542.77 1149.29 1545.79 Q1146.64 1548.82 1146.64 1554.04 L1146.64 1574.19 L1140.76 1574.19 L1140.76 1552.86 Q1140.76 1547.7 1138.94 1545.25 Q1137.13 1542.77 1133.34 1542.77 Q1128.85 1542.77 1126.21 1545.83 Q1123.57 1548.85 1123.57 1554.04 L1123.57 1574.19 L1117.68 1574.19 L1117.68 1538.54 L1123.57 1538.54 L1123.57 1544.08 Q1125.57 1540.8 1128.38 1539.24 Q1131.18 1537.68 1135.03 1537.68 Q1138.91 1537.68 1141.62 1539.65 Q1144.35 1541.62 1145.66 1545.38 Z" fill="#000000" fill-rule="evenodd" fill-opacity="1" /><path clip-path="url(#clip540)" d="M1211.89 1554.9 L1211.89 1557.76 L1184.97 1557.76 Q1185.35 1563.81 1188.59 1566.99 Q1191.87 1570.14 1197.7 1570.14 Q1201.07 1570.14 1204.22 1569.32 Q1207.41 1568.49 1210.52 1566.83 L1210.52 1572.37 Q1207.37 1573.71 1204.06 1574.41 Q1200.75 1575.11 1197.35 1575.11 Q1188.82 1575.11 1183.82 1570.14 Q1178.86 1565.18 1178.86 1556.71 Q1178.86 1547.96 1183.57 1542.83 Q1188.31 1537.68 1196.33 1537.68 Q1203.52 1537.68 1207.69 1542.33 Q1211.89 1546.94 1211.89 1554.9 M1206.04 1553.18 Q1205.97 1548.37 1203.33 1545.51 Q1200.72 1542.64 1196.39 1542.64 Q1191.49 1542.64 1188.53 1545.41 Q1185.6 1548.18 1185.16 1553.21 L1206.04 1553.18 Z" fill="#000000" fill-rule="evenodd" fill-opacity="1" /><path clip-path="url(#clip540)" d="M1272.72 1554.9 L1272.72 1557.76 L1245.79 1557.76 Q1246.17 1563.81 1249.42 1566.99 Q1252.7 1570.14 1258.52 1570.14 Q1261.9 1570.14 1265.05 1569.32 Q1268.23 1568.49 1271.35 1566.83 L1271.35 1572.37 Q1268.2 1573.71 1264.89 1574.41 Q1261.58 1575.11 1258.17 1575.11 Q1249.64 1575.11 1244.64 1570.14 Q1239.68 1565.18 1239.68 1556.71 Q1239.68 1547.96 1244.39 1542.83 Q1249.13 1537.68 1257.15 1537.68 Q1264.35 1537.68 1268.52 1542.33 Q1272.72 1546.94 1272.72 1554.9 M1266.86 1553.18 Q1266.8 1548.37 1264.16 1545.51 Q1261.55 1542.64 1257.22 1542.64 Q1252.32 1542.64 1249.36 1545.41 Q1246.43 1548.18 1245.98 1553.21 L1266.86 1553.18 Z" fill="#000000" fill-rule="evenodd" fill-opacity="1" /><path clip-path="url(#clip540)" d="M1282.33 1524.66 L1288.19 1524.66 L1288.19 1574.19 L1282.33 1574.19 L1282.33 1524.66 Z" fill="#000000" fill-rule="evenodd" fill-opacity="1" /><path clip-path="url(#clip540)" d="M1316.64 1556.27 Q1309.54 1556.27 1306.81 1557.89 Q1304.07 1559.51 1304.07 1563.43 Q1304.07 1566.55 1306.11 1568.39 Q1308.17 1570.21 1311.71 1570.21 Q1316.58 1570.21 1319.51 1566.77 Q1322.47 1563.3 1322.47 1557.57 L1322.47 1556.27 L1316.64 1556.27 M1328.32 1553.85 L1328.32 1574.19 L1322.47 1574.19 L1322.47 1568.77 Q1320.46 1572.02 1317.47 1573.58 Q1314.48 1575.11 1310.15 1575.11 Q1304.67 1575.11 1301.43 1572.05 Q1298.21 1568.97 1298.21 1563.81 Q1298.21 1557.79 1302.22 1554.74 Q1306.26 1551.68 1314.25 1551.68 L1322.47 1551.68 L1322.47 1551.11 Q1322.47 1547.07 1319.79 1544.87 Q1317.15 1542.64 1312.34 1542.64 Q1309.29 1542.64 1306.39 1543.38 Q1303.5 1544.11 1300.82 1545.57 L1300.82 1540.16 Q1304.04 1538.92 1307.06 1538.31 Q1310.08 1537.68 1312.95 1537.68 Q1320.68 1537.68 1324.5 1541.69 Q1328.32 1545.7 1328.32 1553.85 Z" fill="#000000" fill-rule="evenodd" fill-opacity="1" /><path clip-path="url(#clip540)" d="M1346.05 1568.84 L1346.05 1587.74 L1340.16 1587.74 L1340.16 1538.54 L1346.05 1538.54 L1346.05 1543.95 Q1347.9 1540.77 1350.7 1539.24 Q1353.53 1537.68 1357.44 1537.68 Q1363.94 1537.68 1367.98 1542.83 Q1372.05 1547.99 1372.05 1556.39 Q1372.05 1564.8 1367.98 1569.95 Q1363.94 1575.11 1357.44 1575.11 Q1353.53 1575.11 1350.7 1573.58 Q1347.9 1572.02 1346.05 1568.84 M1365.98 1556.39 Q1365.98 1549.93 1363.3 1546.27 Q1360.66 1542.58 1356.01 1542.58 Q1351.37 1542.58 1348.69 1546.27 Q1346.05 1549.93 1346.05 1556.39 Q1346.05 1562.85 1348.69 1566.55 Q1351.37 1570.21 1356.01 1570.21 Q1360.66 1570.21 1363.3 1566.55 Q1365.98 1562.85 1365.98 1556.39 Z" fill="#000000" fill-rule="evenodd" fill-opacity="1" /><path clip-path="url(#clip540)" d="M1404.49 1539.59 L1404.49 1545.13 Q1402 1543.85 1399.33 1543.22 Q1396.66 1542.58 1393.79 1542.58 Q1389.43 1542.58 1387.24 1543.92 Q1385.07 1545.25 1385.07 1547.93 Q1385.07 1549.96 1386.63 1551.14 Q1388.19 1552.29 1392.9 1553.34 L1394.91 1553.78 Q1401.15 1555.12 1403.76 1557.57 Q1406.4 1559.99 1406.4 1564.35 Q1406.4 1569.32 1402.45 1572.21 Q1398.54 1575.11 1391.66 1575.11 Q1388.8 1575.11 1385.68 1574.54 Q1382.59 1573.99 1379.15 1572.88 L1379.15 1566.83 Q1382.4 1568.52 1385.55 1569.38 Q1388.7 1570.21 1391.79 1570.21 Q1395.93 1570.21 1398.15 1568.81 Q1400.38 1567.37 1400.38 1564.8 Q1400.38 1562.41 1398.76 1561.14 Q1397.17 1559.86 1391.72 1558.68 L1389.69 1558.21 Q1384.24 1557.06 1381.83 1554.71 Q1379.41 1552.32 1379.41 1548.18 Q1379.41 1543.15 1382.97 1540.42 Q1386.54 1537.68 1393.09 1537.68 Q1396.34 1537.68 1399.2 1538.16 Q1402.07 1538.63 1404.49 1539.59 Z" fill="#000000" fill-rule="evenodd" fill-opacity="1" /><path clip-path="url(#clip540)" d="M1446.21 1554.9 L1446.21 1557.76 L1419.29 1557.76 Q1419.67 1563.81 1422.92 1566.99 Q1426.19 1570.14 1432.02 1570.14 Q1435.39 1570.14 1438.54 1569.32 Q1441.73 1568.49 1444.85 1566.83 L1444.85 1572.37 Q1441.7 1573.71 1438.38 1574.41 Q1435.07 1575.11 1431.67 1575.11 Q1423.14 1575.11 1418.14 1570.14 Q1413.18 1565.18 1413.18 1556.71 Q1413.18 1547.96 1417.89 1542.83 Q1422.63 1537.68 1430.65 1537.68 Q1437.84 1537.68 1442.01 1542.33 Q1446.21 1546.94 1446.21 1554.9 M1440.36 1553.18 Q1440.29 1548.37 1437.65 1545.51 Q1435.04 1542.64 1430.71 1542.64 Q1425.81 1542.64 1422.85 1545.41 Q1419.92 1548.18 1419.48 1553.21 L1440.36 1553.18 Z" fill="#000000" fill-rule="evenodd" fill-opacity="1" /><path clip-path="url(#clip540)" d="M1479.28 1543.95 L1479.28 1524.66 L1485.14 1524.66 L1485.14 1574.19 L1479.28 1574.19 L1479.28 1568.84 Q1477.44 1572.02 1474.61 1573.58 Q1471.8 1575.11 1467.86 1575.11 Q1461.4 1575.11 1457.32 1569.95 Q1453.28 1564.8 1453.28 1556.39 Q1453.28 1547.99 1457.32 1542.83 Q1461.4 1537.68 1467.86 1537.68 Q1471.8 1537.68 1474.61 1539.24 Q1477.44 1540.77 1479.28 1543.95 M1459.33 1556.39 Q1459.33 1562.85 1461.97 1566.55 Q1464.64 1570.21 1469.29 1570.21 Q1473.94 1570.21 1476.61 1566.55 Q1479.28 1562.85 1479.28 1556.39 Q1479.28 1549.93 1476.61 1546.27 Q1473.94 1542.58 1469.29 1542.58 Q1464.64 1542.58 1461.97 1546.27 Q1459.33 1549.93 1459.33 1556.39 Z" fill="#000000" fill-rule="evenodd" fill-opacity="1" /><polyline clip-path="url(#clip542)" style="stroke:#000000; stroke-linecap:butt; stroke-linejoin:round; stroke-width:2; stroke-opacity:0.1; fill:none" points="
  202.227,1374.46 2352.76,1374.46 
  "/>
<polyline clip-path="url(#clip542)" style="stroke:#000000; stroke-linecap:butt; stroke-linejoin:round; stroke-width:2; stroke-opacity:0.1; fill:none" points="
  202.227,1040.62 2352.76,1040.62 
  "/>
<polyline clip-path="url(#clip542)" style="stroke:#000000; stroke-linecap:butt; stroke-linejoin:round; stroke-width:2; stroke-opacity:0.1; fill:none" points="
  202.227,706.778 2352.76,706.778 
  "/>
<polyline clip-path="url(#clip542)" style="stroke:#000000; stroke-linecap:butt; stroke-linejoin:round; stroke-width:2; stroke-opacity:0.1; fill:none" points="
  202.227,372.938 2352.76,372.938 
  "/>
<polyline clip-path="url(#clip540)" style="stroke:#000000; stroke-linecap:butt; stroke-linejoin:round; stroke-width:4; stroke-opacity:1; fill:none" points="
  202.227,1410.9 202.227,123.472 
  "/>
<polyline clip-path="url(#clip540)" style="stroke:#000000; stroke-linecap:butt; stroke-linejoin:round; stroke-width:4; stroke-opacity:1; fill:none" points="
  202.227,1374.46 228.034,1374.46 
  "/>
<polyline clip-path="url(#clip540)" style="stroke:#000000; stroke-linecap:butt; stroke-linejoin:round; stroke-width:4; stroke-opacity:1; fill:none" points="
  202.227,1040.62 228.034,1040.62 
  "/>
<polyline clip-path="url(#clip540)" style="stroke:#000000; stroke-linecap:butt; stroke-linejoin:round; stroke-width:4; stroke-opacity:1; fill:none" points="
  202.227,706.778 228.034,706.778 
  "/>
<polyline clip-path="url(#clip540)" style="stroke:#000000; stroke-linecap:butt; stroke-linejoin:round; stroke-width:4; stroke-opacity:1; fill:none" points="
  202.227,372.938 228.034,372.938 
  "/>
<path clip-path="url(#clip540)" d="M154.283 1360.26 Q150.672 1360.26 148.843 1363.82 Q147.038 1367.37 147.038 1374.49 Q147.038 1381.6 148.843 1385.17 Q150.672 1388.71 154.283 1388.71 Q157.917 1388.71 159.723 1385.17 Q161.552 1381.6 161.552 1374.49 Q161.552 1367.37 159.723 1363.82 Q157.917 1360.26 154.283 1360.26 M154.283 1356.56 Q160.093 1356.56 163.149 1361.16 Q166.227 1365.74 166.227 1374.49 Q166.227 1383.22 163.149 1387.83 Q160.093 1392.41 154.283 1392.41 Q148.473 1392.41 145.394 1387.83 Q142.339 1383.22 142.339 1374.49 Q142.339 1365.74 145.394 1361.16 Q148.473 1356.56 154.283 1356.56 Z" fill="#000000" fill-rule="evenodd" fill-opacity="1" /><path clip-path="url(#clip540)" d="M145.325 1023.34 L163.681 1023.34 L163.681 1027.27 L149.607 1027.27 L149.607 1035.75 Q150.626 1035.4 151.644 1035.24 Q152.663 1035.05 153.681 1035.05 Q159.468 1035.05 162.848 1038.22 Q166.227 1041.39 166.227 1046.81 Q166.227 1052.39 162.755 1055.49 Q159.283 1058.57 152.964 1058.57 Q150.788 1058.57 148.519 1058.2 Q146.274 1057.83 143.866 1057.09 L143.866 1052.39 Q145.95 1053.52 148.172 1054.08 Q150.394 1054.64 152.871 1054.64 Q156.876 1054.64 159.214 1052.53 Q161.552 1050.42 161.552 1046.81 Q161.552 1043.2 159.214 1041.09 Q156.876 1038.99 152.871 1038.99 Q150.996 1038.99 149.121 1039.4 Q147.269 1039.82 145.325 1040.7 L145.325 1023.34 Z" fill="#000000" fill-rule="evenodd" fill-opacity="1" /><path clip-path="url(#clip540)" d="M114.931 720.123 L122.57 720.123 L122.57 693.758 L114.26 695.424 L114.26 691.165 L122.524 689.498 L127.2 689.498 L127.2 720.123 L134.839 720.123 L134.839 724.058 L114.931 724.058 L114.931 720.123 Z" fill="#000000" fill-rule="evenodd" fill-opacity="1" /><path clip-path="url(#clip540)" d="M154.283 692.577 Q150.672 692.577 148.843 696.142 Q147.038 699.684 147.038 706.813 Q147.038 713.92 148.843 717.484 Q150.672 721.026 154.283 721.026 Q157.917 721.026 159.723 717.484 Q161.552 713.92 161.552 706.813 Q161.552 699.684 159.723 696.142 Q157.917 692.577 154.283 692.577 M154.283 688.873 Q160.093 688.873 163.149 693.48 Q166.227 698.063 166.227 706.813 Q166.227 715.54 163.149 720.146 Q160.093 724.73 154.283 724.73 Q148.473 724.73 145.394 720.146 Q142.339 715.54 142.339 706.813 Q142.339 698.063 145.394 693.48 Q148.473 688.873 154.283 688.873 Z" fill="#000000" fill-rule="evenodd" fill-opacity="1" /><path clip-path="url(#clip540)" d="M115.927 386.282 L123.566 386.282 L123.566 359.917 L115.256 361.584 L115.256 357.324 L123.519 355.658 L128.195 355.658 L128.195 386.282 L135.834 386.282 L135.834 390.218 L115.927 390.218 L115.927 386.282 Z" fill="#000000" fill-rule="evenodd" fill-opacity="1" /><path clip-path="url(#clip540)" d="M145.325 355.658 L163.681 355.658 L163.681 359.593 L149.607 359.593 L149.607 368.065 Q150.626 367.718 151.644 367.556 Q152.663 367.371 153.681 367.371 Q159.468 367.371 162.848 370.542 Q166.227 373.713 166.227 379.13 Q166.227 384.708 162.755 387.81 Q159.283 390.889 152.964 390.889 Q150.788 390.889 148.519 390.519 Q146.274 390.148 143.866 389.407 L143.866 384.708 Q145.95 385.843 148.172 386.398 Q150.394 386.954 152.871 386.954 Q156.876 386.954 159.214 384.847 Q161.552 382.741 161.552 379.13 Q161.552 375.519 159.214 373.412 Q156.876 371.306 152.871 371.306 Q150.996 371.306 149.121 371.722 Q147.269 372.139 145.325 373.019 L145.325 355.658 Z" fill="#000000" fill-rule="evenodd" fill-opacity="1" /><path clip-path="url(#clip540)" d="M33.8307 841.504 Q33.2578 842.491 33.0032 843.668 Q32.7167 844.814 32.7167 846.215 Q32.7167 851.18 35.9632 853.853 Q39.1779 856.495 45.2253 856.495 L64.0042 856.495 L64.0042 862.384 L28.3562 862.384 L28.3562 856.495 L33.8944 856.495 Q30.6479 854.649 29.0883 851.689 Q27.4968 848.729 27.4968 844.496 Q27.4968 843.891 27.5923 843.159 Q27.656 842.427 27.8151 841.536 L33.8307 841.504 Z" fill="#000000" fill-rule="evenodd" fill-opacity="1" /><path clip-path="url(#clip540)" d="M44.7161 806.302 L47.5806 806.302 L47.5806 833.229 Q53.6281 832.847 56.8109 829.6 Q59.9619 826.322 59.9619 820.497 Q59.9619 817.123 59.1344 813.972 Q58.3069 810.789 56.6518 807.67 L62.1899 807.67 Q63.5267 810.821 64.227 814.131 Q64.9272 817.442 64.9272 820.847 Q64.9272 829.377 59.9619 834.374 Q54.9967 839.34 46.5303 839.34 Q37.7774 839.34 32.6531 834.629 Q27.4968 829.887 27.4968 821.866 Q27.4968 814.673 32.1438 810.503 Q36.7589 806.302 44.7161 806.302 M42.9973 812.158 Q38.1912 812.222 35.3266 814.864 Q32.4621 817.473 32.4621 821.802 Q32.4621 826.704 35.2312 829.664 Q38.0002 832.592 43.0292 833.038 L42.9973 812.158 Z" fill="#000000" fill-rule="evenodd" fill-opacity="1" /><path clip-path="url(#clip540)" d="M45.7664 773.232 Q39.4007 773.232 35.8996 775.874 Q32.3984 778.484 32.3984 783.226 Q32.3984 787.937 35.8996 790.578 Q39.4007 793.188 45.7664 793.188 Q52.1003 793.188 55.6014 790.578 Q59.1026 787.937 59.1026 783.226 Q59.1026 778.484 55.6014 775.874 Q52.1003 773.232 45.7664 773.232 M59.58 767.375 Q68.683 767.375 73.1071 771.418 Q77.5631 775.46 77.5631 783.799 Q77.5631 786.886 77.0857 789.624 Q76.6401 792.361 75.6852 794.939 L69.9879 794.939 Q71.3884 792.361 72.0568 789.846 Q72.7252 787.332 72.7252 784.722 Q72.7252 778.961 69.7015 776.096 Q66.7096 773.232 60.6303 773.232 L57.7339 773.232 Q60.885 775.046 62.4446 777.879 Q64.0042 780.712 64.0042 784.658 Q64.0042 791.215 59.0071 795.225 Q54.01 799.236 45.7664 799.236 Q37.491 799.236 32.4939 795.225 Q27.4968 791.215 27.4968 784.658 Q27.4968 780.712 29.0564 777.879 Q30.616 775.046 33.7671 773.232 L28.3562 773.232 L28.3562 767.375 L59.58 767.375 Z" fill="#000000" fill-rule="evenodd" fill-opacity="1" /><path clip-path="url(#clip540)" d="M33.8307 734.656 Q33.2578 735.642 33.0032 736.82 Q32.7167 737.966 32.7167 739.366 Q32.7167 744.331 35.9632 747.005 Q39.1779 749.647 45.2253 749.647 L64.0042 749.647 L64.0042 755.535 L28.3562 755.535 L28.3562 749.647 L33.8944 749.647 Q30.6479 747.801 29.0883 744.841 Q27.4968 741.881 27.4968 737.648 Q27.4968 737.043 27.5923 736.311 Q27.656 735.579 27.8151 734.687 L33.8307 734.656 Z" fill="#000000" fill-rule="evenodd" fill-opacity="1" /><path clip-path="url(#clip540)" d="M44.7161 699.453 L47.5806 699.453 L47.5806 726.38 Q53.6281 725.998 56.8109 722.752 Q59.9619 719.473 59.9619 713.649 Q59.9619 710.275 59.1344 707.124 Q58.3069 703.941 56.6518 700.822 L62.1899 700.822 Q63.5267 703.973 64.227 707.283 Q64.9272 710.593 64.9272 713.999 Q64.9272 722.529 59.9619 727.526 Q54.9967 732.491 46.5303 732.491 Q37.7774 732.491 32.6531 727.781 Q27.4968 723.038 27.4968 715.017 Q27.4968 707.824 32.1438 703.655 Q36.7589 699.453 44.7161 699.453 M42.9973 705.31 Q38.1912 705.373 35.3266 708.015 Q32.4621 710.625 32.4621 714.954 Q32.4621 719.855 35.2312 722.815 Q38.0002 725.744 43.0292 726.189 L42.9973 705.31 Z" fill="#000000" fill-rule="evenodd" fill-opacity="1" /><path clip-path="url(#clip540)" d="M18.2347 684.048 L28.3562 684.048 L28.3562 671.985 L32.9077 671.985 L32.9077 684.048 L52.2594 684.048 Q56.6199 684.048 57.8613 682.871 Q59.1026 681.661 59.1026 678.001 L59.1026 671.985 L64.0042 671.985 L64.0042 678.001 Q64.0042 684.78 61.4897 687.358 Q58.9434 689.937 52.2594 689.937 L32.9077 689.937 L32.9077 694.233 L28.3562 694.233 L28.3562 689.937 L18.2347 689.937 L18.2347 684.048 Z" fill="#000000" fill-rule="evenodd" fill-opacity="1" /><path clip-path="url(#clip540)" d="M1016.98 28.9478 L1016.98 35.9153 Q1013.82 34.1734 1010.62 33.3227 Q1007.46 32.4315 1004.22 32.4315 Q996.967 32.4315 992.956 37.0496 Q988.946 41.6271 988.946 49.9314 Q988.946 58.2358 992.956 62.8538 Q996.967 67.4314 1004.22 67.4314 Q1007.46 67.4314 1010.62 66.5807 Q1013.82 65.6895 1016.98 63.9476 L1016.98 70.8341 Q1013.86 72.2924 1010.5 73.0216 Q1007.17 73.7508 1003.41 73.7508 Q993.159 73.7508 987.123 67.3098 Q981.087 60.8689 981.087 49.9314 Q981.087 38.832 987.163 32.472 Q993.28 26.1121 1003.89 26.1121 Q1007.34 26.1121 1010.62 26.8413 Q1013.9 27.5299 1016.98 28.9478 Z" fill="#000000" fill-rule="evenodd" fill-opacity="1" /><path clip-path="url(#clip540)" d="M1047.52 32.4315 Q1041.53 32.4315 1038.04 37.1306 Q1034.56 41.7891 1034.56 49.9314 Q1034.56 58.0738 1038 62.7728 Q1041.49 67.4314 1047.52 67.4314 Q1053.48 67.4314 1056.96 62.7323 Q1060.44 58.0333 1060.44 49.9314 Q1060.44 41.8701 1056.96 37.1711 Q1053.48 32.4315 1047.52 32.4315 M1047.52 26.1121 Q1057.24 26.1121 1062.79 32.4315 Q1068.34 38.7509 1068.34 49.9314 Q1068.34 61.0714 1062.79 67.4314 Q1057.24 73.7508 1047.52 73.7508 Q1037.76 73.7508 1032.21 67.4314 Q1026.7 61.0714 1026.7 49.9314 Q1026.7 38.7509 1032.21 32.4315 Q1037.76 26.1121 1047.52 26.1121 Z" fill="#000000" fill-rule="evenodd" fill-opacity="1" /><path clip-path="url(#clip540)" d="M1079.93 54.671 L1079.93 27.2059 L1087.38 27.2059 L1087.38 54.3874 Q1087.38 60.8284 1089.89 64.0691 Q1092.41 67.2693 1097.43 67.2693 Q1103.46 67.2693 1106.95 63.421 Q1110.47 59.5726 1110.47 52.9291 L1110.47 27.2059 L1117.93 27.2059 L1117.93 72.576 L1110.47 72.576 L1110.47 65.6084 Q1107.76 69.7404 1104.15 71.7658 Q1100.59 73.7508 1095.85 73.7508 Q1088.03 73.7508 1083.98 68.8897 Q1079.93 64.0286 1079.93 54.671 M1098.68 26.1121 L1098.68 26.1121 Z" fill="#000000" fill-rule="evenodd" fill-opacity="1" /><path clip-path="url(#clip540)" d="M1170.99 45.1919 L1170.99 72.576 L1163.54 72.576 L1163.54 45.4349 Q1163.54 38.994 1161.03 35.7938 Q1158.52 32.5936 1153.49 32.5936 Q1147.46 32.5936 1143.97 36.4419 Q1140.49 40.2903 1140.49 46.9338 L1140.49 72.576 L1133 72.576 L1133 27.2059 L1140.49 27.2059 L1140.49 34.2544 Q1143.16 30.163 1146.77 28.1376 Q1150.41 26.1121 1155.15 26.1121 Q1162.97 26.1121 1166.98 30.9732 Q1170.99 35.7938 1170.99 45.1919 Z" fill="#000000" fill-rule="evenodd" fill-opacity="1" /><path clip-path="url(#clip540)" d="M1193.23 14.324 L1193.23 27.2059 L1208.59 27.2059 L1208.59 32.9987 L1193.23 32.9987 L1193.23 57.6282 Q1193.23 63.1779 1194.73 64.7578 Q1196.27 66.3376 1200.93 66.3376 L1208.59 66.3376 L1208.59 72.576 L1200.93 72.576 Q1192.3 72.576 1189.02 69.3758 Q1185.74 66.1351 1185.74 57.6282 L1185.74 32.9987 L1180.27 32.9987 L1180.27 27.2059 L1185.74 27.2059 L1185.74 14.324 L1193.23 14.324 Z" fill="#000000" fill-rule="evenodd" fill-opacity="1" /><path clip-path="url(#clip540)" d="M1218.39 27.2059 L1225.84 27.2059 L1225.84 72.576 L1218.39 72.576 L1218.39 27.2059 M1218.39 9.54393 L1225.84 9.54393 L1225.84 18.9825 L1218.39 18.9825 L1218.39 9.54393 Z" fill="#000000" fill-rule="evenodd" fill-opacity="1" /><path clip-path="url(#clip540)" d="M1279.15 45.1919 L1279.15 72.576 L1271.7 72.576 L1271.7 45.4349 Q1271.7 38.994 1269.19 35.7938 Q1266.68 32.5936 1261.65 32.5936 Q1255.62 32.5936 1252.13 36.4419 Q1248.65 40.2903 1248.65 46.9338 L1248.65 72.576 L1241.16 72.576 L1241.16 27.2059 L1248.65 27.2059 L1248.65 34.2544 Q1251.32 30.163 1254.93 28.1376 Q1258.57 26.1121 1263.31 26.1121 Q1271.13 26.1121 1275.14 30.9732 Q1279.15 35.7938 1279.15 45.1919 Z" fill="#000000" fill-rule="evenodd" fill-opacity="1" /><path clip-path="url(#clip540)" d="M1323.87 49.3643 Q1323.87 41.2625 1320.51 36.8065 Q1317.19 32.3505 1311.15 32.3505 Q1305.16 32.3505 1301.8 36.8065 Q1298.48 41.2625 1298.48 49.3643 Q1298.48 57.4256 1301.8 61.8816 Q1305.16 66.3376 1311.15 66.3376 Q1317.19 66.3376 1320.51 61.8816 Q1323.87 57.4256 1323.87 49.3643 M1331.33 66.9452 Q1331.33 78.5308 1326.18 84.1616 Q1321.04 89.8329 1310.43 89.8329 Q1306.5 89.8329 1303.01 89.2252 Q1299.53 88.6581 1296.25 87.4428 L1296.25 80.1917 Q1299.53 81.9741 1302.73 82.8248 Q1305.93 83.6755 1309.25 83.6755 Q1316.58 83.6755 1320.23 79.8271 Q1323.87 76.0193 1323.87 68.282 L1323.87 64.5957 Q1321.57 68.6061 1317.96 70.5911 Q1314.35 72.576 1309.33 72.576 Q1300.99 72.576 1295.88 66.2161 Q1290.78 59.8562 1290.78 49.3643 Q1290.78 38.832 1295.88 32.472 Q1300.99 26.1121 1309.33 26.1121 Q1314.35 26.1121 1317.96 28.0971 Q1321.57 30.082 1323.87 34.0924 L1323.87 27.2059 L1331.33 27.2059 L1331.33 66.9452 Z" fill="#000000" fill-rule="evenodd" fill-opacity="1" /><path clip-path="url(#clip540)" d="M1381.15 86.3491 L1381.15 92.1419 L1338.05 92.1419 L1338.05 86.3491 L1381.15 86.3491 Z" fill="#000000" fill-rule="evenodd" fill-opacity="1" /><path clip-path="url(#clip540)" d="M1405.74 32.4315 Q1399.75 32.4315 1396.26 37.1306 Q1392.78 41.7891 1392.78 49.9314 Q1392.78 58.0738 1396.22 62.7728 Q1399.71 67.4314 1405.74 67.4314 Q1411.7 67.4314 1415.18 62.7323 Q1418.67 58.0333 1418.67 49.9314 Q1418.67 41.8701 1415.18 37.1711 Q1411.7 32.4315 1405.74 32.4315 M1405.74 26.1121 Q1415.47 26.1121 1421.02 32.4315 Q1426.56 38.7509 1426.56 49.9314 Q1426.56 61.0714 1421.02 67.4314 Q1415.47 73.7508 1405.74 73.7508 Q1395.98 73.7508 1390.43 67.4314 Q1384.92 61.0714 1384.92 49.9314 Q1384.92 38.7509 1390.43 32.4315 Q1395.98 26.1121 1405.74 26.1121 Z" fill="#000000" fill-rule="evenodd" fill-opacity="1" /><path clip-path="url(#clip540)" d="M1476.63 45.1919 L1476.63 72.576 L1469.18 72.576 L1469.18 45.4349 Q1469.18 38.994 1466.67 35.7938 Q1464.16 32.5936 1459.13 32.5936 Q1453.1 32.5936 1449.61 36.4419 Q1446.13 40.2903 1446.13 46.9338 L1446.13 72.576 L1438.64 72.576 L1438.64 27.2059 L1446.13 27.2059 L1446.13 34.2544 Q1448.8 30.163 1452.41 28.1376 Q1456.06 26.1121 1460.8 26.1121 Q1468.61 26.1121 1472.62 30.9732 Q1476.63 35.7938 1476.63 45.1919 Z" fill="#000000" fill-rule="evenodd" fill-opacity="1" /><path clip-path="url(#clip540)" d="M1530.31 48.0275 L1530.31 51.6733 L1496.04 51.6733 Q1496.52 59.3701 1500.66 63.421 Q1504.83 67.4314 1512.24 67.4314 Q1516.54 67.4314 1520.55 66.3781 Q1524.6 65.3249 1528.57 63.2184 L1528.57 70.267 Q1524.56 71.9684 1520.34 72.8596 Q1516.13 73.7508 1511.8 73.7508 Q1500.94 73.7508 1494.58 67.4314 Q1488.26 61.1119 1488.26 50.3365 Q1488.26 39.1965 1494.26 32.6746 Q1500.29 26.1121 1510.5 26.1121 Q1519.65 26.1121 1524.96 32.0264 Q1530.31 37.9003 1530.31 48.0275 M1522.85 45.84 Q1522.77 39.7232 1519.41 36.0774 Q1516.09 32.4315 1510.58 32.4315 Q1504.34 32.4315 1500.57 35.9558 Q1496.85 39.4801 1496.28 45.8805 L1522.85 45.84 Z" fill="#000000" fill-rule="evenodd" fill-opacity="1" /><path clip-path="url(#clip540)" d="M1571.47 28.5427 L1571.47 35.5912 Q1568.31 33.9709 1564.9 33.1607 Q1561.5 32.3505 1557.85 32.3505 Q1552.31 32.3505 1549.51 34.0519 Q1546.76 35.7533 1546.76 39.156 Q1546.76 41.7486 1548.74 43.2475 Q1550.73 44.7058 1556.72 46.0426 L1559.27 46.6097 Q1567.21 48.3111 1570.53 51.4303 Q1573.9 54.509 1573.9 60.0587 Q1573.9 66.3781 1568.87 70.0644 Q1563.89 73.7508 1555.14 73.7508 Q1551.49 73.7508 1547.52 73.0216 Q1543.6 72.3329 1539.22 70.9151 L1539.22 63.2184 Q1543.35 65.3654 1547.36 66.4591 Q1551.37 67.5124 1555.3 67.5124 Q1560.57 67.5124 1563.4 65.73 Q1566.24 63.9071 1566.24 60.6258 Q1566.24 57.5877 1564.17 55.9673 Q1562.15 54.3469 1555.22 52.8481 L1552.63 52.2405 Q1545.7 50.7821 1542.62 47.7845 Q1539.54 44.7463 1539.54 39.4801 Q1539.54 33.0797 1544.08 29.5959 Q1548.62 26.1121 1556.96 26.1121 Q1561.1 26.1121 1564.74 26.7198 Q1568.39 27.3274 1571.47 28.5427 Z" fill="#000000" fill-rule="evenodd" fill-opacity="1" /><polyline clip-path="url(#clip542)" style="stroke:#009af9; stroke-linecap:butt; stroke-linejoin:round; stroke-width:8; stroke-opacity:1; fill:none" points="
  2144.37,159.909 2148.51,159.909 2149.17,159.909 2149.58,181.349 2149.96,181.349 2150.32,208.976 2150.69,208.976 2151.04,1352.7 2151.39,1352.7 2151.74,1352.7 
  2152.09,1352.7 2152.43,1352.7 2152.78,1352.7 2153.13,1352.7 2153.46,1352.7 2153.93,1352.7 2154.34,1352.7 2154.69,1352.7 2155.03,1352.7 2155.61,1352.7 
  2155.99,1352.7 2156.33,1352.7 2156.69,1352.7 2157.03,1352.7 2157.4,1352.7 2157.77,1352.7 2158.25,1352.7 2158.62,1352.7 2158.97,1352.7 2159.32,1352.7 
  2159.68,1352.7 2160.03,1352.7 2160.38,1352.7 2160.71,1352.7 2161.04,1352.7 2161.35,1352.7 2161.76,1352.7 2162.33,1352.7 2162.68,1352.7 2163.02,1352.7 
  2163.36,1352.7 2163.68,1352.7 2164.02,1352.7 2164.38,1352.7 2164.73,1352.7 2165.08,1352.7 2165.43,1352.7 2165.77,1352.7 2166.11,1352.7 2166.45,1352.7 
  2166.78,1352.7 2167.13,1352.7 2167.47,1352.7 2167.81,1352.7 2168.3,1352.7 2168.66,1352.7 2169,1352.7 2169.32,1352.7 2169.65,1352.7 2169.98,1352.7 
  2170.3,1352.7 2170.75,1352.7 2171.17,1352.7 2171.57,1352.7 2171.95,1352.7 2172.35,1352.7 2172.74,1352.7 2173.09,1352.7 2173.42,1352.7 2173.76,1352.7 
  2174.09,1352.7 2174.59,1352.7 2175.12,1352.7 2175.5,1352.7 2175.86,1352.7 2176.22,1352.7 2176.55,1352.7 2176.89,1352.7 2177.25,1352.7 2177.59,1352.7 
  2177.94,1352.7 2192.68,1374.46 2193.41,1374.46 2193.93,1374.46 2194.45,1374.46 2194.97,1374.46 2195.49,1374.46 2196,1374.46 2196.5,1374.46 2197.02,1374.46 
  2197.83,1374.46 2198.46,1374.46 2199.17,1374.46 2199.74,1374.46 2200.36,1374.46 2200.97,1374.46 2201.55,1374.46 2202.14,1374.46 2202.82,1374.46 2203.39,1374.46 
  2204.16,1374.46 2204.7,1374.46 2205.29,1374.46 2205.82,1374.46 2206.32,1374.46 2206.83,1374.46 2207.36,1374.46 2207.9,1374.46 2209.24,1374.46 2210.35,1374.46 
  2211.09,1374.46 2211.88,1374.46 2212.66,1374.46 2213.4,1374.46 2214.15,1374.46 2214.87,1374.46 2215.72,1374.46 2216.97,1374.46 2217.64,1374.46 2218.33,1374.46 
  2219.14,1374.46 2235.75,1374.46 2236.36,1374.46 2237.26,1374.46 2237.69,1374.46 2238.2,1374.46 2238.64,1374.46 2239.08,1374.46 2239.51,1374.46 2239.95,1374.46 
  2240.56,1374.46 2241.04,1374.46 2241.51,1374.46 2241.94,1374.46 2242.37,1374.46 2242.8,1374.46 2243.25,1374.46 2243.68,1374.46 2244.12,1374.46 2244.54,1374.46 
  2244.95,1374.46 2245.53,1374.46 2245.95,1374.46 2246.38,1374.46 2246.81,1374.46 2247.24,1374.46 2247.66,1374.46 2248.08,1374.46 2248.51,1374.46 2248.94,1374.46 
  2249.36,1374.46 2249.79,1374.46 2250.44,1374.46 2250.85,1374.46 2251.29,1374.46 2251.97,1374.46 2252.72,1374.46 2253.4,1374.46 2254.09,1374.46 2254.92,1374.46 
  2255.65,1374.46 2256.41,1374.46 2257.1,1374.46 2257.77,1374.46 2258.44,1374.46 2259.32,1374.46 2260.05,1374.46 2260.65,1374.46 2261.23,1374.46 2261.88,1374.46 
  2264.64,1374.46 2265.42,1374.46 2266.4,1374.46 2267.28,1374.46 2268.08,1374.46 2268.86,1374.46 2269.63,1374.46 2270.54,1374.46 2271.34,1374.46 2272.13,1374.46 
  2272.92,1374.46 2273.7,1374.46 2274.47,1374.46 2275.38,1374.46 2276.17,1374.46 2276.9,1374.46 2277.44,1374.46 2277.96,1374.46 2278.49,1374.46 2279.16,1374.46 
  2279.74,1374.46 2281.05,1374.46 2281.83,1374.46 2282.58,1374.46 2283.32,1374.46 2284.07,1374.46 2284.82,1374.46 2285.8,1374.46 2286.54,1374.46 2287.05,1374.46 
  2287.56,1374.46 2288.79,1374.46 2289.51,1374.46 2290.31,1374.46 2291.03,1374.46 2291.89,1374.46 
  "/>
<polyline clip-path="url(#clip542)" style="stroke:#e26f46; stroke-linecap:butt; stroke-linejoin:round; stroke-width:8; stroke-opacity:1; fill:none" points="
  273.57,208.976 451.733,208.976 558.475,208.976 634.86,208.976 698.573,275.358 781.351,293.104 821.516,293.104 855.633,293.104 886.549,293.104 913.665,293.104 
  938.942,293.104 962.225,293.104 983.041,293.104 1002.64,372.938 1021.17,1352.7 1038.22,1352.7 1054.14,1352.7 1069.82,1352.7 1084.65,1352.7 1098.47,1352.7 
  1112.03,1352.7 1124.71,1352.7 1137.17,1352.7 1157.43,1352.7 1169.67,1352.7 1180.92,1352.7 1191.4,1352.7 1201.42,1352.7 1210.86,1352.7 1220.17,1352.7 
  1229.04,1352.7 1237.83,1352.7 1246.32,1352.7 1254.42,1352.7 1262.46,1352.7 1270.21,1352.7 1277.79,1352.7 1285.26,1352.7 1292.41,1352.7 1299.51,1352.7 
  1310.79,1352.7 1317.94,1352.7 1328.54,1352.7 1334.75,1352.7 1340.96,1352.7 1346.87,1352.7 1352.83,1352.7 1358.75,1352.7 1364.55,1352.7 1370.18,1352.7 
  1375.79,1352.7 1381.07,1352.7 1386.31,1352.7 1391.45,1352.7 1396.41,1352.7 1401.27,1352.7 1405.88,1352.7 1410.72,1352.7 1415.43,1352.7 1419.98,1352.7 
  1427.04,1352.7 1431.69,1352.7 1436.03,1352.7 1443.47,1352.7 1448.36,1352.7 1452.52,1352.7 1458.16,1352.7 1462.5,1352.7 1466.4,1352.7 1470.37,1352.7 
  1474.28,1352.7 1478.12,1352.7 1481.9,1352.7 1485.68,1352.7 1489.32,1352.7 1492.97,1352.7 1496.58,1352.7 1500.19,1352.7 1505.37,1352.7 1508.61,1352.7 
  1511.94,1352.7 1517.42,1374.46 1522.85,1374.46 1528.14,1374.46 1533.39,1374.46 1538.42,1374.46 1543.44,1374.46 1548.31,1374.46 1553.12,1374.46 1557.79,1374.46 
  1563.96,1374.46 1568.56,1374.46 1573.04,1374.46 1577.42,1374.46 1581.73,1374.46 1586.02,1374.46 1590.22,1374.46 1594.28,1374.46 1598.38,1374.46 1602.37,1374.46 
  1606.35,1374.46 1611.53,1374.46 1615.52,1374.46 1620.75,1374.46 1624.87,1374.46 1630.09,1374.46 1633.86,1374.46 1637.58,1374.46 1643.41,1374.46 1649.1,1374.46 
  1655.19,1374.46 1660.01,1374.46 1664.74,1374.46 1669.28,1374.46 1673.7,1374.46 1677.94,1374.46 1682.94,1374.46 1687.73,1374.46 1693.82,1374.46 1697.82,1374.46 
  1702.49,1374.46 1733.72,1374.46 1736.18,1374.46 1738.63,1374.46 1741.03,1374.46 1743.42,1374.46 1745.8,1374.46 1748.19,1374.46 1750.73,1374.46 1753.13,1374.46 
  1755.48,1374.46 1757.72,1374.46 1760.72,1374.46 1763.5,1374.46 1765.77,1374.46 1767.94,1374.46 1770.1,1374.46 1772.26,1374.46 1774.42,1374.46 1776.58,1374.46 
  1778.72,1374.46 1780.83,1374.46 1783.43,1374.46 1786.23,1374.46 1788.35,1374.46 1790.52,1374.46 1792.62,1374.46 1794.71,1374.46 1796.73,1374.46 1798.75,1374.46 
  1800.79,1374.46 1802.75,1374.46 1804.7,1374.46 1806.63,1374.46 1809.09,1374.46 1812.11,1374.46 1815.57,1374.46 1819.17,1374.46 1822.08,1374.46 1825.02,1374.46 
  1827.94,1374.46 1831.45,1374.46 1834.34,1374.46 1837.16,1374.46 1840.23,1374.46 1842.94,1374.46 1845.65,1374.46 1848.31,1374.46 1851.62,1374.46 1854.34,1374.46 
  1866.39,1374.46 1869.53,1374.46 1872.67,1374.46 1875.78,1374.46 1878.86,1374.46 1882.46,1374.46 1885.49,1374.46 1888.48,1374.46 1891.36,1374.46 1894.3,1374.46 
  1897.75,1374.46 1901.06,1374.46 1903.88,1374.46 1906.68,1374.46 1909.46,1374.46 1911.37,1374.46 1913.25,1374.46 1915.72,1374.46 1917.6,1374.46 1919.48,1374.46 
  1921.35,1374.46 1927.36,1374.46 1929.42,1374.46 1931.43,1374.46 1933.48,1374.46 1935.45,1374.46 1937.93,1374.46 1940.35,1374.46 1942.45,1374.46 1944.67,1374.46 
  1946.82,1374.46 1951.04,1374.46 1953.14,1374.46 1955.92,1374.46 1958.08,1374.46 1960.49,1374.46 
  "/>
<polyline clip-path="url(#clip542)" style="stroke:#3da44d; stroke-linecap:butt; stroke-linejoin:round; stroke-width:8; stroke-opacity:1; fill:none" points="
  263.091,372.938 528.609,372.938 624.259,372.938 694.041,372.938 749.78,372.938 795.787,372.938 836.886,372.938 871.199,372.938 909.12,372.938 939.067,372.938 
  964.456,372.938 987.095,372.938 1007.64,372.938 1028.09,372.938 1046.66,372.938 1064,372.938 1080.42,372.938 1095.67,372.938 1110,372.938 1135.23,372.938 
  1148,372.938 1163.8,372.938 1180.77,372.938 1197.49,372.938 1213.04,372.938 1225.6,372.938 1235.94,372.938 1250.06,372.938 1259.95,372.938 1268.84,372.938 
  1277.29,1352.7 1287.46,1352.7 1296.07,1352.7 1303.77,1352.7 1311.39,1352.7 1318.65,1352.7 1325.81,1352.7 1336.28,1352.7 1342.84,1352.7 1349.72,1352.7 
  1356.33,1352.7 1362.45,1352.7 1368.53,1352.7 1374.48,1352.7 1380.21,1352.7 1385.87,1352.7 1391.7,1352.7 1397.19,1352.7 1402.57,1352.7 1409.5,1352.7 
  1417.11,1352.7 1424.79,1352.7 1435.88,1352.7 1441.49,1352.7 1446.66,1352.7 1453.67,1352.7 1458.17,1352.7 1462.79,1352.7 1467.37,1352.7 1471.87,1352.7 
  1476.25,1352.7 1480.58,1352.7 1486.02,1352.7 1491.52,1352.7 1496.25,1352.7 1500.41,1352.7 1504.5,1352.7 1508.01,1352.7 1511.63,1352.7 1514.86,1352.7 
  1517.98,1352.7 1521.14,1352.7 1524.17,1352.7 1527.16,1352.7 1531.68,1352.7 1534.63,1352.7 1537.63,1352.7 1541.21,1352.7 1544.24,1352.7 1547.14,1352.7 
  1550.01,1352.7 1554.9,1374.46 1559.83,1374.46 1565.72,1374.46 1572.29,1374.46 1577.62,1374.46 1582.87,1374.46 1589.35,1374.46 1594.32,1374.46 1599.12,1374.46 
  1603.96,1374.46 1608.69,1374.46 1613.39,1374.46 1617.92,1374.46 1622.38,1374.46 1626.78,1374.46 1631.11,1374.46 1635.39,1374.46 1640.62,1374.46 1644.66,1374.46 
  1648.69,1374.46 1652.71,1374.46 1656.61,1374.46 1660.5,1374.46 1664.24,1374.46 1667.92,1374.46 1671.59,1374.46 1675.21,1374.46 1681.6,1374.46 1688.13,1374.46 
  1692.83,1374.46 1697.58,1374.46 1702.25,1374.46 1706.88,1374.46 1711.45,1374.46 1715.87,1374.46 1721.19,1374.46 1726.07,1374.46 1730.97,1374.46 1735.21,1374.46 
  1739.95,1374.46 1763.95,1374.46 1766.63,1374.46 1769.32,1374.46 1772.59,1374.46 1775,1374.46 1777.36,1374.46 1779.68,1374.46 1781.99,1374.46 1784.29,1374.46 
  1786.59,1374.46 1788.76,1374.46 1791.11,1374.46 1793.85,1374.46 1796.24,1374.46 1799.32,1374.46 1801.65,1374.46 1804.44,1374.46 1807.08,1374.46 1809.43,1374.46 
  1811.75,1374.46 1814.01,1374.46 1816.25,1374.46 1818.55,1374.46 1820.74,1374.46 1822.94,1374.46 1825.66,1374.46 1827.78,1374.46 1829.93,1374.46 1832.05,1374.46 
  1834.27,1374.46 1836.37,1374.46 1838.42,1374.46 1840.47,1374.46 1842.52,1374.46 1845.82,1374.46 1849.75,1374.46 1852.99,1374.46 1856.16,1374.46 1859.29,1374.46 
  1862.97,1374.46 1865.99,1374.46 1869.01,1374.46 1872.47,1374.46 1875.67,1374.46 1878.6,1374.46 1881.45,1374.46 1884.27,1374.46 1887.08,1374.46 1889.83,1374.46 
  1901.5,1374.46 1905.07,1374.46 1908.3,1374.46 1911.95,1374.46 1915.13,1374.46 1918.27,1374.46 1921.36,1374.46 1924.41,1374.46 1927.96,1374.46 1931.24,1374.46 
  1934.29,1374.46 1937.14,1374.46 1940,1374.46 1942.87,1374.46 1946.08,1374.46 1948.1,1374.46 1950.11,1374.46 1952.09,1374.46 1954.03,1374.46 1955.91,1374.46 
  1957.83,1374.46 1964.12,1374.46 1966.25,1374.46 1968.36,1374.46 1970.95,1374.46 1973.09,1374.46 1975.54,1374.46 1978.02,1374.46 1980.48,1374.46 1982.28,1374.46 
  1984.38,1374.46 1988.67,1374.46 1990.72,1374.46 1993.3,1374.46 1995.49,1374.46 1997.82,1374.46 
  "/>
<polyline clip-path="url(#clip542)" style="stroke:#c271d2; stroke-linecap:butt; stroke-linejoin:round; stroke-width:8; stroke-opacity:1; fill:none" points="
  323.807,275.358 514.868,275.358 623.15,275.358 702.68,275.358 762.382,275.358 812.208,275.358 854.744,372.938 890.35,1352.7 922.932,1352.7 952.317,1352.7 
  979.092,1352.7 1002.65,1352.7 1025.22,1352.7 1045.8,1352.7 1064.36,1352.7 1097.46,1352.7 1115.4,1352.7 1145.24,1352.7 1174.52,1352.7 1188.29,1352.7 
  1202.75,1352.7 1213.14,1352.7 1223.2,1352.7 1232.65,1352.7 1241.66,1352.7 1250.9,1352.7 1259.31,1352.7 1267.17,1352.7 1275.88,1352.7 1284.87,1352.7 
  1293.23,1352.7 1301.23,1352.7 1308.58,1352.7 1318.96,1352.7 1326.17,1352.7 1332.62,1352.7 1338.87,1352.7 1344.93,1352.7 1350.94,1352.7 1357.24,1352.7 
  1363.7,1352.7 1369.35,1352.7 1375.07,1352.7 1380.07,1352.7 1384.9,1352.7 1389.82,1352.7 1394.82,1352.7 1399.61,1352.7 1404.1,1352.7 1408.46,1352.7 
  1412.86,1352.7 1417.11,1352.7 1424.12,1352.7 1428.4,1352.7 1432.5,1352.7 1436.48,1352.7 1440.55,1352.7 1444.44,1352.7 1448.36,1352.7 1452,1352.7 
  1455.62,1352.7 1459.34,1352.7 1463.15,1352.7 1466.87,1352.7 1471.78,1352.7 1475.47,1352.7 1478.9,1352.7 1482.48,1352.7 1486.68,1352.7 1490.34,1352.7 
  1496.57,1352.7 1500.52,1352.7 1504.44,1352.7 1508.75,1352.7 1513.65,1352.7 1518.68,1352.7 1524.16,1352.7 1528.61,1352.7 1532.27,1352.7 1536,1352.7 
  1539.2,1352.7 1544.56,1374.46 1549.14,1374.46 1554.86,1374.46 1560.14,1374.46 1567.71,1374.46 1572.25,1374.46 1576.32,1374.46 1580.34,1374.46 1584.26,1374.46 
  1588.15,1374.46 1592.19,1374.46 1596.65,1374.46 1600.97,1374.46 1604.89,1374.46 1608.52,1374.46 1613.1,1374.46 1617.05,1374.46 1620.57,1374.46 1624.25,1374.46 
  1627.64,1374.46 1631.12,1374.46 1634.42,1374.46 1637.87,1374.46 1641.24,1374.46 1644.53,1374.46 1649.06,1374.46 1653.19,1374.46 1658.36,1374.46 1663.16,1374.46 
  1667.94,1374.46 1672.84,1374.46 1677.5,1374.46 1681.99,1374.46 1686.8,1374.46 1691.34,1374.46 1695.91,1374.46 1700.15,1374.46 1704.28,1374.46 1708.57,1374.46 
  1712.73,1374.46 1748.33,1374.46 1750.52,1374.46 1752.71,1374.46 1754.84,1374.46 1756.98,1374.46 1759.12,1374.46 1761.19,1374.46 1763.3,1374.46 1765.34,1374.46 
  1767.4,1374.46 1770.12,1374.46 1772.26,1374.46 1774.14,1374.46 1776.39,1374.46 1778.79,1374.46 1780.82,1374.46 1783.27,1374.46 1785.29,1374.46 1787.25,1374.46 
  1789.16,1374.46 1791.03,1374.46 1793.51,1374.46 1795.43,1374.46 1797.31,1374.46 1799.21,1374.46 1801.05,1374.46 1803.27,1374.46 1805.12,1374.46 1807.5,1374.46 
  1809.61,1374.46 1811.58,1374.46 1813.58,1374.46 1816.16,1374.46 1818.25,1374.46 1821.91,1374.46 1824.71,1374.46 1827.45,1374.46 1830.04,1374.46 1832.61,1374.46 
  1835.47,1374.46 1838.99,1374.46 1841.23,1374.46 1843.45,1374.46 1845.97,1374.46 1848.29,1374.46 1850.43,1374.46 1852.92,1374.46 1855.99,1374.46 1858.41,1374.46 
  1870.12,1374.46 1872.38,1374.46 1874.41,1374.46 1876.68,1374.46 1878.63,1374.46 1881.32,1374.46 1883.97,1374.46 1886.4,1374.46 1888.34,1374.46 1890.45,1374.46 
  1892.49,1374.46 1894.53,1374.46 1896.97,1374.46 1898.89,1374.46 1900.97,1374.46 1902.99,1374.46 1904.75,1374.46 1906.8,1374.46 1909.64,1374.46 1911.97,1374.46 
  1914.03,1374.46 1919.39,1374.46 1921.73,1374.46 1923.96,1374.46 1926.22,1374.46 1928.03,1374.46 1929.7,1374.46 1931.6,1374.46 1933.79,1374.46 1935.43,1374.46 
  1937.41,1374.46 1940.51,1374.46 1942.81,1374.46 1945.09,1374.46 1947.56,1374.46 1949.32,1374.46 
  "/>
<path clip-path="url(#clip540)" d="
M1794.6 425.586 L2281.07 425.586 L2281.07 166.386 L1794.6 166.386  Z
  " fill="#ffffff" fill-rule="evenodd" fill-opacity="1"/>
<polyline clip-path="url(#clip540)" style="stroke:#000000; stroke-linecap:butt; stroke-linejoin:round; stroke-width:4; stroke-opacity:1; fill:none" points="
  1794.6,425.586 2281.07,425.586 2281.07,166.386 1794.6,166.386 1794.6,425.586 
  "/>
<polyline clip-path="url(#clip540)" style="stroke:#009af9; stroke-linecap:butt; stroke-linejoin:round; stroke-width:4; stroke-opacity:1; fill:none" points="
  1818.5,218.226 1961.87,218.226 
  "/>
<path clip-path="url(#clip540)" d="M2000.95 213.562 Q2000.23 213.145 1999.37 212.96 Q1998.54 212.752 1997.52 212.752 Q1993.91 212.752 1991.96 215.113 Q1990.04 217.451 1990.04 221.849 L1990.04 235.506 L1985.76 235.506 L1985.76 209.58 L1990.04 209.58 L1990.04 213.608 Q1991.39 211.247 1993.54 210.113 Q1995.69 208.955 1998.77 208.955 Q1999.21 208.955 1999.74 209.025 Q2000.27 209.071 2000.92 209.187 L2000.95 213.562 Z" fill="#000000" fill-rule="evenodd" fill-opacity="1" /><path clip-path="url(#clip540)" d="M2017.2 222.474 Q2012.03 222.474 2010.04 223.654 Q2008.05 224.835 2008.05 227.682 Q2008.05 229.951 2009.53 231.293 Q2011.04 232.613 2013.61 232.613 Q2017.15 232.613 2019.28 230.113 Q2021.43 227.59 2021.43 223.423 L2021.43 222.474 L2017.2 222.474 M2025.69 220.715 L2025.69 235.506 L2021.43 235.506 L2021.43 231.571 Q2019.97 233.932 2017.8 235.066 Q2015.62 236.178 2012.47 236.178 Q2008.49 236.178 2006.13 233.955 Q2003.79 231.71 2003.79 227.96 Q2003.79 223.585 2006.71 221.363 Q2009.65 219.141 2015.46 219.141 L2021.43 219.141 L2021.43 218.724 Q2021.43 215.784 2019.49 214.187 Q2017.57 212.567 2014.07 212.567 Q2011.85 212.567 2009.74 213.099 Q2007.64 213.631 2005.69 214.696 L2005.69 210.761 Q2008.03 209.858 2010.23 209.418 Q2012.43 208.955 2014.51 208.955 Q2020.14 208.955 2022.91 211.872 Q2025.69 214.789 2025.69 220.715 Z" fill="#000000" fill-rule="evenodd" fill-opacity="1" /><path clip-path="url(#clip540)" d="M2056.01 219.858 L2056.01 235.506 L2051.76 235.506 L2051.76 219.997 Q2051.76 216.317 2050.32 214.488 Q2048.88 212.659 2046.01 212.659 Q2042.57 212.659 2040.57 214.858 Q2038.58 217.057 2038.58 220.854 L2038.58 235.506 L2034.3 235.506 L2034.3 209.58 L2038.58 209.58 L2038.58 213.608 Q2040.11 211.27 2042.17 210.113 Q2044.26 208.955 2046.96 208.955 Q2051.43 208.955 2053.72 211.733 Q2056.01 214.488 2056.01 219.858 Z" fill="#000000" fill-rule="evenodd" fill-opacity="1" /><path clip-path="url(#clip540)" d="M2081.57 213.516 L2081.57 199.488 L2085.83 199.488 L2085.83 235.506 L2081.57 235.506 L2081.57 231.617 Q2080.23 233.932 2078.17 235.066 Q2076.13 236.178 2073.26 236.178 Q2068.56 236.178 2065.6 232.428 Q2062.66 228.678 2062.66 222.567 Q2062.66 216.455 2065.6 212.705 Q2068.56 208.955 2073.26 208.955 Q2076.13 208.955 2078.17 210.09 Q2080.23 211.201 2081.57 213.516 M2067.06 222.567 Q2067.06 227.266 2068.98 229.951 Q2070.92 232.613 2074.3 232.613 Q2077.68 232.613 2079.63 229.951 Q2081.57 227.266 2081.57 222.567 Q2081.57 217.867 2079.63 215.205 Q2077.68 212.52 2074.3 212.52 Q2070.92 212.52 2068.98 215.205 Q2067.06 217.867 2067.06 222.567 Z" fill="#000000" fill-rule="evenodd" fill-opacity="1" /><path clip-path="url(#clip540)" d="M2104.65 212.567 Q2101.22 212.567 2099.23 215.252 Q2097.24 217.914 2097.24 222.567 Q2097.24 227.219 2099.21 229.904 Q2101.2 232.566 2104.65 232.566 Q2108.05 232.566 2110.04 229.881 Q2112.03 227.196 2112.03 222.567 Q2112.03 217.96 2110.04 215.275 Q2108.05 212.567 2104.65 212.567 M2104.65 208.955 Q2110.2 208.955 2113.38 212.567 Q2116.55 216.178 2116.55 222.567 Q2116.55 228.932 2113.38 232.566 Q2110.2 236.178 2104.65 236.178 Q2099.07 236.178 2095.9 232.566 Q2092.75 228.932 2092.75 222.567 Q2092.75 216.178 2095.9 212.567 Q2099.07 208.955 2104.65 208.955 Z" fill="#000000" fill-rule="evenodd" fill-opacity="1" /><path clip-path="url(#clip540)" d="M2143.79 214.557 Q2145.39 211.687 2147.61 210.321 Q2149.83 208.955 2152.84 208.955 Q2156.89 208.955 2159.09 211.803 Q2161.29 214.627 2161.29 219.858 L2161.29 235.506 L2157.01 235.506 L2157.01 219.997 Q2157.01 216.27 2155.69 214.465 Q2154.37 212.659 2151.66 212.659 Q2148.35 212.659 2146.43 214.858 Q2144.51 217.057 2144.51 220.854 L2144.51 235.506 L2140.23 235.506 L2140.23 219.997 Q2140.23 216.247 2138.91 214.465 Q2137.59 212.659 2134.83 212.659 Q2131.57 212.659 2129.65 214.881 Q2127.73 217.08 2127.73 220.854 L2127.73 235.506 L2123.44 235.506 L2123.44 209.58 L2127.73 209.58 L2127.73 213.608 Q2129.19 211.224 2131.22 210.09 Q2133.26 208.955 2136.06 208.955 Q2138.88 208.955 2140.85 210.391 Q2142.84 211.826 2143.79 214.557 Z" fill="#000000" fill-rule="evenodd" fill-opacity="1" /><polyline clip-path="url(#clip540)" style="stroke:#e26f46; stroke-linecap:butt; stroke-linejoin:round; stroke-width:4; stroke-opacity:1; fill:none" points="
  1818.5,270.066 1961.87,270.066 
  "/>
<path clip-path="url(#clip540)" d="M1985.76 252.786 L1990.44 252.786 L1990.44 283.411 L2007.26 283.411 L2007.26 287.346 L1985.76 287.346 L1985.76 252.786 Z" fill="#000000" fill-rule="evenodd" fill-opacity="1" /><path clip-path="url(#clip540)" d="M2012.17 252.786 L2016.85 252.786 L2016.85 266.953 L2033.84 266.953 L2033.84 252.786 L2038.51 252.786 L2038.51 287.346 L2033.84 287.346 L2033.84 270.888 L2016.85 270.888 L2016.85 287.346 L2012.17 287.346 L2012.17 252.786 Z" fill="#000000" fill-rule="evenodd" fill-opacity="1" /><polyline clip-path="url(#clip540)" style="stroke:#3da44d; stroke-linecap:butt; stroke-linejoin:round; stroke-width:4; stroke-opacity:1; fill:none" points="
  1818.5,321.906 1961.87,321.906 
  "/>
<path clip-path="url(#clip540)" d="M1990.44 322.682 L1990.44 335.344 L1997.94 335.344 Q2001.71 335.344 2003.51 333.793 Q2005.34 332.219 2005.34 329.001 Q2005.34 325.76 2003.51 324.233 Q2001.71 322.682 1997.94 322.682 L1990.44 322.682 M1990.44 308.469 L1990.44 318.885 L1997.36 318.885 Q2000.78 318.885 2002.45 317.612 Q2004.14 316.316 2004.14 313.677 Q2004.14 311.061 2002.45 309.765 Q2000.78 308.469 1997.36 308.469 L1990.44 308.469 M1985.76 304.626 L1997.7 304.626 Q2003.05 304.626 2005.95 306.848 Q2008.84 309.071 2008.84 313.168 Q2008.84 316.339 2007.36 318.214 Q2005.88 320.089 2003.01 320.552 Q2006.45 321.293 2008.35 323.654 Q2010.27 325.992 2010.27 329.51 Q2010.27 334.14 2007.13 336.663 Q2003.98 339.186 1998.17 339.186 L1985.76 339.186 L1985.76 304.626 Z" fill="#000000" fill-rule="evenodd" fill-opacity="1" /><path clip-path="url(#clip540)" d="M2031.48 307.798 Q2026.39 307.798 2023.38 311.594 Q2020.39 315.39 2020.39 321.941 Q2020.39 328.469 2023.38 332.265 Q2026.39 336.061 2031.48 336.061 Q2036.57 336.061 2039.53 332.265 Q2042.52 328.469 2042.52 321.941 Q2042.52 315.39 2039.53 311.594 Q2036.57 307.798 2031.48 307.798 M2031.48 304.001 Q2038.75 304.001 2043.1 308.886 Q2047.45 313.747 2047.45 321.941 Q2047.45 330.112 2043.1 334.996 Q2038.75 339.858 2031.48 339.858 Q2024.19 339.858 2019.81 334.996 Q2015.46 330.135 2015.46 321.941 Q2015.46 313.747 2019.81 308.886 Q2024.19 304.001 2031.48 304.001 Z" fill="#000000" fill-rule="evenodd" fill-opacity="1" /><path clip-path="url(#clip540)" d="M2054.76 304.626 L2059.44 304.626 L2059.44 318.793 L2076.43 318.793 L2076.43 304.626 L2081.11 304.626 L2081.11 339.186 L2076.43 339.186 L2076.43 322.728 L2059.44 322.728 L2059.44 339.186 L2054.76 339.186 L2054.76 304.626 Z" fill="#000000" fill-rule="evenodd" fill-opacity="1" /><path clip-path="url(#clip540)" d="M2095.09 322.682 L2095.09 335.344 L2102.59 335.344 Q2106.36 335.344 2108.17 333.793 Q2110 332.219 2110 329.001 Q2110 325.76 2108.17 324.233 Q2106.36 322.682 2102.59 322.682 L2095.09 322.682 M2095.09 308.469 L2095.09 318.885 L2102.01 318.885 Q2105.44 318.885 2107.1 317.612 Q2108.79 316.316 2108.79 313.677 Q2108.79 311.061 2107.1 309.765 Q2105.44 308.469 2102.01 308.469 L2095.09 308.469 M2090.41 304.626 L2102.36 304.626 Q2107.7 304.626 2110.6 306.848 Q2113.49 309.071 2113.49 313.168 Q2113.49 316.339 2112.01 318.214 Q2110.53 320.089 2107.66 320.552 Q2111.11 321.293 2113 323.654 Q2114.93 325.992 2114.93 329.51 Q2114.93 334.14 2111.78 336.663 Q2108.63 339.186 2102.82 339.186 L2090.41 339.186 L2090.41 304.626 Z" fill="#000000" fill-rule="evenodd" fill-opacity="1" /><polyline clip-path="url(#clip540)" style="stroke:#c271d2; stroke-linecap:butt; stroke-linejoin:round; stroke-width:4; stroke-opacity:1; fill:none" points="
  1818.5,373.746 1961.87,373.746 
  "/>
<path clip-path="url(#clip540)" d="M2007.47 375.378 L2007.47 391.026 L2003.21 391.026 L2003.21 375.517 Q2003.21 371.837 2001.78 370.008 Q2000.34 368.179 1997.47 368.179 Q1994.02 368.179 1992.03 370.378 Q1990.04 372.577 1990.04 376.374 L1990.04 391.026 L1985.76 391.026 L1985.76 355.008 L1990.04 355.008 L1990.04 369.128 Q1991.57 366.79 1993.63 365.633 Q1995.71 364.475 1998.42 364.475 Q2002.89 364.475 2005.18 367.253 Q2007.47 370.008 2007.47 375.378 Z" fill="#000000" fill-rule="evenodd" fill-opacity="1" /><path clip-path="url(#clip540)" d="M2026.76 393.434 Q2024.95 398.063 2023.24 399.475 Q2021.52 400.887 2018.65 400.887 L2015.25 400.887 L2015.25 397.323 L2017.75 397.323 Q2019.51 397.323 2020.48 396.489 Q2021.45 395.656 2022.64 392.554 L2023.4 390.61 L2012.91 365.1 L2017.43 365.1 L2025.53 385.378 L2033.63 365.1 L2038.14 365.1 L2026.76 393.434 Z" fill="#000000" fill-rule="evenodd" fill-opacity="1" /><path clip-path="url(#clip540)" d="M2048.14 387.137 L2048.14 400.887 L2043.86 400.887 L2043.86 365.1 L2048.14 365.1 L2048.14 369.036 Q2049.49 366.721 2051.52 365.61 Q2053.58 364.475 2056.43 364.475 Q2061.15 364.475 2064.09 368.225 Q2067.06 371.975 2067.06 378.087 Q2067.06 384.198 2064.09 387.948 Q2061.15 391.698 2056.43 391.698 Q2053.58 391.698 2051.52 390.586 Q2049.49 389.452 2048.14 387.137 M2062.63 378.087 Q2062.63 373.387 2060.69 370.725 Q2058.77 368.04 2055.39 368.04 Q2052.01 368.04 2050.07 370.725 Q2048.14 373.387 2048.14 378.087 Q2048.14 382.786 2050.07 385.471 Q2052.01 388.133 2055.39 388.133 Q2058.77 388.133 2060.69 385.471 Q2062.63 382.786 2062.63 378.087 Z" fill="#000000" fill-rule="evenodd" fill-opacity="1" /><path clip-path="url(#clip540)" d="M2096.29 376.999 L2096.29 379.082 L2076.71 379.082 Q2076.99 383.48 2079.35 385.795 Q2081.73 388.086 2085.97 388.086 Q2088.42 388.086 2090.71 387.485 Q2093.03 386.883 2095.3 385.679 L2095.3 389.707 Q2093.01 390.679 2090.6 391.188 Q2088.19 391.698 2085.71 391.698 Q2079.51 391.698 2075.88 388.086 Q2072.26 384.475 2072.26 378.318 Q2072.26 371.952 2075.69 368.225 Q2079.14 364.475 2084.97 364.475 Q2090.2 364.475 2093.24 367.855 Q2096.29 371.212 2096.29 376.999 M2092.03 375.749 Q2091.99 372.253 2090.07 370.17 Q2088.17 368.087 2085.02 368.087 Q2081.45 368.087 2079.3 370.1 Q2077.17 372.114 2076.85 375.772 L2092.03 375.749 Z" fill="#000000" fill-rule="evenodd" fill-opacity="1" /><path clip-path="url(#clip540)" d="M2118.31 369.082 Q2117.59 368.665 2116.73 368.48 Q2115.9 368.272 2114.88 368.272 Q2111.27 368.272 2109.32 370.633 Q2107.4 372.971 2107.4 377.369 L2107.4 391.026 L2103.12 391.026 L2103.12 365.1 L2107.4 365.1 L2107.4 369.128 Q2108.75 366.767 2110.9 365.633 Q2113.05 364.475 2116.13 364.475 Q2116.57 364.475 2117.1 364.545 Q2117.63 364.591 2118.28 364.707 L2118.31 369.082 Z" fill="#000000" fill-rule="evenodd" fill-opacity="1" /><path clip-path="url(#clip540)" d="M2141.38 378.087 Q2141.38 373.387 2139.44 370.725 Q2137.52 368.04 2134.14 368.04 Q2130.76 368.04 2128.82 370.725 Q2126.89 373.387 2126.89 378.087 Q2126.89 382.786 2128.82 385.471 Q2130.76 388.133 2134.14 388.133 Q2137.52 388.133 2139.44 385.471 Q2141.38 382.786 2141.38 378.087 M2126.89 369.036 Q2128.24 366.721 2130.27 365.61 Q2132.33 364.475 2135.18 364.475 Q2139.9 364.475 2142.84 368.225 Q2145.81 371.975 2145.81 378.087 Q2145.81 384.198 2142.84 387.948 Q2139.9 391.698 2135.18 391.698 Q2132.33 391.698 2130.27 390.586 Q2128.24 389.452 2126.89 387.137 L2126.89 391.026 L2122.61 391.026 L2122.61 355.008 L2126.89 355.008 L2126.89 369.036 Z" fill="#000000" fill-rule="evenodd" fill-opacity="1" /><path clip-path="url(#clip540)" d="M2164.65 377.994 Q2159.49 377.994 2157.5 379.174 Q2155.5 380.355 2155.5 383.202 Q2155.5 385.471 2156.99 386.813 Q2158.49 388.133 2161.06 388.133 Q2164.6 388.133 2166.73 385.633 Q2168.88 383.11 2168.88 378.943 L2168.88 377.994 L2164.65 377.994 M2173.14 376.235 L2173.14 391.026 L2168.88 391.026 L2168.88 387.091 Q2167.43 389.452 2165.25 390.586 Q2163.07 391.698 2159.93 391.698 Q2155.94 391.698 2153.58 389.475 Q2151.25 387.23 2151.25 383.48 Q2151.25 379.105 2154.16 376.883 Q2157.1 374.661 2162.91 374.661 L2168.88 374.661 L2168.88 374.244 Q2168.88 371.304 2166.94 369.707 Q2165.02 368.087 2161.52 368.087 Q2159.3 368.087 2157.19 368.619 Q2155.09 369.151 2153.14 370.216 L2153.14 366.281 Q2155.48 365.378 2157.68 364.938 Q2159.88 364.475 2161.96 364.475 Q2167.59 364.475 2170.37 367.392 Q2173.14 370.309 2173.14 376.235 Z" fill="#000000" fill-rule="evenodd" fill-opacity="1" /><path clip-path="url(#clip540)" d="M2203.47 375.378 L2203.47 391.026 L2199.21 391.026 L2199.21 375.517 Q2199.21 371.837 2197.77 370.008 Q2196.34 368.179 2193.47 368.179 Q2190.02 368.179 2188.03 370.378 Q2186.04 372.577 2186.04 376.374 L2186.04 391.026 L2181.75 391.026 L2181.75 365.1 L2186.04 365.1 L2186.04 369.128 Q2187.56 366.79 2189.62 365.633 Q2191.71 364.475 2194.42 364.475 Q2198.88 364.475 2201.18 367.253 Q2203.47 370.008 2203.47 375.378 Z" fill="#000000" fill-rule="evenodd" fill-opacity="1" /><path clip-path="url(#clip540)" d="M2229.02 369.036 L2229.02 355.008 L2233.28 355.008 L2233.28 391.026 L2229.02 391.026 L2229.02 387.137 Q2227.68 389.452 2225.62 390.586 Q2223.58 391.698 2220.71 391.698 Q2216.01 391.698 2213.05 387.948 Q2210.11 384.198 2210.11 378.087 Q2210.11 371.975 2213.05 368.225 Q2216.01 364.475 2220.71 364.475 Q2223.58 364.475 2225.62 365.61 Q2227.68 366.721 2229.02 369.036 M2214.51 378.087 Q2214.51 382.786 2216.43 385.471 Q2218.37 388.133 2221.75 388.133 Q2225.13 388.133 2227.08 385.471 Q2229.02 382.786 2229.02 378.087 Q2229.02 373.387 2227.08 370.725 Q2225.13 368.04 2221.75 368.04 Q2218.37 368.04 2216.43 370.725 Q2214.51 373.387 2214.51 378.087 Z" fill="#000000" fill-rule="evenodd" fill-opacity="1" /></svg>
