<?xml version="1.0" encoding="utf-8"?>
<svg xmlns="http://www.w3.org/2000/svg" xmlns:xlink="http://www.w3.org/1999/xlink" width="600" height="400" viewBox="0 0 2400 1600">
<defs>
  <clipPath id="clip570">
    <rect x="0" y="0" width="2400" height="1600"/>
  </clipPath>
</defs>
<path clip-path="url(#clip570)" d="
M0 1600 L2400 1600 L2400 0 L0 0  Z
  " fill="#ffffff" fill-rule="evenodd" fill-opacity="1"/>
<defs>
  <clipPath id="clip571">
    <rect x="480" y="0" width="1681" height="1600"/>
  </clipPath>
</defs>
<path clip-path="url(#clip570)" d="
M367.296 1410.9 L2352.76 1410.9 L2352.76 123.472 L367.296 123.472  Z
  " fill="#ffffff" fill-rule="evenodd" fill-opacity="1"/>
<defs>
  <clipPath id="clip572">
    <rect x="367" y="123" width="1986" height="1288"/>
  </clipPath>
</defs>
<polyline clip-path="url(#clip572)" style="stroke:#000000; stroke-linecap:butt; stroke-linejoin:round; stroke-width:2; stroke-opacity:0.1; fill:none" points="
  484.492,1410.9 484.492,123.472 
  "/>
<polyline clip-path="url(#clip572)" style="stroke:#000000; stroke-linecap:butt; stroke-linejoin:round; stroke-width:2; stroke-opacity:0.1; fill:none" points="
  1199.56,1410.9 1199.56,123.472 
  "/>
<polyline clip-path="url(#clip572)" style="stroke:#000000; stroke-linecap:butt; stroke-linejoin:round; stroke-width:2; stroke-opacity:0.1; fill:none" points="
  1914.62,1410.9 1914.62,123.472 
  "/>
<polyline clip-path="url(#clip570)" style="stroke:#000000; stroke-linecap:butt; stroke-linejoin:round; stroke-width:4; stroke-opacity:1; fill:none" points="
  367.296,1410.9 2352.76,1410.9 
  "/>
<polyline clip-path="url(#clip570)" style="stroke:#000000; stroke-linecap:butt; stroke-linejoin:round; stroke-width:4; stroke-opacity:1; fill:none" points="
  484.492,1410.9 484.492,1395.45 
  "/>
<polyline clip-path="url(#clip570)" style="stroke:#000000; stroke-linecap:butt; stroke-linejoin:round; stroke-width:4; stroke-opacity:1; fill:none" points="
  1199.56,1410.9 1199.56,1395.45 
  "/>
<polyline clip-path="url(#clip570)" style="stroke:#000000; stroke-linecap:butt; stroke-linejoin:round; stroke-width:4; stroke-opacity:1; fill:none" points="
  1914.62,1410.9 1914.62,1395.45 
  "/>
<path clip-path="url(#clip570)" d="M449.474 1489.17 L457.113 1489.17 L457.113 1462.8 L448.803 1464.47 L448.803 1460.21 L457.067 1458.54 L461.743 1458.54 L461.743 1489.17 L469.382 1489.17 L469.382 1493.1 L449.474 1493.1 L449.474 1489.17 Z" fill="#000000" fill-rule="evenodd" fill-opacity="1" /><path clip-path="url(#clip570)" d="M488.826 1461.62 Q485.215 1461.62 483.386 1465.19 Q481.581 1468.73 481.581 1475.86 Q481.581 1482.97 483.386 1486.53 Q485.215 1490.07 488.826 1490.07 Q492.46 1490.07 494.266 1486.53 Q496.094 1482.97 496.094 1475.86 Q496.094 1468.73 494.266 1465.19 Q492.46 1461.62 488.826 1461.62 M488.826 1457.92 Q494.636 1457.92 497.692 1462.53 Q500.77 1467.11 500.77 1475.86 Q500.77 1484.59 497.692 1489.19 Q494.636 1493.78 488.826 1493.78 Q483.016 1493.78 479.937 1489.19 Q476.882 1484.59 476.882 1475.86 Q476.882 1467.11 479.937 1462.53 Q483.016 1457.92 488.826 1457.92 Z" fill="#000000" fill-rule="evenodd" fill-opacity="1" /><path clip-path="url(#clip570)" d="M510.475 1440.11 Q507.541 1440.11 506.055 1443.01 Q504.588 1445.89 504.588 1451.68 Q504.588 1457.46 506.055 1460.35 Q507.541 1463.23 510.475 1463.23 Q513.428 1463.23 514.895 1460.35 Q516.381 1457.46 516.381 1451.68 Q516.381 1445.89 514.895 1443.01 Q513.428 1440.11 510.475 1440.11 M510.475 1437.11 Q515.196 1437.11 517.679 1440.85 Q520.18 1444.57 520.18 1451.68 Q520.18 1458.77 517.679 1462.51 Q515.196 1466.24 510.475 1466.24 Q505.754 1466.24 503.253 1462.51 Q500.77 1458.77 500.77 1451.68 Q500.77 1444.57 503.253 1440.85 Q505.754 1437.11 510.475 1437.11 Z" fill="#000000" fill-rule="evenodd" fill-opacity="1" /><path clip-path="url(#clip570)" d="M1165.88 1489.17 L1173.52 1489.17 L1173.52 1462.8 L1165.21 1464.47 L1165.21 1460.21 L1173.48 1458.54 L1178.15 1458.54 L1178.15 1489.17 L1185.79 1489.17 L1185.79 1493.1 L1165.88 1493.1 L1165.88 1489.17 Z" fill="#000000" fill-rule="evenodd" fill-opacity="1" /><path clip-path="url(#clip570)" d="M1205.23 1461.62 Q1201.62 1461.62 1199.79 1465.19 Q1197.99 1468.73 1197.99 1475.86 Q1197.99 1482.97 1199.79 1486.53 Q1201.62 1490.07 1205.23 1490.07 Q1208.87 1490.07 1210.67 1486.53 Q1212.5 1482.97 1212.5 1475.86 Q1212.5 1468.73 1210.67 1465.19 Q1208.87 1461.62 1205.23 1461.62 M1205.23 1457.92 Q1211.04 1457.92 1214.1 1462.53 Q1217.18 1467.11 1217.18 1475.86 Q1217.18 1484.59 1214.1 1489.19 Q1211.04 1493.78 1205.23 1493.78 Q1199.42 1493.78 1196.35 1489.19 Q1193.29 1484.59 1193.29 1475.86 Q1193.29 1467.11 1196.35 1462.53 Q1199.42 1457.92 1205.23 1457.92 Z" fill="#000000" fill-rule="evenodd" fill-opacity="1" /><path clip-path="url(#clip570)" d="M1217.72 1462.5 L1223.93 1462.5 L1223.93 1441.07 L1217.18 1442.43 L1217.18 1438.97 L1223.89 1437.61 L1227.69 1437.61 L1227.69 1462.5 L1233.9 1462.5 L1233.9 1465.69 L1217.72 1465.69 L1217.72 1462.5 Z" fill="#000000" fill-rule="evenodd" fill-opacity="1" /><path clip-path="url(#clip570)" d="M1880.39 1489.17 L1888.03 1489.17 L1888.03 1462.8 L1879.72 1464.47 L1879.72 1460.21 L1887.98 1458.54 L1892.66 1458.54 L1892.66 1489.17 L1900.3 1489.17 L1900.3 1493.1 L1880.39 1493.1 L1880.39 1489.17 Z" fill="#000000" fill-rule="evenodd" fill-opacity="1" /><path clip-path="url(#clip570)" d="M1919.74 1461.62 Q1916.13 1461.62 1914.3 1465.19 Q1912.5 1468.73 1912.5 1475.86 Q1912.5 1482.97 1914.3 1486.53 Q1916.13 1490.07 1919.74 1490.07 Q1923.38 1490.07 1925.18 1486.53 Q1927.01 1482.97 1927.01 1475.86 Q1927.01 1468.73 1925.18 1465.19 Q1923.38 1461.62 1919.74 1461.62 M1919.74 1457.92 Q1925.55 1457.92 1928.61 1462.53 Q1931.69 1467.11 1931.69 1475.86 Q1931.69 1484.59 1928.61 1489.19 Q1925.55 1493.78 1919.74 1493.78 Q1913.93 1493.78 1910.85 1489.19 Q1907.8 1484.59 1907.8 1475.86 Q1907.8 1467.11 1910.85 1462.53 Q1913.93 1457.92 1919.74 1457.92 Z" fill="#000000" fill-rule="evenodd" fill-opacity="1" /><path clip-path="url(#clip570)" d="M1936.26 1462.5 L1949.52 1462.5 L1949.52 1465.69 L1931.69 1465.69 L1931.69 1462.5 Q1933.85 1460.26 1937.57 1456.5 Q1941.32 1452.72 1942.28 1451.63 Q1944.1 1449.58 1944.82 1448.16 Q1945.55 1446.74 1945.55 1445.36 Q1945.55 1443.12 1943.97 1441.71 Q1942.41 1440.3 1939.89 1440.3 Q1938.1 1440.3 1936.11 1440.92 Q1934.13 1441.54 1931.88 1442.8 L1931.88 1438.97 Q1934.17 1438.05 1936.16 1437.58 Q1938.16 1437.11 1939.81 1437.11 Q1944.18 1437.11 1946.77 1439.29 Q1949.37 1441.47 1949.37 1445.12 Q1949.37 1446.85 1948.71 1448.41 Q1948.07 1449.95 1946.36 1452.06 Q1945.89 1452.6 1943.37 1455.22 Q1940.85 1457.81 1936.26 1462.5 Z" fill="#000000" fill-rule="evenodd" fill-opacity="1" /><path clip-path="url(#clip570)" d="M1162.56 1528.42 L1162.56 1538.54 L1174.62 1538.54 L1174.62 1543.09 L1162.56 1543.09 L1162.56 1562.44 Q1162.56 1566.8 1163.74 1568.04 Q1164.95 1569.28 1168.61 1569.28 L1174.62 1569.28 L1174.62 1574.19 L1168.61 1574.19 Q1161.83 1574.19 1159.25 1571.67 Q1156.67 1569.12 1156.67 1562.44 L1156.67 1543.09 L1152.38 1543.09 L1152.38 1538.54 L1156.67 1538.54 L1156.67 1528.42 L1162.56 1528.42 Z" fill="#000000" fill-rule="evenodd" fill-opacity="1" /><path clip-path="url(#clip570)" d="M1182.33 1538.54 L1188.18 1538.54 L1188.18 1574.19 L1182.33 1574.19 L1182.33 1538.54 M1182.33 1524.66 L1188.18 1524.66 L1188.18 1532.08 L1182.33 1532.08 L1182.33 1524.66 Z" fill="#000000" fill-rule="evenodd" fill-opacity="1" /><path clip-path="url(#clip570)" d="M1228.19 1545.38 Q1230.39 1541.43 1233.44 1539.56 Q1236.5 1537.68 1240.64 1537.68 Q1246.21 1537.68 1249.23 1541.59 Q1252.25 1545.48 1252.25 1552.67 L1252.25 1574.19 L1246.37 1574.19 L1246.37 1552.86 Q1246.37 1547.74 1244.55 1545.25 Q1242.74 1542.77 1239.01 1542.77 Q1234.46 1542.77 1231.82 1545.79 Q1229.18 1548.82 1229.18 1554.04 L1229.18 1574.19 L1223.29 1574.19 L1223.29 1552.86 Q1223.29 1547.7 1221.48 1545.25 Q1219.66 1542.77 1215.87 1542.77 Q1211.39 1542.77 1208.74 1545.83 Q1206.1 1548.85 1206.1 1554.04 L1206.1 1574.19 L1200.21 1574.19 L1200.21 1538.54 L1206.1 1538.54 L1206.1 1544.08 Q1208.11 1540.8 1210.91 1539.24 Q1213.71 1537.68 1217.56 1537.68 Q1221.44 1537.68 1224.15 1539.65 Q1226.89 1541.62 1228.19 1545.38 Z" fill="#000000" fill-rule="evenodd" fill-opacity="1" /><path clip-path="url(#clip570)" d="M1294.43 1554.9 L1294.43 1557.76 L1267.5 1557.76 Q1267.88 1563.81 1271.13 1566.99 Q1274.41 1570.14 1280.23 1570.14 Q1283.61 1570.14 1286.76 1569.32 Q1289.94 1568.49 1293.06 1566.83 L1293.06 1572.37 Q1289.91 1573.71 1286.6 1574.41 Q1283.29 1575.11 1279.88 1575.11 Q1271.35 1575.11 1266.35 1570.14 Q1261.39 1565.18 1261.39 1556.71 Q1261.39 1547.96 1266.1 1542.83 Q1270.84 1537.68 1278.86 1537.68 Q1286.06 1537.68 1290.23 1542.33 Q1294.43 1546.94 1294.43 1554.9 M1288.57 1553.18 Q1288.51 1548.37 1285.87 1545.51 Q1283.26 1542.64 1278.93 1542.64 Q1274.03 1542.64 1271.07 1545.41 Q1268.14 1548.18 1267.69 1553.21 L1288.57 1553.18 Z" fill="#000000" fill-rule="evenodd" fill-opacity="1" /><path clip-path="url(#clip570)" d="M1355.25 1554.9 L1355.25 1557.76 L1328.32 1557.76 Q1328.71 1563.81 1331.95 1566.99 Q1335.23 1570.14 1341.06 1570.14 Q1344.43 1570.14 1347.58 1569.32 Q1350.76 1568.49 1353.88 1566.83 L1353.88 1572.37 Q1350.73 1573.71 1347.42 1574.41 Q1344.11 1575.11 1340.71 1575.11 Q1332.18 1575.11 1327.18 1570.14 Q1322.21 1565.18 1322.21 1556.71 Q1322.21 1547.96 1326.92 1542.83 Q1331.67 1537.68 1339.69 1537.68 Q1346.88 1537.68 1351.05 1542.33 Q1355.25 1546.94 1355.25 1554.9 M1349.4 1553.18 Q1349.33 1548.37 1346.69 1545.51 Q1344.08 1542.64 1339.75 1542.64 Q1334.85 1542.64 1331.89 1545.41 Q1328.96 1548.18 1328.52 1553.21 L1349.4 1553.18 Z" fill="#000000" fill-rule="evenodd" fill-opacity="1" /><path clip-path="url(#clip570)" d="M1364.86 1524.66 L1370.72 1524.66 L1370.72 1574.19 L1364.86 1574.19 L1364.86 1524.66 Z" fill="#000000" fill-rule="evenodd" fill-opacity="1" /><path clip-path="url(#clip570)" d="M1399.18 1556.27 Q1392.08 1556.27 1389.34 1557.89 Q1386.6 1559.51 1386.6 1563.43 Q1386.6 1566.55 1388.64 1568.39 Q1390.71 1570.21 1394.24 1570.21 Q1399.11 1570.21 1402.04 1566.77 Q1405 1563.3 1405 1557.57 L1405 1556.27 L1399.18 1556.27 M1410.86 1553.85 L1410.86 1574.19 L1405 1574.19 L1405 1568.77 Q1402.99 1572.02 1400 1573.58 Q1397.01 1575.11 1392.68 1575.11 Q1387.21 1575.11 1383.96 1572.05 Q1380.75 1568.97 1380.75 1563.81 Q1380.75 1557.79 1384.76 1554.74 Q1388.8 1551.68 1396.79 1551.68 L1405 1551.68 L1405 1551.11 Q1405 1547.07 1402.33 1544.87 Q1399.68 1542.64 1394.88 1542.64 Q1391.82 1542.64 1388.93 1543.38 Q1386.03 1544.11 1383.36 1545.57 L1383.36 1540.16 Q1386.57 1538.92 1389.59 1538.31 Q1392.62 1537.68 1395.48 1537.68 Q1403.22 1537.68 1407.04 1541.69 Q1410.86 1545.7 1410.86 1553.85 Z" fill="#000000" fill-rule="evenodd" fill-opacity="1" /><path clip-path="url(#clip570)" d="M1428.58 1568.84 L1428.58 1587.74 L1422.7 1587.74 L1422.7 1538.54 L1428.58 1538.54 L1428.58 1543.95 Q1430.43 1540.77 1433.23 1539.24 Q1436.06 1537.68 1439.98 1537.68 Q1446.47 1537.68 1450.51 1542.83 Q1454.59 1547.99 1454.59 1556.39 Q1454.59 1564.8 1450.51 1569.95 Q1446.47 1575.11 1439.98 1575.11 Q1436.06 1575.11 1433.23 1573.58 Q1430.43 1572.02 1428.58 1568.84 M1448.51 1556.39 Q1448.51 1549.93 1445.84 1546.27 Q1443.19 1542.58 1438.55 1542.58 Q1433.9 1542.58 1431.23 1546.27 Q1428.58 1549.93 1428.58 1556.39 Q1428.58 1562.85 1431.23 1566.55 Q1433.9 1570.21 1438.55 1570.21 Q1443.19 1570.21 1445.84 1566.55 Q1448.51 1562.85 1448.51 1556.39 Z" fill="#000000" fill-rule="evenodd" fill-opacity="1" /><path clip-path="url(#clip570)" d="M1487.02 1539.59 L1487.02 1545.13 Q1484.54 1543.85 1481.87 1543.22 Q1479.19 1542.58 1476.33 1542.58 Q1471.97 1542.58 1469.77 1543.92 Q1467.61 1545.25 1467.61 1547.93 Q1467.61 1549.96 1469.17 1551.14 Q1470.73 1552.29 1475.44 1553.34 L1477.44 1553.78 Q1483.68 1555.12 1486.29 1557.57 Q1488.93 1559.99 1488.93 1564.35 Q1488.93 1569.32 1484.98 1572.21 Q1481.07 1575.11 1474.19 1575.11 Q1471.33 1575.11 1468.21 1574.54 Q1465.12 1573.99 1461.69 1572.88 L1461.69 1566.83 Q1464.93 1568.52 1468.08 1569.38 Q1471.23 1570.21 1474.32 1570.21 Q1478.46 1570.21 1480.69 1568.81 Q1482.92 1567.37 1482.92 1564.8 Q1482.92 1562.41 1481.29 1561.14 Q1479.7 1559.86 1474.26 1558.68 L1472.22 1558.21 Q1466.78 1557.06 1464.36 1554.71 Q1461.94 1552.32 1461.94 1548.18 Q1461.94 1543.15 1465.51 1540.42 Q1469.07 1537.68 1475.63 1537.68 Q1478.87 1537.68 1481.74 1538.16 Q1484.6 1538.63 1487.02 1539.59 Z" fill="#000000" fill-rule="evenodd" fill-opacity="1" /><path clip-path="url(#clip570)" d="M1528.75 1554.9 L1528.75 1557.76 L1501.82 1557.76 Q1502.2 1563.81 1505.45 1566.99 Q1508.73 1570.14 1514.55 1570.14 Q1517.93 1570.14 1521.08 1569.32 Q1524.26 1568.49 1527.38 1566.83 L1527.38 1572.37 Q1524.23 1573.71 1520.92 1574.41 Q1517.61 1575.11 1514.2 1575.11 Q1505.67 1575.11 1500.68 1570.14 Q1495.71 1565.18 1495.71 1556.71 Q1495.71 1547.96 1500.42 1542.83 Q1505.16 1537.68 1513.18 1537.68 Q1520.38 1537.68 1524.55 1542.33 Q1528.75 1546.94 1528.75 1554.9 M1522.89 1553.18 Q1522.83 1548.37 1520.19 1545.51 Q1517.58 1542.64 1513.25 1542.64 Q1508.35 1542.64 1505.39 1545.41 Q1502.46 1548.18 1502.01 1553.21 L1522.89 1553.18 Z" fill="#000000" fill-rule="evenodd" fill-opacity="1" /><path clip-path="url(#clip570)" d="M1561.82 1543.95 L1561.82 1524.66 L1567.68 1524.66 L1567.68 1574.19 L1561.82 1574.19 L1561.82 1568.84 Q1559.97 1572.02 1557.14 1573.58 Q1554.34 1575.11 1550.39 1575.11 Q1543.93 1575.11 1539.86 1569.95 Q1535.81 1564.8 1535.81 1556.39 Q1535.81 1547.99 1539.86 1542.83 Q1543.93 1537.68 1550.39 1537.68 Q1554.34 1537.68 1557.14 1539.24 Q1559.97 1540.77 1561.82 1543.95 M1541.86 1556.39 Q1541.86 1562.85 1544.5 1566.55 Q1547.18 1570.21 1551.82 1570.21 Q1556.47 1570.21 1559.15 1566.55 Q1561.82 1562.85 1561.82 1556.39 Q1561.82 1549.93 1559.15 1546.27 Q1556.47 1542.58 1551.82 1542.58 Q1547.18 1542.58 1544.5 1546.27 Q1541.86 1549.93 1541.86 1556.39 Z" fill="#000000" fill-rule="evenodd" fill-opacity="1" /><polyline clip-path="url(#clip572)" style="stroke:#000000; stroke-linecap:butt; stroke-linejoin:round; stroke-width:2; stroke-opacity:0.1; fill:none" points="
  367.296,1354.43 2352.76,1354.43 
  "/>
<polyline clip-path="url(#clip572)" style="stroke:#000000; stroke-linecap:butt; stroke-linejoin:round; stroke-width:2; stroke-opacity:0.1; fill:none" points="
  367.296,1081.25 2352.76,1081.25 
  "/>
<polyline clip-path="url(#clip572)" style="stroke:#000000; stroke-linecap:butt; stroke-linejoin:round; stroke-width:2; stroke-opacity:0.1; fill:none" points="
  367.296,808.068 2352.76,808.068 
  "/>
<polyline clip-path="url(#clip572)" style="stroke:#000000; stroke-linecap:butt; stroke-linejoin:round; stroke-width:2; stroke-opacity:0.1; fill:none" points="
  367.296,534.888 2352.76,534.888 
  "/>
<polyline clip-path="url(#clip572)" style="stroke:#000000; stroke-linecap:butt; stroke-linejoin:round; stroke-width:2; stroke-opacity:0.1; fill:none" points="
  367.296,261.707 2352.76,261.707 
  "/>
<polyline clip-path="url(#clip570)" style="stroke:#000000; stroke-linecap:butt; stroke-linejoin:round; stroke-width:4; stroke-opacity:1; fill:none" points="
  367.296,1410.9 367.296,123.472 
  "/>
<polyline clip-path="url(#clip570)" style="stroke:#000000; stroke-linecap:butt; stroke-linejoin:round; stroke-width:4; stroke-opacity:1; fill:none" points="
  367.296,1354.43 391.122,1354.43 
  "/>
<polyline clip-path="url(#clip570)" style="stroke:#000000; stroke-linecap:butt; stroke-linejoin:round; stroke-width:4; stroke-opacity:1; fill:none" points="
  367.296,1081.25 391.122,1081.25 
  "/>
<polyline clip-path="url(#clip570)" style="stroke:#000000; stroke-linecap:butt; stroke-linejoin:round; stroke-width:4; stroke-opacity:1; fill:none" points="
  367.296,808.068 391.122,808.068 
  "/>
<polyline clip-path="url(#clip570)" style="stroke:#000000; stroke-linecap:butt; stroke-linejoin:round; stroke-width:4; stroke-opacity:1; fill:none" points="
  367.296,534.888 391.122,534.888 
  "/>
<polyline clip-path="url(#clip570)" style="stroke:#000000; stroke-linecap:butt; stroke-linejoin:round; stroke-width:4; stroke-opacity:1; fill:none" points="
  367.296,261.707 391.122,261.707 
  "/>
<path clip-path="url(#clip570)" d="M319.352 1340.23 Q315.741 1340.23 313.912 1343.79 Q312.106 1347.33 312.106 1354.46 Q312.106 1361.57 313.912 1365.13 Q315.741 1368.68 319.352 1368.68 Q322.986 1368.68 324.791 1365.13 Q326.62 1361.57 326.62 1354.46 Q326.62 1347.33 324.791 1343.79 Q322.986 1340.23 319.352 1340.23 M319.352 1336.52 Q325.162 1336.52 328.217 1341.13 Q331.296 1345.71 331.296 1354.46 Q331.296 1363.19 328.217 1367.8 Q325.162 1372.38 319.352 1372.38 Q313.541 1372.38 310.463 1367.8 Q307.407 1363.19 307.407 1354.46 Q307.407 1345.71 310.463 1341.13 Q313.541 1336.52 319.352 1336.52 Z" fill="#000000" fill-rule="evenodd" fill-opacity="1" /><path clip-path="url(#clip570)" d="M119.885 1101.04 L136.204 1101.04 L136.204 1104.98 L114.26 1104.98 L114.26 1101.04 Q116.922 1098.29 121.505 1093.66 Q126.112 1089 127.292 1087.66 Q129.538 1085.14 130.417 1083.4 Q131.32 1081.64 131.32 1079.95 Q131.32 1077.2 129.376 1075.46 Q127.455 1073.73 124.353 1073.73 Q122.154 1073.73 119.7 1074.49 Q117.269 1075.25 114.492 1076.8 L114.492 1072.08 Q117.316 1070.95 119.769 1070.37 Q122.223 1069.79 124.26 1069.79 Q129.63 1069.79 132.825 1072.48 Q136.019 1075.16 136.019 1079.65 Q136.019 1081.78 135.209 1083.7 Q134.422 1085.6 132.316 1088.19 Q131.737 1088.86 128.635 1092.08 Q125.533 1095.28 119.885 1101.04 Z" fill="#000000" fill-rule="evenodd" fill-opacity="1" /><path clip-path="url(#clip570)" d="M146.019 1099.1 L150.903 1099.1 L150.903 1104.98 L146.019 1104.98 L146.019 1099.1 Z" fill="#000000" fill-rule="evenodd" fill-opacity="1" /><path clip-path="url(#clip570)" d="M161.135 1070.42 L179.491 1070.42 L179.491 1074.35 L165.417 1074.35 L165.417 1082.82 Q166.436 1082.48 167.454 1082.31 Q168.473 1082.13 169.491 1082.13 Q175.278 1082.13 178.658 1085.3 Q182.038 1088.47 182.038 1093.89 Q182.038 1099.47 178.565 1102.57 Q175.093 1105.65 168.774 1105.65 Q166.598 1105.65 164.329 1105.28 Q162.084 1104.91 159.677 1104.17 L159.677 1099.47 Q161.76 1100.6 163.982 1101.16 Q166.204 1101.71 168.681 1101.71 Q172.686 1101.71 175.024 1099.61 Q177.362 1097.5 177.362 1093.89 Q177.362 1090.28 175.024 1088.17 Q172.686 1086.06 168.681 1086.06 Q166.806 1086.06 164.931 1086.48 Q163.079 1086.9 161.135 1087.78 L161.135 1070.42 Z" fill="#000000" fill-rule="evenodd" fill-opacity="1" /><path clip-path="url(#clip570)" d="M201.25 1073.49 Q197.639 1073.49 195.811 1077.06 Q194.005 1080.6 194.005 1087.73 Q194.005 1094.84 195.811 1098.4 Q197.639 1101.94 201.25 1101.94 Q204.885 1101.94 206.69 1098.4 Q208.519 1094.84 208.519 1087.73 Q208.519 1080.6 206.69 1077.06 Q204.885 1073.49 201.25 1073.49 M201.25 1069.79 Q207.061 1069.79 210.116 1074.4 Q213.195 1078.98 213.195 1087.73 Q213.195 1096.46 210.116 1101.06 Q207.061 1105.65 201.25 1105.65 Q195.44 1105.65 192.362 1101.06 Q189.306 1096.46 189.306 1087.73 Q189.306 1078.98 192.362 1074.4 Q195.44 1069.79 201.25 1069.79 Z" fill="#000000" fill-rule="evenodd" fill-opacity="1" /><path clip-path="url(#clip570)" d="M249.584 1079.51 L239.005 1090.14 L249.584 1100.72 L246.829 1103.52 L236.204 1092.89 L225.579 1103.52 L222.848 1100.72 L233.403 1090.14 L222.848 1079.51 L225.579 1076.71 L236.204 1087.34 L246.829 1076.71 L249.584 1079.51 Z" fill="#000000" fill-rule="evenodd" fill-opacity="1" /><path clip-path="url(#clip570)" d="M261.945 1101.04 L269.583 1101.04 L269.583 1074.68 L261.273 1076.34 L261.273 1072.08 L269.537 1070.42 L274.213 1070.42 L274.213 1101.04 L281.852 1101.04 L281.852 1104.98 L261.945 1104.98 L261.945 1101.04 Z" fill="#000000" fill-rule="evenodd" fill-opacity="1" /><path clip-path="url(#clip570)" d="M301.296 1073.49 Q297.685 1073.49 295.856 1077.06 Q294.051 1080.6 294.051 1087.73 Q294.051 1094.84 295.856 1098.4 Q297.685 1101.94 301.296 1101.94 Q304.93 1101.94 306.736 1098.4 Q308.565 1094.84 308.565 1087.73 Q308.565 1080.6 306.736 1077.06 Q304.93 1073.49 301.296 1073.49 M301.296 1069.79 Q307.106 1069.79 310.162 1074.4 Q313.241 1078.98 313.241 1087.73 Q313.241 1096.46 310.162 1101.06 Q307.106 1105.65 301.296 1105.65 Q295.486 1105.65 292.407 1101.06 Q289.352 1096.46 289.352 1087.73 Q289.352 1078.98 292.407 1074.4 Q295.486 1069.79 301.296 1069.79 Z" fill="#000000" fill-rule="evenodd" fill-opacity="1" /><path clip-path="url(#clip570)" d="M313.241 1049.49 L331.296 1049.49 L331.296 1051.1 L321.102 1077.57 L317.134 1077.57 L326.726 1052.68 L313.241 1052.68 L313.241 1049.49 Z" fill="#000000" fill-rule="evenodd" fill-opacity="1" /><path clip-path="url(#clip570)" d="M115.904 797.235 L134.26 797.235 L134.26 801.171 L120.186 801.171 L120.186 809.643 Q121.205 809.296 122.223 809.134 Q123.242 808.948 124.26 808.948 Q130.047 808.948 133.427 812.12 Q136.806 815.291 136.806 820.708 Q136.806 826.286 133.334 829.388 Q129.862 832.467 123.543 832.467 Q121.367 832.467 119.098 832.096 Q116.853 831.726 114.445 830.985 L114.445 826.286 Q116.529 827.421 118.751 827.976 Q120.973 828.532 123.45 828.532 Q127.455 828.532 129.792 826.425 Q132.13 824.319 132.13 820.708 Q132.13 817.097 129.792 814.99 Q127.455 812.884 123.45 812.884 Q121.575 812.884 119.7 813.3 Q117.848 813.717 115.904 814.597 L115.904 797.235 Z" fill="#000000" fill-rule="evenodd" fill-opacity="1" /><path clip-path="url(#clip570)" d="M146.019 825.916 L150.903 825.916 L150.903 831.795 L146.019 831.795 L146.019 825.916 Z" fill="#000000" fill-rule="evenodd" fill-opacity="1" /><path clip-path="url(#clip570)" d="M171.089 800.314 Q167.477 800.314 165.649 803.879 Q163.843 807.421 163.843 814.55 Q163.843 821.657 165.649 825.221 Q167.477 828.763 171.089 828.763 Q174.723 828.763 176.528 825.221 Q178.357 821.657 178.357 814.55 Q178.357 807.421 176.528 803.879 Q174.723 800.314 171.089 800.314 M171.089 796.61 Q176.899 796.61 179.954 801.217 Q183.033 805.8 183.033 814.55 Q183.033 823.277 179.954 827.883 Q176.899 832.467 171.089 832.467 Q165.278 832.467 162.2 827.883 Q159.144 823.277 159.144 814.55 Q159.144 805.8 162.2 801.217 Q165.278 796.61 171.089 796.61 Z" fill="#000000" fill-rule="evenodd" fill-opacity="1" /><path clip-path="url(#clip570)" d="M201.25 800.314 Q197.639 800.314 195.811 803.879 Q194.005 807.421 194.005 814.55 Q194.005 821.657 195.811 825.221 Q197.639 828.763 201.25 828.763 Q204.885 828.763 206.69 825.221 Q208.519 821.657 208.519 814.55 Q208.519 807.421 206.69 803.879 Q204.885 800.314 201.25 800.314 M201.25 796.61 Q207.061 796.61 210.116 801.217 Q213.195 805.8 213.195 814.55 Q213.195 823.277 210.116 827.883 Q207.061 832.467 201.25 832.467 Q195.44 832.467 192.362 827.883 Q189.306 823.277 189.306 814.55 Q189.306 805.8 192.362 801.217 Q195.44 796.61 201.25 796.61 Z" fill="#000000" fill-rule="evenodd" fill-opacity="1" /><path clip-path="url(#clip570)" d="M249.584 806.333 L239.005 816.958 L249.584 827.536 L246.829 830.337 L236.204 819.712 L225.579 830.337 L222.848 827.536 L233.403 816.958 L222.848 806.333 L225.579 803.532 L236.204 814.157 L246.829 803.532 L249.584 806.333 Z" fill="#000000" fill-rule="evenodd" fill-opacity="1" /><path clip-path="url(#clip570)" d="M261.945 827.86 L269.583 827.86 L269.583 801.495 L261.273 803.161 L261.273 798.902 L269.537 797.235 L274.213 797.235 L274.213 827.86 L281.852 827.86 L281.852 831.795 L261.945 831.795 L261.945 827.86 Z" fill="#000000" fill-rule="evenodd" fill-opacity="1" /><path clip-path="url(#clip570)" d="M301.296 800.314 Q297.685 800.314 295.856 803.879 Q294.051 807.421 294.051 814.55 Q294.051 821.657 295.856 825.221 Q297.685 828.763 301.296 828.763 Q304.93 828.763 306.736 825.221 Q308.565 821.657 308.565 814.55 Q308.565 807.421 306.736 803.879 Q304.93 800.314 301.296 800.314 M301.296 796.61 Q307.106 796.61 310.162 801.217 Q313.241 805.8 313.241 814.55 Q313.241 823.277 310.162 827.883 Q307.106 832.467 301.296 832.467 Q295.486 832.467 292.407 827.883 Q289.352 823.277 289.352 814.55 Q289.352 805.8 292.407 801.217 Q295.486 796.61 301.296 796.61 Z" fill="#000000" fill-rule="evenodd" fill-opacity="1" /><path clip-path="url(#clip570)" d="M313.241 776.305 L331.296 776.305 L331.296 777.923 L321.102 804.385 L317.134 804.385 L326.726 779.502 L313.241 779.502 L313.241 776.305 Z" fill="#000000" fill-rule="evenodd" fill-opacity="1" /><path clip-path="url(#clip570)" d="M114.677 524.055 L136.899 524.055 L136.899 526.046 L124.353 558.615 L119.468 558.615 L131.274 527.99 L114.677 527.99 L114.677 524.055 Z" fill="#000000" fill-rule="evenodd" fill-opacity="1" /><path clip-path="url(#clip570)" d="M146.019 552.736 L150.903 552.736 L150.903 558.615 L146.019 558.615 L146.019 552.736 Z" fill="#000000" fill-rule="evenodd" fill-opacity="1" /><path clip-path="url(#clip570)" d="M161.135 524.055 L179.491 524.055 L179.491 527.99 L165.417 527.99 L165.417 536.463 Q166.436 536.115 167.454 535.953 Q168.473 535.768 169.491 535.768 Q175.278 535.768 178.658 538.939 Q182.038 542.111 182.038 547.527 Q182.038 553.106 178.565 556.208 Q175.093 559.287 168.774 559.287 Q166.598 559.287 164.329 558.916 Q162.084 558.546 159.677 557.805 L159.677 553.106 Q161.76 554.24 163.982 554.796 Q166.204 555.351 168.681 555.351 Q172.686 555.351 175.024 553.245 Q177.362 551.138 177.362 547.527 Q177.362 543.916 175.024 541.81 Q172.686 539.703 168.681 539.703 Q166.806 539.703 164.931 540.12 Q163.079 540.537 161.135 541.416 L161.135 524.055 Z" fill="#000000" fill-rule="evenodd" fill-opacity="1" /><path clip-path="url(#clip570)" d="M201.25 527.134 Q197.639 527.134 195.811 530.699 Q194.005 534.24 194.005 541.37 Q194.005 548.476 195.811 552.041 Q197.639 555.583 201.25 555.583 Q204.885 555.583 206.69 552.041 Q208.519 548.476 208.519 541.37 Q208.519 534.24 206.69 530.699 Q204.885 527.134 201.25 527.134 M201.25 523.43 Q207.061 523.43 210.116 528.037 Q213.195 532.62 213.195 541.37 Q213.195 550.097 210.116 554.703 Q207.061 559.287 201.25 559.287 Q195.44 559.287 192.362 554.703 Q189.306 550.097 189.306 541.37 Q189.306 532.62 192.362 528.037 Q195.44 523.43 201.25 523.43 Z" fill="#000000" fill-rule="evenodd" fill-opacity="1" /><path clip-path="url(#clip570)" d="M249.584 533.152 L239.005 543.777 L249.584 554.356 L246.829 557.157 L236.204 546.532 L225.579 557.157 L222.848 554.356 L233.403 543.777 L222.848 533.152 L225.579 530.351 L236.204 540.976 L246.829 530.351 L249.584 533.152 Z" fill="#000000" fill-rule="evenodd" fill-opacity="1" /><path clip-path="url(#clip570)" d="M261.945 554.68 L269.583 554.68 L269.583 528.314 L261.273 529.981 L261.273 525.722 L269.537 524.055 L274.213 524.055 L274.213 554.68 L281.852 554.68 L281.852 558.615 L261.945 558.615 L261.945 554.68 Z" fill="#000000" fill-rule="evenodd" fill-opacity="1" /><path clip-path="url(#clip570)" d="M301.296 527.134 Q297.685 527.134 295.856 530.699 Q294.051 534.24 294.051 541.37 Q294.051 548.476 295.856 552.041 Q297.685 555.583 301.296 555.583 Q304.93 555.583 306.736 552.041 Q308.565 548.476 308.565 541.37 Q308.565 534.24 306.736 530.699 Q304.93 527.134 301.296 527.134 M301.296 523.43 Q307.106 523.43 310.162 528.037 Q313.241 532.62 313.241 541.37 Q313.241 550.097 310.162 554.703 Q307.106 559.287 301.296 559.287 Q295.486 559.287 292.407 554.703 Q289.352 550.097 289.352 541.37 Q289.352 532.62 292.407 528.037 Q295.486 523.43 301.296 523.43 Z" fill="#000000" fill-rule="evenodd" fill-opacity="1" /><path clip-path="url(#clip570)" d="M313.241 503.125 L331.296 503.125 L331.296 504.742 L321.102 531.205 L317.134 531.205 L326.726 506.322 L313.241 506.322 L313.241 503.125 Z" fill="#000000" fill-rule="evenodd" fill-opacity="1" /><path clip-path="url(#clip570)" d="M115.464 281.5 L123.103 281.5 L123.103 255.134 L114.793 256.801 L114.793 252.542 L123.056 250.875 L127.732 250.875 L127.732 281.5 L135.371 281.5 L135.371 285.435 L115.464 285.435 L115.464 281.5 Z" fill="#000000" fill-rule="evenodd" fill-opacity="1" /><path clip-path="url(#clip570)" d="M144.816 279.555 L149.7 279.555 L149.7 285.435 L144.816 285.435 L144.816 279.555 Z" fill="#000000" fill-rule="evenodd" fill-opacity="1" /><path clip-path="url(#clip570)" d="M169.885 253.954 Q166.274 253.954 164.445 257.518 Q162.64 261.06 162.64 268.19 Q162.64 275.296 164.445 278.861 Q166.274 282.403 169.885 282.403 Q173.519 282.403 175.325 278.861 Q177.153 275.296 177.153 268.19 Q177.153 261.06 175.325 257.518 Q173.519 253.954 169.885 253.954 M169.885 250.25 Q175.695 250.25 178.751 254.856 Q181.829 259.44 181.829 268.19 Q181.829 276.916 178.751 281.523 Q175.695 286.106 169.885 286.106 Q164.075 286.106 160.996 281.523 Q157.94 276.916 157.94 268.19 Q157.94 259.44 160.996 254.856 Q164.075 250.25 169.885 250.25 Z" fill="#000000" fill-rule="evenodd" fill-opacity="1" /><path clip-path="url(#clip570)" d="M200.047 253.954 Q196.436 253.954 194.607 257.518 Q192.801 261.06 192.801 268.19 Q192.801 275.296 194.607 278.861 Q196.436 282.403 200.047 282.403 Q203.681 282.403 205.487 278.861 Q207.315 275.296 207.315 268.19 Q207.315 261.06 205.487 257.518 Q203.681 253.954 200.047 253.954 M200.047 250.25 Q205.857 250.25 208.912 254.856 Q211.991 259.44 211.991 268.19 Q211.991 276.916 208.912 281.523 Q205.857 286.106 200.047 286.106 Q194.237 286.106 191.158 281.523 Q188.102 276.916 188.102 268.19 Q188.102 259.44 191.158 254.856 Q194.237 250.25 200.047 250.25 Z" fill="#000000" fill-rule="evenodd" fill-opacity="1" /><path clip-path="url(#clip570)" d="M248.38 259.972 L237.801 270.597 L248.38 281.176 L245.625 283.977 L235 273.352 L224.375 283.977 L221.644 281.176 L232.199 270.597 L221.644 259.972 L224.375 257.171 L235 267.796 L245.625 257.171 L248.38 259.972 Z" fill="#000000" fill-rule="evenodd" fill-opacity="1" /><path clip-path="url(#clip570)" d="M260.741 281.5 L268.38 281.5 L268.38 255.134 L260.07 256.801 L260.07 252.542 L268.333 250.875 L273.009 250.875 L273.009 281.5 L280.648 281.5 L280.648 285.435 L260.741 285.435 L260.741 281.5 Z" fill="#000000" fill-rule="evenodd" fill-opacity="1" /><path clip-path="url(#clip570)" d="M300.092 253.954 Q296.481 253.954 294.653 257.518 Q292.847 261.06 292.847 268.19 Q292.847 275.296 294.653 278.861 Q296.481 282.403 300.092 282.403 Q303.727 282.403 305.532 278.861 Q307.361 275.296 307.361 268.19 Q307.361 261.06 305.532 257.518 Q303.727 253.954 300.092 253.954 M300.092 250.25 Q305.903 250.25 308.958 254.856 Q312.037 259.44 312.037 268.19 Q312.037 276.916 308.958 281.523 Q305.903 286.106 300.092 286.106 Q294.282 286.106 291.204 281.523 Q288.148 276.916 288.148 268.19 Q288.148 259.44 291.204 254.856 Q294.282 250.25 300.092 250.25 Z" fill="#000000" fill-rule="evenodd" fill-opacity="1" /><path clip-path="url(#clip570)" d="M321.666 244.69 Q318.958 244.69 317.397 246.138 Q315.855 247.586 315.855 250.125 Q315.855 252.664 317.397 254.113 Q318.958 255.561 321.666 255.561 Q324.375 255.561 325.936 254.113 Q327.497 252.646 327.497 250.125 Q327.497 247.586 325.936 246.138 Q324.394 244.69 321.666 244.69 M317.867 243.072 Q315.422 242.471 314.049 240.797 Q312.695 239.123 312.695 236.715 Q312.695 233.349 315.084 231.393 Q317.491 229.437 321.666 229.437 Q325.861 229.437 328.249 231.393 Q330.638 233.349 330.638 236.715 Q330.638 239.123 329.265 240.797 Q327.911 242.471 325.484 243.072 Q328.23 243.712 329.754 245.574 Q331.296 247.436 331.296 250.125 Q331.296 254.207 328.795 256.388 Q326.312 258.57 321.666 258.57 Q317.021 258.57 314.52 256.388 Q312.037 254.207 312.037 250.125 Q312.037 247.436 313.579 245.574 Q315.121 243.712 317.867 243.072 M316.476 237.073 Q316.476 239.254 317.83 240.477 Q319.203 241.699 321.666 241.699 Q324.111 241.699 325.484 240.477 Q326.876 239.254 326.876 237.073 Q326.876 234.891 325.484 233.668 Q324.111 232.446 321.666 232.446 Q319.203 232.446 317.83 233.668 Q316.476 234.891 316.476 237.073 Z" fill="#000000" fill-rule="evenodd" fill-opacity="1" /><path clip-path="url(#clip570)" d="M33.8307 841.504 Q33.2578 842.491 33.0032 843.668 Q32.7167 844.814 32.7167 846.215 Q32.7167 851.18 35.9632 853.853 Q39.1779 856.495 45.2253 856.495 L64.0042 856.495 L64.0042 862.384 L28.3562 862.384 L28.3562 856.495 L33.8944 856.495 Q30.6479 854.649 29.0883 851.689 Q27.4968 848.729 27.4968 844.496 Q27.4968 843.891 27.5923 843.159 Q27.656 842.427 27.8151 841.536 L33.8307 841.504 Z" fill="#000000" fill-rule="evenodd" fill-opacity="1" /><path clip-path="url(#clip570)" d="M44.7161 806.302 L47.5806 806.302 L47.5806 833.229 Q53.6281 832.847 56.8109 829.6 Q59.9619 826.322 59.9619 820.497 Q59.9619 817.123 59.1344 813.972 Q58.3069 810.789 56.6518 807.67 L62.1899 807.67 Q63.5267 810.821 64.227 814.131 Q64.9272 817.442 64.9272 820.847 Q64.9272 829.377 59.9619 834.374 Q54.9967 839.34 46.5303 839.34 Q37.7774 839.34 32.6531 834.629 Q27.4968 829.887 27.4968 821.866 Q27.4968 814.673 32.1438 810.503 Q36.7589 806.302 44.7161 806.302 M42.9973 812.158 Q38.1912 812.222 35.3266 814.864 Q32.4621 817.473 32.4621 821.802 Q32.4621 826.704 35.2312 829.664 Q38.0002 832.592 43.0292 833.038 L42.9973 812.158 Z" fill="#000000" fill-rule="evenodd" fill-opacity="1" /><path clip-path="url(#clip570)" d="M45.7664 773.232 Q39.4007 773.232 35.8996 775.874 Q32.3984 778.484 32.3984 783.226 Q32.3984 787.937 35.8996 790.578 Q39.4007 793.188 45.7664 793.188 Q52.1003 793.188 55.6014 790.578 Q59.1026 787.937 59.1026 783.226 Q59.1026 778.484 55.6014 775.874 Q52.1003 773.232 45.7664 773.232 M59.58 767.375 Q68.683 767.375 73.1071 771.418 Q77.5631 775.46 77.5631 783.799 Q77.5631 786.886 77.0857 789.624 Q76.6401 792.361 75.6852 794.939 L69.9879 794.939 Q71.3884 792.361 72.0568 789.846 Q72.7252 787.332 72.7252 784.722 Q72.7252 778.961 69.7015 776.096 Q66.7096 773.232 60.6303 773.232 L57.7339 773.232 Q60.885 775.046 62.4446 777.879 Q64.0042 780.712 64.0042 784.658 Q64.0042 791.215 59.0071 795.225 Q54.01 799.236 45.7664 799.236 Q37.491 799.236 32.4939 795.225 Q27.4968 791.215 27.4968 784.658 Q27.4968 780.712 29.0564 777.879 Q30.616 775.046 33.7671 773.232 L28.3562 773.232 L28.3562 767.375 L59.58 767.375 Z" fill="#000000" fill-rule="evenodd" fill-opacity="1" /><path clip-path="url(#clip570)" d="M33.8307 734.656 Q33.2578 735.642 33.0032 736.82 Q32.7167 737.966 32.7167 739.366 Q32.7167 744.331 35.9632 747.005 Q39.1779 749.647 45.2253 749.647 L64.0042 749.647 L64.0042 755.535 L28.3562 755.535 L28.3562 749.647 L33.8944 749.647 Q30.6479 747.801 29.0883 744.841 Q27.4968 741.881 27.4968 737.648 Q27.4968 737.043 27.5923 736.311 Q27.656 735.579 27.8151 734.687 L33.8307 734.656 Z" fill="#000000" fill-rule="evenodd" fill-opacity="1" /><path clip-path="url(#clip570)" d="M44.7161 699.453 L47.5806 699.453 L47.5806 726.38 Q53.6281 725.998 56.8109 722.752 Q59.9619 719.473 59.9619 713.649 Q59.9619 710.275 59.1344 707.124 Q58.3069 703.941 56.6518 700.822 L62.1899 700.822 Q63.5267 703.973 64.227 707.283 Q64.9272 710.593 64.9272 713.999 Q64.9272 722.529 59.9619 727.526 Q54.9967 732.491 46.5303 732.491 Q37.7774 732.491 32.6531 727.781 Q27.4968 723.038 27.4968 715.017 Q27.4968 707.824 32.1438 703.655 Q36.7589 699.453 44.7161 699.453 M42.9973 705.31 Q38.1912 705.373 35.3266 708.015 Q32.4621 710.625 32.4621 714.954 Q32.4621 719.855 35.2312 722.815 Q38.0002 725.744 43.0292 726.189 L42.9973 705.31 Z" fill="#000000" fill-rule="evenodd" fill-opacity="1" /><path clip-path="url(#clip570)" d="M18.2347 684.048 L28.3562 684.048 L28.3562 671.985 L32.9077 671.985 L32.9077 684.048 L52.2594 684.048 Q56.6199 684.048 57.8613 682.871 Q59.1026 681.661 59.1026 678.001 L59.1026 671.985 L64.0042 671.985 L64.0042 678.001 Q64.0042 684.78 61.4897 687.358 Q58.9434 689.937 52.2594 689.937 L32.9077 689.937 L32.9077 694.233 L28.3562 694.233 L28.3562 689.937 L18.2347 689.937 L18.2347 684.048 Z" fill="#000000" fill-rule="evenodd" fill-opacity="1" /><path clip-path="url(#clip570)" d="M1187.92 18.8205 L1187.92 65.8515 L1197.81 65.8515 Q1210.32 65.8515 1216.12 60.1802 Q1221.95 54.509 1221.95 42.2752 Q1221.95 30.1225 1216.12 24.4918 Q1210.32 18.8205 1197.81 18.8205 L1187.92 18.8205 M1179.74 12.096 L1196.55 12.096 Q1214.13 12.096 1222.36 19.4281 Q1230.58 26.7198 1230.58 42.2752 Q1230.58 57.9117 1222.32 65.2439 Q1214.05 72.576 1196.55 72.576 L1179.74 72.576 L1179.74 12.096 Z" fill="#000000" fill-rule="evenodd" fill-opacity="1" /><path clip-path="url(#clip570)" d="M1262.38 20.1573 L1251.28 50.2555 L1273.52 50.2555 L1262.38 20.1573 M1257.76 12.096 L1267.04 12.096 L1290.09 72.576 L1281.58 72.576 L1276.07 57.061 L1248.81 57.061 L1243.3 72.576 L1234.67 72.576 L1257.76 12.096 Z" fill="#000000" fill-rule="evenodd" fill-opacity="1" /><path clip-path="url(#clip570)" d="M1298.92 12.096 L1307.1 12.096 L1307.1 65.6895 L1336.55 65.6895 L1336.55 72.576 L1298.92 72.576 L1298.92 12.096 Z" fill="#000000" fill-rule="evenodd" fill-opacity="1" /><path clip-path="url(#clip570)" d="M1345.14 12.096 L1353.32 12.096 L1353.32 65.6895 L1382.77 65.6895 L1382.77 72.576 L1345.14 72.576 L1345.14 12.096 Z" fill="#000000" fill-rule="evenodd" fill-opacity="1" /><path clip-path="url(#clip570)" d="M1413.48 20.1573 L1402.38 50.2555 L1424.62 50.2555 L1413.48 20.1573 M1408.86 12.096 L1418.14 12.096 L1441.19 72.576 L1432.68 72.576 L1427.17 57.061 L1399.91 57.061 L1394.4 72.576 L1385.77 72.576 L1408.86 12.096 Z" fill="#000000" fill-rule="evenodd" fill-opacity="1" /><path clip-path="url(#clip570)" d="M1486.27 14.0809 L1486.27 22.0612 Q1481.61 19.8332 1477.48 18.7395 Q1473.35 17.6457 1469.5 17.6457 Q1462.82 17.6457 1459.17 20.2383 Q1455.57 22.8309 1455.57 27.611 Q1455.57 31.6214 1457.96 33.6873 Q1460.39 35.7128 1467.11 36.9686 L1472.05 37.9813 Q1481.21 39.7232 1485.54 44.1387 Q1489.92 48.5136 1489.92 55.8863 Q1489.92 64.6767 1484 69.2137 Q1478.13 73.7508 1466.75 73.7508 Q1462.45 73.7508 1457.59 72.7785 Q1452.77 71.8063 1447.59 69.9024 L1447.59 61.4765 Q1452.57 64.2716 1457.35 65.6895 Q1462.13 67.1073 1466.75 67.1073 Q1473.76 67.1073 1477.56 64.3527 Q1481.37 61.598 1481.37 56.4939 Q1481.37 52.0379 1478.62 49.5264 Q1475.9 47.0148 1469.66 45.759 L1464.68 44.7868 Q1455.53 42.9639 1451.43 39.075 Q1447.34 35.1862 1447.34 28.2591 Q1447.34 20.2383 1452.97 15.6203 Q1458.65 11.0023 1468.57 11.0023 Q1472.82 11.0023 1477.24 11.7719 Q1481.65 12.5416 1486.27 14.0809 Z" fill="#000000" fill-rule="evenodd" fill-opacity="1" /><path clip-path="url(#clip570)" d="M1502.68 12.096 L1510.86 12.096 L1510.86 65.6895 L1540.31 65.6895 L1540.31 72.576 L1502.68 72.576 L1502.68 12.096 Z" fill="#000000" fill-rule="evenodd" fill-opacity="1" /><polyline clip-path="url(#clip572)" style="stroke:#009af9; stroke-linecap:butt; stroke-linejoin:round; stroke-width:8; stroke-opacity:1; fill:none" points="
  1226.04,1374.46 1407.82,1374.46 1524.38,1374.46 1613.94,1374.46 1672.58,1374.46 1715.6,1374.46 1756.26,1374.46 1790.29,1374.46 1827.67,1374.46 1869.89,1374.46 
  1900.65,1374.46 1928.79,1374.46 1956.35,1374.46 1983.27,1374.46 2011.39,1374.46 2032.6,1374.46 2054.02,1374.46 2070.24,1374.46 2084.1,1374.46 2097.3,1374.46 
  2110.01,1374.46 2122.02,1374.46 2133.81,1374.46 2145.6,1374.46 2156.54,1374.46 2166.89,1374.46 2176.87,1374.46 2186.06,1374.46 2195.07,1374.46 2203.79,1374.46 
  2212.14,1374.46 2219.31,1374.46 2226.4,1374.46 2234.43,1374.46 2242.84,1374.46 2250.21,1374.46 2257.87,1374.46 2264.16,1374.46 2270.77,1374.46 2277.24,1374.46 
  
  "/>
<polyline clip-path="url(#clip572)" style="stroke:#e26f46; stroke-linecap:butt; stroke-linejoin:round; stroke-width:8; stroke-opacity:1; fill:none" points="
  1251.92,1374.46 1400.58,1374.46 1491.39,1374.46 1597.03,1374.46 1659.96,1374.46 1711.41,1374.46 1758.57,1374.46 1804.56,1374.46 1841.31,1374.46 1871.21,1374.46 
  1899.41,1374.46 1924.57,1374.46 1952.69,1374.46 1976.94,1374.46 1995.07,1374.46 2012.32,1374.46 2031.32,1374.46 2050.45,1374.46 2069.54,1374.46 2086.25,1374.46 
  2086.72,1374.46 2103.29,1374.46 2117.33,1374.46 2131.49,1374.46 2144.56,1374.46 2157.25,1374.46 2168.95,1374.46 2181.68,1374.46 2193.96,1374.46 2207.12,1374.46 
  2216.39,1374.46 2226.88,1374.46 2236.88,1374.46 2245.5,1374.46 2256.43,1374.46 2266.26,1374.46 2274.55,1374.46 2282.09,1374.46 2289.1,1374.46 2296.56,1374.46 
  
  "/>
<polyline clip-path="url(#clip572)" style="stroke:#3da44d; stroke-linecap:butt; stroke-linejoin:round; stroke-width:8; stroke-opacity:1; fill:none" points="
  452.962,481.201 464.14,481.201 466.089,481.201 468.167,481.201 470.144,519.772 472.04,565.33 473.809,565.33 475.55,565.33 477.551,565.33 479.545,661.7 
  481.485,661.7 483.273,661.7 485.439,661.7 487.304,1005.55 489.275,1005.55 491.074,1005.55 492.932,1005.55 494.668,1005.55 496.295,1005.55 498.158,1005.55 
  500.003,1005.55 501.706,1005.55 503.356,1005.55 504.917,1005.55 506.542,1005.55 508.702,1005.55 510.434,1005.55 512.101,1005.55 513.699,1005.55 515.281,1005.55 
  517.072,1005.55 518.852,1005.55 520.509,1005.55 522.131,1005.55 523.688,1005.55 525.253,1005.55 527.088,1005.55 528.706,1005.55 531.044,1005.55 533.57,1005.55 
  535.687,1005.55 537.472,1005.55 539.866,1005.55 542.043,1005.55 544.59,1005.55 546.453,1005.55 549.37,1005.55 552.49,1005.55 555.303,1005.55 557.935,1005.55 
  559.6,1005.55 561.737,1005.55 563.555,1005.55 565.05,1359.09 566.56,1359.09 568.218,1359.09 569.792,1359.09 571.275,1359.09 572.723,1359.09 574.101,1359.09 
  575.48,1359.09 577.294,1359.09 578.755,1359.09 580.216,1359.09 581.566,1359.09 583.509,1359.09 586.127,1359.09 588.131,1359.09 589.614,1359.09 591.212,1359.09 
  592.701,1359.09 594.091,1359.09 595.439,1359.09 596.69,1359.09 598.065,1359.09 599.646,1359.09 601.046,1359.09 602.408,1359.09 603.611,1359.09 604.796,1359.09 
  606.359,1359.09 627.799,1371.73 635.845,1371.73 639.478,1371.73 643.025,1371.73 646.464,1371.73 649.788,1371.73 652.763,1371.73 655.495,1371.73 658.374,1371.73 
  661.13,1371.73 663.827,1371.73 666.446,1371.73 669.068,1371.73 671.809,1371.73 674.415,1371.73 677.056,1371.73 679.503,1371.73 682.263,1371.73 684.755,1371.73 
  687.434,1371.73 689.897,1371.73 692.487,1371.73 694.901,1371.73 698.564,1371.73 701.529,1371.73 704.113,1371.73 706.55,1371.73 719.539,1374.46 731.537,1374.46 
  743.923,1374.46 755.838,1374.46 767.288,1374.46 778.072,1374.46 788.487,1374.46 798.187,1374.46 808.129,1374.46 825.135,1374.46 840.801,1374.46 873.421,1374.46 
  887.967,1374.46 1192.94,1374.46 1194.24,1374.46 1194.75,1374.46 1195.22,1374.46 1195.67,1374.46 1196.18,1374.46 1196.63,1374.46 1197.13,1374.46 1197.57,1374.46 
  1198.06,1374.46 1198.5,1374.46 1198.97,1374.46 1199.43,1374.46 1199.89,1374.46 1200.5,1374.46 1201.47,1374.46 1202.1,1374.46 1202.67,1374.46 1203.52,1374.46 
  1204.09,1374.46 1204.6,1374.46 1205.13,1374.46 1205.65,1374.46 1206.16,1374.46 1206.65,1374.46 1207.18,1374.46 1207.67,1374.46 1208.15,1374.46 1208.61,1374.46 
  1209.13,1374.46 1209.6,1374.46 1210.1,1374.46 1210.57,1374.46 1211.03,1374.46 1213.76,1374.46 1216.38,1374.46 1219.01,1374.46 1221.53,1374.46 1224,1374.46 
  1226.4,1374.46 1228.8,1374.46 1231.18,1374.46 1233.58,1374.46 1236.11,1374.46 1238.53,1374.46 1246.69,1374.46 1254.84,1374.46 1263.03,1374.46 1291.37,1374.46 
  1358.6,1374.46 1360.2,1374.46 1361.8,1374.46 1363.47,1374.46 1365.05,1374.46 1366.6,1374.46 1368.22,1374.46 1369.88,1374.46 1371.45,1374.46 1373.02,1374.46 
  1374.55,1374.46 1376.11,1374.46 1377.64,1374.46 1379.56,1374.46 1381.05,1374.46 1386.67,1374.46 1392.45,1374.46 1398.76,1374.46 1404.54,1374.46 1410.11,1374.46 
  1429.96,1374.46 1456.77,1374.46 1461.08,1374.46 1465.59,1374.46 1469.7,1374.46 1473.71,1374.46 1477.33,1374.46 1481.3,1374.46 1485.25,1374.46 1498.84,1374.46 
  1510.65,1374.46 1533.98,1374.46 1544.88,1374.46 1549.16,1374.46 1555.88,1374.46 1562.2,1374.46 
  "/>
<polyline clip-path="url(#clip572)" style="stroke:#c271d2; stroke-linecap:butt; stroke-linejoin:round; stroke-width:8; stroke-opacity:1; fill:none" points="
  423.488,159.909 436.232,283.869 438.536,283.869 442.211,297.924 446.222,384.429 449.506,384.429 452.1,384.429 454.377,384.429 456.701,384.429 458.738,459.219 
  460.948,459.219 462.964,1005.55 465.013,1005.55 467.223,1005.55 469.293,1005.55 471.348,1005.55 473.36,1005.55 475.262,1005.55 477.25,1005.55 479.065,1005.55 
  480.917,1005.55 482.962,1005.55 484.757,1005.55 486.577,1005.55 488.588,1005.55 490.448,1005.55 492.337,1005.55 494.285,1005.55 496.08,1005.55 497.961,1005.55 
  499.8,1359.09 501.626,1359.09 503.497,1359.09 505.314,1359.09 507.032,1359.09 508.671,1359.09 510.367,1359.09 512.133,1359.09 513.803,1359.09 515.325,1359.09 
  517.223,1359.09 518.858,1359.09 520.669,1359.09 522.675,1359.09 524.391,1359.09 526.227,1359.09 528.215,1359.09 530.677,1359.09 533.37,1359.09 535.642,1359.09 
  538.392,1359.09 540.491,1359.09 542.365,1359.09 544.223,1359.09 545.928,1359.09 547.575,1359.09 549.23,1359.09 550.695,1359.09 552.34,1359.09 553.868,1359.09 
  555.331,1359.09 556.761,1359.09 558.214,1359.09 559.534,1359.09 560.966,1359.09 562.39,1359.09 563.788,1359.09 565.18,1359.09 567.523,1359.09 569.956,1359.09 
  571.906,1359.09 573.773,1359.09 575.722,1359.09 577.331,1359.09 578.904,1359.09 580.726,1359.09 582.298,1359.09 583.863,1359.09 585.426,1359.09 587.969,1359.09 
  590.913,1359.09 608.844,1371.73 622.796,1371.73 627.319,1371.73 631.172,1371.73 635.107,1371.73 638.872,1371.73 642.422,1371.73 645.944,1371.73 649.37,1371.73 
  652.31,1371.73 655.144,1371.73 657.996,1371.73 660.781,1371.73 663.6,1371.73 666.443,1371.73 669.176,1371.73 672.049,1371.73 674.793,1371.73 677.766,1371.73 
  681.18,1371.73 685.101,1371.73 688.761,1371.73 692.128,1371.73 695.216,1371.73 698.105,1371.73 700.903,1371.73 704.498,1371.73 720.81,1374.46 739.944,1374.46 
  754.235,1374.46 765.688,1374.46 777.411,1374.46 788.556,1374.46 798.476,1374.46 808.589,1374.46 819.944,1374.46 833.537,1374.46 846.461,1374.46 858.789,1374.46 
  872.506,1374.46 874.001,1374.46 875.35,1374.46 876.662,1374.46 877.918,1374.46 879.08,1374.46 880.226,1374.46 881.387,1374.46 883.064,1374.46 884.459,1374.46 
  886.716,1374.46 888.148,1374.46 889.476,1374.46 890.774,1374.46 892.046,1374.46 893.279,1374.46 894.482,1374.46 895.649,1374.46 896.794,1374.46 898.109,1374.46 
  899.404,1374.46 900.644,1374.46 901.876,1374.46 903.116,1374.46 904.306,1374.46 905.393,1374.46 906.513,1374.46 907.73,1374.46 908.904,1374.46 910.049,1374.46 
  911.207,1374.46 912.397,1374.46 913.602,1374.46 914.771,1374.46 915.886,1374.46 922.116,1374.46 927.937,1374.46 933.422,1374.46 940.624,1374.46 947.182,1374.46 
  954.773,1374.46 961.942,1374.46 968.169,1374.46 973.728,1374.46 981.545,1374.46 987.575,1374.46 1007.76,1374.46 1029.6,1374.46 1048.58,1374.46 1108.19,1374.46 
  1112.37,1374.46 1115.93,1374.46 1119.55,1374.46 1123.65,1374.46 1127.56,1374.46 1131.32,1374.46 1134.84,1374.46 1137.99,1374.46 1141.07,1374.46 1144.45,1374.46 
  1147.7,1374.46 1150.56,1374.46 1153.48,1374.46 1156.23,1374.46 1158.95,1374.46 1169.12,1374.46 1178.88,1374.46 1188.21,1374.46 1197.43,1374.46 1207.7,1374.46 
  1235.45,1374.46 1243.03,1374.46 1250.88,1374.46 1258.2,1374.46 1265.47,1374.46 1272.51,1374.46 1279.75,1374.46 1286.93,1374.46 1293.26,1374.46 1315.16,1374.46 
  1336.49,1374.46 1354.11,1374.46 1371.7,1374.46 1388.52,1374.46 1405.51,1374.46 1420.77,1374.46 
  "/>
<path clip-path="url(#clip570)" d="
M1818.45 425.586 L2286.57 425.586 L2286.57 166.386 L1818.45 166.386  Z
  " fill="#ffffff" fill-rule="evenodd" fill-opacity="1"/>
<polyline clip-path="url(#clip570)" style="stroke:#000000; stroke-linecap:butt; stroke-linejoin:round; stroke-width:4; stroke-opacity:1; fill:none" points="
  1818.45,425.586 2286.57,425.586 2286.57,166.386 1818.45,166.386 1818.45,425.586 
  "/>
<polyline clip-path="url(#clip570)" style="stroke:#009af9; stroke-linecap:butt; stroke-linejoin:round; stroke-width:4; stroke-opacity:1; fill:none" points="
  1840.51,218.226 1972.87,218.226 
  "/>
<path clip-path="url(#clip570)" d="M2010.12 213.562 Q2009.4 213.145 2008.54 212.96 Q2007.71 212.752 2006.69 212.752 Q2003.08 212.752 2001.13 215.113 Q1999.21 217.451 1999.21 221.849 L1999.21 235.506 L1994.93 235.506 L1994.93 209.58 L1999.21 209.58 L1999.21 213.608 Q2000.56 211.247 2002.71 210.113 Q2004.86 208.955 2007.94 208.955 Q2008.38 208.955 2008.91 209.025 Q2009.44 209.071 2010.09 209.187 L2010.12 213.562 Z" fill="#000000" fill-rule="evenodd" fill-opacity="1" /><path clip-path="url(#clip570)" d="M2026.37 222.474 Q2021.2 222.474 2019.21 223.654 Q2017.22 224.835 2017.22 227.682 Q2017.22 229.951 2018.7 231.293 Q2020.21 232.613 2022.78 232.613 Q2026.32 232.613 2028.45 230.113 Q2030.6 227.59 2030.6 223.423 L2030.6 222.474 L2026.37 222.474 M2034.86 220.715 L2034.86 235.506 L2030.6 235.506 L2030.6 231.571 Q2029.14 233.932 2026.97 235.066 Q2024.79 236.178 2021.64 236.178 Q2017.66 236.178 2015.3 233.955 Q2012.96 231.71 2012.96 227.96 Q2012.96 223.585 2015.88 221.363 Q2018.82 219.141 2024.63 219.141 L2030.6 219.141 L2030.6 218.724 Q2030.6 215.784 2028.66 214.187 Q2026.74 212.567 2023.24 212.567 Q2021.02 212.567 2018.91 213.099 Q2016.81 213.631 2014.86 214.696 L2014.86 210.761 Q2017.2 209.858 2019.4 209.418 Q2021.6 208.955 2023.68 208.955 Q2029.31 208.955 2032.08 211.872 Q2034.86 214.789 2034.86 220.715 Z" fill="#000000" fill-rule="evenodd" fill-opacity="1" /><path clip-path="url(#clip570)" d="M2065.19 219.858 L2065.19 235.506 L2060.93 235.506 L2060.93 219.997 Q2060.93 216.317 2059.49 214.488 Q2058.06 212.659 2055.19 212.659 Q2051.74 212.659 2049.75 214.858 Q2047.75 217.057 2047.75 220.854 L2047.75 235.506 L2043.47 235.506 L2043.47 209.58 L2047.75 209.58 L2047.75 213.608 Q2049.28 211.27 2051.34 210.113 Q2053.43 208.955 2056.13 208.955 Q2060.6 208.955 2062.89 211.733 Q2065.19 214.488 2065.19 219.858 Z" fill="#000000" fill-rule="evenodd" fill-opacity="1" /><path clip-path="url(#clip570)" d="M2090.74 213.516 L2090.74 199.488 L2095 199.488 L2095 235.506 L2090.74 235.506 L2090.74 231.617 Q2089.4 233.932 2087.34 235.066 Q2085.3 236.178 2082.43 236.178 Q2077.73 236.178 2074.77 232.428 Q2071.83 228.678 2071.83 222.567 Q2071.83 216.455 2074.77 212.705 Q2077.73 208.955 2082.43 208.955 Q2085.3 208.955 2087.34 210.09 Q2089.4 211.201 2090.74 213.516 M2076.23 222.567 Q2076.23 227.266 2078.15 229.951 Q2080.09 232.613 2083.47 232.613 Q2086.85 232.613 2088.8 229.951 Q2090.74 227.266 2090.74 222.567 Q2090.74 217.867 2088.8 215.205 Q2086.85 212.52 2083.47 212.52 Q2080.09 212.52 2078.15 215.205 Q2076.23 217.867 2076.23 222.567 Z" fill="#000000" fill-rule="evenodd" fill-opacity="1" /><path clip-path="url(#clip570)" d="M2113.82 212.567 Q2110.39 212.567 2108.4 215.252 Q2106.41 217.914 2106.41 222.567 Q2106.41 227.219 2108.38 229.904 Q2110.37 232.566 2113.82 232.566 Q2117.22 232.566 2119.21 229.881 Q2121.2 227.196 2121.2 222.567 Q2121.2 217.96 2119.21 215.275 Q2117.22 212.567 2113.82 212.567 M2113.82 208.955 Q2119.37 208.955 2122.55 212.567 Q2125.72 216.178 2125.72 222.567 Q2125.72 228.932 2122.55 232.566 Q2119.37 236.178 2113.82 236.178 Q2108.24 236.178 2105.07 232.566 Q2101.92 228.932 2101.92 222.567 Q2101.92 216.178 2105.07 212.567 Q2108.24 208.955 2113.82 208.955 Z" fill="#000000" fill-rule="evenodd" fill-opacity="1" /><path clip-path="url(#clip570)" d="M2152.96 214.557 Q2154.56 211.687 2156.78 210.321 Q2159 208.955 2162.01 208.955 Q2166.06 208.955 2168.26 211.803 Q2170.46 214.627 2170.46 219.858 L2170.46 235.506 L2166.18 235.506 L2166.18 219.997 Q2166.18 216.27 2164.86 214.465 Q2163.54 212.659 2160.83 212.659 Q2157.52 212.659 2155.6 214.858 Q2153.68 217.057 2153.68 220.854 L2153.68 235.506 L2149.4 235.506 L2149.4 219.997 Q2149.4 216.247 2148.08 214.465 Q2146.76 212.659 2144 212.659 Q2140.74 212.659 2138.82 214.881 Q2136.9 217.08 2136.9 220.854 L2136.9 235.506 L2132.62 235.506 L2132.62 209.58 L2136.9 209.58 L2136.9 213.608 Q2138.36 211.224 2140.39 210.09 Q2142.43 208.955 2145.23 208.955 Q2148.05 208.955 2150.02 210.391 Q2152.01 211.826 2152.96 214.557 Z" fill="#000000" fill-rule="evenodd" fill-opacity="1" /><polyline clip-path="url(#clip570)" style="stroke:#e26f46; stroke-linecap:butt; stroke-linejoin:round; stroke-width:4; stroke-opacity:1; fill:none" points="
  1840.51,270.066 1972.87,270.066 
  "/>
<path clip-path="url(#clip570)" d="M1994.93 252.786 L1999.61 252.786 L1999.61 283.411 L2016.44 283.411 L2016.44 287.346 L1994.93 287.346 L1994.93 252.786 Z" fill="#000000" fill-rule="evenodd" fill-opacity="1" /><path clip-path="url(#clip570)" d="M2021.34 252.786 L2026.02 252.786 L2026.02 266.953 L2043.01 266.953 L2043.01 252.786 L2047.69 252.786 L2047.69 287.346 L2043.01 287.346 L2043.01 270.888 L2026.02 270.888 L2026.02 287.346 L2021.34 287.346 L2021.34 252.786 Z" fill="#000000" fill-rule="evenodd" fill-opacity="1" /><polyline clip-path="url(#clip570)" style="stroke:#3da44d; stroke-linecap:butt; stroke-linejoin:round; stroke-width:4; stroke-opacity:1; fill:none" points="
  1840.51,321.906 1972.87,321.906 
  "/>
<path clip-path="url(#clip570)" d="M1999.61 322.682 L1999.61 335.344 L2007.11 335.344 Q2010.88 335.344 2012.69 333.793 Q2014.51 332.219 2014.51 329.001 Q2014.51 325.76 2012.69 324.233 Q2010.88 322.682 2007.11 322.682 L1999.61 322.682 M1999.61 308.469 L1999.61 318.885 L2006.53 318.885 Q2009.95 318.885 2011.62 317.612 Q2013.31 316.316 2013.31 313.677 Q2013.31 311.061 2011.62 309.765 Q2009.95 308.469 2006.53 308.469 L1999.61 308.469 M1994.93 304.626 L2006.88 304.626 Q2012.22 304.626 2015.12 306.848 Q2018.01 309.071 2018.01 313.168 Q2018.01 316.339 2016.53 318.214 Q2015.05 320.089 2012.18 320.552 Q2015.63 321.293 2017.52 323.654 Q2019.44 325.992 2019.44 329.51 Q2019.44 334.14 2016.3 336.663 Q2013.15 339.186 2007.34 339.186 L1994.93 339.186 L1994.93 304.626 Z" fill="#000000" fill-rule="evenodd" fill-opacity="1" /><path clip-path="url(#clip570)" d="M2040.65 307.798 Q2035.56 307.798 2032.55 311.594 Q2029.56 315.39 2029.56 321.941 Q2029.56 328.469 2032.55 332.265 Q2035.56 336.061 2040.65 336.061 Q2045.74 336.061 2048.7 332.265 Q2051.69 328.469 2051.69 321.941 Q2051.69 315.39 2048.7 311.594 Q2045.74 307.798 2040.65 307.798 M2040.65 304.001 Q2047.92 304.001 2052.27 308.886 Q2056.62 313.747 2056.62 321.941 Q2056.62 330.112 2052.27 334.996 Q2047.92 339.858 2040.65 339.858 Q2033.36 339.858 2028.98 334.996 Q2024.63 330.135 2024.63 321.941 Q2024.63 313.747 2028.98 308.886 Q2033.36 304.001 2040.65 304.001 Z" fill="#000000" fill-rule="evenodd" fill-opacity="1" /><path clip-path="url(#clip570)" d="M2063.94 304.626 L2068.61 304.626 L2068.61 318.793 L2085.6 318.793 L2085.6 304.626 L2090.28 304.626 L2090.28 339.186 L2085.6 339.186 L2085.6 322.728 L2068.61 322.728 L2068.61 339.186 L2063.94 339.186 L2063.94 304.626 Z" fill="#000000" fill-rule="evenodd" fill-opacity="1" /><path clip-path="url(#clip570)" d="M2104.26 322.682 L2104.26 335.344 L2111.76 335.344 Q2115.53 335.344 2117.34 333.793 Q2119.17 332.219 2119.17 329.001 Q2119.17 325.76 2117.34 324.233 Q2115.53 322.682 2111.76 322.682 L2104.26 322.682 M2104.26 308.469 L2104.26 318.885 L2111.18 318.885 Q2114.61 318.885 2116.27 317.612 Q2117.96 316.316 2117.96 313.677 Q2117.96 311.061 2116.27 309.765 Q2114.61 308.469 2111.18 308.469 L2104.26 308.469 M2099.58 304.626 L2111.53 304.626 Q2116.87 304.626 2119.77 306.848 Q2122.66 309.071 2122.66 313.168 Q2122.66 316.339 2121.18 318.214 Q2119.7 320.089 2116.83 320.552 Q2120.28 321.293 2122.18 323.654 Q2124.1 325.992 2124.1 329.51 Q2124.1 334.14 2120.95 336.663 Q2117.8 339.186 2111.99 339.186 L2099.58 339.186 L2099.58 304.626 Z" fill="#000000" fill-rule="evenodd" fill-opacity="1" /><polyline clip-path="url(#clip570)" style="stroke:#c271d2; stroke-linecap:butt; stroke-linejoin:round; stroke-width:4; stroke-opacity:1; fill:none" points="
  1840.51,373.746 1972.87,373.746 
  "/>
<path clip-path="url(#clip570)" d="M2016.64 375.378 L2016.64 391.026 L2012.38 391.026 L2012.38 375.517 Q2012.38 371.837 2010.95 370.008 Q2009.51 368.179 2006.64 368.179 Q2003.19 368.179 2001.2 370.378 Q1999.21 372.577 1999.21 376.374 L1999.21 391.026 L1994.93 391.026 L1994.93 355.008 L1999.21 355.008 L1999.21 369.128 Q2000.74 366.79 2002.8 365.633 Q2004.88 364.475 2007.59 364.475 Q2012.06 364.475 2014.35 367.253 Q2016.64 370.008 2016.64 375.378 Z" fill="#000000" fill-rule="evenodd" fill-opacity="1" /><path clip-path="url(#clip570)" d="M2035.93 393.434 Q2034.12 398.063 2032.41 399.475 Q2030.69 400.887 2027.82 400.887 L2024.42 400.887 L2024.42 397.323 L2026.92 397.323 Q2028.68 397.323 2029.65 396.489 Q2030.63 395.656 2031.81 392.554 L2032.57 390.61 L2022.08 365.1 L2026.6 365.1 L2034.7 385.378 L2042.8 365.1 L2047.31 365.1 L2035.93 393.434 Z" fill="#000000" fill-rule="evenodd" fill-opacity="1" /><path clip-path="url(#clip570)" d="M2057.31 387.137 L2057.31 400.887 L2053.03 400.887 L2053.03 365.1 L2057.31 365.1 L2057.31 369.036 Q2058.66 366.721 2060.69 365.61 Q2062.75 364.475 2065.6 364.475 Q2070.32 364.475 2073.26 368.225 Q2076.23 371.975 2076.23 378.087 Q2076.23 384.198 2073.26 387.948 Q2070.32 391.698 2065.6 391.698 Q2062.75 391.698 2060.69 390.586 Q2058.66 389.452 2057.31 387.137 M2071.81 378.087 Q2071.81 373.387 2069.86 370.725 Q2067.94 368.04 2064.56 368.04 Q2061.18 368.04 2059.24 370.725 Q2057.31 373.387 2057.31 378.087 Q2057.31 382.786 2059.24 385.471 Q2061.18 388.133 2064.56 388.133 Q2067.94 388.133 2069.86 385.471 Q2071.81 382.786 2071.81 378.087 Z" fill="#000000" fill-rule="evenodd" fill-opacity="1" /><path clip-path="url(#clip570)" d="M2105.46 376.999 L2105.46 379.082 L2085.88 379.082 Q2086.16 383.48 2088.52 385.795 Q2090.9 388.086 2095.14 388.086 Q2097.59 388.086 2099.88 387.485 Q2102.2 386.883 2104.47 385.679 L2104.47 389.707 Q2102.18 390.679 2099.77 391.188 Q2097.36 391.698 2094.88 391.698 Q2088.68 391.698 2085.05 388.086 Q2081.43 384.475 2081.43 378.318 Q2081.43 371.952 2084.86 368.225 Q2088.31 364.475 2094.14 364.475 Q2099.37 364.475 2102.41 367.855 Q2105.46 371.212 2105.46 376.999 M2101.2 375.749 Q2101.16 372.253 2099.24 370.17 Q2097.34 368.087 2094.19 368.087 Q2090.62 368.087 2088.47 370.1 Q2086.34 372.114 2086.02 375.772 L2101.2 375.749 Z" fill="#000000" fill-rule="evenodd" fill-opacity="1" /><path clip-path="url(#clip570)" d="M2127.48 369.082 Q2126.76 368.665 2125.9 368.48 Q2125.07 368.272 2124.05 368.272 Q2120.44 368.272 2118.49 370.633 Q2116.57 372.971 2116.57 377.369 L2116.57 391.026 L2112.29 391.026 L2112.29 365.1 L2116.57 365.1 L2116.57 369.128 Q2117.92 366.767 2120.07 365.633 Q2122.22 364.475 2125.3 364.475 Q2125.74 364.475 2126.27 364.545 Q2126.81 364.591 2127.45 364.707 L2127.48 369.082 Z" fill="#000000" fill-rule="evenodd" fill-opacity="1" /><path clip-path="url(#clip570)" d="M2150.55 378.087 Q2150.55 373.387 2148.61 370.725 Q2146.69 368.04 2143.31 368.04 Q2139.93 368.04 2137.99 370.725 Q2136.06 373.387 2136.06 378.087 Q2136.06 382.786 2137.99 385.471 Q2139.93 388.133 2143.31 388.133 Q2146.69 388.133 2148.61 385.471 Q2150.55 382.786 2150.55 378.087 M2136.06 369.036 Q2137.41 366.721 2139.44 365.61 Q2141.5 364.475 2144.35 364.475 Q2149.07 364.475 2152.01 368.225 Q2154.98 371.975 2154.98 378.087 Q2154.98 384.198 2152.01 387.948 Q2149.07 391.698 2144.35 391.698 Q2141.5 391.698 2139.44 390.586 Q2137.41 389.452 2136.06 387.137 L2136.06 391.026 L2131.78 391.026 L2131.78 355.008 L2136.06 355.008 L2136.06 369.036 Z" fill="#000000" fill-rule="evenodd" fill-opacity="1" /><path clip-path="url(#clip570)" d="M2173.82 377.994 Q2168.66 377.994 2166.67 379.174 Q2164.68 380.355 2164.68 383.202 Q2164.68 385.471 2166.16 386.813 Q2167.66 388.133 2170.23 388.133 Q2173.77 388.133 2175.9 385.633 Q2178.05 383.11 2178.05 378.943 L2178.05 377.994 L2173.82 377.994 M2182.31 376.235 L2182.31 391.026 L2178.05 391.026 L2178.05 387.091 Q2176.6 389.452 2174.42 390.586 Q2172.24 391.698 2169.1 391.698 Q2165.12 391.698 2162.75 389.475 Q2160.42 387.23 2160.42 383.48 Q2160.42 379.105 2163.33 376.883 Q2166.27 374.661 2172.08 374.661 L2178.05 374.661 L2178.05 374.244 Q2178.05 371.304 2176.11 369.707 Q2174.19 368.087 2170.69 368.087 Q2168.47 368.087 2166.37 368.619 Q2164.26 369.151 2162.31 370.216 L2162.31 366.281 Q2164.65 365.378 2166.85 364.938 Q2169.05 364.475 2171.13 364.475 Q2176.76 364.475 2179.54 367.392 Q2182.31 370.309 2182.31 376.235 Z" fill="#000000" fill-rule="evenodd" fill-opacity="1" /><path clip-path="url(#clip570)" d="M2212.64 375.378 L2212.64 391.026 L2208.38 391.026 L2208.38 375.517 Q2208.38 371.837 2206.94 370.008 Q2205.51 368.179 2202.64 368.179 Q2199.19 368.179 2197.2 370.378 Q2195.21 372.577 2195.21 376.374 L2195.21 391.026 L2190.93 391.026 L2190.93 365.1 L2195.21 365.1 L2195.21 369.128 Q2196.74 366.79 2198.8 365.633 Q2200.88 364.475 2203.59 364.475 Q2208.05 364.475 2210.35 367.253 Q2212.64 370.008 2212.64 375.378 Z" fill="#000000" fill-rule="evenodd" fill-opacity="1" /><path clip-path="url(#clip570)" d="M2238.19 369.036 L2238.19 355.008 L2242.45 355.008 L2242.45 391.026 L2238.19 391.026 L2238.19 387.137 Q2236.85 389.452 2234.79 390.586 Q2232.75 391.698 2229.88 391.698 Q2225.18 391.698 2222.22 387.948 Q2219.28 384.198 2219.28 378.087 Q2219.28 371.975 2222.22 368.225 Q2225.18 364.475 2229.88 364.475 Q2232.75 364.475 2234.79 365.61 Q2236.85 366.721 2238.19 369.036 M2223.68 378.087 Q2223.68 382.786 2225.6 385.471 Q2227.55 388.133 2230.92 388.133 Q2234.3 388.133 2236.25 385.471 Q2238.19 382.786 2238.19 378.087 Q2238.19 373.387 2236.25 370.725 Q2234.3 368.04 2230.92 368.04 Q2227.55 368.04 2225.6 370.725 Q2223.68 373.387 2223.68 378.087 Z" fill="#000000" fill-rule="evenodd" fill-opacity="1" /></svg>
