<?xml version="1.0" encoding="utf-8"?>
<svg xmlns="http://www.w3.org/2000/svg" xmlns:xlink="http://www.w3.org/1999/xlink" width="600" height="400" viewBox="0 0 2400 1600">
<defs>
  <clipPath id="clip600">
    <rect x="0" y="0" width="2400" height="1600"/>
  </clipPath>
</defs>
<path clip-path="url(#clip600)" d="
M0 1600 L2400 1600 L2400 0 L0 0  Z
  " fill="#ffffff" fill-rule="evenodd" fill-opacity="1"/>
<defs>
  <clipPath id="clip601">
    <rect x="480" y="0" width="1681" height="1600"/>
  </clipPath>
</defs>
<path clip-path="url(#clip600)" d="
M391.464 1410.9 L2352.76 1410.9 L2352.76 123.472 L391.464 123.472  Z
  " fill="#ffffff" fill-rule="evenodd" fill-opacity="1"/>
<defs>
  <clipPath id="clip602">
    <rect x="391" y="123" width="1962" height="1288"/>
  </clipPath>
</defs>
<polyline clip-path="url(#clip602)" style="stroke:#000000; stroke-linecap:butt; stroke-linejoin:round; stroke-width:2; stroke-opacity:0.1; fill:none" points="
  1239.35,1410.9 1239.35,123.472 
  "/>
<polyline clip-path="url(#clip602)" style="stroke:#000000; stroke-linecap:butt; stroke-linejoin:round; stroke-width:2; stroke-opacity:0.1; fill:none" points="
  2108.1,1410.9 2108.1,123.472 
  "/>
<polyline clip-path="url(#clip600)" style="stroke:#000000; stroke-linecap:butt; stroke-linejoin:round; stroke-width:4; stroke-opacity:1; fill:none" points="
  391.464,1410.9 2352.76,1410.9 
  "/>
<polyline clip-path="url(#clip600)" style="stroke:#000000; stroke-linecap:butt; stroke-linejoin:round; stroke-width:4; stroke-opacity:1; fill:none" points="
  1239.35,1410.9 1239.35,1395.45 
  "/>
<polyline clip-path="url(#clip600)" style="stroke:#000000; stroke-linecap:butt; stroke-linejoin:round; stroke-width:4; stroke-opacity:1; fill:none" points="
  2108.1,1410.9 2108.1,1395.45 
  "/>
<path clip-path="url(#clip600)" d="M1204.33 1489.17 L1211.97 1489.17 L1211.97 1462.8 L1203.66 1464.47 L1203.66 1460.21 L1211.92 1458.54 L1216.6 1458.54 L1216.6 1489.17 L1224.24 1489.17 L1224.24 1493.1 L1204.33 1493.1 L1204.33 1489.17 Z" fill="#000000" fill-rule="evenodd" fill-opacity="1" /><path clip-path="url(#clip600)" d="M1243.68 1461.62 Q1240.07 1461.62 1238.24 1465.19 Q1236.44 1468.73 1236.44 1475.86 Q1236.44 1482.97 1238.24 1486.53 Q1240.07 1490.07 1243.68 1490.07 Q1247.32 1490.07 1249.12 1486.53 Q1250.95 1482.97 1250.95 1475.86 Q1250.95 1468.73 1249.12 1465.19 Q1247.32 1461.62 1243.68 1461.62 M1243.68 1457.92 Q1249.49 1457.92 1252.55 1462.53 Q1255.63 1467.11 1255.63 1475.86 Q1255.63 1484.59 1252.55 1489.19 Q1249.49 1493.78 1243.68 1493.78 Q1237.87 1493.78 1234.79 1489.19 Q1231.74 1484.59 1231.74 1475.86 Q1231.74 1467.11 1234.79 1462.53 Q1237.87 1457.92 1243.68 1457.92 Z" fill="#000000" fill-rule="evenodd" fill-opacity="1" /><path clip-path="url(#clip600)" d="M1265.33 1440.11 Q1262.4 1440.11 1260.91 1443.01 Q1259.45 1445.89 1259.45 1451.68 Q1259.45 1457.46 1260.91 1460.35 Q1262.4 1463.23 1265.33 1463.23 Q1268.29 1463.23 1269.75 1460.35 Q1271.24 1457.46 1271.24 1451.68 Q1271.24 1445.89 1269.75 1443.01 Q1268.29 1440.11 1265.33 1440.11 M1265.33 1437.11 Q1270.05 1437.11 1272.54 1440.85 Q1275.04 1444.57 1275.04 1451.68 Q1275.04 1458.77 1272.54 1462.51 Q1270.05 1466.24 1265.33 1466.24 Q1260.61 1466.24 1258.11 1462.51 Q1255.63 1458.77 1255.63 1451.68 Q1255.63 1444.57 1258.11 1440.85 Q1260.61 1437.11 1265.33 1437.11 Z" fill="#000000" fill-rule="evenodd" fill-opacity="1" /><path clip-path="url(#clip600)" d="M2073.87 1489.17 L2081.51 1489.17 L2081.51 1462.8 L2073.2 1464.47 L2073.2 1460.21 L2081.47 1458.54 L2086.14 1458.54 L2086.14 1489.17 L2093.78 1489.17 L2093.78 1493.1 L2073.87 1493.1 L2073.87 1489.17 Z" fill="#000000" fill-rule="evenodd" fill-opacity="1" /><path clip-path="url(#clip600)" d="M2113.22 1461.62 Q2109.61 1461.62 2107.79 1465.19 Q2105.98 1468.73 2105.98 1475.86 Q2105.98 1482.97 2107.79 1486.53 Q2109.61 1490.07 2113.22 1490.07 Q2116.86 1490.07 2118.66 1486.53 Q2120.49 1482.97 2120.49 1475.86 Q2120.49 1468.73 2118.66 1465.19 Q2116.86 1461.62 2113.22 1461.62 M2113.22 1457.92 Q2119.03 1457.92 2122.09 1462.53 Q2125.17 1467.11 2125.17 1475.86 Q2125.17 1484.59 2122.09 1489.19 Q2119.03 1493.78 2113.22 1493.78 Q2107.41 1493.78 2104.34 1489.19 Q2101.28 1484.59 2101.28 1475.86 Q2101.28 1467.11 2104.34 1462.53 Q2107.41 1457.92 2113.22 1457.92 Z" fill="#000000" fill-rule="evenodd" fill-opacity="1" /><path clip-path="url(#clip600)" d="M2129.74 1462.5 L2143 1462.5 L2143 1465.69 L2125.17 1465.69 L2125.17 1462.5 Q2127.33 1460.26 2131.06 1456.5 Q2134.8 1452.72 2135.76 1451.63 Q2137.58 1449.58 2138.3 1448.16 Q2139.03 1446.74 2139.03 1445.36 Q2139.03 1443.12 2137.45 1441.71 Q2135.89 1440.3 2133.37 1440.3 Q2131.58 1440.3 2129.59 1440.92 Q2127.61 1441.54 2125.36 1442.8 L2125.36 1438.97 Q2127.65 1438.05 2129.65 1437.58 Q2131.64 1437.11 2133.29 1437.11 Q2137.66 1437.11 2140.25 1439.29 Q2142.85 1441.47 2142.85 1445.12 Q2142.85 1446.85 2142.19 1448.41 Q2141.55 1449.95 2139.84 1452.06 Q2139.37 1452.6 2136.85 1455.22 Q2134.33 1457.81 2129.74 1462.5 Z" fill="#000000" fill-rule="evenodd" fill-opacity="1" /><path clip-path="url(#clip600)" d="M1174.65 1528.42 L1174.65 1538.54 L1186.71 1538.54 L1186.71 1543.09 L1174.65 1543.09 L1174.65 1562.44 Q1174.65 1566.8 1175.82 1568.04 Q1177.03 1569.28 1180.69 1569.28 L1186.71 1569.28 L1186.71 1574.19 L1180.69 1574.19 Q1173.91 1574.19 1171.34 1571.67 Q1168.76 1569.12 1168.76 1562.44 L1168.76 1543.09 L1164.46 1543.09 L1164.46 1538.54 L1168.76 1538.54 L1168.76 1528.42 L1174.65 1528.42 Z" fill="#000000" fill-rule="evenodd" fill-opacity="1" /><path clip-path="url(#clip600)" d="M1194.41 1538.54 L1200.27 1538.54 L1200.27 1574.19 L1194.41 1574.19 L1194.41 1538.54 M1194.41 1524.66 L1200.27 1524.66 L1200.27 1532.08 L1194.41 1532.08 L1194.41 1524.66 Z" fill="#000000" fill-rule="evenodd" fill-opacity="1" /><path clip-path="url(#clip600)" d="M1240.28 1545.38 Q1242.47 1541.43 1245.53 1539.56 Q1248.58 1537.68 1252.72 1537.68 Q1258.29 1537.68 1261.31 1541.59 Q1264.34 1545.48 1264.34 1552.67 L1264.34 1574.19 L1258.45 1574.19 L1258.45 1552.86 Q1258.45 1547.74 1256.64 1545.25 Q1254.82 1542.77 1251.1 1542.77 Q1246.55 1542.77 1243.9 1545.79 Q1241.26 1548.82 1241.26 1554.04 L1241.26 1574.19 L1235.37 1574.19 L1235.37 1552.86 Q1235.37 1547.7 1233.56 1545.25 Q1231.75 1542.77 1227.96 1542.77 Q1223.47 1542.77 1220.83 1545.83 Q1218.19 1548.85 1218.19 1554.04 L1218.19 1574.19 L1212.3 1574.19 L1212.3 1538.54 L1218.19 1538.54 L1218.19 1544.08 Q1220.19 1540.8 1222.99 1539.24 Q1225.79 1537.68 1229.65 1537.68 Q1233.53 1537.68 1236.23 1539.65 Q1238.97 1541.62 1240.28 1545.38 Z" fill="#000000" fill-rule="evenodd" fill-opacity="1" /><path clip-path="url(#clip600)" d="M1306.51 1554.9 L1306.51 1557.76 L1279.58 1557.76 Q1279.97 1563.81 1283.21 1566.99 Q1286.49 1570.14 1292.32 1570.14 Q1295.69 1570.14 1298.84 1569.32 Q1302.02 1568.49 1305.14 1566.83 L1305.14 1572.37 Q1301.99 1573.71 1298.68 1574.41 Q1295.37 1575.11 1291.97 1575.11 Q1283.44 1575.11 1278.44 1570.14 Q1273.47 1565.18 1273.47 1556.71 Q1273.47 1547.96 1278.18 1542.83 Q1282.93 1537.68 1290.95 1537.68 Q1298.14 1537.68 1302.31 1542.33 Q1306.51 1546.94 1306.51 1554.9 M1300.65 1553.18 Q1300.59 1548.37 1297.95 1545.51 Q1295.34 1542.64 1291.01 1542.64 Q1286.11 1542.64 1283.15 1545.41 Q1280.22 1548.18 1279.78 1553.21 L1300.65 1553.18 Z" fill="#000000" fill-rule="evenodd" fill-opacity="1" /><path clip-path="url(#clip600)" d="M1367.34 1554.9 L1367.34 1557.76 L1340.41 1557.76 Q1340.79 1563.81 1344.04 1566.99 Q1347.32 1570.14 1353.14 1570.14 Q1356.51 1570.14 1359.67 1569.32 Q1362.85 1568.49 1365.97 1566.83 L1365.97 1572.37 Q1362.82 1573.71 1359.51 1574.41 Q1356.2 1575.11 1352.79 1575.11 Q1344.26 1575.11 1339.26 1570.14 Q1334.3 1565.18 1334.3 1556.71 Q1334.3 1547.96 1339.01 1542.83 Q1343.75 1537.68 1351.77 1537.68 Q1358.96 1537.68 1363.13 1542.33 Q1367.34 1546.94 1367.34 1554.9 M1361.48 1553.18 Q1361.42 1548.37 1358.77 1545.51 Q1356.16 1542.64 1351.84 1542.64 Q1346.93 1542.64 1343.97 1545.41 Q1341.05 1548.18 1340.6 1553.21 L1361.48 1553.18 Z" fill="#000000" fill-rule="evenodd" fill-opacity="1" /><path clip-path="url(#clip600)" d="M1376.95 1524.66 L1382.8 1524.66 L1382.8 1574.19 L1376.95 1574.19 L1376.95 1524.66 Z" fill="#000000" fill-rule="evenodd" fill-opacity="1" /><path clip-path="url(#clip600)" d="M1411.26 1556.27 Q1404.16 1556.27 1401.42 1557.89 Q1398.69 1559.51 1398.69 1563.43 Q1398.69 1566.55 1400.72 1568.39 Q1402.79 1570.21 1406.33 1570.21 Q1411.2 1570.21 1414.12 1566.77 Q1417.08 1563.3 1417.08 1557.57 L1417.08 1556.27 L1411.26 1556.27 M1422.94 1553.85 L1422.94 1574.19 L1417.08 1574.19 L1417.08 1568.77 Q1415.08 1572.02 1412.09 1573.58 Q1409.09 1575.11 1404.77 1575.11 Q1399.29 1575.11 1396.05 1572.05 Q1392.83 1568.97 1392.83 1563.81 Q1392.83 1557.79 1396.84 1554.74 Q1400.88 1551.68 1408.87 1551.68 L1417.08 1551.68 L1417.08 1551.11 Q1417.08 1547.07 1414.41 1544.87 Q1411.77 1542.64 1406.96 1542.64 Q1403.91 1542.64 1401.01 1543.38 Q1398.11 1544.11 1395.44 1545.57 L1395.44 1540.16 Q1398.65 1538.92 1401.68 1538.31 Q1404.7 1537.68 1407.57 1537.68 Q1415.3 1537.68 1419.12 1541.69 Q1422.94 1545.7 1422.94 1553.85 Z" fill="#000000" fill-rule="evenodd" fill-opacity="1" /><path clip-path="url(#clip600)" d="M1440.67 1568.84 L1440.67 1587.74 L1434.78 1587.74 L1434.78 1538.54 L1440.67 1538.54 L1440.67 1543.95 Q1442.51 1540.77 1445.32 1539.24 Q1448.15 1537.68 1452.06 1537.68 Q1458.56 1537.68 1462.6 1542.83 Q1466.67 1547.99 1466.67 1556.39 Q1466.67 1564.8 1462.6 1569.95 Q1458.56 1575.11 1452.06 1575.11 Q1448.15 1575.11 1445.32 1573.58 Q1442.51 1572.02 1440.67 1568.84 M1460.59 1556.39 Q1460.59 1549.93 1457.92 1546.27 Q1455.28 1542.58 1450.63 1542.58 Q1445.98 1542.58 1443.31 1546.27 Q1440.67 1549.93 1440.67 1556.39 Q1440.67 1562.85 1443.31 1566.55 Q1445.98 1570.21 1450.63 1570.21 Q1455.28 1570.21 1457.92 1566.55 Q1460.59 1562.85 1460.59 1556.39 Z" fill="#000000" fill-rule="evenodd" fill-opacity="1" /><path clip-path="url(#clip600)" d="M1499.11 1539.59 L1499.11 1545.13 Q1496.62 1543.85 1493.95 1543.22 Q1491.28 1542.58 1488.41 1542.58 Q1484.05 1542.58 1481.85 1543.92 Q1479.69 1545.25 1479.69 1547.93 Q1479.69 1549.96 1481.25 1551.14 Q1482.81 1552.29 1487.52 1553.34 L1489.53 1553.78 Q1495.76 1555.12 1498.37 1557.57 Q1501.02 1559.99 1501.02 1564.35 Q1501.02 1569.32 1497.07 1572.21 Q1493.15 1575.11 1486.28 1575.11 Q1483.41 1575.11 1480.3 1574.54 Q1477.21 1573.99 1473.77 1572.88 L1473.77 1566.83 Q1477.02 1568.52 1480.17 1569.38 Q1483.32 1570.21 1486.41 1570.21 Q1490.54 1570.21 1492.77 1568.81 Q1495 1567.37 1495 1564.8 Q1495 1562.41 1493.38 1561.14 Q1491.79 1559.86 1486.34 1558.68 L1484.31 1558.21 Q1478.86 1557.06 1476.44 1554.71 Q1474.02 1552.32 1474.02 1548.18 Q1474.02 1543.15 1477.59 1540.42 Q1481.15 1537.68 1487.71 1537.68 Q1490.96 1537.68 1493.82 1538.16 Q1496.69 1538.63 1499.11 1539.59 Z" fill="#000000" fill-rule="evenodd" fill-opacity="1" /><path clip-path="url(#clip600)" d="M1540.83 1554.9 L1540.83 1557.76 L1513.91 1557.76 Q1514.29 1563.81 1517.53 1566.99 Q1520.81 1570.14 1526.64 1570.14 Q1530.01 1570.14 1533.16 1569.32 Q1536.35 1568.49 1539.46 1566.83 L1539.46 1572.37 Q1536.31 1573.71 1533 1574.41 Q1529.69 1575.11 1526.29 1575.11 Q1517.76 1575.11 1512.76 1570.14 Q1507.79 1565.18 1507.79 1556.71 Q1507.79 1547.96 1512.51 1542.83 Q1517.25 1537.68 1525.27 1537.68 Q1532.46 1537.68 1536.63 1542.33 Q1540.83 1546.94 1540.83 1554.9 M1534.98 1553.18 Q1534.91 1548.37 1532.27 1545.51 Q1529.66 1542.64 1525.33 1542.64 Q1520.43 1542.64 1517.47 1545.41 Q1514.54 1548.18 1514.1 1553.21 L1534.98 1553.18 Z" fill="#000000" fill-rule="evenodd" fill-opacity="1" /><path clip-path="url(#clip600)" d="M1573.9 1543.95 L1573.9 1524.66 L1579.76 1524.66 L1579.76 1574.19 L1573.9 1574.19 L1573.9 1568.84 Q1572.06 1572.02 1569.22 1573.58 Q1566.42 1575.11 1562.48 1575.11 Q1556.02 1575.11 1551.94 1569.95 Q1547.9 1564.8 1547.9 1556.39 Q1547.9 1547.99 1551.94 1542.83 Q1556.02 1537.68 1562.48 1537.68 Q1566.42 1537.68 1569.22 1539.24 Q1572.06 1540.77 1573.9 1543.95 M1553.95 1556.39 Q1553.95 1562.85 1556.59 1566.55 Q1559.26 1570.21 1563.91 1570.21 Q1568.56 1570.21 1571.23 1566.55 Q1573.9 1562.85 1573.9 1556.39 Q1573.9 1549.93 1571.23 1546.27 Q1568.56 1542.58 1563.91 1542.58 Q1559.26 1542.58 1556.59 1546.27 Q1553.95 1549.93 1553.95 1556.39 Z" fill="#000000" fill-rule="evenodd" fill-opacity="1" /><polyline clip-path="url(#clip602)" style="stroke:#000000; stroke-linecap:butt; stroke-linejoin:round; stroke-width:2; stroke-opacity:0.1; fill:none" points="
  391.464,1374.46 2352.76,1374.46 
  "/>
<polyline clip-path="url(#clip602)" style="stroke:#000000; stroke-linecap:butt; stroke-linejoin:round; stroke-width:2; stroke-opacity:0.1; fill:none" points="
  391.464,1155.42 2352.76,1155.42 
  "/>
<polyline clip-path="url(#clip602)" style="stroke:#000000; stroke-linecap:butt; stroke-linejoin:round; stroke-width:2; stroke-opacity:0.1; fill:none" points="
  391.464,936.381 2352.76,936.381 
  "/>
<polyline clip-path="url(#clip602)" style="stroke:#000000; stroke-linecap:butt; stroke-linejoin:round; stroke-width:2; stroke-opacity:0.1; fill:none" points="
  391.464,717.341 2352.76,717.341 
  "/>
<polyline clip-path="url(#clip602)" style="stroke:#000000; stroke-linecap:butt; stroke-linejoin:round; stroke-width:2; stroke-opacity:0.1; fill:none" points="
  391.464,498.302 2352.76,498.302 
  "/>
<polyline clip-path="url(#clip602)" style="stroke:#000000; stroke-linecap:butt; stroke-linejoin:round; stroke-width:2; stroke-opacity:0.1; fill:none" points="
  391.464,279.262 2352.76,279.262 
  "/>
<polyline clip-path="url(#clip600)" style="stroke:#000000; stroke-linecap:butt; stroke-linejoin:round; stroke-width:4; stroke-opacity:1; fill:none" points="
  391.464,1410.9 391.464,123.472 
  "/>
<polyline clip-path="url(#clip600)" style="stroke:#000000; stroke-linecap:butt; stroke-linejoin:round; stroke-width:4; stroke-opacity:1; fill:none" points="
  391.464,1374.46 415,1374.46 
  "/>
<polyline clip-path="url(#clip600)" style="stroke:#000000; stroke-linecap:butt; stroke-linejoin:round; stroke-width:4; stroke-opacity:1; fill:none" points="
  391.464,1155.42 415,1155.42 
  "/>
<polyline clip-path="url(#clip600)" style="stroke:#000000; stroke-linecap:butt; stroke-linejoin:round; stroke-width:4; stroke-opacity:1; fill:none" points="
  391.464,936.381 415,936.381 
  "/>
<polyline clip-path="url(#clip600)" style="stroke:#000000; stroke-linecap:butt; stroke-linejoin:round; stroke-width:4; stroke-opacity:1; fill:none" points="
  391.464,717.341 415,717.341 
  "/>
<polyline clip-path="url(#clip600)" style="stroke:#000000; stroke-linecap:butt; stroke-linejoin:round; stroke-width:4; stroke-opacity:1; fill:none" points="
  391.464,498.302 415,498.302 
  "/>
<polyline clip-path="url(#clip600)" style="stroke:#000000; stroke-linecap:butt; stroke-linejoin:round; stroke-width:4; stroke-opacity:1; fill:none" points="
  391.464,279.262 415,279.262 
  "/>
<path clip-path="url(#clip600)" d="M343.52 1360.26 Q339.909 1360.26 338.08 1363.82 Q336.274 1367.37 336.274 1374.49 Q336.274 1381.6 338.08 1385.17 Q339.909 1388.71 343.52 1388.71 Q347.154 1388.71 348.959 1385.17 Q350.788 1381.6 350.788 1374.49 Q350.788 1367.37 348.959 1363.82 Q347.154 1360.26 343.52 1360.26 M343.52 1356.56 Q349.33 1356.56 352.385 1361.16 Q355.464 1365.74 355.464 1374.49 Q355.464 1383.22 352.385 1387.83 Q349.33 1392.41 343.52 1392.41 Q337.709 1392.41 334.631 1387.83 Q331.575 1383.22 331.575 1374.49 Q331.575 1365.74 334.631 1361.16 Q337.709 1356.56 343.52 1356.56 Z" fill="#000000" fill-rule="evenodd" fill-opacity="1" /><path clip-path="url(#clip600)" d="M138.755 1144.59 L157.111 1144.59 L157.111 1148.52 L143.037 1148.52 L143.037 1157 Q144.056 1156.65 145.075 1156.49 Q146.093 1156.3 147.112 1156.3 Q152.899 1156.3 156.278 1159.47 Q159.658 1162.64 159.658 1168.06 Q159.658 1173.64 156.186 1176.74 Q152.713 1179.82 146.394 1179.82 Q144.218 1179.82 141.95 1179.45 Q139.704 1179.08 137.297 1178.34 L137.297 1173.64 Q139.38 1174.77 141.602 1175.33 Q143.825 1175.88 146.301 1175.88 Q150.306 1175.88 152.644 1173.78 Q154.982 1171.67 154.982 1168.06 Q154.982 1164.45 152.644 1162.34 Q150.306 1160.24 146.301 1160.24 Q144.426 1160.24 142.551 1160.65 Q140.7 1161.07 138.755 1161.95 L138.755 1144.59 Z" fill="#000000" fill-rule="evenodd" fill-opacity="1" /><path clip-path="url(#clip600)" d="M168.871 1173.27 L173.755 1173.27 L173.755 1179.15 L168.871 1179.15 L168.871 1173.27 Z" fill="#000000" fill-rule="evenodd" fill-opacity="1" /><path clip-path="url(#clip600)" d="M193.94 1147.67 Q190.329 1147.67 188.5 1151.23 Q186.695 1154.77 186.695 1161.9 Q186.695 1169.01 188.5 1172.57 Q190.329 1176.12 193.94 1176.12 Q197.574 1176.12 199.38 1172.57 Q201.208 1169.01 201.208 1161.9 Q201.208 1154.77 199.38 1151.23 Q197.574 1147.67 193.94 1147.67 M193.94 1143.96 Q199.75 1143.96 202.806 1148.57 Q205.884 1153.15 205.884 1161.9 Q205.884 1170.63 202.806 1175.24 Q199.75 1179.82 193.94 1179.82 Q188.13 1179.82 185.051 1175.24 Q181.996 1170.63 181.996 1161.9 Q181.996 1153.15 185.051 1148.57 Q188.13 1143.96 193.94 1143.96 Z" fill="#000000" fill-rule="evenodd" fill-opacity="1" /><path clip-path="url(#clip600)" d="M224.102 1147.67 Q220.491 1147.67 218.662 1151.23 Q216.857 1154.77 216.857 1161.9 Q216.857 1169.01 218.662 1172.57 Q220.491 1176.12 224.102 1176.12 Q227.736 1176.12 229.542 1172.57 Q231.37 1169.01 231.37 1161.9 Q231.37 1154.77 229.542 1151.23 Q227.736 1147.67 224.102 1147.67 M224.102 1143.96 Q229.912 1143.96 232.968 1148.57 Q236.046 1153.15 236.046 1161.9 Q236.046 1170.63 232.968 1175.24 Q229.912 1179.82 224.102 1179.82 Q218.292 1179.82 215.213 1175.24 Q212.157 1170.63 212.157 1161.9 Q212.157 1153.15 215.213 1148.57 Q218.292 1143.96 224.102 1143.96 Z" fill="#000000" fill-rule="evenodd" fill-opacity="1" /><path clip-path="url(#clip600)" d="M272.435 1153.69 L261.856 1164.31 L272.435 1174.89 L269.68 1177.69 L259.055 1167.06 L248.43 1177.69 L245.699 1174.89 L256.254 1164.31 L245.699 1153.69 L248.43 1150.88 L259.055 1161.51 L269.68 1150.88 L272.435 1153.69 Z" fill="#000000" fill-rule="evenodd" fill-opacity="1" /><path clip-path="url(#clip600)" d="M284.796 1175.21 L292.435 1175.21 L292.435 1148.85 L284.125 1150.51 L284.125 1146.25 L292.389 1144.59 L297.064 1144.59 L297.064 1175.21 L304.703 1175.21 L304.703 1179.15 L284.796 1179.15 L284.796 1175.21 Z" fill="#000000" fill-rule="evenodd" fill-opacity="1" /><path clip-path="url(#clip600)" d="M324.148 1147.67 Q320.537 1147.67 318.708 1151.23 Q316.902 1154.77 316.902 1161.9 Q316.902 1169.01 318.708 1172.57 Q320.537 1176.12 324.148 1176.12 Q327.782 1176.12 329.587 1172.57 Q331.416 1169.01 331.416 1161.9 Q331.416 1154.77 329.587 1151.23 Q327.782 1147.67 324.148 1147.67 M324.148 1143.96 Q329.958 1143.96 333.013 1148.57 Q336.092 1153.15 336.092 1161.9 Q336.092 1170.63 333.013 1175.24 Q329.958 1179.82 324.148 1179.82 Q318.337 1179.82 315.259 1175.24 Q312.203 1170.63 312.203 1161.9 Q312.203 1153.15 315.259 1148.57 Q318.337 1143.96 324.148 1143.96 Z" fill="#000000" fill-rule="evenodd" fill-opacity="1" /><path clip-path="url(#clip600)" d="M337.898 1151.15 L337.898 1147.69 Q339.327 1148.37 340.794 1148.73 Q342.261 1149.09 343.672 1149.09 Q347.433 1149.09 349.408 1146.57 Q351.402 1144.03 351.684 1138.87 Q350.593 1140.49 348.919 1141.36 Q347.245 1142.22 345.214 1142.22 Q341.001 1142.22 338.537 1139.68 Q336.092 1137.12 336.092 1132.7 Q336.092 1128.38 338.65 1125.76 Q341.208 1123.15 345.458 1123.15 Q350.329 1123.15 352.887 1126.89 Q355.464 1130.62 355.464 1137.73 Q355.464 1144.37 352.304 1148.33 Q349.163 1152.28 343.841 1152.28 Q342.411 1152.28 340.944 1152 Q339.477 1151.72 337.898 1151.15 M345.458 1139.25 Q348.016 1139.25 349.502 1137.5 Q351.007 1135.75 351.007 1132.7 Q351.007 1129.68 349.502 1127.93 Q348.016 1126.16 345.458 1126.16 Q342.9 1126.16 341.396 1127.93 Q339.91 1129.68 339.91 1132.7 Q339.91 1135.75 341.396 1137.5 Q342.9 1139.25 345.458 1139.25 Z" fill="#000000" fill-rule="evenodd" fill-opacity="1" /><path clip-path="url(#clip600)" d="M116.668 956.173 L124.306 956.173 L124.306 929.808 L115.996 931.474 L115.996 927.215 L124.26 925.549 L128.936 925.549 L128.936 956.173 L136.575 956.173 L136.575 960.109 L116.668 960.109 L116.668 956.173 Z" fill="#000000" fill-rule="evenodd" fill-opacity="1" /><path clip-path="url(#clip600)" d="M146.019 954.229 L150.903 954.229 L150.903 960.109 L146.019 960.109 L146.019 954.229 Z" fill="#000000" fill-rule="evenodd" fill-opacity="1" /><path clip-path="url(#clip600)" d="M171.089 928.627 Q167.477 928.627 165.649 932.192 Q163.843 935.734 163.843 942.863 Q163.843 949.97 165.649 953.534 Q167.477 957.076 171.089 957.076 Q174.723 957.076 176.528 953.534 Q178.357 949.97 178.357 942.863 Q178.357 935.734 176.528 932.192 Q174.723 928.627 171.089 928.627 M171.089 924.924 Q176.899 924.924 179.954 929.53 Q183.033 934.113 183.033 942.863 Q183.033 951.59 179.954 956.197 Q176.899 960.78 171.089 960.78 Q165.278 960.78 162.2 956.197 Q159.144 951.59 159.144 942.863 Q159.144 934.113 162.2 929.53 Q165.278 924.924 171.089 924.924 Z" fill="#000000" fill-rule="evenodd" fill-opacity="1" /><path clip-path="url(#clip600)" d="M201.25 928.627 Q197.639 928.627 195.811 932.192 Q194.005 935.734 194.005 942.863 Q194.005 949.97 195.811 953.534 Q197.639 957.076 201.25 957.076 Q204.885 957.076 206.69 953.534 Q208.519 949.97 208.519 942.863 Q208.519 935.734 206.69 932.192 Q204.885 928.627 201.25 928.627 M201.25 924.924 Q207.061 924.924 210.116 929.53 Q213.195 934.113 213.195 942.863 Q213.195 951.59 210.116 956.197 Q207.061 960.78 201.25 960.78 Q195.44 960.78 192.362 956.197 Q189.306 951.59 189.306 942.863 Q189.306 934.113 192.362 929.53 Q195.44 924.924 201.25 924.924 Z" fill="#000000" fill-rule="evenodd" fill-opacity="1" /><path clip-path="url(#clip600)" d="M249.584 934.646 L239.005 945.271 L249.584 955.849 L246.829 958.65 L236.204 948.025 L225.579 958.65 L222.848 955.849 L233.403 945.271 L222.848 934.646 L225.579 931.845 L236.204 942.47 L246.829 931.845 L249.584 934.646 Z" fill="#000000" fill-rule="evenodd" fill-opacity="1" /><path clip-path="url(#clip600)" d="M261.945 956.173 L269.583 956.173 L269.583 929.808 L261.273 931.474 L261.273 927.215 L269.537 925.549 L274.213 925.549 L274.213 956.173 L281.852 956.173 L281.852 960.109 L261.945 960.109 L261.945 956.173 Z" fill="#000000" fill-rule="evenodd" fill-opacity="1" /><path clip-path="url(#clip600)" d="M301.296 928.627 Q297.685 928.627 295.856 932.192 Q294.051 935.734 294.051 942.863 Q294.051 949.97 295.856 953.534 Q297.685 957.076 301.296 957.076 Q304.93 957.076 306.736 953.534 Q308.565 949.97 308.565 942.863 Q308.565 935.734 306.736 932.192 Q304.93 928.627 301.296 928.627 M301.296 924.924 Q307.106 924.924 310.162 929.53 Q313.241 934.113 313.241 942.863 Q313.241 951.59 310.162 956.197 Q307.106 960.78 301.296 960.78 Q295.486 960.78 292.407 956.197 Q289.352 951.59 289.352 942.863 Q289.352 934.113 292.407 929.53 Q295.486 924.924 301.296 924.924 Z" fill="#000000" fill-rule="evenodd" fill-opacity="1" /><path clip-path="url(#clip600)" d="M313.786 929.501 L319.993 929.501 L319.993 908.079 L313.241 909.433 L313.241 905.972 L319.955 904.618 L323.754 904.618 L323.754 929.501 L329.961 929.501 L329.961 932.698 L313.786 932.698 L313.786 929.501 Z" fill="#000000" fill-rule="evenodd" fill-opacity="1" /><path clip-path="url(#clip600)" d="M345.759 907.12 Q342.825 907.12 341.339 910.016 Q339.872 912.894 339.872 918.686 Q339.872 924.46 341.339 927.357 Q342.825 930.234 345.759 930.234 Q348.712 930.234 350.179 927.357 Q351.665 924.46 351.665 918.686 Q351.665 912.894 350.179 910.016 Q348.712 907.12 345.759 907.12 M345.759 904.11 Q350.48 904.11 352.963 907.853 Q355.464 911.577 355.464 918.686 Q355.464 925.777 352.963 929.52 Q350.48 933.244 345.759 933.244 Q341.038 933.244 338.537 929.52 Q336.054 925.777 336.054 918.686 Q336.054 911.577 338.537 907.853 Q341.038 904.11 345.759 904.11 Z" fill="#000000" fill-rule="evenodd" fill-opacity="1" /><path clip-path="url(#clip600)" d="M116.668 737.134 L124.306 737.134 L124.306 710.768 L115.996 712.435 L115.996 708.176 L124.26 706.509 L128.936 706.509 L128.936 737.134 L136.575 737.134 L136.575 741.069 L116.668 741.069 L116.668 737.134 Z" fill="#000000" fill-rule="evenodd" fill-opacity="1" /><path clip-path="url(#clip600)" d="M146.019 735.189 L150.903 735.189 L150.903 741.069 L146.019 741.069 L146.019 735.189 Z" fill="#000000" fill-rule="evenodd" fill-opacity="1" /><path clip-path="url(#clip600)" d="M161.135 706.509 L179.491 706.509 L179.491 710.444 L165.417 710.444 L165.417 718.916 Q166.436 718.569 167.454 718.407 Q168.473 718.222 169.491 718.222 Q175.278 718.222 178.658 721.393 Q182.038 724.564 182.038 729.981 Q182.038 735.56 178.565 738.662 Q175.093 741.74 168.774 741.74 Q166.598 741.74 164.329 741.37 Q162.084 740.999 159.677 740.259 L159.677 735.56 Q161.76 736.694 163.982 737.25 Q166.204 737.805 168.681 737.805 Q172.686 737.805 175.024 735.699 Q177.362 733.592 177.362 729.981 Q177.362 726.37 175.024 724.263 Q172.686 722.157 168.681 722.157 Q166.806 722.157 164.931 722.574 Q163.079 722.99 161.135 723.87 L161.135 706.509 Z" fill="#000000" fill-rule="evenodd" fill-opacity="1" /><path clip-path="url(#clip600)" d="M201.25 709.588 Q197.639 709.588 195.811 713.152 Q194.005 716.694 194.005 723.824 Q194.005 730.93 195.811 734.495 Q197.639 738.037 201.25 738.037 Q204.885 738.037 206.69 734.495 Q208.519 730.93 208.519 723.824 Q208.519 716.694 206.69 713.152 Q204.885 709.588 201.25 709.588 M201.25 705.884 Q207.061 705.884 210.116 710.49 Q213.195 715.074 213.195 723.824 Q213.195 732.55 210.116 737.157 Q207.061 741.74 201.25 741.74 Q195.44 741.74 192.362 737.157 Q189.306 732.55 189.306 723.824 Q189.306 715.074 192.362 710.49 Q195.44 705.884 201.25 705.884 Z" fill="#000000" fill-rule="evenodd" fill-opacity="1" /><path clip-path="url(#clip600)" d="M249.584 715.606 L239.005 726.231 L249.584 736.81 L246.829 739.611 L236.204 728.986 L225.579 739.611 L222.848 736.81 L233.403 726.231 L222.848 715.606 L225.579 712.805 L236.204 723.43 L246.829 712.805 L249.584 715.606 Z" fill="#000000" fill-rule="evenodd" fill-opacity="1" /><path clip-path="url(#clip600)" d="M261.945 737.134 L269.583 737.134 L269.583 710.768 L261.273 712.435 L261.273 708.176 L269.537 706.509 L274.213 706.509 L274.213 737.134 L281.852 737.134 L281.852 741.069 L261.945 741.069 L261.945 737.134 Z" fill="#000000" fill-rule="evenodd" fill-opacity="1" /><path clip-path="url(#clip600)" d="M301.296 709.588 Q297.685 709.588 295.856 713.152 Q294.051 716.694 294.051 723.824 Q294.051 730.93 295.856 734.495 Q297.685 738.037 301.296 738.037 Q304.93 738.037 306.736 734.495 Q308.565 730.93 308.565 723.824 Q308.565 716.694 306.736 713.152 Q304.93 709.588 301.296 709.588 M301.296 705.884 Q307.106 705.884 310.162 710.49 Q313.241 715.074 313.241 723.824 Q313.241 732.55 310.162 737.157 Q307.106 741.74 301.296 741.74 Q295.486 741.74 292.407 737.157 Q289.352 732.55 289.352 723.824 Q289.352 715.074 292.407 710.49 Q295.486 705.884 301.296 705.884 Z" fill="#000000" fill-rule="evenodd" fill-opacity="1" /><path clip-path="url(#clip600)" d="M313.786 710.461 L319.993 710.461 L319.993 689.039 L313.241 690.393 L313.241 686.933 L319.955 685.579 L323.754 685.579 L323.754 710.461 L329.961 710.461 L329.961 713.659 L313.786 713.659 L313.786 710.461 Z" fill="#000000" fill-rule="evenodd" fill-opacity="1" /><path clip-path="url(#clip600)" d="M345.759 688.08 Q342.825 688.08 341.339 690.976 Q339.872 693.854 339.872 699.647 Q339.872 705.421 341.339 708.317 Q342.825 711.195 345.759 711.195 Q348.712 711.195 350.179 708.317 Q351.665 705.421 351.665 699.647 Q351.665 693.854 350.179 690.976 Q348.712 688.08 345.759 688.08 M345.759 685.071 Q350.48 685.071 352.963 688.813 Q355.464 692.537 355.464 699.647 Q355.464 706.737 352.963 710.48 Q350.48 714.204 345.759 714.204 Q341.038 714.204 338.537 710.48 Q336.054 706.737 336.054 699.647 Q336.054 692.537 338.537 688.813 Q341.038 685.071 345.759 685.071 Z" fill="#000000" fill-rule="evenodd" fill-opacity="1" /><path clip-path="url(#clip600)" d="M119.885 518.094 L136.204 518.094 L136.204 522.029 L114.26 522.029 L114.26 518.094 Q116.922 515.34 121.505 510.71 Q126.112 506.057 127.292 504.715 Q129.538 502.191 130.417 500.455 Q131.32 498.696 131.32 497.006 Q131.32 494.252 129.376 492.516 Q127.455 490.779 124.353 490.779 Q122.154 490.779 119.7 491.543 Q117.269 492.307 114.492 493.858 L114.492 489.136 Q117.316 488.002 119.769 487.423 Q122.223 486.844 124.26 486.844 Q129.63 486.844 132.825 489.53 Q136.019 492.215 136.019 496.705 Q136.019 498.835 135.209 500.756 Q134.422 502.654 132.316 505.247 Q131.737 505.918 128.635 509.136 Q125.533 512.33 119.885 518.094 Z" fill="#000000" fill-rule="evenodd" fill-opacity="1" /><path clip-path="url(#clip600)" d="M146.019 516.15 L150.903 516.15 L150.903 522.029 L146.019 522.029 L146.019 516.15 Z" fill="#000000" fill-rule="evenodd" fill-opacity="1" /><path clip-path="url(#clip600)" d="M171.089 490.548 Q167.477 490.548 165.649 494.113 Q163.843 497.654 163.843 504.784 Q163.843 511.89 165.649 515.455 Q167.477 518.997 171.089 518.997 Q174.723 518.997 176.528 515.455 Q178.357 511.89 178.357 504.784 Q178.357 497.654 176.528 494.113 Q174.723 490.548 171.089 490.548 M171.089 486.844 Q176.899 486.844 179.954 491.451 Q183.033 496.034 183.033 504.784 Q183.033 513.511 179.954 518.117 Q176.899 522.701 171.089 522.701 Q165.278 522.701 162.2 518.117 Q159.144 513.511 159.144 504.784 Q159.144 496.034 162.2 491.451 Q165.278 486.844 171.089 486.844 Z" fill="#000000" fill-rule="evenodd" fill-opacity="1" /><path clip-path="url(#clip600)" d="M201.25 490.548 Q197.639 490.548 195.811 494.113 Q194.005 497.654 194.005 504.784 Q194.005 511.89 195.811 515.455 Q197.639 518.997 201.25 518.997 Q204.885 518.997 206.69 515.455 Q208.519 511.89 208.519 504.784 Q208.519 497.654 206.69 494.113 Q204.885 490.548 201.25 490.548 M201.25 486.844 Q207.061 486.844 210.116 491.451 Q213.195 496.034 213.195 504.784 Q213.195 513.511 210.116 518.117 Q207.061 522.701 201.25 522.701 Q195.44 522.701 192.362 518.117 Q189.306 513.511 189.306 504.784 Q189.306 496.034 192.362 491.451 Q195.44 486.844 201.25 486.844 Z" fill="#000000" fill-rule="evenodd" fill-opacity="1" /><path clip-path="url(#clip600)" d="M249.584 496.567 L239.005 507.191 L249.584 517.77 L246.829 520.571 L236.204 509.946 L225.579 520.571 L222.848 517.77 L233.403 507.191 L222.848 496.567 L225.579 493.766 L236.204 504.391 L246.829 493.766 L249.584 496.567 Z" fill="#000000" fill-rule="evenodd" fill-opacity="1" /><path clip-path="url(#clip600)" d="M261.945 518.094 L269.583 518.094 L269.583 491.729 L261.273 493.395 L261.273 489.136 L269.537 487.469 L274.213 487.469 L274.213 518.094 L281.852 518.094 L281.852 522.029 L261.945 522.029 L261.945 518.094 Z" fill="#000000" fill-rule="evenodd" fill-opacity="1" /><path clip-path="url(#clip600)" d="M301.296 490.548 Q297.685 490.548 295.856 494.113 Q294.051 497.654 294.051 504.784 Q294.051 511.89 295.856 515.455 Q297.685 518.997 301.296 518.997 Q304.93 518.997 306.736 515.455 Q308.565 511.89 308.565 504.784 Q308.565 497.654 306.736 494.113 Q304.93 490.548 301.296 490.548 M301.296 486.844 Q307.106 486.844 310.162 491.451 Q313.241 496.034 313.241 504.784 Q313.241 513.511 310.162 518.117 Q307.106 522.701 301.296 522.701 Q295.486 522.701 292.407 518.117 Q289.352 513.511 289.352 504.784 Q289.352 496.034 292.407 491.451 Q295.486 486.844 301.296 486.844 Z" fill="#000000" fill-rule="evenodd" fill-opacity="1" /><path clip-path="url(#clip600)" d="M313.786 491.422 L319.993 491.422 L319.993 470 L313.241 471.354 L313.241 467.893 L319.955 466.539 L323.754 466.539 L323.754 491.422 L329.961 491.422 L329.961 494.619 L313.786 494.619 L313.786 491.422 Z" fill="#000000" fill-rule="evenodd" fill-opacity="1" /><path clip-path="url(#clip600)" d="M345.759 469.04 Q342.825 469.04 341.339 471.937 Q339.872 474.814 339.872 480.607 Q339.872 486.381 341.339 489.278 Q342.825 492.155 345.759 492.155 Q348.712 492.155 350.179 489.278 Q351.665 486.381 351.665 480.607 Q351.665 474.814 350.179 471.937 Q348.712 469.04 345.759 469.04 M345.759 466.031 Q350.48 466.031 352.963 469.774 Q355.464 473.498 355.464 480.607 Q355.464 487.698 352.963 491.44 Q350.48 495.164 345.759 495.164 Q341.038 495.164 338.537 491.44 Q336.054 487.698 336.054 480.607 Q336.054 473.498 338.537 469.774 Q341.038 466.031 345.759 466.031 Z" fill="#000000" fill-rule="evenodd" fill-opacity="1" /><path clip-path="url(#clip600)" d="M119.885 299.055 L136.204 299.055 L136.204 302.99 L114.26 302.99 L114.26 299.055 Q116.922 296.3 121.505 291.67 Q126.112 287.018 127.292 285.675 Q129.538 283.152 130.417 281.416 Q131.32 279.657 131.32 277.967 Q131.32 275.212 129.376 273.476 Q127.455 271.74 124.353 271.74 Q122.154 271.74 119.7 272.504 Q117.269 273.268 114.492 274.819 L114.492 270.096 Q117.316 268.962 119.769 268.383 Q122.223 267.805 124.26 267.805 Q129.63 267.805 132.825 270.49 Q136.019 273.175 136.019 277.666 Q136.019 279.795 135.209 281.717 Q134.422 283.615 132.316 286.207 Q131.737 286.879 128.635 290.096 Q125.533 293.291 119.885 299.055 Z" fill="#000000" fill-rule="evenodd" fill-opacity="1" /><path clip-path="url(#clip600)" d="M146.019 297.11 L150.903 297.11 L150.903 302.99 L146.019 302.99 L146.019 297.11 Z" fill="#000000" fill-rule="evenodd" fill-opacity="1" /><path clip-path="url(#clip600)" d="M161.135 268.43 L179.491 268.43 L179.491 272.365 L165.417 272.365 L165.417 280.837 Q166.436 280.49 167.454 280.328 Q168.473 280.143 169.491 280.143 Q175.278 280.143 178.658 283.314 Q182.038 286.485 182.038 291.902 Q182.038 297.481 178.565 300.582 Q175.093 303.661 168.774 303.661 Q166.598 303.661 164.329 303.291 Q162.084 302.92 159.677 302.18 L159.677 297.481 Q161.76 298.615 163.982 299.17 Q166.204 299.726 168.681 299.726 Q172.686 299.726 175.024 297.619 Q177.362 295.513 177.362 291.902 Q177.362 288.291 175.024 286.184 Q172.686 284.078 168.681 284.078 Q166.806 284.078 164.931 284.494 Q163.079 284.911 161.135 285.791 L161.135 268.43 Z" fill="#000000" fill-rule="evenodd" fill-opacity="1" /><path clip-path="url(#clip600)" d="M201.25 271.508 Q197.639 271.508 195.811 275.073 Q194.005 278.615 194.005 285.744 Q194.005 292.851 195.811 296.416 Q197.639 299.957 201.25 299.957 Q204.885 299.957 206.69 296.416 Q208.519 292.851 208.519 285.744 Q208.519 278.615 206.69 275.073 Q204.885 271.508 201.25 271.508 M201.25 267.805 Q207.061 267.805 210.116 272.411 Q213.195 276.995 213.195 285.744 Q213.195 294.471 210.116 299.078 Q207.061 303.661 201.25 303.661 Q195.44 303.661 192.362 299.078 Q189.306 294.471 189.306 285.744 Q189.306 276.995 192.362 272.411 Q195.44 267.805 201.25 267.805 Z" fill="#000000" fill-rule="evenodd" fill-opacity="1" /><path clip-path="url(#clip600)" d="M249.584 277.527 L239.005 288.152 L249.584 298.73 L246.829 301.531 L236.204 290.906 L225.579 301.531 L222.848 298.73 L233.403 288.152 L222.848 277.527 L225.579 274.726 L236.204 285.351 L246.829 274.726 L249.584 277.527 Z" fill="#000000" fill-rule="evenodd" fill-opacity="1" /><path clip-path="url(#clip600)" d="M261.945 299.055 L269.583 299.055 L269.583 272.689 L261.273 274.356 L261.273 270.096 L269.537 268.43 L274.213 268.43 L274.213 299.055 L281.852 299.055 L281.852 302.99 L261.945 302.99 L261.945 299.055 Z" fill="#000000" fill-rule="evenodd" fill-opacity="1" /><path clip-path="url(#clip600)" d="M301.296 271.508 Q297.685 271.508 295.856 275.073 Q294.051 278.615 294.051 285.744 Q294.051 292.851 295.856 296.416 Q297.685 299.957 301.296 299.957 Q304.93 299.957 306.736 296.416 Q308.565 292.851 308.565 285.744 Q308.565 278.615 306.736 275.073 Q304.93 271.508 301.296 271.508 M301.296 267.805 Q307.106 267.805 310.162 272.411 Q313.241 276.995 313.241 285.744 Q313.241 294.471 310.162 299.078 Q307.106 303.661 301.296 303.661 Q295.486 303.661 292.407 299.078 Q289.352 294.471 289.352 285.744 Q289.352 276.995 292.407 272.411 Q295.486 267.805 301.296 267.805 Z" fill="#000000" fill-rule="evenodd" fill-opacity="1" /><path clip-path="url(#clip600)" d="M313.786 272.382 L319.993 272.382 L319.993 250.96 L313.241 252.314 L313.241 248.853 L319.955 247.499 L323.754 247.499 L323.754 272.382 L329.961 272.382 L329.961 275.579 L313.786 275.579 L313.786 272.382 Z" fill="#000000" fill-rule="evenodd" fill-opacity="1" /><path clip-path="url(#clip600)" d="M345.759 250.001 Q342.825 250.001 341.339 252.897 Q339.872 255.775 339.872 261.568 Q339.872 267.342 341.339 270.238 Q342.825 273.116 345.759 273.116 Q348.712 273.116 350.179 270.238 Q351.665 267.342 351.665 261.568 Q351.665 255.775 350.179 252.897 Q348.712 250.001 345.759 250.001 M345.759 246.992 Q350.48 246.992 352.963 250.734 Q355.464 254.458 355.464 261.568 Q355.464 268.658 352.963 272.401 Q350.48 276.125 345.759 276.125 Q341.038 276.125 338.537 272.401 Q336.054 268.658 336.054 261.568 Q336.054 254.458 338.537 250.734 Q341.038 246.992 345.759 246.992 Z" fill="#000000" fill-rule="evenodd" fill-opacity="1" /><path clip-path="url(#clip600)" d="M33.8307 841.504 Q33.2578 842.491 33.0032 843.668 Q32.7167 844.814 32.7167 846.215 Q32.7167 851.18 35.9632 853.853 Q39.1779 856.495 45.2253 856.495 L64.0042 856.495 L64.0042 862.384 L28.3562 862.384 L28.3562 856.495 L33.8944 856.495 Q30.6479 854.649 29.0883 851.689 Q27.4968 848.729 27.4968 844.496 Q27.4968 843.891 27.5923 843.159 Q27.656 842.427 27.8151 841.536 L33.8307 841.504 Z" fill="#000000" fill-rule="evenodd" fill-opacity="1" /><path clip-path="url(#clip600)" d="M44.7161 806.302 L47.5806 806.302 L47.5806 833.229 Q53.6281 832.847 56.8109 829.6 Q59.9619 826.322 59.9619 820.497 Q59.9619 817.123 59.1344 813.972 Q58.3069 810.789 56.6518 807.67 L62.1899 807.67 Q63.5267 810.821 64.227 814.131 Q64.9272 817.442 64.9272 820.847 Q64.9272 829.377 59.9619 834.374 Q54.9967 839.34 46.5303 839.34 Q37.7774 839.34 32.6531 834.629 Q27.4968 829.887 27.4968 821.866 Q27.4968 814.673 32.1438 810.503 Q36.7589 806.302 44.7161 806.302 M42.9973 812.158 Q38.1912 812.222 35.3266 814.864 Q32.4621 817.473 32.4621 821.802 Q32.4621 826.704 35.2312 829.664 Q38.0002 832.592 43.0292 833.038 L42.9973 812.158 Z" fill="#000000" fill-rule="evenodd" fill-opacity="1" /><path clip-path="url(#clip600)" d="M45.7664 773.232 Q39.4007 773.232 35.8996 775.874 Q32.3984 778.484 32.3984 783.226 Q32.3984 787.937 35.8996 790.578 Q39.4007 793.188 45.7664 793.188 Q52.1003 793.188 55.6014 790.578 Q59.1026 787.937 59.1026 783.226 Q59.1026 778.484 55.6014 775.874 Q52.1003 773.232 45.7664 773.232 M59.58 767.375 Q68.683 767.375 73.1071 771.418 Q77.5631 775.46 77.5631 783.799 Q77.5631 786.886 77.0857 789.624 Q76.6401 792.361 75.6852 794.939 L69.9879 794.939 Q71.3884 792.361 72.0568 789.846 Q72.7252 787.332 72.7252 784.722 Q72.7252 778.961 69.7015 776.096 Q66.7096 773.232 60.6303 773.232 L57.7339 773.232 Q60.885 775.046 62.4446 777.879 Q64.0042 780.712 64.0042 784.658 Q64.0042 791.215 59.0071 795.225 Q54.01 799.236 45.7664 799.236 Q37.491 799.236 32.4939 795.225 Q27.4968 791.215 27.4968 784.658 Q27.4968 780.712 29.0564 777.879 Q30.616 775.046 33.7671 773.232 L28.3562 773.232 L28.3562 767.375 L59.58 767.375 Z" fill="#000000" fill-rule="evenodd" fill-opacity="1" /><path clip-path="url(#clip600)" d="M33.8307 734.656 Q33.2578 735.642 33.0032 736.82 Q32.7167 737.966 32.7167 739.366 Q32.7167 744.331 35.9632 747.005 Q39.1779 749.647 45.2253 749.647 L64.0042 749.647 L64.0042 755.535 L28.3562 755.535 L28.3562 749.647 L33.8944 749.647 Q30.6479 747.801 29.0883 744.841 Q27.4968 741.881 27.4968 737.648 Q27.4968 737.043 27.5923 736.311 Q27.656 735.579 27.8151 734.687 L33.8307 734.656 Z" fill="#000000" fill-rule="evenodd" fill-opacity="1" /><path clip-path="url(#clip600)" d="M44.7161 699.453 L47.5806 699.453 L47.5806 726.38 Q53.6281 725.998 56.8109 722.752 Q59.9619 719.473 59.9619 713.649 Q59.9619 710.275 59.1344 707.124 Q58.3069 703.941 56.6518 700.822 L62.1899 700.822 Q63.5267 703.973 64.227 707.283 Q64.9272 710.593 64.9272 713.999 Q64.9272 722.529 59.9619 727.526 Q54.9967 732.491 46.5303 732.491 Q37.7774 732.491 32.6531 727.781 Q27.4968 723.038 27.4968 715.017 Q27.4968 707.824 32.1438 703.655 Q36.7589 699.453 44.7161 699.453 M42.9973 705.31 Q38.1912 705.373 35.3266 708.015 Q32.4621 710.625 32.4621 714.954 Q32.4621 719.855 35.2312 722.815 Q38.0002 725.744 43.0292 726.189 L42.9973 705.31 Z" fill="#000000" fill-rule="evenodd" fill-opacity="1" /><path clip-path="url(#clip600)" d="M18.2347 684.048 L28.3562 684.048 L28.3562 671.985 L32.9077 671.985 L32.9077 684.048 L52.2594 684.048 Q56.6199 684.048 57.8613 682.871 Q59.1026 681.661 59.1026 678.001 L59.1026 671.985 L64.0042 671.985 L64.0042 678.001 Q64.0042 684.78 61.4897 687.358 Q58.9434 689.937 52.2594 689.937 L32.9077 689.937 L32.9077 694.233 L28.3562 694.233 L28.3562 689.937 L18.2347 689.937 L18.2347 684.048 Z" fill="#000000" fill-rule="evenodd" fill-opacity="1" /><path clip-path="url(#clip600)" d="M1228.26 12.096 L1236.45 12.096 L1236.45 36.8875 L1266.18 36.8875 L1266.18 12.096 L1274.36 12.096 L1274.36 72.576 L1266.18 72.576 L1266.18 43.7741 L1236.45 43.7741 L1236.45 72.576 L1228.26 72.576 L1228.26 12.096 Z" fill="#000000" fill-rule="evenodd" fill-opacity="1" /><path clip-path="url(#clip600)" d="M1290.65 12.096 L1298.83 12.096 L1298.83 72.576 L1290.65 72.576 L1290.65 12.096 Z" fill="#000000" fill-rule="evenodd" fill-opacity="1" /><path clip-path="url(#clip600)" d="M1315.11 12.096 L1353.35 12.096 L1353.35 18.9825 L1323.3 18.9825 L1323.3 36.8875 L1352.1 36.8875 L1352.1 43.7741 L1323.3 43.7741 L1323.3 65.6895 L1354.08 65.6895 L1354.08 72.576 L1315.11 72.576 L1315.11 12.096 Z" fill="#000000" fill-rule="evenodd" fill-opacity="1" /><path clip-path="url(#clip600)" d="M1396.21 44.2197 Q1398.85 45.1109 1401.32 48.0275 Q1403.83 50.9442 1406.34 56.0483 L1414.64 72.576 L1405.85 72.576 L1398.12 57.061 Q1395.12 50.9847 1392.28 48.9997 Q1389.49 47.0148 1384.63 47.0148 L1375.72 47.0148 L1375.72 72.576 L1367.53 72.576 L1367.53 12.096 L1386 12.096 Q1396.37 12.096 1401.48 16.4305 Q1406.58 20.7649 1406.58 29.5149 Q1406.58 35.2267 1403.91 38.994 Q1401.28 42.7613 1396.21 44.2197 M1375.72 18.8205 L1375.72 40.2903 L1386 40.2903 Q1391.92 40.2903 1394.92 37.5762 Q1397.95 34.8216 1397.95 29.5149 Q1397.95 24.2082 1394.92 21.5346 Q1391.92 18.8205 1386 18.8205 L1375.72 18.8205 Z" fill="#000000" fill-rule="evenodd" fill-opacity="1" /><path clip-path="url(#clip600)" d="M1427.32 65.6895 L1440.69 65.6895 L1440.69 19.5497 L1426.15 22.4663 L1426.15 15.0127 L1440.61 12.096 L1448.79 12.096 L1448.79 65.6895 L1462.16 65.6895 L1462.16 72.576 L1427.32 72.576 L1427.32 65.6895 Z" fill="#000000" fill-rule="evenodd" fill-opacity="1" /><path clip-path="url(#clip600)" d="M1503.48 39.9662 Q1509.35 41.222 1512.64 45.1919 Q1515.96 49.1618 1515.96 54.9951 Q1515.96 63.9476 1509.8 68.8492 Q1503.64 73.7508 1492.3 73.7508 Q1488.49 73.7508 1484.44 72.9811 Q1480.43 72.2519 1476.14 70.7531 L1476.14 62.8538 Q1479.54 64.8388 1483.59 65.8515 Q1487.64 66.8642 1492.06 66.8642 Q1499.75 66.8642 1503.76 63.826 Q1507.82 60.7879 1507.82 54.9951 Q1507.82 49.6479 1504.05 46.6502 Q1500.32 43.612 1493.64 43.612 L1486.59 43.612 L1486.59 36.8875 L1493.96 36.8875 Q1500 36.8875 1503.2 34.4975 Q1506.4 32.067 1506.4 27.5299 Q1506.4 22.8714 1503.08 20.4004 Q1499.79 17.8888 1493.64 17.8888 Q1490.27 17.8888 1486.43 18.618 Q1482.58 19.3471 1477.96 20.8865 L1477.96 13.5948 Q1482.62 12.2985 1486.67 11.6504 Q1490.76 11.0023 1494.37 11.0023 Q1503.68 11.0023 1509.11 15.2557 Q1514.54 19.4686 1514.54 26.6793 Q1514.54 31.7024 1511.66 35.1862 Q1508.79 38.6294 1503.48 39.9662 Z" fill="#000000" fill-rule="evenodd" fill-opacity="1" /><polyline clip-path="url(#clip602)" style="stroke:#009af9; stroke-linecap:butt; stroke-linejoin:round; stroke-width:8; stroke-opacity:1; fill:none" points="
  1566.75,1374.46 1692.32,1374.46 1769.29,1374.46 1828.82,1374.46 1875.48,1374.46 1915.31,1374.46 1946.48,1374.46 1971.82,1374.46 1994.64,1374.46 2014.92,1374.46 
  2033.23,1374.46 2047.02,1374.46 2061.95,1374.46 2077.69,1374.46 2093.65,1374.46 2106.35,1374.46 2117.61,1374.46 2131.35,1374.46 2140.66,1374.46 2149.41,1374.46 
  2158.13,1374.46 2167.08,1374.46 2177.36,1374.46 2186.54,1374.46 2195.84,1374.46 2204.81,1374.46 2211.49,1374.46 2218,1374.46 2224.2,1374.46 2230.29,1374.46 
  2236.16,1374.46 2242.1,1374.46 2247.23,1374.46 2252.12,1374.46 2257.45,1374.46 2262.32,1374.46 2267.62,1374.46 2272.6,1374.46 2278,1374.46 2282.33,1374.46 
  
  "/>
<polyline clip-path="url(#clip602)" style="stroke:#e26f46; stroke-linecap:butt; stroke-linejoin:round; stroke-width:8; stroke-opacity:1; fill:none" points="
  1596.49,1374.46 1707.58,1374.46 1784.19,1374.46 1839.45,1374.46 1884.55,1374.46 1919.71,1374.46 1939.37,1374.46 1966.4,1374.46 1992.99,1374.46 2016.8,1374.46 
  2044.04,1374.46 2062.95,1374.46 2082.78,1374.46 2098.36,1374.46 2112.87,1374.46 2125.69,1374.46 2136.78,1374.46 2149.95,1374.46 2161.64,1374.46 2173.97,1374.46 
  2184.69,1374.46 2194.02,1374.46 2202.08,1374.46 2209.2,1374.46 2215.12,1374.46 2221.49,1374.46 2227.06,1374.46 2233.83,1374.46 2239.43,1374.46 2244.5,1374.46 
  2250.86,1374.46 2256.6,1374.46 2262.63,1374.46 2267.59,1374.46 2271.64,1374.46 2276.43,1374.46 2281.35,1374.46 2286.85,1374.46 2292.18,1374.46 2297.25,1374.46 
  
  "/>
<polyline clip-path="url(#clip602)" style="stroke:#3da44d; stroke-linecap:butt; stroke-linejoin:round; stroke-width:8; stroke-opacity:1; fill:none" points="
  455.404,265.17 554.39,321.958 611.323,321.958 678.079,321.958 727.176,321.958 755.104,1374.46 778.774,1374.46 798.37,1374.46 816.384,1374.46 832.138,1374.46 
  848.291,1374.46 861.762,1374.46 873.856,1374.46 885.831,1374.46 896.616,1374.46 906.936,1374.46 916.265,1374.46 926.013,1374.46 934.589,1374.46 942.666,1374.46 
  950.206,1374.46 957.564,1374.46 966.161,1374.46 973.696,1374.46 981.069,1374.46 987.483,1374.46 993.809,1374.46 999.518,1374.46 1005.24,1374.46 1011.91,1374.46 
  1017.48,1374.46 1022.97,1374.46 1031.28,1374.46 1037.66,1374.46 1043.62,1374.46 1049.12,1374.46 1053.87,1374.46 1058.46,1374.46 1062.97,1374.46 1067.35,1374.46 
  1071.34,1374.46 1075.44,1374.46 1079.58,1374.46 1083.61,1374.46 1087.24,1374.46 1091.03,1374.46 1095.37,1374.46 1098.74,1374.46 1102.3,1374.46 1105.81,1374.46 
  1109.2,1374.46 1112.41,1374.46 1115.55,1374.46 1118.98,1374.46 1122.12,1374.46 1126.58,1374.46 1130.62,1374.46 1134.08,1374.46 1137.07,1374.46 1140.24,1374.46 
  1143.26,1374.46 1146,1374.46 1148.65,1374.46 1151.52,1374.46 1154.21,1374.46 1156.7,1374.46 1159.33,1374.46 1162.04,1374.46 1164.62,1374.46 1167.04,1374.46 
  1169.54,1374.46 1171.96,1374.46 1175.34,1374.46 1179.7,1374.46 1183.49,1374.46 1186.15,1374.46 1190.87,1374.46 1193.97,1374.46 1196.55,1374.46 1198.88,1374.46 
  1201.06,1374.46 1209.93,1374.46 1216.3,1374.46 1222.44,1374.46 1227.9,1374.46 1233.25,1374.46 1238.39,1374.46 1243.4,1374.46 1248.01,1374.46 1252.69,1374.46 
  1257.19,1374.46 1261.63,1374.46 1265.9,1374.46 1270.14,1374.46 1274.32,1374.46 1278.28,1374.46 1283.74,1374.46 1287.6,1374.46 1291.37,1374.46 1295,1374.46 
  1298.54,1374.46 1307.86,1374.46 1311.27,1374.46 1314.49,1374.46 1317.78,1374.46 1320.94,1374.46 1324.07,1374.46 1327.15,1374.46 1344.53,1374.46 1360.01,1374.46 
  1374.34,1374.46 1387.56,1374.46 1399.98,1374.46 1412.31,1374.46 1423.4,1374.46 1433.72,1374.46 1443.6,1374.46 1476.53,1374.46 1505.59,1374.46 1527.52,1374.46 
  1592.69,1374.46 1823.55,1374.46 1823.9,1374.46 1824.16,1374.46 1824.43,1374.46 1824.7,1374.46 1824.96,1374.46 1825.21,1374.46 1825.49,1374.46 1825.74,1374.46 
  1826,1374.46 1826.27,1374.46 1826.53,1374.46 1826.78,1374.46 1827.14,1374.46 1827.4,1374.46 1827.66,1374.46 1827.92,1374.46 1828.17,1374.46 1828.41,1374.46 
  1828.66,1374.46 1828.89,1374.46 1829.14,1374.46 1829.37,1374.46 1829.6,1374.46 1829.85,1374.46 1830.09,1374.46 1830.34,1374.46 1830.6,1374.46 1830.84,1374.46 
  1831.09,1374.46 1831.33,1374.46 1831.58,1374.46 1831.84,1374.46 1832.18,1374.46 1833.53,1374.46 1834.79,1374.46 1836.05,1374.46 1837.36,1374.46 1838.71,1374.46 
  1840.08,1374.46 1841.38,1374.46 1842.67,1374.46 1844.02,1374.46 1845.3,1374.46 1846.57,1374.46 1851.29,1374.46 1856.1,1374.46 1860.6,1374.46 1874.66,1374.46 
  1915.18,1374.46 1915.98,1374.46 1916.76,1374.46 1917.56,1374.46 1918.38,1374.46 1919.19,1374.46 1920.06,1374.46 1920.88,1374.46 1921.66,1374.46 1922.46,1374.46 
  1923.25,1374.46 1924.05,1374.46 1924.84,1374.46 1925.65,1374.46 1926.45,1374.46 1929.51,1374.46 1932.69,1374.46 1935.65,1374.46 1938.54,1374.46 1941.22,1374.46 
  1950.32,1374.46 1967.16,1374.46 1969.61,1374.46 1972.37,1374.46 1974.92,1374.46 1977.37,1374.46 1979.76,1374.46 1981.86,1374.46 1984.13,1374.46 1991.48,1374.46 
  1998.49,1374.46 2019,1374.46 2025.38,1374.46 2031.21,1374.46 2036.62,1374.46 2041.9,1374.46 
  "/>
<polyline clip-path="url(#clip602)" style="stroke:#c271d2; stroke-linecap:butt; stroke-linejoin:round; stroke-width:8; stroke-opacity:1; fill:none" points="
  446.972,159.909 543.747,159.909 604.312,265.17 649.436,265.17 703.005,265.17 740.29,265.17 767.177,265.17 788.807,265.17 806.423,265.17 821.851,298.466 
  838.075,298.466 851.861,298.466 864.362,298.466 875.358,298.466 888.366,298.466 898.395,298.466 907.642,298.466 916.876,298.466 926.543,298.466 935.031,298.466 
  942.717,298.466 950.626,298.466 959.237,298.466 966.424,298.466 973,488.384 980.316,488.384 986.876,488.384 992.861,488.384 998.343,488.384 1005.43,488.384 
  1012.89,488.384 1020.01,488.384 1026.79,488.384 1032.12,488.384 1036.96,1374.46 1041.88,1374.46 1046.68,1374.46 1051.22,1374.46 1055.44,1374.46 1059.96,1374.46 
  1064.16,1374.46 1068.16,1374.46 1072.2,1374.46 1076.82,1374.46 1080.79,1374.46 1084.57,1374.46 1088.43,1374.46 1092.49,1374.46 1096.3,1374.46 1099.79,1374.46 
  1104.32,1374.46 1107.98,1374.46 1111.42,1374.46 1115.19,1374.46 1118.62,1374.46 1122.35,1374.46 1126.37,1374.46 1130.36,1374.46 1133.85,1374.46 1137.07,1374.46 
  1141.05,1374.46 1144.68,1374.46 1153.87,1374.46 1157.92,1374.46 1161.03,1374.46 1164.24,1374.46 1172.3,1374.46 1176.02,1374.46 1179.31,1374.46 1182.35,1374.46 
  1187.61,1374.46 1190.6,1374.46 1193.38,1374.46 1201.22,1374.46 1204.51,1374.46 1206.89,1374.46 1209.86,1374.46 1212.1,1374.46 1214.15,1374.46 1216.38,1374.46 
  1218.42,1374.46 1224.46,1374.46 1229.93,1374.46 1235.24,1374.46 1240.56,1374.46 1245.51,1374.46 1264.32,1374.46 1269.12,1374.46 1273.46,1374.46 1277.64,1374.46 
  1281.62,1374.46 1285.47,1374.46 1289.49,1374.46 1293.36,1374.46 1296.95,1374.46 1300.49,1374.46 1303.92,1374.46 1307.35,1374.46 1310.72,1374.46 1313.98,1374.46 
  1317.05,1374.46 1320.21,1374.46 1323.28,1374.46 1326.32,1374.46 1329.25,1374.46 1332.36,1374.46 1335.23,1374.46 1338.1,1374.46 1354.46,1374.46 1369.3,1374.46 
  1383.02,1374.46 1395.86,1374.46 1407.76,1374.46 1419.95,1374.46 1430.67,1374.46 1440.66,1374.46 1450.07,1374.46 1481.85,1374.46 1506.98,1374.46 1529.23,1374.46 
  1593.63,1374.46 1594.36,1374.46 1595.07,1374.46 1595.79,1374.46 1596.5,1374.46 1597.2,1374.46 1597.91,1374.46 1598.64,1374.46 1599.36,1374.46 1600.09,1374.46 
  1600.8,1374.46 1601.49,1374.46 1602.18,1374.46 1602.9,1374.46 1603.59,1374.46 1604.26,1374.46 1604.93,1374.46 1605.64,1374.46 1606.32,1374.46 1607,1374.46 
  1607.69,1374.46 1608.37,1374.46 1609.56,1374.46 1610.36,1374.46 1611.08,1374.46 1611.76,1374.46 1612.42,1374.46 1613.07,1374.46 1613.73,1374.46 1614.38,1374.46 
  1615.04,1374.46 1615.81,1374.46 1616.49,1374.46 1617.41,1374.46 1618.1,1374.46 1621.87,1374.46 1625.52,1374.46 1629.11,1374.46 1632.56,1374.46 1635.98,1374.46 
  1639.3,1374.46 1642.62,1374.46 1645.95,1374.46 1649.25,1374.46 1652.42,1374.46 1655.52,1374.46 1665.82,1374.46 1675.64,1374.46 1685.31,1374.46 1715.1,1374.46 
  1717.3,1374.46 1719.51,1374.46 1721.65,1374.46 1724.14,1374.46 1726.24,1374.46 1728.32,1374.46 1730.37,1374.46 1732.46,1374.46 1734.6,1374.46 1736.58,1374.46 
  1738.54,1374.46 1740.5,1374.46 1742.44,1374.46 1744.32,1374.46 1746.21,1374.46 1752.63,1374.46 1758.98,1374.46 1765.05,1374.46 1770.84,1374.46 1776.73,1374.46 
  1794.36,1374.46 1799.41,1374.46 1804.48,1374.46 1809.28,1374.46 1814.24,1374.46 1818.63,1374.46 1823.16,1374.46 1827.58,1374.46 1831.82,1374.46 1846.84,1374.46 
  1861.28,1374.46 1873.56,1374.46 1885.17,1374.46 1896.04,1374.46 1905.38,1374.46 1915.19,1374.46 
  "/>
<path clip-path="url(#clip600)" d="
M1821.94 425.586 L2287.38 425.586 L2287.38 166.386 L1821.94 166.386  Z
  " fill="#ffffff" fill-rule="evenodd" fill-opacity="1"/>
<polyline clip-path="url(#clip600)" style="stroke:#000000; stroke-linecap:butt; stroke-linejoin:round; stroke-width:4; stroke-opacity:1; fill:none" points="
  1821.94,425.586 2287.38,425.586 2287.38,166.386 1821.94,166.386 1821.94,425.586 
  "/>
<polyline clip-path="url(#clip600)" style="stroke:#009af9; stroke-linecap:butt; stroke-linejoin:round; stroke-width:4; stroke-opacity:1; fill:none" points="
  1843.73,218.226 1974.48,218.226 
  "/>
<path clip-path="url(#clip600)" d="M2011.46 213.562 Q2010.74 213.145 2009.88 212.96 Q2009.05 212.752 2008.03 212.752 Q2004.42 212.752 2002.48 215.113 Q2000.56 217.451 2000.56 221.849 L2000.56 235.506 L1996.27 235.506 L1996.27 209.58 L2000.56 209.58 L2000.56 213.608 Q2001.9 211.247 2004.05 210.113 Q2006.2 208.955 2009.28 208.955 Q2009.72 208.955 2010.25 209.025 Q2010.79 209.071 2011.44 209.187 L2011.46 213.562 Z" fill="#000000" fill-rule="evenodd" fill-opacity="1" /><path clip-path="url(#clip600)" d="M2027.71 222.474 Q2022.55 222.474 2020.56 223.654 Q2018.56 224.835 2018.56 227.682 Q2018.56 229.951 2020.05 231.293 Q2021.55 232.613 2024.12 232.613 Q2027.66 232.613 2029.79 230.113 Q2031.94 227.59 2031.94 223.423 L2031.94 222.474 L2027.71 222.474 M2036.2 220.715 L2036.2 235.506 L2031.94 235.506 L2031.94 231.571 Q2030.49 233.932 2028.31 235.066 Q2026.13 236.178 2022.99 236.178 Q2019 236.178 2016.64 233.955 Q2014.31 231.71 2014.31 227.96 Q2014.31 223.585 2017.22 221.363 Q2020.16 219.141 2025.97 219.141 L2031.94 219.141 L2031.94 218.724 Q2031.94 215.784 2030 214.187 Q2028.08 212.567 2024.58 212.567 Q2022.36 212.567 2020.25 213.099 Q2018.15 213.631 2016.2 214.696 L2016.2 210.761 Q2018.54 209.858 2020.74 209.418 Q2022.94 208.955 2025.02 208.955 Q2030.65 208.955 2033.43 211.872 Q2036.2 214.789 2036.2 220.715 Z" fill="#000000" fill-rule="evenodd" fill-opacity="1" /><path clip-path="url(#clip600)" d="M2066.53 219.858 L2066.53 235.506 L2062.27 235.506 L2062.27 219.997 Q2062.27 216.317 2060.83 214.488 Q2059.4 212.659 2056.53 212.659 Q2053.08 212.659 2051.09 214.858 Q2049.1 217.057 2049.1 220.854 L2049.1 235.506 L2044.81 235.506 L2044.81 209.58 L2049.1 209.58 L2049.1 213.608 Q2050.62 211.27 2052.69 210.113 Q2054.77 208.955 2057.48 208.955 Q2061.94 208.955 2064.24 211.733 Q2066.53 214.488 2066.53 219.858 Z" fill="#000000" fill-rule="evenodd" fill-opacity="1" /><path clip-path="url(#clip600)" d="M2092.08 213.516 L2092.08 199.488 L2096.34 199.488 L2096.34 235.506 L2092.08 235.506 L2092.08 231.617 Q2090.74 233.932 2088.68 235.066 Q2086.64 236.178 2083.77 236.178 Q2079.07 236.178 2076.11 232.428 Q2073.17 228.678 2073.17 222.567 Q2073.17 216.455 2076.11 212.705 Q2079.07 208.955 2083.77 208.955 Q2086.64 208.955 2088.68 210.09 Q2090.74 211.201 2092.08 213.516 M2077.57 222.567 Q2077.57 227.266 2079.49 229.951 Q2081.44 232.613 2084.81 232.613 Q2088.19 232.613 2090.14 229.951 Q2092.08 227.266 2092.08 222.567 Q2092.08 217.867 2090.14 215.205 Q2088.19 212.52 2084.81 212.52 Q2081.44 212.52 2079.49 215.205 Q2077.57 217.867 2077.57 222.567 Z" fill="#000000" fill-rule="evenodd" fill-opacity="1" /><path clip-path="url(#clip600)" d="M2115.16 212.567 Q2111.74 212.567 2109.75 215.252 Q2107.75 217.914 2107.75 222.567 Q2107.75 227.219 2109.72 229.904 Q2111.71 232.566 2115.16 232.566 Q2118.56 232.566 2120.56 229.881 Q2122.55 227.196 2122.55 222.567 Q2122.55 217.96 2120.56 215.275 Q2118.56 212.567 2115.16 212.567 M2115.16 208.955 Q2120.72 208.955 2123.89 212.567 Q2127.06 216.178 2127.06 222.567 Q2127.06 228.932 2123.89 232.566 Q2120.72 236.178 2115.16 236.178 Q2109.58 236.178 2106.41 232.566 Q2103.26 228.932 2103.26 222.567 Q2103.26 216.178 2106.41 212.567 Q2109.58 208.955 2115.16 208.955 Z" fill="#000000" fill-rule="evenodd" fill-opacity="1" /><path clip-path="url(#clip600)" d="M2154.3 214.557 Q2155.9 211.687 2158.12 210.321 Q2160.35 208.955 2163.36 208.955 Q2167.41 208.955 2169.61 211.803 Q2171.8 214.627 2171.8 219.858 L2171.8 235.506 L2167.52 235.506 L2167.52 219.997 Q2167.52 216.27 2166.2 214.465 Q2164.88 212.659 2162.18 212.659 Q2158.87 212.659 2156.94 214.858 Q2155.02 217.057 2155.02 220.854 L2155.02 235.506 L2150.74 235.506 L2150.74 219.997 Q2150.74 216.247 2149.42 214.465 Q2148.1 212.659 2145.35 212.659 Q2142.08 212.659 2140.16 214.881 Q2138.24 217.08 2138.24 220.854 L2138.24 235.506 L2133.96 235.506 L2133.96 209.58 L2138.24 209.58 L2138.24 213.608 Q2139.7 211.224 2141.74 210.09 Q2143.77 208.955 2146.57 208.955 Q2149.4 208.955 2151.37 210.391 Q2153.36 211.826 2154.3 214.557 Z" fill="#000000" fill-rule="evenodd" fill-opacity="1" /><polyline clip-path="url(#clip600)" style="stroke:#e26f46; stroke-linecap:butt; stroke-linejoin:round; stroke-width:4; stroke-opacity:1; fill:none" points="
  1843.73,270.066 1974.48,270.066 
  "/>
<path clip-path="url(#clip600)" d="M1996.27 252.786 L2000.95 252.786 L2000.95 283.411 L2017.78 283.411 L2017.78 287.346 L1996.27 287.346 L1996.27 252.786 Z" fill="#000000" fill-rule="evenodd" fill-opacity="1" /><path clip-path="url(#clip600)" d="M2022.69 252.786 L2027.36 252.786 L2027.36 266.953 L2044.35 266.953 L2044.35 252.786 L2049.03 252.786 L2049.03 287.346 L2044.35 287.346 L2044.35 270.888 L2027.36 270.888 L2027.36 287.346 L2022.69 287.346 L2022.69 252.786 Z" fill="#000000" fill-rule="evenodd" fill-opacity="1" /><polyline clip-path="url(#clip600)" style="stroke:#3da44d; stroke-linecap:butt; stroke-linejoin:round; stroke-width:4; stroke-opacity:1; fill:none" points="
  1843.73,321.906 1974.48,321.906 
  "/>
<path clip-path="url(#clip600)" d="M2000.95 322.682 L2000.95 335.344 L2008.45 335.344 Q2012.22 335.344 2014.03 333.793 Q2015.86 332.219 2015.86 329.001 Q2015.86 325.76 2014.03 324.233 Q2012.22 322.682 2008.45 322.682 L2000.95 322.682 M2000.95 308.469 L2000.95 318.885 L2007.87 318.885 Q2011.3 318.885 2012.96 317.612 Q2014.65 316.316 2014.65 313.677 Q2014.65 311.061 2012.96 309.765 Q2011.3 308.469 2007.87 308.469 L2000.95 308.469 M1996.27 304.626 L2008.22 304.626 Q2013.56 304.626 2016.46 306.848 Q2019.35 309.071 2019.35 313.168 Q2019.35 316.339 2017.87 318.214 Q2016.39 320.089 2013.52 320.552 Q2016.97 321.293 2018.87 323.654 Q2020.79 325.992 2020.79 329.51 Q2020.79 334.14 2017.64 336.663 Q2014.49 339.186 2008.68 339.186 L1996.27 339.186 L1996.27 304.626 Z" fill="#000000" fill-rule="evenodd" fill-opacity="1" /><path clip-path="url(#clip600)" d="M2041.99 307.798 Q2036.9 307.798 2033.89 311.594 Q2030.9 315.39 2030.9 321.941 Q2030.9 328.469 2033.89 332.265 Q2036.9 336.061 2041.99 336.061 Q2047.08 336.061 2050.05 332.265 Q2053.03 328.469 2053.03 321.941 Q2053.03 315.39 2050.05 311.594 Q2047.08 307.798 2041.99 307.798 M2041.99 304.001 Q2049.26 304.001 2053.61 308.886 Q2057.96 313.747 2057.96 321.941 Q2057.96 330.112 2053.61 334.996 Q2049.26 339.858 2041.99 339.858 Q2034.7 339.858 2030.32 334.996 Q2025.97 330.135 2025.97 321.941 Q2025.97 313.747 2030.32 308.886 Q2034.7 304.001 2041.99 304.001 Z" fill="#000000" fill-rule="evenodd" fill-opacity="1" /><path clip-path="url(#clip600)" d="M2065.28 304.626 L2069.95 304.626 L2069.95 318.793 L2086.94 318.793 L2086.94 304.626 L2091.62 304.626 L2091.62 339.186 L2086.94 339.186 L2086.94 322.728 L2069.95 322.728 L2069.95 339.186 L2065.28 339.186 L2065.28 304.626 Z" fill="#000000" fill-rule="evenodd" fill-opacity="1" /><path clip-path="url(#clip600)" d="M2105.6 322.682 L2105.6 335.344 L2113.1 335.344 Q2116.87 335.344 2118.68 333.793 Q2120.51 332.219 2120.51 329.001 Q2120.51 325.76 2118.68 324.233 Q2116.87 322.682 2113.1 322.682 L2105.6 322.682 M2105.6 308.469 L2105.6 318.885 L2112.52 318.885 Q2115.95 318.885 2117.62 317.612 Q2119.31 316.316 2119.31 313.677 Q2119.31 311.061 2117.62 309.765 Q2115.95 308.469 2112.52 308.469 L2105.6 308.469 M2100.93 304.626 L2112.87 304.626 Q2118.22 304.626 2121.11 306.848 Q2124 309.071 2124 313.168 Q2124 316.339 2122.52 318.214 Q2121.04 320.089 2118.17 320.552 Q2121.62 321.293 2123.52 323.654 Q2125.44 325.992 2125.44 329.51 Q2125.44 334.14 2122.29 336.663 Q2119.14 339.186 2113.33 339.186 L2100.93 339.186 L2100.93 304.626 Z" fill="#000000" fill-rule="evenodd" fill-opacity="1" /><polyline clip-path="url(#clip600)" style="stroke:#c271d2; stroke-linecap:butt; stroke-linejoin:round; stroke-width:4; stroke-opacity:1; fill:none" points="
  1843.73,373.746 1974.48,373.746 
  "/>
<path clip-path="url(#clip600)" d="M2017.99 375.378 L2017.99 391.026 L2013.73 391.026 L2013.73 375.517 Q2013.73 371.837 2012.29 370.008 Q2010.86 368.179 2007.99 368.179 Q2004.54 368.179 2002.55 370.378 Q2000.56 372.577 2000.56 376.374 L2000.56 391.026 L1996.27 391.026 L1996.27 355.008 L2000.56 355.008 L2000.56 369.128 Q2002.08 366.79 2004.14 365.633 Q2006.23 364.475 2008.94 364.475 Q2013.4 364.475 2015.69 367.253 Q2017.99 370.008 2017.99 375.378 Z" fill="#000000" fill-rule="evenodd" fill-opacity="1" /><path clip-path="url(#clip600)" d="M2037.27 393.434 Q2035.46 398.063 2033.75 399.475 Q2032.04 400.887 2029.17 400.887 L2025.76 400.887 L2025.76 397.323 L2028.26 397.323 Q2030.02 397.323 2031 396.489 Q2031.97 395.656 2033.15 392.554 L2033.91 390.61 L2023.43 365.1 L2027.94 365.1 L2036.04 385.378 L2044.14 365.1 L2048.66 365.1 L2037.27 393.434 Z" fill="#000000" fill-rule="evenodd" fill-opacity="1" /><path clip-path="url(#clip600)" d="M2058.66 387.137 L2058.66 400.887 L2054.37 400.887 L2054.37 365.1 L2058.66 365.1 L2058.66 369.036 Q2060 366.721 2062.04 365.61 Q2064.1 364.475 2066.94 364.475 Q2071.67 364.475 2074.61 368.225 Q2077.57 371.975 2077.57 378.087 Q2077.57 384.198 2074.61 387.948 Q2071.67 391.698 2066.94 391.698 Q2064.1 391.698 2062.04 390.586 Q2060 389.452 2058.66 387.137 M2073.15 378.087 Q2073.15 373.387 2071.2 370.725 Q2069.28 368.04 2065.9 368.04 Q2062.52 368.04 2060.58 370.725 Q2058.66 373.387 2058.66 378.087 Q2058.66 382.786 2060.58 385.471 Q2062.52 388.133 2065.9 388.133 Q2069.28 388.133 2071.2 385.471 Q2073.15 382.786 2073.15 378.087 Z" fill="#000000" fill-rule="evenodd" fill-opacity="1" /><path clip-path="url(#clip600)" d="M2106.81 376.999 L2106.81 379.082 L2087.22 379.082 Q2087.5 383.48 2089.86 385.795 Q2092.25 388.086 2096.48 388.086 Q2098.93 388.086 2101.23 387.485 Q2103.54 386.883 2105.81 385.679 L2105.81 389.707 Q2103.52 390.679 2101.11 391.188 Q2098.7 391.698 2096.23 391.698 Q2090.02 391.698 2086.39 388.086 Q2082.78 384.475 2082.78 378.318 Q2082.78 371.952 2086.2 368.225 Q2089.65 364.475 2095.49 364.475 Q2100.72 364.475 2103.75 367.855 Q2106.81 371.212 2106.81 376.999 M2102.55 375.749 Q2102.5 372.253 2100.58 370.17 Q2098.68 368.087 2095.53 368.087 Q2091.97 368.087 2089.81 370.1 Q2087.68 372.114 2087.36 375.772 L2102.55 375.749 Z" fill="#000000" fill-rule="evenodd" fill-opacity="1" /><path clip-path="url(#clip600)" d="M2128.82 369.082 Q2128.1 368.665 2127.24 368.48 Q2126.41 368.272 2125.39 368.272 Q2121.78 368.272 2119.84 370.633 Q2117.92 372.971 2117.92 377.369 L2117.92 391.026 L2113.63 391.026 L2113.63 365.1 L2117.92 365.1 L2117.92 369.128 Q2119.26 366.767 2121.41 365.633 Q2123.56 364.475 2126.64 364.475 Q2127.08 364.475 2127.62 364.545 Q2128.15 364.591 2128.8 364.707 L2128.82 369.082 Z" fill="#000000" fill-rule="evenodd" fill-opacity="1" /><path clip-path="url(#clip600)" d="M2151.9 378.087 Q2151.9 373.387 2149.95 370.725 Q2148.03 368.04 2144.65 368.04 Q2141.27 368.04 2139.33 370.725 Q2137.41 373.387 2137.41 378.087 Q2137.41 382.786 2139.33 385.471 Q2141.27 388.133 2144.65 388.133 Q2148.03 388.133 2149.95 385.471 Q2151.9 382.786 2151.9 378.087 M2137.41 369.036 Q2138.75 366.721 2140.79 365.61 Q2142.85 364.475 2145.69 364.475 Q2150.42 364.475 2153.36 368.225 Q2156.32 371.975 2156.32 378.087 Q2156.32 384.198 2153.36 387.948 Q2150.42 391.698 2145.69 391.698 Q2142.85 391.698 2140.79 390.586 Q2138.75 389.452 2137.41 387.137 L2137.41 391.026 L2133.12 391.026 L2133.12 355.008 L2137.41 355.008 L2137.41 369.036 Z" fill="#000000" fill-rule="evenodd" fill-opacity="1" /><path clip-path="url(#clip600)" d="M2175.16 377.994 Q2170 377.994 2168.01 379.174 Q2166.02 380.355 2166.02 383.202 Q2166.02 385.471 2167.5 386.813 Q2169 388.133 2171.57 388.133 Q2175.12 388.133 2177.24 385.633 Q2179.4 383.11 2179.4 378.943 L2179.4 377.994 L2175.16 377.994 M2183.66 376.235 L2183.66 391.026 L2179.4 391.026 L2179.4 387.091 Q2177.94 389.452 2175.76 390.586 Q2173.59 391.698 2170.44 391.698 Q2166.46 391.698 2164.1 389.475 Q2161.76 387.23 2161.76 383.48 Q2161.76 379.105 2164.68 376.883 Q2167.62 374.661 2173.43 374.661 L2179.4 374.661 L2179.4 374.244 Q2179.4 371.304 2177.45 369.707 Q2175.53 368.087 2172.04 368.087 Q2169.81 368.087 2167.71 368.619 Q2165.6 369.151 2163.66 370.216 L2163.66 366.281 Q2165.99 365.378 2168.19 364.938 Q2170.39 364.475 2172.48 364.475 Q2178.1 364.475 2180.88 367.392 Q2183.66 370.309 2183.66 376.235 Z" fill="#000000" fill-rule="evenodd" fill-opacity="1" /><path clip-path="url(#clip600)" d="M2213.98 375.378 L2213.98 391.026 L2209.72 391.026 L2209.72 375.517 Q2209.72 371.837 2208.29 370.008 Q2206.85 368.179 2203.98 368.179 Q2200.53 368.179 2198.54 370.378 Q2196.55 372.577 2196.55 376.374 L2196.55 391.026 L2192.27 391.026 L2192.27 365.1 L2196.55 365.1 L2196.55 369.128 Q2198.08 366.79 2200.14 365.633 Q2202.22 364.475 2204.93 364.475 Q2209.4 364.475 2211.69 367.253 Q2213.98 370.008 2213.98 375.378 Z" fill="#000000" fill-rule="evenodd" fill-opacity="1" /><path clip-path="url(#clip600)" d="M2239.54 369.036 L2239.54 355.008 L2243.8 355.008 L2243.8 391.026 L2239.54 391.026 L2239.54 387.137 Q2238.19 389.452 2236.13 390.586 Q2234.1 391.698 2231.23 391.698 Q2226.53 391.698 2223.56 387.948 Q2220.62 384.198 2220.62 378.087 Q2220.62 371.975 2223.56 368.225 Q2226.53 364.475 2231.23 364.475 Q2234.1 364.475 2236.13 365.61 Q2238.19 366.721 2239.54 369.036 M2225.02 378.087 Q2225.02 382.786 2226.94 385.471 Q2228.89 388.133 2232.27 388.133 Q2235.65 388.133 2237.59 385.471 Q2239.54 382.786 2239.54 378.087 Q2239.54 373.387 2237.59 370.725 Q2235.65 368.04 2232.27 368.04 Q2228.89 368.04 2226.94 370.725 Q2225.02 373.387 2225.02 378.087 Z" fill="#000000" fill-rule="evenodd" fill-opacity="1" /></svg>
