<?xml version="1.0" encoding="utf-8"?>
<svg xmlns="http://www.w3.org/2000/svg" xmlns:xlink="http://www.w3.org/1999/xlink" width="600" height="400" viewBox="0 0 2400 1600">
<defs>
  <clipPath id="clip630">
    <rect x="0" y="0" width="2400" height="1600"/>
  </clipPath>
</defs>
<path clip-path="url(#clip630)" d="
M0 1600 L2400 1600 L2400 0 L0 0  Z
  " fill="#ffffff" fill-rule="evenodd" fill-opacity="1"/>
<defs>
  <clipPath id="clip631">
    <rect x="480" y="0" width="1681" height="1600"/>
  </clipPath>
</defs>
<path clip-path="url(#clip630)" d="
M361.463 1410.9 L2352.76 1410.9 L2352.76 123.472 L361.463 123.472  Z
  " fill="#ffffff" fill-rule="evenodd" fill-opacity="1"/>
<defs>
  <clipPath id="clip632">
    <rect x="361" y="123" width="1992" height="1288"/>
  </clipPath>
</defs>
<polyline clip-path="url(#clip632)" style="stroke:#000000; stroke-linecap:butt; stroke-linejoin:round; stroke-width:2; stroke-opacity:0.1; fill:none" points="
  1095.86,1410.9 1095.86,123.472 
  "/>
<polyline clip-path="url(#clip632)" style="stroke:#000000; stroke-linecap:butt; stroke-linejoin:round; stroke-width:2; stroke-opacity:0.1; fill:none" points="
  1911.25,1410.9 1911.25,123.472 
  "/>
<polyline clip-path="url(#clip630)" style="stroke:#000000; stroke-linecap:butt; stroke-linejoin:round; stroke-width:4; stroke-opacity:1; fill:none" points="
  361.463,1410.9 2352.76,1410.9 
  "/>
<polyline clip-path="url(#clip630)" style="stroke:#000000; stroke-linecap:butt; stroke-linejoin:round; stroke-width:4; stroke-opacity:1; fill:none" points="
  1095.86,1410.9 1095.86,1395.45 
  "/>
<polyline clip-path="url(#clip630)" style="stroke:#000000; stroke-linecap:butt; stroke-linejoin:round; stroke-width:4; stroke-opacity:1; fill:none" points="
  1911.25,1410.9 1911.25,1395.45 
  "/>
<path clip-path="url(#clip630)" d="M1060.84 1489.17 L1068.48 1489.17 L1068.48 1462.8 L1060.17 1464.47 L1060.17 1460.21 L1068.43 1458.54 L1073.11 1458.54 L1073.11 1489.17 L1080.75 1489.17 L1080.75 1493.1 L1060.84 1493.1 L1060.84 1489.17 Z" fill="#000000" fill-rule="evenodd" fill-opacity="1" /><path clip-path="url(#clip630)" d="M1100.19 1461.62 Q1096.58 1461.62 1094.75 1465.19 Q1092.95 1468.73 1092.95 1475.86 Q1092.95 1482.97 1094.75 1486.53 Q1096.58 1490.07 1100.19 1490.07 Q1103.83 1490.07 1105.63 1486.53 Q1107.46 1482.97 1107.46 1475.86 Q1107.46 1468.73 1105.63 1465.19 Q1103.83 1461.62 1100.19 1461.62 M1100.19 1457.92 Q1106 1457.92 1109.06 1462.53 Q1112.14 1467.11 1112.14 1475.86 Q1112.14 1484.59 1109.06 1489.19 Q1106 1493.78 1100.19 1493.78 Q1094.38 1493.78 1091.3 1489.19 Q1088.25 1484.59 1088.25 1475.86 Q1088.25 1467.11 1091.3 1462.53 Q1094.38 1457.92 1100.19 1457.92 Z" fill="#000000" fill-rule="evenodd" fill-opacity="1" /><path clip-path="url(#clip630)" d="M1121.84 1440.11 Q1118.91 1440.11 1117.42 1443.01 Q1115.95 1445.89 1115.95 1451.68 Q1115.95 1457.46 1117.42 1460.35 Q1118.91 1463.23 1121.84 1463.23 Q1124.79 1463.23 1126.26 1460.35 Q1127.75 1457.46 1127.75 1451.68 Q1127.75 1445.89 1126.26 1443.01 Q1124.79 1440.11 1121.84 1440.11 M1121.84 1437.11 Q1126.56 1437.11 1129.05 1440.85 Q1131.55 1444.57 1131.55 1451.68 Q1131.55 1458.77 1129.05 1462.51 Q1126.56 1466.24 1121.84 1466.24 Q1117.12 1466.24 1114.62 1462.51 Q1112.14 1458.77 1112.14 1451.68 Q1112.14 1444.57 1114.62 1440.85 Q1117.12 1437.11 1121.84 1437.11 Z" fill="#000000" fill-rule="evenodd" fill-opacity="1" /><path clip-path="url(#clip630)" d="M1877.02 1489.17 L1884.66 1489.17 L1884.66 1462.8 L1876.35 1464.47 L1876.35 1460.21 L1884.61 1458.54 L1889.29 1458.54 L1889.29 1489.17 L1896.93 1489.17 L1896.93 1493.1 L1877.02 1493.1 L1877.02 1489.17 Z" fill="#000000" fill-rule="evenodd" fill-opacity="1" /><path clip-path="url(#clip630)" d="M1916.37 1461.62 Q1912.76 1461.62 1910.93 1465.19 Q1909.13 1468.73 1909.13 1475.86 Q1909.13 1482.97 1910.93 1486.53 Q1912.76 1490.07 1916.37 1490.07 Q1920.01 1490.07 1921.81 1486.53 Q1923.64 1482.97 1923.64 1475.86 Q1923.64 1468.73 1921.81 1465.19 Q1920.01 1461.62 1916.37 1461.62 M1916.37 1457.92 Q1922.18 1457.92 1925.24 1462.53 Q1928.32 1467.11 1928.32 1475.86 Q1928.32 1484.59 1925.24 1489.19 Q1922.18 1493.78 1916.37 1493.78 Q1910.56 1493.78 1907.48 1489.19 Q1904.43 1484.59 1904.43 1475.86 Q1904.43 1467.11 1907.48 1462.53 Q1910.56 1457.92 1916.37 1457.92 Z" fill="#000000" fill-rule="evenodd" fill-opacity="1" /><path clip-path="url(#clip630)" d="M1932.89 1462.5 L1946.15 1462.5 L1946.15 1465.69 L1928.32 1465.69 L1928.32 1462.5 Q1930.48 1460.26 1934.2 1456.5 Q1937.95 1452.72 1938.91 1451.63 Q1940.73 1449.58 1941.45 1448.16 Q1942.18 1446.74 1942.18 1445.36 Q1942.18 1443.12 1940.6 1441.71 Q1939.04 1440.3 1936.52 1440.3 Q1934.73 1440.3 1932.74 1440.92 Q1930.76 1441.54 1928.51 1442.8 L1928.51 1438.97 Q1930.8 1438.05 1932.79 1437.58 Q1934.79 1437.11 1936.44 1437.11 Q1940.81 1437.11 1943.4 1439.29 Q1946 1441.47 1946 1445.12 Q1946 1446.85 1945.34 1448.41 Q1944.7 1449.95 1942.99 1452.06 Q1942.52 1452.6 1940 1455.22 Q1937.48 1457.81 1932.89 1462.5 Z" fill="#000000" fill-rule="evenodd" fill-opacity="1" /><path clip-path="url(#clip630)" d="M1159.65 1528.42 L1159.65 1538.54 L1171.71 1538.54 L1171.71 1543.09 L1159.65 1543.09 L1159.65 1562.44 Q1159.65 1566.8 1160.82 1568.04 Q1162.03 1569.28 1165.69 1569.28 L1171.71 1569.28 L1171.71 1574.19 L1165.69 1574.19 Q1158.91 1574.19 1156.33 1571.67 Q1153.76 1569.12 1153.76 1562.44 L1153.76 1543.09 L1149.46 1543.09 L1149.46 1538.54 L1153.76 1538.54 L1153.76 1528.42 L1159.65 1528.42 Z" fill="#000000" fill-rule="evenodd" fill-opacity="1" /><path clip-path="url(#clip630)" d="M1179.41 1538.54 L1185.27 1538.54 L1185.27 1574.19 L1179.41 1574.19 L1179.41 1538.54 M1179.41 1524.66 L1185.27 1524.66 L1185.27 1532.08 L1179.41 1532.08 L1179.41 1524.66 Z" fill="#000000" fill-rule="evenodd" fill-opacity="1" /><path clip-path="url(#clip630)" d="M1225.28 1545.38 Q1227.47 1541.43 1230.53 1539.56 Q1233.58 1537.68 1237.72 1537.68 Q1243.29 1537.68 1246.31 1541.59 Q1249.34 1545.48 1249.34 1552.67 L1249.34 1574.19 L1243.45 1574.19 L1243.45 1552.86 Q1243.45 1547.74 1241.64 1545.25 Q1239.82 1542.77 1236.1 1542.77 Q1231.55 1542.77 1228.9 1545.79 Q1226.26 1548.82 1226.26 1554.04 L1226.26 1574.19 L1220.37 1574.19 L1220.37 1552.86 Q1220.37 1547.7 1218.56 1545.25 Q1216.75 1542.77 1212.96 1542.77 Q1208.47 1542.77 1205.83 1545.83 Q1203.19 1548.85 1203.19 1554.04 L1203.19 1574.19 L1197.3 1574.19 L1197.3 1538.54 L1203.19 1538.54 L1203.19 1544.08 Q1205.19 1540.8 1207.99 1539.24 Q1210.79 1537.68 1214.64 1537.68 Q1218.53 1537.68 1221.23 1539.65 Q1223.97 1541.62 1225.28 1545.38 Z" fill="#000000" fill-rule="evenodd" fill-opacity="1" /><path clip-path="url(#clip630)" d="M1291.51 1554.9 L1291.51 1557.76 L1264.58 1557.76 Q1264.97 1563.81 1268.21 1566.99 Q1271.49 1570.14 1277.32 1570.14 Q1280.69 1570.14 1283.84 1569.32 Q1287.02 1568.49 1290.14 1566.83 L1290.14 1572.37 Q1286.99 1573.71 1283.68 1574.41 Q1280.37 1575.11 1276.97 1575.11 Q1268.44 1575.11 1263.44 1570.14 Q1258.47 1565.18 1258.47 1556.71 Q1258.47 1547.96 1263.18 1542.83 Q1267.93 1537.68 1275.95 1537.68 Q1283.14 1537.68 1287.31 1542.33 Q1291.51 1546.94 1291.51 1554.9 M1285.65 1553.18 Q1285.59 1548.37 1282.95 1545.51 Q1280.34 1542.64 1276.01 1542.64 Q1271.11 1542.64 1268.15 1545.41 Q1265.22 1548.18 1264.77 1553.21 L1285.65 1553.18 Z" fill="#000000" fill-rule="evenodd" fill-opacity="1" /><path clip-path="url(#clip630)" d="M1352.34 1554.9 L1352.34 1557.76 L1325.41 1557.76 Q1325.79 1563.81 1329.04 1566.99 Q1332.31 1570.14 1338.14 1570.14 Q1341.51 1570.14 1344.66 1569.32 Q1347.85 1568.49 1350.97 1566.83 L1350.97 1572.37 Q1347.82 1573.71 1344.51 1574.41 Q1341.2 1575.11 1337.79 1575.11 Q1329.26 1575.11 1324.26 1570.14 Q1319.3 1565.18 1319.3 1556.71 Q1319.3 1547.96 1324.01 1542.83 Q1328.75 1537.68 1336.77 1537.68 Q1343.96 1537.68 1348.13 1542.33 Q1352.34 1546.94 1352.34 1554.9 M1346.48 1553.18 Q1346.41 1548.37 1343.77 1545.51 Q1341.16 1542.64 1336.83 1542.64 Q1331.93 1542.64 1328.97 1545.41 Q1326.04 1548.18 1325.6 1553.21 L1346.48 1553.18 Z" fill="#000000" fill-rule="evenodd" fill-opacity="1" /><path clip-path="url(#clip630)" d="M1361.95 1524.66 L1367.8 1524.66 L1367.8 1574.19 L1361.95 1574.19 L1361.95 1524.66 Z" fill="#000000" fill-rule="evenodd" fill-opacity="1" /><path clip-path="url(#clip630)" d="M1396.26 1556.27 Q1389.16 1556.27 1386.42 1557.89 Q1383.69 1559.51 1383.69 1563.43 Q1383.69 1566.55 1385.72 1568.39 Q1387.79 1570.21 1391.32 1570.21 Q1396.19 1570.21 1399.12 1566.77 Q1402.08 1563.3 1402.08 1557.57 L1402.08 1556.27 L1396.26 1556.27 M1407.94 1553.85 L1407.94 1574.19 L1402.08 1574.19 L1402.08 1568.77 Q1400.08 1572.02 1397.09 1573.58 Q1394.09 1575.11 1389.77 1575.11 Q1384.29 1575.11 1381.04 1572.05 Q1377.83 1568.97 1377.83 1563.81 Q1377.83 1557.79 1381.84 1554.74 Q1385.88 1551.68 1393.87 1551.68 L1402.08 1551.68 L1402.08 1551.11 Q1402.08 1547.07 1399.41 1544.87 Q1396.77 1542.64 1391.96 1542.64 Q1388.91 1542.64 1386.01 1543.38 Q1383.11 1544.11 1380.44 1545.57 L1380.44 1540.16 Q1383.65 1538.92 1386.68 1538.31 Q1389.7 1537.68 1392.57 1537.68 Q1400.3 1537.68 1404.12 1541.69 Q1407.94 1545.7 1407.94 1553.85 Z" fill="#000000" fill-rule="evenodd" fill-opacity="1" /><path clip-path="url(#clip630)" d="M1425.67 1568.84 L1425.67 1587.74 L1419.78 1587.74 L1419.78 1538.54 L1425.67 1538.54 L1425.67 1543.95 Q1427.51 1540.77 1430.31 1539.24 Q1433.15 1537.68 1437.06 1537.68 Q1443.56 1537.68 1447.6 1542.83 Q1451.67 1547.99 1451.67 1556.39 Q1451.67 1564.8 1447.6 1569.95 Q1443.56 1575.11 1437.06 1575.11 Q1433.15 1575.11 1430.31 1573.58 Q1427.51 1572.02 1425.67 1568.84 M1445.59 1556.39 Q1445.59 1549.93 1442.92 1546.27 Q1440.28 1542.58 1435.63 1542.58 Q1430.98 1542.58 1428.31 1546.27 Q1425.67 1549.93 1425.67 1556.39 Q1425.67 1562.85 1428.31 1566.55 Q1430.98 1570.21 1435.63 1570.21 Q1440.28 1570.21 1442.92 1566.55 Q1445.59 1562.85 1445.59 1556.39 Z" fill="#000000" fill-rule="evenodd" fill-opacity="1" /><path clip-path="url(#clip630)" d="M1484.11 1539.59 L1484.11 1545.13 Q1481.62 1543.85 1478.95 1543.22 Q1476.28 1542.58 1473.41 1542.58 Q1469.05 1542.58 1466.85 1543.92 Q1464.69 1545.25 1464.69 1547.93 Q1464.69 1549.96 1466.25 1551.14 Q1467.81 1552.29 1472.52 1553.34 L1474.52 1553.78 Q1480.76 1555.12 1483.37 1557.57 Q1486.01 1559.99 1486.01 1564.35 Q1486.01 1569.32 1482.07 1572.21 Q1478.15 1575.11 1471.28 1575.11 Q1468.41 1575.11 1465.29 1574.54 Q1462.21 1573.99 1458.77 1572.88 L1458.77 1566.83 Q1462.02 1568.52 1465.17 1569.38 Q1468.32 1570.21 1471.41 1570.21 Q1475.54 1570.21 1477.77 1568.81 Q1480 1567.37 1480 1564.8 Q1480 1562.41 1478.38 1561.14 Q1476.78 1559.86 1471.34 1558.68 L1469.3 1558.21 Q1463.86 1557.06 1461.44 1554.71 Q1459.02 1552.32 1459.02 1548.18 Q1459.02 1543.15 1462.59 1540.42 Q1466.15 1537.68 1472.71 1537.68 Q1475.96 1537.68 1478.82 1538.16 Q1481.69 1538.63 1484.11 1539.59 Z" fill="#000000" fill-rule="evenodd" fill-opacity="1" /><path clip-path="url(#clip630)" d="M1525.83 1554.9 L1525.83 1557.76 L1498.91 1557.76 Q1499.29 1563.81 1502.53 1566.99 Q1505.81 1570.14 1511.64 1570.14 Q1515.01 1570.14 1518.16 1569.32 Q1521.34 1568.49 1524.46 1566.83 L1524.46 1572.37 Q1521.31 1573.71 1518 1574.41 Q1514.69 1575.11 1511.29 1575.11 Q1502.76 1575.11 1497.76 1570.14 Q1492.79 1565.18 1492.79 1556.71 Q1492.79 1547.96 1497.5 1542.83 Q1502.25 1537.68 1510.27 1537.68 Q1517.46 1537.68 1521.63 1542.33 Q1525.83 1546.94 1525.83 1554.9 M1519.98 1553.18 Q1519.91 1548.37 1517.27 1545.51 Q1514.66 1542.64 1510.33 1542.64 Q1505.43 1542.64 1502.47 1545.41 Q1499.54 1548.18 1499.1 1553.21 L1519.98 1553.18 Z" fill="#000000" fill-rule="evenodd" fill-opacity="1" /><path clip-path="url(#clip630)" d="M1558.9 1543.95 L1558.9 1524.66 L1564.76 1524.66 L1564.76 1574.19 L1558.9 1574.19 L1558.9 1568.84 Q1557.06 1572.02 1554.22 1573.58 Q1551.42 1575.11 1547.48 1575.11 Q1541.01 1575.11 1536.94 1569.95 Q1532.9 1564.8 1532.9 1556.39 Q1532.9 1547.99 1536.94 1542.83 Q1541.01 1537.68 1547.48 1537.68 Q1551.42 1537.68 1554.22 1539.24 Q1557.06 1540.77 1558.9 1543.95 M1538.95 1556.39 Q1538.95 1562.85 1541.59 1566.55 Q1544.26 1570.21 1548.91 1570.21 Q1553.56 1570.21 1556.23 1566.55 Q1558.9 1562.85 1558.9 1556.39 Q1558.9 1549.93 1556.23 1546.27 Q1553.56 1542.58 1548.91 1542.58 Q1544.26 1542.58 1541.59 1546.27 Q1538.95 1549.93 1538.95 1556.39 Z" fill="#000000" fill-rule="evenodd" fill-opacity="1" /><polyline clip-path="url(#clip632)" style="stroke:#000000; stroke-linecap:butt; stroke-linejoin:round; stroke-width:2; stroke-opacity:0.1; fill:none" points="
  361.463,1374.46 2352.76,1374.46 
  "/>
<polyline clip-path="url(#clip632)" style="stroke:#000000; stroke-linecap:butt; stroke-linejoin:round; stroke-width:2; stroke-opacity:0.1; fill:none" points="
  361.463,1124.4 2352.76,1124.4 
  "/>
<polyline clip-path="url(#clip632)" style="stroke:#000000; stroke-linecap:butt; stroke-linejoin:round; stroke-width:2; stroke-opacity:0.1; fill:none" points="
  361.463,874.349 2352.76,874.349 
  "/>
<polyline clip-path="url(#clip632)" style="stroke:#000000; stroke-linecap:butt; stroke-linejoin:round; stroke-width:2; stroke-opacity:0.1; fill:none" points="
  361.463,624.293 2352.76,624.293 
  "/>
<polyline clip-path="url(#clip632)" style="stroke:#000000; stroke-linecap:butt; stroke-linejoin:round; stroke-width:2; stroke-opacity:0.1; fill:none" points="
  361.463,374.238 2352.76,374.238 
  "/>
<polyline clip-path="url(#clip632)" style="stroke:#000000; stroke-linecap:butt; stroke-linejoin:round; stroke-width:2; stroke-opacity:0.1; fill:none" points="
  361.463,124.182 2352.76,124.182 
  "/>
<polyline clip-path="url(#clip630)" style="stroke:#000000; stroke-linecap:butt; stroke-linejoin:round; stroke-width:4; stroke-opacity:1; fill:none" points="
  361.463,1410.9 361.463,123.472 
  "/>
<polyline clip-path="url(#clip630)" style="stroke:#000000; stroke-linecap:butt; stroke-linejoin:round; stroke-width:4; stroke-opacity:1; fill:none" points="
  361.463,1374.46 385.358,1374.46 
  "/>
<polyline clip-path="url(#clip630)" style="stroke:#000000; stroke-linecap:butt; stroke-linejoin:round; stroke-width:4; stroke-opacity:1; fill:none" points="
  361.463,1124.4 385.358,1124.4 
  "/>
<polyline clip-path="url(#clip630)" style="stroke:#000000; stroke-linecap:butt; stroke-linejoin:round; stroke-width:4; stroke-opacity:1; fill:none" points="
  361.463,874.349 385.358,874.349 
  "/>
<polyline clip-path="url(#clip630)" style="stroke:#000000; stroke-linecap:butt; stroke-linejoin:round; stroke-width:4; stroke-opacity:1; fill:none" points="
  361.463,624.293 385.358,624.293 
  "/>
<polyline clip-path="url(#clip630)" style="stroke:#000000; stroke-linecap:butt; stroke-linejoin:round; stroke-width:4; stroke-opacity:1; fill:none" points="
  361.463,374.238 385.358,374.238 
  "/>
<polyline clip-path="url(#clip630)" style="stroke:#000000; stroke-linecap:butt; stroke-linejoin:round; stroke-width:4; stroke-opacity:1; fill:none" points="
  361.463,124.182 385.358,124.182 
  "/>
<path clip-path="url(#clip630)" d="M313.518 1360.26 Q309.907 1360.26 308.079 1363.82 Q306.273 1367.37 306.273 1374.49 Q306.273 1381.6 308.079 1385.17 Q309.907 1388.71 313.518 1388.71 Q317.153 1388.71 318.958 1385.17 Q320.787 1381.6 320.787 1374.49 Q320.787 1367.37 318.958 1363.82 Q317.153 1360.26 313.518 1360.26 M313.518 1356.56 Q319.329 1356.56 322.384 1361.16 Q325.463 1365.74 325.463 1374.49 Q325.463 1383.22 322.384 1387.83 Q319.329 1392.41 313.518 1392.41 Q307.708 1392.41 304.63 1387.83 Q301.574 1383.22 301.574 1374.49 Q301.574 1365.74 304.63 1361.16 Q307.708 1356.56 313.518 1356.56 Z" fill="#000000" fill-rule="evenodd" fill-opacity="1" /><path clip-path="url(#clip630)" d="M117.825 1144.2 L125.464 1144.2 L125.464 1117.83 L117.154 1119.5 L117.154 1115.24 L125.418 1113.57 L130.093 1113.57 L130.093 1144.2 L137.732 1144.2 L137.732 1148.13 L117.825 1148.13 L117.825 1144.2 Z" fill="#000000" fill-rule="evenodd" fill-opacity="1" /><path clip-path="url(#clip630)" d="M147.177 1142.25 L152.061 1142.25 L152.061 1148.13 L147.177 1148.13 L147.177 1142.25 Z" fill="#000000" fill-rule="evenodd" fill-opacity="1" /><path clip-path="url(#clip630)" d="M172.246 1116.65 Q168.635 1116.65 166.806 1120.22 Q165.001 1123.76 165.001 1130.89 Q165.001 1137.99 166.806 1141.56 Q168.635 1145.1 172.246 1145.1 Q175.88 1145.1 177.686 1141.56 Q179.514 1137.99 179.514 1130.89 Q179.514 1123.76 177.686 1120.22 Q175.88 1116.65 172.246 1116.65 M172.246 1112.95 Q178.056 1112.95 181.112 1117.55 Q184.19 1122.14 184.19 1130.89 Q184.19 1139.61 181.112 1144.22 Q178.056 1148.8 172.246 1148.8 Q166.436 1148.8 163.357 1144.22 Q160.302 1139.61 160.302 1130.89 Q160.302 1122.14 163.357 1117.55 Q166.436 1112.95 172.246 1112.95 Z" fill="#000000" fill-rule="evenodd" fill-opacity="1" /><path clip-path="url(#clip630)" d="M220.579 1122.67 L210 1133.29 L220.579 1143.87 L217.824 1146.67 L207.199 1136.05 L196.575 1146.67 L193.843 1143.87 L204.399 1133.29 L193.843 1122.67 L196.575 1119.87 L207.199 1130.49 L217.824 1119.87 L220.579 1122.67 Z" fill="#000000" fill-rule="evenodd" fill-opacity="1" /><path clip-path="url(#clip630)" d="M232.94 1144.2 L240.579 1144.2 L240.579 1117.83 L232.269 1119.5 L232.269 1115.24 L240.533 1113.57 L245.209 1113.57 L245.209 1144.2 L252.847 1144.2 L252.847 1148.13 L232.94 1148.13 L232.94 1144.2 Z" fill="#000000" fill-rule="evenodd" fill-opacity="1" /><path clip-path="url(#clip630)" d="M272.292 1116.65 Q268.681 1116.65 266.852 1120.22 Q265.046 1123.76 265.046 1130.89 Q265.046 1137.99 266.852 1141.56 Q268.681 1145.1 272.292 1145.1 Q275.926 1145.1 277.732 1141.56 Q279.56 1137.99 279.56 1130.89 Q279.56 1123.76 277.732 1120.22 Q275.926 1116.65 272.292 1116.65 M272.292 1112.95 Q278.102 1112.95 281.157 1117.55 Q284.236 1122.14 284.236 1130.89 Q284.236 1139.61 281.157 1144.22 Q278.102 1148.8 272.292 1148.8 Q266.482 1148.8 263.403 1144.22 Q260.347 1139.61 260.347 1130.89 Q260.347 1122.14 263.403 1117.55 Q266.482 1112.95 272.292 1112.95 Z" fill="#000000" fill-rule="evenodd" fill-opacity="1" /><path clip-path="url(#clip630)" d="M284.782 1117.52 L290.988 1117.52 L290.988 1096.1 L284.236 1097.46 L284.236 1094 L290.95 1092.64 L294.75 1092.64 L294.75 1117.52 L300.956 1117.52 L300.956 1120.72 L284.782 1120.72 L284.782 1117.52 Z" fill="#000000" fill-rule="evenodd" fill-opacity="1" /><path clip-path="url(#clip630)" d="M309.288 1117.52 L315.495 1117.52 L315.495 1096.1 L308.743 1097.46 L308.743 1094 L315.457 1092.64 L319.256 1092.64 L319.256 1117.52 L325.463 1117.52 L325.463 1120.72 L309.288 1120.72 L309.288 1117.52 Z" fill="#000000" fill-rule="evenodd" fill-opacity="1" /><path clip-path="url(#clip630)" d="M121.043 894.141 L137.362 894.141 L137.362 898.076 L115.418 898.076 L115.418 894.141 Q118.08 891.387 122.663 886.757 Q127.269 882.104 128.45 880.762 Q130.695 878.239 131.575 876.502 Q132.478 874.743 132.478 873.053 Q132.478 870.299 130.533 868.563 Q128.612 866.827 125.51 866.827 Q123.311 866.827 120.857 867.59 Q118.427 868.354 115.649 869.905 L115.649 865.183 Q118.473 864.049 120.927 863.47 Q123.38 862.891 125.418 862.891 Q130.788 862.891 133.982 865.577 Q137.177 868.262 137.177 872.752 Q137.177 874.882 136.367 876.803 Q135.579 878.702 133.473 881.294 Q132.894 881.965 129.792 885.183 Q126.691 888.377 121.043 894.141 Z" fill="#000000" fill-rule="evenodd" fill-opacity="1" /><path clip-path="url(#clip630)" d="M147.177 892.197 L152.061 892.197 L152.061 898.076 L147.177 898.076 L147.177 892.197 Z" fill="#000000" fill-rule="evenodd" fill-opacity="1" /><path clip-path="url(#clip630)" d="M172.246 866.595 Q168.635 866.595 166.806 870.16 Q165.001 873.702 165.001 880.831 Q165.001 887.938 166.806 891.502 Q168.635 895.044 172.246 895.044 Q175.88 895.044 177.686 891.502 Q179.514 887.938 179.514 880.831 Q179.514 873.702 177.686 870.16 Q175.88 866.595 172.246 866.595 M172.246 862.891 Q178.056 862.891 181.112 867.498 Q184.19 872.081 184.19 880.831 Q184.19 889.558 181.112 894.164 Q178.056 898.748 172.246 898.748 Q166.436 898.748 163.357 894.164 Q160.302 889.558 160.302 880.831 Q160.302 872.081 163.357 867.498 Q166.436 862.891 172.246 862.891 Z" fill="#000000" fill-rule="evenodd" fill-opacity="1" /><path clip-path="url(#clip630)" d="M220.579 872.614 L210 883.239 L220.579 893.817 L217.824 896.618 L207.199 885.993 L196.575 896.618 L193.843 893.817 L204.399 883.239 L193.843 872.614 L196.575 869.813 L207.199 880.438 L217.824 869.813 L220.579 872.614 Z" fill="#000000" fill-rule="evenodd" fill-opacity="1" /><path clip-path="url(#clip630)" d="M232.94 894.141 L240.579 894.141 L240.579 867.776 L232.269 869.442 L232.269 865.183 L240.533 863.516 L245.209 863.516 L245.209 894.141 L252.847 894.141 L252.847 898.076 L232.94 898.076 L232.94 894.141 Z" fill="#000000" fill-rule="evenodd" fill-opacity="1" /><path clip-path="url(#clip630)" d="M272.292 866.595 Q268.681 866.595 266.852 870.16 Q265.046 873.702 265.046 880.831 Q265.046 887.938 266.852 891.502 Q268.681 895.044 272.292 895.044 Q275.926 895.044 277.732 891.502 Q279.56 887.938 279.56 880.831 Q279.56 873.702 277.732 870.16 Q275.926 866.595 272.292 866.595 M272.292 862.891 Q278.102 862.891 281.157 867.498 Q284.236 872.081 284.236 880.831 Q284.236 889.558 281.157 894.164 Q278.102 898.748 272.292 898.748 Q266.482 898.748 263.403 894.164 Q260.347 889.558 260.347 880.831 Q260.347 872.081 263.403 867.498 Q266.482 862.891 272.292 862.891 Z" fill="#000000" fill-rule="evenodd" fill-opacity="1" /><path clip-path="url(#clip630)" d="M284.782 867.469 L290.988 867.469 L290.988 846.047 L284.236 847.401 L284.236 843.94 L290.95 842.586 L294.75 842.586 L294.75 867.469 L300.956 867.469 L300.956 870.666 L284.782 870.666 L284.782 867.469 Z" fill="#000000" fill-rule="evenodd" fill-opacity="1" /><path clip-path="url(#clip630)" d="M309.288 867.469 L315.495 867.469 L315.495 846.047 L308.743 847.401 L308.743 843.94 L315.457 842.586 L319.256 842.586 L319.256 867.469 L325.463 867.469 L325.463 870.666 L309.288 870.666 L309.288 867.469 Z" fill="#000000" fill-rule="evenodd" fill-opacity="1" /><path clip-path="url(#clip630)" d="M131.181 629.387 Q134.538 630.104 136.413 632.373 Q138.311 634.641 138.311 637.975 Q138.311 643.09 134.792 645.891 Q131.274 648.692 124.793 648.692 Q122.617 648.692 120.302 648.252 Q118.01 647.836 115.556 646.979 L115.556 642.465 Q117.501 643.6 119.816 644.178 Q122.13 644.757 124.654 644.757 Q129.052 644.757 131.343 643.021 Q133.658 641.285 133.658 637.975 Q133.658 634.919 131.505 633.206 Q129.376 631.47 125.556 631.47 L121.529 631.47 L121.529 627.627 L125.742 627.627 Q129.191 627.627 131.019 626.262 Q132.848 624.873 132.848 622.28 Q132.848 619.618 130.95 618.206 Q129.075 616.771 125.556 616.771 Q123.635 616.771 121.436 617.188 Q119.237 617.604 116.598 618.484 L116.598 614.317 Q119.26 613.577 121.575 613.206 Q123.913 612.836 125.973 612.836 Q131.297 612.836 134.399 615.266 Q137.501 617.674 137.501 621.794 Q137.501 624.664 135.857 626.655 Q134.214 628.623 131.181 629.387 Z" fill="#000000" fill-rule="evenodd" fill-opacity="1" /><path clip-path="url(#clip630)" d="M147.177 642.141 L152.061 642.141 L152.061 648.021 L147.177 648.021 L147.177 642.141 Z" fill="#000000" fill-rule="evenodd" fill-opacity="1" /><path clip-path="url(#clip630)" d="M172.246 616.539 Q168.635 616.539 166.806 620.104 Q165.001 623.646 165.001 630.776 Q165.001 637.882 166.806 641.447 Q168.635 644.988 172.246 644.988 Q175.88 644.988 177.686 641.447 Q179.514 637.882 179.514 630.776 Q179.514 623.646 177.686 620.104 Q175.88 616.539 172.246 616.539 M172.246 612.836 Q178.056 612.836 181.112 617.442 Q184.19 622.026 184.19 630.776 Q184.19 639.502 181.112 644.109 Q178.056 648.692 172.246 648.692 Q166.436 648.692 163.357 644.109 Q160.302 639.502 160.302 630.776 Q160.302 622.026 163.357 617.442 Q166.436 612.836 172.246 612.836 Z" fill="#000000" fill-rule="evenodd" fill-opacity="1" /><path clip-path="url(#clip630)" d="M220.579 622.558 L210 633.183 L220.579 643.762 L217.824 646.562 L207.199 635.938 L196.575 646.562 L193.843 643.762 L204.399 633.183 L193.843 622.558 L196.575 619.757 L207.199 630.382 L217.824 619.757 L220.579 622.558 Z" fill="#000000" fill-rule="evenodd" fill-opacity="1" /><path clip-path="url(#clip630)" d="M232.94 644.086 L240.579 644.086 L240.579 617.72 L232.269 619.387 L232.269 615.127 L240.533 613.461 L245.209 613.461 L245.209 644.086 L252.847 644.086 L252.847 648.021 L232.94 648.021 L232.94 644.086 Z" fill="#000000" fill-rule="evenodd" fill-opacity="1" /><path clip-path="url(#clip630)" d="M272.292 616.539 Q268.681 616.539 266.852 620.104 Q265.046 623.646 265.046 630.776 Q265.046 637.882 266.852 641.447 Q268.681 644.988 272.292 644.988 Q275.926 644.988 277.732 641.447 Q279.56 637.882 279.56 630.776 Q279.56 623.646 277.732 620.104 Q275.926 616.539 272.292 616.539 M272.292 612.836 Q278.102 612.836 281.157 617.442 Q284.236 622.026 284.236 630.776 Q284.236 639.502 281.157 644.109 Q278.102 648.692 272.292 648.692 Q266.482 648.692 263.403 644.109 Q260.347 639.502 260.347 630.776 Q260.347 622.026 263.403 617.442 Q266.482 612.836 272.292 612.836 Z" fill="#000000" fill-rule="evenodd" fill-opacity="1" /><path clip-path="url(#clip630)" d="M284.782 617.413 L290.988 617.413 L290.988 595.991 L284.236 597.345 L284.236 593.885 L290.95 592.53 L294.75 592.53 L294.75 617.413 L300.956 617.413 L300.956 620.61 L284.782 620.61 L284.782 617.413 Z" fill="#000000" fill-rule="evenodd" fill-opacity="1" /><path clip-path="url(#clip630)" d="M309.288 617.413 L315.495 617.413 L315.495 595.991 L308.743 597.345 L308.743 593.885 L315.457 592.53 L319.256 592.53 L319.256 617.413 L325.463 617.413 L325.463 620.61 L309.288 620.61 L309.288 617.413 Z" fill="#000000" fill-rule="evenodd" fill-opacity="1" /><path clip-path="url(#clip630)" d="M129.862 367.479 L118.056 385.928 L129.862 385.928 L129.862 367.479 M128.635 363.405 L134.515 363.405 L134.515 385.928 L139.445 385.928 L139.445 389.817 L134.515 389.817 L134.515 397.965 L129.862 397.965 L129.862 389.817 L114.26 389.817 L114.26 385.303 L128.635 363.405 Z" fill="#000000" fill-rule="evenodd" fill-opacity="1" /><path clip-path="url(#clip630)" d="M147.177 392.086 L152.061 392.086 L152.061 397.965 L147.177 397.965 L147.177 392.086 Z" fill="#000000" fill-rule="evenodd" fill-opacity="1" /><path clip-path="url(#clip630)" d="M172.246 366.484 Q168.635 366.484 166.806 370.049 Q165.001 373.59 165.001 380.72 Q165.001 387.826 166.806 391.391 Q168.635 394.933 172.246 394.933 Q175.88 394.933 177.686 391.391 Q179.514 387.826 179.514 380.72 Q179.514 373.59 177.686 370.049 Q175.88 366.484 172.246 366.484 M172.246 362.78 Q178.056 362.78 181.112 367.387 Q184.19 371.97 184.19 380.72 Q184.19 389.447 181.112 394.053 Q178.056 398.636 172.246 398.636 Q166.436 398.636 163.357 394.053 Q160.302 389.447 160.302 380.72 Q160.302 371.97 163.357 367.387 Q166.436 362.78 172.246 362.78 Z" fill="#000000" fill-rule="evenodd" fill-opacity="1" /><path clip-path="url(#clip630)" d="M220.579 372.502 L210 383.127 L220.579 393.706 L217.824 396.507 L207.199 385.882 L196.575 396.507 L193.843 393.706 L204.399 383.127 L193.843 372.502 L196.575 369.701 L207.199 380.326 L217.824 369.701 L220.579 372.502 Z" fill="#000000" fill-rule="evenodd" fill-opacity="1" /><path clip-path="url(#clip630)" d="M232.94 394.03 L240.579 394.03 L240.579 367.664 L232.269 369.331 L232.269 365.072 L240.533 363.405 L245.209 363.405 L245.209 394.03 L252.847 394.03 L252.847 397.965 L232.94 397.965 L232.94 394.03 Z" fill="#000000" fill-rule="evenodd" fill-opacity="1" /><path clip-path="url(#clip630)" d="M272.292 366.484 Q268.681 366.484 266.852 370.049 Q265.046 373.59 265.046 380.72 Q265.046 387.826 266.852 391.391 Q268.681 394.933 272.292 394.933 Q275.926 394.933 277.732 391.391 Q279.56 387.826 279.56 380.72 Q279.56 373.59 277.732 370.049 Q275.926 366.484 272.292 366.484 M272.292 362.78 Q278.102 362.78 281.157 367.387 Q284.236 371.97 284.236 380.72 Q284.236 389.447 281.157 394.053 Q278.102 398.636 272.292 398.636 Q266.482 398.636 263.403 394.053 Q260.347 389.447 260.347 380.72 Q260.347 371.97 263.403 367.387 Q266.482 362.78 272.292 362.78 Z" fill="#000000" fill-rule="evenodd" fill-opacity="1" /><path clip-path="url(#clip630)" d="M284.782 367.357 L290.988 367.357 L290.988 345.935 L284.236 347.29 L284.236 343.829 L290.95 342.475 L294.75 342.475 L294.75 367.357 L300.956 367.357 L300.956 370.555 L284.782 370.555 L284.782 367.357 Z" fill="#000000" fill-rule="evenodd" fill-opacity="1" /><path clip-path="url(#clip630)" d="M309.288 367.357 L315.495 367.357 L315.495 345.935 L308.743 347.29 L308.743 343.829 L315.457 342.475 L319.256 342.475 L319.256 367.357 L325.463 367.357 L325.463 370.555 L309.288 370.555 L309.288 367.357 Z" fill="#000000" fill-rule="evenodd" fill-opacity="1" /><path clip-path="url(#clip630)" d="M117.061 113.35 L135.417 113.35 L135.417 117.285 L121.343 117.285 L121.343 125.757 Q122.362 125.41 123.38 125.248 Q124.399 125.062 125.418 125.062 Q131.205 125.062 134.584 128.234 Q137.964 131.405 137.964 136.822 Q137.964 142.4 134.492 145.502 Q131.019 148.581 124.7 148.581 Q122.524 148.581 120.255 148.21 Q118.01 147.84 115.603 147.099 L115.603 142.4 Q117.686 143.535 119.908 144.09 Q122.13 144.646 124.607 144.646 Q128.612 144.646 130.95 142.539 Q133.288 140.433 133.288 136.822 Q133.288 133.211 130.95 131.104 Q128.612 128.998 124.607 128.998 Q122.732 128.998 120.857 129.414 Q119.006 129.831 117.061 130.711 L117.061 113.35 Z" fill="#000000" fill-rule="evenodd" fill-opacity="1" /><path clip-path="url(#clip630)" d="M147.177 142.03 L152.061 142.03 L152.061 147.91 L147.177 147.91 L147.177 142.03 Z" fill="#000000" fill-rule="evenodd" fill-opacity="1" /><path clip-path="url(#clip630)" d="M172.246 116.428 Q168.635 116.428 166.806 119.993 Q165.001 123.535 165.001 130.664 Q165.001 137.771 166.806 141.336 Q168.635 144.877 172.246 144.877 Q175.88 144.877 177.686 141.336 Q179.514 137.771 179.514 130.664 Q179.514 123.535 177.686 119.993 Q175.88 116.428 172.246 116.428 M172.246 112.725 Q178.056 112.725 181.112 117.331 Q184.19 121.914 184.19 130.664 Q184.19 139.391 181.112 143.998 Q178.056 148.581 172.246 148.581 Q166.436 148.581 163.357 143.998 Q160.302 139.391 160.302 130.664 Q160.302 121.914 163.357 117.331 Q166.436 112.725 172.246 112.725 Z" fill="#000000" fill-rule="evenodd" fill-opacity="1" /><path clip-path="url(#clip630)" d="M220.579 122.447 L210 133.072 L220.579 143.65 L217.824 146.451 L207.199 135.826 L196.575 146.451 L193.843 143.65 L204.399 133.072 L193.843 122.447 L196.575 119.646 L207.199 130.271 L217.824 119.646 L220.579 122.447 Z" fill="#000000" fill-rule="evenodd" fill-opacity="1" /><path clip-path="url(#clip630)" d="M232.94 143.974 L240.579 143.974 L240.579 117.609 L232.269 119.275 L232.269 115.016 L240.533 113.35 L245.209 113.35 L245.209 143.974 L252.847 143.974 L252.847 147.91 L232.94 147.91 L232.94 143.974 Z" fill="#000000" fill-rule="evenodd" fill-opacity="1" /><path clip-path="url(#clip630)" d="M272.292 116.428 Q268.681 116.428 266.852 119.993 Q265.046 123.535 265.046 130.664 Q265.046 137.771 266.852 141.336 Q268.681 144.877 272.292 144.877 Q275.926 144.877 277.732 141.336 Q279.56 137.771 279.56 130.664 Q279.56 123.535 277.732 119.993 Q275.926 116.428 272.292 116.428 M272.292 112.725 Q278.102 112.725 281.157 117.331 Q284.236 121.914 284.236 130.664 Q284.236 139.391 281.157 143.998 Q278.102 148.581 272.292 148.581 Q266.482 148.581 263.403 143.998 Q260.347 139.391 260.347 130.664 Q260.347 121.914 263.403 117.331 Q266.482 112.725 272.292 112.725 Z" fill="#000000" fill-rule="evenodd" fill-opacity="1" /><path clip-path="url(#clip630)" d="M284.782 117.302 L290.988 117.302 L290.988 95.8798 L284.236 97.2339 L284.236 93.7733 L290.95 92.4191 L294.75 92.4191 L294.75 117.302 L300.956 117.302 L300.956 120.499 L284.782 120.499 L284.782 117.302 Z" fill="#000000" fill-rule="evenodd" fill-opacity="1" /><path clip-path="url(#clip630)" d="M309.288 117.302 L315.495 117.302 L315.495 95.8798 L308.743 97.2339 L308.743 93.7733 L315.457 92.4191 L319.256 92.4191 L319.256 117.302 L325.463 117.302 L325.463 120.499 L309.288 120.499 L309.288 117.302 Z" fill="#000000" fill-rule="evenodd" fill-opacity="1" /><path clip-path="url(#clip630)" d="M33.8307 841.504 Q33.2578 842.491 33.0032 843.668 Q32.7167 844.814 32.7167 846.215 Q32.7167 851.18 35.9632 853.853 Q39.1779 856.495 45.2253 856.495 L64.0042 856.495 L64.0042 862.384 L28.3562 862.384 L28.3562 856.495 L33.8944 856.495 Q30.6479 854.649 29.0883 851.689 Q27.4968 848.729 27.4968 844.496 Q27.4968 843.891 27.5923 843.159 Q27.656 842.427 27.8151 841.536 L33.8307 841.504 Z" fill="#000000" fill-rule="evenodd" fill-opacity="1" /><path clip-path="url(#clip630)" d="M44.7161 806.302 L47.5806 806.302 L47.5806 833.229 Q53.6281 832.847 56.8109 829.6 Q59.9619 826.322 59.9619 820.497 Q59.9619 817.123 59.1344 813.972 Q58.3069 810.789 56.6518 807.67 L62.1899 807.67 Q63.5267 810.821 64.227 814.131 Q64.9272 817.442 64.9272 820.847 Q64.9272 829.377 59.9619 834.374 Q54.9967 839.34 46.5303 839.34 Q37.7774 839.34 32.6531 834.629 Q27.4968 829.887 27.4968 821.866 Q27.4968 814.673 32.1438 810.503 Q36.7589 806.302 44.7161 806.302 M42.9973 812.158 Q38.1912 812.222 35.3266 814.864 Q32.4621 817.473 32.4621 821.802 Q32.4621 826.704 35.2312 829.664 Q38.0002 832.592 43.0292 833.038 L42.9973 812.158 Z" fill="#000000" fill-rule="evenodd" fill-opacity="1" /><path clip-path="url(#clip630)" d="M45.7664 773.232 Q39.4007 773.232 35.8996 775.874 Q32.3984 778.484 32.3984 783.226 Q32.3984 787.937 35.8996 790.578 Q39.4007 793.188 45.7664 793.188 Q52.1003 793.188 55.6014 790.578 Q59.1026 787.937 59.1026 783.226 Q59.1026 778.484 55.6014 775.874 Q52.1003 773.232 45.7664 773.232 M59.58 767.375 Q68.683 767.375 73.1071 771.418 Q77.5631 775.46 77.5631 783.799 Q77.5631 786.886 77.0857 789.624 Q76.6401 792.361 75.6852 794.939 L69.9879 794.939 Q71.3884 792.361 72.0568 789.846 Q72.7252 787.332 72.7252 784.722 Q72.7252 778.961 69.7015 776.096 Q66.7096 773.232 60.6303 773.232 L57.7339 773.232 Q60.885 775.046 62.4446 777.879 Q64.0042 780.712 64.0042 784.658 Q64.0042 791.215 59.0071 795.225 Q54.01 799.236 45.7664 799.236 Q37.491 799.236 32.4939 795.225 Q27.4968 791.215 27.4968 784.658 Q27.4968 780.712 29.0564 777.879 Q30.616 775.046 33.7671 773.232 L28.3562 773.232 L28.3562 767.375 L59.58 767.375 Z" fill="#000000" fill-rule="evenodd" fill-opacity="1" /><path clip-path="url(#clip630)" d="M33.8307 734.656 Q33.2578 735.642 33.0032 736.82 Q32.7167 737.966 32.7167 739.366 Q32.7167 744.331 35.9632 747.005 Q39.1779 749.647 45.2253 749.647 L64.0042 749.647 L64.0042 755.535 L28.3562 755.535 L28.3562 749.647 L33.8944 749.647 Q30.6479 747.801 29.0883 744.841 Q27.4968 741.881 27.4968 737.648 Q27.4968 737.043 27.5923 736.311 Q27.656 735.579 27.8151 734.687 L33.8307 734.656 Z" fill="#000000" fill-rule="evenodd" fill-opacity="1" /><path clip-path="url(#clip630)" d="M44.7161 699.453 L47.5806 699.453 L47.5806 726.38 Q53.6281 725.998 56.8109 722.752 Q59.9619 719.473 59.9619 713.649 Q59.9619 710.275 59.1344 707.124 Q58.3069 703.941 56.6518 700.822 L62.1899 700.822 Q63.5267 703.973 64.227 707.283 Q64.9272 710.593 64.9272 713.999 Q64.9272 722.529 59.9619 727.526 Q54.9967 732.491 46.5303 732.491 Q37.7774 732.491 32.6531 727.781 Q27.4968 723.038 27.4968 715.017 Q27.4968 707.824 32.1438 703.655 Q36.7589 699.453 44.7161 699.453 M42.9973 705.31 Q38.1912 705.373 35.3266 708.015 Q32.4621 710.625 32.4621 714.954 Q32.4621 719.855 35.2312 722.815 Q38.0002 725.744 43.0292 726.189 L42.9973 705.31 Z" fill="#000000" fill-rule="evenodd" fill-opacity="1" /><path clip-path="url(#clip630)" d="M18.2347 684.048 L28.3562 684.048 L28.3562 671.985 L32.9077 671.985 L32.9077 684.048 L52.2594 684.048 Q56.6199 684.048 57.8613 682.871 Q59.1026 681.661 59.1026 678.001 L59.1026 671.985 L64.0042 671.985 L64.0042 678.001 Q64.0042 684.78 61.4897 687.358 Q58.9434 689.937 52.2594 689.937 L32.9077 689.937 L32.9077 694.233 L28.3562 694.233 L28.3562 689.937 L18.2347 689.937 L18.2347 684.048 Z" fill="#000000" fill-rule="evenodd" fill-opacity="1" /><path clip-path="url(#clip630)" d="M1212.55 12.096 L1220.74 12.096 L1220.74 36.8875 L1250.47 36.8875 L1250.47 12.096 L1258.65 12.096 L1258.65 72.576 L1250.47 72.576 L1250.47 43.7741 L1220.74 43.7741 L1220.74 72.576 L1212.55 72.576 L1212.55 12.096 Z" fill="#000000" fill-rule="evenodd" fill-opacity="1" /><path clip-path="url(#clip630)" d="M1274.94 12.096 L1283.12 12.096 L1283.12 72.576 L1274.94 72.576 L1274.94 12.096 Z" fill="#000000" fill-rule="evenodd" fill-opacity="1" /><path clip-path="url(#clip630)" d="M1299.4 12.096 L1337.64 12.096 L1337.64 18.9825 L1307.59 18.9825 L1307.59 36.8875 L1336.39 36.8875 L1336.39 43.7741 L1307.59 43.7741 L1307.59 65.6895 L1338.37 65.6895 L1338.37 72.576 L1299.4 72.576 L1299.4 12.096 Z" fill="#000000" fill-rule="evenodd" fill-opacity="1" /><path clip-path="url(#clip630)" d="M1380.5 44.2197 Q1383.14 45.1109 1385.61 48.0275 Q1388.12 50.9442 1390.63 56.0483 L1398.93 72.576 L1390.14 72.576 L1382.41 57.061 Q1379.41 50.9847 1376.57 48.9997 Q1373.78 47.0148 1368.92 47.0148 L1360.01 47.0148 L1360.01 72.576 L1351.82 72.576 L1351.82 12.096 L1370.3 12.096 Q1380.67 12.096 1385.77 16.4305 Q1390.87 20.7649 1390.87 29.5149 Q1390.87 35.2267 1388.2 38.994 Q1385.57 42.7613 1380.5 44.2197 M1360.01 18.8205 L1360.01 40.2903 L1370.3 40.2903 Q1376.21 40.2903 1379.21 37.5762 Q1382.25 34.8216 1382.25 29.5149 Q1382.25 24.2082 1379.21 21.5346 Q1376.21 18.8205 1370.3 18.8205 L1360.01 18.8205 Z" fill="#000000" fill-rule="evenodd" fill-opacity="1" /><path clip-path="url(#clip630)" d="M1411.61 65.6895 L1424.98 65.6895 L1424.98 19.5497 L1410.44 22.4663 L1410.44 15.0127 L1424.9 12.096 L1433.08 12.096 L1433.08 65.6895 L1446.45 65.6895 L1446.45 72.576 L1411.61 72.576 L1411.61 65.6895 Z" fill="#000000" fill-rule="evenodd" fill-opacity="1" /><path clip-path="url(#clip630)" d="M1481.49 39.075 Q1475.98 39.075 1472.74 42.8424 Q1469.54 46.6097 1469.54 53.1722 Q1469.54 59.6941 1472.74 63.502 Q1475.98 67.2693 1481.49 67.2693 Q1487 67.2693 1490.2 63.502 Q1493.44 59.6941 1493.44 53.1722 Q1493.44 46.6097 1490.2 42.8424 Q1487 39.075 1481.49 39.075 M1497.74 13.4328 L1497.74 20.8865 Q1494.66 19.4281 1491.5 18.6585 Q1488.38 17.8888 1485.3 17.8888 Q1477.2 17.8888 1472.9 23.3575 Q1468.65 28.8262 1468.04 39.8852 Q1470.43 36.3609 1474.04 34.4975 Q1477.64 32.5936 1481.98 32.5936 Q1491.09 32.5936 1496.36 38.1433 Q1501.67 43.6525 1501.67 53.1722 Q1501.67 62.4892 1496.16 68.12 Q1490.65 73.7508 1481.49 73.7508 Q1471 73.7508 1465.45 65.73 Q1459.9 57.6687 1459.9 42.3968 Q1459.9 28.0566 1466.71 19.5497 Q1473.51 11.0023 1484.98 11.0023 Q1488.05 11.0023 1491.17 11.6099 Q1494.33 12.2175 1497.74 13.4328 Z" fill="#000000" fill-rule="evenodd" fill-opacity="1" /><polyline clip-path="url(#clip632)" style="stroke:#009af9; stroke-linecap:butt; stroke-linejoin:round; stroke-width:8; stroke-opacity:1; fill:none" points="
  1602.38,1374.46 1746.76,1374.46 1821.98,1374.46 1875.21,1374.46 1921.07,1374.46 1957.76,1374.46 1984.17,1374.46 2009.17,1374.46 2028.88,1374.46 2045.34,1374.46 
  2062.36,1374.46 2073.58,1374.46 2084.52,1374.46 2097.09,1374.46 2110.87,1374.46 2123.37,1374.46 2131.36,1374.46 2142.43,1374.46 2152.64,1374.46 2163.96,1374.46 
  2175.36,1374.46 2184.78,1374.46 2196.22,1374.46 2204.67,1374.46 2213.79,1374.46 2220.94,1374.46 2228.13,1374.46 2235.51,1374.46 2243,1374.46 2249.01,1374.46 
  2255.99,1374.46 2261.29,1374.46 2267.19,1374.46 2271.06,1374.46 2274.98,1374.46 2279.76,1374.46 2284.06,1374.46 2289.05,1374.46 2292.29,1374.46 2296.4,1374.46 
  
  "/>
<polyline clip-path="url(#clip632)" style="stroke:#e26f46; stroke-linecap:butt; stroke-linejoin:round; stroke-width:8; stroke-opacity:1; fill:none" points="
  1633.83,1374.46 1746.05,1374.46 1819.52,1374.46 1860.52,1374.46 1895.71,1374.46 1936.59,1374.46 1960.3,1374.46 1989.05,1374.46 2012.22,1374.46 2030.98,1374.46 
  2048.12,1374.46 2065.53,1374.46 2082,1374.46 2095.68,1374.46 2107.28,1374.46 2118.74,1374.46 2126.96,1374.46 2138.02,1374.46 2148.98,1374.46 2156.22,1374.46 
  2166.06,1374.46 2174.39,1374.46 2182.32,1374.46 2189.46,1374.46 2197.26,1374.46 2204.8,1374.46 2212.53,1374.46 2219.14,1374.46 2225.43,1374.46 2230.76,1374.46 
  2236.94,1374.46 2241.25,1374.46 2247.28,1374.46 2252.92,1374.46 2257.93,1374.46 2263.33,1374.46 2268.1,1374.46 2271.98,1374.46 2277.25,1374.46 2281.16,1374.46 
  
  "/>
<polyline clip-path="url(#clip632)" style="stroke:#3da44d; stroke-linecap:butt; stroke-linejoin:round; stroke-width:8; stroke-opacity:1; fill:none" points="
  451.465,159.909 529.261,159.909 581.312,271.618 618.788,271.618 651.23,361.299 676.314,361.299 699.447,361.299 719.246,361.299 737.106,361.299 752.908,361.299 
  767.79,361.299 781.953,361.299 795.561,361.299 813.045,361.299 825.093,361.299 839.671,1374.46 850.752,1374.46 860.225,1374.46 868.734,1374.46 876.969,1374.46 
  884.425,1374.46 891.841,1374.46 898.605,1374.46 905.238,1374.46 911.642,1374.46 917.875,1374.46 923.776,1374.46 929.457,1374.46 935.165,1374.46 940.476,1374.46 
  945.661,1374.46 950.984,1374.46 956.014,1374.46 960.717,1374.46 965.463,1374.46 970.051,1374.46 974.457,1374.46 978.811,1374.46 982.979,1374.46 999.414,1374.46 
  1003.9,1374.46 1008.14,1374.46 1011.91,1374.46 1015.69,1374.46 1019.2,1374.46 1022.79,1374.46 1027.83,1374.46 1031.94,1374.46 1035.71,1374.46 1039.66,1374.46 
  1043.38,1374.46 1047.2,1374.46 1050.91,1374.46 1054.51,1374.46 1057.87,1374.46 1061.57,1374.46 1064.91,1374.46 1068.1,1374.46 1071.48,1374.46 1074.61,1374.46 
  1077.65,1374.46 1080.75,1374.46 1083.87,1374.46 1086.83,1374.46 1089.91,1374.46 1092.87,1374.46 1095.72,1374.46 1098.44,1374.46 1103.1,1374.46 1106.6,1374.46 
  1110.97,1374.46 1113.7,1374.46 1115.94,1374.46 1118.07,1374.46 1120.21,1374.46 1122.27,1374.46 1124.28,1374.46 1126.52,1374.46 1128.57,1374.46 1130.44,1374.46 
  1132.36,1374.46 1140.1,1374.46 1146.09,1374.46 1154.39,1374.46 1159.82,1374.46 1165.37,1374.46 1170.72,1374.46 1176.07,1374.46 1180.88,1374.46 1186.01,1374.46 
  1191.85,1374.46 1197.15,1374.46 1202.23,1374.46 1206.59,1374.46 1210.31,1374.46 1213.87,1374.46 1217.43,1374.46 1221.16,1374.46 1225.2,1374.46 1229.37,1374.46 
  1233.55,1374.46 1237.39,1374.46 1241.27,1374.46 1244.64,1374.46 1247.73,1374.46 1250.75,1374.46 1254.2,1374.46 1257.09,1374.46 1273.96,1374.46 1288.82,1374.46 
  1302.55,1374.46 1314,1374.46 1325.82,1374.46 1338.23,1374.46 1349.16,1374.46 1358.11,1374.46 1367.4,1374.46 1398.58,1374.46 1424.45,1374.46 1448.51,1374.46 
  1508.68,1374.46 1740.48,1374.46 1740.71,1374.46 1740.96,1374.46 1741.18,1374.46 1741.39,1374.46 1741.6,1374.46 1741.78,1374.46 1741.97,1374.46 1742.17,1374.46 
  1742.36,1374.46 1742.56,1374.46 1742.76,1374.46 1742.96,1374.46 1743.16,1374.46 1743.34,1374.46 1743.52,1374.46 1743.71,1374.46 1743.88,1374.46 1744.09,1374.46 
  1744.27,1374.46 1744.46,1374.46 1744.67,1374.46 1744.88,1374.46 1745.1,1374.46 1745.33,1374.46 1745.55,1374.46 1745.78,1374.46 1745.97,1374.46 1746.17,1374.46 
  1746.38,1374.46 1746.58,1374.46 1746.77,1374.46 1746.96,1374.46 1747.15,1374.46 1748.12,1374.46 1749.14,1374.46 1750.1,1374.46 1751.01,1374.46 1751.92,1374.46 
  1752.81,1374.46 1753.71,1374.46 1754.69,1374.46 1755.61,1374.46 1756.49,1374.46 1757.4,1374.46 1760.96,1374.46 1764.2,1374.46 1767.95,1374.46 1780.44,1374.46 
  1834.44,1374.46 1835.02,1374.46 1835.7,1374.46 1836.48,1374.46 1837.08,1374.46 1837.67,1374.46 1838.24,1374.46 1839.14,1374.46 1839.8,1374.46 1840.43,1374.46 
  1840.99,1374.46 1841.53,1374.46 1842.08,1374.46 1842.81,1374.46 1843.44,1374.46 1845.71,1374.46 1847.83,1374.46 1849.95,1374.46 1852.03,1374.46 1854.08,1374.46 
  1861.29,1374.46 1879.63,1374.46 1881.39,1374.46 1883.23,1374.46 1884.92,1374.46 1886.62,1374.46 1888.19,1374.46 1889.89,1374.46 1891.57,1374.46 1897.59,1374.46 
  1903.33,1374.46 1915.05,1374.46 1920.43,1374.46 1924.87,1374.46 1929.76,1374.46 1934.54,1374.46 
  "/>
<polyline clip-path="url(#clip632)" style="stroke:#c271d2; stroke-linecap:butt; stroke-linejoin:round; stroke-width:8; stroke-opacity:1; fill:none" points="
  417.82,308.851 502.544,1374.46 557.173,1374.46 602.966,1374.46 635.865,1374.46 664.108,1374.46 688.157,1374.46 708.987,1374.46 728.913,1374.46 746.9,1374.46 
  762.785,1374.46 778.131,1374.46 791.212,1374.46 805.697,1374.46 817.294,1374.46 828.781,1374.46 838.989,1374.46 848.26,1374.46 857.229,1374.46 865.943,1374.46 
  875.031,1374.46 883.291,1374.46 891.314,1374.46 899.195,1374.46 905.961,1374.46 912.686,1374.46 919.084,1374.46 924.977,1374.46 931.572,1374.46 937.081,1374.46 
  942.463,1374.46 973.382,1374.46 978.031,1374.46 984.983,1374.46 990.125,1374.46 995.083,1374.46 999.156,1374.46 1003.26,1374.46 1007.15,1374.46 1010.85,1374.46 
  1014.8,1374.46 1018.28,1374.46 1021.89,1374.46 1025.43,1374.46 1028.88,1374.46 1032.29,1374.46 1035.31,1374.46 1038.66,1374.46 1041.72,1374.46 1044.78,1374.46 
  1048,1374.46 1050.93,1374.46 1053.82,1374.46 1056.57,1374.46 1059.18,1374.46 1062.11,1374.46 1066.68,1374.46 1071.58,1374.46 1077.31,1374.46 1081.28,1374.46 
  1084.11,1374.46 1086.78,1374.46 1089.66,1374.46 1092.24,1374.46 1094.85,1374.46 1097.18,1374.46 1099.5,1374.46 1101.86,1374.46 1106.48,1374.46 1108.94,1374.46 
  1111.32,1374.46 1113.59,1374.46 1115.89,1374.46 1118.07,1374.46 1120.11,1374.46 1122.36,1374.46 1124.32,1374.46 1126.31,1374.46 1128.25,1374.46 1130.11,1374.46 
  1132.16,1374.46 1138.39,1374.46 1144.4,1374.46 1149.84,1374.46 1155.04,1374.46 1160.12,1374.46 1166.21,1374.46 1171.47,1374.46 1176.12,1374.46 1180.67,1374.46 
  1185.18,1374.46 1189.46,1374.46 1193.57,1374.46 1197.59,1374.46 1201.52,1374.46 1205.46,1374.46 1209.22,1374.46 1212.88,1374.46 1216.46,1374.46 1219.96,1374.46 
  1223.56,1374.46 1226.96,1374.46 1230.31,1374.46 1233.61,1374.46 1236.77,1374.46 1239.99,1374.46 1243.11,1374.46 1246.14,1374.46 1263.13,1374.46 1278.56,1374.46 
  1293.31,1374.46 1306.44,1374.46 1319.48,1374.46 1331.03,1374.46 1341.76,1374.46 1351.86,1374.46 1361.42,1374.46 1394.13,1374.46 1422.02,1374.46 1443.66,1374.46 
  1504.69,1374.46 1505.74,1374.46 1506.53,1374.46 1507.24,1374.46 1508.17,1374.46 1508.87,1374.46 1509.59,1374.46 1510.27,1374.46 1511.28,1374.46 1511.99,1374.46 
  1512.68,1374.46 1513.36,1374.46 1514.03,1374.46 1514.72,1374.46 1515.41,1374.46 1516.08,1374.46 1516.74,1374.46 1517.4,1374.46 1518.09,1374.46 1518.76,1374.46 
  1519.45,1374.46 1520.05,1374.46 1520.64,1374.46 1521.19,1374.46 1521.73,1374.46 1522.28,1374.46 1523,1374.46 1523.92,1374.46 1524.64,1374.46 1525.27,1374.46 
  1525.91,1374.46 1526.51,1374.46 1527.11,1374.46 1527.72,1374.46 1528.34,1374.46 1531.93,1374.46 1535.11,1374.46 1538.44,1374.46 1541.42,1374.46 1544.32,1374.46 
  1547.34,1374.46 1550.3,1374.46 1553.15,1374.46 1556.1,1374.46 1558.85,1374.46 1562.38,1374.46 1572.79,1374.46 1583.33,1374.46 1591.77,1374.46 1624.27,1374.46 
  1626.38,1374.46 1628.22,1374.46 1630.37,1374.46 1632.25,1374.46 1634.12,1374.46 1635.86,1374.46 1637.58,1374.46 1639.37,1374.46 1641.17,1374.46 1642.85,1374.46 
  1644.52,1374.46 1646.16,1374.46 1647.79,1374.46 1649.4,1374.46 1650.89,1374.46 1656.86,1374.46 1662.26,1374.46 1667.36,1374.46 1672.43,1374.46 1677.65,1374.46 
  1695.98,1374.46 1700.73,1374.46 1705.25,1374.46 1709.76,1374.46 1713.89,1374.46 1717.81,1374.46 1721.59,1374.46 1725.28,1374.46 1728.89,1374.46 1741.24,1374.46 
  1752.94,1374.46 1765,1374.46 1775.38,1374.46 1784.03,1374.46 1793.53,1374.46 1801.97,1374.46 
  "/>
<path clip-path="url(#clip630)" d="
M1817.6 425.586 L2286.38 425.586 L2286.38 166.386 L1817.6 166.386  Z
  " fill="#ffffff" fill-rule="evenodd" fill-opacity="1"/>
<polyline clip-path="url(#clip630)" style="stroke:#000000; stroke-linecap:butt; stroke-linejoin:round; stroke-width:4; stroke-opacity:1; fill:none" points="
  1817.6,425.586 2286.38,425.586 2286.38,166.386 1817.6,166.386 1817.6,425.586 
  "/>
<polyline clip-path="url(#clip630)" style="stroke:#009af9; stroke-linecap:butt; stroke-linejoin:round; stroke-width:4; stroke-opacity:1; fill:none" points="
  1839.73,218.226 1972.48,218.226 
  "/>
<path clip-path="url(#clip630)" d="M2009.79 213.562 Q2009.07 213.145 2008.22 212.96 Q2007.38 212.752 2006.37 212.752 Q2002.75 212.752 2000.81 215.113 Q1998.89 217.451 1998.89 221.849 L1998.89 235.506 L1994.61 235.506 L1994.61 209.58 L1998.89 209.58 L1998.89 213.608 Q2000.23 211.247 2002.38 210.113 Q2004.54 208.955 2007.62 208.955 Q2008.06 208.955 2008.59 209.025 Q2009.12 209.071 2009.77 209.187 L2009.79 213.562 Z" fill="#000000" fill-rule="evenodd" fill-opacity="1" /><path clip-path="url(#clip630)" d="M2026.04 222.474 Q2020.88 222.474 2018.89 223.654 Q2016.9 224.835 2016.9 227.682 Q2016.9 229.951 2018.38 231.293 Q2019.88 232.613 2022.45 232.613 Q2026 232.613 2028.13 230.113 Q2030.28 227.59 2030.28 223.423 L2030.28 222.474 L2026.04 222.474 M2034.54 220.715 L2034.54 235.506 L2030.28 235.506 L2030.28 231.571 Q2028.82 233.932 2026.64 235.066 Q2024.47 236.178 2021.32 236.178 Q2017.34 236.178 2014.98 233.955 Q2012.64 231.71 2012.64 227.96 Q2012.64 223.585 2015.56 221.363 Q2018.5 219.141 2024.31 219.141 L2030.28 219.141 L2030.28 218.724 Q2030.28 215.784 2028.33 214.187 Q2026.41 212.567 2022.92 212.567 Q2020.69 212.567 2018.59 213.099 Q2016.48 213.631 2014.54 214.696 L2014.54 210.761 Q2016.88 209.858 2019.07 209.418 Q2021.27 208.955 2023.36 208.955 Q2028.98 208.955 2031.76 211.872 Q2034.54 214.789 2034.54 220.715 Z" fill="#000000" fill-rule="evenodd" fill-opacity="1" /><path clip-path="url(#clip630)" d="M2064.86 219.858 L2064.86 235.506 L2060.6 235.506 L2060.6 219.997 Q2060.6 216.317 2059.17 214.488 Q2057.73 212.659 2054.86 212.659 Q2051.41 212.659 2049.42 214.858 Q2047.43 217.057 2047.43 220.854 L2047.43 235.506 L2043.15 235.506 L2043.15 209.58 L2047.43 209.58 L2047.43 213.608 Q2048.96 211.27 2051.02 210.113 Q2053.1 208.955 2055.81 208.955 Q2060.28 208.955 2062.57 211.733 Q2064.86 214.488 2064.86 219.858 Z" fill="#000000" fill-rule="evenodd" fill-opacity="1" /><path clip-path="url(#clip630)" d="M2090.42 213.516 L2090.42 199.488 L2094.68 199.488 L2094.68 235.506 L2090.42 235.506 L2090.42 231.617 Q2089.07 233.932 2087.01 235.066 Q2084.98 236.178 2082.11 236.178 Q2077.41 236.178 2074.44 232.428 Q2071.5 228.678 2071.5 222.567 Q2071.5 216.455 2074.44 212.705 Q2077.41 208.955 2082.11 208.955 Q2084.98 208.955 2087.01 210.09 Q2089.07 211.201 2090.42 213.516 M2075.9 222.567 Q2075.9 227.266 2077.82 229.951 Q2079.77 232.613 2083.15 232.613 Q2086.53 232.613 2088.47 229.951 Q2090.42 227.266 2090.42 222.567 Q2090.42 217.867 2088.47 215.205 Q2086.53 212.52 2083.15 212.52 Q2079.77 212.52 2077.82 215.205 Q2075.9 217.867 2075.9 222.567 Z" fill="#000000" fill-rule="evenodd" fill-opacity="1" /><path clip-path="url(#clip630)" d="M2113.49 212.567 Q2110.07 212.567 2108.08 215.252 Q2106.09 217.914 2106.09 222.567 Q2106.09 227.219 2108.06 229.904 Q2110.05 232.566 2113.49 232.566 Q2116.9 232.566 2118.89 229.881 Q2120.88 227.196 2120.88 222.567 Q2120.88 217.96 2118.89 215.275 Q2116.9 212.567 2113.49 212.567 M2113.49 208.955 Q2119.05 208.955 2122.22 212.567 Q2125.39 216.178 2125.39 222.567 Q2125.39 228.932 2122.22 232.566 Q2119.05 236.178 2113.49 236.178 Q2107.92 236.178 2104.74 232.566 Q2101.6 228.932 2101.6 222.567 Q2101.6 216.178 2104.74 212.567 Q2107.92 208.955 2113.49 208.955 Z" fill="#000000" fill-rule="evenodd" fill-opacity="1" /><path clip-path="url(#clip630)" d="M2152.64 214.557 Q2154.24 211.687 2156.46 210.321 Q2158.68 208.955 2161.69 208.955 Q2165.74 208.955 2167.94 211.803 Q2170.14 214.627 2170.14 219.858 L2170.14 235.506 L2165.86 235.506 L2165.86 219.997 Q2165.86 216.27 2164.54 214.465 Q2163.22 212.659 2160.51 212.659 Q2157.2 212.659 2155.28 214.858 Q2153.36 217.057 2153.36 220.854 L2153.36 235.506 L2149.07 235.506 L2149.07 219.997 Q2149.07 216.247 2147.75 214.465 Q2146.43 212.659 2143.68 212.659 Q2140.42 212.659 2138.49 214.881 Q2136.57 217.08 2136.57 220.854 L2136.57 235.506 L2132.29 235.506 L2132.29 209.58 L2136.57 209.58 L2136.57 213.608 Q2138.03 211.224 2140.07 210.09 Q2142.11 208.955 2144.91 208.955 Q2147.73 208.955 2149.7 210.391 Q2151.69 211.826 2152.64 214.557 Z" fill="#000000" fill-rule="evenodd" fill-opacity="1" /><polyline clip-path="url(#clip630)" style="stroke:#e26f46; stroke-linecap:butt; stroke-linejoin:round; stroke-width:4; stroke-opacity:1; fill:none" points="
  1839.73,270.066 1972.48,270.066 
  "/>
<path clip-path="url(#clip630)" d="M1994.61 252.786 L1999.28 252.786 L1999.28 283.411 L2016.11 283.411 L2016.11 287.346 L1994.61 287.346 L1994.61 252.786 Z" fill="#000000" fill-rule="evenodd" fill-opacity="1" /><path clip-path="url(#clip630)" d="M2021.02 252.786 L2025.69 252.786 L2025.69 266.953 L2042.69 266.953 L2042.69 252.786 L2047.36 252.786 L2047.36 287.346 L2042.69 287.346 L2042.69 270.888 L2025.69 270.888 L2025.69 287.346 L2021.02 287.346 L2021.02 252.786 Z" fill="#000000" fill-rule="evenodd" fill-opacity="1" /><polyline clip-path="url(#clip630)" style="stroke:#3da44d; stroke-linecap:butt; stroke-linejoin:round; stroke-width:4; stroke-opacity:1; fill:none" points="
  1839.73,321.906 1972.48,321.906 
  "/>
<path clip-path="url(#clip630)" d="M1999.28 322.682 L1999.28 335.344 L2006.78 335.344 Q2010.56 335.344 2012.36 333.793 Q2014.19 332.219 2014.19 329.001 Q2014.19 325.76 2012.36 324.233 Q2010.56 322.682 2006.78 322.682 L1999.28 322.682 M1999.28 308.469 L1999.28 318.885 L2006.2 318.885 Q2009.63 318.885 2011.3 317.612 Q2012.99 316.316 2012.99 313.677 Q2012.99 311.061 2011.3 309.765 Q2009.63 308.469 2006.2 308.469 L1999.28 308.469 M1994.61 304.626 L2006.55 304.626 Q2011.9 304.626 2014.79 306.848 Q2017.69 309.071 2017.69 313.168 Q2017.69 316.339 2016.2 318.214 Q2014.72 320.089 2011.85 320.552 Q2015.3 321.293 2017.2 323.654 Q2019.12 325.992 2019.12 329.51 Q2019.12 334.14 2015.97 336.663 Q2012.82 339.186 2007.01 339.186 L1994.61 339.186 L1994.61 304.626 Z" fill="#000000" fill-rule="evenodd" fill-opacity="1" /><path clip-path="url(#clip630)" d="M2040.32 307.798 Q2035.23 307.798 2032.22 311.594 Q2029.24 315.39 2029.24 321.941 Q2029.24 328.469 2032.22 332.265 Q2035.23 336.061 2040.32 336.061 Q2045.42 336.061 2048.38 332.265 Q2051.37 328.469 2051.37 321.941 Q2051.37 315.39 2048.38 311.594 Q2045.42 307.798 2040.32 307.798 M2040.32 304.001 Q2047.59 304.001 2051.94 308.886 Q2056.3 313.747 2056.3 321.941 Q2056.3 330.112 2051.94 334.996 Q2047.59 339.858 2040.32 339.858 Q2033.03 339.858 2028.66 334.996 Q2024.31 330.135 2024.31 321.941 Q2024.31 313.747 2028.66 308.886 Q2033.03 304.001 2040.32 304.001 Z" fill="#000000" fill-rule="evenodd" fill-opacity="1" /><path clip-path="url(#clip630)" d="M2063.61 304.626 L2068.29 304.626 L2068.29 318.793 L2085.28 318.793 L2085.28 304.626 L2089.95 304.626 L2089.95 339.186 L2085.28 339.186 L2085.28 322.728 L2068.29 322.728 L2068.29 339.186 L2063.61 339.186 L2063.61 304.626 Z" fill="#000000" fill-rule="evenodd" fill-opacity="1" /><path clip-path="url(#clip630)" d="M2103.93 322.682 L2103.93 335.344 L2111.43 335.344 Q2115.21 335.344 2117.01 333.793 Q2118.84 332.219 2118.84 329.001 Q2118.84 325.76 2117.01 324.233 Q2115.21 322.682 2111.43 322.682 L2103.93 322.682 M2103.93 308.469 L2103.93 318.885 L2110.86 318.885 Q2114.28 318.885 2115.95 317.612 Q2117.64 316.316 2117.64 313.677 Q2117.64 311.061 2115.95 309.765 Q2114.28 308.469 2110.86 308.469 L2103.93 308.469 M2099.26 304.626 L2111.2 304.626 Q2116.55 304.626 2119.44 306.848 Q2122.34 309.071 2122.34 313.168 Q2122.34 316.339 2120.86 318.214 Q2119.37 320.089 2116.5 320.552 Q2119.95 321.293 2121.85 323.654 Q2123.77 325.992 2123.77 329.51 Q2123.77 334.14 2120.62 336.663 Q2117.48 339.186 2111.67 339.186 L2099.26 339.186 L2099.26 304.626 Z" fill="#000000" fill-rule="evenodd" fill-opacity="1" /><polyline clip-path="url(#clip630)" style="stroke:#c271d2; stroke-linecap:butt; stroke-linejoin:round; stroke-width:4; stroke-opacity:1; fill:none" points="
  1839.73,373.746 1972.48,373.746 
  "/>
<path clip-path="url(#clip630)" d="M2016.32 375.378 L2016.32 391.026 L2012.06 391.026 L2012.06 375.517 Q2012.06 371.837 2010.63 370.008 Q2009.19 368.179 2006.32 368.179 Q2002.87 368.179 2000.88 370.378 Q1998.89 372.577 1998.89 376.374 L1998.89 391.026 L1994.61 391.026 L1994.61 355.008 L1998.89 355.008 L1998.89 369.128 Q2000.42 366.79 2002.48 365.633 Q2004.56 364.475 2007.27 364.475 Q2011.74 364.475 2014.03 367.253 Q2016.32 370.008 2016.32 375.378 Z" fill="#000000" fill-rule="evenodd" fill-opacity="1" /><path clip-path="url(#clip630)" d="M2035.6 393.434 Q2033.8 398.063 2032.08 399.475 Q2030.37 400.887 2027.5 400.887 L2024.1 400.887 L2024.1 397.323 L2026.6 397.323 Q2028.36 397.323 2029.33 396.489 Q2030.3 395.656 2031.48 392.554 L2032.25 390.61 L2021.76 365.1 L2026.27 365.1 L2034.37 385.378 L2042.48 365.1 L2046.99 365.1 L2035.6 393.434 Z" fill="#000000" fill-rule="evenodd" fill-opacity="1" /><path clip-path="url(#clip630)" d="M2056.99 387.137 L2056.99 400.887 L2052.71 400.887 L2052.71 365.1 L2056.99 365.1 L2056.99 369.036 Q2058.33 366.721 2060.37 365.61 Q2062.43 364.475 2065.28 364.475 Q2070 364.475 2072.94 368.225 Q2075.9 371.975 2075.9 378.087 Q2075.9 384.198 2072.94 387.948 Q2070 391.698 2065.28 391.698 Q2062.43 391.698 2060.37 390.586 Q2058.33 389.452 2056.99 387.137 M2071.48 378.087 Q2071.48 373.387 2069.54 370.725 Q2067.62 368.04 2064.24 368.04 Q2060.86 368.04 2058.91 370.725 Q2056.99 373.387 2056.99 378.087 Q2056.99 382.786 2058.91 385.471 Q2060.86 388.133 2064.24 388.133 Q2067.62 388.133 2069.54 385.471 Q2071.48 382.786 2071.48 378.087 Z" fill="#000000" fill-rule="evenodd" fill-opacity="1" /><path clip-path="url(#clip630)" d="M2105.14 376.999 L2105.14 379.082 L2085.56 379.082 Q2085.83 383.48 2088.19 385.795 Q2090.58 388.086 2094.81 388.086 Q2097.27 388.086 2099.56 387.485 Q2101.87 386.883 2104.14 385.679 L2104.14 389.707 Q2101.85 390.679 2099.44 391.188 Q2097.04 391.698 2094.56 391.698 Q2088.36 391.698 2084.72 388.086 Q2081.11 384.475 2081.11 378.318 Q2081.11 371.952 2084.54 368.225 Q2087.99 364.475 2093.82 364.475 Q2099.05 364.475 2102.08 367.855 Q2105.14 371.212 2105.14 376.999 M2100.88 375.749 Q2100.83 372.253 2098.91 370.17 Q2097.01 368.087 2093.87 368.087 Q2090.3 368.087 2088.15 370.1 Q2086.02 372.114 2085.69 375.772 L2100.88 375.749 Z" fill="#000000" fill-rule="evenodd" fill-opacity="1" /><path clip-path="url(#clip630)" d="M2127.15 369.082 Q2126.43 368.665 2125.58 368.48 Q2124.74 368.272 2123.73 368.272 Q2120.12 368.272 2118.17 370.633 Q2116.25 372.971 2116.25 377.369 L2116.25 391.026 L2111.97 391.026 L2111.97 365.1 L2116.25 365.1 L2116.25 369.128 Q2117.59 366.767 2119.74 365.633 Q2121.9 364.475 2124.98 364.475 Q2125.42 364.475 2125.95 364.545 Q2126.48 364.591 2127.13 364.707 L2127.15 369.082 Z" fill="#000000" fill-rule="evenodd" fill-opacity="1" /><path clip-path="url(#clip630)" d="M2150.23 378.087 Q2150.23 373.387 2148.29 370.725 Q2146.37 368.04 2142.99 368.04 Q2139.61 368.04 2137.66 370.725 Q2135.74 373.387 2135.74 378.087 Q2135.74 382.786 2137.66 385.471 Q2139.61 388.133 2142.99 388.133 Q2146.37 388.133 2148.29 385.471 Q2150.23 382.786 2150.23 378.087 M2135.74 369.036 Q2137.08 366.721 2139.12 365.61 Q2141.18 364.475 2144.03 364.475 Q2148.75 364.475 2151.69 368.225 Q2154.65 371.975 2154.65 378.087 Q2154.65 384.198 2151.69 387.948 Q2148.75 391.698 2144.03 391.698 Q2141.18 391.698 2139.12 390.586 Q2137.08 389.452 2135.74 387.137 L2135.74 391.026 L2131.46 391.026 L2131.46 355.008 L2135.74 355.008 L2135.74 369.036 Z" fill="#000000" fill-rule="evenodd" fill-opacity="1" /><path clip-path="url(#clip630)" d="M2173.49 377.994 Q2168.33 377.994 2166.34 379.174 Q2164.35 380.355 2164.35 383.202 Q2164.35 385.471 2165.83 386.813 Q2167.34 388.133 2169.91 388.133 Q2173.45 388.133 2175.58 385.633 Q2177.73 383.11 2177.73 378.943 L2177.73 377.994 L2173.49 377.994 M2181.99 376.235 L2181.99 391.026 L2177.73 391.026 L2177.73 387.091 Q2176.27 389.452 2174.1 390.586 Q2171.92 391.698 2168.77 391.698 Q2164.79 391.698 2162.43 389.475 Q2160.09 387.23 2160.09 383.48 Q2160.09 379.105 2163.01 376.883 Q2165.95 374.661 2171.76 374.661 L2177.73 374.661 L2177.73 374.244 Q2177.73 371.304 2175.79 369.707 Q2173.86 368.087 2170.37 368.087 Q2168.15 368.087 2166.04 368.619 Q2163.93 369.151 2161.99 370.216 L2161.99 366.281 Q2164.33 365.378 2166.53 364.938 Q2168.73 364.475 2170.81 364.475 Q2176.43 364.475 2179.21 367.392 Q2181.99 370.309 2181.99 376.235 Z" fill="#000000" fill-rule="evenodd" fill-opacity="1" /><path clip-path="url(#clip630)" d="M2212.31 375.378 L2212.31 391.026 L2208.05 391.026 L2208.05 375.517 Q2208.05 371.837 2206.62 370.008 Q2205.18 368.179 2202.31 368.179 Q2198.86 368.179 2196.87 370.378 Q2194.88 372.577 2194.88 376.374 L2194.88 391.026 L2190.6 391.026 L2190.6 365.1 L2194.88 365.1 L2194.88 369.128 Q2196.41 366.79 2198.47 365.633 Q2200.55 364.475 2203.26 364.475 Q2207.73 364.475 2210.02 367.253 Q2212.31 370.008 2212.31 375.378 Z" fill="#000000" fill-rule="evenodd" fill-opacity="1" /><path clip-path="url(#clip630)" d="M2237.87 369.036 L2237.87 355.008 L2242.13 355.008 L2242.13 391.026 L2237.87 391.026 L2237.87 387.137 Q2236.53 389.452 2234.47 390.586 Q2232.43 391.698 2229.56 391.698 Q2224.86 391.698 2221.9 387.948 Q2218.96 384.198 2218.96 378.087 Q2218.96 371.975 2221.9 368.225 Q2224.86 364.475 2229.56 364.475 Q2232.43 364.475 2234.47 365.61 Q2236.53 366.721 2237.87 369.036 M2223.36 378.087 Q2223.36 382.786 2225.28 385.471 Q2227.22 388.133 2230.6 388.133 Q2233.98 388.133 2235.92 385.471 Q2237.87 382.786 2237.87 378.087 Q2237.87 373.387 2235.92 370.725 Q2233.98 368.04 2230.6 368.04 Q2227.22 368.04 2225.28 370.725 Q2223.36 373.387 2223.36 378.087 Z" fill="#000000" fill-rule="evenodd" fill-opacity="1" /></svg>
