<?xml version="1.0" encoding="utf-8"?>
<svg xmlns="http://www.w3.org/2000/svg" xmlns:xlink="http://www.w3.org/1999/xlink" width="600" height="400" viewBox="0 0 2400 1600">
<defs>
  <clipPath id="clip660">
    <rect x="0" y="0" width="2400" height="1600"/>
  </clipPath>
</defs>
<path clip-path="url(#clip660)" d="
M0 1600 L2400 1600 L2400 0 L0 0  Z
  " fill="#ffffff" fill-rule="evenodd" fill-opacity="1"/>
<defs>
  <clipPath id="clip661">
    <rect x="480" y="0" width="1681" height="1600"/>
  </clipPath>
</defs>
<path clip-path="url(#clip660)" d="
M257.69 1410.9 L2352.76 1410.9 L2352.76 123.472 L257.69 123.472  Z
  " fill="#ffffff" fill-rule="evenodd" fill-opacity="1"/>
<defs>
  <clipPath id="clip662">
    <rect x="257" y="123" width="2096" height="1288"/>
  </clipPath>
</defs>
<polyline clip-path="url(#clip662)" style="stroke:#000000; stroke-linecap:butt; stroke-linejoin:round; stroke-width:2; stroke-opacity:0.1; fill:none" points="
  1010.73,1410.9 1010.73,123.472 
  "/>
<polyline clip-path="url(#clip662)" style="stroke:#000000; stroke-linecap:butt; stroke-linejoin:round; stroke-width:2; stroke-opacity:0.1; fill:none" points="
  1844.15,1410.9 1844.15,123.472 
  "/>
<polyline clip-path="url(#clip660)" style="stroke:#000000; stroke-linecap:butt; stroke-linejoin:round; stroke-width:4; stroke-opacity:1; fill:none" points="
  257.69,1410.9 2352.76,1410.9 
  "/>
<polyline clip-path="url(#clip660)" style="stroke:#000000; stroke-linecap:butt; stroke-linejoin:round; stroke-width:4; stroke-opacity:1; fill:none" points="
  1010.73,1410.9 1010.73,1395.45 
  "/>
<polyline clip-path="url(#clip660)" style="stroke:#000000; stroke-linecap:butt; stroke-linejoin:round; stroke-width:4; stroke-opacity:1; fill:none" points="
  1844.15,1410.9 1844.15,1395.45 
  "/>
<path clip-path="url(#clip660)" d="M975.716 1489.17 L983.355 1489.17 L983.355 1462.8 L975.045 1464.47 L975.045 1460.21 L983.308 1458.54 L987.984 1458.54 L987.984 1489.17 L995.623 1489.17 L995.623 1493.1 L975.716 1493.1 L975.716 1489.17 Z" fill="#000000" fill-rule="evenodd" fill-opacity="1" /><path clip-path="url(#clip660)" d="M1015.07 1461.62 Q1011.46 1461.62 1009.63 1465.19 Q1007.82 1468.73 1007.82 1475.86 Q1007.82 1482.97 1009.63 1486.53 Q1011.46 1490.07 1015.07 1490.07 Q1018.7 1490.07 1020.51 1486.53 Q1022.34 1482.97 1022.34 1475.86 Q1022.34 1468.73 1020.51 1465.19 Q1018.7 1461.62 1015.07 1461.62 M1015.07 1457.92 Q1020.88 1457.92 1023.93 1462.53 Q1027.01 1467.11 1027.01 1475.86 Q1027.01 1484.59 1023.93 1489.19 Q1020.88 1493.78 1015.07 1493.78 Q1009.26 1493.78 1006.18 1489.19 Q1003.12 1484.59 1003.12 1475.86 Q1003.12 1467.11 1006.18 1462.53 Q1009.26 1457.92 1015.07 1457.92 Z" fill="#000000" fill-rule="evenodd" fill-opacity="1" /><path clip-path="url(#clip660)" d="M1036.72 1440.11 Q1033.78 1440.11 1032.3 1443.01 Q1030.83 1445.89 1030.83 1451.68 Q1030.83 1457.46 1032.3 1460.35 Q1033.78 1463.23 1036.72 1463.23 Q1039.67 1463.23 1041.14 1460.35 Q1042.62 1457.46 1042.62 1451.68 Q1042.62 1445.89 1041.14 1443.01 Q1039.67 1440.11 1036.72 1440.11 M1036.72 1437.11 Q1041.44 1437.11 1043.92 1440.85 Q1046.42 1444.57 1046.42 1451.68 Q1046.42 1458.77 1043.92 1462.51 Q1041.44 1466.24 1036.72 1466.24 Q1032 1466.24 1029.49 1462.51 Q1027.01 1458.77 1027.01 1451.68 Q1027.01 1444.57 1029.49 1440.85 Q1032 1437.11 1036.72 1437.11 Z" fill="#000000" fill-rule="evenodd" fill-opacity="1" /><path clip-path="url(#clip660)" d="M1809.93 1489.17 L1817.56 1489.17 L1817.56 1462.8 L1809.25 1464.47 L1809.25 1460.21 L1817.52 1458.54 L1822.19 1458.54 L1822.19 1489.17 L1829.83 1489.17 L1829.83 1493.1 L1809.93 1493.1 L1809.93 1489.17 Z" fill="#000000" fill-rule="evenodd" fill-opacity="1" /><path clip-path="url(#clip660)" d="M1849.28 1461.62 Q1845.67 1461.62 1843.84 1465.19 Q1842.03 1468.73 1842.03 1475.86 Q1842.03 1482.97 1843.84 1486.53 Q1845.67 1490.07 1849.28 1490.07 Q1852.91 1490.07 1854.72 1486.53 Q1856.55 1482.97 1856.55 1475.86 Q1856.55 1468.73 1854.72 1465.19 Q1852.91 1461.62 1849.28 1461.62 M1849.28 1457.92 Q1855.09 1457.92 1858.14 1462.53 Q1861.22 1467.11 1861.22 1475.86 Q1861.22 1484.59 1858.14 1489.19 Q1855.09 1493.78 1849.28 1493.78 Q1843.47 1493.78 1840.39 1489.19 Q1837.33 1484.59 1837.33 1475.86 Q1837.33 1467.11 1840.39 1462.53 Q1843.47 1457.92 1849.28 1457.92 Z" fill="#000000" fill-rule="evenodd" fill-opacity="1" /><path clip-path="url(#clip660)" d="M1865.79 1462.5 L1879.05 1462.5 L1879.05 1465.69 L1861.22 1465.69 L1861.22 1462.5 Q1863.38 1460.26 1867.11 1456.5 Q1870.85 1452.72 1871.81 1451.63 Q1873.64 1449.58 1874.35 1448.16 Q1875.08 1446.74 1875.08 1445.36 Q1875.08 1443.12 1873.5 1441.71 Q1871.94 1440.3 1869.42 1440.3 Q1867.64 1440.3 1865.64 1440.92 Q1863.67 1441.54 1861.41 1442.8 L1861.41 1438.97 Q1863.7 1438.05 1865.7 1437.58 Q1867.69 1437.11 1869.35 1437.11 Q1873.71 1437.11 1876.31 1439.29 Q1878.9 1441.47 1878.9 1445.12 Q1878.9 1446.85 1878.24 1448.41 Q1877.6 1449.95 1875.89 1452.06 Q1875.42 1452.6 1872.9 1455.22 Q1870.38 1457.81 1865.79 1462.5 Z" fill="#000000" fill-rule="evenodd" fill-opacity="1" /><path clip-path="url(#clip660)" d="M1107.76 1528.42 L1107.76 1538.54 L1119.82 1538.54 L1119.82 1543.09 L1107.76 1543.09 L1107.76 1562.44 Q1107.76 1566.8 1108.94 1568.04 Q1110.15 1569.28 1113.81 1569.28 L1119.82 1569.28 L1119.82 1574.19 L1113.81 1574.19 Q1107.03 1574.19 1104.45 1571.67 Q1101.87 1569.12 1101.87 1562.44 L1101.87 1543.09 L1097.57 1543.09 L1097.57 1538.54 L1101.87 1538.54 L1101.87 1528.42 L1107.76 1528.42 Z" fill="#000000" fill-rule="evenodd" fill-opacity="1" /><path clip-path="url(#clip660)" d="M1127.52 1538.54 L1133.38 1538.54 L1133.38 1574.19 L1127.52 1574.19 L1127.52 1538.54 M1127.52 1524.66 L1133.38 1524.66 L1133.38 1532.08 L1127.52 1532.08 L1127.52 1524.66 Z" fill="#000000" fill-rule="evenodd" fill-opacity="1" /><path clip-path="url(#clip660)" d="M1173.39 1545.38 Q1175.59 1541.43 1178.64 1539.56 Q1181.7 1537.68 1185.83 1537.68 Q1191.4 1537.68 1194.43 1541.59 Q1197.45 1545.48 1197.45 1552.67 L1197.45 1574.19 L1191.56 1574.19 L1191.56 1552.86 Q1191.56 1547.74 1189.75 1545.25 Q1187.93 1542.77 1184.21 1542.77 Q1179.66 1542.77 1177.02 1545.79 Q1174.38 1548.82 1174.38 1554.04 L1174.38 1574.19 L1168.49 1574.19 L1168.49 1552.86 Q1168.49 1547.7 1166.67 1545.25 Q1164.86 1542.77 1161.07 1542.77 Q1156.58 1542.77 1153.94 1545.83 Q1151.3 1548.85 1151.3 1554.04 L1151.3 1574.19 L1145.41 1574.19 L1145.41 1538.54 L1151.3 1538.54 L1151.3 1544.08 Q1153.31 1540.8 1156.11 1539.24 Q1158.91 1537.68 1162.76 1537.68 Q1166.64 1537.68 1169.35 1539.65 Q1172.08 1541.62 1173.39 1545.38 Z" fill="#000000" fill-rule="evenodd" fill-opacity="1" /><path clip-path="url(#clip660)" d="M1239.62 1554.9 L1239.62 1557.76 L1212.7 1557.76 Q1213.08 1563.81 1216.33 1566.99 Q1219.6 1570.14 1225.43 1570.14 Q1228.8 1570.14 1231.95 1569.32 Q1235.14 1568.49 1238.26 1566.83 L1238.26 1572.37 Q1235.1 1573.71 1231.79 1574.41 Q1228.48 1575.11 1225.08 1575.11 Q1216.55 1575.11 1211.55 1570.14 Q1206.59 1565.18 1206.59 1556.71 Q1206.59 1547.96 1211.3 1542.83 Q1216.04 1537.68 1224.06 1537.68 Q1231.25 1537.68 1235.42 1542.33 Q1239.62 1546.94 1239.62 1554.9 M1233.77 1553.18 Q1233.7 1548.37 1231.06 1545.51 Q1228.45 1542.64 1224.12 1542.64 Q1219.22 1542.64 1216.26 1545.41 Q1213.33 1548.18 1212.89 1553.21 L1233.77 1553.18 Z" fill="#000000" fill-rule="evenodd" fill-opacity="1" /><path clip-path="url(#clip660)" d="M1300.45 1554.9 L1300.45 1557.76 L1273.52 1557.76 Q1273.9 1563.81 1277.15 1566.99 Q1280.43 1570.14 1286.25 1570.14 Q1289.63 1570.14 1292.78 1569.32 Q1295.96 1568.49 1299.08 1566.83 L1299.08 1572.37 Q1295.93 1573.71 1292.62 1574.41 Q1289.31 1575.11 1285.9 1575.11 Q1277.37 1575.11 1272.38 1570.14 Q1267.41 1565.18 1267.41 1556.71 Q1267.41 1547.96 1272.12 1542.83 Q1276.86 1537.68 1284.88 1537.68 Q1292.08 1537.68 1296.25 1542.33 Q1300.45 1546.94 1300.45 1554.9 M1294.59 1553.18 Q1294.53 1548.37 1291.89 1545.51 Q1289.28 1542.64 1284.95 1542.64 Q1280.05 1542.64 1277.09 1545.41 Q1274.16 1548.18 1273.71 1553.21 L1294.59 1553.18 Z" fill="#000000" fill-rule="evenodd" fill-opacity="1" /><path clip-path="url(#clip660)" d="M1310.06 1524.66 L1315.92 1524.66 L1315.92 1574.19 L1310.06 1574.19 L1310.06 1524.66 Z" fill="#000000" fill-rule="evenodd" fill-opacity="1" /><path clip-path="url(#clip660)" d="M1344.37 1556.27 Q1337.27 1556.27 1334.54 1557.89 Q1331.8 1559.51 1331.8 1563.43 Q1331.8 1566.55 1333.84 1568.39 Q1335.91 1570.21 1339.44 1570.21 Q1344.31 1570.21 1347.24 1566.77 Q1350.2 1563.3 1350.2 1557.57 L1350.2 1556.27 L1344.37 1556.27 M1356.05 1553.85 L1356.05 1574.19 L1350.2 1574.19 L1350.2 1568.77 Q1348.19 1572.02 1345.2 1573.58 Q1342.21 1575.11 1337.88 1575.11 Q1332.4 1575.11 1329.16 1572.05 Q1325.94 1568.97 1325.94 1563.81 Q1325.94 1557.79 1329.95 1554.74 Q1334 1551.68 1341.98 1551.68 L1350.2 1551.68 L1350.2 1551.11 Q1350.2 1547.07 1347.52 1544.87 Q1344.88 1542.64 1340.08 1542.64 Q1337.02 1542.64 1334.12 1543.38 Q1331.23 1544.11 1328.55 1545.57 L1328.55 1540.16 Q1331.77 1538.92 1334.79 1538.31 Q1337.82 1537.68 1340.68 1537.68 Q1348.41 1537.68 1352.23 1541.69 Q1356.05 1545.7 1356.05 1553.85 Z" fill="#000000" fill-rule="evenodd" fill-opacity="1" /><path clip-path="url(#clip660)" d="M1373.78 1568.84 L1373.78 1587.74 L1367.89 1587.74 L1367.89 1538.54 L1373.78 1538.54 L1373.78 1543.95 Q1375.63 1540.77 1378.43 1539.24 Q1381.26 1537.68 1385.18 1537.68 Q1391.67 1537.68 1395.71 1542.83 Q1399.79 1547.99 1399.79 1556.39 Q1399.79 1564.8 1395.71 1569.95 Q1391.67 1575.11 1385.18 1575.11 Q1381.26 1575.11 1378.43 1573.58 Q1375.63 1572.02 1373.78 1568.84 M1393.71 1556.39 Q1393.71 1549.93 1391.03 1546.27 Q1388.39 1542.58 1383.74 1542.58 Q1379.1 1542.58 1376.42 1546.27 Q1373.78 1549.93 1373.78 1556.39 Q1373.78 1562.85 1376.42 1566.55 Q1379.1 1570.21 1383.74 1570.21 Q1388.39 1570.21 1391.03 1566.55 Q1393.71 1562.85 1393.71 1556.39 Z" fill="#000000" fill-rule="evenodd" fill-opacity="1" /><path clip-path="url(#clip660)" d="M1432.22 1539.59 L1432.22 1545.13 Q1429.74 1543.85 1427.06 1543.22 Q1424.39 1542.58 1421.52 1542.58 Q1417.16 1542.58 1414.97 1543.92 Q1412.8 1545.25 1412.8 1547.93 Q1412.8 1549.96 1414.36 1551.14 Q1415.92 1552.29 1420.63 1553.34 L1422.64 1553.78 Q1428.88 1555.12 1431.49 1557.57 Q1434.13 1559.99 1434.13 1564.35 Q1434.13 1569.32 1430.18 1572.21 Q1426.27 1575.11 1419.39 1575.11 Q1416.53 1575.11 1413.41 1574.54 Q1410.32 1573.99 1406.88 1572.88 L1406.88 1566.83 Q1410.13 1568.52 1413.28 1569.38 Q1416.43 1570.21 1419.52 1570.21 Q1423.66 1570.21 1425.88 1568.81 Q1428.11 1567.37 1428.11 1564.8 Q1428.11 1562.41 1426.49 1561.14 Q1424.9 1559.86 1419.46 1558.68 L1417.42 1558.21 Q1411.98 1557.06 1409.56 1554.71 Q1407.14 1552.32 1407.14 1548.18 Q1407.14 1543.15 1410.7 1540.42 Q1414.27 1537.68 1420.82 1537.68 Q1424.07 1537.68 1426.94 1538.16 Q1429.8 1538.63 1432.22 1539.59 Z" fill="#000000" fill-rule="evenodd" fill-opacity="1" /><path clip-path="url(#clip660)" d="M1473.95 1554.9 L1473.95 1557.76 L1447.02 1557.76 Q1447.4 1563.81 1450.65 1566.99 Q1453.93 1570.14 1459.75 1570.14 Q1463.12 1570.14 1466.28 1569.32 Q1469.46 1568.49 1472.58 1566.83 L1472.58 1572.37 Q1469.43 1573.71 1466.12 1574.41 Q1462.81 1575.11 1459.4 1575.11 Q1450.87 1575.11 1445.87 1570.14 Q1440.91 1565.18 1440.91 1556.71 Q1440.91 1547.96 1445.62 1542.83 Q1450.36 1537.68 1458.38 1537.68 Q1465.58 1537.68 1469.74 1542.33 Q1473.95 1546.94 1473.95 1554.9 M1468.09 1553.18 Q1468.03 1548.37 1465.38 1545.51 Q1462.77 1542.64 1458.45 1542.64 Q1453.54 1542.64 1450.58 1545.41 Q1447.66 1548.18 1447.21 1553.21 L1468.09 1553.18 Z" fill="#000000" fill-rule="evenodd" fill-opacity="1" /><path clip-path="url(#clip660)" d="M1507.02 1543.95 L1507.02 1524.66 L1512.87 1524.66 L1512.87 1574.19 L1507.02 1574.19 L1507.02 1568.84 Q1505.17 1572.02 1502.34 1573.58 Q1499.54 1575.11 1495.59 1575.11 Q1489.13 1575.11 1485.05 1569.95 Q1481.01 1564.8 1481.01 1556.39 Q1481.01 1547.99 1485.05 1542.83 Q1489.13 1537.68 1495.59 1537.68 Q1499.54 1537.68 1502.34 1539.24 Q1505.17 1540.77 1507.02 1543.95 M1487.06 1556.39 Q1487.06 1562.85 1489.7 1566.55 Q1492.37 1570.21 1497.02 1570.21 Q1501.67 1570.21 1504.34 1566.55 Q1507.02 1562.85 1507.02 1556.39 Q1507.02 1549.93 1504.34 1546.27 Q1501.67 1542.58 1497.02 1542.58 Q1492.37 1542.58 1489.7 1546.27 Q1487.06 1549.93 1487.06 1556.39 Z" fill="#000000" fill-rule="evenodd" fill-opacity="1" /><polyline clip-path="url(#clip662)" style="stroke:#000000; stroke-linecap:butt; stroke-linejoin:round; stroke-width:2; stroke-opacity:0.1; fill:none" points="
  257.69,1275.25 2352.76,1275.25 
  "/>
<polyline clip-path="url(#clip662)" style="stroke:#000000; stroke-linecap:butt; stroke-linejoin:round; stroke-width:2; stroke-opacity:0.1; fill:none" points="
  257.69,1088.27 2352.76,1088.27 
  "/>
<polyline clip-path="url(#clip662)" style="stroke:#000000; stroke-linecap:butt; stroke-linejoin:round; stroke-width:2; stroke-opacity:0.1; fill:none" points="
  257.69,901.3 2352.76,901.3 
  "/>
<polyline clip-path="url(#clip662)" style="stroke:#000000; stroke-linecap:butt; stroke-linejoin:round; stroke-width:2; stroke-opacity:0.1; fill:none" points="
  257.69,714.326 2352.76,714.326 
  "/>
<polyline clip-path="url(#clip662)" style="stroke:#000000; stroke-linecap:butt; stroke-linejoin:round; stroke-width:2; stroke-opacity:0.1; fill:none" points="
  257.69,527.353 2352.76,527.353 
  "/>
<polyline clip-path="url(#clip662)" style="stroke:#000000; stroke-linecap:butt; stroke-linejoin:round; stroke-width:2; stroke-opacity:0.1; fill:none" points="
  257.69,340.38 2352.76,340.38 
  "/>
<polyline clip-path="url(#clip662)" style="stroke:#000000; stroke-linecap:butt; stroke-linejoin:round; stroke-width:2; stroke-opacity:0.1; fill:none" points="
  257.69,153.407 2352.76,153.407 
  "/>
<polyline clip-path="url(#clip660)" style="stroke:#000000; stroke-linecap:butt; stroke-linejoin:round; stroke-width:4; stroke-opacity:1; fill:none" points="
  257.69,1410.9 257.69,123.472 
  "/>
<polyline clip-path="url(#clip660)" style="stroke:#000000; stroke-linecap:butt; stroke-linejoin:round; stroke-width:4; stroke-opacity:1; fill:none" points="
  257.69,1275.25 282.831,1275.25 
  "/>
<polyline clip-path="url(#clip660)" style="stroke:#000000; stroke-linecap:butt; stroke-linejoin:round; stroke-width:4; stroke-opacity:1; fill:none" points="
  257.69,1088.27 282.831,1088.27 
  "/>
<polyline clip-path="url(#clip660)" style="stroke:#000000; stroke-linecap:butt; stroke-linejoin:round; stroke-width:4; stroke-opacity:1; fill:none" points="
  257.69,901.3 282.831,901.3 
  "/>
<polyline clip-path="url(#clip660)" style="stroke:#000000; stroke-linecap:butt; stroke-linejoin:round; stroke-width:4; stroke-opacity:1; fill:none" points="
  257.69,714.326 282.831,714.326 
  "/>
<polyline clip-path="url(#clip660)" style="stroke:#000000; stroke-linecap:butt; stroke-linejoin:round; stroke-width:4; stroke-opacity:1; fill:none" points="
  257.69,527.353 282.831,527.353 
  "/>
<polyline clip-path="url(#clip660)" style="stroke:#000000; stroke-linecap:butt; stroke-linejoin:round; stroke-width:4; stroke-opacity:1; fill:none" points="
  257.69,340.38 282.831,340.38 
  "/>
<polyline clip-path="url(#clip660)" style="stroke:#000000; stroke-linecap:butt; stroke-linejoin:round; stroke-width:4; stroke-opacity:1; fill:none" points="
  257.69,153.407 282.831,153.407 
  "/>
<path clip-path="url(#clip660)" d="M116.343 1275.7 L146.019 1275.7 L146.019 1279.63 L116.343 1279.63 L116.343 1275.7 Z" fill="#000000" fill-rule="evenodd" fill-opacity="1" /><path clip-path="url(#clip660)" d="M156.922 1288.59 L164.561 1288.59 L164.561 1262.23 L156.251 1263.89 L156.251 1259.63 L164.515 1257.97 L169.19 1257.97 L169.19 1288.59 L176.829 1288.59 L176.829 1292.53 L156.922 1292.53 L156.922 1288.59 Z" fill="#000000" fill-rule="evenodd" fill-opacity="1" /><path clip-path="url(#clip660)" d="M186.274 1286.65 L191.158 1286.65 L191.158 1292.53 L186.274 1292.53 L186.274 1286.65 Z" fill="#000000" fill-rule="evenodd" fill-opacity="1" /><path clip-path="url(#clip660)" d="M205.371 1288.59 L221.69 1288.59 L221.69 1292.53 L199.746 1292.53 L199.746 1288.59 Q202.408 1285.84 206.991 1281.21 Q211.598 1276.55 212.778 1275.21 Q215.024 1272.69 215.903 1270.95 Q216.806 1269.19 216.806 1267.5 Q216.806 1264.75 214.861 1263.01 Q212.94 1261.28 209.838 1261.28 Q207.639 1261.28 205.186 1262.04 Q202.755 1262.8 199.977 1264.36 L199.977 1259.63 Q202.801 1258.5 205.255 1257.92 Q207.709 1257.34 209.746 1257.34 Q215.116 1257.34 218.311 1260.03 Q221.505 1262.71 221.505 1267.2 Q221.505 1269.33 220.695 1271.25 Q219.908 1273.15 217.801 1275.74 Q217.223 1276.42 214.121 1279.63 Q211.019 1282.83 205.371 1288.59 Z" fill="#000000" fill-rule="evenodd" fill-opacity="1" /><path clip-path="url(#clip660)" d="M114.746 1088.72 L144.422 1088.72 L144.422 1092.66 L114.746 1092.66 L114.746 1088.72 Z" fill="#000000" fill-rule="evenodd" fill-opacity="1" /><path clip-path="url(#clip660)" d="M155.325 1101.62 L162.964 1101.62 L162.964 1075.25 L154.653 1076.92 L154.653 1072.66 L162.917 1070.99 L167.593 1070.99 L167.593 1101.62 L175.232 1101.62 L175.232 1105.55 L155.325 1105.55 L155.325 1101.62 Z" fill="#000000" fill-rule="evenodd" fill-opacity="1" /><path clip-path="url(#clip660)" d="M184.676 1099.67 L189.561 1099.67 L189.561 1105.55 L184.676 1105.55 L184.676 1099.67 Z" fill="#000000" fill-rule="evenodd" fill-opacity="1" /><path clip-path="url(#clip660)" d="M209.746 1074.07 Q206.135 1074.07 204.306 1077.64 Q202.5 1081.18 202.5 1088.31 Q202.5 1095.41 204.306 1098.98 Q206.135 1102.52 209.746 1102.52 Q213.38 1102.52 215.186 1098.98 Q217.014 1095.41 217.014 1088.31 Q217.014 1081.18 215.186 1077.64 Q213.38 1074.07 209.746 1074.07 M209.746 1070.37 Q215.556 1070.37 218.611 1074.97 Q221.69 1079.56 221.69 1088.31 Q221.69 1097.03 218.611 1101.64 Q215.556 1106.22 209.746 1106.22 Q203.936 1106.22 200.857 1101.64 Q197.801 1097.03 197.801 1088.31 Q197.801 1079.56 200.857 1074.97 Q203.936 1070.37 209.746 1070.37 Z" fill="#000000" fill-rule="evenodd" fill-opacity="1" /><path clip-path="url(#clip660)" d="M114.839 901.751 L144.515 901.751 L144.515 905.686 L114.839 905.686 L114.839 901.751 Z" fill="#000000" fill-rule="evenodd" fill-opacity="1" /><path clip-path="url(#clip660)" d="M164.607 887.098 Q160.996 887.098 159.167 890.663 Q157.362 894.205 157.362 901.334 Q157.362 908.441 159.167 912.006 Q160.996 915.547 164.607 915.547 Q168.241 915.547 170.047 912.006 Q171.876 908.441 171.876 901.334 Q171.876 894.205 170.047 890.663 Q168.241 887.098 164.607 887.098 M164.607 883.395 Q170.417 883.395 173.473 888.001 Q176.551 892.584 176.551 901.334 Q176.551 910.061 173.473 914.668 Q170.417 919.251 164.607 919.251 Q158.797 919.251 155.718 914.668 Q152.663 910.061 152.663 901.334 Q152.663 892.584 155.718 888.001 Q158.797 883.395 164.607 883.395 Z" fill="#000000" fill-rule="evenodd" fill-opacity="1" /><path clip-path="url(#clip660)" d="M184.769 912.7 L189.653 912.7 L189.653 918.58 L184.769 918.58 L184.769 912.7 Z" fill="#000000" fill-rule="evenodd" fill-opacity="1" /><path clip-path="url(#clip660)" d="M209.838 902.168 Q206.505 902.168 204.584 903.95 Q202.686 905.733 202.686 908.858 Q202.686 911.983 204.584 913.765 Q206.505 915.547 209.838 915.547 Q213.172 915.547 215.093 913.765 Q217.014 911.959 217.014 908.858 Q217.014 905.733 215.093 903.95 Q213.195 902.168 209.838 902.168 M205.162 900.177 Q202.153 899.436 200.463 897.376 Q198.797 895.316 198.797 892.353 Q198.797 888.21 201.737 885.802 Q204.699 883.395 209.838 883.395 Q215 883.395 217.94 885.802 Q220.88 888.21 220.88 892.353 Q220.88 895.316 219.19 897.376 Q217.523 899.436 214.537 900.177 Q217.917 900.964 219.792 903.256 Q221.69 905.547 221.69 908.858 Q221.69 913.881 218.611 916.566 Q215.556 919.251 209.838 919.251 Q204.121 919.251 201.042 916.566 Q197.987 913.881 197.987 908.858 Q197.987 905.547 199.885 903.256 Q201.783 900.964 205.162 900.177 M203.449 892.793 Q203.449 895.478 205.116 896.983 Q206.806 898.487 209.838 898.487 Q212.848 898.487 214.537 896.983 Q216.25 895.478 216.25 892.793 Q216.25 890.108 214.537 888.603 Q212.848 887.098 209.838 887.098 Q206.806 887.098 205.116 888.603 Q203.449 890.108 203.449 892.793 Z" fill="#000000" fill-rule="evenodd" fill-opacity="1" /><path clip-path="url(#clip660)" d="M114.584 714.778 L144.26 714.778 L144.26 718.713 L114.584 718.713 L114.584 714.778 Z" fill="#000000" fill-rule="evenodd" fill-opacity="1" /><path clip-path="url(#clip660)" d="M164.352 700.125 Q160.741 700.125 158.913 703.69 Q157.107 707.232 157.107 714.361 Q157.107 721.468 158.913 725.032 Q160.741 728.574 164.352 728.574 Q167.987 728.574 169.792 725.032 Q171.621 721.468 171.621 714.361 Q171.621 707.232 169.792 703.69 Q167.987 700.125 164.352 700.125 M164.352 696.421 Q170.163 696.421 173.218 701.028 Q176.297 705.611 176.297 714.361 Q176.297 723.088 173.218 727.694 Q170.163 732.278 164.352 732.278 Q158.542 732.278 155.464 727.694 Q152.408 723.088 152.408 714.361 Q152.408 705.611 155.464 701.028 Q158.542 696.421 164.352 696.421 Z" fill="#000000" fill-rule="evenodd" fill-opacity="1" /><path clip-path="url(#clip660)" d="M184.514 725.727 L189.399 725.727 L189.399 731.606 L184.514 731.606 L184.514 725.727 Z" fill="#000000" fill-rule="evenodd" fill-opacity="1" /><path clip-path="url(#clip660)" d="M210.162 712.463 Q207.014 712.463 205.162 714.616 Q203.334 716.769 203.334 720.519 Q203.334 724.245 205.162 726.421 Q207.014 728.574 210.162 728.574 Q213.311 728.574 215.139 726.421 Q216.991 724.245 216.991 720.519 Q216.991 716.769 215.139 714.616 Q213.311 712.463 210.162 712.463 M219.445 697.81 L219.445 702.07 Q217.686 701.236 215.88 700.796 Q214.098 700.357 212.338 700.357 Q207.709 700.357 205.255 703.482 Q202.824 706.607 202.477 712.926 Q203.843 710.912 205.903 709.847 Q207.963 708.759 210.44 708.759 Q215.649 708.759 218.658 711.931 Q221.69 715.079 221.69 720.519 Q221.69 725.843 218.542 729.06 Q215.394 732.278 210.162 732.278 Q204.167 732.278 200.996 727.694 Q197.825 723.088 197.825 714.361 Q197.825 706.167 201.713 701.306 Q205.602 696.421 212.153 696.421 Q213.912 696.421 215.695 696.769 Q217.5 697.116 219.445 697.81 Z" fill="#000000" fill-rule="evenodd" fill-opacity="1" /><path clip-path="url(#clip660)" d="M114.26 527.805 L143.936 527.805 L143.936 531.74 L114.26 531.74 L114.26 527.805 Z" fill="#000000" fill-rule="evenodd" fill-opacity="1" /><path clip-path="url(#clip660)" d="M164.028 513.152 Q160.417 513.152 158.589 516.717 Q156.783 520.258 156.783 527.388 Q156.783 534.494 158.589 538.059 Q160.417 541.601 164.028 541.601 Q167.663 541.601 169.468 538.059 Q171.297 534.494 171.297 527.388 Q171.297 520.258 169.468 516.717 Q167.663 513.152 164.028 513.152 M164.028 509.448 Q169.839 509.448 172.894 514.055 Q175.973 518.638 175.973 527.388 Q175.973 536.115 172.894 540.721 Q169.839 545.305 164.028 545.305 Q158.218 545.305 155.14 540.721 Q152.084 536.115 152.084 527.388 Q152.084 518.638 155.14 514.055 Q158.218 509.448 164.028 509.448 Z" fill="#000000" fill-rule="evenodd" fill-opacity="1" /><path clip-path="url(#clip660)" d="M184.19 538.754 L189.075 538.754 L189.075 544.633 L184.19 544.633 L184.19 538.754 Z" fill="#000000" fill-rule="evenodd" fill-opacity="1" /><path clip-path="url(#clip660)" d="M212.107 514.147 L200.301 532.596 L212.107 532.596 L212.107 514.147 M210.88 510.073 L216.76 510.073 L216.76 532.596 L221.69 532.596 L221.69 536.485 L216.76 536.485 L216.76 544.633 L212.107 544.633 L212.107 536.485 L196.505 536.485 L196.505 531.971 L210.88 510.073 Z" fill="#000000" fill-rule="evenodd" fill-opacity="1" /><path clip-path="url(#clip660)" d="M116.343 340.831 L146.019 340.831 L146.019 344.767 L116.343 344.767 L116.343 340.831 Z" fill="#000000" fill-rule="evenodd" fill-opacity="1" /><path clip-path="url(#clip660)" d="M166.112 326.179 Q162.501 326.179 160.672 329.744 Q158.866 333.285 158.866 340.415 Q158.866 347.521 160.672 351.086 Q162.501 354.628 166.112 354.628 Q169.746 354.628 171.552 351.086 Q173.38 347.521 173.38 340.415 Q173.38 333.285 171.552 329.744 Q169.746 326.179 166.112 326.179 M166.112 322.475 Q171.922 322.475 174.977 327.082 Q178.056 331.665 178.056 340.415 Q178.056 349.142 174.977 353.748 Q171.922 358.331 166.112 358.331 Q160.302 358.331 157.223 353.748 Q154.167 349.142 154.167 340.415 Q154.167 331.665 157.223 327.082 Q160.302 322.475 166.112 322.475 Z" fill="#000000" fill-rule="evenodd" fill-opacity="1" /><path clip-path="url(#clip660)" d="M186.274 351.78 L191.158 351.78 L191.158 357.66 L186.274 357.66 L186.274 351.78 Z" fill="#000000" fill-rule="evenodd" fill-opacity="1" /><path clip-path="url(#clip660)" d="M205.371 353.725 L221.69 353.725 L221.69 357.66 L199.746 357.66 L199.746 353.725 Q202.408 350.97 206.991 346.341 Q211.598 341.688 212.778 340.345 Q215.024 337.822 215.903 336.086 Q216.806 334.327 216.806 332.637 Q216.806 329.882 214.861 328.146 Q212.94 326.41 209.838 326.41 Q207.639 326.41 205.186 327.174 Q202.755 327.938 199.977 329.489 L199.977 324.767 Q202.801 323.632 205.255 323.054 Q207.709 322.475 209.746 322.475 Q215.116 322.475 218.311 325.16 Q221.505 327.845 221.505 332.336 Q221.505 334.466 220.695 336.387 Q219.908 338.285 217.801 340.878 Q217.223 341.549 214.121 344.767 Q211.019 347.961 205.371 353.725 Z" fill="#000000" fill-rule="evenodd" fill-opacity="1" /><path clip-path="url(#clip660)" d="M164.515 139.206 Q160.903 139.206 159.075 142.77 Q157.269 146.312 157.269 153.442 Q157.269 160.548 159.075 164.113 Q160.903 167.654 164.515 167.654 Q168.149 167.654 169.954 164.113 Q171.783 160.548 171.783 153.442 Q171.783 146.312 169.954 142.77 Q168.149 139.206 164.515 139.206 M164.515 135.502 Q170.325 135.502 173.38 140.108 Q176.459 144.692 176.459 153.442 Q176.459 162.168 173.38 166.775 Q170.325 171.358 164.515 171.358 Q158.704 171.358 155.626 166.775 Q152.57 162.168 152.57 153.442 Q152.57 144.692 155.626 140.108 Q158.704 135.502 164.515 135.502 Z" fill="#000000" fill-rule="evenodd" fill-opacity="1" /><path clip-path="url(#clip660)" d="M184.676 164.807 L189.561 164.807 L189.561 170.687 L184.676 170.687 L184.676 164.807 Z" fill="#000000" fill-rule="evenodd" fill-opacity="1" /><path clip-path="url(#clip660)" d="M209.746 139.206 Q206.135 139.206 204.306 142.77 Q202.5 146.312 202.5 153.442 Q202.5 160.548 204.306 164.113 Q206.135 167.654 209.746 167.654 Q213.38 167.654 215.186 164.113 Q217.014 160.548 217.014 153.442 Q217.014 146.312 215.186 142.77 Q213.38 139.206 209.746 139.206 M209.746 135.502 Q215.556 135.502 218.611 140.108 Q221.69 144.692 221.69 153.442 Q221.69 162.168 218.611 166.775 Q215.556 171.358 209.746 171.358 Q203.936 171.358 200.857 166.775 Q197.801 162.168 197.801 153.442 Q197.801 144.692 200.857 140.108 Q203.936 135.502 209.746 135.502 Z" fill="#000000" fill-rule="evenodd" fill-opacity="1" /><path clip-path="url(#clip660)" d="M33.8307 841.504 Q33.2578 842.491 33.0032 843.668 Q32.7167 844.814 32.7167 846.215 Q32.7167 851.18 35.9632 853.853 Q39.1779 856.495 45.2253 856.495 L64.0042 856.495 L64.0042 862.384 L28.3562 862.384 L28.3562 856.495 L33.8944 856.495 Q30.6479 854.649 29.0883 851.689 Q27.4968 848.729 27.4968 844.496 Q27.4968 843.891 27.5923 843.159 Q27.656 842.427 27.8151 841.536 L33.8307 841.504 Z" fill="#000000" fill-rule="evenodd" fill-opacity="1" /><path clip-path="url(#clip660)" d="M44.7161 806.302 L47.5806 806.302 L47.5806 833.229 Q53.6281 832.847 56.8109 829.6 Q59.9619 826.322 59.9619 820.497 Q59.9619 817.123 59.1344 813.972 Q58.3069 810.789 56.6518 807.67 L62.1899 807.67 Q63.5267 810.821 64.227 814.131 Q64.9272 817.442 64.9272 820.847 Q64.9272 829.377 59.9619 834.374 Q54.9967 839.34 46.5303 839.34 Q37.7774 839.34 32.6531 834.629 Q27.4968 829.887 27.4968 821.866 Q27.4968 814.673 32.1438 810.503 Q36.7589 806.302 44.7161 806.302 M42.9973 812.158 Q38.1912 812.222 35.3266 814.864 Q32.4621 817.473 32.4621 821.802 Q32.4621 826.704 35.2312 829.664 Q38.0002 832.592 43.0292 833.038 L42.9973 812.158 Z" fill="#000000" fill-rule="evenodd" fill-opacity="1" /><path clip-path="url(#clip660)" d="M45.7664 773.232 Q39.4007 773.232 35.8996 775.874 Q32.3984 778.484 32.3984 783.226 Q32.3984 787.937 35.8996 790.578 Q39.4007 793.188 45.7664 793.188 Q52.1003 793.188 55.6014 790.578 Q59.1026 787.937 59.1026 783.226 Q59.1026 778.484 55.6014 775.874 Q52.1003 773.232 45.7664 773.232 M59.58 767.375 Q68.683 767.375 73.1071 771.418 Q77.5631 775.46 77.5631 783.799 Q77.5631 786.886 77.0857 789.624 Q76.6401 792.361 75.6852 794.939 L69.9879 794.939 Q71.3884 792.361 72.0568 789.846 Q72.7252 787.332 72.7252 784.722 Q72.7252 778.961 69.7015 776.096 Q66.7096 773.232 60.6303 773.232 L57.7339 773.232 Q60.885 775.046 62.4446 777.879 Q64.0042 780.712 64.0042 784.658 Q64.0042 791.215 59.0071 795.225 Q54.01 799.236 45.7664 799.236 Q37.491 799.236 32.4939 795.225 Q27.4968 791.215 27.4968 784.658 Q27.4968 780.712 29.0564 777.879 Q30.616 775.046 33.7671 773.232 L28.3562 773.232 L28.3562 767.375 L59.58 767.375 Z" fill="#000000" fill-rule="evenodd" fill-opacity="1" /><path clip-path="url(#clip660)" d="M33.8307 734.656 Q33.2578 735.642 33.0032 736.82 Q32.7167 737.966 32.7167 739.366 Q32.7167 744.331 35.9632 747.005 Q39.1779 749.647 45.2253 749.647 L64.0042 749.647 L64.0042 755.535 L28.3562 755.535 L28.3562 749.647 L33.8944 749.647 Q30.6479 747.801 29.0883 744.841 Q27.4968 741.881 27.4968 737.648 Q27.4968 737.043 27.5923 736.311 Q27.656 735.579 27.8151 734.687 L33.8307 734.656 Z" fill="#000000" fill-rule="evenodd" fill-opacity="1" /><path clip-path="url(#clip660)" d="M44.7161 699.453 L47.5806 699.453 L47.5806 726.38 Q53.6281 725.998 56.8109 722.752 Q59.9619 719.473 59.9619 713.649 Q59.9619 710.275 59.1344 707.124 Q58.3069 703.941 56.6518 700.822 L62.1899 700.822 Q63.5267 703.973 64.227 707.283 Q64.9272 710.593 64.9272 713.999 Q64.9272 722.529 59.9619 727.526 Q54.9967 732.491 46.5303 732.491 Q37.7774 732.491 32.6531 727.781 Q27.4968 723.038 27.4968 715.017 Q27.4968 707.824 32.1438 703.655 Q36.7589 699.453 44.7161 699.453 M42.9973 705.31 Q38.1912 705.373 35.3266 708.015 Q32.4621 710.625 32.4621 714.954 Q32.4621 719.855 35.2312 722.815 Q38.0002 725.744 43.0292 726.189 L42.9973 705.31 Z" fill="#000000" fill-rule="evenodd" fill-opacity="1" /><path clip-path="url(#clip660)" d="M18.2347 684.048 L28.3562 684.048 L28.3562 671.985 L32.9077 671.985 L32.9077 684.048 L52.2594 684.048 Q56.6199 684.048 57.8613 682.871 Q59.1026 681.661 59.1026 678.001 L59.1026 671.985 L64.0042 671.985 L64.0042 678.001 Q64.0042 684.78 61.4897 687.358 Q58.9434 689.937 52.2594 689.937 L32.9077 689.937 L32.9077 694.233 L28.3562 694.233 L28.3562 689.937 L18.2347 689.937 L18.2347 684.048 Z" fill="#000000" fill-rule="evenodd" fill-opacity="1" /><path clip-path="url(#clip660)" d="M1124.15 44.2197 Q1126.78 45.1109 1129.25 48.0275 Q1131.76 50.9442 1134.27 56.0483 L1142.58 72.576 L1133.79 72.576 L1126.05 57.061 Q1123.05 50.9847 1120.22 48.9997 Q1117.42 47.0148 1112.56 47.0148 L1103.65 47.0148 L1103.65 72.576 L1095.47 72.576 L1095.47 12.096 L1113.94 12.096 Q1124.31 12.096 1129.41 16.4305 Q1134.52 20.7649 1134.52 29.5149 Q1134.52 35.2267 1131.84 38.994 Q1129.21 42.7613 1124.15 44.2197 M1103.65 18.8205 L1103.65 40.2903 L1113.94 40.2903 Q1119.85 40.2903 1122.85 37.5762 Q1125.89 34.8216 1125.89 29.5149 Q1125.89 24.2082 1122.85 21.5346 Q1119.85 18.8205 1113.94 18.8205 L1103.65 18.8205 Z" fill="#000000" fill-rule="evenodd" fill-opacity="1" /><path clip-path="url(#clip660)" d="M1153.11 12.096 L1191.35 12.096 L1191.35 18.9825 L1161.29 18.9825 L1161.29 36.8875 L1190.1 36.8875 L1190.1 43.7741 L1161.29 43.7741 L1161.29 65.6895 L1192.08 65.6895 L1192.08 72.576 L1153.11 72.576 L1153.11 12.096 Z" fill="#000000" fill-rule="evenodd" fill-opacity="1" /><path clip-path="url(#clip660)" d="M1225.74 20.1573 L1214.64 50.2555 L1236.88 50.2555 L1225.74 20.1573 M1221.13 12.096 L1230.4 12.096 L1253.45 72.576 L1244.95 72.576 L1239.44 57.061 L1212.17 57.061 L1206.66 72.576 L1198.04 72.576 L1221.13 12.096 Z" fill="#000000" fill-rule="evenodd" fill-opacity="1" /><path clip-path="url(#clip660)" d="M1270.47 18.8205 L1270.47 65.8515 L1280.35 65.8515 Q1292.87 65.8515 1298.66 60.1802 Q1304.49 54.509 1304.49 42.2752 Q1304.49 30.1225 1298.66 24.4918 Q1292.87 18.8205 1280.35 18.8205 L1270.47 18.8205 M1262.28 12.096 L1279.09 12.096 Q1296.68 12.096 1304.9 19.4281 Q1313.12 26.7198 1313.12 42.2752 Q1313.12 57.9117 1304.86 65.2439 Q1296.59 72.576 1279.09 72.576 L1262.28 72.576 L1262.28 12.096 Z" fill="#000000" fill-rule="evenodd" fill-opacity="1" /><path clip-path="url(#clip660)" d="M1326.17 12.096 L1334.35 12.096 L1334.35 72.576 L1326.17 72.576 L1326.17 12.096 Z" fill="#000000" fill-rule="evenodd" fill-opacity="1" /><path clip-path="url(#clip660)" d="M1350.63 12.096 L1361.65 12.096 L1388.47 62.6918 L1388.47 12.096 L1396.41 12.096 L1396.41 72.576 L1385.39 72.576 L1358.57 21.9802 L1358.57 72.576 L1350.63 72.576 L1350.63 12.096 Z" fill="#000000" fill-rule="evenodd" fill-opacity="1" /><path clip-path="url(#clip660)" d="M1453.93 63.9476 L1453.93 47.7034 L1440.56 47.7034 L1440.56 40.9789 L1462.03 40.9789 L1462.03 66.9452 Q1457.29 70.3075 1451.58 72.0494 Q1445.87 73.7508 1439.39 73.7508 Q1425.21 73.7508 1417.19 65.4869 Q1409.21 57.1826 1409.21 42.3968 Q1409.21 27.5705 1417.19 19.3066 Q1425.21 11.0023 1439.39 11.0023 Q1445.3 11.0023 1450.61 12.4606 Q1455.96 13.9189 1460.45 16.7545 L1460.45 25.464 Q1455.92 21.6156 1450.81 19.6712 Q1445.71 17.7268 1440.08 17.7268 Q1428.98 17.7268 1423.39 23.9246 Q1417.84 30.1225 1417.84 42.3968 Q1417.84 54.6305 1423.39 60.8284 Q1428.98 67.0263 1440.08 67.0263 Q1444.41 67.0263 1447.81 66.2971 Q1451.22 65.5274 1453.93 63.9476 Z" fill="#000000" fill-rule="evenodd" fill-opacity="1" /><path clip-path="url(#clip660)" d="M1502.5 39.9662 Q1508.38 41.222 1511.66 45.1919 Q1514.98 49.1618 1514.98 54.9951 Q1514.98 63.9476 1508.82 68.8492 Q1502.66 73.7508 1491.32 73.7508 Q1487.51 73.7508 1483.46 72.9811 Q1479.45 72.2519 1475.16 70.7531 L1475.16 62.8538 Q1478.56 64.8388 1482.61 65.8515 Q1486.66 66.8642 1491.08 66.8642 Q1498.78 66.8642 1502.79 63.826 Q1506.84 60.7879 1506.84 54.9951 Q1506.84 49.6479 1503.07 46.6502 Q1499.34 43.612 1492.66 43.612 L1485.61 43.612 L1485.61 36.8875 L1492.98 36.8875 Q1499.02 36.8875 1502.22 34.4975 Q1505.42 32.067 1505.42 27.5299 Q1505.42 22.8714 1502.1 20.4004 Q1498.82 17.8888 1492.66 17.8888 Q1489.3 17.8888 1485.45 18.618 Q1481.6 19.3471 1476.98 20.8865 L1476.98 13.5948 Q1481.64 12.2985 1485.69 11.6504 Q1489.78 11.0023 1493.39 11.0023 Q1502.7 11.0023 1508.13 15.2557 Q1513.56 19.4686 1513.56 26.6793 Q1513.56 31.7024 1510.68 35.1862 Q1507.81 38.6294 1502.5 39.9662 Z" fill="#000000" fill-rule="evenodd" fill-opacity="1" /><polyline clip-path="url(#clip662)" style="stroke:#009af9; stroke-linecap:butt; stroke-linejoin:round; stroke-width:8; stroke-opacity:1; fill:none" points="
  1629.24,1012.68 1739.24,1158.16 1807.6,1158.16 1857.24,1158.16 1899.61,1158.16 1933.74,1158.16 1964.06,1158.16 1990.34,1158.16 2012.15,1158.16 2031.14,1158.16 
  2049.03,1158.16 2065.4,1158.16 2078.55,1158.16 2090.52,1158.16 2101.8,1158.16 2112.42,1158.16 2122.43,1158.16 2131.87,1158.16 2141.14,1158.16 2151.08,1158.16 
  2160.54,1158.16 2169.55,1158.16 2177.66,1158.16 2185.74,1158.16 2192.71,1158.16 2201.26,1158.16 2210.14,1158.16 2218.83,1158.16 2226.97,1158.16 2234.15,1158.16 
  2241.06,1158.16 2247.75,1158.16 2254.13,1158.16 2260.29,1158.16 2266.24,1158.16 2272.05,1158.16 2277.62,1158.16 2283.05,1158.16 2288.33,1158.16 2293.46,1158.16 
  
  "/>
<polyline clip-path="url(#clip662)" style="stroke:#e26f46; stroke-linecap:butt; stroke-linejoin:round; stroke-width:8; stroke-opacity:1; fill:none" points="
  1646.51,998.785 1770.23,1007.4 1844.41,1007.4 1896.75,1007.4 1936.92,1009.21 1970.23,1009.21 1998.23,1158.16 2022.53,1158.16 2043.86,1158.16 2062.88,1158.16 
  2080.18,1158.16 2095.87,1158.16 2110.23,1158.16 2123.75,1158.16 2135.6,1158.16 2146.28,1158.16 2156.55,1158.16 2167.01,1158.16 2176.12,1158.16 2183.84,1158.16 
  2190.75,1374.46 2197.4,1374.46 2203.79,1374.46 2209.97,1374.46 2215.93,1374.46 2221.68,1374.46 2227.27,1374.46 2232.73,1374.46 2237.99,1374.46 2243.18,1374.46 
  2248.21,1374.46 2253.06,1374.46 2257.78,1374.46 2262.39,1374.46 2266.87,1374.46 2271.25,1374.46 2275.52,1374.46 2279.95,1374.46 2284.05,1374.46 2288.12,1374.46 
  
  "/>
<polyline clip-path="url(#clip662)" style="stroke:#3da44d; stroke-linecap:butt; stroke-linejoin:round; stroke-width:8; stroke-opacity:1; fill:none" points="
  331.278,387.205 421.079,427.712 477.982,427.712 518.831,427.712 550.698,427.712 585.601,427.712 612.866,427.712 634.321,427.712 660.927,427.712 680.161,427.712 
  695.454,427.712 709.833,433.178 722.599,433.178 787.775,433.178 796.161,433.178 804.383,433.178 812.073,433.178 819.088,433.178 825.597,433.178 831.723,433.178 
  837.757,433.178 843.483,433.178 849.048,433.178 854.532,433.178 859.826,433.178 864.962,433.178 870.154,437.698 875.102,437.698 880.329,437.698 885.318,437.698 
  890.068,437.698 894.381,437.698 898.612,437.698 902.709,437.698 906.657,437.698 910.644,437.698 914.491,437.698 918.222,437.698 921.907,437.698 925.906,437.698 
  929.618,437.698 933.204,437.698 936.648,437.698 940.084,437.698 943.4,437.698 946.628,437.698 949.785,437.698 952.841,437.698 956.007,437.698 959.021,437.698 
  961.95,437.698 964.846,437.698 968.516,437.698 971.893,437.698 975.02,437.698 977.981,437.698 980.637,437.698 983.3,437.698 985.841,437.698 988.364,437.698 
  990.922,437.698 993.423,437.698 995.877,437.698 998.291,437.698 1000.68,437.698 1005.89,437.698 1011.22,437.698 1014.29,437.698 1017.13,437.698 1019.64,437.698 
  1022.05,437.698 1024.36,437.698 1026.47,437.698 1028.52,437.698 1030.55,437.698 1032.59,437.698 1034.67,437.698 1036.69,437.698 1038.64,437.698 1040.57,437.698 
  1042.44,437.698 1049.58,437.698 1053.7,437.698 1057.35,437.698 1061.29,437.698 1064.76,437.698 1068.16,437.698 1071.52,437.698 1074.88,437.698 1078.12,437.698 
  1081.46,437.698 1085.06,437.698 1088.23,437.698 1091.22,437.698 1094.18,437.698 1097.06,437.698 1099.95,437.698 1102.76,437.698 1105.61,437.698 1108.42,437.698 
  1111.71,437.698 1114.48,437.698 1117.07,437.698 1119.6,437.698 1122.1,437.698 1124.56,437.698 1127.03,437.698 1129.5,437.698 1138.37,437.698 1145.68,437.698 
  1152.72,437.698 1159.42,437.698 1165.87,437.698 1172.12,437.698 1178.33,437.698 1185.22,437.698 1192.83,437.698 1210.36,442.94 1227.04,442.94 1241.3,442.94 
  1279.29,506.439 1690.76,506.439 1690.87,506.439 1690.98,506.439 1691.09,506.439 1691.2,506.439 1691.3,506.439 1691.43,506.439 1691.54,506.439 1691.65,506.439 
  1691.75,506.439 1691.87,506.439 1691.99,506.439 1692.09,506.439 1692.2,506.439 1692.31,506.439 1692.42,506.439 1692.53,506.439 1692.64,506.439 1692.75,506.439 
  1692.85,506.439 1692.96,506.439 1693.07,506.439 1693.18,506.439 1693.28,506.439 1693.59,506.439 1693.7,506.439 1693.8,506.439 1693.92,506.439 1694.04,506.439 
  1694.14,506.439 1694.25,506.439 1694.36,506.439 1694.46,506.439 1694.57,506.439 1694.93,506.439 1695.31,506.439 1695.63,506.439 1695.97,506.439 1696.3,506.439 
  1696.62,506.439 1696.94,506.439 1697.25,506.439 1697.56,506.439 1697.91,506.439 1698.25,506.439 1699.32,506.439 1700.37,506.439 1701.39,506.439 1704.57,537.31 
  1755.67,774.183 1756.11,774.183 1756.48,774.183 1756.73,774.183 1756.96,774.183 1757.35,774.183 1757.81,791.728 1758.04,791.728 1758.43,791.728 1758.8,791.728 
  1759.19,791.728 1759.58,791.728 1760.04,791.728 1760.43,791.728 1760.65,791.728 1761.48,843.421 1762.26,843.421 1763.06,843.421 1763.84,843.421 1764.65,843.421 
  1767.07,949.199 1781.82,1143.48 1782.43,1143.48 1783.1,1143.48 1783.8,1143.48 1784.58,1143.48 1785.2,1143.48 1785.97,1143.48 1786.82,1143.48 1789.01,1189.69 
  1791.1,1189.69 1808.42,1189.69 1810.44,1189.69 1812.27,1189.69 1814.11,1189.69 1815.89,1189.69 
  "/>
<polyline clip-path="url(#clip662)" style="stroke:#c271d2; stroke-linecap:butt; stroke-linejoin:round; stroke-width:8; stroke-opacity:1; fill:none" points="
  316.984,159.909 403.203,424.99 462.59,426.253 506.225,426.253 540.664,426.253 569.824,426.253 598.627,433.178 621.762,433.178 641.635,433.178 658.735,433.178 
  674.008,433.178 687.837,433.178 700.68,434.424 712.868,434.424 724.04,434.424 734.893,434.424 744.844,434.424 754.467,434.424 763.589,437.698 772.199,437.698 
  780.363,437.698 788.438,437.698 797.135,437.698 805.693,437.698 813.35,437.698 823.303,437.698 831.246,437.698 838.235,437.698 845.019,437.698 851.039,437.698 
  856.872,437.698 861.963,437.698 869.502,437.698 875.177,437.698 880.376,437.698 885.242,437.698 889.947,437.698 894.385,437.698 898.778,437.698 902.87,437.698 
  906.893,437.698 913.12,437.698 917.491,437.698 921.696,437.698 925.708,437.698 929.608,437.698 933.392,437.698 937.077,437.698 940.696,437.698 944.464,437.698 
  947.833,437.698 951.189,437.698 954.861,437.698 958.255,437.698 963.758,437.698 968.375,437.698 972.613,437.698 976.404,437.698 979.599,437.698 982.621,437.698 
  985.573,437.698 988.399,437.698 991.145,437.698 993.684,437.698 996.209,437.698 998.758,437.698 1001.12,437.698 1003.47,437.698 1005.79,437.698 1008.11,437.698 
  1010.41,437.698 1012.68,437.698 1014.9,437.698 1017.08,437.698 1019.26,437.698 1021.46,437.698 1023.66,437.698 1025.98,437.698 1028.14,437.698 1030.33,437.698 
  1032.58,437.698 1036.99,437.698 1041.05,437.698 1045.04,437.698 1048.91,437.698 1052.69,437.698 1056.42,437.698 1060.52,437.698 1064.37,437.698 1067.86,437.698 
  1071.37,437.698 1074.69,437.698 1079,437.698 1082.41,437.698 1085.57,437.698 1088.89,437.698 1092.94,437.698 1096.33,437.698 1099.54,437.698 1102.54,437.698 
  1105.33,437.698 1108.09,437.698 1110.78,437.698 1113.46,437.698 1116.11,437.698 1118.84,437.698 1121.7,437.698 1124.54,437.698 1132.41,437.698 1139.95,437.698 
  1147.22,437.698 1154.12,437.698 1160.72,437.698 1167.71,437.698 1174.01,437.698 1180.81,437.698 1186.64,437.698 1203.99,442.94 1220.06,442.94 1234.63,442.94 
  1275.45,506.439 1276.73,506.439 1277.99,506.439 1279.15,506.439 1280.24,506.439 1281.33,506.439 1282.39,506.439 1283.45,506.439 1284.49,506.439 1285.52,506.439 
  1286.58,506.439 1290.97,506.439 1292.11,506.439 1293.15,506.439 1294.13,506.439 1295.1,506.439 1296.15,506.439 1297.16,506.439 1298.14,506.439 1299.08,506.439 
  1300.04,506.439 1300.97,506.439 1301.89,506.439 1302.81,506.439 1303.72,506.439 1304.65,506.439 1305.58,506.439 1306.76,506.439 1307.72,506.439 1308.61,506.439 
  1309.49,506.439 1310.39,506.439 1311.26,506.439 1312.15,506.439 1313.03,506.439 1315.92,506.439 1318.73,506.439 1321.85,506.439 1324.54,506.439 1327.21,506.439 
  1329.88,506.439 1332.56,506.439 1335.14,506.439 1337.69,506.439 1340.19,506.439 1342.65,506.439 1350.26,506.439 1358.37,506.439 1365.45,506.439 1385.52,506.439 
  1387.31,506.439 1389.27,506.439 1390.98,506.439 1392.69,506.439 1394.81,506.439 1396.74,506.439 1398.41,506.439 1400.18,506.439 1401.82,506.439 1403.44,506.439 
  1405.04,506.439 1406.78,506.439 1408.55,506.439 1410.34,506.439 1411.88,506.439 1416.98,506.439 1421.89,506.439 1426.95,506.439 1431.62,506.439 1436.5,506.439 
  1449.93,510.382 1453.9,510.382 1458.09,510.382 1461.85,510.382 1465.51,510.382 1469.36,510.382 1472.87,510.382 1476.22,510.382 1481,510.382 1491.82,510.382 
  1501.81,510.382 1511.11,510.382 1520.57,510.382 1529.48,510.382 1537.95,510.382 1545.84,510.382 
  "/>
<path clip-path="url(#clip660)" d="
M1802.61 425.586 L2282.92 425.586 L2282.92 166.386 L1802.61 166.386  Z
  " fill="#ffffff" fill-rule="evenodd" fill-opacity="1"/>
<polyline clip-path="url(#clip660)" style="stroke:#000000; stroke-linecap:butt; stroke-linejoin:round; stroke-width:4; stroke-opacity:1; fill:none" points="
  1802.61,425.586 2282.92,425.586 2282.92,166.386 1802.61,166.386 1802.61,425.586 
  "/>
<polyline clip-path="url(#clip660)" style="stroke:#009af9; stroke-linecap:butt; stroke-linejoin:round; stroke-width:4; stroke-opacity:1; fill:none" points="
  1825.89,218.226 1965.56,218.226 
  "/>
<path clip-path="url(#clip660)" d="M2004.03 213.562 Q2003.31 213.145 2002.45 212.96 Q2001.62 212.752 2000.6 212.752 Q1996.99 212.752 1995.05 215.113 Q1993.12 217.451 1993.12 221.849 L1993.12 235.506 L1988.84 235.506 L1988.84 209.58 L1993.12 209.58 L1993.12 213.608 Q1994.47 211.247 1996.62 210.113 Q1998.77 208.955 2001.85 208.955 Q2002.29 208.955 2002.82 209.025 Q2003.36 209.071 2004 209.187 L2004.03 213.562 Z" fill="#000000" fill-rule="evenodd" fill-opacity="1" /><path clip-path="url(#clip660)" d="M2020.28 222.474 Q2015.11 222.474 2013.12 223.654 Q2011.13 224.835 2011.13 227.682 Q2011.13 229.951 2012.61 231.293 Q2014.12 232.613 2016.69 232.613 Q2020.23 232.613 2022.36 230.113 Q2024.51 227.59 2024.51 223.423 L2024.51 222.474 L2020.28 222.474 M2028.77 220.715 L2028.77 235.506 L2024.51 235.506 L2024.51 231.571 Q2023.05 233.932 2020.88 235.066 Q2018.7 236.178 2015.55 236.178 Q2011.57 236.178 2009.21 233.955 Q2006.87 231.71 2006.87 227.96 Q2006.87 223.585 2009.79 221.363 Q2012.73 219.141 2018.54 219.141 L2024.51 219.141 L2024.51 218.724 Q2024.51 215.784 2022.57 214.187 Q2020.65 212.567 2017.15 212.567 Q2014.93 212.567 2012.82 213.099 Q2010.72 213.631 2008.77 214.696 L2008.77 210.761 Q2011.11 209.858 2013.31 209.418 Q2015.51 208.955 2017.59 208.955 Q2023.22 208.955 2025.99 211.872 Q2028.77 214.789 2028.77 220.715 Z" fill="#000000" fill-rule="evenodd" fill-opacity="1" /><path clip-path="url(#clip660)" d="M2059.1 219.858 L2059.1 235.506 L2054.84 235.506 L2054.84 219.997 Q2054.84 216.317 2053.4 214.488 Q2051.97 212.659 2049.1 212.659 Q2045.65 212.659 2043.66 214.858 Q2041.67 217.057 2041.67 220.854 L2041.67 235.506 L2037.38 235.506 L2037.38 209.58 L2041.67 209.58 L2041.67 213.608 Q2043.19 211.27 2045.25 210.113 Q2047.34 208.955 2050.04 208.955 Q2054.51 208.955 2056.8 211.733 Q2059.1 214.488 2059.1 219.858 Z" fill="#000000" fill-rule="evenodd" fill-opacity="1" /><path clip-path="url(#clip660)" d="M2084.65 213.516 L2084.65 199.488 L2088.91 199.488 L2088.91 235.506 L2084.65 235.506 L2084.65 231.617 Q2083.31 233.932 2081.25 235.066 Q2079.21 236.178 2076.34 236.178 Q2071.64 236.178 2068.68 232.428 Q2065.74 228.678 2065.74 222.567 Q2065.74 216.455 2068.68 212.705 Q2071.64 208.955 2076.34 208.955 Q2079.21 208.955 2081.25 210.09 Q2083.31 211.201 2084.65 213.516 M2070.14 222.567 Q2070.14 227.266 2072.06 229.951 Q2074 232.613 2077.38 232.613 Q2080.76 232.613 2082.71 229.951 Q2084.65 227.266 2084.65 222.567 Q2084.65 217.867 2082.71 215.205 Q2080.76 212.52 2077.38 212.52 Q2074 212.52 2072.06 215.205 Q2070.14 217.867 2070.14 222.567 Z" fill="#000000" fill-rule="evenodd" fill-opacity="1" /><path clip-path="url(#clip660)" d="M2107.73 212.567 Q2104.3 212.567 2102.31 215.252 Q2100.32 217.914 2100.32 222.567 Q2100.32 227.219 2102.29 229.904 Q2104.28 232.566 2107.73 232.566 Q2111.13 232.566 2113.12 229.881 Q2115.11 227.196 2115.11 222.567 Q2115.11 217.96 2113.12 215.275 Q2111.13 212.567 2107.73 212.567 M2107.73 208.955 Q2113.29 208.955 2116.46 212.567 Q2119.63 216.178 2119.63 222.567 Q2119.63 228.932 2116.46 232.566 Q2113.29 236.178 2107.73 236.178 Q2102.15 236.178 2098.98 232.566 Q2095.83 228.932 2095.83 222.567 Q2095.83 216.178 2098.98 212.567 Q2102.15 208.955 2107.73 208.955 Z" fill="#000000" fill-rule="evenodd" fill-opacity="1" /><path clip-path="url(#clip660)" d="M2146.87 214.557 Q2148.47 211.687 2150.69 210.321 Q2152.91 208.955 2155.92 208.955 Q2159.97 208.955 2162.17 211.803 Q2164.37 214.627 2164.37 219.858 L2164.37 235.506 L2160.09 235.506 L2160.09 219.997 Q2160.09 216.27 2158.77 214.465 Q2157.45 212.659 2154.74 212.659 Q2151.43 212.659 2149.51 214.858 Q2147.59 217.057 2147.59 220.854 L2147.59 235.506 L2143.31 235.506 L2143.31 219.997 Q2143.31 216.247 2141.99 214.465 Q2140.67 212.659 2137.91 212.659 Q2134.65 212.659 2132.73 214.881 Q2130.81 217.08 2130.81 220.854 L2130.81 235.506 L2126.53 235.506 L2126.53 209.58 L2130.81 209.58 L2130.81 213.608 Q2132.27 211.224 2134.3 210.09 Q2136.34 208.955 2139.14 208.955 Q2141.97 208.955 2143.93 210.391 Q2145.92 211.826 2146.87 214.557 Z" fill="#000000" fill-rule="evenodd" fill-opacity="1" /><polyline clip-path="url(#clip660)" style="stroke:#e26f46; stroke-linecap:butt; stroke-linejoin:round; stroke-width:4; stroke-opacity:1; fill:none" points="
  1825.89,270.066 1965.56,270.066 
  "/>
<path clip-path="url(#clip660)" d="M1988.84 252.786 L1993.52 252.786 L1993.52 283.411 L2010.35 283.411 L2010.35 287.346 L1988.84 287.346 L1988.84 252.786 Z" fill="#000000" fill-rule="evenodd" fill-opacity="1" /><path clip-path="url(#clip660)" d="M2015.25 252.786 L2019.93 252.786 L2019.93 266.953 L2036.92 266.953 L2036.92 252.786 L2041.6 252.786 L2041.6 287.346 L2036.92 287.346 L2036.92 270.888 L2019.93 270.888 L2019.93 287.346 L2015.25 287.346 L2015.25 252.786 Z" fill="#000000" fill-rule="evenodd" fill-opacity="1" /><polyline clip-path="url(#clip660)" style="stroke:#3da44d; stroke-linecap:butt; stroke-linejoin:round; stroke-width:4; stroke-opacity:1; fill:none" points="
  1825.89,321.906 1965.56,321.906 
  "/>
<path clip-path="url(#clip660)" d="M1993.52 322.682 L1993.52 335.344 L2001.02 335.344 Q2004.79 335.344 2006.6 333.793 Q2008.42 332.219 2008.42 329.001 Q2008.42 325.76 2006.6 324.233 Q2004.79 322.682 2001.02 322.682 L1993.52 322.682 M1993.52 308.469 L1993.52 318.885 L2000.44 318.885 Q2003.86 318.885 2005.53 317.612 Q2007.22 316.316 2007.22 313.677 Q2007.22 311.061 2005.53 309.765 Q2003.86 308.469 2000.44 308.469 L1993.52 308.469 M1988.84 304.626 L2000.79 304.626 Q2006.13 304.626 2009.03 306.848 Q2011.92 309.071 2011.92 313.168 Q2011.92 316.339 2010.44 318.214 Q2008.96 320.089 2006.09 320.552 Q2009.54 321.293 2011.43 323.654 Q2013.36 325.992 2013.36 329.51 Q2013.36 334.14 2010.21 336.663 Q2007.06 339.186 2001.25 339.186 L1988.84 339.186 L1988.84 304.626 Z" fill="#000000" fill-rule="evenodd" fill-opacity="1" /><path clip-path="url(#clip660)" d="M2034.56 307.798 Q2029.47 307.798 2026.46 311.594 Q2023.47 315.39 2023.47 321.941 Q2023.47 328.469 2026.46 332.265 Q2029.47 336.061 2034.56 336.061 Q2039.65 336.061 2042.61 332.265 Q2045.6 328.469 2045.6 321.941 Q2045.6 315.39 2042.61 311.594 Q2039.65 307.798 2034.56 307.798 M2034.56 304.001 Q2041.83 304.001 2046.18 308.886 Q2050.53 313.747 2050.53 321.941 Q2050.53 330.112 2046.18 334.996 Q2041.83 339.858 2034.56 339.858 Q2027.27 339.858 2022.89 334.996 Q2018.54 330.135 2018.54 321.941 Q2018.54 313.747 2022.89 308.886 Q2027.27 304.001 2034.56 304.001 Z" fill="#000000" fill-rule="evenodd" fill-opacity="1" /><path clip-path="url(#clip660)" d="M2057.85 304.626 L2062.52 304.626 L2062.52 318.793 L2079.51 318.793 L2079.51 304.626 L2084.19 304.626 L2084.19 339.186 L2079.51 339.186 L2079.51 322.728 L2062.52 322.728 L2062.52 339.186 L2057.85 339.186 L2057.85 304.626 Z" fill="#000000" fill-rule="evenodd" fill-opacity="1" /><path clip-path="url(#clip660)" d="M2098.17 322.682 L2098.17 335.344 L2105.67 335.344 Q2109.44 335.344 2111.25 333.793 Q2113.08 332.219 2113.08 329.001 Q2113.08 325.76 2111.25 324.233 Q2109.44 322.682 2105.67 322.682 L2098.17 322.682 M2098.17 308.469 L2098.17 318.885 L2105.09 318.885 Q2108.52 318.885 2110.18 317.612 Q2111.87 316.316 2111.87 313.677 Q2111.87 311.061 2110.18 309.765 Q2108.52 308.469 2105.09 308.469 L2098.17 308.469 M2093.49 304.626 L2105.44 304.626 Q2110.79 304.626 2113.68 306.848 Q2116.57 309.071 2116.57 313.168 Q2116.57 316.339 2115.09 318.214 Q2113.61 320.089 2110.74 320.552 Q2114.19 321.293 2116.09 323.654 Q2118.01 325.992 2118.01 329.51 Q2118.01 334.14 2114.86 336.663 Q2111.71 339.186 2105.9 339.186 L2093.49 339.186 L2093.49 304.626 Z" fill="#000000" fill-rule="evenodd" fill-opacity="1" /><polyline clip-path="url(#clip660)" style="stroke:#c271d2; stroke-linecap:butt; stroke-linejoin:round; stroke-width:4; stroke-opacity:1; fill:none" points="
  1825.89,373.746 1965.56,373.746 
  "/>
<path clip-path="url(#clip660)" d="M2010.55 375.378 L2010.55 391.026 L2006.3 391.026 L2006.3 375.517 Q2006.3 371.837 2004.86 370.008 Q2003.42 368.179 2000.55 368.179 Q1997.11 368.179 1995.11 370.378 Q1993.12 372.577 1993.12 376.374 L1993.12 391.026 L1988.84 391.026 L1988.84 355.008 L1993.12 355.008 L1993.12 369.128 Q1994.65 366.79 1996.71 365.633 Q1998.8 364.475 2001.5 364.475 Q2005.97 364.475 2008.26 367.253 Q2010.55 370.008 2010.55 375.378 Z" fill="#000000" fill-rule="evenodd" fill-opacity="1" /><path clip-path="url(#clip660)" d="M2029.84 393.434 Q2028.03 398.063 2026.32 399.475 Q2024.61 400.887 2021.73 400.887 L2018.33 400.887 L2018.33 397.323 L2020.83 397.323 Q2022.59 397.323 2023.56 396.489 Q2024.54 395.656 2025.72 392.554 L2026.48 390.61 L2015.99 365.1 L2020.51 365.1 L2028.61 385.378 L2036.71 365.1 L2041.23 365.1 L2029.84 393.434 Z" fill="#000000" fill-rule="evenodd" fill-opacity="1" /><path clip-path="url(#clip660)" d="M2051.23 387.137 L2051.23 400.887 L2046.94 400.887 L2046.94 365.1 L2051.23 365.1 L2051.23 369.036 Q2052.57 366.721 2054.61 365.61 Q2056.67 364.475 2059.51 364.475 Q2064.23 364.475 2067.17 368.225 Q2070.14 371.975 2070.14 378.087 Q2070.14 384.198 2067.17 387.948 Q2064.23 391.698 2059.51 391.698 Q2056.67 391.698 2054.61 390.586 Q2052.57 389.452 2051.23 387.137 M2065.72 378.087 Q2065.72 373.387 2063.77 370.725 Q2061.85 368.04 2058.47 368.04 Q2055.09 368.04 2053.15 370.725 Q2051.23 373.387 2051.23 378.087 Q2051.23 382.786 2053.15 385.471 Q2055.09 388.133 2058.47 388.133 Q2061.85 388.133 2063.77 385.471 Q2065.72 382.786 2065.72 378.087 Z" fill="#000000" fill-rule="evenodd" fill-opacity="1" /><path clip-path="url(#clip660)" d="M2099.37 376.999 L2099.37 379.082 L2079.79 379.082 Q2080.07 383.48 2082.43 385.795 Q2084.81 388.086 2089.05 388.086 Q2091.5 388.086 2093.79 387.485 Q2096.11 386.883 2098.38 385.679 L2098.38 389.707 Q2096.09 390.679 2093.68 391.188 Q2091.27 391.698 2088.79 391.698 Q2082.59 391.698 2078.96 388.086 Q2075.35 384.475 2075.35 378.318 Q2075.35 371.952 2078.77 368.225 Q2082.22 364.475 2088.05 364.475 Q2093.29 364.475 2096.32 367.855 Q2099.37 371.212 2099.37 376.999 M2095.11 375.749 Q2095.07 372.253 2093.15 370.17 Q2091.25 368.087 2088.1 368.087 Q2084.54 368.087 2082.38 370.1 Q2080.25 372.114 2079.93 375.772 L2095.11 375.749 Z" fill="#000000" fill-rule="evenodd" fill-opacity="1" /><path clip-path="url(#clip660)" d="M2121.39 369.082 Q2120.67 368.665 2119.81 368.48 Q2118.98 368.272 2117.96 368.272 Q2114.35 368.272 2112.41 370.633 Q2110.48 372.971 2110.48 377.369 L2110.48 391.026 L2106.2 391.026 L2106.2 365.1 L2110.48 365.1 L2110.48 369.128 Q2111.83 366.767 2113.98 365.633 Q2116.13 364.475 2119.21 364.475 Q2119.65 364.475 2120.18 364.545 Q2120.72 364.591 2121.36 364.707 L2121.39 369.082 Z" fill="#000000" fill-rule="evenodd" fill-opacity="1" /><path clip-path="url(#clip660)" d="M2144.47 378.087 Q2144.47 373.387 2142.52 370.725 Q2140.6 368.04 2137.22 368.04 Q2133.84 368.04 2131.9 370.725 Q2129.98 373.387 2129.98 378.087 Q2129.98 382.786 2131.9 385.471 Q2133.84 388.133 2137.22 388.133 Q2140.6 388.133 2142.52 385.471 Q2144.47 382.786 2144.47 378.087 M2129.98 369.036 Q2131.32 366.721 2133.35 365.61 Q2135.41 364.475 2138.26 364.475 Q2142.98 364.475 2145.92 368.225 Q2148.89 371.975 2148.89 378.087 Q2148.89 384.198 2145.92 387.948 Q2142.98 391.698 2138.26 391.698 Q2135.41 391.698 2133.35 390.586 Q2131.32 389.452 2129.98 387.137 L2129.98 391.026 L2125.69 391.026 L2125.69 355.008 L2129.98 355.008 L2129.98 369.036 Z" fill="#000000" fill-rule="evenodd" fill-opacity="1" /><path clip-path="url(#clip660)" d="M2167.73 377.994 Q2162.57 377.994 2160.58 379.174 Q2158.59 380.355 2158.59 383.202 Q2158.59 385.471 2160.07 386.813 Q2161.57 388.133 2164.14 388.133 Q2167.68 388.133 2169.81 385.633 Q2171.97 383.11 2171.97 378.943 L2171.97 377.994 L2167.73 377.994 M2176.22 376.235 L2176.22 391.026 L2171.97 391.026 L2171.97 387.091 Q2170.51 389.452 2168.33 390.586 Q2166.16 391.698 2163.01 391.698 Q2159.03 391.698 2156.66 389.475 Q2154.33 387.23 2154.33 383.48 Q2154.33 379.105 2157.24 376.883 Q2160.18 374.661 2165.99 374.661 L2171.97 374.661 L2171.97 374.244 Q2171.97 371.304 2170.02 369.707 Q2168.1 368.087 2164.6 368.087 Q2162.38 368.087 2160.28 368.619 Q2158.17 369.151 2156.22 370.216 L2156.22 366.281 Q2158.56 365.378 2160.76 364.938 Q2162.96 364.475 2165.04 364.475 Q2170.67 364.475 2173.45 367.392 Q2176.22 370.309 2176.22 376.235 Z" fill="#000000" fill-rule="evenodd" fill-opacity="1" /><path clip-path="url(#clip660)" d="M2206.55 375.378 L2206.55 391.026 L2202.29 391.026 L2202.29 375.517 Q2202.29 371.837 2200.85 370.008 Q2199.42 368.179 2196.55 368.179 Q2193.1 368.179 2191.11 370.378 Q2189.12 372.577 2189.12 376.374 L2189.12 391.026 L2184.84 391.026 L2184.84 365.1 L2189.12 365.1 L2189.12 369.128 Q2190.65 366.79 2192.71 365.633 Q2194.79 364.475 2197.5 364.475 Q2201.97 364.475 2204.26 367.253 Q2206.55 370.008 2206.55 375.378 Z" fill="#000000" fill-rule="evenodd" fill-opacity="1" /><path clip-path="url(#clip660)" d="M2232.1 369.036 L2232.1 355.008 L2236.36 355.008 L2236.36 391.026 L2232.1 391.026 L2232.1 387.137 Q2230.76 389.452 2228.7 390.586 Q2226.66 391.698 2223.79 391.698 Q2219.09 391.698 2216.13 387.948 Q2213.19 384.198 2213.19 378.087 Q2213.19 371.975 2216.13 368.225 Q2219.09 364.475 2223.79 364.475 Q2226.66 364.475 2228.7 365.61 Q2230.76 366.721 2232.1 369.036 M2217.59 378.087 Q2217.59 382.786 2219.51 385.471 Q2221.46 388.133 2224.84 388.133 Q2228.22 388.133 2230.16 385.471 Q2232.1 382.786 2232.1 378.087 Q2232.1 373.387 2230.16 370.725 Q2228.22 368.04 2224.84 368.04 Q2221.46 368.04 2219.51 370.725 Q2217.59 373.387 2217.59 378.087 Z" fill="#000000" fill-rule="evenodd" fill-opacity="1" /></svg>
