<?xml version="1.0" encoding="utf-8"?>
<svg xmlns="http://www.w3.org/2000/svg" xmlns:xlink="http://www.w3.org/1999/xlink" width="600" height="400" viewBox="0 0 2400 1600">
<defs>
  <clipPath id="clip690">
    <rect x="0" y="0" width="2400" height="1600"/>
  </clipPath>
</defs>
<path clip-path="url(#clip690)" d="
M0 1600 L2400 1600 L2400 0 L0 0  Z
  " fill="#ffffff" fill-rule="evenodd" fill-opacity="1"/>
<defs>
  <clipPath id="clip691">
    <rect x="480" y="0" width="1681" height="1600"/>
  </clipPath>
</defs>
<path clip-path="url(#clip690)" d="
M257.69 1410.9 L2352.76 1410.9 L2352.76 123.472 L257.69 123.472  Z
  " fill="#ffffff" fill-rule="evenodd" fill-opacity="1"/>
<defs>
  <clipPath id="clip692">
    <rect x="257" y="123" width="2096" height="1288"/>
  </clipPath>
</defs>
<polyline clip-path="url(#clip692)" style="stroke:#000000; stroke-linecap:butt; stroke-linejoin:round; stroke-width:2; stroke-opacity:0.1; fill:none" points="
  1006.07,1410.9 1006.07,123.472 
  "/>
<polyline clip-path="url(#clip692)" style="stroke:#000000; stroke-linecap:butt; stroke-linejoin:round; stroke-width:2; stroke-opacity:0.1; fill:none" points="
  1841.82,1410.9 1841.82,123.472 
  "/>
<polyline clip-path="url(#clip690)" style="stroke:#000000; stroke-linecap:butt; stroke-linejoin:round; stroke-width:4; stroke-opacity:1; fill:none" points="
  257.69,1410.9 2352.76,1410.9 
  "/>
<polyline clip-path="url(#clip690)" style="stroke:#000000; stroke-linecap:butt; stroke-linejoin:round; stroke-width:4; stroke-opacity:1; fill:none" points="
  1006.07,1410.9 1006.07,1395.45 
  "/>
<polyline clip-path="url(#clip690)" style="stroke:#000000; stroke-linecap:butt; stroke-linejoin:round; stroke-width:4; stroke-opacity:1; fill:none" points="
  1841.82,1410.9 1841.82,1395.45 
  "/>
<path clip-path="url(#clip690)" d="M971.054 1489.17 L978.693 1489.17 L978.693 1462.8 L970.383 1464.47 L970.383 1460.21 L978.647 1458.54 L983.322 1458.54 L983.322 1489.17 L990.961 1489.17 L990.961 1493.1 L971.054 1493.1 L971.054 1489.17 Z" fill="#000000" fill-rule="evenodd" fill-opacity="1" /><path clip-path="url(#clip690)" d="M1010.41 1461.62 Q1006.79 1461.62 1004.97 1465.19 Q1003.16 1468.73 1003.16 1475.86 Q1003.16 1482.97 1004.97 1486.53 Q1006.79 1490.07 1010.41 1490.07 Q1014.04 1490.07 1015.85 1486.53 Q1017.67 1482.97 1017.67 1475.86 Q1017.67 1468.73 1015.85 1465.19 Q1014.04 1461.62 1010.41 1461.62 M1010.41 1457.92 Q1016.22 1457.92 1019.27 1462.53 Q1022.35 1467.11 1022.35 1475.86 Q1022.35 1484.59 1019.27 1489.19 Q1016.22 1493.78 1010.41 1493.78 Q1004.6 1493.78 1001.52 1489.19 Q998.461 1484.59 998.461 1475.86 Q998.461 1467.11 1001.52 1462.53 Q1004.6 1457.92 1010.41 1457.92 Z" fill="#000000" fill-rule="evenodd" fill-opacity="1" /><path clip-path="url(#clip690)" d="M1032.05 1440.11 Q1029.12 1440.11 1027.64 1443.01 Q1026.17 1445.89 1026.17 1451.68 Q1026.17 1457.46 1027.64 1460.35 Q1029.12 1463.23 1032.05 1463.23 Q1035.01 1463.23 1036.47 1460.35 Q1037.96 1457.46 1037.96 1451.68 Q1037.96 1445.89 1036.47 1443.01 Q1035.01 1440.11 1032.05 1440.11 M1032.05 1437.11 Q1036.78 1437.11 1039.26 1440.85 Q1041.76 1444.57 1041.76 1451.68 Q1041.76 1458.77 1039.26 1462.51 Q1036.78 1466.24 1032.05 1466.24 Q1027.33 1466.24 1024.83 1462.51 Q1022.35 1458.77 1022.35 1451.68 Q1022.35 1444.57 1024.83 1440.85 Q1027.33 1437.11 1032.05 1437.11 Z" fill="#000000" fill-rule="evenodd" fill-opacity="1" /><path clip-path="url(#clip690)" d="M1807.59 1489.17 L1815.23 1489.17 L1815.23 1462.8 L1806.92 1464.47 L1806.92 1460.21 L1815.18 1458.54 L1819.86 1458.54 L1819.86 1489.17 L1827.5 1489.17 L1827.5 1493.1 L1807.59 1493.1 L1807.59 1489.17 Z" fill="#000000" fill-rule="evenodd" fill-opacity="1" /><path clip-path="url(#clip690)" d="M1846.94 1461.62 Q1843.33 1461.62 1841.5 1465.19 Q1839.69 1468.73 1839.69 1475.86 Q1839.69 1482.97 1841.5 1486.53 Q1843.33 1490.07 1846.94 1490.07 Q1850.57 1490.07 1852.38 1486.53 Q1854.21 1482.97 1854.21 1475.86 Q1854.21 1468.73 1852.38 1465.19 Q1850.57 1461.62 1846.94 1461.62 M1846.94 1457.92 Q1852.75 1457.92 1855.81 1462.53 Q1858.88 1467.11 1858.88 1475.86 Q1858.88 1484.59 1855.81 1489.19 Q1852.75 1493.78 1846.94 1493.78 Q1841.13 1493.78 1838.05 1489.19 Q1835 1484.59 1835 1475.86 Q1835 1467.11 1838.05 1462.53 Q1841.13 1457.92 1846.94 1457.92 Z" fill="#000000" fill-rule="evenodd" fill-opacity="1" /><path clip-path="url(#clip690)" d="M1863.45 1462.5 L1876.71 1462.5 L1876.71 1465.69 L1858.88 1465.69 L1858.88 1462.5 Q1861.05 1460.26 1864.77 1456.5 Q1868.51 1452.72 1869.47 1451.63 Q1871.3 1449.58 1872.01 1448.16 Q1872.75 1446.74 1872.75 1445.36 Q1872.75 1443.12 1871.17 1441.71 Q1869.6 1440.3 1867.08 1440.3 Q1865.3 1440.3 1863.3 1440.92 Q1861.33 1441.54 1859.07 1442.8 L1859.07 1438.97 Q1861.37 1438.05 1863.36 1437.58 Q1865.35 1437.11 1867.01 1437.11 Q1871.37 1437.11 1873.97 1439.29 Q1876.56 1441.47 1876.56 1445.12 Q1876.56 1446.85 1875.9 1448.41 Q1875.27 1449.95 1873.55 1452.06 Q1873.08 1452.6 1870.56 1455.22 Q1868.04 1457.81 1863.45 1462.5 Z" fill="#000000" fill-rule="evenodd" fill-opacity="1" /><path clip-path="url(#clip690)" d="M1107.76 1528.42 L1107.76 1538.54 L1119.82 1538.54 L1119.82 1543.09 L1107.76 1543.09 L1107.76 1562.44 Q1107.76 1566.8 1108.94 1568.04 Q1110.15 1569.28 1113.81 1569.28 L1119.82 1569.28 L1119.82 1574.19 L1113.81 1574.19 Q1107.03 1574.19 1104.45 1571.67 Q1101.87 1569.12 1101.87 1562.44 L1101.87 1543.09 L1097.57 1543.09 L1097.57 1538.54 L1101.87 1538.54 L1101.87 1528.42 L1107.76 1528.42 Z" fill="#000000" fill-rule="evenodd" fill-opacity="1" /><path clip-path="url(#clip690)" d="M1127.52 1538.54 L1133.38 1538.54 L1133.38 1574.19 L1127.52 1574.19 L1127.52 1538.54 M1127.52 1524.66 L1133.38 1524.66 L1133.38 1532.08 L1127.52 1532.08 L1127.52 1524.66 Z" fill="#000000" fill-rule="evenodd" fill-opacity="1" /><path clip-path="url(#clip690)" d="M1173.39 1545.38 Q1175.59 1541.43 1178.64 1539.56 Q1181.7 1537.68 1185.83 1537.68 Q1191.4 1537.68 1194.43 1541.59 Q1197.45 1545.48 1197.45 1552.67 L1197.45 1574.19 L1191.56 1574.19 L1191.56 1552.86 Q1191.56 1547.74 1189.75 1545.25 Q1187.93 1542.77 1184.21 1542.77 Q1179.66 1542.77 1177.02 1545.79 Q1174.38 1548.82 1174.38 1554.04 L1174.38 1574.19 L1168.49 1574.19 L1168.49 1552.86 Q1168.49 1547.7 1166.67 1545.25 Q1164.86 1542.77 1161.07 1542.77 Q1156.58 1542.77 1153.94 1545.83 Q1151.3 1548.85 1151.3 1554.04 L1151.3 1574.19 L1145.41 1574.19 L1145.41 1538.54 L1151.3 1538.54 L1151.3 1544.08 Q1153.31 1540.8 1156.11 1539.24 Q1158.91 1537.68 1162.76 1537.68 Q1166.64 1537.68 1169.35 1539.65 Q1172.08 1541.62 1173.39 1545.38 Z" fill="#000000" fill-rule="evenodd" fill-opacity="1" /><path clip-path="url(#clip690)" d="M1239.62 1554.9 L1239.62 1557.76 L1212.7 1557.76 Q1213.08 1563.81 1216.33 1566.99 Q1219.6 1570.14 1225.43 1570.14 Q1228.8 1570.14 1231.95 1569.32 Q1235.14 1568.49 1238.26 1566.83 L1238.26 1572.37 Q1235.1 1573.71 1231.79 1574.41 Q1228.48 1575.11 1225.08 1575.11 Q1216.55 1575.11 1211.55 1570.14 Q1206.59 1565.18 1206.59 1556.71 Q1206.59 1547.96 1211.3 1542.83 Q1216.04 1537.68 1224.06 1537.68 Q1231.25 1537.68 1235.42 1542.33 Q1239.62 1546.94 1239.62 1554.9 M1233.77 1553.18 Q1233.7 1548.37 1231.06 1545.51 Q1228.45 1542.64 1224.12 1542.64 Q1219.22 1542.64 1216.26 1545.41 Q1213.33 1548.18 1212.89 1553.21 L1233.77 1553.18 Z" fill="#000000" fill-rule="evenodd" fill-opacity="1" /><path clip-path="url(#clip690)" d="M1300.45 1554.9 L1300.45 1557.76 L1273.52 1557.76 Q1273.9 1563.81 1277.15 1566.99 Q1280.43 1570.14 1286.25 1570.14 Q1289.63 1570.14 1292.78 1569.32 Q1295.96 1568.49 1299.08 1566.83 L1299.08 1572.37 Q1295.93 1573.71 1292.62 1574.41 Q1289.31 1575.11 1285.9 1575.11 Q1277.37 1575.11 1272.38 1570.14 Q1267.41 1565.18 1267.41 1556.71 Q1267.41 1547.96 1272.12 1542.83 Q1276.86 1537.68 1284.88 1537.68 Q1292.08 1537.68 1296.25 1542.33 Q1300.45 1546.94 1300.45 1554.9 M1294.59 1553.18 Q1294.53 1548.37 1291.89 1545.51 Q1289.28 1542.64 1284.95 1542.64 Q1280.05 1542.64 1277.09 1545.41 Q1274.16 1548.18 1273.71 1553.21 L1294.59 1553.18 Z" fill="#000000" fill-rule="evenodd" fill-opacity="1" /><path clip-path="url(#clip690)" d="M1310.06 1524.66 L1315.92 1524.66 L1315.92 1574.19 L1310.06 1574.19 L1310.06 1524.66 Z" fill="#000000" fill-rule="evenodd" fill-opacity="1" /><path clip-path="url(#clip690)" d="M1344.37 1556.27 Q1337.27 1556.27 1334.54 1557.89 Q1331.8 1559.51 1331.8 1563.43 Q1331.8 1566.55 1333.84 1568.39 Q1335.91 1570.21 1339.44 1570.21 Q1344.31 1570.21 1347.24 1566.77 Q1350.2 1563.3 1350.2 1557.57 L1350.2 1556.27 L1344.37 1556.27 M1356.05 1553.85 L1356.05 1574.19 L1350.2 1574.19 L1350.2 1568.77 Q1348.19 1572.02 1345.2 1573.58 Q1342.21 1575.11 1337.88 1575.11 Q1332.4 1575.11 1329.16 1572.05 Q1325.94 1568.97 1325.94 1563.81 Q1325.94 1557.79 1329.95 1554.74 Q1334 1551.68 1341.98 1551.68 L1350.2 1551.68 L1350.2 1551.11 Q1350.2 1547.07 1347.52 1544.87 Q1344.88 1542.64 1340.08 1542.64 Q1337.02 1542.64 1334.12 1543.38 Q1331.23 1544.11 1328.55 1545.57 L1328.55 1540.16 Q1331.77 1538.92 1334.79 1538.31 Q1337.82 1537.68 1340.68 1537.68 Q1348.41 1537.68 1352.23 1541.69 Q1356.05 1545.7 1356.05 1553.85 Z" fill="#000000" fill-rule="evenodd" fill-opacity="1" /><path clip-path="url(#clip690)" d="M1373.78 1568.84 L1373.78 1587.74 L1367.89 1587.74 L1367.89 1538.54 L1373.78 1538.54 L1373.78 1543.95 Q1375.63 1540.77 1378.43 1539.24 Q1381.26 1537.68 1385.18 1537.68 Q1391.67 1537.68 1395.71 1542.83 Q1399.79 1547.99 1399.79 1556.39 Q1399.79 1564.8 1395.71 1569.95 Q1391.67 1575.11 1385.18 1575.11 Q1381.26 1575.11 1378.43 1573.58 Q1375.63 1572.02 1373.78 1568.84 M1393.71 1556.39 Q1393.71 1549.93 1391.03 1546.27 Q1388.39 1542.58 1383.74 1542.58 Q1379.1 1542.58 1376.42 1546.27 Q1373.78 1549.93 1373.78 1556.39 Q1373.78 1562.85 1376.42 1566.55 Q1379.1 1570.21 1383.74 1570.21 Q1388.39 1570.21 1391.03 1566.55 Q1393.71 1562.85 1393.71 1556.39 Z" fill="#000000" fill-rule="evenodd" fill-opacity="1" /><path clip-path="url(#clip690)" d="M1432.22 1539.59 L1432.22 1545.13 Q1429.74 1543.85 1427.06 1543.22 Q1424.39 1542.58 1421.52 1542.58 Q1417.16 1542.58 1414.97 1543.92 Q1412.8 1545.25 1412.8 1547.93 Q1412.8 1549.96 1414.36 1551.14 Q1415.92 1552.29 1420.63 1553.34 L1422.64 1553.78 Q1428.88 1555.12 1431.49 1557.57 Q1434.13 1559.99 1434.13 1564.35 Q1434.13 1569.32 1430.18 1572.21 Q1426.27 1575.11 1419.39 1575.11 Q1416.53 1575.11 1413.41 1574.54 Q1410.32 1573.99 1406.88 1572.88 L1406.88 1566.83 Q1410.13 1568.52 1413.28 1569.38 Q1416.43 1570.21 1419.52 1570.21 Q1423.66 1570.21 1425.88 1568.81 Q1428.11 1567.37 1428.11 1564.8 Q1428.11 1562.41 1426.49 1561.14 Q1424.9 1559.86 1419.46 1558.68 L1417.42 1558.21 Q1411.98 1557.06 1409.56 1554.71 Q1407.14 1552.32 1407.14 1548.18 Q1407.14 1543.15 1410.7 1540.42 Q1414.27 1537.68 1420.82 1537.68 Q1424.07 1537.68 1426.94 1538.16 Q1429.8 1538.63 1432.22 1539.59 Z" fill="#000000" fill-rule="evenodd" fill-opacity="1" /><path clip-path="url(#clip690)" d="M1473.95 1554.9 L1473.95 1557.76 L1447.02 1557.76 Q1447.4 1563.81 1450.65 1566.99 Q1453.93 1570.14 1459.75 1570.14 Q1463.12 1570.14 1466.28 1569.32 Q1469.46 1568.49 1472.58 1566.83 L1472.58 1572.37 Q1469.43 1573.71 1466.12 1574.41 Q1462.81 1575.11 1459.4 1575.11 Q1450.87 1575.11 1445.87 1570.14 Q1440.91 1565.18 1440.91 1556.71 Q1440.91 1547.96 1445.62 1542.83 Q1450.36 1537.68 1458.38 1537.68 Q1465.58 1537.68 1469.74 1542.33 Q1473.95 1546.94 1473.95 1554.9 M1468.09 1553.18 Q1468.03 1548.37 1465.38 1545.51 Q1462.77 1542.64 1458.45 1542.64 Q1453.54 1542.64 1450.58 1545.41 Q1447.66 1548.18 1447.21 1553.21 L1468.09 1553.18 Z" fill="#000000" fill-rule="evenodd" fill-opacity="1" /><path clip-path="url(#clip690)" d="M1507.02 1543.95 L1507.02 1524.66 L1512.87 1524.66 L1512.87 1574.19 L1507.02 1574.19 L1507.02 1568.84 Q1505.17 1572.02 1502.34 1573.58 Q1499.54 1575.11 1495.59 1575.11 Q1489.13 1575.11 1485.05 1569.95 Q1481.01 1564.8 1481.01 1556.39 Q1481.01 1547.99 1485.05 1542.83 Q1489.13 1537.68 1495.59 1537.68 Q1499.54 1537.68 1502.34 1539.24 Q1505.17 1540.77 1507.02 1543.95 M1487.06 1556.39 Q1487.06 1562.85 1489.7 1566.55 Q1492.37 1570.21 1497.02 1570.21 Q1501.67 1570.21 1504.34 1566.55 Q1507.02 1562.85 1507.02 1556.39 Q1507.02 1549.93 1504.34 1546.27 Q1501.67 1542.58 1497.02 1542.58 Q1492.37 1542.58 1489.7 1546.27 Q1487.06 1549.93 1487.06 1556.39 Z" fill="#000000" fill-rule="evenodd" fill-opacity="1" /><polyline clip-path="url(#clip692)" style="stroke:#000000; stroke-linecap:butt; stroke-linejoin:round; stroke-width:2; stroke-opacity:0.1; fill:none" points="
  257.69,1247.98 2352.76,1247.98 
  "/>
<polyline clip-path="url(#clip692)" style="stroke:#000000; stroke-linecap:butt; stroke-linejoin:round; stroke-width:2; stroke-opacity:0.1; fill:none" points="
  257.69,1008.59 2352.76,1008.59 
  "/>
<polyline clip-path="url(#clip692)" style="stroke:#000000; stroke-linecap:butt; stroke-linejoin:round; stroke-width:2; stroke-opacity:0.1; fill:none" points="
  257.69,769.201 2352.76,769.201 
  "/>
<polyline clip-path="url(#clip692)" style="stroke:#000000; stroke-linecap:butt; stroke-linejoin:round; stroke-width:2; stroke-opacity:0.1; fill:none" points="
  257.69,529.81 2352.76,529.81 
  "/>
<polyline clip-path="url(#clip692)" style="stroke:#000000; stroke-linecap:butt; stroke-linejoin:round; stroke-width:2; stroke-opacity:0.1; fill:none" points="
  257.69,290.419 2352.76,290.419 
  "/>
<polyline clip-path="url(#clip690)" style="stroke:#000000; stroke-linecap:butt; stroke-linejoin:round; stroke-width:4; stroke-opacity:1; fill:none" points="
  257.69,1410.9 257.69,123.472 
  "/>
<polyline clip-path="url(#clip690)" style="stroke:#000000; stroke-linecap:butt; stroke-linejoin:round; stroke-width:4; stroke-opacity:1; fill:none" points="
  257.69,1247.98 282.831,1247.98 
  "/>
<polyline clip-path="url(#clip690)" style="stroke:#000000; stroke-linecap:butt; stroke-linejoin:round; stroke-width:4; stroke-opacity:1; fill:none" points="
  257.69,1008.59 282.831,1008.59 
  "/>
<polyline clip-path="url(#clip690)" style="stroke:#000000; stroke-linecap:butt; stroke-linejoin:round; stroke-width:4; stroke-opacity:1; fill:none" points="
  257.69,769.201 282.831,769.201 
  "/>
<polyline clip-path="url(#clip690)" style="stroke:#000000; stroke-linecap:butt; stroke-linejoin:round; stroke-width:4; stroke-opacity:1; fill:none" points="
  257.69,529.81 282.831,529.81 
  "/>
<polyline clip-path="url(#clip690)" style="stroke:#000000; stroke-linecap:butt; stroke-linejoin:round; stroke-width:4; stroke-opacity:1; fill:none" points="
  257.69,290.419 282.831,290.419 
  "/>
<path clip-path="url(#clip690)" d="M116.343 1248.43 L146.019 1248.43 L146.019 1252.37 L116.343 1252.37 L116.343 1248.43 Z" fill="#000000" fill-rule="evenodd" fill-opacity="1" /><path clip-path="url(#clip690)" d="M156.922 1261.33 L164.561 1261.33 L164.561 1234.96 L156.251 1236.63 L156.251 1232.37 L164.515 1230.7 L169.19 1230.7 L169.19 1261.33 L176.829 1261.33 L176.829 1265.26 L156.922 1265.26 L156.922 1261.33 Z" fill="#000000" fill-rule="evenodd" fill-opacity="1" /><path clip-path="url(#clip690)" d="M186.274 1259.38 L191.158 1259.38 L191.158 1265.26 L186.274 1265.26 L186.274 1259.38 Z" fill="#000000" fill-rule="evenodd" fill-opacity="1" /><path clip-path="url(#clip690)" d="M205.371 1261.33 L221.69 1261.33 L221.69 1265.26 L199.746 1265.26 L199.746 1261.33 Q202.408 1258.57 206.991 1253.94 Q211.598 1249.29 212.778 1247.95 Q215.024 1245.43 215.903 1243.69 Q216.806 1241.93 216.806 1240.24 Q216.806 1237.49 214.861 1235.75 Q212.94 1234.01 209.838 1234.01 Q207.639 1234.01 205.186 1234.78 Q202.755 1235.54 199.977 1237.09 L199.977 1232.37 Q202.801 1231.24 205.255 1230.66 Q207.709 1230.08 209.746 1230.08 Q215.116 1230.08 218.311 1232.76 Q221.505 1235.45 221.505 1239.94 Q221.505 1242.07 220.695 1243.99 Q219.908 1245.89 217.801 1248.48 Q217.223 1249.15 214.121 1252.37 Q211.019 1255.56 205.371 1261.33 Z" fill="#000000" fill-rule="evenodd" fill-opacity="1" /><path clip-path="url(#clip690)" d="M114.746 1009.04 L144.422 1009.04 L144.422 1012.98 L114.746 1012.98 L114.746 1009.04 Z" fill="#000000" fill-rule="evenodd" fill-opacity="1" /><path clip-path="url(#clip690)" d="M155.325 1021.94 L162.964 1021.94 L162.964 995.571 L154.653 997.238 L154.653 992.979 L162.917 991.312 L167.593 991.312 L167.593 1021.94 L175.232 1021.94 L175.232 1025.87 L155.325 1025.87 L155.325 1021.94 Z" fill="#000000" fill-rule="evenodd" fill-opacity="1" /><path clip-path="url(#clip690)" d="M184.676 1019.99 L189.561 1019.99 L189.561 1025.87 L184.676 1025.87 L184.676 1019.99 Z" fill="#000000" fill-rule="evenodd" fill-opacity="1" /><path clip-path="url(#clip690)" d="M209.746 994.391 Q206.135 994.391 204.306 997.956 Q202.5 1001.5 202.5 1008.63 Q202.5 1015.73 204.306 1019.3 Q206.135 1022.84 209.746 1022.84 Q213.38 1022.84 215.186 1019.3 Q217.014 1015.73 217.014 1008.63 Q217.014 1001.5 215.186 997.956 Q213.38 994.391 209.746 994.391 M209.746 990.687 Q215.556 990.687 218.611 995.294 Q221.69 999.877 221.69 1008.63 Q221.69 1017.35 218.611 1021.96 Q215.556 1026.54 209.746 1026.54 Q203.936 1026.54 200.857 1021.96 Q197.801 1017.35 197.801 1008.63 Q197.801 999.877 200.857 995.294 Q203.936 990.687 209.746 990.687 Z" fill="#000000" fill-rule="evenodd" fill-opacity="1" /><path clip-path="url(#clip690)" d="M114.839 769.652 L144.515 769.652 L144.515 773.588 L114.839 773.588 L114.839 769.652 Z" fill="#000000" fill-rule="evenodd" fill-opacity="1" /><path clip-path="url(#clip690)" d="M164.607 755 Q160.996 755 159.167 758.564 Q157.362 762.106 157.362 769.236 Q157.362 776.342 159.167 779.907 Q160.996 783.449 164.607 783.449 Q168.241 783.449 170.047 779.907 Q171.876 776.342 171.876 769.236 Q171.876 762.106 170.047 758.564 Q168.241 755 164.607 755 M164.607 751.296 Q170.417 751.296 173.473 755.902 Q176.551 760.486 176.551 769.236 Q176.551 777.963 173.473 782.569 Q170.417 787.152 164.607 787.152 Q158.797 787.152 155.718 782.569 Q152.663 777.963 152.663 769.236 Q152.663 760.486 155.718 755.902 Q158.797 751.296 164.607 751.296 Z" fill="#000000" fill-rule="evenodd" fill-opacity="1" /><path clip-path="url(#clip690)" d="M184.769 780.601 L189.653 780.601 L189.653 786.481 L184.769 786.481 L184.769 780.601 Z" fill="#000000" fill-rule="evenodd" fill-opacity="1" /><path clip-path="url(#clip690)" d="M209.838 770.069 Q206.505 770.069 204.584 771.851 Q202.686 773.634 202.686 776.759 Q202.686 779.884 204.584 781.666 Q206.505 783.449 209.838 783.449 Q213.172 783.449 215.093 781.666 Q217.014 779.861 217.014 776.759 Q217.014 773.634 215.093 771.851 Q213.195 770.069 209.838 770.069 M205.162 768.078 Q202.153 767.338 200.463 765.277 Q198.797 763.217 198.797 760.254 Q198.797 756.111 201.737 753.703 Q204.699 751.296 209.838 751.296 Q215 751.296 217.94 753.703 Q220.88 756.111 220.88 760.254 Q220.88 763.217 219.19 765.277 Q217.523 767.338 214.537 768.078 Q217.917 768.865 219.792 771.157 Q221.69 773.449 221.69 776.759 Q221.69 781.782 218.611 784.467 Q215.556 787.152 209.838 787.152 Q204.121 787.152 201.042 784.467 Q197.987 781.782 197.987 776.759 Q197.987 773.449 199.885 771.157 Q201.783 768.865 205.162 768.078 M203.449 760.694 Q203.449 763.379 205.116 764.884 Q206.806 766.389 209.838 766.389 Q212.848 766.389 214.537 764.884 Q216.25 763.379 216.25 760.694 Q216.25 758.009 214.537 756.504 Q212.848 755 209.838 755 Q206.806 755 205.116 756.504 Q203.449 758.009 203.449 760.694 Z" fill="#000000" fill-rule="evenodd" fill-opacity="1" /><path clip-path="url(#clip690)" d="M114.584 530.261 L144.26 530.261 L144.26 534.196 L114.584 534.196 L114.584 530.261 Z" fill="#000000" fill-rule="evenodd" fill-opacity="1" /><path clip-path="url(#clip690)" d="M164.352 515.609 Q160.741 515.609 158.913 519.173 Q157.107 522.715 157.107 529.845 Q157.107 536.951 158.913 540.516 Q160.741 544.057 164.352 544.057 Q167.987 544.057 169.792 540.516 Q171.621 536.951 171.621 529.845 Q171.621 522.715 169.792 519.173 Q167.987 515.609 164.352 515.609 M164.352 511.905 Q170.163 511.905 173.218 516.511 Q176.297 521.095 176.297 529.845 Q176.297 538.571 173.218 543.178 Q170.163 547.761 164.352 547.761 Q158.542 547.761 155.464 543.178 Q152.408 538.571 152.408 529.845 Q152.408 521.095 155.464 516.511 Q158.542 511.905 164.352 511.905 Z" fill="#000000" fill-rule="evenodd" fill-opacity="1" /><path clip-path="url(#clip690)" d="M184.514 541.21 L189.399 541.21 L189.399 547.09 L184.514 547.09 L184.514 541.21 Z" fill="#000000" fill-rule="evenodd" fill-opacity="1" /><path clip-path="url(#clip690)" d="M210.162 527.946 Q207.014 527.946 205.162 530.099 Q203.334 532.252 203.334 536.002 Q203.334 539.729 205.162 541.905 Q207.014 544.057 210.162 544.057 Q213.311 544.057 215.139 541.905 Q216.991 539.729 216.991 536.002 Q216.991 532.252 215.139 530.099 Q213.311 527.946 210.162 527.946 M219.445 513.294 L219.445 517.553 Q217.686 516.72 215.88 516.28 Q214.098 515.84 212.338 515.84 Q207.709 515.84 205.255 518.965 Q202.824 522.09 202.477 528.409 Q203.843 526.396 205.903 525.331 Q207.963 524.243 210.44 524.243 Q215.649 524.243 218.658 527.414 Q221.69 530.562 221.69 536.002 Q221.69 541.326 218.542 544.544 Q215.394 547.761 210.162 547.761 Q204.167 547.761 200.996 543.178 Q197.825 538.571 197.825 529.845 Q197.825 521.65 201.713 516.789 Q205.602 511.905 212.153 511.905 Q213.912 511.905 215.695 512.252 Q217.5 512.599 219.445 513.294 Z" fill="#000000" fill-rule="evenodd" fill-opacity="1" /><path clip-path="url(#clip690)" d="M114.26 290.87 L143.936 290.87 L143.936 294.805 L114.26 294.805 L114.26 290.87 Z" fill="#000000" fill-rule="evenodd" fill-opacity="1" /><path clip-path="url(#clip690)" d="M164.028 276.217 Q160.417 276.217 158.589 279.782 Q156.783 283.324 156.783 290.453 Q156.783 297.56 158.589 301.125 Q160.417 304.666 164.028 304.666 Q167.663 304.666 169.468 301.125 Q171.297 297.56 171.297 290.453 Q171.297 283.324 169.468 279.782 Q167.663 276.217 164.028 276.217 M164.028 272.514 Q169.839 272.514 172.894 277.12 Q175.973 281.703 175.973 290.453 Q175.973 299.18 172.894 303.787 Q169.839 308.37 164.028 308.37 Q158.218 308.37 155.14 303.787 Q152.084 299.18 152.084 290.453 Q152.084 281.703 155.14 277.12 Q158.218 272.514 164.028 272.514 Z" fill="#000000" fill-rule="evenodd" fill-opacity="1" /><path clip-path="url(#clip690)" d="M184.19 301.819 L189.075 301.819 L189.075 307.699 L184.19 307.699 L184.19 301.819 Z" fill="#000000" fill-rule="evenodd" fill-opacity="1" /><path clip-path="url(#clip690)" d="M212.107 277.213 L200.301 295.662 L212.107 295.662 L212.107 277.213 M210.88 273.139 L216.76 273.139 L216.76 295.662 L221.69 295.662 L221.69 299.551 L216.76 299.551 L216.76 307.699 L212.107 307.699 L212.107 299.551 L196.505 299.551 L196.505 295.037 L210.88 273.139 Z" fill="#000000" fill-rule="evenodd" fill-opacity="1" /><path clip-path="url(#clip690)" d="M33.8307 841.504 Q33.2578 842.491 33.0032 843.668 Q32.7167 844.814 32.7167 846.215 Q32.7167 851.18 35.9632 853.853 Q39.1779 856.495 45.2253 856.495 L64.0042 856.495 L64.0042 862.384 L28.3562 862.384 L28.3562 856.495 L33.8944 856.495 Q30.6479 854.649 29.0883 851.689 Q27.4968 848.729 27.4968 844.496 Q27.4968 843.891 27.5923 843.159 Q27.656 842.427 27.8151 841.536 L33.8307 841.504 Z" fill="#000000" fill-rule="evenodd" fill-opacity="1" /><path clip-path="url(#clip690)" d="M44.7161 806.302 L47.5806 806.302 L47.5806 833.229 Q53.6281 832.847 56.8109 829.6 Q59.9619 826.322 59.9619 820.497 Q59.9619 817.123 59.1344 813.972 Q58.3069 810.789 56.6518 807.67 L62.1899 807.67 Q63.5267 810.821 64.227 814.131 Q64.9272 817.442 64.9272 820.847 Q64.9272 829.377 59.9619 834.374 Q54.9967 839.34 46.5303 839.34 Q37.7774 839.34 32.6531 834.629 Q27.4968 829.887 27.4968 821.866 Q27.4968 814.673 32.1438 810.503 Q36.7589 806.302 44.7161 806.302 M42.9973 812.158 Q38.1912 812.222 35.3266 814.864 Q32.4621 817.473 32.4621 821.802 Q32.4621 826.704 35.2312 829.664 Q38.0002 832.592 43.0292 833.038 L42.9973 812.158 Z" fill="#000000" fill-rule="evenodd" fill-opacity="1" /><path clip-path="url(#clip690)" d="M45.7664 773.232 Q39.4007 773.232 35.8996 775.874 Q32.3984 778.484 32.3984 783.226 Q32.3984 787.937 35.8996 790.578 Q39.4007 793.188 45.7664 793.188 Q52.1003 793.188 55.6014 790.578 Q59.1026 787.937 59.1026 783.226 Q59.1026 778.484 55.6014 775.874 Q52.1003 773.232 45.7664 773.232 M59.58 767.375 Q68.683 767.375 73.1071 771.418 Q77.5631 775.46 77.5631 783.799 Q77.5631 786.886 77.0857 789.624 Q76.6401 792.361 75.6852 794.939 L69.9879 794.939 Q71.3884 792.361 72.0568 789.846 Q72.7252 787.332 72.7252 784.722 Q72.7252 778.961 69.7015 776.096 Q66.7096 773.232 60.6303 773.232 L57.7339 773.232 Q60.885 775.046 62.4446 777.879 Q64.0042 780.712 64.0042 784.658 Q64.0042 791.215 59.0071 795.225 Q54.01 799.236 45.7664 799.236 Q37.491 799.236 32.4939 795.225 Q27.4968 791.215 27.4968 784.658 Q27.4968 780.712 29.0564 777.879 Q30.616 775.046 33.7671 773.232 L28.3562 773.232 L28.3562 767.375 L59.58 767.375 Z" fill="#000000" fill-rule="evenodd" fill-opacity="1" /><path clip-path="url(#clip690)" d="M33.8307 734.656 Q33.2578 735.642 33.0032 736.82 Q32.7167 737.966 32.7167 739.366 Q32.7167 744.331 35.9632 747.005 Q39.1779 749.647 45.2253 749.647 L64.0042 749.647 L64.0042 755.535 L28.3562 755.535 L28.3562 749.647 L33.8944 749.647 Q30.6479 747.801 29.0883 744.841 Q27.4968 741.881 27.4968 737.648 Q27.4968 737.043 27.5923 736.311 Q27.656 735.579 27.8151 734.687 L33.8307 734.656 Z" fill="#000000" fill-rule="evenodd" fill-opacity="1" /><path clip-path="url(#clip690)" d="M44.7161 699.453 L47.5806 699.453 L47.5806 726.38 Q53.6281 725.998 56.8109 722.752 Q59.9619 719.473 59.9619 713.649 Q59.9619 710.275 59.1344 707.124 Q58.3069 703.941 56.6518 700.822 L62.1899 700.822 Q63.5267 703.973 64.227 707.283 Q64.9272 710.593 64.9272 713.999 Q64.9272 722.529 59.9619 727.526 Q54.9967 732.491 46.5303 732.491 Q37.7774 732.491 32.6531 727.781 Q27.4968 723.038 27.4968 715.017 Q27.4968 707.824 32.1438 703.655 Q36.7589 699.453 44.7161 699.453 M42.9973 705.31 Q38.1912 705.373 35.3266 708.015 Q32.4621 710.625 32.4621 714.954 Q32.4621 719.855 35.2312 722.815 Q38.0002 725.744 43.0292 726.189 L42.9973 705.31 Z" fill="#000000" fill-rule="evenodd" fill-opacity="1" /><path clip-path="url(#clip690)" d="M18.2347 684.048 L28.3562 684.048 L28.3562 671.985 L32.9077 671.985 L32.9077 684.048 L52.2594 684.048 Q56.6199 684.048 57.8613 682.871 Q59.1026 681.661 59.1026 678.001 L59.1026 671.985 L64.0042 671.985 L64.0042 678.001 Q64.0042 684.78 61.4897 687.358 Q58.9434 689.937 52.2594 689.937 L32.9077 689.937 L32.9077 694.233 L28.3562 694.233 L28.3562 689.937 L18.2347 689.937 L18.2347 684.048 Z" fill="#000000" fill-rule="evenodd" fill-opacity="1" /><path clip-path="url(#clip690)" d="M1124.65 44.2197 Q1127.29 45.1109 1129.76 48.0275 Q1132.27 50.9442 1134.78 56.0483 L1143.09 72.576 L1134.3 72.576 L1126.56 57.061 Q1123.56 50.9847 1120.72 48.9997 Q1117.93 47.0148 1113.07 47.0148 L1104.16 47.0148 L1104.16 72.576 L1095.97 72.576 L1095.97 12.096 L1114.45 12.096 Q1124.82 12.096 1129.92 16.4305 Q1135.02 20.7649 1135.02 29.5149 Q1135.02 35.2267 1132.35 38.994 Q1129.72 42.7613 1124.65 44.2197 M1104.16 18.8205 L1104.16 40.2903 L1114.45 40.2903 Q1120.36 40.2903 1123.36 37.5762 Q1126.4 34.8216 1126.4 29.5149 Q1126.4 24.2082 1123.36 21.5346 Q1120.36 18.8205 1114.45 18.8205 L1104.16 18.8205 Z" fill="#000000" fill-rule="evenodd" fill-opacity="1" /><path clip-path="url(#clip690)" d="M1153.62 12.096 L1191.86 12.096 L1191.86 18.9825 L1161.8 18.9825 L1161.8 36.8875 L1190.6 36.8875 L1190.6 43.7741 L1161.8 43.7741 L1161.8 65.6895 L1192.59 65.6895 L1192.59 72.576 L1153.62 72.576 L1153.62 12.096 Z" fill="#000000" fill-rule="evenodd" fill-opacity="1" /><path clip-path="url(#clip690)" d="M1226.25 20.1573 L1215.15 50.2555 L1237.39 50.2555 L1226.25 20.1573 M1221.63 12.096 L1230.91 12.096 L1253.96 72.576 L1245.45 72.576 L1239.94 57.061 L1212.68 57.061 L1207.17 72.576 L1198.54 72.576 L1221.63 12.096 Z" fill="#000000" fill-rule="evenodd" fill-opacity="1" /><path clip-path="url(#clip690)" d="M1270.97 18.8205 L1270.97 65.8515 L1280.86 65.8515 Q1293.37 65.8515 1299.17 60.1802 Q1305 54.509 1305 42.2752 Q1305 30.1225 1299.17 24.4918 Q1293.37 18.8205 1280.86 18.8205 L1270.97 18.8205 M1262.79 12.096 L1279.6 12.096 Q1297.18 12.096 1305.41 19.4281 Q1313.63 26.7198 1313.63 42.2752 Q1313.63 57.9117 1305.36 65.2439 Q1297.1 72.576 1279.6 72.576 L1262.79 72.576 L1262.79 12.096 Z" fill="#000000" fill-rule="evenodd" fill-opacity="1" /><path clip-path="url(#clip690)" d="M1326.67 12.096 L1334.86 12.096 L1334.86 72.576 L1326.67 72.576 L1326.67 12.096 Z" fill="#000000" fill-rule="evenodd" fill-opacity="1" /><path clip-path="url(#clip690)" d="M1351.14 12.096 L1362.16 12.096 L1388.98 62.6918 L1388.98 12.096 L1396.92 12.096 L1396.92 72.576 L1385.9 72.576 L1359.08 21.9802 L1359.08 72.576 L1351.14 72.576 L1351.14 12.096 Z" fill="#000000" fill-rule="evenodd" fill-opacity="1" /><path clip-path="url(#clip690)" d="M1454.44 63.9476 L1454.44 47.7034 L1441.07 47.7034 L1441.07 40.9789 L1462.54 40.9789 L1462.54 66.9452 Q1457.8 70.3075 1452.09 72.0494 Q1446.38 73.7508 1439.9 73.7508 Q1425.72 73.7508 1417.7 65.4869 Q1409.72 57.1826 1409.72 42.3968 Q1409.72 27.5705 1417.7 19.3066 Q1425.72 11.0023 1439.9 11.0023 Q1445.81 11.0023 1451.12 12.4606 Q1456.46 13.9189 1460.96 16.7545 L1460.96 25.464 Q1456.42 21.6156 1451.32 19.6712 Q1446.21 17.7268 1440.58 17.7268 Q1429.48 17.7268 1423.89 23.9246 Q1418.34 30.1225 1418.34 42.3968 Q1418.34 54.6305 1423.89 60.8284 Q1429.48 67.0263 1440.58 67.0263 Q1444.92 67.0263 1448.32 66.2971 Q1451.72 65.5274 1454.44 63.9476 Z" fill="#000000" fill-rule="evenodd" fill-opacity="1" /><path clip-path="url(#clip690)" d="M1479.63 65.6895 L1493 65.6895 L1493 19.5497 L1478.46 22.4663 L1478.46 15.0127 L1492.92 12.096 L1501.1 12.096 L1501.1 65.6895 L1514.47 65.6895 L1514.47 72.576 L1479.63 72.576 L1479.63 65.6895 Z" fill="#000000" fill-rule="evenodd" fill-opacity="1" /><polyline clip-path="url(#clip692)" style="stroke:#009af9; stroke-linecap:butt; stroke-linejoin:round; stroke-width:8; stroke-opacity:1; fill:none" points="
  1597.94,884.158 1723.05,891.017 1796.28,898.118 1848.36,1374.46 1888.73,1374.46 1921.95,1374.46 1950.14,1374.46 1974.31,1374.46 1995.68,1374.46 2014.74,1374.46 
  2032.01,1374.46 2048.58,1374.46 2065.19,1374.46 2080.51,1374.46 2095.36,1374.46 2107.48,1374.46 2119.42,1374.46 2131.31,1374.46 2142.3,1374.46 2151.97,1374.46 
  2161.09,1374.46 2170.67,1374.46 2179.16,1374.46 2187.46,1374.46 2194.94,1374.46 2203.91,1374.46 2211.33,1374.46 2219.05,1374.46 2226.07,1374.46 2232.79,1374.46 
  2240.64,1374.46 2246.82,1374.46 2253.28,1374.46 2259.6,1374.46 2265.72,1374.46 2271.6,1374.46 2277.37,1374.46 2282.88,1374.46 2288.25,1374.46 2293.46,1374.46 
  
  "/>
<polyline clip-path="url(#clip692)" style="stroke:#e26f46; stroke-linecap:butt; stroke-linejoin:round; stroke-width:8; stroke-opacity:1; fill:none" points="
  1614.5,893.609 1736.89,905.051 1820.1,905.051 1872.54,905.051 1914.32,907.802 1944.36,907.802 1971.68,1097.8 1993.56,1097.8 2012.44,1097.8 2029.6,1097.8 
  2045.68,1097.8 2060,1097.8 2073.33,1097.8 2088.3,1097.8 2101.99,1097.8 2114.16,1097.8 2125.47,1097.8 2137.43,1097.8 2147.55,1097.8 2156.01,1097.8 
  2165.29,1374.46 2173.76,1374.46 2181.28,1374.46 2188.34,1374.46 2195.19,1374.46 2202.21,1374.46 2210.45,1374.46 2219.19,1374.46 2225.84,1374.46 2231.36,1374.46 
  2236.63,1374.46 2241.76,1374.46 2246.79,1374.46 2251.75,1374.46 2256.57,1374.46 2261.35,1374.46 2265.93,1374.46 2270.34,1374.46 2274.68,1374.46 2278.94,1374.46 
  
  "/>
<polyline clip-path="url(#clip692)" style="stroke:#3da44d; stroke-linecap:butt; stroke-linejoin:round; stroke-width:8; stroke-opacity:1; fill:none" points="
  326.41,159.909 414.545,159.909 471.126,159.909 513.025,169.718 550.396,169.718 580.87,169.718 606.173,175.614 627.962,175.614 658.226,175.614 675.249,175.614 
  690.731,175.614 705.397,175.614 719.438,175.614 731.556,175.614 742.861,175.614 753.643,175.614 763.504,175.614 773.031,175.614 782.006,175.614 790.716,175.614 
  798.773,175.614 806.615,175.614 814.274,175.614 822.7,175.614 830.565,175.614 837.374,175.614 843.591,175.614 849.946,175.614 855.946,175.614 861.633,175.614 
  867.106,175.614 872.305,175.614 877.368,175.614 882.299,175.614 886.931,175.614 891.573,175.614 896.024,175.614 902.112,175.614 906.738,175.614 911.05,175.614 
  915.189,175.614 919.205,175.614 923.056,175.614 926.898,175.614 930.765,175.614 934.371,175.614 937.909,175.614 941.468,175.614 944.916,175.614 948.223,175.614 
  951.546,175.614 954.856,175.614 958.035,175.614 961.136,175.614 964.19,175.614 967.281,175.614 970.311,175.614 973.345,175.614 978.556,175.614 983.334,175.614 
  986.862,175.614 989.907,175.614 992.695,175.614 995.501,175.614 998.155,175.614 1000.77,175.614 1003.32,175.614 1005.82,175.614 1008.29,175.614 1010.67,175.614 
  1013.01,175.614 1015.32,175.614 1017.59,175.614 1019.84,175.614 1022.06,175.614 1024.28,175.614 1026.47,175.614 1028.68,175.614 1030.84,175.614 1032.94,175.614 
  1035,175.614 1041.79,175.614 1045.88,175.614 1049.55,175.614 1053.16,175.614 1056.76,175.614 1060.37,175.614 1064.33,175.614 1068.09,175.614 1071.6,175.614 
  1074.99,175.614 1078.32,175.614 1081.53,175.614 1084.72,175.614 1087.77,175.614 1090.75,175.614 1093.78,175.614 1096.78,175.614 1099.71,175.614 1102.57,175.614 
  1105.67,175.614 1108.63,175.614 1111.42,175.614 1114.09,175.614 1116.77,175.614 1119.53,175.614 1123.2,175.614 1125.94,175.614 1135.4,175.614 1142.89,175.614 
  1150.06,175.614 1158,175.614 1165.36,175.614 1171.87,175.614 1177.97,175.614 1183.84,175.614 1189.43,175.614 1207.49,182.317 1222.77,182.317 1237.38,182.317 
  1276.42,263.611 1630.9,263.611 1631.06,263.611 1631.21,263.611 1631.36,263.611 1631.53,263.611 1631.68,263.611 1631.84,263.611 1631.99,263.611 1632.13,263.611 
  1632.28,263.611 1632.43,263.611 1632.57,263.611 1632.72,263.611 1632.87,263.611 1633.02,263.611 1633.17,263.611 1633.32,263.611 1633.48,263.611 1633.62,263.611 
  1633.77,263.611 1633.92,263.611 1634.06,263.611 1634.21,263.611 1634.36,263.611 1634.79,263.611 1634.94,263.611 1635.09,263.611 1635.24,263.611 1635.39,263.611 
  1635.53,263.611 1635.67,263.611 1635.81,263.611 1635.96,263.611 1636.11,263.611 1636.58,263.611 1637.01,263.611 1637.45,263.611 1637.89,263.611 1638.33,263.611 
  1638.79,263.611 1639.27,263.611 1639.75,263.611 1640.24,263.611 1640.7,263.611 1641.13,263.611 1642.69,263.611 1644.09,263.611 1645.5,263.611 1649.8,303.179 
  1713.86,634.308 1714.35,634.308 1714.64,634.308 1715.13,634.308 1715.64,634.308 1716.13,634.308 1716.65,634.308 1717.09,634.308 1717.45,634.308 1717.93,634.308 
  1718.4,634.579 1718.68,634.579 1719.16,634.579 1719.65,635.438 1719.93,635.438 1720.94,702.166 1721.92,702.166 1722.89,702.166 1723.88,702.166 1724.84,702.166 
  1727.72,865.651 1745.38,865.651 1746.58,1082.39 1747.39,1082.39 1748.19,1082.39 1748.94,1082.39 1749.89,1082.39 1750.84,1082.39 1751.75,1082.39 1754.31,1143.42 
  1756.87,1143.42 1773.59,1143.42 1775.8,1143.42 1777.97,1143.42 1780.17,1143.42 1782.25,1143.42 
  "/>
<polyline clip-path="url(#clip692)" style="stroke:#c271d2; stroke-linecap:butt; stroke-linejoin:round; stroke-width:8; stroke-opacity:1; fill:none" points="
  316.984,161.641 403.765,161.641 462.795,169.718 506.727,169.718 539.117,169.718 567.594,169.718 592.965,169.718 614.959,169.718 634.043,169.718 651.224,169.718 
  667.372,169.718 688.174,169.718 702.753,169.718 716.084,169.718 727.735,171.441 737.996,171.441 754.648,171.441 768.354,171.441 778.697,171.441 787.415,171.441 
  796.011,171.441 804.256,171.441 811.805,171.441 818.847,171.441 825.427,171.441 831.886,171.441 838.052,171.441 843.993,171.441 849.719,171.441 855.281,171.441 
  860.464,171.441 865.437,171.441 870.234,171.441 874.911,171.441 879.473,171.441 887.132,171.441 892.184,171.441 896.817,171.441 901.304,171.441 905.43,171.441 
  909.198,171.441 913.002,171.441 916.727,171.441 920.376,171.441 923.978,171.441 927.381,171.441 930.833,171.441 934.174,171.441 937.52,171.441 940.885,171.441 
  944.137,171.441 984.249,171.441 987.23,171.441 990.007,171.441 992.541,171.441 995.03,171.441 997.42,171.441 999.962,171.441 1002.34,171.441 1004.74,171.441 
  1007.06,171.441 1009.29,171.441 1011.47,171.441 1013.7,171.441 1015.84,171.441 1017.95,171.441 1020,171.441 1022.05,171.441 1024.05,171.441 1026.06,171.441 
  1028.1,171.441 1030.04,171.441 1032,171.441 1033.92,171.441 1035.79,171.441 1037.68,171.441 1039.57,171.441 1041.45,171.441 1043.3,171.441 1045.61,171.441 
  1047.85,175.614 1051.86,175.614 1055.5,175.614 1059.26,175.614 1062.79,175.614 1066.23,175.614 1069.61,175.614 1073.07,175.614 1076.4,175.614 1079.58,175.614 
  1082.65,175.614 1085.62,175.614 1088.6,175.614 1091.47,175.614 1094.41,175.614 1097.23,175.614 1100.42,175.614 1103.68,175.614 1106.53,175.614 1109.21,175.614 
  1111.84,175.614 1114.47,175.614 1117.24,175.614 1119.77,175.614 1122.25,175.614 1124.64,175.614 1127.06,175.614 1129.42,175.614 1136.78,175.614 1143.88,175.614 
  1150.74,175.614 1157.42,175.614 1164.22,175.614 1170.56,175.614 1176.48,175.614 1182.4,175.614 1188.12,175.614 1206.56,182.317 1221.77,182.317 1235.94,182.317 
  1273.66,263.611 1274.88,263.611 1275.96,263.611 1277.01,263.611 1278.05,263.611 1279.09,263.611 1280.37,263.611 1281.48,263.611 1282.5,263.611 1283.51,263.611 
  1284.53,263.611 1285.54,263.611 1286.53,263.611 1287.52,263.611 1288.5,263.611 1289.48,263.611 1290.45,263.611 1291.41,263.611 1292.46,263.611 1293.43,263.611 
  1294.43,263.611 1295.42,263.611 1296.38,263.611 1297.31,263.611 1298.22,263.611 1299.14,263.611 1300.06,263.611 1301.13,263.611 1302.04,263.611 1302.94,263.611 
  1303.86,263.611 1304.76,263.611 1305.67,263.611 1306.56,263.611 1307.47,263.611 1310.31,263.611 1313.11,263.611 1315.84,263.611 1318.89,263.611 1321.6,263.611 
  1324.32,263.611 1327.01,263.611 1329.74,263.611 1332.31,263.611 1334.83,263.611 1337.36,263.611 1344.98,263.611 1352.85,263.611 1360.16,263.611 1380.25,263.826 
  1382.34,263.826 1384.5,263.826 1386.26,263.826 1388.23,263.826 1390.07,263.826 1391.8,263.826 1393.54,263.826 1395.6,263.826 1397.27,263.826 1398.9,263.826 
  1400.59,263.826 1402.44,263.826 1404.12,263.826 1405.69,263.826 1407.27,263.826 1413.82,263.826 1418.95,263.826 1424.12,263.826 1428.86,263.826 1433.52,263.826 
  1446.97,268.661 1451.19,268.661 1454.93,268.661 1459.08,268.661 1462.71,268.661 1466.29,268.661 1469.68,268.661 1473.32,268.661 1476.67,268.661 1487.51,268.661 
  1497.98,268.661 1507.94,268.661 1516.96,268.661 1525.62,268.661 1533.92,268.661 1541.74,268.661 
  "/>
<path clip-path="url(#clip690)" d="
M1802.61 425.586 L2282.92 425.586 L2282.92 166.386 L1802.61 166.386  Z
  " fill="#ffffff" fill-rule="evenodd" fill-opacity="1"/>
<polyline clip-path="url(#clip690)" style="stroke:#000000; stroke-linecap:butt; stroke-linejoin:round; stroke-width:4; stroke-opacity:1; fill:none" points="
  1802.61,425.586 2282.92,425.586 2282.92,166.386 1802.61,166.386 1802.61,425.586 
  "/>
<polyline clip-path="url(#clip690)" style="stroke:#009af9; stroke-linecap:butt; stroke-linejoin:round; stroke-width:4; stroke-opacity:1; fill:none" points="
  1825.89,218.226 1965.56,218.226 
  "/>
<path clip-path="url(#clip690)" d="M2004.03 213.562 Q2003.31 213.145 2002.45 212.96 Q2001.62 212.752 2000.6 212.752 Q1996.99 212.752 1995.05 215.113 Q1993.12 217.451 1993.12 221.849 L1993.12 235.506 L1988.84 235.506 L1988.84 209.58 L1993.12 209.58 L1993.12 213.608 Q1994.47 211.247 1996.62 210.113 Q1998.77 208.955 2001.85 208.955 Q2002.29 208.955 2002.82 209.025 Q2003.36 209.071 2004 209.187 L2004.03 213.562 Z" fill="#000000" fill-rule="evenodd" fill-opacity="1" /><path clip-path="url(#clip690)" d="M2020.28 222.474 Q2015.11 222.474 2013.12 223.654 Q2011.13 224.835 2011.13 227.682 Q2011.13 229.951 2012.61 231.293 Q2014.12 232.613 2016.69 232.613 Q2020.23 232.613 2022.36 230.113 Q2024.51 227.59 2024.51 223.423 L2024.51 222.474 L2020.28 222.474 M2028.77 220.715 L2028.77 235.506 L2024.51 235.506 L2024.51 231.571 Q2023.05 233.932 2020.88 235.066 Q2018.7 236.178 2015.55 236.178 Q2011.57 236.178 2009.21 233.955 Q2006.87 231.71 2006.87 227.96 Q2006.87 223.585 2009.79 221.363 Q2012.73 219.141 2018.54 219.141 L2024.51 219.141 L2024.51 218.724 Q2024.51 215.784 2022.57 214.187 Q2020.65 212.567 2017.15 212.567 Q2014.93 212.567 2012.82 213.099 Q2010.72 213.631 2008.77 214.696 L2008.77 210.761 Q2011.11 209.858 2013.31 209.418 Q2015.51 208.955 2017.59 208.955 Q2023.22 208.955 2025.99 211.872 Q2028.77 214.789 2028.77 220.715 Z" fill="#000000" fill-rule="evenodd" fill-opacity="1" /><path clip-path="url(#clip690)" d="M2059.1 219.858 L2059.1 235.506 L2054.84 235.506 L2054.84 219.997 Q2054.84 216.317 2053.4 214.488 Q2051.97 212.659 2049.1 212.659 Q2045.65 212.659 2043.66 214.858 Q2041.67 217.057 2041.67 220.854 L2041.67 235.506 L2037.38 235.506 L2037.38 209.58 L2041.67 209.58 L2041.67 213.608 Q2043.19 211.27 2045.25 210.113 Q2047.34 208.955 2050.04 208.955 Q2054.51 208.955 2056.8 211.733 Q2059.1 214.488 2059.1 219.858 Z" fill="#000000" fill-rule="evenodd" fill-opacity="1" /><path clip-path="url(#clip690)" d="M2084.65 213.516 L2084.65 199.488 L2088.91 199.488 L2088.91 235.506 L2084.65 235.506 L2084.65 231.617 Q2083.31 233.932 2081.25 235.066 Q2079.21 236.178 2076.34 236.178 Q2071.64 236.178 2068.68 232.428 Q2065.74 228.678 2065.74 222.567 Q2065.74 216.455 2068.68 212.705 Q2071.64 208.955 2076.34 208.955 Q2079.21 208.955 2081.25 210.09 Q2083.31 211.201 2084.65 213.516 M2070.14 222.567 Q2070.14 227.266 2072.06 229.951 Q2074 232.613 2077.38 232.613 Q2080.76 232.613 2082.71 229.951 Q2084.65 227.266 2084.65 222.567 Q2084.65 217.867 2082.71 215.205 Q2080.76 212.52 2077.38 212.52 Q2074 212.52 2072.06 215.205 Q2070.14 217.867 2070.14 222.567 Z" fill="#000000" fill-rule="evenodd" fill-opacity="1" /><path clip-path="url(#clip690)" d="M2107.73 212.567 Q2104.3 212.567 2102.31 215.252 Q2100.32 217.914 2100.32 222.567 Q2100.32 227.219 2102.29 229.904 Q2104.28 232.566 2107.73 232.566 Q2111.13 232.566 2113.12 229.881 Q2115.11 227.196 2115.11 222.567 Q2115.11 217.96 2113.12 215.275 Q2111.13 212.567 2107.73 212.567 M2107.73 208.955 Q2113.29 208.955 2116.46 212.567 Q2119.63 216.178 2119.63 222.567 Q2119.63 228.932 2116.46 232.566 Q2113.29 236.178 2107.73 236.178 Q2102.15 236.178 2098.98 232.566 Q2095.83 228.932 2095.83 222.567 Q2095.83 216.178 2098.98 212.567 Q2102.15 208.955 2107.73 208.955 Z" fill="#000000" fill-rule="evenodd" fill-opacity="1" /><path clip-path="url(#clip690)" d="M2146.87 214.557 Q2148.47 211.687 2150.69 210.321 Q2152.91 208.955 2155.92 208.955 Q2159.97 208.955 2162.17 211.803 Q2164.37 214.627 2164.37 219.858 L2164.37 235.506 L2160.09 235.506 L2160.09 219.997 Q2160.09 216.27 2158.77 214.465 Q2157.45 212.659 2154.74 212.659 Q2151.43 212.659 2149.51 214.858 Q2147.59 217.057 2147.59 220.854 L2147.59 235.506 L2143.31 235.506 L2143.31 219.997 Q2143.31 216.247 2141.99 214.465 Q2140.67 212.659 2137.91 212.659 Q2134.65 212.659 2132.73 214.881 Q2130.81 217.08 2130.81 220.854 L2130.81 235.506 L2126.53 235.506 L2126.53 209.58 L2130.81 209.58 L2130.81 213.608 Q2132.27 211.224 2134.3 210.09 Q2136.34 208.955 2139.14 208.955 Q2141.97 208.955 2143.93 210.391 Q2145.92 211.826 2146.87 214.557 Z" fill="#000000" fill-rule="evenodd" fill-opacity="1" /><polyline clip-path="url(#clip690)" style="stroke:#e26f46; stroke-linecap:butt; stroke-linejoin:round; stroke-width:4; stroke-opacity:1; fill:none" points="
  1825.89,270.066 1965.56,270.066 
  "/>
<path clip-path="url(#clip690)" d="M1988.84 252.786 L1993.52 252.786 L1993.52 283.411 L2010.35 283.411 L2010.35 287.346 L1988.84 287.346 L1988.84 252.786 Z" fill="#000000" fill-rule="evenodd" fill-opacity="1" /><path clip-path="url(#clip690)" d="M2015.25 252.786 L2019.93 252.786 L2019.93 266.953 L2036.92 266.953 L2036.92 252.786 L2041.6 252.786 L2041.6 287.346 L2036.92 287.346 L2036.92 270.888 L2019.93 270.888 L2019.93 287.346 L2015.25 287.346 L2015.25 252.786 Z" fill="#000000" fill-rule="evenodd" fill-opacity="1" /><polyline clip-path="url(#clip690)" style="stroke:#3da44d; stroke-linecap:butt; stroke-linejoin:round; stroke-width:4; stroke-opacity:1; fill:none" points="
  1825.89,321.906 1965.56,321.906 
  "/>
<path clip-path="url(#clip690)" d="M1993.52 322.682 L1993.52 335.344 L2001.02 335.344 Q2004.79 335.344 2006.6 333.793 Q2008.42 332.219 2008.42 329.001 Q2008.42 325.76 2006.6 324.233 Q2004.79 322.682 2001.02 322.682 L1993.52 322.682 M1993.52 308.469 L1993.52 318.885 L2000.44 318.885 Q2003.86 318.885 2005.53 317.612 Q2007.22 316.316 2007.22 313.677 Q2007.22 311.061 2005.53 309.765 Q2003.86 308.469 2000.44 308.469 L1993.52 308.469 M1988.84 304.626 L2000.79 304.626 Q2006.13 304.626 2009.03 306.848 Q2011.92 309.071 2011.92 313.168 Q2011.92 316.339 2010.44 318.214 Q2008.96 320.089 2006.09 320.552 Q2009.54 321.293 2011.43 323.654 Q2013.36 325.992 2013.36 329.51 Q2013.36 334.14 2010.21 336.663 Q2007.06 339.186 2001.25 339.186 L1988.84 339.186 L1988.84 304.626 Z" fill="#000000" fill-rule="evenodd" fill-opacity="1" /><path clip-path="url(#clip690)" d="M2034.56 307.798 Q2029.47 307.798 2026.46 311.594 Q2023.47 315.39 2023.47 321.941 Q2023.47 328.469 2026.46 332.265 Q2029.47 336.061 2034.56 336.061 Q2039.65 336.061 2042.61 332.265 Q2045.6 328.469 2045.6 321.941 Q2045.6 315.39 2042.61 311.594 Q2039.65 307.798 2034.56 307.798 M2034.56 304.001 Q2041.83 304.001 2046.18 308.886 Q2050.53 313.747 2050.53 321.941 Q2050.53 330.112 2046.18 334.996 Q2041.83 339.858 2034.56 339.858 Q2027.27 339.858 2022.89 334.996 Q2018.54 330.135 2018.54 321.941 Q2018.54 313.747 2022.89 308.886 Q2027.27 304.001 2034.56 304.001 Z" fill="#000000" fill-rule="evenodd" fill-opacity="1" /><path clip-path="url(#clip690)" d="M2057.85 304.626 L2062.52 304.626 L2062.52 318.793 L2079.51 318.793 L2079.51 304.626 L2084.19 304.626 L2084.19 339.186 L2079.51 339.186 L2079.51 322.728 L2062.52 322.728 L2062.52 339.186 L2057.85 339.186 L2057.85 304.626 Z" fill="#000000" fill-rule="evenodd" fill-opacity="1" /><path clip-path="url(#clip690)" d="M2098.17 322.682 L2098.17 335.344 L2105.67 335.344 Q2109.44 335.344 2111.25 333.793 Q2113.08 332.219 2113.08 329.001 Q2113.08 325.76 2111.25 324.233 Q2109.44 322.682 2105.67 322.682 L2098.17 322.682 M2098.17 308.469 L2098.17 318.885 L2105.09 318.885 Q2108.52 318.885 2110.18 317.612 Q2111.87 316.316 2111.87 313.677 Q2111.87 311.061 2110.18 309.765 Q2108.52 308.469 2105.09 308.469 L2098.17 308.469 M2093.49 304.626 L2105.44 304.626 Q2110.79 304.626 2113.68 306.848 Q2116.57 309.071 2116.57 313.168 Q2116.57 316.339 2115.09 318.214 Q2113.61 320.089 2110.74 320.552 Q2114.19 321.293 2116.09 323.654 Q2118.01 325.992 2118.01 329.51 Q2118.01 334.14 2114.86 336.663 Q2111.71 339.186 2105.9 339.186 L2093.49 339.186 L2093.49 304.626 Z" fill="#000000" fill-rule="evenodd" fill-opacity="1" /><polyline clip-path="url(#clip690)" style="stroke:#c271d2; stroke-linecap:butt; stroke-linejoin:round; stroke-width:4; stroke-opacity:1; fill:none" points="
  1825.89,373.746 1965.56,373.746 
  "/>
<path clip-path="url(#clip690)" d="M2010.55 375.378 L2010.55 391.026 L2006.3 391.026 L2006.3 375.517 Q2006.3 371.837 2004.86 370.008 Q2003.42 368.179 2000.55 368.179 Q1997.11 368.179 1995.11 370.378 Q1993.12 372.577 1993.12 376.374 L1993.12 391.026 L1988.84 391.026 L1988.84 355.008 L1993.12 355.008 L1993.12 369.128 Q1994.65 366.79 1996.71 365.633 Q1998.8 364.475 2001.5 364.475 Q2005.97 364.475 2008.26 367.253 Q2010.55 370.008 2010.55 375.378 Z" fill="#000000" fill-rule="evenodd" fill-opacity="1" /><path clip-path="url(#clip690)" d="M2029.84 393.434 Q2028.03 398.063 2026.32 399.475 Q2024.61 400.887 2021.73 400.887 L2018.33 400.887 L2018.33 397.323 L2020.83 397.323 Q2022.59 397.323 2023.56 396.489 Q2024.54 395.656 2025.72 392.554 L2026.48 390.61 L2015.99 365.1 L2020.51 365.1 L2028.61 385.378 L2036.71 365.1 L2041.23 365.1 L2029.84 393.434 Z" fill="#000000" fill-rule="evenodd" fill-opacity="1" /><path clip-path="url(#clip690)" d="M2051.23 387.137 L2051.23 400.887 L2046.94 400.887 L2046.94 365.1 L2051.23 365.1 L2051.23 369.036 Q2052.57 366.721 2054.61 365.61 Q2056.67 364.475 2059.51 364.475 Q2064.23 364.475 2067.17 368.225 Q2070.14 371.975 2070.14 378.087 Q2070.14 384.198 2067.17 387.948 Q2064.23 391.698 2059.51 391.698 Q2056.67 391.698 2054.61 390.586 Q2052.57 389.452 2051.23 387.137 M2065.72 378.087 Q2065.72 373.387 2063.77 370.725 Q2061.85 368.04 2058.47 368.04 Q2055.09 368.04 2053.15 370.725 Q2051.23 373.387 2051.23 378.087 Q2051.23 382.786 2053.15 385.471 Q2055.09 388.133 2058.47 388.133 Q2061.85 388.133 2063.77 385.471 Q2065.72 382.786 2065.72 378.087 Z" fill="#000000" fill-rule="evenodd" fill-opacity="1" /><path clip-path="url(#clip690)" d="M2099.37 376.999 L2099.37 379.082 L2079.79 379.082 Q2080.07 383.48 2082.43 385.795 Q2084.81 388.086 2089.05 388.086 Q2091.5 388.086 2093.79 387.485 Q2096.11 386.883 2098.38 385.679 L2098.38 389.707 Q2096.09 390.679 2093.68 391.188 Q2091.27 391.698 2088.79 391.698 Q2082.59 391.698 2078.96 388.086 Q2075.35 384.475 2075.35 378.318 Q2075.35 371.952 2078.77 368.225 Q2082.22 364.475 2088.05 364.475 Q2093.29 364.475 2096.32 367.855 Q2099.37 371.212 2099.37 376.999 M2095.11 375.749 Q2095.07 372.253 2093.15 370.17 Q2091.25 368.087 2088.1 368.087 Q2084.54 368.087 2082.38 370.1 Q2080.25 372.114 2079.93 375.772 L2095.11 375.749 Z" fill="#000000" fill-rule="evenodd" fill-opacity="1" /><path clip-path="url(#clip690)" d="M2121.39 369.082 Q2120.67 368.665 2119.81 368.48 Q2118.98 368.272 2117.96 368.272 Q2114.35 368.272 2112.41 370.633 Q2110.48 372.971 2110.48 377.369 L2110.48 391.026 L2106.2 391.026 L2106.2 365.1 L2110.48 365.1 L2110.48 369.128 Q2111.83 366.767 2113.98 365.633 Q2116.13 364.475 2119.21 364.475 Q2119.65 364.475 2120.18 364.545 Q2120.72 364.591 2121.36 364.707 L2121.39 369.082 Z" fill="#000000" fill-rule="evenodd" fill-opacity="1" /><path clip-path="url(#clip690)" d="M2144.47 378.087 Q2144.47 373.387 2142.52 370.725 Q2140.6 368.04 2137.22 368.04 Q2133.84 368.04 2131.9 370.725 Q2129.98 373.387 2129.98 378.087 Q2129.98 382.786 2131.9 385.471 Q2133.84 388.133 2137.22 388.133 Q2140.6 388.133 2142.52 385.471 Q2144.47 382.786 2144.47 378.087 M2129.98 369.036 Q2131.32 366.721 2133.35 365.61 Q2135.41 364.475 2138.26 364.475 Q2142.98 364.475 2145.92 368.225 Q2148.89 371.975 2148.89 378.087 Q2148.89 384.198 2145.92 387.948 Q2142.98 391.698 2138.26 391.698 Q2135.41 391.698 2133.35 390.586 Q2131.32 389.452 2129.98 387.137 L2129.98 391.026 L2125.69 391.026 L2125.69 355.008 L2129.98 355.008 L2129.98 369.036 Z" fill="#000000" fill-rule="evenodd" fill-opacity="1" /><path clip-path="url(#clip690)" d="M2167.73 377.994 Q2162.57 377.994 2160.58 379.174 Q2158.59 380.355 2158.59 383.202 Q2158.59 385.471 2160.07 386.813 Q2161.57 388.133 2164.14 388.133 Q2167.68 388.133 2169.81 385.633 Q2171.97 383.11 2171.97 378.943 L2171.97 377.994 L2167.73 377.994 M2176.22 376.235 L2176.22 391.026 L2171.97 391.026 L2171.97 387.091 Q2170.51 389.452 2168.33 390.586 Q2166.16 391.698 2163.01 391.698 Q2159.03 391.698 2156.66 389.475 Q2154.33 387.23 2154.33 383.48 Q2154.33 379.105 2157.24 376.883 Q2160.18 374.661 2165.99 374.661 L2171.97 374.661 L2171.97 374.244 Q2171.97 371.304 2170.02 369.707 Q2168.1 368.087 2164.6 368.087 Q2162.38 368.087 2160.28 368.619 Q2158.17 369.151 2156.22 370.216 L2156.22 366.281 Q2158.56 365.378 2160.76 364.938 Q2162.96 364.475 2165.04 364.475 Q2170.67 364.475 2173.45 367.392 Q2176.22 370.309 2176.22 376.235 Z" fill="#000000" fill-rule="evenodd" fill-opacity="1" /><path clip-path="url(#clip690)" d="M2206.55 375.378 L2206.55 391.026 L2202.29 391.026 L2202.29 375.517 Q2202.29 371.837 2200.85 370.008 Q2199.42 368.179 2196.55 368.179 Q2193.1 368.179 2191.11 370.378 Q2189.12 372.577 2189.12 376.374 L2189.12 391.026 L2184.84 391.026 L2184.84 365.1 L2189.12 365.1 L2189.12 369.128 Q2190.65 366.79 2192.71 365.633 Q2194.79 364.475 2197.5 364.475 Q2201.97 364.475 2204.26 367.253 Q2206.55 370.008 2206.55 375.378 Z" fill="#000000" fill-rule="evenodd" fill-opacity="1" /><path clip-path="url(#clip690)" d="M2232.1 369.036 L2232.1 355.008 L2236.36 355.008 L2236.36 391.026 L2232.1 391.026 L2232.1 387.137 Q2230.76 389.452 2228.7 390.586 Q2226.66 391.698 2223.79 391.698 Q2219.09 391.698 2216.13 387.948 Q2213.19 384.198 2213.19 378.087 Q2213.19 371.975 2216.13 368.225 Q2219.09 364.475 2223.79 364.475 Q2226.66 364.475 2228.7 365.61 Q2230.76 366.721 2232.1 369.036 M2217.59 378.087 Q2217.59 382.786 2219.51 385.471 Q2221.46 388.133 2224.84 388.133 Q2228.22 388.133 2230.16 385.471 Q2232.1 382.786 2232.1 378.087 Q2232.1 373.387 2230.16 370.725 Q2228.22 368.04 2224.84 368.04 Q2221.46 368.04 2219.51 370.725 Q2217.59 373.387 2217.59 378.087 Z" fill="#000000" fill-rule="evenodd" fill-opacity="1" /></svg>
