<?xml version="1.0" encoding="utf-8"?>
<svg xmlns="http://www.w3.org/2000/svg" xmlns:xlink="http://www.w3.org/1999/xlink" width="600" height="400" viewBox="0 0 2400 1600">
<defs>
  <clipPath id="clip780">
    <rect x="0" y="0" width="2400" height="1600"/>
  </clipPath>
</defs>
<path clip-path="url(#clip780)" d="
M0 1600 L2400 1600 L2400 0 L0 0  Z
  " fill="#ffffff" fill-rule="evenodd" fill-opacity="1"/>
<defs>
  <clipPath id="clip781">
    <rect x="480" y="0" width="1681" height="1600"/>
  </clipPath>
</defs>
<path clip-path="url(#clip780)" d="
M302.458 1410.9 L2352.76 1410.9 L2352.76 123.472 L302.458 123.472  Z
  " fill="#ffffff" fill-rule="evenodd" fill-opacity="1"/>
<defs>
  <clipPath id="clip782">
    <rect x="302" y="123" width="2051" height="1288"/>
  </clipPath>
</defs>
<polyline clip-path="url(#clip782)" style="stroke:#000000; stroke-linecap:butt; stroke-linejoin:round; stroke-width:2; stroke-opacity:0.1; fill:none" points="
  1161.49,1410.9 1161.49,123.472 
  "/>
<polyline clip-path="url(#clip782)" style="stroke:#000000; stroke-linecap:butt; stroke-linejoin:round; stroke-width:2; stroke-opacity:0.1; fill:none" points="
  2269.32,1410.9 2269.32,123.472 
  "/>
<polyline clip-path="url(#clip780)" style="stroke:#000000; stroke-linecap:butt; stroke-linejoin:round; stroke-width:4; stroke-opacity:1; fill:none" points="
  302.458,1410.9 2352.76,1410.9 
  "/>
<polyline clip-path="url(#clip780)" style="stroke:#000000; stroke-linecap:butt; stroke-linejoin:round; stroke-width:4; stroke-opacity:1; fill:none" points="
  1161.49,1410.9 1161.49,1395.45 
  "/>
<polyline clip-path="url(#clip780)" style="stroke:#000000; stroke-linecap:butt; stroke-linejoin:round; stroke-width:4; stroke-opacity:1; fill:none" points="
  2269.32,1410.9 2269.32,1395.45 
  "/>
<path clip-path="url(#clip780)" d="M1126.47 1489.17 L1134.11 1489.17 L1134.11 1462.8 L1125.8 1464.47 L1125.8 1460.21 L1134.07 1458.54 L1138.74 1458.54 L1138.74 1489.17 L1146.38 1489.17 L1146.38 1493.1 L1126.47 1493.1 L1126.47 1489.17 Z" fill="#000000" fill-rule="evenodd" fill-opacity="1" /><path clip-path="url(#clip780)" d="M1165.82 1461.62 Q1162.21 1461.62 1160.38 1465.19 Q1158.58 1468.73 1158.58 1475.86 Q1158.58 1482.97 1160.38 1486.53 Q1162.21 1490.07 1165.82 1490.07 Q1169.46 1490.07 1171.26 1486.53 Q1173.09 1482.97 1173.09 1475.86 Q1173.09 1468.73 1171.26 1465.19 Q1169.46 1461.62 1165.82 1461.62 M1165.82 1457.92 Q1171.63 1457.92 1174.69 1462.53 Q1177.77 1467.11 1177.77 1475.86 Q1177.77 1484.59 1174.69 1489.19 Q1171.63 1493.78 1165.82 1493.78 Q1160.01 1493.78 1156.94 1489.19 Q1153.88 1484.59 1153.88 1475.86 Q1153.88 1467.11 1156.94 1462.53 Q1160.01 1457.92 1165.82 1457.92 Z" fill="#000000" fill-rule="evenodd" fill-opacity="1" /><path clip-path="url(#clip780)" d="M1187.47 1440.11 Q1184.54 1440.11 1183.05 1443.01 Q1181.59 1445.89 1181.59 1451.68 Q1181.59 1457.46 1183.05 1460.35 Q1184.54 1463.23 1187.47 1463.23 Q1190.43 1463.23 1191.89 1460.35 Q1193.38 1457.46 1193.38 1451.68 Q1193.38 1445.89 1191.89 1443.01 Q1190.43 1440.11 1187.47 1440.11 M1187.47 1437.11 Q1192.19 1437.11 1194.68 1440.85 Q1197.18 1444.57 1197.18 1451.68 Q1197.18 1458.77 1194.68 1462.51 Q1192.19 1466.24 1187.47 1466.24 Q1182.75 1466.24 1180.25 1462.51 Q1177.77 1458.77 1177.77 1451.68 Q1177.77 1444.57 1180.25 1440.85 Q1182.75 1437.11 1187.47 1437.11 Z" fill="#000000" fill-rule="evenodd" fill-opacity="1" /><path clip-path="url(#clip780)" d="M2235.09 1489.17 L2242.73 1489.17 L2242.73 1462.8 L2234.42 1464.47 L2234.42 1460.21 L2242.68 1458.54 L2247.36 1458.54 L2247.36 1489.17 L2255 1489.17 L2255 1493.1 L2235.09 1493.1 L2235.09 1489.17 Z" fill="#000000" fill-rule="evenodd" fill-opacity="1" /><path clip-path="url(#clip780)" d="M2274.44 1461.62 Q2270.83 1461.62 2269 1465.19 Q2267.2 1468.73 2267.2 1475.86 Q2267.2 1482.97 2269 1486.53 Q2270.83 1490.07 2274.44 1490.07 Q2278.08 1490.07 2279.88 1486.53 Q2281.71 1482.97 2281.71 1475.86 Q2281.71 1468.73 2279.88 1465.19 Q2278.08 1461.62 2274.44 1461.62 M2274.44 1457.92 Q2280.25 1457.92 2283.31 1462.53 Q2286.39 1467.11 2286.39 1475.86 Q2286.39 1484.59 2283.31 1489.19 Q2280.25 1493.78 2274.44 1493.78 Q2268.63 1493.78 2265.55 1489.19 Q2262.5 1484.59 2262.5 1475.86 Q2262.5 1467.11 2265.55 1462.53 Q2268.63 1457.92 2274.44 1457.92 Z" fill="#000000" fill-rule="evenodd" fill-opacity="1" /><path clip-path="url(#clip780)" d="M2290.96 1462.5 L2304.22 1462.5 L2304.22 1465.69 L2286.39 1465.69 L2286.39 1462.5 Q2288.55 1460.26 2292.27 1456.5 Q2296.02 1452.72 2296.98 1451.63 Q2298.8 1449.58 2299.52 1448.16 Q2300.25 1446.74 2300.25 1445.36 Q2300.25 1443.12 2298.67 1441.71 Q2297.11 1440.3 2294.59 1440.3 Q2292.8 1440.3 2290.81 1440.92 Q2288.83 1441.54 2286.58 1442.8 L2286.58 1438.97 Q2288.87 1438.05 2290.86 1437.58 Q2292.86 1437.11 2294.51 1437.11 Q2298.88 1437.11 2301.47 1439.29 Q2304.07 1441.47 2304.07 1445.12 Q2304.07 1446.85 2303.41 1448.41 Q2302.77 1449.95 2301.06 1452.06 Q2300.59 1452.6 2298.07 1455.22 Q2295.55 1457.81 2290.96 1462.5 Z" fill="#000000" fill-rule="evenodd" fill-opacity="1" /><path clip-path="url(#clip780)" d="M1130.14 1528.42 L1130.14 1538.54 L1142.21 1538.54 L1142.21 1543.09 L1130.14 1543.09 L1130.14 1562.44 Q1130.14 1566.8 1131.32 1568.04 Q1132.53 1569.28 1136.19 1569.28 L1142.21 1569.28 L1142.21 1574.19 L1136.19 1574.19 Q1129.41 1574.19 1126.83 1571.67 Q1124.25 1569.12 1124.25 1562.44 L1124.25 1543.09 L1119.96 1543.09 L1119.96 1538.54 L1124.25 1538.54 L1124.25 1528.42 L1130.14 1528.42 Z" fill="#000000" fill-rule="evenodd" fill-opacity="1" /><path clip-path="url(#clip780)" d="M1149.91 1538.54 L1155.76 1538.54 L1155.76 1574.19 L1149.91 1574.19 L1149.91 1538.54 M1149.91 1524.66 L1155.76 1524.66 L1155.76 1532.08 L1149.91 1532.08 L1149.91 1524.66 Z" fill="#000000" fill-rule="evenodd" fill-opacity="1" /><path clip-path="url(#clip780)" d="M1195.77 1545.38 Q1197.97 1541.43 1201.03 1539.56 Q1204.08 1537.68 1208.22 1537.68 Q1213.79 1537.68 1216.81 1541.59 Q1219.84 1545.48 1219.84 1552.67 L1219.84 1574.19 L1213.95 1574.19 L1213.95 1552.86 Q1213.95 1547.74 1212.13 1545.25 Q1210.32 1542.77 1206.6 1542.77 Q1202.04 1542.77 1199.4 1545.79 Q1196.76 1548.82 1196.76 1554.04 L1196.76 1574.19 L1190.87 1574.19 L1190.87 1552.86 Q1190.87 1547.7 1189.06 1545.25 Q1187.24 1542.77 1183.46 1542.77 Q1178.97 1542.77 1176.33 1545.83 Q1173.68 1548.85 1173.68 1554.04 L1173.68 1574.19 L1167.8 1574.19 L1167.8 1538.54 L1173.68 1538.54 L1173.68 1544.08 Q1175.69 1540.8 1178.49 1539.24 Q1181.29 1537.68 1185.14 1537.68 Q1189.03 1537.68 1191.73 1539.65 Q1194.47 1541.62 1195.77 1545.38 Z" fill="#000000" fill-rule="evenodd" fill-opacity="1" /><path clip-path="url(#clip780)" d="M1262.01 1554.9 L1262.01 1557.76 L1235.08 1557.76 Q1235.46 1563.81 1238.71 1566.99 Q1241.99 1570.14 1247.81 1570.14 Q1251.19 1570.14 1254.34 1569.32 Q1257.52 1568.49 1260.64 1566.83 L1260.64 1572.37 Q1257.49 1573.71 1254.18 1574.41 Q1250.87 1575.11 1247.46 1575.11 Q1238.93 1575.11 1233.94 1570.14 Q1228.97 1565.18 1228.97 1556.71 Q1228.97 1547.96 1233.68 1542.83 Q1238.42 1537.68 1246.44 1537.68 Q1253.64 1537.68 1257.81 1542.33 Q1262.01 1546.94 1262.01 1554.9 M1256.15 1553.18 Q1256.09 1548.37 1253.45 1545.51 Q1250.84 1542.64 1246.51 1542.64 Q1241.61 1542.64 1238.65 1545.41 Q1235.72 1548.18 1235.27 1553.21 L1256.15 1553.18 Z" fill="#000000" fill-rule="evenodd" fill-opacity="1" /><path clip-path="url(#clip780)" d="M1322.83 1554.9 L1322.83 1557.76 L1295.91 1557.76 Q1296.29 1563.81 1299.53 1566.99 Q1302.81 1570.14 1308.64 1570.14 Q1312.01 1570.14 1315.16 1569.32 Q1318.35 1568.49 1321.46 1566.83 L1321.46 1572.37 Q1318.31 1573.71 1315 1574.41 Q1311.69 1575.11 1308.29 1575.11 Q1299.76 1575.11 1294.76 1570.14 Q1289.79 1565.18 1289.79 1556.71 Q1289.79 1547.96 1294.51 1542.83 Q1299.25 1537.68 1307.27 1537.68 Q1314.46 1537.68 1318.63 1542.33 Q1322.83 1546.94 1322.83 1554.9 M1316.98 1553.18 Q1316.91 1548.37 1314.27 1545.51 Q1311.66 1542.64 1307.33 1542.64 Q1302.43 1542.64 1299.47 1545.41 Q1296.54 1548.18 1296.1 1553.21 L1316.98 1553.18 Z" fill="#000000" fill-rule="evenodd" fill-opacity="1" /><path clip-path="url(#clip780)" d="M1332.45 1524.66 L1338.3 1524.66 L1338.3 1574.19 L1332.45 1574.19 L1332.45 1524.66 Z" fill="#000000" fill-rule="evenodd" fill-opacity="1" /><path clip-path="url(#clip780)" d="M1366.76 1556.27 Q1359.66 1556.27 1356.92 1557.89 Q1354.18 1559.51 1354.18 1563.43 Q1354.18 1566.55 1356.22 1568.39 Q1358.29 1570.21 1361.82 1570.21 Q1366.69 1570.21 1369.62 1566.77 Q1372.58 1563.3 1372.58 1557.57 L1372.58 1556.27 L1366.76 1556.27 M1378.44 1553.85 L1378.44 1574.19 L1372.58 1574.19 L1372.58 1568.77 Q1370.58 1572.02 1367.58 1573.58 Q1364.59 1575.11 1360.26 1575.11 Q1354.79 1575.11 1351.54 1572.05 Q1348.33 1568.97 1348.33 1563.81 Q1348.33 1557.79 1352.34 1554.74 Q1356.38 1551.68 1364.37 1551.68 L1372.58 1551.68 L1372.58 1551.11 Q1372.58 1547.07 1369.91 1544.87 Q1367.27 1542.64 1362.46 1542.64 Q1359.4 1542.64 1356.51 1543.38 Q1353.61 1544.11 1350.94 1545.57 L1350.94 1540.16 Q1354.15 1538.92 1357.18 1538.31 Q1360.2 1537.68 1363.06 1537.68 Q1370.8 1537.68 1374.62 1541.69 Q1378.44 1545.7 1378.44 1553.85 Z" fill="#000000" fill-rule="evenodd" fill-opacity="1" /><path clip-path="url(#clip780)" d="M1396.17 1568.84 L1396.17 1587.74 L1390.28 1587.74 L1390.28 1538.54 L1396.17 1538.54 L1396.17 1543.95 Q1398.01 1540.77 1400.81 1539.24 Q1403.65 1537.68 1407.56 1537.68 Q1414.05 1537.68 1418.1 1542.83 Q1422.17 1547.99 1422.17 1556.39 Q1422.17 1564.8 1418.1 1569.95 Q1414.05 1575.11 1407.56 1575.11 Q1403.65 1575.11 1400.81 1573.58 Q1398.01 1572.02 1396.17 1568.84 M1416.09 1556.39 Q1416.09 1549.93 1413.42 1546.27 Q1410.78 1542.58 1406.13 1542.58 Q1401.48 1542.58 1398.81 1546.27 Q1396.17 1549.93 1396.17 1556.39 Q1396.17 1562.85 1398.81 1566.55 Q1401.48 1570.21 1406.13 1570.21 Q1410.78 1570.21 1413.42 1566.55 Q1416.09 1562.85 1416.09 1556.39 Z" fill="#000000" fill-rule="evenodd" fill-opacity="1" /><path clip-path="url(#clip780)" d="M1454.6 1539.59 L1454.6 1545.13 Q1452.12 1543.85 1449.45 1543.22 Q1446.77 1542.58 1443.91 1542.58 Q1439.55 1542.58 1437.35 1543.92 Q1435.19 1545.25 1435.19 1547.93 Q1435.19 1549.96 1436.75 1551.14 Q1438.31 1552.29 1443.02 1553.34 L1445.02 1553.78 Q1451.26 1555.12 1453.87 1557.57 Q1456.51 1559.99 1456.51 1564.35 Q1456.51 1569.32 1452.57 1572.21 Q1448.65 1575.11 1441.78 1575.11 Q1438.91 1575.11 1435.79 1574.54 Q1432.7 1573.99 1429.27 1572.88 L1429.27 1566.83 Q1432.51 1568.52 1435.67 1569.38 Q1438.82 1570.21 1441.9 1570.21 Q1446.04 1570.21 1448.27 1568.81 Q1450.5 1567.37 1450.5 1564.8 Q1450.5 1562.41 1448.87 1561.14 Q1447.28 1559.86 1441.84 1558.68 L1439.8 1558.21 Q1434.36 1557.06 1431.94 1554.71 Q1429.52 1552.32 1429.52 1548.18 Q1429.52 1543.15 1433.09 1540.42 Q1436.65 1537.68 1443.21 1537.68 Q1446.45 1537.68 1449.32 1538.16 Q1452.18 1538.63 1454.6 1539.59 Z" fill="#000000" fill-rule="evenodd" fill-opacity="1" /><path clip-path="url(#clip780)" d="M1496.33 1554.9 L1496.33 1557.76 L1469.4 1557.76 Q1469.79 1563.81 1473.03 1566.99 Q1476.31 1570.14 1482.13 1570.14 Q1485.51 1570.14 1488.66 1569.32 Q1491.84 1568.49 1494.96 1566.83 L1494.96 1572.37 Q1491.81 1573.71 1488.5 1574.41 Q1485.19 1575.11 1481.78 1575.11 Q1473.25 1575.11 1468.26 1570.14 Q1463.29 1565.18 1463.29 1556.71 Q1463.29 1547.96 1468 1542.83 Q1472.75 1537.68 1480.77 1537.68 Q1487.96 1537.68 1492.13 1542.33 Q1496.33 1546.94 1496.33 1554.9 M1490.47 1553.18 Q1490.41 1548.37 1487.77 1545.51 Q1485.16 1542.64 1480.83 1542.64 Q1475.93 1542.64 1472.97 1545.41 Q1470.04 1548.18 1469.59 1553.21 L1490.47 1553.18 Z" fill="#000000" fill-rule="evenodd" fill-opacity="1" /><path clip-path="url(#clip780)" d="M1529.4 1543.95 L1529.4 1524.66 L1535.26 1524.66 L1535.26 1574.19 L1529.4 1574.19 L1529.4 1568.84 Q1527.55 1572.02 1524.72 1573.58 Q1521.92 1575.11 1517.97 1575.11 Q1511.51 1575.11 1507.44 1569.95 Q1503.4 1564.8 1503.4 1556.39 Q1503.4 1547.99 1507.44 1542.83 Q1511.51 1537.68 1517.97 1537.68 Q1521.92 1537.68 1524.72 1539.24 Q1527.55 1540.77 1529.4 1543.95 M1509.44 1556.39 Q1509.44 1562.85 1512.09 1566.55 Q1514.76 1570.21 1519.41 1570.21 Q1524.05 1570.21 1526.73 1566.55 Q1529.4 1562.85 1529.4 1556.39 Q1529.4 1549.93 1526.73 1546.27 Q1524.05 1542.58 1519.41 1542.58 Q1514.76 1542.58 1512.09 1546.27 Q1509.44 1549.93 1509.44 1556.39 Z" fill="#000000" fill-rule="evenodd" fill-opacity="1" /><polyline clip-path="url(#clip782)" style="stroke:#000000; stroke-linecap:butt; stroke-linejoin:round; stroke-width:2; stroke-opacity:0.1; fill:none" points="
  302.458,1374.46 2352.76,1374.46 
  "/>
<polyline clip-path="url(#clip782)" style="stroke:#000000; stroke-linecap:butt; stroke-linejoin:round; stroke-width:2; stroke-opacity:0.1; fill:none" points="
  302.458,1103.44 2352.76,1103.44 
  "/>
<polyline clip-path="url(#clip782)" style="stroke:#000000; stroke-linecap:butt; stroke-linejoin:round; stroke-width:2; stroke-opacity:0.1; fill:none" points="
  302.458,832.413 2352.76,832.413 
  "/>
<polyline clip-path="url(#clip782)" style="stroke:#000000; stroke-linecap:butt; stroke-linejoin:round; stroke-width:2; stroke-opacity:0.1; fill:none" points="
  302.458,561.39 2352.76,561.39 
  "/>
<polyline clip-path="url(#clip782)" style="stroke:#000000; stroke-linecap:butt; stroke-linejoin:round; stroke-width:2; stroke-opacity:0.1; fill:none" points="
  302.458,290.366 2352.76,290.366 
  "/>
<polyline clip-path="url(#clip780)" style="stroke:#000000; stroke-linecap:butt; stroke-linejoin:round; stroke-width:4; stroke-opacity:1; fill:none" points="
  302.458,1410.9 302.458,123.472 
  "/>
<polyline clip-path="url(#clip780)" style="stroke:#000000; stroke-linecap:butt; stroke-linejoin:round; stroke-width:4; stroke-opacity:1; fill:none" points="
  302.458,1374.46 327.062,1374.46 
  "/>
<polyline clip-path="url(#clip780)" style="stroke:#000000; stroke-linecap:butt; stroke-linejoin:round; stroke-width:4; stroke-opacity:1; fill:none" points="
  302.458,1103.44 327.062,1103.44 
  "/>
<polyline clip-path="url(#clip780)" style="stroke:#000000; stroke-linecap:butt; stroke-linejoin:round; stroke-width:4; stroke-opacity:1; fill:none" points="
  302.458,832.413 327.062,832.413 
  "/>
<polyline clip-path="url(#clip780)" style="stroke:#000000; stroke-linecap:butt; stroke-linejoin:round; stroke-width:4; stroke-opacity:1; fill:none" points="
  302.458,561.39 327.062,561.39 
  "/>
<polyline clip-path="url(#clip780)" style="stroke:#000000; stroke-linecap:butt; stroke-linejoin:round; stroke-width:4; stroke-opacity:1; fill:none" points="
  302.458,290.366 327.062,290.366 
  "/>
<path clip-path="url(#clip780)" d="M114.26 1374.91 L143.936 1374.91 L143.936 1378.85 L114.26 1378.85 L114.26 1374.91 Z" fill="#000000" fill-rule="evenodd" fill-opacity="1" /><path clip-path="url(#clip780)" d="M158.056 1387.8 L174.376 1387.8 L174.376 1391.74 L152.431 1391.74 L152.431 1387.8 Q155.093 1385.05 159.677 1380.42 Q164.283 1375.77 165.464 1374.43 Q167.709 1371.9 168.589 1370.17 Q169.491 1368.41 169.491 1366.72 Q169.491 1363.96 167.547 1362.23 Q165.626 1360.49 162.524 1360.49 Q160.325 1360.49 157.871 1361.25 Q155.44 1362.02 152.663 1363.57 L152.663 1358.85 Q155.487 1357.71 157.94 1357.13 Q160.394 1356.56 162.431 1356.56 Q167.802 1356.56 170.996 1359.24 Q174.19 1361.93 174.19 1366.42 Q174.19 1368.55 173.38 1370.47 Q172.593 1372.37 170.487 1374.96 Q169.908 1375.63 166.806 1378.85 Q163.704 1382.04 158.056 1387.8 Z" fill="#000000" fill-rule="evenodd" fill-opacity="1" /><path clip-path="url(#clip780)" d="M184.237 1357.18 L202.593 1357.18 L202.593 1361.12 L188.519 1361.12 L188.519 1369.59 Q189.538 1369.24 190.556 1369.08 Q191.575 1368.89 192.593 1368.89 Q198.38 1368.89 201.76 1372.06 Q205.139 1375.24 205.139 1380.65 Q205.139 1386.23 201.667 1389.33 Q198.195 1392.41 191.875 1392.41 Q189.7 1392.41 187.431 1392.04 Q185.186 1391.67 182.778 1390.93 L182.778 1386.23 Q184.862 1387.37 187.084 1387.92 Q189.306 1388.48 191.783 1388.48 Q195.787 1388.48 198.125 1386.37 Q200.463 1384.26 200.463 1380.65 Q200.463 1377.04 198.125 1374.93 Q195.787 1372.83 191.783 1372.83 Q189.908 1372.83 188.033 1373.24 Q186.181 1373.66 184.237 1374.54 L184.237 1357.18 Z" fill="#000000" fill-rule="evenodd" fill-opacity="1" /><path clip-path="url(#clip780)" d="M224.352 1360.26 Q220.741 1360.26 218.912 1363.82 Q217.107 1367.37 217.107 1374.49 Q217.107 1381.6 218.912 1385.17 Q220.741 1388.71 224.352 1388.71 Q227.986 1388.71 229.792 1385.17 Q231.621 1381.6 231.621 1374.49 Q231.621 1367.37 229.792 1363.82 Q227.986 1360.26 224.352 1360.26 M224.352 1356.56 Q230.162 1356.56 233.218 1361.16 Q236.297 1365.74 236.297 1374.49 Q236.297 1383.22 233.218 1387.83 Q230.162 1392.41 224.352 1392.41 Q218.542 1392.41 215.463 1387.83 Q212.408 1383.22 212.408 1374.49 Q212.408 1365.74 215.463 1361.16 Q218.542 1356.56 224.352 1356.56 Z" fill="#000000" fill-rule="evenodd" fill-opacity="1" /><path clip-path="url(#clip780)" d="M254.514 1360.26 Q250.903 1360.26 249.074 1363.82 Q247.269 1367.37 247.269 1374.49 Q247.269 1381.6 249.074 1385.17 Q250.903 1388.71 254.514 1388.71 Q258.148 1388.71 259.954 1385.17 Q261.783 1381.6 261.783 1374.49 Q261.783 1367.37 259.954 1363.82 Q258.148 1360.26 254.514 1360.26 M254.514 1356.56 Q260.324 1356.56 263.38 1361.16 Q266.458 1365.74 266.458 1374.49 Q266.458 1383.22 263.38 1387.83 Q260.324 1392.41 254.514 1392.41 Q248.704 1392.41 245.625 1387.83 Q242.57 1383.22 242.57 1374.49 Q242.57 1365.74 245.625 1361.16 Q248.704 1356.56 254.514 1356.56 Z" fill="#000000" fill-rule="evenodd" fill-opacity="1" /><path clip-path="url(#clip780)" d="M114.26 1103.89 L143.936 1103.89 L143.936 1107.82 L114.26 1107.82 L114.26 1103.89 Z" fill="#000000" fill-rule="evenodd" fill-opacity="1" /><path clip-path="url(#clip780)" d="M158.056 1116.78 L174.376 1116.78 L174.376 1120.72 L152.431 1120.72 L152.431 1116.78 Q155.093 1114.03 159.677 1109.4 Q164.283 1104.74 165.464 1103.4 Q167.709 1100.88 168.589 1099.14 Q169.491 1097.38 169.491 1095.69 Q169.491 1092.94 167.547 1091.2 Q165.626 1089.47 162.524 1089.47 Q160.325 1089.47 157.871 1090.23 Q155.44 1090.99 152.663 1092.55 L152.663 1087.82 Q155.487 1086.69 157.94 1086.11 Q160.394 1085.53 162.431 1085.53 Q167.802 1085.53 170.996 1088.22 Q174.19 1090.9 174.19 1095.39 Q174.19 1097.52 173.38 1099.44 Q172.593 1101.34 170.487 1103.93 Q169.908 1104.61 166.806 1107.82 Q163.704 1111.02 158.056 1116.78 Z" fill="#000000" fill-rule="evenodd" fill-opacity="1" /><path clip-path="url(#clip780)" d="M194.19 1089.24 Q190.579 1089.24 188.75 1092.8 Q186.945 1096.34 186.945 1103.47 Q186.945 1110.58 188.75 1114.14 Q190.579 1117.68 194.19 1117.68 Q197.825 1117.68 199.63 1114.14 Q201.459 1110.58 201.459 1103.47 Q201.459 1096.34 199.63 1092.8 Q197.825 1089.24 194.19 1089.24 M194.19 1085.53 Q200 1085.53 203.056 1090.14 Q206.135 1094.72 206.135 1103.47 Q206.135 1112.2 203.056 1116.8 Q200 1121.39 194.19 1121.39 Q188.38 1121.39 185.301 1116.8 Q182.246 1112.2 182.246 1103.47 Q182.246 1094.72 185.301 1090.14 Q188.38 1085.53 194.19 1085.53 Z" fill="#000000" fill-rule="evenodd" fill-opacity="1" /><path clip-path="url(#clip780)" d="M224.352 1089.24 Q220.741 1089.24 218.912 1092.8 Q217.107 1096.34 217.107 1103.47 Q217.107 1110.58 218.912 1114.14 Q220.741 1117.68 224.352 1117.68 Q227.986 1117.68 229.792 1114.14 Q231.621 1110.58 231.621 1103.47 Q231.621 1096.34 229.792 1092.8 Q227.986 1089.24 224.352 1089.24 M224.352 1085.53 Q230.162 1085.53 233.218 1090.14 Q236.297 1094.72 236.297 1103.47 Q236.297 1112.2 233.218 1116.8 Q230.162 1121.39 224.352 1121.39 Q218.542 1121.39 215.463 1116.8 Q212.408 1112.2 212.408 1103.47 Q212.408 1094.72 215.463 1090.14 Q218.542 1085.53 224.352 1085.53 Z" fill="#000000" fill-rule="evenodd" fill-opacity="1" /><path clip-path="url(#clip780)" d="M254.514 1089.24 Q250.903 1089.24 249.074 1092.8 Q247.269 1096.34 247.269 1103.47 Q247.269 1110.58 249.074 1114.14 Q250.903 1117.68 254.514 1117.68 Q258.148 1117.68 259.954 1114.14 Q261.783 1110.58 261.783 1103.47 Q261.783 1096.34 259.954 1092.8 Q258.148 1089.24 254.514 1089.24 M254.514 1085.53 Q260.324 1085.53 263.38 1090.14 Q266.458 1094.72 266.458 1103.47 Q266.458 1112.2 263.38 1116.8 Q260.324 1121.39 254.514 1121.39 Q248.704 1121.39 245.625 1116.8 Q242.57 1112.2 242.57 1103.47 Q242.57 1094.72 245.625 1090.14 Q248.704 1085.53 254.514 1085.53 Z" fill="#000000" fill-rule="evenodd" fill-opacity="1" /><path clip-path="url(#clip780)" d="M114.26 832.864 L143.936 832.864 L143.936 836.8 L114.26 836.8 L114.26 832.864 Z" fill="#000000" fill-rule="evenodd" fill-opacity="1" /><path clip-path="url(#clip780)" d="M154.839 845.758 L162.477 845.758 L162.477 819.392 L154.167 821.059 L154.167 816.8 L162.431 815.133 L167.107 815.133 L167.107 845.758 L174.746 845.758 L174.746 849.693 L154.839 849.693 L154.839 845.758 Z" fill="#000000" fill-rule="evenodd" fill-opacity="1" /><path clip-path="url(#clip780)" d="M184.237 815.133 L202.593 815.133 L202.593 819.068 L188.519 819.068 L188.519 827.54 Q189.538 827.193 190.556 827.031 Q191.575 826.846 192.593 826.846 Q198.38 826.846 201.76 830.017 Q205.139 833.189 205.139 838.605 Q205.139 844.184 201.667 847.286 Q198.195 850.364 191.875 850.364 Q189.7 850.364 187.431 849.994 Q185.186 849.624 182.778 848.883 L182.778 844.184 Q184.862 845.318 187.084 845.874 Q189.306 846.429 191.783 846.429 Q195.787 846.429 198.125 844.323 Q200.463 842.216 200.463 838.605 Q200.463 834.994 198.125 832.888 Q195.787 830.781 191.783 830.781 Q189.908 830.781 188.033 831.198 Q186.181 831.614 184.237 832.494 L184.237 815.133 Z" fill="#000000" fill-rule="evenodd" fill-opacity="1" /><path clip-path="url(#clip780)" d="M224.352 818.212 Q220.741 818.212 218.912 821.777 Q217.107 825.318 217.107 832.448 Q217.107 839.554 218.912 843.119 Q220.741 846.661 224.352 846.661 Q227.986 846.661 229.792 843.119 Q231.621 839.554 231.621 832.448 Q231.621 825.318 229.792 821.777 Q227.986 818.212 224.352 818.212 M224.352 814.508 Q230.162 814.508 233.218 819.115 Q236.297 823.698 236.297 832.448 Q236.297 841.175 233.218 845.781 Q230.162 850.364 224.352 850.364 Q218.542 850.364 215.463 845.781 Q212.408 841.175 212.408 832.448 Q212.408 823.698 215.463 819.115 Q218.542 814.508 224.352 814.508 Z" fill="#000000" fill-rule="evenodd" fill-opacity="1" /><path clip-path="url(#clip780)" d="M254.514 818.212 Q250.903 818.212 249.074 821.777 Q247.269 825.318 247.269 832.448 Q247.269 839.554 249.074 843.119 Q250.903 846.661 254.514 846.661 Q258.148 846.661 259.954 843.119 Q261.783 839.554 261.783 832.448 Q261.783 825.318 259.954 821.777 Q258.148 818.212 254.514 818.212 M254.514 814.508 Q260.324 814.508 263.38 819.115 Q266.458 823.698 266.458 832.448 Q266.458 841.175 263.38 845.781 Q260.324 850.364 254.514 850.364 Q248.704 850.364 245.625 845.781 Q242.57 841.175 242.57 832.448 Q242.57 823.698 245.625 819.115 Q248.704 814.508 254.514 814.508 Z" fill="#000000" fill-rule="evenodd" fill-opacity="1" /><path clip-path="url(#clip780)" d="M114.26 561.841 L143.936 561.841 L143.936 565.776 L114.26 565.776 L114.26 561.841 Z" fill="#000000" fill-rule="evenodd" fill-opacity="1" /><path clip-path="url(#clip780)" d="M154.839 574.734 L162.477 574.734 L162.477 548.369 L154.167 550.035 L154.167 545.776 L162.431 544.11 L167.107 544.11 L167.107 574.734 L174.746 574.734 L174.746 578.67 L154.839 578.67 L154.839 574.734 Z" fill="#000000" fill-rule="evenodd" fill-opacity="1" /><path clip-path="url(#clip780)" d="M194.19 547.188 Q190.579 547.188 188.75 550.753 Q186.945 554.295 186.945 561.424 Q186.945 568.531 188.75 572.096 Q190.579 575.637 194.19 575.637 Q197.825 575.637 199.63 572.096 Q201.459 568.531 201.459 561.424 Q201.459 554.295 199.63 550.753 Q197.825 547.188 194.19 547.188 M194.19 543.485 Q200 543.485 203.056 548.091 Q206.135 552.674 206.135 561.424 Q206.135 570.151 203.056 574.758 Q200 579.341 194.19 579.341 Q188.38 579.341 185.301 574.758 Q182.246 570.151 182.246 561.424 Q182.246 552.674 185.301 548.091 Q188.38 543.485 194.19 543.485 Z" fill="#000000" fill-rule="evenodd" fill-opacity="1" /><path clip-path="url(#clip780)" d="M224.352 547.188 Q220.741 547.188 218.912 550.753 Q217.107 554.295 217.107 561.424 Q217.107 568.531 218.912 572.096 Q220.741 575.637 224.352 575.637 Q227.986 575.637 229.792 572.096 Q231.621 568.531 231.621 561.424 Q231.621 554.295 229.792 550.753 Q227.986 547.188 224.352 547.188 M224.352 543.485 Q230.162 543.485 233.218 548.091 Q236.297 552.674 236.297 561.424 Q236.297 570.151 233.218 574.758 Q230.162 579.341 224.352 579.341 Q218.542 579.341 215.463 574.758 Q212.408 570.151 212.408 561.424 Q212.408 552.674 215.463 548.091 Q218.542 543.485 224.352 543.485 Z" fill="#000000" fill-rule="evenodd" fill-opacity="1" /><path clip-path="url(#clip780)" d="M254.514 547.188 Q250.903 547.188 249.074 550.753 Q247.269 554.295 247.269 561.424 Q247.269 568.531 249.074 572.096 Q250.903 575.637 254.514 575.637 Q258.148 575.637 259.954 572.096 Q261.783 568.531 261.783 561.424 Q261.783 554.295 259.954 550.753 Q258.148 547.188 254.514 547.188 M254.514 543.485 Q260.324 543.485 263.38 548.091 Q266.458 552.674 266.458 561.424 Q266.458 570.151 263.38 574.758 Q260.324 579.341 254.514 579.341 Q248.704 579.341 245.625 574.758 Q242.57 570.151 242.57 561.424 Q242.57 552.674 245.625 548.091 Q248.704 543.485 254.514 543.485 Z" fill="#000000" fill-rule="evenodd" fill-opacity="1" /><path clip-path="url(#clip780)" d="M144.422 290.817 L174.098 290.817 L174.098 294.753 L144.422 294.753 L144.422 290.817 Z" fill="#000000" fill-rule="evenodd" fill-opacity="1" /><path clip-path="url(#clip780)" d="M184.237 273.086 L202.593 273.086 L202.593 277.021 L188.519 277.021 L188.519 285.493 Q189.538 285.146 190.556 284.984 Q191.575 284.799 192.593 284.799 Q198.38 284.799 201.76 287.97 Q205.139 291.142 205.139 296.558 Q205.139 302.137 201.667 305.239 Q198.195 308.317 191.875 308.317 Q189.7 308.317 187.431 307.947 Q185.186 307.577 182.778 306.836 L182.778 302.137 Q184.862 303.271 187.084 303.827 Q189.306 304.382 191.783 304.382 Q195.787 304.382 198.125 302.276 Q200.463 300.169 200.463 296.558 Q200.463 292.947 198.125 290.841 Q195.787 288.734 191.783 288.734 Q189.908 288.734 188.033 289.151 Q186.181 289.567 184.237 290.447 L184.237 273.086 Z" fill="#000000" fill-rule="evenodd" fill-opacity="1" /><path clip-path="url(#clip780)" d="M224.352 276.165 Q220.741 276.165 218.912 279.73 Q217.107 283.271 217.107 290.401 Q217.107 297.507 218.912 301.072 Q220.741 304.614 224.352 304.614 Q227.986 304.614 229.792 301.072 Q231.621 297.507 231.621 290.401 Q231.621 283.271 229.792 279.73 Q227.986 276.165 224.352 276.165 M224.352 272.461 Q230.162 272.461 233.218 277.068 Q236.297 281.651 236.297 290.401 Q236.297 299.128 233.218 303.734 Q230.162 308.317 224.352 308.317 Q218.542 308.317 215.463 303.734 Q212.408 299.128 212.408 290.401 Q212.408 281.651 215.463 277.068 Q218.542 272.461 224.352 272.461 Z" fill="#000000" fill-rule="evenodd" fill-opacity="1" /><path clip-path="url(#clip780)" d="M254.514 276.165 Q250.903 276.165 249.074 279.73 Q247.269 283.271 247.269 290.401 Q247.269 297.507 249.074 301.072 Q250.903 304.614 254.514 304.614 Q258.148 304.614 259.954 301.072 Q261.783 297.507 261.783 290.401 Q261.783 283.271 259.954 279.73 Q258.148 276.165 254.514 276.165 M254.514 272.461 Q260.324 272.461 263.38 277.068 Q266.458 281.651 266.458 290.401 Q266.458 299.128 263.38 303.734 Q260.324 308.317 254.514 308.317 Q248.704 308.317 245.625 303.734 Q242.57 299.128 242.57 290.401 Q242.57 281.651 245.625 277.068 Q248.704 272.461 254.514 272.461 Z" fill="#000000" fill-rule="evenodd" fill-opacity="1" /><path clip-path="url(#clip780)" d="M33.8307 841.504 Q33.2578 842.491 33.0032 843.668 Q32.7167 844.814 32.7167 846.215 Q32.7167 851.18 35.9632 853.853 Q39.1779 856.495 45.2253 856.495 L64.0042 856.495 L64.0042 862.384 L28.3562 862.384 L28.3562 856.495 L33.8944 856.495 Q30.6479 854.649 29.0883 851.689 Q27.4968 848.729 27.4968 844.496 Q27.4968 843.891 27.5923 843.159 Q27.656 842.427 27.8151 841.536 L33.8307 841.504 Z" fill="#000000" fill-rule="evenodd" fill-opacity="1" /><path clip-path="url(#clip780)" d="M44.7161 806.302 L47.5806 806.302 L47.5806 833.229 Q53.6281 832.847 56.8109 829.6 Q59.9619 826.322 59.9619 820.497 Q59.9619 817.123 59.1344 813.972 Q58.3069 810.789 56.6518 807.67 L62.1899 807.67 Q63.5267 810.821 64.227 814.131 Q64.9272 817.442 64.9272 820.847 Q64.9272 829.377 59.9619 834.374 Q54.9967 839.34 46.5303 839.34 Q37.7774 839.34 32.6531 834.629 Q27.4968 829.887 27.4968 821.866 Q27.4968 814.673 32.1438 810.503 Q36.7589 806.302 44.7161 806.302 M42.9973 812.158 Q38.1912 812.222 35.3266 814.864 Q32.4621 817.473 32.4621 821.802 Q32.4621 826.704 35.2312 829.664 Q38.0002 832.592 43.0292 833.038 L42.9973 812.158 Z" fill="#000000" fill-rule="evenodd" fill-opacity="1" /><path clip-path="url(#clip780)" d="M45.7664 773.232 Q39.4007 773.232 35.8996 775.874 Q32.3984 778.484 32.3984 783.226 Q32.3984 787.937 35.8996 790.578 Q39.4007 793.188 45.7664 793.188 Q52.1003 793.188 55.6014 790.578 Q59.1026 787.937 59.1026 783.226 Q59.1026 778.484 55.6014 775.874 Q52.1003 773.232 45.7664 773.232 M59.58 767.375 Q68.683 767.375 73.1071 771.418 Q77.5631 775.46 77.5631 783.799 Q77.5631 786.886 77.0857 789.624 Q76.6401 792.361 75.6852 794.939 L69.9879 794.939 Q71.3884 792.361 72.0568 789.846 Q72.7252 787.332 72.7252 784.722 Q72.7252 778.961 69.7015 776.096 Q66.7096 773.232 60.6303 773.232 L57.7339 773.232 Q60.885 775.046 62.4446 777.879 Q64.0042 780.712 64.0042 784.658 Q64.0042 791.215 59.0071 795.225 Q54.01 799.236 45.7664 799.236 Q37.491 799.236 32.4939 795.225 Q27.4968 791.215 27.4968 784.658 Q27.4968 780.712 29.0564 777.879 Q30.616 775.046 33.7671 773.232 L28.3562 773.232 L28.3562 767.375 L59.58 767.375 Z" fill="#000000" fill-rule="evenodd" fill-opacity="1" /><path clip-path="url(#clip780)" d="M33.8307 734.656 Q33.2578 735.642 33.0032 736.82 Q32.7167 737.966 32.7167 739.366 Q32.7167 744.331 35.9632 747.005 Q39.1779 749.647 45.2253 749.647 L64.0042 749.647 L64.0042 755.535 L28.3562 755.535 L28.3562 749.647 L33.8944 749.647 Q30.6479 747.801 29.0883 744.841 Q27.4968 741.881 27.4968 737.648 Q27.4968 737.043 27.5923 736.311 Q27.656 735.579 27.8151 734.687 L33.8307 734.656 Z" fill="#000000" fill-rule="evenodd" fill-opacity="1" /><path clip-path="url(#clip780)" d="M44.7161 699.453 L47.5806 699.453 L47.5806 726.38 Q53.6281 725.998 56.8109 722.752 Q59.9619 719.473 59.9619 713.649 Q59.9619 710.275 59.1344 707.124 Q58.3069 703.941 56.6518 700.822 L62.1899 700.822 Q63.5267 703.973 64.227 707.283 Q64.9272 710.593 64.9272 713.999 Q64.9272 722.529 59.9619 727.526 Q54.9967 732.491 46.5303 732.491 Q37.7774 732.491 32.6531 727.781 Q27.4968 723.038 27.4968 715.017 Q27.4968 707.824 32.1438 703.655 Q36.7589 699.453 44.7161 699.453 M42.9973 705.31 Q38.1912 705.373 35.3266 708.015 Q32.4621 710.625 32.4621 714.954 Q32.4621 719.855 35.2312 722.815 Q38.0002 725.744 43.0292 726.189 L42.9973 705.31 Z" fill="#000000" fill-rule="evenodd" fill-opacity="1" /><path clip-path="url(#clip780)" d="M18.2347 684.048 L28.3562 684.048 L28.3562 671.985 L32.9077 671.985 L32.9077 684.048 L52.2594 684.048 Q56.6199 684.048 57.8613 682.871 Q59.1026 681.661 59.1026 678.001 L59.1026 671.985 L64.0042 671.985 L64.0042 678.001 Q64.0042 684.78 61.4897 687.358 Q58.9434 689.937 52.2594 689.937 L32.9077 689.937 L32.9077 694.233 L28.3562 694.233 L28.3562 689.937 L18.2347 689.937 L18.2347 684.048 Z" fill="#000000" fill-rule="evenodd" fill-opacity="1" /><path clip-path="url(#clip780)" d="M1203.73 14.0809 L1203.73 22.0612 Q1199.07 19.8332 1194.94 18.7395 Q1190.81 17.6457 1186.96 17.6457 Q1180.28 17.6457 1176.63 20.2383 Q1173.02 22.8309 1173.02 27.611 Q1173.02 31.6214 1175.41 33.6873 Q1177.85 35.7128 1184.57 36.9686 L1189.51 37.9813 Q1198.67 39.7232 1203 44.1387 Q1207.38 48.5136 1207.38 55.8863 Q1207.38 64.6767 1201.46 69.2137 Q1195.59 73.7508 1184.21 73.7508 Q1179.91 73.7508 1175.05 72.7785 Q1170.23 71.8063 1165.04 69.9024 L1165.04 61.4765 Q1170.03 64.2716 1174.81 65.6895 Q1179.59 67.1073 1184.21 67.1073 Q1191.21 67.1073 1195.02 64.3527 Q1198.83 61.598 1198.83 56.4939 Q1198.83 52.0379 1196.07 49.5264 Q1193.36 47.0148 1187.12 45.759 L1182.14 44.7868 Q1172.98 42.9639 1168.89 39.075 Q1164.8 35.1862 1164.8 28.2591 Q1164.8 20.2383 1170.43 15.6203 Q1176.1 11.0023 1186.03 11.0023 Q1190.28 11.0023 1194.7 11.7719 Q1199.11 12.5416 1203.73 14.0809 Z" fill="#000000" fill-rule="evenodd" fill-opacity="1" /><path clip-path="url(#clip780)" d="M1244.69 17.6457 Q1235.77 17.6457 1230.51 24.2892 Q1225.28 30.9327 1225.28 42.3968 Q1225.28 53.8203 1230.51 60.4638 Q1235.77 67.1073 1244.69 67.1073 Q1253.6 67.1073 1258.78 60.4638 Q1264.01 53.8203 1264.01 42.3968 Q1264.01 30.9327 1258.78 24.2892 Q1253.6 17.6457 1244.69 17.6457 M1244.69 11.0023 Q1257.4 11.0023 1265.02 19.5497 Q1272.64 28.0566 1272.64 42.3968 Q1272.64 56.6965 1265.02 65.2439 Q1257.4 73.7508 1244.69 73.7508 Q1231.92 73.7508 1224.27 65.2439 Q1216.65 56.737 1216.65 42.3968 Q1216.65 28.0566 1224.27 19.5497 Q1231.92 11.0023 1244.69 11.0023 Z" fill="#000000" fill-rule="evenodd" fill-opacity="1" /><path clip-path="url(#clip780)" d="M1321.69 14.0809 L1321.69 22.0612 Q1317.03 19.8332 1312.9 18.7395 Q1308.77 17.6457 1304.92 17.6457 Q1298.24 17.6457 1294.59 20.2383 Q1290.99 22.8309 1290.99 27.611 Q1290.99 31.6214 1293.38 33.6873 Q1295.81 35.7128 1302.53 36.9686 L1307.47 37.9813 Q1316.63 39.7232 1320.96 44.1387 Q1325.34 48.5136 1325.34 55.8863 Q1325.34 64.6767 1319.42 69.2137 Q1313.55 73.7508 1302.17 73.7508 Q1297.87 73.7508 1293.01 72.7785 Q1288.19 71.8063 1283.01 69.9024 L1283.01 61.4765 Q1287.99 64.2716 1292.77 65.6895 Q1297.55 67.1073 1302.17 67.1073 Q1309.18 67.1073 1312.98 64.3527 Q1316.79 61.598 1316.79 56.4939 Q1316.79 52.0379 1314.04 49.5264 Q1311.32 47.0148 1305.08 45.759 L1300.1 44.7868 Q1290.95 42.9639 1286.86 39.075 Q1282.76 35.1862 1282.76 28.2591 Q1282.76 20.2383 1288.39 15.6203 Q1294.07 11.0023 1303.99 11.0023 Q1308.24 11.0023 1312.66 11.7719 Q1317.07 12.5416 1321.69 14.0809 Z" fill="#000000" fill-rule="evenodd" fill-opacity="1" /><path clip-path="url(#clip780)" d="M1362.65 17.6457 Q1353.74 17.6457 1348.47 24.2892 Q1343.24 30.9327 1343.24 42.3968 Q1343.24 53.8203 1348.47 60.4638 Q1353.74 67.1073 1362.65 67.1073 Q1371.56 67.1073 1376.74 60.4638 Q1381.97 53.8203 1381.97 42.3968 Q1381.97 30.9327 1376.74 24.2892 Q1371.56 17.6457 1362.65 17.6457 M1374.11 71.4823 L1384.89 83.2704 L1375 83.2704 L1366.05 73.5887 Q1364.71 73.6697 1363.98 73.7103 Q1363.3 73.7508 1362.65 73.7508 Q1349.89 73.7508 1342.23 65.2439 Q1334.62 56.6965 1334.62 42.3968 Q1334.62 28.0566 1342.23 19.5497 Q1349.89 11.0023 1362.65 11.0023 Q1375.37 11.0023 1382.98 19.5497 Q1390.6 28.0566 1390.6 42.3968 Q1390.6 52.9291 1386.35 60.4233 Q1382.13 67.9175 1374.11 71.4823 Z" fill="#000000" fill-rule="evenodd" fill-opacity="1" /><path clip-path="url(#clip780)" d="M1411.58 18.8205 L1411.58 41.5461 L1421.87 41.5461 Q1427.58 41.5461 1430.7 38.5889 Q1433.82 35.6318 1433.82 30.163 Q1433.82 24.7348 1430.7 21.7777 Q1427.58 18.8205 1421.87 18.8205 L1411.58 18.8205 M1403.4 12.096 L1421.87 12.096 Q1432.04 12.096 1437.22 16.714 Q1442.45 21.2916 1442.45 30.163 Q1442.45 39.1155 1437.22 43.6931 Q1432.04 48.2706 1421.87 48.2706 L1411.58 48.2706 L1411.58 72.576 L1403.4 72.576 L1403.4 12.096 Z" fill="#000000" fill-rule="evenodd" fill-opacity="1" /><path clip-path="url(#clip780)" d="M1455.58 65.6895 L1468.94 65.6895 L1468.94 19.5497 L1454.4 22.4663 L1454.4 15.0127 L1468.86 12.096 L1477.05 12.096 L1477.05 65.6895 L1490.41 65.6895 L1490.41 72.576 L1455.58 72.576 L1455.58 65.6895 Z" fill="#000000" fill-rule="evenodd" fill-opacity="1" /><polyline clip-path="url(#clip782)" style="stroke:#009af9; stroke-linecap:butt; stroke-linejoin:round; stroke-width:8; stroke-opacity:1; fill:none" points="
  918.972,1297.49 1023.33,1297.49 1099.86,1297.49 1177.62,1339.77 1228.78,1339.77 1262.18,1339.77 1304.21,1339.77 1340.14,1339.77 1364.45,1339.77 1393.54,1339.77 
  1418.64,1339.77 1441.4,1339.77 1454.87,1339.77 1470.1,1339.77 1484.31,1339.77 1502.4,1339.77 1518.58,1339.77 1528.31,1339.77 1541.79,1339.77 1549.53,1339.77 
  1562.83,1339.77 1575.67,1339.77 1584.84,1339.77 1596.63,1339.77 1608.47,1339.77 1619.5,1339.77 1631.34,1339.77 1637.45,1339.77 1648.67,1339.77 1655.17,1339.77 
  1661.9,1339.77 1670.44,1339.77 1679.52,1339.77 1688.33,1339.77 1695.38,1339.77 1700.54,1339.77 1707.49,1339.77 1715.25,1339.77 1722.21,1339.77 1728.66,1339.77 
  
  "/>
<polyline clip-path="url(#clip782)" style="stroke:#e26f46; stroke-linecap:butt; stroke-linejoin:round; stroke-width:8; stroke-opacity:1; fill:none" points="
  803.942,1206.97 989.775,1279.6 1133.68,1297.49 1178.02,1297.49 1220.86,1297.49 1259.08,1297.49 1268.88,1297.49 1295.2,1297.49 1336.86,1297.49 1369.09,1297.49 
  1396.41,1297.49 1415.67,1297.49 1438.76,1297.49 1460.14,1297.49 1472.67,1297.49 1495.87,1297.49 1513.73,1297.49 1523.73,1297.49 1534.86,1297.49 1547.62,1297.49 
  1550.63,1297.49 1560.94,1297.49 1570.34,1297.49 1583.01,1330.01 1591.84,1330.01 1601.87,1330.01 1612.74,1335.43 1619.91,1335.43 1630.4,1335.43 1637.04,1335.43 
  1646.43,1335.43 1655.57,1335.43 1664.43,1339.77 1672.86,1339.77 1681.79,1339.77 1689.68,1339.77 1697.35,1339.77 1704.7,1339.77 1711.28,1339.77 1718.74,1339.77 
  
  "/>
<polyline clip-path="url(#clip782)" style="stroke:#3da44d; stroke-linecap:butt; stroke-linejoin:round; stroke-width:8; stroke-opacity:1; fill:none" points="
  442.441,159.909 589.13,166.609 641.278,166.609 679.596,166.609 734.174,166.609 776.113,173.216 820.101,173.216 846.847,173.216 864.774,173.216 883.415,173.216 
  901.122,173.216 928.517,173.216 958.493,173.216 990.974,173.216 1015.2,173.216 1033.06,175.983 1044.45,175.983 1053.24,175.983 1061.54,175.983 1069.46,175.983 
  1077.78,175.983 1086.83,175.983 1093.93,175.983 1102.81,175.983 1109.15,175.983 1116.39,175.983 1121.93,175.983 1127.05,175.983 1131.65,175.983 1139.13,175.983 
  1144.33,175.983 1148.72,175.983 1152.98,175.983 1157.12,175.983 1161.29,175.983 1165.54,175.983 1169.45,175.983 1173.54,175.983 1177.38,175.983 1181.06,175.983 
  1184.66,175.983 1188.2,175.983 1191.82,175.983 1195.32,175.983 1198.65,175.983 1202.13,175.983 1205.47,175.983 1208.78,175.983 1211.99,175.983 1215.23,175.983 
  1218.41,175.983 1221.74,175.983 1224.78,175.983 1227.73,175.983 1230.47,175.983 1233.1,175.983 1236.13,175.983 1239.12,175.983 1242,175.983 1244.88,175.983 
  1247.74,175.983 1250.49,175.983 1253.41,175.983 1256.08,175.983 1258.81,175.983 1261.46,175.983 1264.02,175.983 1266.58,175.983 1269.08,175.983 1271.56,175.983 
  1274.01,175.983 1276.44,175.983 1278.87,175.983 1281.24,175.983 1283.63,175.983 1287.17,175.983 1289.9,175.983 1292.34,175.983 1294.71,175.983 1296.99,175.983 
  1299.26,175.983 1308.49,697.101 1316.25,697.101 1322,697.101 1327.27,697.101 1333.1,697.101 1338.2,697.101 1343.63,920.837 1348.68,920.837 1354.38,941.959 
  1359.41,941.959 1364.09,941.959 1368.67,941.959 1373.2,941.959 1377.59,941.959 1382.04,941.959 1386.21,941.959 1390.31,962.66 1394.9,962.66 1399.16,962.66 
  1403.12,962.66 1407.42,962.66 1412.09,962.66 1417.47,962.66 1422.89,962.66 1428.21,962.66 1433.84,962.66 1439.3,967.218 1461.84,1206.43 1483.37,1214.01 
  1496.56,1214.01 1507.01,1214.01 1517.1,1214.01 1526.92,1214.01 1536.22,1214.01 1545.3,1214.01 1552.08,1214.01 1556.16,1214.01 1560.04,1214.01 1563.63,1214.01 
  1567.14,1214.01 2117.27,1214.01 2117.46,1214.01 2117.76,1214.01 2118.02,1214.01 2118.29,1214.01 2118.61,1214.01 2118.97,1214.01 2119.26,1214.01 2119.49,1214.01 
  2119.72,1214.01 2119.99,1214.01 2120.33,1214.01 2120.63,1214.01 2120.93,1214.01 2121.21,1214.01 2121.48,1214.01 2121.76,1214.01 2122.14,1214.01 2122.44,1214.01 
  2122.74,1214.01 2123.06,1214.01 2123.44,1214.01 2123.8,1214.01 2123.97,1214.01 2124.21,1214.01 2124.54,1214.01 2124.83,1214.01 2125.12,1214.01 2125.42,1214.01 
  2125.61,1214.01 2125.93,1214.01 2126.23,1214.01 2126.5,1214.01 2126.77,1214.01 2127.38,1263 2128,1263 2128.59,1263 2129.19,1263 2130,1263 
  2130.76,1263 2131.37,1263 2131.95,1263 2132.54,1263 2133.1,1263 2133.62,1263 2135.38,1373.93 2137.3,1374.46 2139.19,1374.46 2139.61,1374.46 
  2213.25,1374.46 2213.95,1374.46 2214.72,1374.46 2215.53,1374.46 2216.24,1374.46 2216.95,1374.46 2217.5,1374.46 2218.37,1374.46 2219.24,1374.46 2219.79,1374.46 
  2220.66,1374.46 2221.47,1374.46 2222.38,1374.46 2223.11,1374.46 2223.58,1374.46 2224.07,1374.46 2224.58,1374.46 2224.98,1374.46 2225.48,1374.46 2226.37,1374.46 
  2226.65,1374.46 2267.69,1374.46 2268.6,1374.46 2269,1374.46 2269.38,1374.46 2269.98,1374.46 2270.39,1374.46 2271.1,1374.46 2271.57,1374.46 2271.89,1374.46 
  2272.17,1374.46 2292.97,1374.46 2293.35,1374.46 2293.72,1374.46 2294.36,1374.46 2294.73,1374.46 
  "/>
<polyline clip-path="url(#clip782)" style="stroke:#c271d2; stroke-linecap:butt; stroke-linejoin:round; stroke-width:8; stroke-opacity:1; fill:none" points="
  360.486,175.983 477.185,175.983 552.974,175.983 613.243,175.983 660.758,175.983 702.099,175.983 735.551,175.983 764.732,175.983 791.675,175.983 814.903,175.983 
  836.118,175.983 866.05,175.983 885.294,175.983 901.076,175.983 916.055,175.983 931.009,175.983 944.513,175.983 956.449,175.983 968.139,175.983 979.959,175.983 
  989.896,175.983 999.639,175.983 1009.28,175.983 1018.29,175.983 1027.32,175.983 1035.61,175.983 1044.03,175.983 1052.09,175.983 1059.97,175.983 1067.36,175.983 
  1074.63,175.983 1081.98,175.983 1088.92,175.983 1095.55,175.983 1102.4,175.983 1108.87,175.983 1114.92,175.983 1120.87,175.983 1126.95,175.983 1132.88,175.983 
  1138.48,175.983 1143.83,175.983 1149.08,175.983 1154.42,175.983 1159.24,175.983 1166.52,175.983 1171.68,175.983 1176.59,175.983 1181.47,175.983 1185.98,175.983 
  1190.33,175.983 1194.76,175.983 1199.43,175.983 1203.62,175.983 1207.76,175.983 1212.04,175.983 1216.21,175.983 1220.12,175.983 1224.12,175.983 1228.1,175.983 
  1231.98,175.983 1236.44,175.983 1240.63,175.983 1244.63,175.983 1248.8,175.983 1252.52,175.983 1256.3,175.983 1262.91,175.983 1267.33,175.983 1270.97,175.983 
  1274.37,175.983 1277.76,175.983 1280.84,175.983 1284.06,175.983 1287.37,175.983 1290.67,175.983 1296.46,175.983 1300.08,175.983 1303.42,175.983 1306.21,175.983 
  1309.13,175.983 1316.08,697.101 1322.51,697.101 1328.65,697.101 1334.71,697.101 1340.68,697.101 1346.54,697.101 1353.47,920.837 1360.21,923.711 1366.88,962.66 
  1374.21,962.66 1380.78,962.66 1387.43,962.66 1393.49,962.66 1399.41,962.66 1405.23,967.218 1410.78,967.218 1416.26,967.218 1421.52,967.218 1426.55,967.218 
  1431.5,967.218 1437,969.943 1441.84,969.943 1447.33,969.943 1452,969.943 1456.68,969.943 1461.19,969.943 1465.89,969.943 1483.12,1206.97 1499.3,1206.97 
  1514.03,1206.97 1528.34,1206.97 1541.32,1206.97 1553.51,1206.97 1565.52,1206.97 1576.83,1214.01 1588.06,1214.01 1592.53,1214.01 1596.38,1214.01 1600.15,1214.01 
  1603.86,1214.01 1606.17,1214.01 1608.51,1214.01 1610.74,1214.01 1613.04,1214.01 1615.29,1214.01 1617.68,1214.01 1619.82,1214.01 1622.01,1214.01 1623.35,1214.01 
  1625.29,1214.01 1627.26,1214.01 1629.25,1214.01 1631.21,1214.01 1633.13,1214.01 1635.08,1214.01 1636.94,1214.01 1638.72,1214.01 1640.48,1214.01 1642.27,1214.01 
  1644.02,1214.01 1645.71,1214.01 1646.87,1214.01 1648.59,1214.01 1649.82,1214.01 1652.24,1214.01 1654.26,1214.01 1656.28,1214.01 1659.04,1214.01 1661.12,1214.01 
  1662.94,1214.01 1664.15,1214.01 1665.86,1214.01 1667.56,1214.01 1675.42,1214.01 1678.28,1214.01 1681.09,1214.01 1683.9,1214.01 1687.08,1214.01 1691.17,1214.01 
  1694.86,1214.01 1698.41,1214.01 1702.21,1214.01 1705.61,1214.01 1708.91,1214.01 1712.3,1214.01 1714.59,1214.01 1716.79,1214.01 1719.35,1214.01 1721.6,1214.01 
  1725.67,1272.88 1729.52,1272.88 1733.35,1281.84 1737.82,1281.84 1741.81,1281.84 1746.1,1281.84 1750.01,1282.06 1754.02,1292.55 1758.02,1292.55 1761.67,1292.55 
  1763.18,1292.55 1767.77,1292.55 1771.62,1292.55 1775.73,1292.55 1780.89,1292.55 1783.98,1298.03 1788.42,1298.03 1791.7,1298.03 1794.93,1298.03 1797.12,1298.03 
  1798.79,1298.03 1802.71,1298.03 1807.26,1298.03 1812.54,1298.03 1817.67,1298.03 1821.9,1298.03 1826.53,1298.03 1831.21,1335.43 1836.04,1335.43 1837.42,1335.43 
  1838.63,1335.43 1843.62,1335.43 1847.14,1335.43 1850.46,1335.43 1853.57,1335.43 1854.45,1335.43 
  "/>
<path clip-path="url(#clip780)" d="
M1809.08 425.586 L2284.41 425.586 L2284.41 166.386 L1809.08 166.386  Z
  " fill="#ffffff" fill-rule="evenodd" fill-opacity="1"/>
<polyline clip-path="url(#clip780)" style="stroke:#000000; stroke-linecap:butt; stroke-linejoin:round; stroke-width:4; stroke-opacity:1; fill:none" points="
  1809.08,425.586 2284.41,425.586 2284.41,166.386 1809.08,166.386 1809.08,425.586 
  "/>
<polyline clip-path="url(#clip780)" style="stroke:#009af9; stroke-linecap:butt; stroke-linejoin:round; stroke-width:4; stroke-opacity:1; fill:none" points="
  1831.86,218.226 1968.55,218.226 
  "/>
<path clip-path="url(#clip780)" d="M2006.51 213.562 Q2005.8 213.145 2004.94 212.96 Q2004.11 212.752 2003.09 212.752 Q1999.48 212.752 1997.53 215.113 Q1995.61 217.451 1995.61 221.849 L1995.61 235.506 L1991.33 235.506 L1991.33 209.58 L1995.61 209.58 L1995.61 213.608 Q1996.95 211.247 1999.11 210.113 Q2001.26 208.955 2004.34 208.955 Q2004.78 208.955 2005.31 209.025 Q2005.84 209.071 2006.49 209.187 L2006.51 213.562 Z" fill="#000000" fill-rule="evenodd" fill-opacity="1" /><path clip-path="url(#clip780)" d="M2022.76 222.474 Q2017.6 222.474 2015.61 223.654 Q2013.62 224.835 2013.62 227.682 Q2013.62 229.951 2015.1 231.293 Q2016.61 232.613 2019.18 232.613 Q2022.72 232.613 2024.85 230.113 Q2027 227.59 2027 223.423 L2027 222.474 L2022.76 222.474 M2031.26 220.715 L2031.26 235.506 L2027 235.506 L2027 231.571 Q2025.54 233.932 2023.37 235.066 Q2021.19 236.178 2018.04 236.178 Q2014.06 236.178 2011.7 233.955 Q2009.36 231.71 2009.36 227.96 Q2009.36 223.585 2012.28 221.363 Q2015.22 219.141 2021.03 219.141 L2027 219.141 L2027 218.724 Q2027 215.784 2025.06 214.187 Q2023.13 212.567 2019.64 212.567 Q2017.42 212.567 2015.31 213.099 Q2013.2 213.631 2011.26 214.696 L2011.26 210.761 Q2013.6 209.858 2015.8 209.418 Q2018 208.955 2020.08 208.955 Q2025.7 208.955 2028.48 211.872 Q2031.26 214.789 2031.26 220.715 Z" fill="#000000" fill-rule="evenodd" fill-opacity="1" /><path clip-path="url(#clip780)" d="M2061.58 219.858 L2061.58 235.506 L2057.32 235.506 L2057.32 219.997 Q2057.32 216.317 2055.89 214.488 Q2054.45 212.659 2051.58 212.659 Q2048.13 212.659 2046.14 214.858 Q2044.15 217.057 2044.15 220.854 L2044.15 235.506 L2039.87 235.506 L2039.87 209.58 L2044.15 209.58 L2044.15 213.608 Q2045.68 211.27 2047.74 210.113 Q2049.82 208.955 2052.53 208.955 Q2057 208.955 2059.29 211.733 Q2061.58 214.488 2061.58 219.858 Z" fill="#000000" fill-rule="evenodd" fill-opacity="1" /><path clip-path="url(#clip780)" d="M2087.14 213.516 L2087.14 199.488 L2091.4 199.488 L2091.4 235.506 L2087.14 235.506 L2087.14 231.617 Q2085.8 233.932 2083.74 235.066 Q2081.7 236.178 2078.83 236.178 Q2074.13 236.178 2071.17 232.428 Q2068.23 228.678 2068.23 222.567 Q2068.23 216.455 2071.17 212.705 Q2074.13 208.955 2078.83 208.955 Q2081.7 208.955 2083.74 210.09 Q2085.8 211.201 2087.14 213.516 M2072.62 222.567 Q2072.62 227.266 2074.55 229.951 Q2076.49 232.613 2079.87 232.613 Q2083.25 232.613 2085.19 229.951 Q2087.14 227.266 2087.14 222.567 Q2087.14 217.867 2085.19 215.205 Q2083.25 212.52 2079.87 212.52 Q2076.49 212.52 2074.55 215.205 Q2072.62 217.867 2072.62 222.567 Z" fill="#000000" fill-rule="evenodd" fill-opacity="1" /><path clip-path="url(#clip780)" d="M2110.22 212.567 Q2106.79 212.567 2104.8 215.252 Q2102.81 217.914 2102.81 222.567 Q2102.81 227.219 2104.78 229.904 Q2106.77 232.566 2110.22 232.566 Q2113.62 232.566 2115.61 229.881 Q2117.6 227.196 2117.6 222.567 Q2117.6 217.96 2115.61 215.275 Q2113.62 212.567 2110.22 212.567 M2110.22 208.955 Q2115.77 208.955 2118.94 212.567 Q2122.12 216.178 2122.12 222.567 Q2122.12 228.932 2118.94 232.566 Q2115.77 236.178 2110.22 236.178 Q2104.64 236.178 2101.47 232.566 Q2098.32 228.932 2098.32 222.567 Q2098.32 216.178 2101.47 212.567 Q2104.64 208.955 2110.22 208.955 Z" fill="#000000" fill-rule="evenodd" fill-opacity="1" /><path clip-path="url(#clip780)" d="M2149.36 214.557 Q2150.96 211.687 2153.18 210.321 Q2155.4 208.955 2158.41 208.955 Q2162.46 208.955 2164.66 211.803 Q2166.86 214.627 2166.86 219.858 L2166.86 235.506 L2162.58 235.506 L2162.58 219.997 Q2162.58 216.27 2161.26 214.465 Q2159.94 212.659 2157.23 212.659 Q2153.92 212.659 2152 214.858 Q2150.08 217.057 2150.08 220.854 L2150.08 235.506 L2145.8 235.506 L2145.8 219.997 Q2145.8 216.247 2144.48 214.465 Q2143.16 212.659 2140.4 212.659 Q2137.14 212.659 2135.22 214.881 Q2133.3 217.08 2133.3 220.854 L2133.3 235.506 L2129.01 235.506 L2129.01 209.58 L2133.3 209.58 L2133.3 213.608 Q2134.75 211.224 2136.79 210.09 Q2138.83 208.955 2141.63 208.955 Q2144.45 208.955 2146.42 210.391 Q2148.41 211.826 2149.36 214.557 Z" fill="#000000" fill-rule="evenodd" fill-opacity="1" /><polyline clip-path="url(#clip780)" style="stroke:#e26f46; stroke-linecap:butt; stroke-linejoin:round; stroke-width:4; stroke-opacity:1; fill:none" points="
  1831.86,270.066 1968.55,270.066 
  "/>
<path clip-path="url(#clip780)" d="M1991.33 252.786 L1996 252.786 L1996 283.411 L2012.83 283.411 L2012.83 287.346 L1991.33 287.346 L1991.33 252.786 Z" fill="#000000" fill-rule="evenodd" fill-opacity="1" /><path clip-path="url(#clip780)" d="M2017.74 252.786 L2022.42 252.786 L2022.42 266.953 L2039.41 266.953 L2039.41 252.786 L2044.08 252.786 L2044.08 287.346 L2039.41 287.346 L2039.41 270.888 L2022.42 270.888 L2022.42 287.346 L2017.74 287.346 L2017.74 252.786 Z" fill="#000000" fill-rule="evenodd" fill-opacity="1" /><polyline clip-path="url(#clip780)" style="stroke:#3da44d; stroke-linecap:butt; stroke-linejoin:round; stroke-width:4; stroke-opacity:1; fill:none" points="
  1831.86,321.906 1968.55,321.906 
  "/>
<path clip-path="url(#clip780)" d="M1996 322.682 L1996 335.344 L2003.5 335.344 Q2007.28 335.344 2009.08 333.793 Q2010.91 332.219 2010.91 329.001 Q2010.91 325.76 2009.08 324.233 Q2007.28 322.682 2003.5 322.682 L1996 322.682 M1996 308.469 L1996 318.885 L2002.93 318.885 Q2006.35 318.885 2008.02 317.612 Q2009.71 316.316 2009.71 313.677 Q2009.71 311.061 2008.02 309.765 Q2006.35 308.469 2002.93 308.469 L1996 308.469 M1991.33 304.626 L2003.27 304.626 Q2008.62 304.626 2011.51 306.848 Q2014.41 309.071 2014.41 313.168 Q2014.41 316.339 2012.93 318.214 Q2011.44 320.089 2008.57 320.552 Q2012.02 321.293 2013.92 323.654 Q2015.84 325.992 2015.84 329.51 Q2015.84 334.14 2012.69 336.663 Q2009.55 339.186 2003.74 339.186 L1991.33 339.186 L1991.33 304.626 Z" fill="#000000" fill-rule="evenodd" fill-opacity="1" /><path clip-path="url(#clip780)" d="M2037.05 307.798 Q2031.95 307.798 2028.94 311.594 Q2025.96 315.39 2025.96 321.941 Q2025.96 328.469 2028.94 332.265 Q2031.95 336.061 2037.05 336.061 Q2042.14 336.061 2045.1 332.265 Q2048.09 328.469 2048.09 321.941 Q2048.09 315.39 2045.1 311.594 Q2042.14 307.798 2037.05 307.798 M2037.05 304.001 Q2044.31 304.001 2048.67 308.886 Q2053.02 313.747 2053.02 321.941 Q2053.02 330.112 2048.67 334.996 Q2044.31 339.858 2037.05 339.858 Q2029.75 339.858 2025.38 334.996 Q2021.03 330.135 2021.03 321.941 Q2021.03 313.747 2025.38 308.886 Q2029.75 304.001 2037.05 304.001 Z" fill="#000000" fill-rule="evenodd" fill-opacity="1" /><path clip-path="url(#clip780)" d="M2060.33 304.626 L2065.01 304.626 L2065.01 318.793 L2082 318.793 L2082 304.626 L2086.68 304.626 L2086.68 339.186 L2082 339.186 L2082 322.728 L2065.01 322.728 L2065.01 339.186 L2060.33 339.186 L2060.33 304.626 Z" fill="#000000" fill-rule="evenodd" fill-opacity="1" /><path clip-path="url(#clip780)" d="M2100.66 322.682 L2100.66 335.344 L2108.16 335.344 Q2111.93 335.344 2113.74 333.793 Q2115.56 332.219 2115.56 329.001 Q2115.56 325.76 2113.74 324.233 Q2111.93 322.682 2108.16 322.682 L2100.66 322.682 M2100.66 308.469 L2100.66 318.885 L2107.58 318.885 Q2111 318.885 2112.67 317.612 Q2114.36 316.316 2114.36 313.677 Q2114.36 311.061 2112.67 309.765 Q2111 308.469 2107.58 308.469 L2100.66 308.469 M2095.98 304.626 L2107.93 304.626 Q2113.27 304.626 2116.17 306.848 Q2119.06 309.071 2119.06 313.168 Q2119.06 316.339 2117.58 318.214 Q2116.1 320.089 2113.23 320.552 Q2116.68 321.293 2118.57 323.654 Q2120.49 325.992 2120.49 329.51 Q2120.49 334.14 2117.35 336.663 Q2114.2 339.186 2108.39 339.186 L2095.98 339.186 L2095.98 304.626 Z" fill="#000000" fill-rule="evenodd" fill-opacity="1" /><polyline clip-path="url(#clip780)" style="stroke:#c271d2; stroke-linecap:butt; stroke-linejoin:round; stroke-width:4; stroke-opacity:1; fill:none" points="
  1831.86,373.746 1968.55,373.746 
  "/>
<path clip-path="url(#clip780)" d="M2013.04 375.378 L2013.04 391.026 L2008.78 391.026 L2008.78 375.517 Q2008.78 371.837 2007.35 370.008 Q2005.91 368.179 2003.04 368.179 Q1999.59 368.179 1997.6 370.378 Q1995.61 372.577 1995.61 376.374 L1995.61 391.026 L1991.33 391.026 L1991.33 355.008 L1995.61 355.008 L1995.61 369.128 Q1997.14 366.79 1999.2 365.633 Q2001.28 364.475 2003.99 364.475 Q2008.46 364.475 2010.75 367.253 Q2013.04 370.008 2013.04 375.378 Z" fill="#000000" fill-rule="evenodd" fill-opacity="1" /><path clip-path="url(#clip780)" d="M2032.32 393.434 Q2030.52 398.063 2028.81 399.475 Q2027.09 400.887 2024.22 400.887 L2020.82 400.887 L2020.82 397.323 L2023.32 397.323 Q2025.08 397.323 2026.05 396.489 Q2027.02 395.656 2028.2 392.554 L2028.97 390.61 L2018.48 365.1 L2023 365.1 L2031.1 385.378 L2039.2 365.1 L2043.71 365.1 L2032.32 393.434 Z" fill="#000000" fill-rule="evenodd" fill-opacity="1" /><path clip-path="url(#clip780)" d="M2053.71 387.137 L2053.71 400.887 L2049.43 400.887 L2049.43 365.1 L2053.71 365.1 L2053.71 369.036 Q2055.06 366.721 2057.09 365.61 Q2059.15 364.475 2062 364.475 Q2066.72 364.475 2069.66 368.225 Q2072.62 371.975 2072.62 378.087 Q2072.62 384.198 2069.66 387.948 Q2066.72 391.698 2062 391.698 Q2059.15 391.698 2057.09 390.586 Q2055.06 389.452 2053.71 387.137 M2068.2 378.087 Q2068.2 373.387 2066.26 370.725 Q2064.34 368.04 2060.96 368.04 Q2057.58 368.04 2055.63 370.725 Q2053.71 373.387 2053.71 378.087 Q2053.71 382.786 2055.63 385.471 Q2057.58 388.133 2060.96 388.133 Q2064.34 388.133 2066.26 385.471 Q2068.2 382.786 2068.2 378.087 Z" fill="#000000" fill-rule="evenodd" fill-opacity="1" /><path clip-path="url(#clip780)" d="M2101.86 376.999 L2101.86 379.082 L2082.28 379.082 Q2082.56 383.48 2084.92 385.795 Q2087.3 388.086 2091.54 388.086 Q2093.99 388.086 2096.28 387.485 Q2098.6 386.883 2100.87 385.679 L2100.87 389.707 Q2098.57 390.679 2096.17 391.188 Q2093.76 391.698 2091.28 391.698 Q2085.08 391.698 2081.44 388.086 Q2077.83 384.475 2077.83 378.318 Q2077.83 371.952 2081.26 368.225 Q2084.71 364.475 2090.54 364.475 Q2095.77 364.475 2098.8 367.855 Q2101.86 371.212 2101.86 376.999 M2097.6 375.749 Q2097.55 372.253 2095.63 370.17 Q2093.74 368.087 2090.59 368.087 Q2087.02 368.087 2084.87 370.1 Q2082.74 372.114 2082.42 375.772 L2097.6 375.749 Z" fill="#000000" fill-rule="evenodd" fill-opacity="1" /><path clip-path="url(#clip780)" d="M2123.87 369.082 Q2123.16 368.665 2122.3 368.48 Q2121.47 368.272 2120.45 368.272 Q2116.84 368.272 2114.89 370.633 Q2112.97 372.971 2112.97 377.369 L2112.97 391.026 L2108.69 391.026 L2108.69 365.1 L2112.97 365.1 L2112.97 369.128 Q2114.31 366.767 2116.47 365.633 Q2118.62 364.475 2121.7 364.475 Q2122.14 364.475 2122.67 364.545 Q2123.2 364.591 2123.85 364.707 L2123.87 369.082 Z" fill="#000000" fill-rule="evenodd" fill-opacity="1" /><path clip-path="url(#clip780)" d="M2146.95 378.087 Q2146.95 373.387 2145.01 370.725 Q2143.09 368.04 2139.71 368.04 Q2136.33 368.04 2134.38 370.725 Q2132.46 373.387 2132.46 378.087 Q2132.46 382.786 2134.38 385.471 Q2136.33 388.133 2139.71 388.133 Q2143.09 388.133 2145.01 385.471 Q2146.95 382.786 2146.95 378.087 M2132.46 369.036 Q2133.8 366.721 2135.84 365.61 Q2137.9 364.475 2140.75 364.475 Q2145.47 364.475 2148.41 368.225 Q2151.37 371.975 2151.37 378.087 Q2151.37 384.198 2148.41 387.948 Q2145.47 391.698 2140.75 391.698 Q2137.9 391.698 2135.84 390.586 Q2133.8 389.452 2132.46 387.137 L2132.46 391.026 L2128.18 391.026 L2128.18 355.008 L2132.46 355.008 L2132.46 369.036 Z" fill="#000000" fill-rule="evenodd" fill-opacity="1" /><path clip-path="url(#clip780)" d="M2170.22 377.994 Q2165.05 377.994 2163.06 379.174 Q2161.07 380.355 2161.07 383.202 Q2161.07 385.471 2162.55 386.813 Q2164.06 388.133 2166.63 388.133 Q2170.17 388.133 2172.3 385.633 Q2174.45 383.11 2174.45 378.943 L2174.45 377.994 L2170.22 377.994 M2178.71 376.235 L2178.71 391.026 L2174.45 391.026 L2174.45 387.091 Q2172.99 389.452 2170.82 390.586 Q2168.64 391.698 2165.49 391.698 Q2161.51 391.698 2159.15 389.475 Q2156.81 387.23 2156.81 383.48 Q2156.81 379.105 2159.73 376.883 Q2162.67 374.661 2168.48 374.661 L2174.45 374.661 L2174.45 374.244 Q2174.45 371.304 2172.51 369.707 Q2170.59 368.087 2167.09 368.087 Q2164.87 368.087 2162.76 368.619 Q2160.66 369.151 2158.71 370.216 L2158.71 366.281 Q2161.05 365.378 2163.25 364.938 Q2165.45 364.475 2167.53 364.475 Q2173.16 364.475 2175.93 367.392 Q2178.71 370.309 2178.71 376.235 Z" fill="#000000" fill-rule="evenodd" fill-opacity="1" /><path clip-path="url(#clip780)" d="M2209.04 375.378 L2209.04 391.026 L2204.78 391.026 L2204.78 375.517 Q2204.78 371.837 2203.34 370.008 Q2201.91 368.179 2199.04 368.179 Q2195.59 368.179 2193.6 370.378 Q2191.61 372.577 2191.61 376.374 L2191.61 391.026 L2187.32 391.026 L2187.32 365.1 L2191.61 365.1 L2191.61 369.128 Q2193.13 366.79 2195.19 365.633 Q2197.28 364.475 2199.98 364.475 Q2204.45 364.475 2206.74 367.253 Q2209.04 370.008 2209.04 375.378 Z" fill="#000000" fill-rule="evenodd" fill-opacity="1" /><path clip-path="url(#clip780)" d="M2234.59 369.036 L2234.59 355.008 L2238.85 355.008 L2238.85 391.026 L2234.59 391.026 L2234.59 387.137 Q2233.25 389.452 2231.19 390.586 Q2229.15 391.698 2226.28 391.698 Q2221.58 391.698 2218.62 387.948 Q2215.68 384.198 2215.68 378.087 Q2215.68 371.975 2218.62 368.225 Q2221.58 364.475 2226.28 364.475 Q2229.15 364.475 2231.19 365.61 Q2233.25 366.721 2234.59 369.036 M2220.08 378.087 Q2220.08 382.786 2222 385.471 Q2223.94 388.133 2227.32 388.133 Q2230.7 388.133 2232.65 385.471 Q2234.59 382.786 2234.59 378.087 Q2234.59 373.387 2232.65 370.725 Q2230.7 368.04 2227.32 368.04 Q2223.94 368.04 2222 370.725 Q2220.08 373.387 2220.08 378.087 Z" fill="#000000" fill-rule="evenodd" fill-opacity="1" /></svg>
