<?xml version="1.0" encoding="utf-8"?>
<svg xmlns="http://www.w3.org/2000/svg" xmlns:xlink="http://www.w3.org/1999/xlink" width="600" height="400" viewBox="0 0 2400 1600">
<defs>
  <clipPath id="clip720">
    <rect x="0" y="0" width="2400" height="1600"/>
  </clipPath>
</defs>
<path clip-path="url(#clip720)" d="
M0 1600 L2400 1600 L2400 0 L0 0  Z
  " fill="#ffffff" fill-rule="evenodd" fill-opacity="1"/>
<defs>
  <clipPath id="clip721">
    <rect x="480" y="0" width="1681" height="1600"/>
  </clipPath>
</defs>
<path clip-path="url(#clip720)" d="
M302.458 1410.9 L2352.76 1410.9 L2352.76 123.472 L302.458 123.472  Z
  " fill="#ffffff" fill-rule="evenodd" fill-opacity="1"/>
<defs>
  <clipPath id="clip722">
    <rect x="302" y="123" width="2051" height="1288"/>
  </clipPath>
</defs>
<polyline clip-path="url(#clip722)" style="stroke:#000000; stroke-linecap:butt; stroke-linejoin:round; stroke-width:2; stroke-opacity:0.1; fill:none" points="
  1229.52,1410.9 1229.52,123.472 
  "/>
<polyline clip-path="url(#clip722)" style="stroke:#000000; stroke-linecap:butt; stroke-linejoin:round; stroke-width:2; stroke-opacity:0.1; fill:none" points="
  2332.88,1410.9 2332.88,123.472 
  "/>
<polyline clip-path="url(#clip720)" style="stroke:#000000; stroke-linecap:butt; stroke-linejoin:round; stroke-width:4; stroke-opacity:1; fill:none" points="
  302.458,1410.9 2352.76,1410.9 
  "/>
<polyline clip-path="url(#clip720)" style="stroke:#000000; stroke-linecap:butt; stroke-linejoin:round; stroke-width:4; stroke-opacity:1; fill:none" points="
  1229.52,1410.9 1229.52,1395.45 
  "/>
<polyline clip-path="url(#clip720)" style="stroke:#000000; stroke-linecap:butt; stroke-linejoin:round; stroke-width:4; stroke-opacity:1; fill:none" points="
  2332.88,1410.9 2332.88,1395.45 
  "/>
<path clip-path="url(#clip720)" d="M1194.5 1489.17 L1202.14 1489.17 L1202.14 1462.8 L1193.83 1464.47 L1193.83 1460.21 L1202.09 1458.54 L1206.77 1458.54 L1206.77 1489.17 L1214.41 1489.17 L1214.41 1493.1 L1194.5 1493.1 L1194.5 1489.17 Z" fill="#000000" fill-rule="evenodd" fill-opacity="1" /><path clip-path="url(#clip720)" d="M1233.85 1461.62 Q1230.24 1461.62 1228.41 1465.19 Q1226.61 1468.73 1226.61 1475.86 Q1226.61 1482.97 1228.41 1486.53 Q1230.24 1490.07 1233.85 1490.07 Q1237.49 1490.07 1239.29 1486.53 Q1241.12 1482.97 1241.12 1475.86 Q1241.12 1468.73 1239.29 1465.19 Q1237.49 1461.62 1233.85 1461.62 M1233.85 1457.92 Q1239.66 1457.92 1242.72 1462.53 Q1245.8 1467.11 1245.8 1475.86 Q1245.8 1484.59 1242.72 1489.19 Q1239.66 1493.78 1233.85 1493.78 Q1228.04 1493.78 1224.96 1489.19 Q1221.91 1484.59 1221.91 1475.86 Q1221.91 1467.11 1224.96 1462.53 Q1228.04 1457.92 1233.85 1457.92 Z" fill="#000000" fill-rule="evenodd" fill-opacity="1" /><path clip-path="url(#clip720)" d="M1255.5 1440.11 Q1252.57 1440.11 1251.08 1443.01 Q1249.62 1445.89 1249.62 1451.68 Q1249.62 1457.46 1251.08 1460.35 Q1252.57 1463.23 1255.5 1463.23 Q1258.46 1463.23 1259.92 1460.35 Q1261.41 1457.46 1261.41 1451.68 Q1261.41 1445.89 1259.92 1443.01 Q1258.46 1440.11 1255.5 1440.11 M1255.5 1437.11 Q1260.22 1437.11 1262.71 1440.85 Q1265.21 1444.57 1265.21 1451.68 Q1265.21 1458.77 1262.71 1462.51 Q1260.22 1466.24 1255.5 1466.24 Q1250.78 1466.24 1248.28 1462.51 Q1245.8 1458.77 1245.8 1451.68 Q1245.8 1444.57 1248.28 1440.85 Q1250.78 1437.11 1255.5 1437.11 Z" fill="#000000" fill-rule="evenodd" fill-opacity="1" /><path clip-path="url(#clip720)" d="M2298.65 1489.17 L2306.29 1489.17 L2306.29 1462.8 L2297.98 1464.47 L2297.98 1460.21 L2306.24 1458.54 L2310.92 1458.54 L2310.92 1489.17 L2318.56 1489.17 L2318.56 1493.1 L2298.65 1493.1 L2298.65 1489.17 Z" fill="#000000" fill-rule="evenodd" fill-opacity="1" /><path clip-path="url(#clip720)" d="M2338 1461.62 Q2334.39 1461.62 2332.56 1465.19 Q2330.76 1468.73 2330.76 1475.86 Q2330.76 1482.97 2332.56 1486.53 Q2334.39 1490.07 2338 1490.07 Q2341.64 1490.07 2343.44 1486.53 Q2345.27 1482.97 2345.27 1475.86 Q2345.27 1468.73 2343.44 1465.19 Q2341.64 1461.62 2338 1461.62 M2338 1457.92 Q2343.81 1457.92 2346.87 1462.53 Q2349.95 1467.11 2349.95 1475.86 Q2349.95 1484.59 2346.87 1489.19 Q2343.81 1493.78 2338 1493.78 Q2332.19 1493.78 2329.12 1489.19 Q2326.06 1484.59 2326.06 1475.86 Q2326.06 1467.11 2329.12 1462.53 Q2332.19 1457.92 2338 1457.92 Z" fill="#000000" fill-rule="evenodd" fill-opacity="1" /><path clip-path="url(#clip720)" d="M2354.52 1462.5 L2367.78 1462.5 L2367.78 1465.69 L2349.95 1465.69 L2349.95 1462.5 Q2352.11 1460.26 2355.84 1456.5 Q2359.58 1452.72 2360.54 1451.63 Q2362.36 1449.58 2363.08 1448.16 Q2363.81 1446.74 2363.81 1445.36 Q2363.81 1443.12 2362.23 1441.71 Q2360.67 1440.3 2358.15 1440.3 Q2356.36 1440.3 2354.37 1440.92 Q2352.39 1441.54 2350.14 1442.8 L2350.14 1438.97 Q2352.43 1438.05 2354.42 1437.58 Q2356.42 1437.11 2358.07 1437.11 Q2362.44 1437.11 2365.03 1439.29 Q2367.63 1441.47 2367.63 1445.12 Q2367.63 1446.85 2366.97 1448.41 Q2366.33 1449.95 2364.62 1452.06 Q2364.15 1452.6 2361.63 1455.22 Q2359.11 1457.81 2354.52 1462.5 Z" fill="#000000" fill-rule="evenodd" fill-opacity="1" /><path clip-path="url(#clip720)" d="M1130.14 1528.42 L1130.14 1538.54 L1142.21 1538.54 L1142.21 1543.09 L1130.14 1543.09 L1130.14 1562.44 Q1130.14 1566.8 1131.32 1568.04 Q1132.53 1569.28 1136.19 1569.28 L1142.21 1569.28 L1142.21 1574.19 L1136.19 1574.19 Q1129.41 1574.19 1126.83 1571.67 Q1124.25 1569.12 1124.25 1562.44 L1124.25 1543.09 L1119.96 1543.09 L1119.96 1538.54 L1124.25 1538.54 L1124.25 1528.42 L1130.14 1528.42 Z" fill="#000000" fill-rule="evenodd" fill-opacity="1" /><path clip-path="url(#clip720)" d="M1149.91 1538.54 L1155.76 1538.54 L1155.76 1574.19 L1149.91 1574.19 L1149.91 1538.54 M1149.91 1524.66 L1155.76 1524.66 L1155.76 1532.08 L1149.91 1532.08 L1149.91 1524.66 Z" fill="#000000" fill-rule="evenodd" fill-opacity="1" /><path clip-path="url(#clip720)" d="M1195.77 1545.38 Q1197.97 1541.43 1201.03 1539.56 Q1204.08 1537.68 1208.22 1537.68 Q1213.79 1537.68 1216.81 1541.59 Q1219.84 1545.48 1219.84 1552.67 L1219.84 1574.19 L1213.95 1574.19 L1213.95 1552.86 Q1213.95 1547.74 1212.13 1545.25 Q1210.32 1542.77 1206.6 1542.77 Q1202.04 1542.77 1199.4 1545.79 Q1196.76 1548.82 1196.76 1554.04 L1196.76 1574.19 L1190.87 1574.19 L1190.87 1552.86 Q1190.87 1547.7 1189.06 1545.25 Q1187.24 1542.77 1183.46 1542.77 Q1178.97 1542.77 1176.33 1545.83 Q1173.68 1548.85 1173.68 1554.04 L1173.68 1574.19 L1167.8 1574.19 L1167.8 1538.54 L1173.68 1538.54 L1173.68 1544.08 Q1175.69 1540.8 1178.49 1539.24 Q1181.29 1537.68 1185.14 1537.68 Q1189.03 1537.68 1191.73 1539.65 Q1194.47 1541.62 1195.77 1545.38 Z" fill="#000000" fill-rule="evenodd" fill-opacity="1" /><path clip-path="url(#clip720)" d="M1262.01 1554.9 L1262.01 1557.76 L1235.08 1557.76 Q1235.46 1563.81 1238.71 1566.99 Q1241.99 1570.14 1247.81 1570.14 Q1251.19 1570.14 1254.34 1569.32 Q1257.52 1568.49 1260.64 1566.83 L1260.64 1572.37 Q1257.49 1573.71 1254.18 1574.41 Q1250.87 1575.11 1247.46 1575.11 Q1238.93 1575.11 1233.94 1570.14 Q1228.97 1565.18 1228.97 1556.71 Q1228.97 1547.96 1233.68 1542.83 Q1238.42 1537.68 1246.44 1537.68 Q1253.64 1537.68 1257.81 1542.33 Q1262.01 1546.94 1262.01 1554.9 M1256.15 1553.18 Q1256.09 1548.37 1253.45 1545.51 Q1250.84 1542.64 1246.51 1542.64 Q1241.61 1542.64 1238.65 1545.41 Q1235.72 1548.18 1235.27 1553.21 L1256.15 1553.18 Z" fill="#000000" fill-rule="evenodd" fill-opacity="1" /><path clip-path="url(#clip720)" d="M1322.83 1554.9 L1322.83 1557.76 L1295.91 1557.76 Q1296.29 1563.81 1299.53 1566.99 Q1302.81 1570.14 1308.64 1570.14 Q1312.01 1570.14 1315.16 1569.32 Q1318.35 1568.49 1321.46 1566.83 L1321.46 1572.37 Q1318.31 1573.71 1315 1574.41 Q1311.69 1575.11 1308.29 1575.11 Q1299.76 1575.11 1294.76 1570.14 Q1289.79 1565.18 1289.79 1556.71 Q1289.79 1547.96 1294.51 1542.83 Q1299.25 1537.68 1307.27 1537.68 Q1314.46 1537.68 1318.63 1542.33 Q1322.83 1546.94 1322.83 1554.9 M1316.98 1553.18 Q1316.91 1548.37 1314.27 1545.51 Q1311.66 1542.64 1307.33 1542.64 Q1302.43 1542.64 1299.47 1545.41 Q1296.54 1548.18 1296.1 1553.21 L1316.98 1553.18 Z" fill="#000000" fill-rule="evenodd" fill-opacity="1" /><path clip-path="url(#clip720)" d="M1332.45 1524.66 L1338.3 1524.66 L1338.3 1574.19 L1332.45 1574.19 L1332.45 1524.66 Z" fill="#000000" fill-rule="evenodd" fill-opacity="1" /><path clip-path="url(#clip720)" d="M1366.76 1556.27 Q1359.66 1556.27 1356.92 1557.89 Q1354.18 1559.51 1354.18 1563.43 Q1354.18 1566.55 1356.22 1568.39 Q1358.29 1570.21 1361.82 1570.21 Q1366.69 1570.21 1369.62 1566.77 Q1372.58 1563.3 1372.58 1557.57 L1372.58 1556.27 L1366.76 1556.27 M1378.44 1553.85 L1378.44 1574.19 L1372.58 1574.19 L1372.58 1568.77 Q1370.58 1572.02 1367.58 1573.58 Q1364.59 1575.11 1360.26 1575.11 Q1354.79 1575.11 1351.54 1572.05 Q1348.33 1568.97 1348.33 1563.81 Q1348.33 1557.79 1352.34 1554.74 Q1356.38 1551.68 1364.37 1551.68 L1372.58 1551.68 L1372.58 1551.11 Q1372.58 1547.07 1369.91 1544.87 Q1367.27 1542.64 1362.46 1542.64 Q1359.4 1542.64 1356.51 1543.38 Q1353.61 1544.11 1350.94 1545.57 L1350.94 1540.16 Q1354.15 1538.92 1357.18 1538.31 Q1360.2 1537.68 1363.06 1537.68 Q1370.8 1537.68 1374.62 1541.69 Q1378.44 1545.7 1378.44 1553.85 Z" fill="#000000" fill-rule="evenodd" fill-opacity="1" /><path clip-path="url(#clip720)" d="M1396.17 1568.84 L1396.17 1587.74 L1390.28 1587.74 L1390.28 1538.54 L1396.17 1538.54 L1396.17 1543.95 Q1398.01 1540.77 1400.81 1539.24 Q1403.65 1537.68 1407.56 1537.68 Q1414.05 1537.68 1418.1 1542.83 Q1422.17 1547.99 1422.17 1556.39 Q1422.17 1564.8 1418.1 1569.95 Q1414.05 1575.11 1407.56 1575.11 Q1403.65 1575.11 1400.81 1573.58 Q1398.01 1572.02 1396.17 1568.84 M1416.09 1556.39 Q1416.09 1549.93 1413.42 1546.27 Q1410.78 1542.58 1406.13 1542.58 Q1401.48 1542.58 1398.81 1546.27 Q1396.17 1549.93 1396.17 1556.39 Q1396.17 1562.85 1398.81 1566.55 Q1401.48 1570.21 1406.13 1570.21 Q1410.78 1570.21 1413.42 1566.55 Q1416.09 1562.85 1416.09 1556.39 Z" fill="#000000" fill-rule="evenodd" fill-opacity="1" /><path clip-path="url(#clip720)" d="M1454.6 1539.59 L1454.6 1545.13 Q1452.12 1543.85 1449.45 1543.22 Q1446.77 1542.58 1443.91 1542.58 Q1439.55 1542.58 1437.35 1543.92 Q1435.19 1545.25 1435.19 1547.93 Q1435.19 1549.96 1436.75 1551.14 Q1438.31 1552.29 1443.02 1553.34 L1445.02 1553.78 Q1451.26 1555.12 1453.87 1557.57 Q1456.51 1559.99 1456.51 1564.35 Q1456.51 1569.32 1452.57 1572.21 Q1448.65 1575.11 1441.78 1575.11 Q1438.91 1575.11 1435.79 1574.54 Q1432.7 1573.99 1429.27 1572.88 L1429.27 1566.83 Q1432.51 1568.52 1435.67 1569.38 Q1438.82 1570.21 1441.9 1570.21 Q1446.04 1570.21 1448.27 1568.81 Q1450.5 1567.37 1450.5 1564.8 Q1450.5 1562.41 1448.87 1561.14 Q1447.28 1559.86 1441.84 1558.68 L1439.8 1558.21 Q1434.36 1557.06 1431.94 1554.71 Q1429.52 1552.32 1429.52 1548.18 Q1429.52 1543.15 1433.09 1540.42 Q1436.65 1537.68 1443.21 1537.68 Q1446.45 1537.68 1449.32 1538.16 Q1452.18 1538.63 1454.6 1539.59 Z" fill="#000000" fill-rule="evenodd" fill-opacity="1" /><path clip-path="url(#clip720)" d="M1496.33 1554.9 L1496.33 1557.76 L1469.4 1557.76 Q1469.79 1563.81 1473.03 1566.99 Q1476.31 1570.14 1482.13 1570.14 Q1485.51 1570.14 1488.66 1569.32 Q1491.84 1568.49 1494.96 1566.83 L1494.96 1572.37 Q1491.81 1573.71 1488.5 1574.41 Q1485.19 1575.11 1481.78 1575.11 Q1473.25 1575.11 1468.26 1570.14 Q1463.29 1565.18 1463.29 1556.71 Q1463.29 1547.96 1468 1542.83 Q1472.75 1537.68 1480.77 1537.68 Q1487.96 1537.68 1492.13 1542.33 Q1496.33 1546.94 1496.33 1554.9 M1490.47 1553.18 Q1490.41 1548.37 1487.77 1545.51 Q1485.16 1542.64 1480.83 1542.64 Q1475.93 1542.64 1472.97 1545.41 Q1470.04 1548.18 1469.59 1553.21 L1490.47 1553.18 Z" fill="#000000" fill-rule="evenodd" fill-opacity="1" /><path clip-path="url(#clip720)" d="M1529.4 1543.95 L1529.4 1524.66 L1535.26 1524.66 L1535.26 1574.19 L1529.4 1574.19 L1529.4 1568.84 Q1527.55 1572.02 1524.72 1573.58 Q1521.92 1575.11 1517.97 1575.11 Q1511.51 1575.11 1507.44 1569.95 Q1503.4 1564.8 1503.4 1556.39 Q1503.4 1547.99 1507.44 1542.83 Q1511.51 1537.68 1517.97 1537.68 Q1521.92 1537.68 1524.72 1539.24 Q1527.55 1540.77 1529.4 1543.95 M1509.44 1556.39 Q1509.44 1562.85 1512.09 1566.55 Q1514.76 1570.21 1519.41 1570.21 Q1524.05 1570.21 1526.73 1566.55 Q1529.4 1562.85 1529.4 1556.39 Q1529.4 1549.93 1526.73 1546.27 Q1524.05 1542.58 1519.41 1542.58 Q1514.76 1542.58 1512.09 1546.27 Q1509.44 1549.93 1509.44 1556.39 Z" fill="#000000" fill-rule="evenodd" fill-opacity="1" /><polyline clip-path="url(#clip722)" style="stroke:#000000; stroke-linecap:butt; stroke-linejoin:round; stroke-width:2; stroke-opacity:0.1; fill:none" points="
  302.458,1374.46 2352.76,1374.46 
  "/>
<polyline clip-path="url(#clip722)" style="stroke:#000000; stroke-linecap:butt; stroke-linejoin:round; stroke-width:2; stroke-opacity:0.1; fill:none" points="
  302.458,1106.08 2352.76,1106.08 
  "/>
<polyline clip-path="url(#clip722)" style="stroke:#000000; stroke-linecap:butt; stroke-linejoin:round; stroke-width:2; stroke-opacity:0.1; fill:none" points="
  302.458,837.71 2352.76,837.71 
  "/>
<polyline clip-path="url(#clip722)" style="stroke:#000000; stroke-linecap:butt; stroke-linejoin:round; stroke-width:2; stroke-opacity:0.1; fill:none" points="
  302.458,569.334 2352.76,569.334 
  "/>
<polyline clip-path="url(#clip722)" style="stroke:#000000; stroke-linecap:butt; stroke-linejoin:round; stroke-width:2; stroke-opacity:0.1; fill:none" points="
  302.458,300.959 2352.76,300.959 
  "/>
<polyline clip-path="url(#clip720)" style="stroke:#000000; stroke-linecap:butt; stroke-linejoin:round; stroke-width:4; stroke-opacity:1; fill:none" points="
  302.458,1410.9 302.458,123.472 
  "/>
<polyline clip-path="url(#clip720)" style="stroke:#000000; stroke-linecap:butt; stroke-linejoin:round; stroke-width:4; stroke-opacity:1; fill:none" points="
  302.458,1374.46 327.062,1374.46 
  "/>
<polyline clip-path="url(#clip720)" style="stroke:#000000; stroke-linecap:butt; stroke-linejoin:round; stroke-width:4; stroke-opacity:1; fill:none" points="
  302.458,1106.08 327.062,1106.08 
  "/>
<polyline clip-path="url(#clip720)" style="stroke:#000000; stroke-linecap:butt; stroke-linejoin:round; stroke-width:4; stroke-opacity:1; fill:none" points="
  302.458,837.71 327.062,837.71 
  "/>
<polyline clip-path="url(#clip720)" style="stroke:#000000; stroke-linecap:butt; stroke-linejoin:round; stroke-width:4; stroke-opacity:1; fill:none" points="
  302.458,569.334 327.062,569.334 
  "/>
<polyline clip-path="url(#clip720)" style="stroke:#000000; stroke-linecap:butt; stroke-linejoin:round; stroke-width:4; stroke-opacity:1; fill:none" points="
  302.458,300.959 327.062,300.959 
  "/>
<path clip-path="url(#clip720)" d="M114.26 1374.91 L143.936 1374.91 L143.936 1378.85 L114.26 1378.85 L114.26 1374.91 Z" fill="#000000" fill-rule="evenodd" fill-opacity="1" /><path clip-path="url(#clip720)" d="M158.056 1387.8 L174.376 1387.8 L174.376 1391.74 L152.431 1391.74 L152.431 1387.8 Q155.093 1385.05 159.677 1380.42 Q164.283 1375.77 165.464 1374.43 Q167.709 1371.9 168.589 1370.17 Q169.491 1368.41 169.491 1366.72 Q169.491 1363.96 167.547 1362.23 Q165.626 1360.49 162.524 1360.49 Q160.325 1360.49 157.871 1361.25 Q155.44 1362.02 152.663 1363.57 L152.663 1358.85 Q155.487 1357.71 157.94 1357.13 Q160.394 1356.56 162.431 1356.56 Q167.802 1356.56 170.996 1359.24 Q174.19 1361.93 174.19 1366.42 Q174.19 1368.55 173.38 1370.47 Q172.593 1372.37 170.487 1374.96 Q169.908 1375.63 166.806 1378.85 Q163.704 1382.04 158.056 1387.8 Z" fill="#000000" fill-rule="evenodd" fill-opacity="1" /><path clip-path="url(#clip720)" d="M184.237 1357.18 L202.593 1357.18 L202.593 1361.12 L188.519 1361.12 L188.519 1369.59 Q189.538 1369.24 190.556 1369.08 Q191.575 1368.89 192.593 1368.89 Q198.38 1368.89 201.76 1372.06 Q205.139 1375.24 205.139 1380.65 Q205.139 1386.23 201.667 1389.33 Q198.195 1392.41 191.875 1392.41 Q189.7 1392.41 187.431 1392.04 Q185.186 1391.67 182.778 1390.93 L182.778 1386.23 Q184.862 1387.37 187.084 1387.92 Q189.306 1388.48 191.783 1388.48 Q195.787 1388.48 198.125 1386.37 Q200.463 1384.26 200.463 1380.65 Q200.463 1377.04 198.125 1374.93 Q195.787 1372.83 191.783 1372.83 Q189.908 1372.83 188.033 1373.24 Q186.181 1373.66 184.237 1374.54 L184.237 1357.18 Z" fill="#000000" fill-rule="evenodd" fill-opacity="1" /><path clip-path="url(#clip720)" d="M224.352 1360.26 Q220.741 1360.26 218.912 1363.82 Q217.107 1367.37 217.107 1374.49 Q217.107 1381.6 218.912 1385.17 Q220.741 1388.71 224.352 1388.71 Q227.986 1388.71 229.792 1385.17 Q231.621 1381.6 231.621 1374.49 Q231.621 1367.37 229.792 1363.82 Q227.986 1360.26 224.352 1360.26 M224.352 1356.56 Q230.162 1356.56 233.218 1361.16 Q236.297 1365.74 236.297 1374.49 Q236.297 1383.22 233.218 1387.83 Q230.162 1392.41 224.352 1392.41 Q218.542 1392.41 215.463 1387.83 Q212.408 1383.22 212.408 1374.49 Q212.408 1365.74 215.463 1361.16 Q218.542 1356.56 224.352 1356.56 Z" fill="#000000" fill-rule="evenodd" fill-opacity="1" /><path clip-path="url(#clip720)" d="M254.514 1360.26 Q250.903 1360.26 249.074 1363.82 Q247.269 1367.37 247.269 1374.49 Q247.269 1381.6 249.074 1385.17 Q250.903 1388.71 254.514 1388.71 Q258.148 1388.71 259.954 1385.17 Q261.783 1381.6 261.783 1374.49 Q261.783 1367.37 259.954 1363.82 Q258.148 1360.26 254.514 1360.26 M254.514 1356.56 Q260.324 1356.56 263.38 1361.16 Q266.458 1365.74 266.458 1374.49 Q266.458 1383.22 263.38 1387.83 Q260.324 1392.41 254.514 1392.41 Q248.704 1392.41 245.625 1387.83 Q242.57 1383.22 242.57 1374.49 Q242.57 1365.74 245.625 1361.16 Q248.704 1356.56 254.514 1356.56 Z" fill="#000000" fill-rule="evenodd" fill-opacity="1" /><path clip-path="url(#clip720)" d="M114.26 1106.54 L143.936 1106.54 L143.936 1110.47 L114.26 1110.47 L114.26 1106.54 Z" fill="#000000" fill-rule="evenodd" fill-opacity="1" /><path clip-path="url(#clip720)" d="M158.056 1119.43 L174.376 1119.43 L174.376 1123.36 L152.431 1123.36 L152.431 1119.43 Q155.093 1116.68 159.677 1112.05 Q164.283 1107.39 165.464 1106.05 Q167.709 1103.53 168.589 1101.79 Q169.491 1100.03 169.491 1098.34 Q169.491 1095.59 167.547 1093.85 Q165.626 1092.12 162.524 1092.12 Q160.325 1092.12 157.871 1092.88 Q155.44 1093.64 152.663 1095.19 L152.663 1090.47 Q155.487 1089.34 157.94 1088.76 Q160.394 1088.18 162.431 1088.18 Q167.802 1088.18 170.996 1090.87 Q174.19 1093.55 174.19 1098.04 Q174.19 1100.17 173.38 1102.09 Q172.593 1103.99 170.487 1106.58 Q169.908 1107.25 166.806 1110.47 Q163.704 1113.67 158.056 1119.43 Z" fill="#000000" fill-rule="evenodd" fill-opacity="1" /><path clip-path="url(#clip720)" d="M194.19 1091.88 Q190.579 1091.88 188.75 1095.45 Q186.945 1098.99 186.945 1106.12 Q186.945 1113.23 188.75 1116.79 Q190.579 1120.33 194.19 1120.33 Q197.825 1120.33 199.63 1116.79 Q201.459 1113.23 201.459 1106.12 Q201.459 1098.99 199.63 1095.45 Q197.825 1091.88 194.19 1091.88 M194.19 1088.18 Q200 1088.18 203.056 1092.79 Q206.135 1097.37 206.135 1106.12 Q206.135 1114.85 203.056 1119.45 Q200 1124.04 194.19 1124.04 Q188.38 1124.04 185.301 1119.45 Q182.246 1114.85 182.246 1106.12 Q182.246 1097.37 185.301 1092.79 Q188.38 1088.18 194.19 1088.18 Z" fill="#000000" fill-rule="evenodd" fill-opacity="1" /><path clip-path="url(#clip720)" d="M224.352 1091.88 Q220.741 1091.88 218.912 1095.45 Q217.107 1098.99 217.107 1106.12 Q217.107 1113.23 218.912 1116.79 Q220.741 1120.33 224.352 1120.33 Q227.986 1120.33 229.792 1116.79 Q231.621 1113.23 231.621 1106.12 Q231.621 1098.99 229.792 1095.45 Q227.986 1091.88 224.352 1091.88 M224.352 1088.18 Q230.162 1088.18 233.218 1092.79 Q236.297 1097.37 236.297 1106.12 Q236.297 1114.85 233.218 1119.45 Q230.162 1124.04 224.352 1124.04 Q218.542 1124.04 215.463 1119.45 Q212.408 1114.85 212.408 1106.12 Q212.408 1097.37 215.463 1092.79 Q218.542 1088.18 224.352 1088.18 Z" fill="#000000" fill-rule="evenodd" fill-opacity="1" /><path clip-path="url(#clip720)" d="M254.514 1091.88 Q250.903 1091.88 249.074 1095.45 Q247.269 1098.99 247.269 1106.12 Q247.269 1113.23 249.074 1116.79 Q250.903 1120.33 254.514 1120.33 Q258.148 1120.33 259.954 1116.79 Q261.783 1113.23 261.783 1106.12 Q261.783 1098.99 259.954 1095.45 Q258.148 1091.88 254.514 1091.88 M254.514 1088.18 Q260.324 1088.18 263.38 1092.79 Q266.458 1097.37 266.458 1106.12 Q266.458 1114.85 263.38 1119.45 Q260.324 1124.04 254.514 1124.04 Q248.704 1124.04 245.625 1119.45 Q242.57 1114.85 242.57 1106.12 Q242.57 1097.37 245.625 1092.79 Q248.704 1088.18 254.514 1088.18 Z" fill="#000000" fill-rule="evenodd" fill-opacity="1" /><path clip-path="url(#clip720)" d="M114.26 838.161 L143.936 838.161 L143.936 842.096 L114.26 842.096 L114.26 838.161 Z" fill="#000000" fill-rule="evenodd" fill-opacity="1" /><path clip-path="url(#clip720)" d="M154.839 851.055 L162.477 851.055 L162.477 824.689 L154.167 826.356 L154.167 822.096 L162.431 820.43 L167.107 820.43 L167.107 851.055 L174.746 851.055 L174.746 854.99 L154.839 854.99 L154.839 851.055 Z" fill="#000000" fill-rule="evenodd" fill-opacity="1" /><path clip-path="url(#clip720)" d="M184.237 820.43 L202.593 820.43 L202.593 824.365 L188.519 824.365 L188.519 832.837 Q189.538 832.49 190.556 832.328 Q191.575 832.143 192.593 832.143 Q198.38 832.143 201.76 835.314 Q205.139 838.485 205.139 843.902 Q205.139 849.48 201.667 852.582 Q198.195 855.661 191.875 855.661 Q189.7 855.661 187.431 855.291 Q185.186 854.92 182.778 854.18 L182.778 849.48 Q184.862 850.615 187.084 851.17 Q189.306 851.726 191.783 851.726 Q195.787 851.726 198.125 849.619 Q200.463 847.513 200.463 843.902 Q200.463 840.291 198.125 838.184 Q195.787 836.078 191.783 836.078 Q189.908 836.078 188.033 836.494 Q186.181 836.911 184.237 837.791 L184.237 820.43 Z" fill="#000000" fill-rule="evenodd" fill-opacity="1" /><path clip-path="url(#clip720)" d="M224.352 823.508 Q220.741 823.508 218.912 827.073 Q217.107 830.615 217.107 837.744 Q217.107 844.851 218.912 848.416 Q220.741 851.957 224.352 851.957 Q227.986 851.957 229.792 848.416 Q231.621 844.851 231.621 837.744 Q231.621 830.615 229.792 827.073 Q227.986 823.508 224.352 823.508 M224.352 819.805 Q230.162 819.805 233.218 824.411 Q236.297 828.994 236.297 837.744 Q236.297 846.471 233.218 851.078 Q230.162 855.661 224.352 855.661 Q218.542 855.661 215.463 851.078 Q212.408 846.471 212.408 837.744 Q212.408 828.994 215.463 824.411 Q218.542 819.805 224.352 819.805 Z" fill="#000000" fill-rule="evenodd" fill-opacity="1" /><path clip-path="url(#clip720)" d="M254.514 823.508 Q250.903 823.508 249.074 827.073 Q247.269 830.615 247.269 837.744 Q247.269 844.851 249.074 848.416 Q250.903 851.957 254.514 851.957 Q258.148 851.957 259.954 848.416 Q261.783 844.851 261.783 837.744 Q261.783 830.615 259.954 827.073 Q258.148 823.508 254.514 823.508 M254.514 819.805 Q260.324 819.805 263.38 824.411 Q266.458 828.994 266.458 837.744 Q266.458 846.471 263.38 851.078 Q260.324 855.661 254.514 855.661 Q248.704 855.661 245.625 851.078 Q242.57 846.471 242.57 837.744 Q242.57 828.994 245.625 824.411 Q248.704 819.805 254.514 819.805 Z" fill="#000000" fill-rule="evenodd" fill-opacity="1" /><path clip-path="url(#clip720)" d="M114.26 569.786 L143.936 569.786 L143.936 573.721 L114.26 573.721 L114.26 569.786 Z" fill="#000000" fill-rule="evenodd" fill-opacity="1" /><path clip-path="url(#clip720)" d="M154.839 582.679 L162.477 582.679 L162.477 556.314 L154.167 557.98 L154.167 553.721 L162.431 552.054 L167.107 552.054 L167.107 582.679 L174.746 582.679 L174.746 586.614 L154.839 586.614 L154.839 582.679 Z" fill="#000000" fill-rule="evenodd" fill-opacity="1" /><path clip-path="url(#clip720)" d="M194.19 555.133 Q190.579 555.133 188.75 558.698 Q186.945 562.24 186.945 569.369 Q186.945 576.476 188.75 580.04 Q190.579 583.582 194.19 583.582 Q197.825 583.582 199.63 580.04 Q201.459 576.476 201.459 569.369 Q201.459 562.24 199.63 558.698 Q197.825 555.133 194.19 555.133 M194.19 551.429 Q200 551.429 203.056 556.036 Q206.135 560.619 206.135 569.369 Q206.135 578.096 203.056 582.702 Q200 587.286 194.19 587.286 Q188.38 587.286 185.301 582.702 Q182.246 578.096 182.246 569.369 Q182.246 560.619 185.301 556.036 Q188.38 551.429 194.19 551.429 Z" fill="#000000" fill-rule="evenodd" fill-opacity="1" /><path clip-path="url(#clip720)" d="M224.352 555.133 Q220.741 555.133 218.912 558.698 Q217.107 562.24 217.107 569.369 Q217.107 576.476 218.912 580.04 Q220.741 583.582 224.352 583.582 Q227.986 583.582 229.792 580.04 Q231.621 576.476 231.621 569.369 Q231.621 562.24 229.792 558.698 Q227.986 555.133 224.352 555.133 M224.352 551.429 Q230.162 551.429 233.218 556.036 Q236.297 560.619 236.297 569.369 Q236.297 578.096 233.218 582.702 Q230.162 587.286 224.352 587.286 Q218.542 587.286 215.463 582.702 Q212.408 578.096 212.408 569.369 Q212.408 560.619 215.463 556.036 Q218.542 551.429 224.352 551.429 Z" fill="#000000" fill-rule="evenodd" fill-opacity="1" /><path clip-path="url(#clip720)" d="M254.514 555.133 Q250.903 555.133 249.074 558.698 Q247.269 562.24 247.269 569.369 Q247.269 576.476 249.074 580.04 Q250.903 583.582 254.514 583.582 Q258.148 583.582 259.954 580.04 Q261.783 576.476 261.783 569.369 Q261.783 562.24 259.954 558.698 Q258.148 555.133 254.514 555.133 M254.514 551.429 Q260.324 551.429 263.38 556.036 Q266.458 560.619 266.458 569.369 Q266.458 578.096 263.38 582.702 Q260.324 587.286 254.514 587.286 Q248.704 587.286 245.625 582.702 Q242.57 578.096 242.57 569.369 Q242.57 560.619 245.625 556.036 Q248.704 551.429 254.514 551.429 Z" fill="#000000" fill-rule="evenodd" fill-opacity="1" /><path clip-path="url(#clip720)" d="M144.422 301.411 L174.098 301.411 L174.098 305.346 L144.422 305.346 L144.422 301.411 Z" fill="#000000" fill-rule="evenodd" fill-opacity="1" /><path clip-path="url(#clip720)" d="M184.237 283.679 L202.593 283.679 L202.593 287.614 L188.519 287.614 L188.519 296.087 Q189.538 295.739 190.556 295.577 Q191.575 295.392 192.593 295.392 Q198.38 295.392 201.76 298.563 Q205.139 301.735 205.139 307.151 Q205.139 312.73 201.667 315.832 Q198.195 318.911 191.875 318.911 Q189.7 318.911 187.431 318.54 Q185.186 318.17 182.778 317.429 L182.778 312.73 Q184.862 313.864 187.084 314.42 Q189.306 314.975 191.783 314.975 Q195.787 314.975 198.125 312.869 Q200.463 310.762 200.463 307.151 Q200.463 303.54 198.125 301.434 Q195.787 299.327 191.783 299.327 Q189.908 299.327 188.033 299.744 Q186.181 300.161 184.237 301.04 L184.237 283.679 Z" fill="#000000" fill-rule="evenodd" fill-opacity="1" /><path clip-path="url(#clip720)" d="M224.352 286.758 Q220.741 286.758 218.912 290.323 Q217.107 293.864 217.107 300.994 Q217.107 308.1 218.912 311.665 Q220.741 315.207 224.352 315.207 Q227.986 315.207 229.792 311.665 Q231.621 308.1 231.621 300.994 Q231.621 293.864 229.792 290.323 Q227.986 286.758 224.352 286.758 M224.352 283.054 Q230.162 283.054 233.218 287.661 Q236.297 292.244 236.297 300.994 Q236.297 309.721 233.218 314.327 Q230.162 318.911 224.352 318.911 Q218.542 318.911 215.463 314.327 Q212.408 309.721 212.408 300.994 Q212.408 292.244 215.463 287.661 Q218.542 283.054 224.352 283.054 Z" fill="#000000" fill-rule="evenodd" fill-opacity="1" /><path clip-path="url(#clip720)" d="M254.514 286.758 Q250.903 286.758 249.074 290.323 Q247.269 293.864 247.269 300.994 Q247.269 308.1 249.074 311.665 Q250.903 315.207 254.514 315.207 Q258.148 315.207 259.954 311.665 Q261.783 308.1 261.783 300.994 Q261.783 293.864 259.954 290.323 Q258.148 286.758 254.514 286.758 M254.514 283.054 Q260.324 283.054 263.38 287.661 Q266.458 292.244 266.458 300.994 Q266.458 309.721 263.38 314.327 Q260.324 318.911 254.514 318.911 Q248.704 318.911 245.625 314.327 Q242.57 309.721 242.57 300.994 Q242.57 292.244 245.625 287.661 Q248.704 283.054 254.514 283.054 Z" fill="#000000" fill-rule="evenodd" fill-opacity="1" /><path clip-path="url(#clip720)" d="M33.8307 841.504 Q33.2578 842.491 33.0032 843.668 Q32.7167 844.814 32.7167 846.215 Q32.7167 851.18 35.9632 853.853 Q39.1779 856.495 45.2253 856.495 L64.0042 856.495 L64.0042 862.384 L28.3562 862.384 L28.3562 856.495 L33.8944 856.495 Q30.6479 854.649 29.0883 851.689 Q27.4968 848.729 27.4968 844.496 Q27.4968 843.891 27.5923 843.159 Q27.656 842.427 27.8151 841.536 L33.8307 841.504 Z" fill="#000000" fill-rule="evenodd" fill-opacity="1" /><path clip-path="url(#clip720)" d="M44.7161 806.302 L47.5806 806.302 L47.5806 833.229 Q53.6281 832.847 56.8109 829.6 Q59.9619 826.322 59.9619 820.497 Q59.9619 817.123 59.1344 813.972 Q58.3069 810.789 56.6518 807.67 L62.1899 807.67 Q63.5267 810.821 64.227 814.131 Q64.9272 817.442 64.9272 820.847 Q64.9272 829.377 59.9619 834.374 Q54.9967 839.34 46.5303 839.34 Q37.7774 839.34 32.6531 834.629 Q27.4968 829.887 27.4968 821.866 Q27.4968 814.673 32.1438 810.503 Q36.7589 806.302 44.7161 806.302 M42.9973 812.158 Q38.1912 812.222 35.3266 814.864 Q32.4621 817.473 32.4621 821.802 Q32.4621 826.704 35.2312 829.664 Q38.0002 832.592 43.0292 833.038 L42.9973 812.158 Z" fill="#000000" fill-rule="evenodd" fill-opacity="1" /><path clip-path="url(#clip720)" d="M45.7664 773.232 Q39.4007 773.232 35.8996 775.874 Q32.3984 778.484 32.3984 783.226 Q32.3984 787.937 35.8996 790.578 Q39.4007 793.188 45.7664 793.188 Q52.1003 793.188 55.6014 790.578 Q59.1026 787.937 59.1026 783.226 Q59.1026 778.484 55.6014 775.874 Q52.1003 773.232 45.7664 773.232 M59.58 767.375 Q68.683 767.375 73.1071 771.418 Q77.5631 775.46 77.5631 783.799 Q77.5631 786.886 77.0857 789.624 Q76.6401 792.361 75.6852 794.939 L69.9879 794.939 Q71.3884 792.361 72.0568 789.846 Q72.7252 787.332 72.7252 784.722 Q72.7252 778.961 69.7015 776.096 Q66.7096 773.232 60.6303 773.232 L57.7339 773.232 Q60.885 775.046 62.4446 777.879 Q64.0042 780.712 64.0042 784.658 Q64.0042 791.215 59.0071 795.225 Q54.01 799.236 45.7664 799.236 Q37.491 799.236 32.4939 795.225 Q27.4968 791.215 27.4968 784.658 Q27.4968 780.712 29.0564 777.879 Q30.616 775.046 33.7671 773.232 L28.3562 773.232 L28.3562 767.375 L59.58 767.375 Z" fill="#000000" fill-rule="evenodd" fill-opacity="1" /><path clip-path="url(#clip720)" d="M33.8307 734.656 Q33.2578 735.642 33.0032 736.82 Q32.7167 737.966 32.7167 739.366 Q32.7167 744.331 35.9632 747.005 Q39.1779 749.647 45.2253 749.647 L64.0042 749.647 L64.0042 755.535 L28.3562 755.535 L28.3562 749.647 L33.8944 749.647 Q30.6479 747.801 29.0883 744.841 Q27.4968 741.881 27.4968 737.648 Q27.4968 737.043 27.5923 736.311 Q27.656 735.579 27.8151 734.687 L33.8307 734.656 Z" fill="#000000" fill-rule="evenodd" fill-opacity="1" /><path clip-path="url(#clip720)" d="M44.7161 699.453 L47.5806 699.453 L47.5806 726.38 Q53.6281 725.998 56.8109 722.752 Q59.9619 719.473 59.9619 713.649 Q59.9619 710.275 59.1344 707.124 Q58.3069 703.941 56.6518 700.822 L62.1899 700.822 Q63.5267 703.973 64.227 707.283 Q64.9272 710.593 64.9272 713.999 Q64.9272 722.529 59.9619 727.526 Q54.9967 732.491 46.5303 732.491 Q37.7774 732.491 32.6531 727.781 Q27.4968 723.038 27.4968 715.017 Q27.4968 707.824 32.1438 703.655 Q36.7589 699.453 44.7161 699.453 M42.9973 705.31 Q38.1912 705.373 35.3266 708.015 Q32.4621 710.625 32.4621 714.954 Q32.4621 719.855 35.2312 722.815 Q38.0002 725.744 43.0292 726.189 L42.9973 705.31 Z" fill="#000000" fill-rule="evenodd" fill-opacity="1" /><path clip-path="url(#clip720)" d="M18.2347 684.048 L28.3562 684.048 L28.3562 671.985 L32.9077 671.985 L32.9077 684.048 L52.2594 684.048 Q56.6199 684.048 57.8613 682.871 Q59.1026 681.661 59.1026 678.001 L59.1026 671.985 L64.0042 671.985 L64.0042 678.001 Q64.0042 684.78 61.4897 687.358 Q58.9434 689.937 52.2594 689.937 L32.9077 689.937 L32.9077 694.233 L28.3562 694.233 L28.3562 689.937 L18.2347 689.937 L18.2347 684.048 Z" fill="#000000" fill-rule="evenodd" fill-opacity="1" /><path clip-path="url(#clip720)" d="M1204.05 14.0809 L1204.05 22.0612 Q1199.4 19.8332 1195.26 18.7395 Q1191.13 17.6457 1187.28 17.6457 Q1180.6 17.6457 1176.95 20.2383 Q1173.35 22.8309 1173.35 27.611 Q1173.35 31.6214 1175.74 33.6873 Q1178.17 35.7128 1184.89 36.9686 L1189.84 37.9813 Q1198.99 39.7232 1203.33 44.1387 Q1207.7 48.5136 1207.7 55.8863 Q1207.7 64.6767 1201.79 69.2137 Q1195.91 73.7508 1184.53 73.7508 Q1180.24 73.7508 1175.37 72.7785 Q1170.55 71.8063 1165.37 69.9024 L1165.37 61.4765 Q1170.35 64.2716 1175.13 65.6895 Q1179.91 67.1073 1184.53 67.1073 Q1191.54 67.1073 1195.35 64.3527 Q1199.15 61.598 1199.15 56.4939 Q1199.15 52.0379 1196.4 49.5264 Q1193.68 47.0148 1187.45 45.759 L1182.46 44.7868 Q1173.31 42.9639 1169.22 39.075 Q1165.13 35.1862 1165.13 28.2591 Q1165.13 20.2383 1170.76 15.6203 Q1176.43 11.0023 1186.35 11.0023 Q1190.61 11.0023 1195.02 11.7719 Q1199.44 12.5416 1204.05 14.0809 Z" fill="#000000" fill-rule="evenodd" fill-opacity="1" /><path clip-path="url(#clip720)" d="M1245.01 17.6457 Q1236.1 17.6457 1230.83 24.2892 Q1225.61 30.9327 1225.61 42.3968 Q1225.61 53.8203 1230.83 60.4638 Q1236.1 67.1073 1245.01 67.1073 Q1253.92 67.1073 1259.11 60.4638 Q1264.33 53.8203 1264.33 42.3968 Q1264.33 30.9327 1259.11 24.2892 Q1253.92 17.6457 1245.01 17.6457 M1245.01 11.0023 Q1257.73 11.0023 1265.34 19.5497 Q1272.96 28.0566 1272.96 42.3968 Q1272.96 56.6965 1265.34 65.2439 Q1257.73 73.7508 1245.01 73.7508 Q1232.25 73.7508 1224.59 65.2439 Q1216.98 56.737 1216.98 42.3968 Q1216.98 28.0566 1224.59 19.5497 Q1232.25 11.0023 1245.01 11.0023 Z" fill="#000000" fill-rule="evenodd" fill-opacity="1" /><path clip-path="url(#clip720)" d="M1322.02 14.0809 L1322.02 22.0612 Q1317.36 19.8332 1313.23 18.7395 Q1309.09 17.6457 1305.25 17.6457 Q1298.56 17.6457 1294.92 20.2383 Q1291.31 22.8309 1291.31 27.611 Q1291.31 31.6214 1293.7 33.6873 Q1296.13 35.7128 1302.86 36.9686 L1307.8 37.9813 Q1316.95 39.7232 1321.29 44.1387 Q1325.66 48.5136 1325.66 55.8863 Q1325.66 64.6767 1319.75 69.2137 Q1313.87 73.7508 1302.49 73.7508 Q1298.2 73.7508 1293.34 72.7785 Q1288.52 71.8063 1283.33 69.9024 L1283.33 61.4765 Q1288.31 64.2716 1293.09 65.6895 Q1297.87 67.1073 1302.49 67.1073 Q1309.5 67.1073 1313.31 64.3527 Q1317.12 61.598 1317.12 56.4939 Q1317.12 52.0379 1314.36 49.5264 Q1311.65 47.0148 1305.41 45.759 L1300.43 44.7868 Q1291.27 42.9639 1287.18 39.075 Q1283.09 35.1862 1283.09 28.2591 Q1283.09 20.2383 1288.72 15.6203 Q1294.39 11.0023 1304.31 11.0023 Q1308.57 11.0023 1312.98 11.7719 Q1317.4 12.5416 1322.02 14.0809 Z" fill="#000000" fill-rule="evenodd" fill-opacity="1" /><path clip-path="url(#clip720)" d="M1362.97 17.6457 Q1354.06 17.6457 1348.79 24.2892 Q1343.57 30.9327 1343.57 42.3968 Q1343.57 53.8203 1348.79 60.4638 Q1354.06 67.1073 1362.97 67.1073 Q1371.88 67.1073 1377.07 60.4638 Q1382.29 53.8203 1382.29 42.3968 Q1382.29 30.9327 1377.07 24.2892 Q1371.88 17.6457 1362.97 17.6457 M1374.44 71.4823 L1385.21 83.2704 L1375.33 83.2704 L1366.37 73.5887 Q1365.04 73.6697 1364.31 73.7103 Q1363.62 73.7508 1362.97 73.7508 Q1350.21 73.7508 1342.55 65.2439 Q1334.94 56.6965 1334.94 42.3968 Q1334.94 28.0566 1342.55 19.5497 Q1350.21 11.0023 1362.97 11.0023 Q1375.69 11.0023 1383.31 19.5497 Q1390.92 28.0566 1390.92 42.3968 Q1390.92 52.9291 1386.67 60.4233 Q1382.46 67.9175 1374.44 71.4823 Z" fill="#000000" fill-rule="evenodd" fill-opacity="1" /><path clip-path="url(#clip720)" d="M1411.91 18.8205 L1411.91 41.5461 L1422.2 41.5461 Q1427.91 41.5461 1431.03 38.5889 Q1434.15 35.6318 1434.15 30.163 Q1434.15 24.7348 1431.03 21.7777 Q1427.91 18.8205 1422.2 18.8205 L1411.91 18.8205 M1403.72 12.096 L1422.2 12.096 Q1432.36 12.096 1437.55 16.714 Q1442.77 21.2916 1442.77 30.163 Q1442.77 39.1155 1437.55 43.6931 Q1432.36 48.2706 1422.2 48.2706 L1411.91 48.2706 L1411.91 72.576 L1403.72 72.576 L1403.72 12.096 Z" fill="#000000" fill-rule="evenodd" fill-opacity="1" /><path clip-path="url(#clip720)" d="M1461.53 65.6895 L1490.09 65.6895 L1490.09 72.576 L1451.69 72.576 L1451.69 65.6895 Q1456.34 60.8689 1464.37 52.7671 Q1472.43 44.6248 1474.49 42.2752 Q1478.42 37.8598 1479.96 34.8216 Q1481.54 31.7429 1481.54 28.7857 Q1481.54 23.9651 1478.14 20.927 Q1474.78 17.8888 1469.35 17.8888 Q1465.5 17.8888 1461.21 19.2256 Q1456.95 20.5624 1452.09 23.2765 L1452.09 15.0127 Q1457.03 13.0277 1461.33 12.015 Q1465.62 11.0023 1469.19 11.0023 Q1478.58 11.0023 1484.17 15.7013 Q1489.76 20.4004 1489.76 28.2591 Q1489.76 31.9859 1488.35 35.3482 Q1486.97 38.6699 1483.28 43.2069 Q1482.27 44.3817 1476.84 50.0125 Q1471.41 55.6027 1461.53 65.6895 Z" fill="#000000" fill-rule="evenodd" fill-opacity="1" /><polyline clip-path="url(#clip722)" style="stroke:#009af9; stroke-linecap:butt; stroke-linejoin:round; stroke-width:8; stroke-opacity:1; fill:none" points="
  1073.13,1288.04 1147.79,1288.04 1222.55,1288.04 1279.22,1288.04 1324.42,1288.04 1349.48,1288.04 1371.78,1288.04 1395.07,1288.04 1423.45,1288.04 1450.13,1290.19 
  1476.05,1290.19 1501.64,1335.81 1520.48,1335.81 1537.69,1335.81 1550.52,1335.81 1567.01,1335.81 1580.86,1335.81 1597.2,1335.81 1605.65,1335.81 1617.87,1335.81 
  1629.68,1335.81 1642.53,1335.81 1654.19,1335.81 1664.52,1335.81 1670.76,1335.81 1677.63,1335.81 1679.6,1335.81 1688.88,1335.81 1698.12,1335.81 1700.04,1335.81 
  1709.47,1335.81 1716.73,1335.81 1724.44,1335.81 1732.05,1335.81 1739.85,1335.81 1741.38,1335.81 1745.83,1335.81 1750.42,1335.81 1755.32,1335.81 1756.7,1335.81 
  
  "/>
<polyline clip-path="url(#clip722)" style="stroke:#e26f46; stroke-linecap:butt; stroke-linejoin:round; stroke-width:8; stroke-opacity:1; fill:none" points="
  845.965,1208.6 1033.21,1280.53 1129.45,1298.24 1181.31,1298.24 1229.47,1298.24 1272.53,1298.24 1283.12,1298.24 1315.3,1298.24 1355.27,1298.24 1393.2,1298.24 
  1422.7,1298.24 1441.86,1298.24 1465.18,1298.24 1487.37,1298.24 1499.94,1298.24 1522.44,1298.24 1540.39,1298.24 1550.71,1298.24 1561.85,1298.24 1574.59,1298.24 
  1584.32,1298.24 1594.59,1298.24 1603.93,1298.24 1616.41,1330.45 1625.23,1330.45 1635.7,1330.45 1646.34,1335.81 1653.53,1335.81 1663.79,1335.81 1670.78,1335.81 
  1680.05,1335.81 1688.79,1335.81 1697.32,1340.11 1705.69,1340.11 1713.66,1340.11 1721.48,1340.11 1729.04,1340.11 1736.37,1340.11 1742.62,1340.11 1749.46,1340.11 
  
  "/>
<polyline clip-path="url(#clip722)" style="stroke:#3da44d; stroke-linecap:butt; stroke-linejoin:round; stroke-width:8; stroke-opacity:1; fill:none" points="
  360.72,160.269 473.662,187.694 547.088,187.694 603.531,187.694 647.195,187.694 685.175,187.694 717.304,187.694 746.011,187.694 773.941,187.694 798.024,187.694 
  818.48,187.694 837.297,187.694 854.586,187.694 870.489,187.694 885.685,187.694 899.963,187.694 913.366,187.694 926.009,187.694 937.981,187.694 949.484,187.694 
  969.91,187.694 983.824,187.694 996.127,187.694 1006.38,187.694 1015.87,187.694 1024.6,187.694 1032.73,187.694 1040.85,187.694 1048.43,187.694 1056.07,187.694 
  1063.12,187.694 1070.06,187.694 1076.63,187.694 1083.07,187.694 1089.38,187.694 1095.46,187.694 1101.44,187.694 1107.28,187.694 1112.93,187.694 1118.56,187.694 
  1124.41,187.694 1130.28,187.694 1135.81,187.694 1140.98,187.694 1145.95,187.694 1150.76,187.694 1155.57,187.694 1160.25,187.694 1164.78,187.694 1169.29,187.694 
  1173.7,187.694 1178.04,187.694 1182.27,187.694 1186.46,187.694 1190.52,187.694 1194.57,187.694 1198.58,187.694 1203.02,187.694 1207.28,187.694 1211.5,187.694 
  1217.03,187.694 1221.2,187.694 1225.17,187.694 1229.09,187.694 1235.1,187.694 1239.15,187.694 1242.88,187.694 1246.43,187.694 1249.76,187.694 1252.97,187.694 
  1256.1,187.694 1259.3,187.694 1262.81,187.694 1266.38,187.694 1269.66,187.694 1272.95,187.694 1276.15,187.694 1279.25,187.694 1282.11,187.694 1284.94,187.694 
  1287.65,187.694 1298.62,703.72 1305.07,703.72 1311.44,703.72 1317.51,703.72 1323.37,703.72 1330.32,925.269 1337.14,925.269 1343.79,946.185 1350.35,946.185 
  1357.13,946.185 1363.26,946.185 1369.2,966.684 1375.01,966.684 1380.64,966.684 1386.2,966.684 1391.66,966.684 1396.97,966.684 1402.14,966.684 1407.17,975.546 
  1412.2,975.546 1417.54,975.546 1422.28,975.546 1426.93,975.546 1431.48,975.546 1436.04,975.546 1440.43,975.546 1444.72,975.546 1462.69,1215.58 1478.98,1215.58 
  1493.53,1215.58 1507.42,1215.58 1520.38,1215.58 1532.84,1215.58 1544.53,1215.58 1555.56,1215.58 1566.16,1215.58 1570.98,1215.58 1575.15,1215.58 1579.5,1215.58 
  1583.28,1215.58 2126.92,1215.58 2127.15,1215.58 2127.4,1215.58 2127.62,1215.58 2127.85,1215.58 2128.21,1215.58 2128.48,1215.58 2128.76,1215.58 2129.01,1215.58 
  2129.24,1215.58 2129.47,1215.58 2129.71,1215.58 2129.94,1215.58 2130.16,1215.58 2130.41,1215.58 2130.66,1215.58 2130.91,1215.58 2131.14,1215.58 2131.37,1215.58 
  2131.59,1215.58 2131.82,1215.58 2132.07,1215.58 2132.29,1215.58 2132.52,1215.58 2132.74,1215.58 2132.96,1215.58 2133.2,1215.58 2133.42,1215.58 2133.66,1215.58 
  2133.9,1215.58 2134.15,1215.58 2134.37,1215.58 2134.53,1215.58 2134.75,1215.58 2135.42,1233.12 2136.15,1235.22 2136.83,1237.03 2137.49,1237.03 2138.14,1237.72 
  2138.8,1237.72 2139.46,1237.72 2140.12,1237.72 2140.77,1237.72 2141.42,1237.72 2142.07,1237.72 2143.94,1374.15 2145.81,1374.15 2147.62,1374.15 2148.01,1374.46 
  2222.28,1374.46 2222.83,1374.46 2223.38,1374.46 2223.94,1374.46 2224.49,1374.46 2225.04,1374.46 2225.6,1374.46 2226.1,1374.46 2226.6,1374.46 2227.15,1374.46 
  2227.7,1374.46 2228.24,1374.46 2228.83,1374.46 2229.38,1374.46 2229.92,1374.46 2230.44,1374.46 2230.85,1374.46 2231.38,1374.46 2231.9,1374.46 2232.34,1374.46 
  2232.66,1374.46 2265.81,1374.46 2266.24,1374.46 2266.4,1374.46 2266.85,1374.46 2267.27,1374.46 2267.62,1374.46 2268.05,1374.46 2268.87,1374.46 2269.14,1374.46 
  2269.37,1374.46 2293.47,1374.46 2293.78,1374.46 2294.1,1374.46 2294.42,1374.46 2294.73,1374.46 
  "/>
<polyline clip-path="url(#clip722)" style="stroke:#c271d2; stroke-linecap:butt; stroke-linejoin:round; stroke-width:8; stroke-opacity:1; fill:none" points="
  360.486,159.909 470.858,169.276 547.166,182.253 603.687,187.674 649.805,187.674 688.169,187.674 719.766,187.674 748.058,187.674 773.117,187.674 795.609,187.674 
  816.246,187.694 835.638,187.694 854.41,187.694 880.954,187.694 898.65,187.694 914.002,187.694 936.201,187.694 953.054,187.694 966.874,187.694 978.883,187.694 
  990.82,187.694 1001.01,187.694 1010.87,187.694 1019.92,187.694 1028.27,187.694 1036.37,187.694 1044.17,187.694 1051.8,187.694 1059.16,187.694 1066.24,187.694 
  1076.66,187.694 1084.49,187.694 1091.68,187.694 1098.4,187.694 1104.29,187.694 1110.4,187.694 1116.18,187.694 1121.78,187.694 1127.39,187.694 1132.93,187.694 
  1186.49,187.694 1191.03,187.694 1195.53,187.694 1199.85,187.694 1204.01,187.694 1207.95,187.694 1211.89,187.694 1215.7,187.694 1219.49,187.694 1223.2,187.694 
  1226.84,187.694 1230.48,187.694 1233.97,187.694 1237.46,187.694 1240.81,187.694 1244.13,187.694 1247.45,187.694 1250.71,187.694 1253.93,187.694 1257.07,187.694 
  1260.21,187.694 1263.24,187.694 1266.27,187.694 1269.29,187.694 1272.26,187.694 1275.18,187.694 1278.2,187.694 1281.3,187.694 1284.46,187.694 1287.48,187.694 
  1290.25,187.694 1292.89,187.694 1295.57,187.694 1298.27,187.694 1300.91,187.694 1303.48,187.694 1306.05,187.694 1308.62,187.694 1311.15,187.694 1313.66,187.694 
  1316.14,187.694 1323.56,703.72 1329.73,703.72 1335.46,703.72 1341.08,703.72 1348.92,703.72 1355.97,925.269 1364.03,925.269 1370.57,946.185 1376.4,946.185 
  1382.18,946.185 1387.67,946.185 1393.16,946.185 1398.57,966.684 1403.75,966.684 1408.81,966.684 1413.76,966.684 1418.62,966.684 1423.71,966.684 1428.52,966.684 
  1433.12,971.198 1437.66,971.198 1442.11,971.198 1446.47,971.198 1450.74,971.198 1454.91,971.198 1458.99,971.198 1463.02,971.198 1478.76,1208.07 1493.42,1208.07 
  1507.36,1215.58 1520.62,1215.58 1532.98,1215.58 1544.69,1215.58 1556.04,1215.58 1566.59,1215.58 1576.72,1215.58 1580.73,1215.58 1585.18,1215.58 1588.88,1215.58 
  1592.52,1215.58 1594.11,1215.58 1596.44,1215.58 1598.74,1215.58 1601,1215.58 1603.27,1215.58 1605.07,1215.58 1608.25,1215.58 1610.58,1215.58 1612.74,1215.58 
  1614.88,1215.58 1617.18,1215.58 1618.64,1215.58 1620.74,1215.58 1622.82,1215.58 1624.87,1215.58 1626.9,1215.58 1628.98,1215.58 1630.98,1215.58 1632.97,1215.58 
  1634.92,1215.58 1637.03,1215.58 1638.98,1215.58 1640.93,1215.58 1642.82,1215.58 1644.69,1215.58 1646.56,1215.58 1648.42,1215.58 1650.37,1215.58 1652.26,1215.58 
  1653.51,1215.58 1655.71,1215.58 1657.56,1215.58 1659.36,1215.58 1661.26,1215.58 1664.42,1215.58 1667.53,1215.58 1670.75,1215.58 1673.9,1215.58 1677.72,1215.58 
  1681.41,1215.58 1685.11,1215.58 1689.11,1215.58 1692.81,1215.58 1697.43,1288.04 1701.62,1298.24 1704.05,1298.24 1706.46,1298.24 1708.83,1298.24 1711.08,1298.24 
  1717.38,1298.24 1722.04,1298.24 1726.16,1298.24 1731.35,1298.24 1735.31,1298.24 1739.18,1298.24 1742.98,1298.24 1747.83,1298.24 1751.88,1298.24 1755.5,1298.24 
  1759.4,1298.24 1762.94,1298.24 1767.15,1298.24 1771.21,1298.24 1774.54,1298.24 1777.29,1298.24 1779.14,1298.24 1780.98,1298.24 1783.68,1298.24 1787.27,1298.24 
  1788.88,1298.24 1790.26,1298.24 1793.98,1298.24 1799.73,1330.98 1803.63,1330.98 1808.43,1330.98 1814,1330.98 1817.8,1330.98 1824.62,1330.98 1826.15,1330.98 
  1827.49,1330.98 1832.62,1330.98 1836.3,1330.98 1841.02,1340.11 1845.69,1340.11 1849.66,1340.11 
  "/>
<path clip-path="url(#clip720)" d="
M1809.08 425.586 L2284.41 425.586 L2284.41 166.386 L1809.08 166.386  Z
  " fill="#ffffff" fill-rule="evenodd" fill-opacity="1"/>
<polyline clip-path="url(#clip720)" style="stroke:#000000; stroke-linecap:butt; stroke-linejoin:round; stroke-width:4; stroke-opacity:1; fill:none" points="
  1809.08,425.586 2284.41,425.586 2284.41,166.386 1809.08,166.386 1809.08,425.586 
  "/>
<polyline clip-path="url(#clip720)" style="stroke:#009af9; stroke-linecap:butt; stroke-linejoin:round; stroke-width:4; stroke-opacity:1; fill:none" points="
  1831.86,218.226 1968.55,218.226 
  "/>
<path clip-path="url(#clip720)" d="M2006.51 213.562 Q2005.8 213.145 2004.94 212.96 Q2004.11 212.752 2003.09 212.752 Q1999.48 212.752 1997.53 215.113 Q1995.61 217.451 1995.61 221.849 L1995.61 235.506 L1991.33 235.506 L1991.33 209.58 L1995.61 209.58 L1995.61 213.608 Q1996.95 211.247 1999.11 210.113 Q2001.26 208.955 2004.34 208.955 Q2004.78 208.955 2005.31 209.025 Q2005.84 209.071 2006.49 209.187 L2006.51 213.562 Z" fill="#000000" fill-rule="evenodd" fill-opacity="1" /><path clip-path="url(#clip720)" d="M2022.76 222.474 Q2017.6 222.474 2015.61 223.654 Q2013.62 224.835 2013.62 227.682 Q2013.62 229.951 2015.1 231.293 Q2016.61 232.613 2019.18 232.613 Q2022.72 232.613 2024.85 230.113 Q2027 227.59 2027 223.423 L2027 222.474 L2022.76 222.474 M2031.26 220.715 L2031.26 235.506 L2027 235.506 L2027 231.571 Q2025.54 233.932 2023.37 235.066 Q2021.19 236.178 2018.04 236.178 Q2014.06 236.178 2011.7 233.955 Q2009.36 231.71 2009.36 227.96 Q2009.36 223.585 2012.28 221.363 Q2015.22 219.141 2021.03 219.141 L2027 219.141 L2027 218.724 Q2027 215.784 2025.06 214.187 Q2023.13 212.567 2019.64 212.567 Q2017.42 212.567 2015.31 213.099 Q2013.2 213.631 2011.26 214.696 L2011.26 210.761 Q2013.6 209.858 2015.8 209.418 Q2018 208.955 2020.08 208.955 Q2025.7 208.955 2028.48 211.872 Q2031.26 214.789 2031.26 220.715 Z" fill="#000000" fill-rule="evenodd" fill-opacity="1" /><path clip-path="url(#clip720)" d="M2061.58 219.858 L2061.58 235.506 L2057.32 235.506 L2057.32 219.997 Q2057.32 216.317 2055.89 214.488 Q2054.45 212.659 2051.58 212.659 Q2048.13 212.659 2046.14 214.858 Q2044.15 217.057 2044.15 220.854 L2044.15 235.506 L2039.87 235.506 L2039.87 209.58 L2044.15 209.58 L2044.15 213.608 Q2045.68 211.27 2047.74 210.113 Q2049.82 208.955 2052.53 208.955 Q2057 208.955 2059.29 211.733 Q2061.58 214.488 2061.58 219.858 Z" fill="#000000" fill-rule="evenodd" fill-opacity="1" /><path clip-path="url(#clip720)" d="M2087.14 213.516 L2087.14 199.488 L2091.4 199.488 L2091.4 235.506 L2087.14 235.506 L2087.14 231.617 Q2085.8 233.932 2083.74 235.066 Q2081.7 236.178 2078.83 236.178 Q2074.13 236.178 2071.17 232.428 Q2068.23 228.678 2068.23 222.567 Q2068.23 216.455 2071.17 212.705 Q2074.13 208.955 2078.83 208.955 Q2081.7 208.955 2083.74 210.09 Q2085.8 211.201 2087.14 213.516 M2072.62 222.567 Q2072.62 227.266 2074.55 229.951 Q2076.49 232.613 2079.87 232.613 Q2083.25 232.613 2085.19 229.951 Q2087.14 227.266 2087.14 222.567 Q2087.14 217.867 2085.19 215.205 Q2083.25 212.52 2079.87 212.52 Q2076.49 212.52 2074.55 215.205 Q2072.62 217.867 2072.62 222.567 Z" fill="#000000" fill-rule="evenodd" fill-opacity="1" /><path clip-path="url(#clip720)" d="M2110.22 212.567 Q2106.79 212.567 2104.8 215.252 Q2102.81 217.914 2102.81 222.567 Q2102.81 227.219 2104.78 229.904 Q2106.77 232.566 2110.22 232.566 Q2113.62 232.566 2115.61 229.881 Q2117.6 227.196 2117.6 222.567 Q2117.6 217.96 2115.61 215.275 Q2113.62 212.567 2110.22 212.567 M2110.22 208.955 Q2115.77 208.955 2118.94 212.567 Q2122.12 216.178 2122.12 222.567 Q2122.12 228.932 2118.94 232.566 Q2115.77 236.178 2110.22 236.178 Q2104.64 236.178 2101.47 232.566 Q2098.32 228.932 2098.32 222.567 Q2098.32 216.178 2101.47 212.567 Q2104.64 208.955 2110.22 208.955 Z" fill="#000000" fill-rule="evenodd" fill-opacity="1" /><path clip-path="url(#clip720)" d="M2149.36 214.557 Q2150.96 211.687 2153.18 210.321 Q2155.4 208.955 2158.41 208.955 Q2162.46 208.955 2164.66 211.803 Q2166.86 214.627 2166.86 219.858 L2166.86 235.506 L2162.58 235.506 L2162.58 219.997 Q2162.58 216.27 2161.26 214.465 Q2159.94 212.659 2157.23 212.659 Q2153.92 212.659 2152 214.858 Q2150.08 217.057 2150.08 220.854 L2150.08 235.506 L2145.8 235.506 L2145.8 219.997 Q2145.8 216.247 2144.48 214.465 Q2143.16 212.659 2140.4 212.659 Q2137.14 212.659 2135.22 214.881 Q2133.3 217.08 2133.3 220.854 L2133.3 235.506 L2129.01 235.506 L2129.01 209.58 L2133.3 209.58 L2133.3 213.608 Q2134.75 211.224 2136.79 210.09 Q2138.83 208.955 2141.63 208.955 Q2144.45 208.955 2146.42 210.391 Q2148.41 211.826 2149.36 214.557 Z" fill="#000000" fill-rule="evenodd" fill-opacity="1" /><polyline clip-path="url(#clip720)" style="stroke:#e26f46; stroke-linecap:butt; stroke-linejoin:round; stroke-width:4; stroke-opacity:1; fill:none" points="
  1831.86,270.066 1968.55,270.066 
  "/>
<path clip-path="url(#clip720)" d="M1991.33 252.786 L1996 252.786 L1996 283.411 L2012.83 283.411 L2012.83 287.346 L1991.33 287.346 L1991.33 252.786 Z" fill="#000000" fill-rule="evenodd" fill-opacity="1" /><path clip-path="url(#clip720)" d="M2017.74 252.786 L2022.42 252.786 L2022.42 266.953 L2039.41 266.953 L2039.41 252.786 L2044.08 252.786 L2044.08 287.346 L2039.41 287.346 L2039.41 270.888 L2022.42 270.888 L2022.42 287.346 L2017.74 287.346 L2017.74 252.786 Z" fill="#000000" fill-rule="evenodd" fill-opacity="1" /><polyline clip-path="url(#clip720)" style="stroke:#3da44d; stroke-linecap:butt; stroke-linejoin:round; stroke-width:4; stroke-opacity:1; fill:none" points="
  1831.86,321.906 1968.55,321.906 
  "/>
<path clip-path="url(#clip720)" d="M1996 322.682 L1996 335.344 L2003.5 335.344 Q2007.28 335.344 2009.08 333.793 Q2010.91 332.219 2010.91 329.001 Q2010.91 325.76 2009.08 324.233 Q2007.28 322.682 2003.5 322.682 L1996 322.682 M1996 308.469 L1996 318.885 L2002.93 318.885 Q2006.35 318.885 2008.02 317.612 Q2009.71 316.316 2009.71 313.677 Q2009.71 311.061 2008.02 309.765 Q2006.35 308.469 2002.93 308.469 L1996 308.469 M1991.33 304.626 L2003.27 304.626 Q2008.62 304.626 2011.51 306.848 Q2014.41 309.071 2014.41 313.168 Q2014.41 316.339 2012.93 318.214 Q2011.44 320.089 2008.57 320.552 Q2012.02 321.293 2013.92 323.654 Q2015.84 325.992 2015.84 329.51 Q2015.84 334.14 2012.69 336.663 Q2009.55 339.186 2003.74 339.186 L1991.33 339.186 L1991.33 304.626 Z" fill="#000000" fill-rule="evenodd" fill-opacity="1" /><path clip-path="url(#clip720)" d="M2037.05 307.798 Q2031.95 307.798 2028.94 311.594 Q2025.96 315.39 2025.96 321.941 Q2025.96 328.469 2028.94 332.265 Q2031.95 336.061 2037.05 336.061 Q2042.14 336.061 2045.1 332.265 Q2048.09 328.469 2048.09 321.941 Q2048.09 315.39 2045.1 311.594 Q2042.14 307.798 2037.05 307.798 M2037.05 304.001 Q2044.31 304.001 2048.67 308.886 Q2053.02 313.747 2053.02 321.941 Q2053.02 330.112 2048.67 334.996 Q2044.31 339.858 2037.05 339.858 Q2029.75 339.858 2025.38 334.996 Q2021.03 330.135 2021.03 321.941 Q2021.03 313.747 2025.38 308.886 Q2029.75 304.001 2037.05 304.001 Z" fill="#000000" fill-rule="evenodd" fill-opacity="1" /><path clip-path="url(#clip720)" d="M2060.33 304.626 L2065.01 304.626 L2065.01 318.793 L2082 318.793 L2082 304.626 L2086.68 304.626 L2086.68 339.186 L2082 339.186 L2082 322.728 L2065.01 322.728 L2065.01 339.186 L2060.33 339.186 L2060.33 304.626 Z" fill="#000000" fill-rule="evenodd" fill-opacity="1" /><path clip-path="url(#clip720)" d="M2100.66 322.682 L2100.66 335.344 L2108.16 335.344 Q2111.93 335.344 2113.74 333.793 Q2115.56 332.219 2115.56 329.001 Q2115.56 325.76 2113.74 324.233 Q2111.93 322.682 2108.16 322.682 L2100.66 322.682 M2100.66 308.469 L2100.66 318.885 L2107.58 318.885 Q2111 318.885 2112.67 317.612 Q2114.36 316.316 2114.36 313.677 Q2114.36 311.061 2112.67 309.765 Q2111 308.469 2107.58 308.469 L2100.66 308.469 M2095.98 304.626 L2107.93 304.626 Q2113.27 304.626 2116.17 306.848 Q2119.06 309.071 2119.06 313.168 Q2119.06 316.339 2117.58 318.214 Q2116.1 320.089 2113.23 320.552 Q2116.68 321.293 2118.57 323.654 Q2120.49 325.992 2120.49 329.51 Q2120.49 334.14 2117.35 336.663 Q2114.2 339.186 2108.39 339.186 L2095.98 339.186 L2095.98 304.626 Z" fill="#000000" fill-rule="evenodd" fill-opacity="1" /><polyline clip-path="url(#clip720)" style="stroke:#c271d2; stroke-linecap:butt; stroke-linejoin:round; stroke-width:4; stroke-opacity:1; fill:none" points="
  1831.86,373.746 1968.55,373.746 
  "/>
<path clip-path="url(#clip720)" d="M2013.04 375.378 L2013.04 391.026 L2008.78 391.026 L2008.78 375.517 Q2008.78 371.837 2007.35 370.008 Q2005.91 368.179 2003.04 368.179 Q1999.59 368.179 1997.6 370.378 Q1995.61 372.577 1995.61 376.374 L1995.61 391.026 L1991.33 391.026 L1991.33 355.008 L1995.61 355.008 L1995.61 369.128 Q1997.14 366.79 1999.2 365.633 Q2001.28 364.475 2003.99 364.475 Q2008.46 364.475 2010.75 367.253 Q2013.04 370.008 2013.04 375.378 Z" fill="#000000" fill-rule="evenodd" fill-opacity="1" /><path clip-path="url(#clip720)" d="M2032.32 393.434 Q2030.52 398.063 2028.81 399.475 Q2027.09 400.887 2024.22 400.887 L2020.82 400.887 L2020.82 397.323 L2023.32 397.323 Q2025.08 397.323 2026.05 396.489 Q2027.02 395.656 2028.2 392.554 L2028.97 390.61 L2018.48 365.1 L2023 365.1 L2031.1 385.378 L2039.2 365.1 L2043.71 365.1 L2032.32 393.434 Z" fill="#000000" fill-rule="evenodd" fill-opacity="1" /><path clip-path="url(#clip720)" d="M2053.71 387.137 L2053.71 400.887 L2049.43 400.887 L2049.43 365.1 L2053.71 365.1 L2053.71 369.036 Q2055.06 366.721 2057.09 365.61 Q2059.15 364.475 2062 364.475 Q2066.72 364.475 2069.66 368.225 Q2072.62 371.975 2072.62 378.087 Q2072.62 384.198 2069.66 387.948 Q2066.72 391.698 2062 391.698 Q2059.15 391.698 2057.09 390.586 Q2055.06 389.452 2053.71 387.137 M2068.2 378.087 Q2068.2 373.387 2066.26 370.725 Q2064.34 368.04 2060.96 368.04 Q2057.58 368.04 2055.63 370.725 Q2053.71 373.387 2053.71 378.087 Q2053.71 382.786 2055.63 385.471 Q2057.58 388.133 2060.96 388.133 Q2064.34 388.133 2066.26 385.471 Q2068.2 382.786 2068.2 378.087 Z" fill="#000000" fill-rule="evenodd" fill-opacity="1" /><path clip-path="url(#clip720)" d="M2101.86 376.999 L2101.86 379.082 L2082.28 379.082 Q2082.56 383.48 2084.92 385.795 Q2087.3 388.086 2091.54 388.086 Q2093.99 388.086 2096.28 387.485 Q2098.6 386.883 2100.87 385.679 L2100.87 389.707 Q2098.57 390.679 2096.17 391.188 Q2093.76 391.698 2091.28 391.698 Q2085.08 391.698 2081.44 388.086 Q2077.83 384.475 2077.83 378.318 Q2077.83 371.952 2081.26 368.225 Q2084.71 364.475 2090.54 364.475 Q2095.77 364.475 2098.8 367.855 Q2101.86 371.212 2101.86 376.999 M2097.6 375.749 Q2097.55 372.253 2095.63 370.17 Q2093.74 368.087 2090.59 368.087 Q2087.02 368.087 2084.87 370.1 Q2082.74 372.114 2082.42 375.772 L2097.6 375.749 Z" fill="#000000" fill-rule="evenodd" fill-opacity="1" /><path clip-path="url(#clip720)" d="M2123.87 369.082 Q2123.16 368.665 2122.3 368.48 Q2121.47 368.272 2120.45 368.272 Q2116.84 368.272 2114.89 370.633 Q2112.97 372.971 2112.97 377.369 L2112.97 391.026 L2108.69 391.026 L2108.69 365.1 L2112.97 365.1 L2112.97 369.128 Q2114.31 366.767 2116.47 365.633 Q2118.62 364.475 2121.7 364.475 Q2122.14 364.475 2122.67 364.545 Q2123.2 364.591 2123.85 364.707 L2123.87 369.082 Z" fill="#000000" fill-rule="evenodd" fill-opacity="1" /><path clip-path="url(#clip720)" d="M2146.95 378.087 Q2146.95 373.387 2145.01 370.725 Q2143.09 368.04 2139.71 368.04 Q2136.33 368.04 2134.38 370.725 Q2132.46 373.387 2132.46 378.087 Q2132.46 382.786 2134.38 385.471 Q2136.33 388.133 2139.71 388.133 Q2143.09 388.133 2145.01 385.471 Q2146.95 382.786 2146.95 378.087 M2132.46 369.036 Q2133.8 366.721 2135.84 365.61 Q2137.9 364.475 2140.75 364.475 Q2145.47 364.475 2148.41 368.225 Q2151.37 371.975 2151.37 378.087 Q2151.37 384.198 2148.41 387.948 Q2145.47 391.698 2140.75 391.698 Q2137.9 391.698 2135.84 390.586 Q2133.8 389.452 2132.46 387.137 L2132.46 391.026 L2128.18 391.026 L2128.18 355.008 L2132.46 355.008 L2132.46 369.036 Z" fill="#000000" fill-rule="evenodd" fill-opacity="1" /><path clip-path="url(#clip720)" d="M2170.22 377.994 Q2165.05 377.994 2163.06 379.174 Q2161.07 380.355 2161.07 383.202 Q2161.07 385.471 2162.55 386.813 Q2164.06 388.133 2166.63 388.133 Q2170.17 388.133 2172.3 385.633 Q2174.45 383.11 2174.45 378.943 L2174.45 377.994 L2170.22 377.994 M2178.71 376.235 L2178.71 391.026 L2174.45 391.026 L2174.45 387.091 Q2172.99 389.452 2170.82 390.586 Q2168.64 391.698 2165.49 391.698 Q2161.51 391.698 2159.15 389.475 Q2156.81 387.23 2156.81 383.48 Q2156.81 379.105 2159.73 376.883 Q2162.67 374.661 2168.48 374.661 L2174.45 374.661 L2174.45 374.244 Q2174.45 371.304 2172.51 369.707 Q2170.59 368.087 2167.09 368.087 Q2164.87 368.087 2162.76 368.619 Q2160.66 369.151 2158.71 370.216 L2158.71 366.281 Q2161.05 365.378 2163.25 364.938 Q2165.45 364.475 2167.53 364.475 Q2173.16 364.475 2175.93 367.392 Q2178.71 370.309 2178.71 376.235 Z" fill="#000000" fill-rule="evenodd" fill-opacity="1" /><path clip-path="url(#clip720)" d="M2209.04 375.378 L2209.04 391.026 L2204.78 391.026 L2204.78 375.517 Q2204.78 371.837 2203.34 370.008 Q2201.91 368.179 2199.04 368.179 Q2195.59 368.179 2193.6 370.378 Q2191.61 372.577 2191.61 376.374 L2191.61 391.026 L2187.32 391.026 L2187.32 365.1 L2191.61 365.1 L2191.61 369.128 Q2193.13 366.79 2195.19 365.633 Q2197.28 364.475 2199.98 364.475 Q2204.45 364.475 2206.74 367.253 Q2209.04 370.008 2209.04 375.378 Z" fill="#000000" fill-rule="evenodd" fill-opacity="1" /><path clip-path="url(#clip720)" d="M2234.59 369.036 L2234.59 355.008 L2238.85 355.008 L2238.85 391.026 L2234.59 391.026 L2234.59 387.137 Q2233.25 389.452 2231.19 390.586 Q2229.15 391.698 2226.28 391.698 Q2221.58 391.698 2218.62 387.948 Q2215.68 384.198 2215.68 378.087 Q2215.68 371.975 2218.62 368.225 Q2221.58 364.475 2226.28 364.475 Q2229.15 364.475 2231.19 365.61 Q2233.25 366.721 2234.59 369.036 M2220.08 378.087 Q2220.08 382.786 2222 385.471 Q2223.94 388.133 2227.32 388.133 Q2230.7 388.133 2232.65 385.471 Q2234.59 382.786 2234.59 378.087 Q2234.59 373.387 2232.65 370.725 Q2230.7 368.04 2227.32 368.04 Q2223.94 368.04 2222 370.725 Q2220.08 373.387 2220.08 378.087 Z" fill="#000000" fill-rule="evenodd" fill-opacity="1" /></svg>
