<?xml version="1.0" encoding="utf-8"?>
<svg xmlns="http://www.w3.org/2000/svg" xmlns:xlink="http://www.w3.org/1999/xlink" width="600" height="400" viewBox="0 0 2400 1600">
<defs>
  <clipPath id="clip750">
    <rect x="0" y="0" width="2400" height="1600"/>
  </clipPath>
</defs>
<path clip-path="url(#clip750)" d="
M0 1600 L2400 1600 L2400 0 L0 0  Z
  " fill="#ffffff" fill-rule="evenodd" fill-opacity="1"/>
<defs>
  <clipPath id="clip751">
    <rect x="480" y="0" width="1681" height="1600"/>
  </clipPath>
</defs>
<path clip-path="url(#clip750)" d="
M287.366 1410.9 L2352.76 1410.9 L2352.76 123.472 L287.366 123.472  Z
  " fill="#ffffff" fill-rule="evenodd" fill-opacity="1"/>
<defs>
  <clipPath id="clip752">
    <rect x="287" y="123" width="2066" height="1288"/>
  </clipPath>
</defs>
<polyline clip-path="url(#clip752)" style="stroke:#000000; stroke-linecap:butt; stroke-linejoin:round; stroke-width:2; stroke-opacity:0.1; fill:none" points="
  1023.01,1410.9 1023.01,123.472 
  "/>
<polyline clip-path="url(#clip752)" style="stroke:#000000; stroke-linecap:butt; stroke-linejoin:round; stroke-width:2; stroke-opacity:0.1; fill:none" points="
  1845.29,1410.9 1845.29,123.472 
  "/>
<polyline clip-path="url(#clip750)" style="stroke:#000000; stroke-linecap:butt; stroke-linejoin:round; stroke-width:4; stroke-opacity:1; fill:none" points="
  287.366,1410.9 2352.76,1410.9 
  "/>
<polyline clip-path="url(#clip750)" style="stroke:#000000; stroke-linecap:butt; stroke-linejoin:round; stroke-width:4; stroke-opacity:1; fill:none" points="
  1023.01,1410.9 1023.01,1395.45 
  "/>
<polyline clip-path="url(#clip750)" style="stroke:#000000; stroke-linecap:butt; stroke-linejoin:round; stroke-width:4; stroke-opacity:1; fill:none" points="
  1845.29,1410.9 1845.29,1395.45 
  "/>
<path clip-path="url(#clip750)" d="M987.99 1489.17 L995.629 1489.17 L995.629 1462.8 L987.319 1464.47 L987.319 1460.21 L995.583 1458.54 L1000.26 1458.54 L1000.26 1489.17 L1007.9 1489.17 L1007.9 1493.1 L987.99 1493.1 L987.99 1489.17 Z" fill="#000000" fill-rule="evenodd" fill-opacity="1" /><path clip-path="url(#clip750)" d="M1027.34 1461.62 Q1023.73 1461.62 1021.9 1465.19 Q1020.1 1468.73 1020.1 1475.86 Q1020.1 1482.97 1021.9 1486.53 Q1023.73 1490.07 1027.34 1490.07 Q1030.98 1490.07 1032.78 1486.53 Q1034.61 1482.97 1034.61 1475.86 Q1034.61 1468.73 1032.78 1465.19 Q1030.98 1461.62 1027.34 1461.62 M1027.34 1457.92 Q1033.15 1457.92 1036.21 1462.53 Q1039.29 1467.11 1039.29 1475.86 Q1039.29 1484.59 1036.21 1489.19 Q1033.15 1493.78 1027.34 1493.78 Q1021.53 1493.78 1018.45 1489.19 Q1015.4 1484.59 1015.4 1475.86 Q1015.4 1467.11 1018.45 1462.53 Q1021.53 1457.92 1027.34 1457.92 Z" fill="#000000" fill-rule="evenodd" fill-opacity="1" /><path clip-path="url(#clip750)" d="M1048.99 1440.11 Q1046.06 1440.11 1044.57 1443.01 Q1043.1 1445.89 1043.1 1451.68 Q1043.1 1457.46 1044.57 1460.35 Q1046.06 1463.23 1048.99 1463.23 Q1051.94 1463.23 1053.41 1460.35 Q1054.9 1457.46 1054.9 1451.68 Q1054.9 1445.89 1053.41 1443.01 Q1051.94 1440.11 1048.99 1440.11 M1048.99 1437.11 Q1053.71 1437.11 1056.19 1440.85 Q1058.7 1444.57 1058.7 1451.68 Q1058.7 1458.77 1056.19 1462.51 Q1053.71 1466.24 1048.99 1466.24 Q1044.27 1466.24 1041.77 1462.51 Q1039.29 1458.77 1039.29 1451.68 Q1039.29 1444.57 1041.77 1440.85 Q1044.27 1437.11 1048.99 1437.11 Z" fill="#000000" fill-rule="evenodd" fill-opacity="1" /><path clip-path="url(#clip750)" d="M1811.07 1489.17 L1818.7 1489.17 L1818.7 1462.8 L1810.39 1464.47 L1810.39 1460.21 L1818.66 1458.54 L1823.33 1458.54 L1823.33 1489.17 L1830.97 1489.17 L1830.97 1493.1 L1811.07 1493.1 L1811.07 1489.17 Z" fill="#000000" fill-rule="evenodd" fill-opacity="1" /><path clip-path="url(#clip750)" d="M1850.42 1461.62 Q1846.81 1461.62 1844.98 1465.19 Q1843.17 1468.73 1843.17 1475.86 Q1843.17 1482.97 1844.98 1486.53 Q1846.81 1490.07 1850.42 1490.07 Q1854.05 1490.07 1855.86 1486.53 Q1857.69 1482.97 1857.69 1475.86 Q1857.69 1468.73 1855.86 1465.19 Q1854.05 1461.62 1850.42 1461.62 M1850.42 1457.92 Q1856.23 1457.92 1859.28 1462.53 Q1862.36 1467.11 1862.36 1475.86 Q1862.36 1484.59 1859.28 1489.19 Q1856.23 1493.78 1850.42 1493.78 Q1844.61 1493.78 1841.53 1489.19 Q1838.47 1484.59 1838.47 1475.86 Q1838.47 1467.11 1841.53 1462.53 Q1844.61 1457.92 1850.42 1457.92 Z" fill="#000000" fill-rule="evenodd" fill-opacity="1" /><path clip-path="url(#clip750)" d="M1866.93 1462.5 L1880.19 1462.5 L1880.19 1465.69 L1862.36 1465.69 L1862.36 1462.5 Q1864.52 1460.26 1868.25 1456.5 Q1871.99 1452.72 1872.95 1451.63 Q1874.77 1449.58 1875.49 1448.16 Q1876.22 1446.74 1876.22 1445.36 Q1876.22 1443.12 1874.64 1441.71 Q1873.08 1440.3 1870.56 1440.3 Q1868.77 1440.3 1866.78 1440.92 Q1864.81 1441.54 1862.55 1442.8 L1862.55 1438.97 Q1864.84 1438.05 1866.84 1437.58 Q1868.83 1437.11 1870.49 1437.11 Q1874.85 1437.11 1877.45 1439.29 Q1880.04 1441.47 1880.04 1445.12 Q1880.04 1446.85 1879.38 1448.41 Q1878.74 1449.95 1877.03 1452.06 Q1876.56 1452.6 1874.04 1455.22 Q1871.52 1457.81 1866.93 1462.5 Z" fill="#000000" fill-rule="evenodd" fill-opacity="1" /><path clip-path="url(#clip750)" d="M1122.6 1528.42 L1122.6 1538.54 L1134.66 1538.54 L1134.66 1543.09 L1122.6 1543.09 L1122.6 1562.44 Q1122.6 1566.8 1123.77 1568.04 Q1124.98 1569.28 1128.64 1569.28 L1134.66 1569.28 L1134.66 1574.19 L1128.64 1574.19 Q1121.86 1574.19 1119.29 1571.67 Q1116.71 1569.12 1116.71 1562.44 L1116.71 1543.09 L1112.41 1543.09 L1112.41 1538.54 L1116.71 1538.54 L1116.71 1528.42 L1122.6 1528.42 Z" fill="#000000" fill-rule="evenodd" fill-opacity="1" /><path clip-path="url(#clip750)" d="M1142.36 1538.54 L1148.22 1538.54 L1148.22 1574.19 L1142.36 1574.19 L1142.36 1538.54 M1142.36 1524.66 L1148.22 1524.66 L1148.22 1532.08 L1142.36 1532.08 L1142.36 1524.66 Z" fill="#000000" fill-rule="evenodd" fill-opacity="1" /><path clip-path="url(#clip750)" d="M1188.23 1545.38 Q1190.42 1541.43 1193.48 1539.56 Q1196.53 1537.68 1200.67 1537.68 Q1206.24 1537.68 1209.27 1541.59 Q1212.29 1545.48 1212.29 1552.67 L1212.29 1574.19 L1206.4 1574.19 L1206.4 1552.86 Q1206.4 1547.74 1204.59 1545.25 Q1202.77 1542.77 1199.05 1542.77 Q1194.5 1542.77 1191.86 1545.79 Q1189.21 1548.82 1189.21 1554.04 L1189.21 1574.19 L1183.33 1574.19 L1183.33 1552.86 Q1183.33 1547.7 1181.51 1545.25 Q1179.7 1542.77 1175.91 1542.77 Q1171.42 1542.77 1168.78 1545.83 Q1166.14 1548.85 1166.14 1554.04 L1166.14 1574.19 L1160.25 1574.19 L1160.25 1538.54 L1166.14 1538.54 L1166.14 1544.08 Q1168.14 1540.8 1170.94 1539.24 Q1173.75 1537.68 1177.6 1537.68 Q1181.48 1537.68 1184.18 1539.65 Q1186.92 1541.62 1188.23 1545.38 Z" fill="#000000" fill-rule="evenodd" fill-opacity="1" /><path clip-path="url(#clip750)" d="M1254.46 1554.9 L1254.46 1557.76 L1227.54 1557.76 Q1227.92 1563.81 1231.16 1566.99 Q1234.44 1570.14 1240.27 1570.14 Q1243.64 1570.14 1246.79 1569.32 Q1249.97 1568.49 1253.09 1566.83 L1253.09 1572.37 Q1249.94 1573.71 1246.63 1574.41 Q1243.32 1575.11 1239.92 1575.11 Q1231.39 1575.11 1226.39 1570.14 Q1221.42 1565.18 1221.42 1556.71 Q1221.42 1547.96 1226.13 1542.83 Q1230.88 1537.68 1238.9 1537.68 Q1246.09 1537.68 1250.26 1542.33 Q1254.46 1546.94 1254.46 1554.9 M1248.61 1553.18 Q1248.54 1548.37 1245.9 1545.51 Q1243.29 1542.64 1238.96 1542.64 Q1234.06 1542.64 1231.1 1545.41 Q1228.17 1548.18 1227.73 1553.21 L1248.61 1553.18 Z" fill="#000000" fill-rule="evenodd" fill-opacity="1" /><path clip-path="url(#clip750)" d="M1315.29 1554.9 L1315.29 1557.76 L1288.36 1557.76 Q1288.74 1563.81 1291.99 1566.99 Q1295.27 1570.14 1301.09 1570.14 Q1304.46 1570.14 1307.62 1569.32 Q1310.8 1568.49 1313.92 1566.83 L1313.92 1572.37 Q1310.77 1573.71 1307.46 1574.41 Q1304.15 1575.11 1300.74 1575.11 Q1292.21 1575.11 1287.21 1570.14 Q1282.25 1565.18 1282.25 1556.71 Q1282.25 1547.96 1286.96 1542.83 Q1291.7 1537.68 1299.72 1537.68 Q1306.92 1537.68 1311.09 1542.33 Q1315.29 1546.94 1315.29 1554.9 M1309.43 1553.18 Q1309.37 1548.37 1306.72 1545.51 Q1304.11 1542.64 1299.79 1542.64 Q1294.88 1542.64 1291.92 1545.41 Q1289 1548.18 1288.55 1553.21 L1309.43 1553.18 Z" fill="#000000" fill-rule="evenodd" fill-opacity="1" /><path clip-path="url(#clip750)" d="M1324.9 1524.66 L1330.76 1524.66 L1330.76 1574.19 L1324.9 1574.19 L1324.9 1524.66 Z" fill="#000000" fill-rule="evenodd" fill-opacity="1" /><path clip-path="url(#clip750)" d="M1359.21 1556.27 Q1352.11 1556.27 1349.37 1557.89 Q1346.64 1559.51 1346.64 1563.43 Q1346.64 1566.55 1348.67 1568.39 Q1350.74 1570.21 1354.28 1570.21 Q1359.15 1570.21 1362.07 1566.77 Q1365.03 1563.3 1365.03 1557.57 L1365.03 1556.27 L1359.21 1556.27 M1370.89 1553.85 L1370.89 1574.19 L1365.03 1574.19 L1365.03 1568.77 Q1363.03 1572.02 1360.04 1573.58 Q1357.05 1575.11 1352.72 1575.11 Q1347.24 1575.11 1344 1572.05 Q1340.78 1568.97 1340.78 1563.81 Q1340.78 1557.79 1344.79 1554.74 Q1348.83 1551.68 1356.82 1551.68 L1365.03 1551.68 L1365.03 1551.11 Q1365.03 1547.07 1362.36 1544.87 Q1359.72 1542.64 1354.91 1542.64 Q1351.86 1542.64 1348.96 1543.38 Q1346.06 1544.11 1343.39 1545.57 L1343.39 1540.16 Q1346.61 1538.92 1349.63 1538.31 Q1352.65 1537.68 1355.52 1537.68 Q1363.25 1537.68 1367.07 1541.69 Q1370.89 1545.7 1370.89 1553.85 Z" fill="#000000" fill-rule="evenodd" fill-opacity="1" /><path clip-path="url(#clip750)" d="M1388.62 1568.84 L1388.62 1587.74 L1382.73 1587.74 L1382.73 1538.54 L1388.62 1538.54 L1388.62 1543.95 Q1390.47 1540.77 1393.27 1539.24 Q1396.1 1537.68 1400.01 1537.68 Q1406.51 1537.68 1410.55 1542.83 Q1414.62 1547.99 1414.62 1556.39 Q1414.62 1564.8 1410.55 1569.95 Q1406.51 1575.11 1400.01 1575.11 Q1396.1 1575.11 1393.27 1573.58 Q1390.47 1572.02 1388.62 1568.84 M1408.54 1556.39 Q1408.54 1549.93 1405.87 1546.27 Q1403.23 1542.58 1398.58 1542.58 Q1393.93 1542.58 1391.26 1546.27 Q1388.62 1549.93 1388.62 1556.39 Q1388.62 1562.85 1391.26 1566.55 Q1393.93 1570.21 1398.58 1570.21 Q1403.23 1570.21 1405.87 1566.55 Q1408.54 1562.85 1408.54 1556.39 Z" fill="#000000" fill-rule="evenodd" fill-opacity="1" /><path clip-path="url(#clip750)" d="M1447.06 1539.59 L1447.06 1545.13 Q1444.57 1543.85 1441.9 1543.22 Q1439.23 1542.58 1436.36 1542.58 Q1432 1542.58 1429.81 1543.92 Q1427.64 1545.25 1427.64 1547.93 Q1427.64 1549.96 1429.2 1551.14 Q1430.76 1552.29 1435.47 1553.34 L1437.48 1553.78 Q1443.71 1555.12 1446.32 1557.57 Q1448.97 1559.99 1448.97 1564.35 Q1448.97 1569.32 1445.02 1572.21 Q1441.1 1575.11 1434.23 1575.11 Q1431.37 1575.11 1428.25 1574.54 Q1425.16 1573.99 1421.72 1572.88 L1421.72 1566.83 Q1424.97 1568.52 1428.12 1569.38 Q1431.27 1570.21 1434.36 1570.21 Q1438.49 1570.21 1440.72 1568.81 Q1442.95 1567.37 1442.95 1564.8 Q1442.95 1562.41 1441.33 1561.14 Q1439.74 1559.86 1434.29 1558.68 L1432.26 1558.21 Q1426.81 1557.06 1424.39 1554.71 Q1421.98 1552.32 1421.98 1548.18 Q1421.98 1543.15 1425.54 1540.42 Q1429.11 1537.68 1435.66 1537.68 Q1438.91 1537.68 1441.77 1538.16 Q1444.64 1538.63 1447.06 1539.59 Z" fill="#000000" fill-rule="evenodd" fill-opacity="1" /><path clip-path="url(#clip750)" d="M1488.78 1554.9 L1488.78 1557.76 L1461.86 1557.76 Q1462.24 1563.81 1465.49 1566.99 Q1468.76 1570.14 1474.59 1570.14 Q1477.96 1570.14 1481.11 1569.32 Q1484.3 1568.49 1487.42 1566.83 L1487.42 1572.37 Q1484.26 1573.71 1480.95 1574.41 Q1477.64 1575.11 1474.24 1575.11 Q1465.71 1575.11 1460.71 1570.14 Q1455.75 1565.18 1455.75 1556.71 Q1455.75 1547.96 1460.46 1542.83 Q1465.2 1537.68 1473.22 1537.68 Q1480.41 1537.68 1484.58 1542.33 Q1488.78 1546.94 1488.78 1554.9 M1482.93 1553.18 Q1482.86 1548.37 1480.22 1545.51 Q1477.61 1542.64 1473.28 1542.64 Q1468.38 1542.64 1465.42 1545.41 Q1462.49 1548.18 1462.05 1553.21 L1482.93 1553.18 Z" fill="#000000" fill-rule="evenodd" fill-opacity="1" /><path clip-path="url(#clip750)" d="M1521.85 1543.95 L1521.85 1524.66 L1527.71 1524.66 L1527.71 1574.19 L1521.85 1574.19 L1521.85 1568.84 Q1520.01 1572.02 1517.18 1573.58 Q1514.37 1575.11 1510.43 1575.11 Q1503.97 1575.11 1499.89 1569.95 Q1495.85 1564.8 1495.85 1556.39 Q1495.85 1547.99 1499.89 1542.83 Q1503.97 1537.68 1510.43 1537.68 Q1514.37 1537.68 1517.18 1539.24 Q1520.01 1540.77 1521.85 1543.95 M1501.9 1556.39 Q1501.9 1562.85 1504.54 1566.55 Q1507.21 1570.21 1511.86 1570.21 Q1516.51 1570.21 1519.18 1566.55 Q1521.85 1562.85 1521.85 1556.39 Q1521.85 1549.93 1519.18 1546.27 Q1516.51 1542.58 1511.86 1542.58 Q1507.21 1542.58 1504.54 1546.27 Q1501.9 1549.93 1501.9 1556.39 Z" fill="#000000" fill-rule="evenodd" fill-opacity="1" /><polyline clip-path="url(#clip752)" style="stroke:#000000; stroke-linecap:butt; stroke-linejoin:round; stroke-width:2; stroke-opacity:0.1; fill:none" points="
  287.366,1315.93 2352.76,1315.93 
  "/>
<polyline clip-path="url(#clip752)" style="stroke:#000000; stroke-linecap:butt; stroke-linejoin:round; stroke-width:2; stroke-opacity:0.1; fill:none" points="
  287.366,1055.23 2352.76,1055.23 
  "/>
<polyline clip-path="url(#clip752)" style="stroke:#000000; stroke-linecap:butt; stroke-linejoin:round; stroke-width:2; stroke-opacity:0.1; fill:none" points="
  287.366,794.533 2352.76,794.533 
  "/>
<polyline clip-path="url(#clip752)" style="stroke:#000000; stroke-linecap:butt; stroke-linejoin:round; stroke-width:2; stroke-opacity:0.1; fill:none" points="
  287.366,533.833 2352.76,533.833 
  "/>
<polyline clip-path="url(#clip752)" style="stroke:#000000; stroke-linecap:butt; stroke-linejoin:round; stroke-width:2; stroke-opacity:0.1; fill:none" points="
  287.366,273.134 2352.76,273.134 
  "/>
<polyline clip-path="url(#clip750)" style="stroke:#000000; stroke-linecap:butt; stroke-linejoin:round; stroke-width:4; stroke-opacity:1; fill:none" points="
  287.366,1410.9 287.366,123.472 
  "/>
<polyline clip-path="url(#clip750)" style="stroke:#000000; stroke-linecap:butt; stroke-linejoin:round; stroke-width:4; stroke-opacity:1; fill:none" points="
  287.366,1315.93 312.151,1315.93 
  "/>
<polyline clip-path="url(#clip750)" style="stroke:#000000; stroke-linecap:butt; stroke-linejoin:round; stroke-width:4; stroke-opacity:1; fill:none" points="
  287.366,1055.23 312.151,1055.23 
  "/>
<polyline clip-path="url(#clip750)" style="stroke:#000000; stroke-linecap:butt; stroke-linejoin:round; stroke-width:4; stroke-opacity:1; fill:none" points="
  287.366,794.533 312.151,794.533 
  "/>
<polyline clip-path="url(#clip750)" style="stroke:#000000; stroke-linecap:butt; stroke-linejoin:round; stroke-width:4; stroke-opacity:1; fill:none" points="
  287.366,533.833 312.151,533.833 
  "/>
<polyline clip-path="url(#clip750)" style="stroke:#000000; stroke-linecap:butt; stroke-linejoin:round; stroke-width:4; stroke-opacity:1; fill:none" points="
  287.366,273.134 312.151,273.134 
  "/>
<path clip-path="url(#clip750)" d="M115.256 1316.38 L144.931 1316.38 L144.931 1320.32 L115.256 1320.32 L115.256 1316.38 Z" fill="#000000" fill-rule="evenodd" fill-opacity="1" /><path clip-path="url(#clip750)" d="M155.834 1329.28 L163.473 1329.28 L163.473 1302.91 L155.163 1304.58 L155.163 1300.32 L163.427 1298.65 L168.102 1298.65 L168.102 1329.28 L175.741 1329.28 L175.741 1333.21 L155.834 1333.21 L155.834 1329.28 Z" fill="#000000" fill-rule="evenodd" fill-opacity="1" /><path clip-path="url(#clip750)" d="M185.186 1327.33 L190.07 1327.33 L190.07 1333.21 L185.186 1333.21 L185.186 1327.33 Z" fill="#000000" fill-rule="evenodd" fill-opacity="1" /><path clip-path="url(#clip750)" d="M204.283 1329.28 L220.602 1329.28 L220.602 1333.21 L198.658 1333.21 L198.658 1329.28 Q201.32 1326.52 205.903 1321.89 Q210.51 1317.24 211.69 1315.9 Q213.936 1313.37 214.815 1311.64 Q215.718 1309.88 215.718 1308.19 Q215.718 1305.43 213.774 1303.7 Q211.852 1301.96 208.75 1301.96 Q206.551 1301.96 204.098 1302.73 Q201.667 1303.49 198.889 1305.04 L198.889 1300.32 Q201.713 1299.18 204.167 1298.61 Q206.621 1298.03 208.658 1298.03 Q214.028 1298.03 217.223 1300.71 Q220.417 1303.4 220.417 1307.89 Q220.417 1310.02 219.607 1311.94 Q218.82 1313.84 216.713 1316.43 Q216.135 1317.1 213.033 1320.32 Q209.931 1323.51 204.283 1329.28 Z" fill="#000000" fill-rule="evenodd" fill-opacity="1" /><path clip-path="url(#clip750)" d="M230.463 1298.65 L248.82 1298.65 L248.82 1302.59 L234.746 1302.59 L234.746 1311.06 Q235.764 1310.71 236.783 1310.55 Q237.801 1310.36 238.82 1310.36 Q244.607 1310.36 247.986 1313.54 Q251.366 1316.71 251.366 1322.12 Q251.366 1327.7 247.894 1330.8 Q244.421 1333.88 238.102 1333.88 Q235.926 1333.88 233.658 1333.51 Q231.412 1333.14 229.005 1332.4 L229.005 1327.7 Q231.088 1328.84 233.31 1329.39 Q235.533 1329.95 238.009 1329.95 Q242.014 1329.95 244.352 1327.84 Q246.69 1325.73 246.69 1322.12 Q246.69 1318.51 244.352 1316.41 Q242.014 1314.3 238.009 1314.3 Q236.135 1314.3 234.26 1314.72 Q232.408 1315.13 230.463 1316.01 L230.463 1298.65 Z" fill="#000000" fill-rule="evenodd" fill-opacity="1" /><path clip-path="url(#clip750)" d="M114.26 1055.68 L143.936 1055.68 L143.936 1059.62 L114.26 1059.62 L114.26 1055.68 Z" fill="#000000" fill-rule="evenodd" fill-opacity="1" /><path clip-path="url(#clip750)" d="M154.839 1068.58 L162.477 1068.58 L162.477 1042.21 L154.167 1043.88 L154.167 1039.62 L162.431 1037.95 L167.107 1037.95 L167.107 1068.58 L174.746 1068.58 L174.746 1072.51 L154.839 1072.51 L154.839 1068.58 Z" fill="#000000" fill-rule="evenodd" fill-opacity="1" /><path clip-path="url(#clip750)" d="M184.19 1066.63 L189.075 1066.63 L189.075 1072.51 L184.19 1072.51 L184.19 1066.63 Z" fill="#000000" fill-rule="evenodd" fill-opacity="1" /><path clip-path="url(#clip750)" d="M209.26 1041.03 Q205.649 1041.03 203.82 1044.6 Q202.014 1048.14 202.014 1055.27 Q202.014 1062.37 203.82 1065.94 Q205.649 1069.48 209.26 1069.48 Q212.894 1069.48 214.699 1065.94 Q216.528 1062.37 216.528 1055.27 Q216.528 1048.14 214.699 1044.6 Q212.894 1041.03 209.26 1041.03 M209.26 1037.33 Q215.07 1037.33 218.125 1041.93 Q221.204 1046.52 221.204 1055.27 Q221.204 1063.99 218.125 1068.6 Q215.07 1073.18 209.26 1073.18 Q203.449 1073.18 200.371 1068.6 Q197.315 1063.99 197.315 1055.27 Q197.315 1046.52 200.371 1041.93 Q203.449 1037.33 209.26 1037.33 Z" fill="#000000" fill-rule="evenodd" fill-opacity="1" /><path clip-path="url(#clip750)" d="M239.422 1041.03 Q235.81 1041.03 233.982 1044.6 Q232.176 1048.14 232.176 1055.27 Q232.176 1062.37 233.982 1065.94 Q235.81 1069.48 239.422 1069.48 Q243.056 1069.48 244.861 1065.94 Q246.69 1062.37 246.69 1055.27 Q246.69 1048.14 244.861 1044.6 Q243.056 1041.03 239.422 1041.03 M239.422 1037.33 Q245.232 1037.33 248.287 1041.93 Q251.366 1046.52 251.366 1055.27 Q251.366 1063.99 248.287 1068.6 Q245.232 1073.18 239.422 1073.18 Q233.611 1073.18 230.533 1068.6 Q227.477 1063.99 227.477 1055.27 Q227.477 1046.52 230.533 1041.93 Q233.611 1037.33 239.422 1037.33 Z" fill="#000000" fill-rule="evenodd" fill-opacity="1" /><path clip-path="url(#clip750)" d="M115.256 794.984 L144.931 794.984 L144.931 798.919 L115.256 798.919 L115.256 794.984 Z" fill="#000000" fill-rule="evenodd" fill-opacity="1" /><path clip-path="url(#clip750)" d="M165.024 780.332 Q161.413 780.332 159.584 783.896 Q157.778 787.438 157.778 794.568 Q157.778 801.674 159.584 805.239 Q161.413 808.78 165.024 808.78 Q168.658 808.78 170.464 805.239 Q172.292 801.674 172.292 794.568 Q172.292 787.438 170.464 783.896 Q168.658 780.332 165.024 780.332 M165.024 776.628 Q170.834 776.628 173.889 781.234 Q176.968 785.818 176.968 794.568 Q176.968 803.294 173.889 807.901 Q170.834 812.484 165.024 812.484 Q159.214 812.484 156.135 807.901 Q153.079 803.294 153.079 794.568 Q153.079 785.818 156.135 781.234 Q159.214 776.628 165.024 776.628 Z" fill="#000000" fill-rule="evenodd" fill-opacity="1" /><path clip-path="url(#clip750)" d="M185.186 805.933 L190.07 805.933 L190.07 811.813 L185.186 811.813 L185.186 805.933 Z" fill="#000000" fill-rule="evenodd" fill-opacity="1" /><path clip-path="url(#clip750)" d="M199.075 777.253 L221.297 777.253 L221.297 779.244 L208.75 811.813 L203.866 811.813 L215.672 781.188 L199.075 781.188 L199.075 777.253 Z" fill="#000000" fill-rule="evenodd" fill-opacity="1" /><path clip-path="url(#clip750)" d="M230.463 777.253 L248.82 777.253 L248.82 781.188 L234.746 781.188 L234.746 789.66 Q235.764 789.313 236.783 789.151 Q237.801 788.966 238.82 788.966 Q244.607 788.966 247.986 792.137 Q251.366 795.308 251.366 800.725 Q251.366 806.304 247.894 809.405 Q244.421 812.484 238.102 812.484 Q235.926 812.484 233.658 812.114 Q231.412 811.743 229.005 811.003 L229.005 806.304 Q231.088 807.438 233.31 807.993 Q235.533 808.549 238.009 808.549 Q242.014 808.549 244.352 806.443 Q246.69 804.336 246.69 800.725 Q246.69 797.114 244.352 795.007 Q242.014 792.901 238.009 792.901 Q236.135 792.901 234.26 793.318 Q232.408 793.734 230.463 794.614 L230.463 777.253 Z" fill="#000000" fill-rule="evenodd" fill-opacity="1" /><path clip-path="url(#clip750)" d="M114.26 534.285 L143.936 534.285 L143.936 538.22 L114.26 538.22 L114.26 534.285 Z" fill="#000000" fill-rule="evenodd" fill-opacity="1" /><path clip-path="url(#clip750)" d="M164.028 519.632 Q160.417 519.632 158.589 523.197 Q156.783 526.739 156.783 533.868 Q156.783 540.975 158.589 544.539 Q160.417 548.081 164.028 548.081 Q167.663 548.081 169.468 544.539 Q171.297 540.975 171.297 533.868 Q171.297 526.739 169.468 523.197 Q167.663 519.632 164.028 519.632 M164.028 515.928 Q169.839 515.928 172.894 520.535 Q175.973 525.118 175.973 533.868 Q175.973 542.595 172.894 547.201 Q169.839 551.785 164.028 551.785 Q158.218 551.785 155.14 547.201 Q152.084 542.595 152.084 533.868 Q152.084 525.118 155.14 520.535 Q158.218 515.928 164.028 515.928 Z" fill="#000000" fill-rule="evenodd" fill-opacity="1" /><path clip-path="url(#clip750)" d="M184.19 545.234 L189.075 545.234 L189.075 551.113 L184.19 551.113 L184.19 545.234 Z" fill="#000000" fill-rule="evenodd" fill-opacity="1" /><path clip-path="url(#clip750)" d="M199.306 516.553 L217.662 516.553 L217.662 520.489 L203.588 520.489 L203.588 528.961 Q204.607 528.614 205.625 528.452 Q206.644 528.266 207.662 528.266 Q213.449 528.266 216.829 531.438 Q220.209 534.609 220.209 540.026 Q220.209 545.604 216.736 548.706 Q213.264 551.785 206.945 551.785 Q204.769 551.785 202.5 551.414 Q200.255 551.044 197.848 550.303 L197.848 545.604 Q199.931 546.738 202.153 547.294 Q204.375 547.85 206.852 547.85 Q210.857 547.85 213.195 545.743 Q215.533 543.637 215.533 540.026 Q215.533 536.414 213.195 534.308 Q210.857 532.202 206.852 532.202 Q204.977 532.202 203.102 532.618 Q201.25 533.035 199.306 533.914 L199.306 516.553 Z" fill="#000000" fill-rule="evenodd" fill-opacity="1" /><path clip-path="url(#clip750)" d="M239.422 519.632 Q235.81 519.632 233.982 523.197 Q232.176 526.739 232.176 533.868 Q232.176 540.975 233.982 544.539 Q235.81 548.081 239.422 548.081 Q243.056 548.081 244.861 544.539 Q246.69 540.975 246.69 533.868 Q246.69 526.739 244.861 523.197 Q243.056 519.632 239.422 519.632 M239.422 515.928 Q245.232 515.928 248.287 520.535 Q251.366 525.118 251.366 533.868 Q251.366 542.595 248.287 547.201 Q245.232 551.785 239.422 551.785 Q233.611 551.785 230.533 547.201 Q227.477 542.595 227.477 533.868 Q227.477 525.118 230.533 520.535 Q233.611 515.928 239.422 515.928 Z" fill="#000000" fill-rule="evenodd" fill-opacity="1" /><path clip-path="url(#clip750)" d="M115.256 273.585 L144.931 273.585 L144.931 277.521 L115.256 277.521 L115.256 273.585 Z" fill="#000000" fill-rule="evenodd" fill-opacity="1" /><path clip-path="url(#clip750)" d="M165.024 258.933 Q161.413 258.933 159.584 262.498 Q157.778 266.039 157.778 273.169 Q157.778 280.275 159.584 283.84 Q161.413 287.382 165.024 287.382 Q168.658 287.382 170.464 283.84 Q172.292 280.275 172.292 273.169 Q172.292 266.039 170.464 262.498 Q168.658 258.933 165.024 258.933 M165.024 255.229 Q170.834 255.229 173.889 259.835 Q176.968 264.419 176.968 273.169 Q176.968 281.896 173.889 286.502 Q170.834 291.085 165.024 291.085 Q159.214 291.085 156.135 286.502 Q153.079 281.896 153.079 273.169 Q153.079 264.419 156.135 259.835 Q159.214 255.229 165.024 255.229 Z" fill="#000000" fill-rule="evenodd" fill-opacity="1" /><path clip-path="url(#clip750)" d="M185.186 284.534 L190.07 284.534 L190.07 290.414 L185.186 290.414 L185.186 284.534 Z" fill="#000000" fill-rule="evenodd" fill-opacity="1" /><path clip-path="url(#clip750)" d="M204.283 286.479 L220.602 286.479 L220.602 290.414 L198.658 290.414 L198.658 286.479 Q201.32 283.724 205.903 279.095 Q210.51 274.442 211.69 273.099 Q213.936 270.576 214.815 268.84 Q215.718 267.081 215.718 265.391 Q215.718 262.636 213.774 260.9 Q211.852 259.164 208.75 259.164 Q206.551 259.164 204.098 259.928 Q201.667 260.692 198.889 262.243 L198.889 257.521 Q201.713 256.386 204.167 255.808 Q206.621 255.229 208.658 255.229 Q214.028 255.229 217.223 257.914 Q220.417 260.599 220.417 265.09 Q220.417 267.22 219.607 269.141 Q218.82 271.039 216.713 273.632 Q216.135 274.303 213.033 277.521 Q209.931 280.715 204.283 286.479 Z" fill="#000000" fill-rule="evenodd" fill-opacity="1" /><path clip-path="url(#clip750)" d="M230.463 255.854 L248.82 255.854 L248.82 259.789 L234.746 259.789 L234.746 268.261 Q235.764 267.914 236.783 267.752 Q237.801 267.567 238.82 267.567 Q244.607 267.567 247.986 270.738 Q251.366 273.909 251.366 279.326 Q251.366 284.905 247.894 288.007 Q244.421 291.085 238.102 291.085 Q235.926 291.085 233.658 290.715 Q231.412 290.345 229.005 289.604 L229.005 284.905 Q231.088 286.039 233.31 286.595 Q235.533 287.15 238.009 287.15 Q242.014 287.15 244.352 285.044 Q246.69 282.937 246.69 279.326 Q246.69 275.715 244.352 273.609 Q242.014 271.502 238.009 271.502 Q236.135 271.502 234.26 271.919 Q232.408 272.335 230.463 273.215 L230.463 255.854 Z" fill="#000000" fill-rule="evenodd" fill-opacity="1" /><path clip-path="url(#clip750)" d="M33.8307 841.504 Q33.2578 842.491 33.0032 843.668 Q32.7167 844.814 32.7167 846.215 Q32.7167 851.18 35.9632 853.853 Q39.1779 856.495 45.2253 856.495 L64.0042 856.495 L64.0042 862.384 L28.3562 862.384 L28.3562 856.495 L33.8944 856.495 Q30.6479 854.649 29.0883 851.689 Q27.4968 848.729 27.4968 844.496 Q27.4968 843.891 27.5923 843.159 Q27.656 842.427 27.8151 841.536 L33.8307 841.504 Z" fill="#000000" fill-rule="evenodd" fill-opacity="1" /><path clip-path="url(#clip750)" d="M44.7161 806.302 L47.5806 806.302 L47.5806 833.229 Q53.6281 832.847 56.8109 829.6 Q59.9619 826.322 59.9619 820.497 Q59.9619 817.123 59.1344 813.972 Q58.3069 810.789 56.6518 807.67 L62.1899 807.67 Q63.5267 810.821 64.227 814.131 Q64.9272 817.442 64.9272 820.847 Q64.9272 829.377 59.9619 834.374 Q54.9967 839.34 46.5303 839.34 Q37.7774 839.34 32.6531 834.629 Q27.4968 829.887 27.4968 821.866 Q27.4968 814.673 32.1438 810.503 Q36.7589 806.302 44.7161 806.302 M42.9973 812.158 Q38.1912 812.222 35.3266 814.864 Q32.4621 817.473 32.4621 821.802 Q32.4621 826.704 35.2312 829.664 Q38.0002 832.592 43.0292 833.038 L42.9973 812.158 Z" fill="#000000" fill-rule="evenodd" fill-opacity="1" /><path clip-path="url(#clip750)" d="M45.7664 773.232 Q39.4007 773.232 35.8996 775.874 Q32.3984 778.484 32.3984 783.226 Q32.3984 787.937 35.8996 790.578 Q39.4007 793.188 45.7664 793.188 Q52.1003 793.188 55.6014 790.578 Q59.1026 787.937 59.1026 783.226 Q59.1026 778.484 55.6014 775.874 Q52.1003 773.232 45.7664 773.232 M59.58 767.375 Q68.683 767.375 73.1071 771.418 Q77.5631 775.46 77.5631 783.799 Q77.5631 786.886 77.0857 789.624 Q76.6401 792.361 75.6852 794.939 L69.9879 794.939 Q71.3884 792.361 72.0568 789.846 Q72.7252 787.332 72.7252 784.722 Q72.7252 778.961 69.7015 776.096 Q66.7096 773.232 60.6303 773.232 L57.7339 773.232 Q60.885 775.046 62.4446 777.879 Q64.0042 780.712 64.0042 784.658 Q64.0042 791.215 59.0071 795.225 Q54.01 799.236 45.7664 799.236 Q37.491 799.236 32.4939 795.225 Q27.4968 791.215 27.4968 784.658 Q27.4968 780.712 29.0564 777.879 Q30.616 775.046 33.7671 773.232 L28.3562 773.232 L28.3562 767.375 L59.58 767.375 Z" fill="#000000" fill-rule="evenodd" fill-opacity="1" /><path clip-path="url(#clip750)" d="M33.8307 734.656 Q33.2578 735.642 33.0032 736.82 Q32.7167 737.966 32.7167 739.366 Q32.7167 744.331 35.9632 747.005 Q39.1779 749.647 45.2253 749.647 L64.0042 749.647 L64.0042 755.535 L28.3562 755.535 L28.3562 749.647 L33.8944 749.647 Q30.6479 747.801 29.0883 744.841 Q27.4968 741.881 27.4968 737.648 Q27.4968 737.043 27.5923 736.311 Q27.656 735.579 27.8151 734.687 L33.8307 734.656 Z" fill="#000000" fill-rule="evenodd" fill-opacity="1" /><path clip-path="url(#clip750)" d="M44.7161 699.453 L47.5806 699.453 L47.5806 726.38 Q53.6281 725.998 56.8109 722.752 Q59.9619 719.473 59.9619 713.649 Q59.9619 710.275 59.1344 707.124 Q58.3069 703.941 56.6518 700.822 L62.1899 700.822 Q63.5267 703.973 64.227 707.283 Q64.9272 710.593 64.9272 713.999 Q64.9272 722.529 59.9619 727.526 Q54.9967 732.491 46.5303 732.491 Q37.7774 732.491 32.6531 727.781 Q27.4968 723.038 27.4968 715.017 Q27.4968 707.824 32.1438 703.655 Q36.7589 699.453 44.7161 699.453 M42.9973 705.31 Q38.1912 705.373 35.3266 708.015 Q32.4621 710.625 32.4621 714.954 Q32.4621 719.855 35.2312 722.815 Q38.0002 725.744 43.0292 726.189 L42.9973 705.31 Z" fill="#000000" fill-rule="evenodd" fill-opacity="1" /><path clip-path="url(#clip750)" d="M18.2347 684.048 L28.3562 684.048 L28.3562 671.985 L32.9077 671.985 L32.9077 684.048 L52.2594 684.048 Q56.6199 684.048 57.8613 682.871 Q59.1026 681.661 59.1026 678.001 L59.1026 671.985 L64.0042 671.985 L64.0042 678.001 Q64.0042 684.78 61.4897 687.358 Q58.9434 689.937 52.2594 689.937 L32.9077 689.937 L32.9077 694.233 L28.3562 694.233 L28.3562 689.937 L18.2347 689.937 L18.2347 684.048 Z" fill="#000000" fill-rule="evenodd" fill-opacity="1" /><path clip-path="url(#clip750)" d="M1153.71 14.0809 L1153.71 22.0612 Q1149.05 19.8332 1144.92 18.7395 Q1140.79 17.6457 1136.94 17.6457 Q1130.26 17.6457 1126.61 20.2383 Q1123 22.8309 1123 27.611 Q1123 31.6214 1125.39 33.6873 Q1127.83 35.7128 1134.55 36.9686 L1139.49 37.9813 Q1148.65 39.7232 1152.98 44.1387 Q1157.36 48.5136 1157.36 55.8863 Q1157.36 64.6767 1151.44 69.2137 Q1145.57 73.7508 1134.19 73.7508 Q1129.89 73.7508 1125.03 72.7785 Q1120.21 71.8063 1115.02 69.9024 L1115.02 61.4765 Q1120.01 64.2716 1124.79 65.6895 Q1129.57 67.1073 1134.19 67.1073 Q1141.19 67.1073 1145 64.3527 Q1148.81 61.598 1148.81 56.4939 Q1148.81 52.0379 1146.05 49.5264 Q1143.34 47.0148 1137.1 45.759 L1132.12 44.7868 Q1122.96 42.9639 1118.87 39.075 Q1114.78 35.1862 1114.78 28.2591 Q1114.78 20.2383 1120.41 15.6203 Q1126.08 11.0023 1136.01 11.0023 Q1140.26 11.0023 1144.68 11.7719 Q1149.09 12.5416 1153.71 14.0809 Z" fill="#000000" fill-rule="evenodd" fill-opacity="1" /><path clip-path="url(#clip750)" d="M1198.8 44.2197 Q1201.43 45.1109 1203.9 48.0275 Q1206.41 50.9442 1208.92 56.0483 L1217.23 72.576 L1208.44 72.576 L1200.7 57.061 Q1197.7 50.9847 1194.87 48.9997 Q1192.07 47.0148 1187.21 47.0148 L1178.3 47.0148 L1178.3 72.576 L1170.12 72.576 L1170.12 12.096 L1188.59 12.096 Q1198.96 12.096 1204.06 16.4305 Q1209.17 20.7649 1209.17 29.5149 Q1209.17 35.2267 1206.49 38.994 Q1203.86 42.7613 1198.8 44.2197 M1178.3 18.8205 L1178.3 40.2903 L1188.59 40.2903 Q1194.5 40.2903 1197.5 37.5762 Q1200.54 34.8216 1200.54 29.5149 Q1200.54 24.2082 1197.5 21.5346 Q1194.5 18.8205 1188.59 18.8205 L1178.3 18.8205 Z" fill="#000000" fill-rule="evenodd" fill-opacity="1" /><path clip-path="url(#clip750)" d="M1227.76 12.096 L1266 12.096 L1266 18.9825 L1235.94 18.9825 L1235.94 36.8875 L1264.75 36.8875 L1264.75 43.7741 L1235.94 43.7741 L1235.94 65.6895 L1266.73 65.6895 L1266.73 72.576 L1227.76 72.576 L1227.76 12.096 Z" fill="#000000" fill-rule="evenodd" fill-opacity="1" /><path clip-path="url(#clip750)" d="M1300.39 20.1573 L1289.29 50.2555 L1311.53 50.2555 L1300.39 20.1573 M1295.78 12.096 L1305.05 12.096 L1328.1 72.576 L1319.6 72.576 L1314.09 57.061 L1286.82 57.061 L1281.31 72.576 L1272.69 72.576 L1295.78 12.096 Z" fill="#000000" fill-rule="evenodd" fill-opacity="1" /><path clip-path="url(#clip750)" d="M1345.12 18.8205 L1345.12 65.8515 L1355 65.8515 Q1367.52 65.8515 1373.31 60.1802 Q1379.14 54.509 1379.14 42.2752 Q1379.14 30.1225 1373.31 24.4918 Q1367.52 18.8205 1355 18.8205 L1345.12 18.8205 M1336.93 12.096 L1353.74 12.096 Q1371.33 12.096 1379.55 19.4281 Q1387.77 26.7198 1387.77 42.2752 Q1387.77 57.9117 1379.51 65.2439 Q1371.24 72.576 1353.74 72.576 L1336.93 72.576 L1336.93 12.096 Z" fill="#000000" fill-rule="evenodd" fill-opacity="1" /><path clip-path="url(#clip750)" d="M1400.82 12.096 L1409 12.096 L1409 72.576 L1400.82 72.576 L1400.82 12.096 Z" fill="#000000" fill-rule="evenodd" fill-opacity="1" /><path clip-path="url(#clip750)" d="M1425.28 12.096 L1436.3 12.096 L1463.12 62.6918 L1463.12 12.096 L1471.06 12.096 L1471.06 72.576 L1460.04 72.576 L1433.22 21.9802 L1433.22 72.576 L1425.28 72.576 L1425.28 12.096 Z" fill="#000000" fill-rule="evenodd" fill-opacity="1" /><path clip-path="url(#clip750)" d="M1512.86 39.9662 Q1518.74 41.222 1522.02 45.1919 Q1525.34 49.1618 1525.34 54.9951 Q1525.34 63.9476 1519.18 68.8492 Q1513.03 73.7508 1501.68 73.7508 Q1497.88 73.7508 1493.82 72.9811 Q1489.81 72.2519 1485.52 70.7531 L1485.52 62.8538 Q1488.92 64.8388 1492.97 65.8515 Q1497.02 66.8642 1501.44 66.8642 Q1509.14 66.8642 1513.15 63.826 Q1517.2 60.7879 1517.2 54.9951 Q1517.2 49.6479 1513.43 46.6502 Q1509.7 43.612 1503.02 43.612 L1495.97 43.612 L1495.97 36.8875 L1503.34 36.8875 Q1509.38 36.8875 1512.58 34.4975 Q1515.78 32.067 1515.78 27.5299 Q1515.78 22.8714 1512.46 20.4004 Q1509.18 17.8888 1503.02 17.8888 Q1499.66 17.8888 1495.81 18.618 Q1491.96 19.3471 1487.34 20.8865 L1487.34 13.5948 Q1492 12.2985 1496.05 11.6504 Q1500.14 11.0023 1503.75 11.0023 Q1513.07 11.0023 1518.49 15.2557 Q1523.92 19.4686 1523.92 26.6793 Q1523.92 31.7024 1521.05 35.1862 Q1518.17 38.6294 1512.86 39.9662 Z" fill="#000000" fill-rule="evenodd" fill-opacity="1" /><polyline clip-path="url(#clip752)" style="stroke:#009af9; stroke-linecap:butt; stroke-linejoin:round; stroke-width:8; stroke-opacity:1; fill:none" points="
  1599.58,955.536 1723.44,974.366 1795.45,974.366 1846.72,1292.5 1886.5,1292.5 1919,1292.5 1946.43,1292.5 1970.18,1292.5 1991.22,1292.5 2009.97,1292.5 
  2027.13,1292.5 2042.73,1292.5 2057,1292.5 2070.24,1292.5 2082.55,1292.5 2094.13,1292.5 2105.12,1292.5 2115.47,1292.5 2125.3,1292.5 2134.6,1292.5 
  2143.48,1292.5 2152.04,1292.5 2160.73,1292.5 2168.6,1292.5 2177.11,1292.5 2186.6,1292.5 2193.9,1292.5 2201.46,1292.5 2209.35,1292.5 2216.27,1374.46 
  2222.81,1374.46 2229.05,1374.46 2235.64,1374.46 2240.92,1374.46 2245.92,1374.46 2252.05,1374.46 2258.18,1374.46 2263.48,1374.46 2267.98,1374.46 2272.33,1374.46 
  
  "/>
<polyline clip-path="url(#clip752)" style="stroke:#e26f46; stroke-linecap:butt; stroke-linejoin:round; stroke-width:8; stroke-opacity:1; fill:none" points="
  1607.01,955.413 1735.87,965.028 1815.95,965.028 1865.05,965.028 1909.03,967.047 1941.67,967.047 1970.52,1292.5 1995.91,1292.5 2017.28,1292.5 2037.06,1292.5 
  2057.38,1292.5 2073.25,1292.5 2087.37,1292.5 2099.78,1292.5 2111.27,1292.5 2122.61,1292.5 2134.77,1292.5 2146.58,1292.5 2156.73,1292.5 2168.76,1292.5 
  2177.43,1374.46 2185.57,1374.46 2193.99,1374.46 2202.19,1374.46 2209.17,1374.46 2217.35,1374.46 2223.91,1374.46 2230.07,1374.46 2236.89,1374.46 2243.18,1374.46 
  2248.94,1374.46 2253.75,1374.46 2259.22,1374.46 2264.76,1374.46 2269.29,1374.46 2274.21,1374.46 2279.5,1374.46 2284.65,1374.46 2289.6,1374.46 2294.3,1374.46 
  
  "/>
<polyline clip-path="url(#clip752)" style="stroke:#3da44d; stroke-linecap:butt; stroke-linejoin:round; stroke-width:8; stroke-opacity:1; fill:none" points="
  438.663,307.027 507.916,307.027 556.644,315.373 592.965,315.53 625.291,316.781 650.031,316.781 671.743,317.346 694.047,325.895 711.935,325.895 728.14,325.895 
  742.663,325.895 755.975,325.895 768.295,325.895 779.284,325.895 789.831,325.895 798.991,325.895 808.088,325.895 816.569,325.895 824.74,325.895 832.184,325.895 
  839.873,325.895 847.503,325.895 854.257,325.895 861.273,325.895 867.627,325.895 873.806,325.895 879.723,325.895 885.438,325.895 891.027,325.895 896.548,325.895 
  901.944,325.895 907.1,325.895 912.225,325.895 916.935,325.895 921.523,325.895 925.937,325.895 930.427,325.895 934.71,325.895 939.222,325.895 943.622,325.895 
  947.84,325.895 951.783,325.895 955.473,325.895 959.031,325.895 962.541,325.895 966.026,325.895 969.418,325.895 972.856,325.895 976.185,325.895 979.408,325.895 
  982.512,325.895 985.599,325.895 988.84,325.895 991.808,325.895 994.713,325.895 997.579,325.895 1000.45,325.895 1003.58,329.548 1006.35,329.548 1009.83,329.548 
  1012.94,329.548 1015.8,329.548 1018.37,329.548 1020.94,329.548 1023.46,329.548 1025.85,329.548 1028.23,329.548 1030.55,329.548 1032.92,329.548 1036.69,329.548 
  1039.21,329.548 1041.51,329.548 1043.76,329.548 1045.93,329.548 1048.12,329.548 1051.3,329.548 1053.68,329.548 1057.4,329.548 1060.9,329.548 1063.71,329.548 
  1065.74,329.548 1072.65,329.548 1077.31,329.548 1081.44,329.548 1085.48,329.548 1089.31,329.548 1093.12,329.548 1096.74,329.548 1100.21,329.548 1103.71,329.548 
  1107.22,329.548 1110.65,329.548 1114.04,329.548 1117.31,329.548 1120.51,329.548 1123.65,329.548 1126.68,329.548 1129.65,329.548 1132.59,329.548 1135.46,329.548 
  1138.41,329.548 1141.26,329.548 1144.06,329.548 1146.96,329.548 1149.62,329.548 1152.28,329.548 1154.98,329.548 1157.63,329.548 1167.36,329.548 1175.14,329.548 
  1184.62,329.548 1192.99,329.548 1199.71,329.548 1206.14,329.548 1212.34,329.548 1218.33,329.548 1224.27,329.548 1242.32,335.395 1259.1,335.395 1273.38,335.395 
  1311.81,406.225 1683.61,406.225 1683.75,406.225 1683.88,406.225 1684.01,406.225 1684.15,406.225 1684.28,406.225 1684.41,406.225 1684.54,406.225 1684.67,406.225 
  1684.8,406.225 1684.96,406.225 1685.1,406.225 1685.23,406.225 1685.36,406.225 1685.49,406.225 1685.62,406.225 1685.75,406.225 1685.88,406.225 1686.01,406.225 
  1686.14,406.225 1686.27,406.225 1686.4,406.225 1686.53,406.225 1686.66,406.225 1686.79,406.225 1686.92,406.225 1687.05,406.225 1687.18,406.225 1687.31,406.225 
  1687.44,406.225 1687.57,406.225 1687.69,406.225 1687.83,406.225 1687.96,406.225 1688.34,406.225 1688.82,406.225 1689.22,406.225 1689.6,406.225 1689.99,406.225 
  1690.38,406.225 1690.8,406.225 1691.19,406.225 1691.62,406.225 1692,406.225 1692.5,406.225 1693.83,406.225 1695.08,406.225 1696.33,406.225 1700.12,424.665 
  1757.7,439.722 1757.98,439.722 1758.35,522.593 1758.73,522.593 1759.02,522.593 1759.39,522.593 1759.78,522.593 1760.14,522.593 1760.41,522.593 1760.78,522.593 
  1761.15,522.593 1761.59,522.593 1761.95,522.593 1762.32,522.593 1762.62,522.593 1763.58,560.267 1764.5,560.267 1765.41,560.267 1766.35,560.267 1767.26,560.267 
  1769.95,643.355 1792.77,718.123 1793.57,785.382 1794.41,804.85 1795.45,804.85 1796.17,804.85 1796.96,804.85 1797.76,804.85 1798.57,804.85 1800.9,846.401 
  1803.2,861.529 1818.02,861.529 1820.06,940.81 1822.05,1000.25 1824.08,1000.25 1826.11,1000.25 
  "/>
<polyline clip-path="url(#clip752)" style="stroke:#c271d2; stroke-linecap:butt; stroke-linejoin:round; stroke-width:8; stroke-opacity:1; fill:none" points="
  345.82,159.909 441.272,312.213 498.155,323.223 543.264,323.223 579.058,323.223 608.663,323.223 633.515,323.223 654.925,323.223 675.391,323.223 692.725,323.223 
  708.649,323.223 722.726,323.223 736.507,323.223 756.334,323.223 769.688,323.223 780.802,323.223 790.988,323.223 799.924,323.223 808.788,323.223 816.928,323.223 
  824.814,323.727 832.904,323.727 840.267,323.727 848.252,323.727 855.543,323.727 862.709,323.727 869.696,323.727 875.739,323.727 881.612,323.727 887.058,323.727 
  892.853,323.727 898.047,323.727 903.322,323.727 908.242,323.727 913.183,323.727 917.748,323.727 922.353,323.727 927.103,323.727 931.466,323.727 935.833,323.727 
  939.891,323.727 943.969,323.727 947.872,323.727 951.704,323.727 955.601,323.727 959.453,323.727 963.469,323.727 967.005,323.727 970.596,323.727 976.219,323.727 
  980.271,323.727 983.821,323.727 987.226,323.727 990.398,323.727 993.569,323.727 996.558,323.727 999.548,323.727 1002.39,323.727 1005.19,323.727 1007.98,323.727 
  1010.72,323.727 1013.55,323.727 1016.27,323.727 1019.08,323.727 1021.63,323.727 1024.27,323.727 1026.72,323.727 1029.27,327.136 1031.73,327.136 1034.15,327.136 
  1036.7,327.136 1039.1,327.136 1041.57,327.136 1043.85,327.136 1046.22,327.136 1048.46,327.136 1050.72,327.136 1052.88,329.548 1055.06,329.548 1057.4,329.548 
  1060.46,329.548 1065.31,329.548 1069.5,329.548 1073.66,329.548 1077.7,329.548 1081.65,329.548 1106.22,329.548 1109.64,329.548 1112.91,329.548 1116.05,329.548 
  1119.17,329.548 1122.46,329.548 1125.48,329.548 1128.47,329.548 1131.41,329.548 1134.26,329.548 1137.06,329.548 1139.81,329.548 1142.52,329.548 1145.19,329.548 
  1147.88,329.548 1152.36,329.548 1155.38,329.548 1158.02,329.548 1160.53,329.548 1162.98,329.548 1165.43,329.548 1167.79,329.548 1175.17,329.548 1182.3,329.548 
  1189.09,329.548 1195.72,329.548 1202.28,329.548 1208.61,329.548 1214.67,329.548 1220.5,329.548 1226.21,329.548 1243.52,335.395 1258.65,335.395 1272.77,335.395 
  1310.3,406.225 1312.2,406.225 1313.6,406.225 1314.73,406.225 1316.22,406.225 1317.23,406.225 1318.25,406.225 1319.45,406.225 1320.43,406.225 1321.43,406.225 
  1322.43,406.225 1323.42,406.225 1324.38,406.225 1325.38,406.225 1326.36,406.225 1327.64,406.225 1328.66,406.225 1329.65,406.225 1330.62,406.225 1331.59,406.225 
  1332.55,406.225 1333.47,406.225 1334.4,406.225 1335.34,406.225 1336.26,406.225 1337.16,406.225 1338.09,406.225 1338.99,406.225 1339.88,406.225 1340.79,406.225 
  1341.85,406.225 1342.76,406.225 1343.91,406.225 1344.98,406.225 1346.17,406.225 1349.85,406.225 1352.6,406.225 1355.39,406.225 1358.18,406.225 1360.89,406.225 
  1363.61,406.225 1366.23,406.225 1368.83,406.225 1371.37,406.225 1373.82,406.225 1376.25,406.225 1384.06,430.333 1391.44,430.333 1398.28,430.333 1418.21,541.234 
  1420.19,541.234 1422.52,541.234 1424.31,541.234 1426.03,541.234 1427.82,541.234 1429.47,541.234 1431.13,541.234 1432.74,541.234 1434.59,541.234 1436.58,541.234 
  1438.15,541.234 1439.73,541.234 1441.33,541.234 1442.99,541.234 1444.54,541.234 1449.54,541.234 1454.49,541.234 1459.27,541.234 1463.95,541.234 1468.52,541.234 
  1481.84,541.234 1485.93,541.234 1489.98,541.234 1493.72,541.234 1497.38,541.234 1500.91,541.234 1504.76,541.234 1508.18,541.234 1511.8,541.234 1523.21,541.234 
  1533.12,541.234 1542.58,541.234 1552.31,541.234 1560.6,541.234 1568.96,541.234 1576.63,541.234 
  "/>
<path clip-path="url(#clip750)" d="
M1806.9 425.586 L2283.91 425.586 L2283.91 166.386 L1806.9 166.386  Z
  " fill="#ffffff" fill-rule="evenodd" fill-opacity="1"/>
<polyline clip-path="url(#clip750)" style="stroke:#000000; stroke-linecap:butt; stroke-linejoin:round; stroke-width:4; stroke-opacity:1; fill:none" points="
  1806.9,425.586 2283.91,425.586 2283.91,166.386 1806.9,166.386 1806.9,425.586 
  "/>
<polyline clip-path="url(#clip750)" style="stroke:#009af9; stroke-linecap:butt; stroke-linejoin:round; stroke-width:4; stroke-opacity:1; fill:none" points="
  1829.85,218.226 1967.54,218.226 
  "/>
<path clip-path="url(#clip750)" d="M2005.68 213.562 Q2004.96 213.145 2004.1 212.96 Q2003.27 212.752 2002.25 212.752 Q1998.64 212.752 1996.69 215.113 Q1994.77 217.451 1994.77 221.849 L1994.77 235.506 L1990.49 235.506 L1990.49 209.58 L1994.77 209.58 L1994.77 213.608 Q1996.12 211.247 1998.27 210.113 Q2000.42 208.955 2003.5 208.955 Q2003.94 208.955 2004.47 209.025 Q2005 209.071 2005.65 209.187 L2005.68 213.562 Z" fill="#000000" fill-rule="evenodd" fill-opacity="1" /><path clip-path="url(#clip750)" d="M2021.93 222.474 Q2016.76 222.474 2014.77 223.654 Q2012.78 224.835 2012.78 227.682 Q2012.78 229.951 2014.26 231.293 Q2015.77 232.613 2018.34 232.613 Q2021.88 232.613 2024.01 230.113 Q2026.16 227.59 2026.16 223.423 L2026.16 222.474 L2021.93 222.474 M2030.42 220.715 L2030.42 235.506 L2026.16 235.506 L2026.16 231.571 Q2024.7 233.932 2022.53 235.066 Q2020.35 236.178 2017.2 236.178 Q2013.22 236.178 2010.86 233.955 Q2008.52 231.71 2008.52 227.96 Q2008.52 223.585 2011.44 221.363 Q2014.38 219.141 2020.19 219.141 L2026.16 219.141 L2026.16 218.724 Q2026.16 215.784 2024.22 214.187 Q2022.3 212.567 2018.8 212.567 Q2016.58 212.567 2014.47 213.099 Q2012.37 213.631 2010.42 214.696 L2010.42 210.761 Q2012.76 209.858 2014.96 209.418 Q2017.16 208.955 2019.24 208.955 Q2024.87 208.955 2027.64 211.872 Q2030.42 214.789 2030.42 220.715 Z" fill="#000000" fill-rule="evenodd" fill-opacity="1" /><path clip-path="url(#clip750)" d="M2060.74 219.858 L2060.74 235.506 L2056.49 235.506 L2056.49 219.997 Q2056.49 216.317 2055.05 214.488 Q2053.61 212.659 2050.74 212.659 Q2047.3 212.659 2045.3 214.858 Q2043.31 217.057 2043.31 220.854 L2043.31 235.506 L2039.03 235.506 L2039.03 209.58 L2043.31 209.58 L2043.31 213.608 Q2044.84 211.27 2046.9 210.113 Q2048.99 208.955 2051.69 208.955 Q2056.16 208.955 2058.45 211.733 Q2060.74 214.488 2060.74 219.858 Z" fill="#000000" fill-rule="evenodd" fill-opacity="1" /><path clip-path="url(#clip750)" d="M2086.3 213.516 L2086.3 199.488 L2090.56 199.488 L2090.56 235.506 L2086.3 235.506 L2086.3 231.617 Q2084.96 233.932 2082.9 235.066 Q2080.86 236.178 2077.99 236.178 Q2073.29 236.178 2070.33 232.428 Q2067.39 228.678 2067.39 222.567 Q2067.39 216.455 2070.33 212.705 Q2073.29 208.955 2077.99 208.955 Q2080.86 208.955 2082.9 210.09 Q2084.96 211.201 2086.3 213.516 M2071.79 222.567 Q2071.79 227.266 2073.71 229.951 Q2075.65 232.613 2079.03 232.613 Q2082.41 232.613 2084.36 229.951 Q2086.3 227.266 2086.3 222.567 Q2086.3 217.867 2084.36 215.205 Q2082.41 212.52 2079.03 212.52 Q2075.65 212.52 2073.71 215.205 Q2071.79 217.867 2071.79 222.567 Z" fill="#000000" fill-rule="evenodd" fill-opacity="1" /><path clip-path="url(#clip750)" d="M2109.38 212.567 Q2105.95 212.567 2103.96 215.252 Q2101.97 217.914 2101.97 222.567 Q2101.97 227.219 2103.94 229.904 Q2105.93 232.566 2109.38 232.566 Q2112.78 232.566 2114.77 229.881 Q2116.76 227.196 2116.76 222.567 Q2116.76 217.96 2114.77 215.275 Q2112.78 212.567 2109.38 212.567 M2109.38 208.955 Q2114.93 208.955 2118.11 212.567 Q2121.28 216.178 2121.28 222.567 Q2121.28 228.932 2118.11 232.566 Q2114.93 236.178 2109.38 236.178 Q2103.8 236.178 2100.63 232.566 Q2097.48 228.932 2097.48 222.567 Q2097.48 216.178 2100.63 212.567 Q2103.8 208.955 2109.38 208.955 Z" fill="#000000" fill-rule="evenodd" fill-opacity="1" /><path clip-path="url(#clip750)" d="M2148.52 214.557 Q2150.12 211.687 2152.34 210.321 Q2154.56 208.955 2157.57 208.955 Q2161.62 208.955 2163.82 211.803 Q2166.02 214.627 2166.02 219.858 L2166.02 235.506 L2161.74 235.506 L2161.74 219.997 Q2161.74 216.27 2160.42 214.465 Q2159.1 212.659 2156.39 212.659 Q2153.08 212.659 2151.16 214.858 Q2149.24 217.057 2149.24 220.854 L2149.24 235.506 L2144.96 235.506 L2144.96 219.997 Q2144.96 216.247 2143.64 214.465 Q2142.32 212.659 2139.56 212.659 Q2136.3 212.659 2134.38 214.881 Q2132.46 217.08 2132.46 220.854 L2132.46 235.506 L2128.17 235.506 L2128.17 209.58 L2132.46 209.58 L2132.46 213.608 Q2133.92 211.224 2135.95 210.09 Q2137.99 208.955 2140.79 208.955 Q2143.61 208.955 2145.58 210.391 Q2147.57 211.826 2148.52 214.557 Z" fill="#000000" fill-rule="evenodd" fill-opacity="1" /><polyline clip-path="url(#clip750)" style="stroke:#e26f46; stroke-linecap:butt; stroke-linejoin:round; stroke-width:4; stroke-opacity:1; fill:none" points="
  1829.85,270.066 1967.54,270.066 
  "/>
<path clip-path="url(#clip750)" d="M1990.49 252.786 L1995.17 252.786 L1995.17 283.411 L2011.99 283.411 L2011.99 287.346 L1990.49 287.346 L1990.49 252.786 Z" fill="#000000" fill-rule="evenodd" fill-opacity="1" /><path clip-path="url(#clip750)" d="M2016.9 252.786 L2021.58 252.786 L2021.58 266.953 L2038.57 266.953 L2038.57 252.786 L2043.24 252.786 L2043.24 287.346 L2038.57 287.346 L2038.57 270.888 L2021.58 270.888 L2021.58 287.346 L2016.9 287.346 L2016.9 252.786 Z" fill="#000000" fill-rule="evenodd" fill-opacity="1" /><polyline clip-path="url(#clip750)" style="stroke:#3da44d; stroke-linecap:butt; stroke-linejoin:round; stroke-width:4; stroke-opacity:1; fill:none" points="
  1829.85,321.906 1967.54,321.906 
  "/>
<path clip-path="url(#clip750)" d="M1995.17 322.682 L1995.17 335.344 L2002.67 335.344 Q2006.44 335.344 2008.24 333.793 Q2010.07 332.219 2010.07 329.001 Q2010.07 325.76 2008.24 324.233 Q2006.44 322.682 2002.67 322.682 L1995.17 322.682 M1995.17 308.469 L1995.17 318.885 L2002.09 318.885 Q2005.51 318.885 2007.18 317.612 Q2008.87 316.316 2008.87 313.677 Q2008.87 311.061 2007.18 309.765 Q2005.51 308.469 2002.09 308.469 L1995.17 308.469 M1990.49 304.626 L2002.43 304.626 Q2007.78 304.626 2010.68 306.848 Q2013.57 309.071 2013.57 313.168 Q2013.57 316.339 2012.09 318.214 Q2010.61 320.089 2007.74 320.552 Q2011.18 321.293 2013.08 323.654 Q2015 325.992 2015 329.51 Q2015 334.14 2011.86 336.663 Q2008.71 339.186 2002.9 339.186 L1990.49 339.186 L1990.49 304.626 Z" fill="#000000" fill-rule="evenodd" fill-opacity="1" /><path clip-path="url(#clip750)" d="M2036.21 307.798 Q2031.11 307.798 2028.11 311.594 Q2025.12 315.39 2025.12 321.941 Q2025.12 328.469 2028.11 332.265 Q2031.11 336.061 2036.21 336.061 Q2041.3 336.061 2044.26 332.265 Q2047.25 328.469 2047.25 321.941 Q2047.25 315.39 2044.26 311.594 Q2041.3 307.798 2036.21 307.798 M2036.21 304.001 Q2043.48 304.001 2047.83 308.886 Q2052.18 313.747 2052.18 321.941 Q2052.18 330.112 2047.83 334.996 Q2043.48 339.858 2036.21 339.858 Q2028.92 339.858 2024.54 334.996 Q2020.19 330.135 2020.19 321.941 Q2020.19 313.747 2024.54 308.886 Q2028.92 304.001 2036.21 304.001 Z" fill="#000000" fill-rule="evenodd" fill-opacity="1" /><path clip-path="url(#clip750)" d="M2059.49 304.626 L2064.17 304.626 L2064.17 318.793 L2081.16 318.793 L2081.16 304.626 L2085.84 304.626 L2085.84 339.186 L2081.16 339.186 L2081.16 322.728 L2064.17 322.728 L2064.17 339.186 L2059.49 339.186 L2059.49 304.626 Z" fill="#000000" fill-rule="evenodd" fill-opacity="1" /><path clip-path="url(#clip750)" d="M2099.82 322.682 L2099.82 335.344 L2107.32 335.344 Q2111.09 335.344 2112.9 333.793 Q2114.73 332.219 2114.73 329.001 Q2114.73 325.76 2112.9 324.233 Q2111.09 322.682 2107.32 322.682 L2099.82 322.682 M2099.82 308.469 L2099.82 318.885 L2106.74 318.885 Q2110.17 318.885 2111.83 317.612 Q2113.52 316.316 2113.52 313.677 Q2113.52 311.061 2111.83 309.765 Q2110.17 308.469 2106.74 308.469 L2099.82 308.469 M2095.14 304.626 L2107.09 304.626 Q2112.43 304.626 2115.33 306.848 Q2118.22 309.071 2118.22 313.168 Q2118.22 316.339 2116.74 318.214 Q2115.26 320.089 2112.39 320.552 Q2115.84 321.293 2117.73 323.654 Q2119.66 325.992 2119.66 329.51 Q2119.66 334.14 2116.51 336.663 Q2113.36 339.186 2107.55 339.186 L2095.14 339.186 L2095.14 304.626 Z" fill="#000000" fill-rule="evenodd" fill-opacity="1" /><polyline clip-path="url(#clip750)" style="stroke:#c271d2; stroke-linecap:butt; stroke-linejoin:round; stroke-width:4; stroke-opacity:1; fill:none" points="
  1829.85,373.746 1967.54,373.746 
  "/>
<path clip-path="url(#clip750)" d="M2012.2 375.378 L2012.2 391.026 L2007.94 391.026 L2007.94 375.517 Q2007.94 371.837 2006.51 370.008 Q2005.07 368.179 2002.2 368.179 Q1998.75 368.179 1996.76 370.378 Q1994.77 372.577 1994.77 376.374 L1994.77 391.026 L1990.49 391.026 L1990.49 355.008 L1994.77 355.008 L1994.77 369.128 Q1996.3 366.79 1998.36 365.633 Q2000.44 364.475 2003.15 364.475 Q2007.62 364.475 2009.91 367.253 Q2012.2 370.008 2012.2 375.378 Z" fill="#000000" fill-rule="evenodd" fill-opacity="1" /><path clip-path="url(#clip750)" d="M2031.49 393.434 Q2029.68 398.063 2027.97 399.475 Q2026.25 400.887 2023.38 400.887 L2019.98 400.887 L2019.98 397.323 L2022.48 397.323 Q2024.24 397.323 2025.21 396.489 Q2026.18 395.656 2027.36 392.554 L2028.13 390.61 L2017.64 365.1 L2022.16 365.1 L2030.26 385.378 L2038.36 365.1 L2042.87 365.1 L2031.49 393.434 Z" fill="#000000" fill-rule="evenodd" fill-opacity="1" /><path clip-path="url(#clip750)" d="M2052.87 387.137 L2052.87 400.887 L2048.59 400.887 L2048.59 365.1 L2052.87 365.1 L2052.87 369.036 Q2054.22 366.721 2056.25 365.61 Q2058.31 364.475 2061.16 364.475 Q2065.88 364.475 2068.82 368.225 Q2071.79 371.975 2071.79 378.087 Q2071.79 384.198 2068.82 387.948 Q2065.88 391.698 2061.16 391.698 Q2058.31 391.698 2056.25 390.586 Q2054.22 389.452 2052.87 387.137 M2067.36 378.087 Q2067.36 373.387 2065.42 370.725 Q2063.5 368.04 2060.12 368.04 Q2056.74 368.04 2054.8 370.725 Q2052.87 373.387 2052.87 378.087 Q2052.87 382.786 2054.8 385.471 Q2056.74 388.133 2060.12 388.133 Q2063.5 388.133 2065.42 385.471 Q2067.36 382.786 2067.36 378.087 Z" fill="#000000" fill-rule="evenodd" fill-opacity="1" /><path clip-path="url(#clip750)" d="M2101.02 376.999 L2101.02 379.082 L2081.44 379.082 Q2081.72 383.48 2084.08 385.795 Q2086.46 388.086 2090.7 388.086 Q2093.15 388.086 2095.44 387.485 Q2097.76 386.883 2100.03 385.679 L2100.03 389.707 Q2097.73 390.679 2095.33 391.188 Q2092.92 391.698 2090.44 391.698 Q2084.24 391.698 2080.61 388.086 Q2076.99 384.475 2076.99 378.318 Q2076.99 371.952 2080.42 368.225 Q2083.87 364.475 2089.7 364.475 Q2094.93 364.475 2097.97 367.855 Q2101.02 371.212 2101.02 376.999 M2096.76 375.749 Q2096.72 372.253 2094.8 370.17 Q2092.9 368.087 2089.75 368.087 Q2086.18 368.087 2084.03 370.1 Q2081.9 372.114 2081.58 375.772 L2096.76 375.749 Z" fill="#000000" fill-rule="evenodd" fill-opacity="1" /><path clip-path="url(#clip750)" d="M2123.04 369.082 Q2122.32 368.665 2121.46 368.48 Q2120.63 368.272 2119.61 368.272 Q2116 368.272 2114.05 370.633 Q2112.13 372.971 2112.13 377.369 L2112.13 391.026 L2107.85 391.026 L2107.85 365.1 L2112.13 365.1 L2112.13 369.128 Q2113.48 366.767 2115.63 365.633 Q2117.78 364.475 2120.86 364.475 Q2121.3 364.475 2121.83 364.545 Q2122.36 364.591 2123.01 364.707 L2123.04 369.082 Z" fill="#000000" fill-rule="evenodd" fill-opacity="1" /><path clip-path="url(#clip750)" d="M2146.11 378.087 Q2146.11 373.387 2144.17 370.725 Q2142.25 368.04 2138.87 368.04 Q2135.49 368.04 2133.54 370.725 Q2131.62 373.387 2131.62 378.087 Q2131.62 382.786 2133.54 385.471 Q2135.49 388.133 2138.87 388.133 Q2142.25 388.133 2144.17 385.471 Q2146.11 382.786 2146.11 378.087 M2131.62 369.036 Q2132.97 366.721 2135 365.61 Q2137.06 364.475 2139.91 364.475 Q2144.63 364.475 2147.57 368.225 Q2150.54 371.975 2150.54 378.087 Q2150.54 384.198 2147.57 387.948 Q2144.63 391.698 2139.91 391.698 Q2137.06 391.698 2135 390.586 Q2132.97 389.452 2131.62 387.137 L2131.62 391.026 L2127.34 391.026 L2127.34 355.008 L2131.62 355.008 L2131.62 369.036 Z" fill="#000000" fill-rule="evenodd" fill-opacity="1" /><path clip-path="url(#clip750)" d="M2169.38 377.994 Q2164.22 377.994 2162.23 379.174 Q2160.23 380.355 2160.23 383.202 Q2160.23 385.471 2161.72 386.813 Q2163.22 388.133 2165.79 388.133 Q2169.33 388.133 2171.46 385.633 Q2173.61 383.11 2173.61 378.943 L2173.61 377.994 L2169.38 377.994 M2177.87 376.235 L2177.87 391.026 L2173.61 391.026 L2173.61 387.091 Q2172.16 389.452 2169.98 390.586 Q2167.8 391.698 2164.66 391.698 Q2160.67 391.698 2158.31 389.475 Q2155.98 387.23 2155.98 383.48 Q2155.98 379.105 2158.89 376.883 Q2161.83 374.661 2167.64 374.661 L2173.61 374.661 L2173.61 374.244 Q2173.61 371.304 2171.67 369.707 Q2169.75 368.087 2166.25 368.087 Q2164.03 368.087 2161.92 368.619 Q2159.82 369.151 2157.87 370.216 L2157.87 366.281 Q2160.21 365.378 2162.41 364.938 Q2164.61 364.475 2166.69 364.475 Q2172.32 364.475 2175.1 367.392 Q2177.87 370.309 2177.87 376.235 Z" fill="#000000" fill-rule="evenodd" fill-opacity="1" /><path clip-path="url(#clip750)" d="M2208.2 375.378 L2208.2 391.026 L2203.94 391.026 L2203.94 375.517 Q2203.94 371.837 2202.5 370.008 Q2201.07 368.179 2198.2 368.179 Q2194.75 368.179 2192.76 370.378 Q2190.77 372.577 2190.77 376.374 L2190.77 391.026 L2186.48 391.026 L2186.48 365.1 L2190.77 365.1 L2190.77 369.128 Q2192.29 366.79 2194.35 365.633 Q2196.44 364.475 2199.15 364.475 Q2203.61 364.475 2205.91 367.253 Q2208.2 370.008 2208.2 375.378 Z" fill="#000000" fill-rule="evenodd" fill-opacity="1" /><path clip-path="url(#clip750)" d="M2233.75 369.036 L2233.75 355.008 L2238.01 355.008 L2238.01 391.026 L2233.75 391.026 L2233.75 387.137 Q2232.41 389.452 2230.35 390.586 Q2228.31 391.698 2225.44 391.698 Q2220.74 391.698 2217.78 387.948 Q2214.84 384.198 2214.84 378.087 Q2214.84 371.975 2217.78 368.225 Q2220.74 364.475 2225.44 364.475 Q2228.31 364.475 2230.35 365.61 Q2232.41 366.721 2233.75 369.036 M2219.24 378.087 Q2219.24 382.786 2221.16 385.471 Q2223.1 388.133 2226.48 388.133 Q2229.86 388.133 2231.81 385.471 Q2233.75 382.786 2233.75 378.087 Q2233.75 373.387 2231.81 370.725 Q2229.86 368.04 2226.48 368.04 Q2223.1 368.04 2221.16 370.725 Q2219.24 373.387 2219.24 378.087 Z" fill="#000000" fill-rule="evenodd" fill-opacity="1" /></svg>
