<?xml version="1.0" encoding="utf-8"?>
<svg xmlns="http://www.w3.org/2000/svg" xmlns:xlink="http://www.w3.org/1999/xlink" width="600" height="400" viewBox="0 0 2400 1600">
<defs>
  <clipPath id="clip810">
    <rect x="0" y="0" width="2400" height="1600"/>
  </clipPath>
</defs>
<path clip-path="url(#clip810)" d="
M0 1600 L2400 1600 L2400 0 L0 0  Z
  " fill="#ffffff" fill-rule="evenodd" fill-opacity="1"/>
<defs>
  <clipPath id="clip811">
    <rect x="480" y="0" width="1681" height="1600"/>
  </clipPath>
</defs>
<path clip-path="url(#clip810)" d="
M287.366 1410.9 L2352.76 1410.9 L2352.76 123.472 L287.366 123.472  Z
  " fill="#ffffff" fill-rule="evenodd" fill-opacity="1"/>
<defs>
  <clipPath id="clip812">
    <rect x="287" y="123" width="2066" height="1288"/>
  </clipPath>
</defs>
<polyline clip-path="url(#clip812)" style="stroke:#000000; stroke-linecap:butt; stroke-linejoin:round; stroke-width:2; stroke-opacity:0.1; fill:none" points="
  1193.58,1410.9 1193.58,123.472 
  "/>
<polyline clip-path="url(#clip812)" style="stroke:#000000; stroke-linecap:butt; stroke-linejoin:round; stroke-width:2; stroke-opacity:0.1; fill:none" points="
  2253.36,1410.9 2253.36,123.472 
  "/>
<polyline clip-path="url(#clip810)" style="stroke:#000000; stroke-linecap:butt; stroke-linejoin:round; stroke-width:4; stroke-opacity:1; fill:none" points="
  287.366,1410.9 2352.76,1410.9 
  "/>
<polyline clip-path="url(#clip810)" style="stroke:#000000; stroke-linecap:butt; stroke-linejoin:round; stroke-width:4; stroke-opacity:1; fill:none" points="
  1193.58,1410.9 1193.58,1395.45 
  "/>
<polyline clip-path="url(#clip810)" style="stroke:#000000; stroke-linecap:butt; stroke-linejoin:round; stroke-width:4; stroke-opacity:1; fill:none" points="
  2253.36,1410.9 2253.36,1395.45 
  "/>
<path clip-path="url(#clip810)" d="M1158.56 1489.17 L1166.2 1489.17 L1166.2 1462.8 L1157.89 1464.47 L1157.89 1460.21 L1166.16 1458.54 L1170.83 1458.54 L1170.83 1489.17 L1178.47 1489.17 L1178.47 1493.1 L1158.56 1493.1 L1158.56 1489.17 Z" fill="#000000" fill-rule="evenodd" fill-opacity="1" /><path clip-path="url(#clip810)" d="M1197.92 1461.62 Q1194.3 1461.62 1192.48 1465.19 Q1190.67 1468.73 1190.67 1475.86 Q1190.67 1482.97 1192.48 1486.53 Q1194.3 1490.07 1197.92 1490.07 Q1201.55 1490.07 1203.36 1486.53 Q1205.18 1482.97 1205.18 1475.86 Q1205.18 1468.73 1203.36 1465.19 Q1201.55 1461.62 1197.92 1461.62 M1197.92 1457.92 Q1203.73 1457.92 1206.78 1462.53 Q1209.86 1467.11 1209.86 1475.86 Q1209.86 1484.59 1206.78 1489.19 Q1203.73 1493.78 1197.92 1493.78 Q1192.11 1493.78 1189.03 1489.19 Q1185.97 1484.59 1185.97 1475.86 Q1185.97 1467.11 1189.03 1462.53 Q1192.11 1457.92 1197.92 1457.92 Z" fill="#000000" fill-rule="evenodd" fill-opacity="1" /><path clip-path="url(#clip810)" d="M1219.57 1440.11 Q1216.63 1440.11 1215.15 1443.01 Q1213.68 1445.89 1213.68 1451.68 Q1213.68 1457.46 1215.15 1460.35 Q1216.63 1463.23 1219.57 1463.23 Q1222.52 1463.23 1223.98 1460.35 Q1225.47 1457.46 1225.47 1451.68 Q1225.47 1445.89 1223.98 1443.01 Q1222.52 1440.11 1219.57 1440.11 M1219.57 1437.11 Q1224.29 1437.11 1226.77 1440.85 Q1229.27 1444.57 1229.27 1451.68 Q1229.27 1458.77 1226.77 1462.51 Q1224.29 1466.24 1219.57 1466.24 Q1214.84 1466.24 1212.34 1462.51 Q1209.86 1458.77 1209.86 1451.68 Q1209.86 1444.57 1212.34 1440.85 Q1214.84 1437.11 1219.57 1437.11 Z" fill="#000000" fill-rule="evenodd" fill-opacity="1" /><path clip-path="url(#clip810)" d="M2219.14 1489.17 L2226.78 1489.17 L2226.78 1462.8 L2218.47 1464.47 L2218.47 1460.21 L2226.73 1458.54 L2231.41 1458.54 L2231.41 1489.17 L2239.04 1489.17 L2239.04 1493.1 L2219.14 1493.1 L2219.14 1489.17 Z" fill="#000000" fill-rule="evenodd" fill-opacity="1" /><path clip-path="url(#clip810)" d="M2258.49 1461.62 Q2254.88 1461.62 2253.05 1465.19 Q2251.24 1468.73 2251.24 1475.86 Q2251.24 1482.97 2253.05 1486.53 Q2254.88 1490.07 2258.49 1490.07 Q2262.12 1490.07 2263.93 1486.53 Q2265.76 1482.97 2265.76 1475.86 Q2265.76 1468.73 2263.93 1465.19 Q2262.12 1461.62 2258.49 1461.62 M2258.49 1457.92 Q2264.3 1457.92 2267.35 1462.53 Q2270.43 1467.11 2270.43 1475.86 Q2270.43 1484.59 2267.35 1489.19 Q2264.3 1493.78 2258.49 1493.78 Q2252.68 1493.78 2249.6 1489.19 Q2246.54 1484.59 2246.54 1475.86 Q2246.54 1467.11 2249.6 1462.53 Q2252.68 1457.92 2258.49 1457.92 Z" fill="#000000" fill-rule="evenodd" fill-opacity="1" /><path clip-path="url(#clip810)" d="M2275 1462.5 L2288.26 1462.5 L2288.26 1465.69 L2270.43 1465.69 L2270.43 1462.5 Q2272.6 1460.26 2276.32 1456.5 Q2280.06 1452.72 2281.02 1451.63 Q2282.85 1449.58 2283.56 1448.16 Q2284.29 1446.74 2284.29 1445.36 Q2284.29 1443.12 2282.71 1441.71 Q2281.15 1440.3 2278.63 1440.3 Q2276.85 1440.3 2274.85 1440.92 Q2272.88 1441.54 2270.62 1442.8 L2270.62 1438.97 Q2272.92 1438.05 2274.91 1437.58 Q2276.9 1437.11 2278.56 1437.11 Q2282.92 1437.11 2285.52 1439.29 Q2288.11 1441.47 2288.11 1445.12 Q2288.11 1446.85 2287.45 1448.41 Q2286.81 1449.95 2285.1 1452.06 Q2284.63 1452.6 2282.11 1455.22 Q2279.59 1457.81 2275 1462.5 Z" fill="#000000" fill-rule="evenodd" fill-opacity="1" /><path clip-path="url(#clip810)" d="M1122.6 1528.42 L1122.6 1538.54 L1134.66 1538.54 L1134.66 1543.09 L1122.6 1543.09 L1122.6 1562.44 Q1122.6 1566.8 1123.77 1568.04 Q1124.98 1569.28 1128.64 1569.28 L1134.66 1569.28 L1134.66 1574.19 L1128.64 1574.19 Q1121.86 1574.19 1119.29 1571.67 Q1116.71 1569.12 1116.71 1562.44 L1116.71 1543.09 L1112.41 1543.09 L1112.41 1538.54 L1116.71 1538.54 L1116.71 1528.42 L1122.6 1528.42 Z" fill="#000000" fill-rule="evenodd" fill-opacity="1" /><path clip-path="url(#clip810)" d="M1142.36 1538.54 L1148.22 1538.54 L1148.22 1574.19 L1142.36 1574.19 L1142.36 1538.54 M1142.36 1524.66 L1148.22 1524.66 L1148.22 1532.08 L1142.36 1532.08 L1142.36 1524.66 Z" fill="#000000" fill-rule="evenodd" fill-opacity="1" /><path clip-path="url(#clip810)" d="M1188.23 1545.38 Q1190.42 1541.43 1193.48 1539.56 Q1196.53 1537.68 1200.67 1537.68 Q1206.24 1537.68 1209.27 1541.59 Q1212.29 1545.48 1212.29 1552.67 L1212.29 1574.19 L1206.4 1574.19 L1206.4 1552.86 Q1206.4 1547.74 1204.59 1545.25 Q1202.77 1542.77 1199.05 1542.77 Q1194.5 1542.77 1191.86 1545.79 Q1189.21 1548.82 1189.21 1554.04 L1189.21 1574.19 L1183.33 1574.19 L1183.33 1552.86 Q1183.33 1547.7 1181.51 1545.25 Q1179.7 1542.77 1175.91 1542.77 Q1171.42 1542.77 1168.78 1545.83 Q1166.14 1548.85 1166.14 1554.04 L1166.14 1574.19 L1160.25 1574.19 L1160.25 1538.54 L1166.14 1538.54 L1166.14 1544.08 Q1168.14 1540.8 1170.94 1539.24 Q1173.75 1537.68 1177.6 1537.68 Q1181.48 1537.68 1184.18 1539.65 Q1186.92 1541.62 1188.23 1545.38 Z" fill="#000000" fill-rule="evenodd" fill-opacity="1" /><path clip-path="url(#clip810)" d="M1254.46 1554.9 L1254.46 1557.76 L1227.54 1557.76 Q1227.92 1563.81 1231.16 1566.99 Q1234.44 1570.14 1240.27 1570.14 Q1243.64 1570.14 1246.79 1569.32 Q1249.97 1568.49 1253.09 1566.83 L1253.09 1572.37 Q1249.94 1573.71 1246.63 1574.41 Q1243.32 1575.11 1239.92 1575.11 Q1231.39 1575.11 1226.39 1570.14 Q1221.42 1565.18 1221.42 1556.71 Q1221.42 1547.96 1226.13 1542.83 Q1230.88 1537.68 1238.9 1537.68 Q1246.09 1537.68 1250.26 1542.33 Q1254.46 1546.94 1254.46 1554.9 M1248.61 1553.18 Q1248.54 1548.37 1245.9 1545.51 Q1243.29 1542.64 1238.96 1542.64 Q1234.06 1542.64 1231.1 1545.41 Q1228.17 1548.18 1227.73 1553.21 L1248.61 1553.18 Z" fill="#000000" fill-rule="evenodd" fill-opacity="1" /><path clip-path="url(#clip810)" d="M1315.29 1554.9 L1315.29 1557.76 L1288.36 1557.76 Q1288.74 1563.81 1291.99 1566.99 Q1295.27 1570.14 1301.09 1570.14 Q1304.46 1570.14 1307.62 1569.32 Q1310.8 1568.49 1313.92 1566.83 L1313.92 1572.37 Q1310.77 1573.71 1307.46 1574.41 Q1304.15 1575.11 1300.74 1575.11 Q1292.21 1575.11 1287.21 1570.14 Q1282.25 1565.18 1282.25 1556.71 Q1282.25 1547.96 1286.96 1542.83 Q1291.7 1537.68 1299.72 1537.68 Q1306.92 1537.68 1311.09 1542.33 Q1315.29 1546.94 1315.29 1554.9 M1309.43 1553.18 Q1309.37 1548.37 1306.72 1545.51 Q1304.11 1542.64 1299.79 1542.64 Q1294.88 1542.64 1291.92 1545.41 Q1289 1548.18 1288.55 1553.21 L1309.43 1553.18 Z" fill="#000000" fill-rule="evenodd" fill-opacity="1" /><path clip-path="url(#clip810)" d="M1324.9 1524.66 L1330.76 1524.66 L1330.76 1574.19 L1324.9 1574.19 L1324.9 1524.66 Z" fill="#000000" fill-rule="evenodd" fill-opacity="1" /><path clip-path="url(#clip810)" d="M1359.21 1556.27 Q1352.11 1556.27 1349.37 1557.89 Q1346.64 1559.51 1346.64 1563.43 Q1346.64 1566.55 1348.67 1568.39 Q1350.74 1570.21 1354.28 1570.21 Q1359.15 1570.21 1362.07 1566.77 Q1365.03 1563.3 1365.03 1557.57 L1365.03 1556.27 L1359.21 1556.27 M1370.89 1553.85 L1370.89 1574.19 L1365.03 1574.19 L1365.03 1568.77 Q1363.03 1572.02 1360.04 1573.58 Q1357.05 1575.11 1352.72 1575.11 Q1347.24 1575.11 1344 1572.05 Q1340.78 1568.97 1340.78 1563.81 Q1340.78 1557.79 1344.79 1554.74 Q1348.83 1551.68 1356.82 1551.68 L1365.03 1551.68 L1365.03 1551.11 Q1365.03 1547.07 1362.36 1544.87 Q1359.72 1542.64 1354.91 1542.64 Q1351.86 1542.64 1348.96 1543.38 Q1346.06 1544.11 1343.39 1545.57 L1343.39 1540.16 Q1346.61 1538.92 1349.63 1538.31 Q1352.65 1537.68 1355.52 1537.68 Q1363.25 1537.68 1367.07 1541.69 Q1370.89 1545.7 1370.89 1553.85 Z" fill="#000000" fill-rule="evenodd" fill-opacity="1" /><path clip-path="url(#clip810)" d="M1388.62 1568.84 L1388.62 1587.74 L1382.73 1587.74 L1382.73 1538.54 L1388.62 1538.54 L1388.62 1543.95 Q1390.47 1540.77 1393.27 1539.24 Q1396.1 1537.68 1400.01 1537.68 Q1406.51 1537.68 1410.55 1542.83 Q1414.62 1547.99 1414.62 1556.39 Q1414.62 1564.8 1410.55 1569.95 Q1406.51 1575.11 1400.01 1575.11 Q1396.1 1575.11 1393.27 1573.58 Q1390.47 1572.02 1388.62 1568.84 M1408.54 1556.39 Q1408.54 1549.93 1405.87 1546.27 Q1403.23 1542.58 1398.58 1542.58 Q1393.93 1542.58 1391.26 1546.27 Q1388.62 1549.93 1388.62 1556.39 Q1388.62 1562.85 1391.26 1566.55 Q1393.93 1570.21 1398.58 1570.21 Q1403.23 1570.21 1405.87 1566.55 Q1408.54 1562.85 1408.54 1556.39 Z" fill="#000000" fill-rule="evenodd" fill-opacity="1" /><path clip-path="url(#clip810)" d="M1447.06 1539.59 L1447.06 1545.13 Q1444.57 1543.85 1441.9 1543.22 Q1439.23 1542.58 1436.36 1542.58 Q1432 1542.58 1429.81 1543.92 Q1427.64 1545.25 1427.64 1547.93 Q1427.64 1549.96 1429.2 1551.14 Q1430.76 1552.29 1435.47 1553.34 L1437.48 1553.78 Q1443.71 1555.12 1446.32 1557.57 Q1448.97 1559.99 1448.97 1564.35 Q1448.97 1569.32 1445.02 1572.21 Q1441.1 1575.11 1434.23 1575.11 Q1431.37 1575.11 1428.25 1574.54 Q1425.16 1573.99 1421.72 1572.88 L1421.72 1566.83 Q1424.97 1568.52 1428.12 1569.38 Q1431.27 1570.21 1434.36 1570.21 Q1438.49 1570.21 1440.72 1568.81 Q1442.95 1567.37 1442.95 1564.8 Q1442.95 1562.41 1441.33 1561.14 Q1439.74 1559.86 1434.29 1558.68 L1432.26 1558.21 Q1426.81 1557.06 1424.39 1554.71 Q1421.98 1552.32 1421.98 1548.18 Q1421.98 1543.15 1425.54 1540.42 Q1429.11 1537.68 1435.66 1537.68 Q1438.91 1537.68 1441.77 1538.16 Q1444.64 1538.63 1447.06 1539.59 Z" fill="#000000" fill-rule="evenodd" fill-opacity="1" /><path clip-path="url(#clip810)" d="M1488.78 1554.9 L1488.78 1557.76 L1461.86 1557.76 Q1462.24 1563.81 1465.49 1566.99 Q1468.76 1570.14 1474.59 1570.14 Q1477.96 1570.14 1481.11 1569.32 Q1484.3 1568.49 1487.42 1566.83 L1487.42 1572.37 Q1484.26 1573.71 1480.95 1574.41 Q1477.64 1575.11 1474.24 1575.11 Q1465.71 1575.11 1460.71 1570.14 Q1455.75 1565.18 1455.75 1556.71 Q1455.75 1547.96 1460.46 1542.83 Q1465.2 1537.68 1473.22 1537.68 Q1480.41 1537.68 1484.58 1542.33 Q1488.78 1546.94 1488.78 1554.9 M1482.93 1553.18 Q1482.86 1548.37 1480.22 1545.51 Q1477.61 1542.64 1473.28 1542.64 Q1468.38 1542.64 1465.42 1545.41 Q1462.49 1548.18 1462.05 1553.21 L1482.93 1553.18 Z" fill="#000000" fill-rule="evenodd" fill-opacity="1" /><path clip-path="url(#clip810)" d="M1521.85 1543.95 L1521.85 1524.66 L1527.71 1524.66 L1527.71 1574.19 L1521.85 1574.19 L1521.85 1568.84 Q1520.01 1572.02 1517.18 1573.58 Q1514.37 1575.11 1510.43 1575.11 Q1503.97 1575.11 1499.89 1569.95 Q1495.85 1564.8 1495.85 1556.39 Q1495.85 1547.99 1499.89 1542.83 Q1503.97 1537.68 1510.43 1537.68 Q1514.37 1537.68 1517.18 1539.24 Q1520.01 1540.77 1521.85 1543.95 M1501.9 1556.39 Q1501.9 1562.85 1504.54 1566.55 Q1507.21 1570.21 1511.86 1570.21 Q1516.51 1570.21 1519.18 1566.55 Q1521.85 1562.85 1521.85 1556.39 Q1521.85 1549.93 1519.18 1546.27 Q1516.51 1542.58 1511.86 1542.58 Q1507.21 1542.58 1504.54 1546.27 Q1501.9 1549.93 1501.9 1556.39 Z" fill="#000000" fill-rule="evenodd" fill-opacity="1" /><polyline clip-path="url(#clip812)" style="stroke:#000000; stroke-linecap:butt; stroke-linejoin:round; stroke-width:2; stroke-opacity:0.1; fill:none" points="
  287.366,1238.58 2352.76,1238.58 
  "/>
<polyline clip-path="url(#clip812)" style="stroke:#000000; stroke-linecap:butt; stroke-linejoin:round; stroke-width:2; stroke-opacity:0.1; fill:none" points="
  287.366,1049.81 2352.76,1049.81 
  "/>
<polyline clip-path="url(#clip812)" style="stroke:#000000; stroke-linecap:butt; stroke-linejoin:round; stroke-width:2; stroke-opacity:0.1; fill:none" points="
  287.366,861.047 2352.76,861.047 
  "/>
<polyline clip-path="url(#clip812)" style="stroke:#000000; stroke-linecap:butt; stroke-linejoin:round; stroke-width:2; stroke-opacity:0.1; fill:none" points="
  287.366,672.28 2352.76,672.28 
  "/>
<polyline clip-path="url(#clip812)" style="stroke:#000000; stroke-linecap:butt; stroke-linejoin:round; stroke-width:2; stroke-opacity:0.1; fill:none" points="
  287.366,483.513 2352.76,483.513 
  "/>
<polyline clip-path="url(#clip812)" style="stroke:#000000; stroke-linecap:butt; stroke-linejoin:round; stroke-width:2; stroke-opacity:0.1; fill:none" points="
  287.366,294.747 2352.76,294.747 
  "/>
<polyline clip-path="url(#clip810)" style="stroke:#000000; stroke-linecap:butt; stroke-linejoin:round; stroke-width:4; stroke-opacity:1; fill:none" points="
  287.366,1410.9 287.366,123.472 
  "/>
<polyline clip-path="url(#clip810)" style="stroke:#000000; stroke-linecap:butt; stroke-linejoin:round; stroke-width:4; stroke-opacity:1; fill:none" points="
  287.366,1238.58 312.151,1238.58 
  "/>
<polyline clip-path="url(#clip810)" style="stroke:#000000; stroke-linecap:butt; stroke-linejoin:round; stroke-width:4; stroke-opacity:1; fill:none" points="
  287.366,1049.81 312.151,1049.81 
  "/>
<polyline clip-path="url(#clip810)" style="stroke:#000000; stroke-linecap:butt; stroke-linejoin:round; stroke-width:4; stroke-opacity:1; fill:none" points="
  287.366,861.047 312.151,861.047 
  "/>
<polyline clip-path="url(#clip810)" style="stroke:#000000; stroke-linecap:butt; stroke-linejoin:round; stroke-width:4; stroke-opacity:1; fill:none" points="
  287.366,672.28 312.151,672.28 
  "/>
<polyline clip-path="url(#clip810)" style="stroke:#000000; stroke-linecap:butt; stroke-linejoin:round; stroke-width:4; stroke-opacity:1; fill:none" points="
  287.366,483.513 312.151,483.513 
  "/>
<polyline clip-path="url(#clip810)" style="stroke:#000000; stroke-linecap:butt; stroke-linejoin:round; stroke-width:4; stroke-opacity:1; fill:none" points="
  287.366,294.747 312.151,294.747 
  "/>
<path clip-path="url(#clip810)" d="M114.26 1239.03 L143.936 1239.03 L143.936 1242.97 L114.26 1242.97 L114.26 1239.03 Z" fill="#000000" fill-rule="evenodd" fill-opacity="1" /><path clip-path="url(#clip810)" d="M154.839 1251.92 L162.477 1251.92 L162.477 1225.56 L154.167 1227.23 L154.167 1222.97 L162.431 1221.3 L167.107 1221.3 L167.107 1251.92 L174.746 1251.92 L174.746 1255.86 L154.839 1255.86 L154.839 1251.92 Z" fill="#000000" fill-rule="evenodd" fill-opacity="1" /><path clip-path="url(#clip810)" d="M194.19 1224.38 Q190.579 1224.38 188.75 1227.94 Q186.945 1231.48 186.945 1238.61 Q186.945 1245.72 188.75 1249.29 Q190.579 1252.83 194.19 1252.83 Q197.825 1252.83 199.63 1249.29 Q201.459 1245.72 201.459 1238.61 Q201.459 1231.48 199.63 1227.94 Q197.825 1224.38 194.19 1224.38 M194.19 1220.67 Q200 1220.67 203.056 1225.28 Q206.135 1229.86 206.135 1238.61 Q206.135 1247.34 203.056 1251.95 Q200 1256.53 194.19 1256.53 Q188.38 1256.53 185.301 1251.95 Q182.246 1247.34 182.246 1238.61 Q182.246 1229.86 185.301 1225.28 Q188.38 1220.67 194.19 1220.67 Z" fill="#000000" fill-rule="evenodd" fill-opacity="1" /><path clip-path="url(#clip810)" d="M214.352 1249.98 L219.236 1249.98 L219.236 1255.86 L214.352 1255.86 L214.352 1249.98 Z" fill="#000000" fill-rule="evenodd" fill-opacity="1" /><path clip-path="url(#clip810)" d="M239.422 1224.38 Q235.81 1224.38 233.982 1227.94 Q232.176 1231.48 232.176 1238.61 Q232.176 1245.72 233.982 1249.29 Q235.81 1252.83 239.422 1252.83 Q243.056 1252.83 244.861 1249.29 Q246.69 1245.72 246.69 1238.61 Q246.69 1231.48 244.861 1227.94 Q243.056 1224.38 239.422 1224.38 M239.422 1220.67 Q245.232 1220.67 248.287 1225.28 Q251.366 1229.86 251.366 1238.61 Q251.366 1247.34 248.287 1251.95 Q245.232 1256.53 239.422 1256.53 Q233.611 1256.53 230.533 1251.95 Q227.477 1247.34 227.477 1238.61 Q227.477 1229.86 230.533 1225.28 Q233.611 1220.67 239.422 1220.67 Z" fill="#000000" fill-rule="evenodd" fill-opacity="1" /><path clip-path="url(#clip810)" d="M145.417 1050.26 L175.093 1050.26 L175.093 1054.2 L145.417 1054.2 L145.417 1050.26 Z" fill="#000000" fill-rule="evenodd" fill-opacity="1" /><path clip-path="url(#clip810)" d="M184.005 1032.53 L206.227 1032.53 L206.227 1034.52 L193.681 1067.09 L188.797 1067.09 L200.602 1036.47 L184.005 1036.47 L184.005 1032.53 Z" fill="#000000" fill-rule="evenodd" fill-opacity="1" /><path clip-path="url(#clip810)" d="M215.348 1061.21 L220.232 1061.21 L220.232 1067.09 L215.348 1067.09 L215.348 1061.21 Z" fill="#000000" fill-rule="evenodd" fill-opacity="1" /><path clip-path="url(#clip810)" d="M230.463 1032.53 L248.82 1032.53 L248.82 1036.47 L234.746 1036.47 L234.746 1044.94 Q235.764 1044.59 236.783 1044.43 Q237.801 1044.25 238.82 1044.25 Q244.607 1044.25 247.986 1047.42 Q251.366 1050.59 251.366 1056.01 Q251.366 1061.58 247.894 1064.69 Q244.421 1067.76 238.102 1067.76 Q235.926 1067.76 233.658 1067.39 Q231.412 1067.02 229.005 1066.28 L229.005 1061.58 Q231.088 1062.72 233.31 1063.27 Q235.533 1063.83 238.009 1063.83 Q242.014 1063.83 244.352 1061.72 Q246.69 1059.62 246.69 1056.01 Q246.69 1052.39 244.352 1050.29 Q242.014 1048.18 238.009 1048.18 Q236.135 1048.18 234.26 1048.6 Q232.408 1049.01 230.463 1049.89 L230.463 1032.53 Z" fill="#000000" fill-rule="evenodd" fill-opacity="1" /><path clip-path="url(#clip810)" d="M144.422 861.498 L174.098 861.498 L174.098 865.433 L144.422 865.433 L144.422 861.498 Z" fill="#000000" fill-rule="evenodd" fill-opacity="1" /><path clip-path="url(#clip810)" d="M184.237 843.767 L202.593 843.767 L202.593 847.702 L188.519 847.702 L188.519 856.174 Q189.538 855.827 190.556 855.665 Q191.575 855.479 192.593 855.479 Q198.38 855.479 201.76 858.651 Q205.139 861.822 205.139 867.239 Q205.139 872.817 201.667 875.919 Q198.195 878.998 191.875 878.998 Q189.7 878.998 187.431 878.627 Q185.186 878.257 182.778 877.516 L182.778 872.817 Q184.862 873.952 187.084 874.507 Q189.306 875.063 191.783 875.063 Q195.787 875.063 198.125 872.956 Q200.463 870.85 200.463 867.239 Q200.463 863.628 198.125 861.521 Q195.787 859.415 191.783 859.415 Q189.908 859.415 188.033 859.831 Q186.181 860.248 184.237 861.128 L184.237 843.767 Z" fill="#000000" fill-rule="evenodd" fill-opacity="1" /><path clip-path="url(#clip810)" d="M214.352 872.447 L219.236 872.447 L219.236 878.327 L214.352 878.327 L214.352 872.447 Z" fill="#000000" fill-rule="evenodd" fill-opacity="1" /><path clip-path="url(#clip810)" d="M239.422 846.845 Q235.81 846.845 233.982 850.41 Q232.176 853.952 232.176 861.081 Q232.176 868.188 233.982 871.752 Q235.81 875.294 239.422 875.294 Q243.056 875.294 244.861 871.752 Q246.69 868.188 246.69 861.081 Q246.69 853.952 244.861 850.41 Q243.056 846.845 239.422 846.845 M239.422 843.142 Q245.232 843.142 248.287 847.748 Q251.366 852.331 251.366 861.081 Q251.366 869.808 248.287 874.415 Q245.232 878.998 239.422 878.998 Q233.611 878.998 230.533 874.415 Q227.477 869.808 227.477 861.081 Q227.477 852.331 230.533 847.748 Q233.611 843.142 239.422 843.142 Z" fill="#000000" fill-rule="evenodd" fill-opacity="1" /><path clip-path="url(#clip810)" d="M145.417 672.731 L175.093 672.731 L175.093 676.666 L145.417 676.666 L145.417 672.731 Z" fill="#000000" fill-rule="evenodd" fill-opacity="1" /><path clip-path="url(#clip810)" d="M189.213 685.625 L205.533 685.625 L205.533 689.56 L183.588 689.56 L183.588 685.625 Q186.251 682.87 190.834 678.241 Q195.44 673.588 196.621 672.245 Q198.866 669.722 199.746 667.986 Q200.649 666.227 200.649 664.537 Q200.649 661.782 198.704 660.046 Q196.783 658.31 193.681 658.31 Q191.482 658.31 189.028 659.074 Q186.598 659.838 183.82 661.389 L183.82 656.667 Q186.644 655.532 189.098 654.954 Q191.551 654.375 193.588 654.375 Q198.959 654.375 202.153 657.06 Q205.348 659.745 205.348 664.236 Q205.348 666.366 204.537 668.287 Q203.75 670.185 201.644 672.778 Q201.065 673.449 197.963 676.666 Q194.862 679.861 189.213 685.625 Z" fill="#000000" fill-rule="evenodd" fill-opacity="1" /><path clip-path="url(#clip810)" d="M215.348 683.68 L220.232 683.68 L220.232 689.56 L215.348 689.56 L215.348 683.68 Z" fill="#000000" fill-rule="evenodd" fill-opacity="1" /><path clip-path="url(#clip810)" d="M230.463 655 L248.82 655 L248.82 658.935 L234.746 658.935 L234.746 667.407 Q235.764 667.06 236.783 666.898 Q237.801 666.713 238.82 666.713 Q244.607 666.713 247.986 669.884 Q251.366 673.055 251.366 678.472 Q251.366 684.051 247.894 687.153 Q244.421 690.231 238.102 690.231 Q235.926 690.231 233.658 689.861 Q231.412 689.49 229.005 688.75 L229.005 684.051 Q231.088 685.185 233.31 685.741 Q235.533 686.296 238.009 686.296 Q242.014 686.296 244.352 684.19 Q246.69 682.083 246.69 678.472 Q246.69 674.861 244.352 672.754 Q242.014 670.648 238.009 670.648 Q236.135 670.648 234.26 671.065 Q232.408 671.481 230.463 672.361 L230.463 655 Z" fill="#000000" fill-rule="evenodd" fill-opacity="1" /><path clip-path="url(#clip810)" d="M194.19 469.312 Q190.579 469.312 188.75 472.877 Q186.945 476.418 186.945 483.548 Q186.945 490.654 188.75 494.219 Q190.579 497.761 194.19 497.761 Q197.825 497.761 199.63 494.219 Q201.459 490.654 201.459 483.548 Q201.459 476.418 199.63 472.877 Q197.825 469.312 194.19 469.312 M194.19 465.608 Q200 465.608 203.056 470.215 Q206.135 474.798 206.135 483.548 Q206.135 492.275 203.056 496.881 Q200 501.465 194.19 501.465 Q188.38 501.465 185.301 496.881 Q182.246 492.275 182.246 483.548 Q182.246 474.798 185.301 470.215 Q188.38 465.608 194.19 465.608 Z" fill="#000000" fill-rule="evenodd" fill-opacity="1" /><path clip-path="url(#clip810)" d="M214.352 494.914 L219.236 494.914 L219.236 500.793 L214.352 500.793 L214.352 494.914 Z" fill="#000000" fill-rule="evenodd" fill-opacity="1" /><path clip-path="url(#clip810)" d="M239.422 469.312 Q235.81 469.312 233.982 472.877 Q232.176 476.418 232.176 483.548 Q232.176 490.654 233.982 494.219 Q235.81 497.761 239.422 497.761 Q243.056 497.761 244.861 494.219 Q246.69 490.654 246.69 483.548 Q246.69 476.418 244.861 472.877 Q243.056 469.312 239.422 469.312 M239.422 465.608 Q245.232 465.608 248.287 470.215 Q251.366 474.798 251.366 483.548 Q251.366 492.275 248.287 496.881 Q245.232 501.465 239.422 501.465 Q233.611 501.465 230.533 496.881 Q227.477 492.275 227.477 483.548 Q227.477 474.798 230.533 470.215 Q233.611 465.608 239.422 465.608 Z" fill="#000000" fill-rule="evenodd" fill-opacity="1" /><path clip-path="url(#clip810)" d="M189.213 308.092 L205.533 308.092 L205.533 312.027 L183.588 312.027 L183.588 308.092 Q186.251 305.337 190.834 300.707 Q195.44 296.055 196.621 294.712 Q198.866 292.189 199.746 290.453 Q200.649 288.694 200.649 287.004 Q200.649 284.249 198.704 282.513 Q196.783 280.777 193.681 280.777 Q191.482 280.777 189.028 281.541 Q186.598 282.305 183.82 283.856 L183.82 279.133 Q186.644 277.999 189.098 277.42 Q191.551 276.842 193.588 276.842 Q198.959 276.842 202.153 279.527 Q205.348 282.212 205.348 286.703 Q205.348 288.832 204.537 290.754 Q203.75 292.652 201.644 295.244 Q201.065 295.916 197.963 299.133 Q194.862 302.328 189.213 308.092 Z" fill="#000000" fill-rule="evenodd" fill-opacity="1" /><path clip-path="url(#clip810)" d="M215.348 306.147 L220.232 306.147 L220.232 312.027 L215.348 312.027 L215.348 306.147 Z" fill="#000000" fill-rule="evenodd" fill-opacity="1" /><path clip-path="url(#clip810)" d="M230.463 277.467 L248.82 277.467 L248.82 281.402 L234.746 281.402 L234.746 289.874 Q235.764 289.527 236.783 289.365 Q237.801 289.18 238.82 289.18 Q244.607 289.18 247.986 292.351 Q251.366 295.522 251.366 300.939 Q251.366 306.517 247.894 309.619 Q244.421 312.698 238.102 312.698 Q235.926 312.698 233.658 312.328 Q231.412 311.957 229.005 311.217 L229.005 306.517 Q231.088 307.652 233.31 308.207 Q235.533 308.763 238.009 308.763 Q242.014 308.763 244.352 306.656 Q246.69 304.55 246.69 300.939 Q246.69 297.328 244.352 295.221 Q242.014 293.115 238.009 293.115 Q236.135 293.115 234.26 293.531 Q232.408 293.948 230.463 294.828 L230.463 277.467 Z" fill="#000000" fill-rule="evenodd" fill-opacity="1" /><path clip-path="url(#clip810)" d="M33.8307 841.504 Q33.2578 842.491 33.0032 843.668 Q32.7167 844.814 32.7167 846.215 Q32.7167 851.18 35.9632 853.853 Q39.1779 856.495 45.2253 856.495 L64.0042 856.495 L64.0042 862.384 L28.3562 862.384 L28.3562 856.495 L33.8944 856.495 Q30.6479 854.649 29.0883 851.689 Q27.4968 848.729 27.4968 844.496 Q27.4968 843.891 27.5923 843.159 Q27.656 842.427 27.8151 841.536 L33.8307 841.504 Z" fill="#000000" fill-rule="evenodd" fill-opacity="1" /><path clip-path="url(#clip810)" d="M44.7161 806.302 L47.5806 806.302 L47.5806 833.229 Q53.6281 832.847 56.8109 829.6 Q59.9619 826.322 59.9619 820.497 Q59.9619 817.123 59.1344 813.972 Q58.3069 810.789 56.6518 807.67 L62.1899 807.67 Q63.5267 810.821 64.227 814.131 Q64.9272 817.442 64.9272 820.847 Q64.9272 829.377 59.9619 834.374 Q54.9967 839.34 46.5303 839.34 Q37.7774 839.34 32.6531 834.629 Q27.4968 829.887 27.4968 821.866 Q27.4968 814.673 32.1438 810.503 Q36.7589 806.302 44.7161 806.302 M42.9973 812.158 Q38.1912 812.222 35.3266 814.864 Q32.4621 817.473 32.4621 821.802 Q32.4621 826.704 35.2312 829.664 Q38.0002 832.592 43.0292 833.038 L42.9973 812.158 Z" fill="#000000" fill-rule="evenodd" fill-opacity="1" /><path clip-path="url(#clip810)" d="M45.7664 773.232 Q39.4007 773.232 35.8996 775.874 Q32.3984 778.484 32.3984 783.226 Q32.3984 787.937 35.8996 790.578 Q39.4007 793.188 45.7664 793.188 Q52.1003 793.188 55.6014 790.578 Q59.1026 787.937 59.1026 783.226 Q59.1026 778.484 55.6014 775.874 Q52.1003 773.232 45.7664 773.232 M59.58 767.375 Q68.683 767.375 73.1071 771.418 Q77.5631 775.46 77.5631 783.799 Q77.5631 786.886 77.0857 789.624 Q76.6401 792.361 75.6852 794.939 L69.9879 794.939 Q71.3884 792.361 72.0568 789.846 Q72.7252 787.332 72.7252 784.722 Q72.7252 778.961 69.7015 776.096 Q66.7096 773.232 60.6303 773.232 L57.7339 773.232 Q60.885 775.046 62.4446 777.879 Q64.0042 780.712 64.0042 784.658 Q64.0042 791.215 59.0071 795.225 Q54.01 799.236 45.7664 799.236 Q37.491 799.236 32.4939 795.225 Q27.4968 791.215 27.4968 784.658 Q27.4968 780.712 29.0564 777.879 Q30.616 775.046 33.7671 773.232 L28.3562 773.232 L28.3562 767.375 L59.58 767.375 Z" fill="#000000" fill-rule="evenodd" fill-opacity="1" /><path clip-path="url(#clip810)" d="M33.8307 734.656 Q33.2578 735.642 33.0032 736.82 Q32.7167 737.966 32.7167 739.366 Q32.7167 744.331 35.9632 747.005 Q39.1779 749.647 45.2253 749.647 L64.0042 749.647 L64.0042 755.535 L28.3562 755.535 L28.3562 749.647 L33.8944 749.647 Q30.6479 747.801 29.0883 744.841 Q27.4968 741.881 27.4968 737.648 Q27.4968 737.043 27.5923 736.311 Q27.656 735.579 27.8151 734.687 L33.8307 734.656 Z" fill="#000000" fill-rule="evenodd" fill-opacity="1" /><path clip-path="url(#clip810)" d="M44.7161 699.453 L47.5806 699.453 L47.5806 726.38 Q53.6281 725.998 56.8109 722.752 Q59.9619 719.473 59.9619 713.649 Q59.9619 710.275 59.1344 707.124 Q58.3069 703.941 56.6518 700.822 L62.1899 700.822 Q63.5267 703.973 64.227 707.283 Q64.9272 710.593 64.9272 713.999 Q64.9272 722.529 59.9619 727.526 Q54.9967 732.491 46.5303 732.491 Q37.7774 732.491 32.6531 727.781 Q27.4968 723.038 27.4968 715.017 Q27.4968 707.824 32.1438 703.655 Q36.7589 699.453 44.7161 699.453 M42.9973 705.31 Q38.1912 705.373 35.3266 708.015 Q32.4621 710.625 32.4621 714.954 Q32.4621 719.855 35.2312 722.815 Q38.0002 725.744 43.0292 726.189 L42.9973 705.31 Z" fill="#000000" fill-rule="evenodd" fill-opacity="1" /><path clip-path="url(#clip810)" d="M18.2347 684.048 L28.3562 684.048 L28.3562 671.985 L32.9077 671.985 L32.9077 684.048 L52.2594 684.048 Q56.6199 684.048 57.8613 682.871 Q59.1026 681.661 59.1026 678.001 L59.1026 671.985 L64.0042 671.985 L64.0042 678.001 Q64.0042 684.78 61.4897 687.358 Q58.9434 689.937 52.2594 689.937 L32.9077 689.937 L32.9077 694.233 L28.3562 694.233 L28.3562 689.937 L18.2347 689.937 L18.2347 684.048 Z" fill="#000000" fill-rule="evenodd" fill-opacity="1" /><path clip-path="url(#clip810)" d="M1179.58 12.096 L1227.09 12.096 L1227.09 18.3344 L1188.85 65.6895 L1228.02 65.6895 L1228.02 72.576 L1178.64 72.576 L1178.64 66.3376 L1216.88 18.9825 L1179.58 18.9825 L1179.58 12.096 Z" fill="#000000" fill-rule="evenodd" fill-opacity="1" /><path clip-path="url(#clip810)" d="M1260.11 20.1573 L1249.01 50.2555 L1271.25 50.2555 L1260.11 20.1573 M1255.49 12.096 L1264.77 12.096 L1287.82 72.576 L1279.31 72.576 L1273.8 57.061 L1246.54 57.061 L1241.03 72.576 L1232.4 72.576 L1255.49 12.096 Z" fill="#000000" fill-rule="evenodd" fill-opacity="1" /><path clip-path="url(#clip810)" d="M1296.65 12.096 L1308.84 12.096 L1324.27 53.2532 L1339.79 12.096 L1351.98 12.096 L1351.98 72.576 L1344 72.576 L1344 19.4686 L1328.41 60.9499 L1320.18 60.9499 L1304.59 19.4686 L1304.59 72.576 L1296.65 72.576 L1296.65 12.096 Z" fill="#000000" fill-rule="evenodd" fill-opacity="1" /><path clip-path="url(#clip810)" d="M1376.41 43.6931 L1376.41 65.8515 L1389.53 65.8515 Q1396.14 65.8515 1399.3 63.1374 Q1402.5 60.3828 1402.5 54.752 Q1402.5 49.0808 1399.3 46.4072 Q1396.14 43.6931 1389.53 43.6931 L1376.41 43.6931 M1376.41 18.8205 L1376.41 37.0496 L1388.52 37.0496 Q1394.52 37.0496 1397.43 34.8216 Q1400.39 32.5531 1400.39 27.935 Q1400.39 23.3575 1397.43 21.089 Q1394.52 18.8205 1388.52 18.8205 L1376.41 18.8205 M1368.23 12.096 L1389.13 12.096 Q1398.49 12.096 1403.55 15.9849 Q1408.61 19.8737 1408.61 27.0438 Q1408.61 32.5936 1406.02 35.8748 Q1403.43 39.156 1398.41 39.9662 Q1404.44 41.2625 1407.76 45.3944 Q1411.13 49.4858 1411.13 55.6432 Q1411.13 63.745 1405.62 68.1605 Q1400.11 72.576 1389.94 72.576 L1368.23 72.576 L1368.23 12.096 Z" fill="#000000" fill-rule="evenodd" fill-opacity="1" /><path clip-path="url(#clip810)" d="M1432.92 65.6895 L1461.48 65.6895 L1461.48 72.576 L1423.08 72.576 L1423.08 65.6895 Q1427.73 60.8689 1435.75 52.7671 Q1443.82 44.6248 1445.88 42.2752 Q1449.81 37.8598 1451.35 34.8216 Q1452.93 31.7429 1452.93 28.7857 Q1452.93 23.9651 1449.53 20.927 Q1446.17 17.8888 1440.74 17.8888 Q1436.89 17.8888 1432.6 19.2256 Q1428.34 20.5624 1423.48 23.2765 L1423.48 15.0127 Q1428.42 13.0277 1432.72 12.015 Q1437.01 11.0023 1440.58 11.0023 Q1449.97 11.0023 1455.56 15.7013 Q1461.15 20.4004 1461.15 28.2591 Q1461.15 31.9859 1459.74 35.3482 Q1458.36 38.6699 1454.67 43.2069 Q1453.66 44.3817 1448.23 50.0125 Q1442.8 55.6027 1432.92 65.6895 Z" fill="#000000" fill-rule="evenodd" fill-opacity="1" /><polyline clip-path="url(#clip812)" style="stroke:#009af9; stroke-linecap:butt; stroke-linejoin:round; stroke-width:8; stroke-opacity:1; fill:none" points="
  1455.62,1374.46 1619.8,1374.46 1680.91,1374.46 1762.32,1374.46 1778.1,1374.46 1886.69,1374.46 1912.59,1374.46 1939.08,1374.46 1962.15,1374.46 1984.23,1374.46 
  1999.01,1374.46 2017.22,1374.46 2042.04,1374.46 2069.31,1374.46 2086.26,1374.46 2099.26,1374.46 2116.47,1374.46 2120,1374.46 2133.63,1374.46 2144.42,1374.46 
  2154.26,1374.46 2163.89,1374.46 2177,1374.46 2195.47,1374.46 2201.25,1374.46 2209.57,1374.46 2216.24,1374.46 2222.18,1374.46 2229.68,1374.46 2237.6,1374.46 
  2242.38,1374.46 2254.83,1374.46 2259.65,1374.46 2264.21,1374.46 2269.87,1374.46 2275.12,1374.46 2281.44,1374.46 2284.93,1374.46 2289.87,1374.46 2294.3,1374.46 
  
  "/>
<polyline clip-path="url(#clip812)" style="stroke:#e26f46; stroke-linecap:butt; stroke-linejoin:round; stroke-width:8; stroke-opacity:1; fill:none" points="
  1363.48,1374.46 1539.59,1374.46 1653.08,1374.46 1716.17,1374.46 1761.56,1374.46 1798,1374.46 1854.55,1374.46 1883.33,1374.46 1913.01,1374.46 1940.89,1374.46 
  1960.84,1374.46 1973.19,1374.46 1992.18,1374.46 2007.23,1374.46 2022.8,1374.46 2038.14,1374.46 2051.23,1374.46 2061.43,1374.46 2075.04,1374.46 2085.43,1374.46 
  2088.17,1374.46 2098,1374.46 2105.87,1374.46 2113.29,1374.46 2119.65,1374.46 2126.88,1374.46 2136.14,1374.46 2142.18,1374.46 2151.94,1374.46 2169.8,1374.46 
  2176.72,1374.46 2184.23,1374.46 2192.96,1374.46 2201.38,1374.46 2211.49,1374.46 2222.89,1374.46 2229.28,1374.46 2234.58,1374.46 2241.29,1374.46 2247.14,1374.46 
  
  "/>
<polyline clip-path="url(#clip812)" style="stroke:#3da44d; stroke-linecap:butt; stroke-linejoin:round; stroke-width:8; stroke-opacity:1; fill:none" points="
  385.646,176.343 482.913,176.343 547.732,176.343 597.139,204.237 638.367,204.237 674.422,204.237 724.227,211.82 769.134,211.82 799.338,211.82 817.725,211.82 
  834.45,220.663 849.442,220.663 864.073,220.663 876.95,220.663 889.757,220.663 901.784,220.663 913.064,1088.95 923.881,1088.95 934.012,1088.95 943.698,1088.95 
  952.643,1088.95 961.422,1088.95 969.818,1088.95 978.025,1088.95 985.664,1088.95 1000.39,1088.95 1008.24,1088.95 1015.21,1088.95 1022.02,1088.95 1028.61,1088.95 
  1035.22,1088.95 1041.14,1088.95 1046.41,1088.95 1051.79,1088.95 1057.21,1088.95 1062.4,1088.95 1067.48,1088.95 1072.45,1088.95 1077.34,1088.95 1082.41,1088.95 
  1086.84,1088.95 1091.37,1088.95 1095.84,1088.95 1100.08,1088.95 1104.2,1088.95 1108.27,1088.95 1112.33,1088.95 1116.74,1088.95 1121.62,1088.95 1126.3,1088.95 
  1131.02,1088.95 1135.24,1088.95 1139.28,1088.95 1143.12,1088.95 1146.92,1088.95 1150.64,1088.95 1154.36,1088.95 1158.15,1088.95 1161.68,1088.95 1165.19,1088.95 
  1168.52,1088.95 1171.82,1088.95 1175.05,1088.95 1178.36,1088.95 1181.59,1088.95 1184.77,1088.95 1187.8,1088.95 1192.64,1088.95 1195.95,1088.95 1198.99,1088.95 
  1201.93,1088.95 1204.77,1088.95 1207.68,1088.95 1210.46,1088.95 1213.41,1088.95 1216.13,1088.95 1218.83,1088.95 1221.5,1088.95 1224.17,1088.95 1226.88,1088.95 
  1229.52,1088.95 1240.75,1135.59 1248.5,1135.59 1256.03,1135.59 1263.16,1135.59 1270.29,1135.59 1276.82,1135.59 1284.97,1135.59 1291.49,1135.59 1297.75,1135.59 
  1303.72,1135.59 1309.41,1135.59 1314.99,1135.59 1320.73,1135.59 1326.51,1135.59 1332.25,1135.59 1337.76,1135.59 1342.89,1135.59 1347.81,1135.59 1352.69,1135.59 
  1357.3,1135.59 1361.93,1135.59 1366.65,1135.59 1371.28,1135.59 1375.85,1135.59 1380.13,1135.59 1384.45,1135.59 1388.67,1135.59 1412.22,1347.75 1432.49,1347.75 
  1455.05,1347.75 1471.91,1347.75 1487.39,1347.75 1502.15,1347.75 1515.76,1347.75 1529.68,1347.75 1543.97,1347.75 1582.65,1368.7 1615.53,1368.7 1644.75,1372.44 
  1680.99,1374.46 2055.76,1374.46 2056.03,1374.46 2056.33,1374.46 2056.56,1374.46 2056.79,1374.46 2057.02,1374.46 2057.24,1374.46 2057.46,1374.46 2057.68,1374.46 
  2057.91,1374.46 2058.15,1374.46 2058.38,1374.46 2058.62,1374.46 2058.89,1374.46 2059.13,1374.46 2059.36,1374.46 2059.59,1374.46 2059.81,1374.46 2060,1374.46 
  2060.21,1374.46 2060.42,1374.46 2060.71,1374.46 2061,1374.46 2061.36,1374.46 2061.65,1374.46 2061.9,1374.46 2062.17,1374.46 2062.41,1374.46 2062.73,1374.46 
  2063.02,1374.46 2063.34,1374.46 2063.61,1374.46 2063.86,1374.46 2064.17,1374.46 2065.79,1374.46 2067.17,1374.46 2068.87,1374.46 2070.31,1374.46 2071.82,1374.46 
  2073.04,1374.46 2074.31,1374.46 2075.57,1374.46 2076.84,1374.46 2078.3,1374.46 2079.61,1374.46 2084.26,1374.46 2089.06,1374.46 2093.47,1374.46 2105.52,1374.46 
  2162.51,1374.46 2163.38,1374.46 2164.35,1374.46 2165.2,1374.46 2166.09,1374.46 2166.95,1374.46 2167.78,1374.46 2168.68,1374.46 2169.56,1374.46 2170.48,1374.46 
  2171.44,1374.46 2172.36,1374.46 2173.25,1374.46 2174.18,1374.46 2175.11,1374.46 2178.49,1374.46 2182.46,1374.46 2185.34,1374.46 2188.34,1374.46 2191.28,1374.46 
  2198.99,1374.46 2221.43,1374.46 2224.49,1374.46 2227.5,1374.46 2229.72,1374.46 2232.69,1374.46 2235.24,1374.46 2238.03,1374.46 2240.51,1374.46 2241.58,1374.46 
  2246.88,1374.46 2261.61,1374.46 2266.7,1374.46 2272.03,1374.46 2277.26,1374.46 2280.91,1374.46 
  "/>
<polyline clip-path="url(#clip812)" style="stroke:#c271d2; stroke-linecap:butt; stroke-linejoin:round; stroke-width:8; stroke-opacity:1; fill:none" points="
  345.82,159.909 454.71,273.783 527.774,273.783 584.798,273.783 630.666,273.783 665.169,1088.95 694.877,1088.95 720.857,1088.95 744.733,1088.95 766.791,1088.95 
  787.017,1088.95 804.89,1088.95 820.987,1088.95 836.271,1088.95 850.777,1088.95 864.27,1088.95 877.014,1088.95 888.874,1088.95 900.298,1088.95 911.391,1088.95 
  921.933,1088.95 931.965,1088.95 941.51,1088.95 950.4,1088.95 1066.25,1088.95 1071.93,1088.95 1077.09,1088.95 1081.98,1088.95 1086.92,1088.95 1091.86,1088.95 
  1096.57,1088.95 1101.19,1088.95 1105.83,1088.95 1110.33,1088.95 1117.6,1088.95 1124.05,1088.95 1131.96,1088.95 1139.83,1088.95 1144.34,1088.95 1148.43,1088.95 
  1152.17,1088.95 1155.77,1088.95 1159.47,1088.95 1162.9,1088.95 1166.46,1088.95 1169.88,1088.95 1173.41,1088.95 1176.79,1088.95 1180.2,1088.95 1185.34,1088.95 
  1191.67,1088.95 1197.88,1088.95 1201.8,1088.95 1205.56,1088.95 1208.82,1088.95 1212.15,1088.95 1215.23,1088.95 1218.19,1088.95 1221,1088.95 1223.75,1088.95 
  1226.6,1088.95 1229.33,1088.95 1232.03,1088.95 1234.86,1088.95 1237.56,1088.95 1240.13,1088.95 1242.75,1088.95 1246.18,1088.95 1248.82,1088.95 1251.3,1088.95 
  1253.86,1088.95 1256.33,1088.95 1258.7,1088.95 1261.11,1088.95 1263.53,1088.95 1265.84,1088.95 1268.14,1088.95 1270.41,1088.95 1272.66,1088.95 1274.91,1088.95 
  1277.14,1088.95 1284.01,1135.59 1291.28,1135.59 1297.78,1135.59 1304.2,1135.59 1310.42,1135.59 1316.54,1135.59 1322.49,1135.59 1328.28,1135.59 1334.02,1135.59 
  1339.5,1135.59 1344.86,1135.59 1350.05,1135.59 1355.22,1135.59 1360.19,1135.59 1367.25,1135.59 1372.02,1135.59 1376.68,1135.59 1381.3,1135.59 1385.82,1135.59 
  1390.25,1135.59 1394.59,1135.59 1398.81,1135.59 1402.95,1135.59 1407.06,1135.59 1411.09,1135.59 1414.96,1135.59 1418.8,1135.59 1440.48,1347.75 1460.37,1347.75 
  1478.77,1347.75 1495.41,1347.75 1510.9,1347.75 1525.53,1347.75 1539.25,1347.75 1552.79,1347.75 1565.56,1347.75 1603.47,1368.7 1636.84,1368.7 1665.86,1368.7 
  1729.91,1374.46 1731.08,1374.46 1732.09,1374.46 1733.09,1374.46 1734.08,1374.46 1735.08,1374.46 1736.08,1374.46 1737.08,1374.46 1738.06,1374.46 1739.05,1374.46 
  1740.03,1374.46 1741,1374.46 1741.98,1374.46 1742.95,1374.46 1743.93,1374.46 1744.89,1374.46 1745.83,1374.46 1746.82,1374.46 1747.77,1374.46 1748.72,1374.46 
  1749.66,1374.46 1750.61,1374.46 1751.56,1374.46 1752.48,1374.46 1753.4,1374.46 1754.33,1374.46 1755.25,1374.46 1756.18,1374.46 1757.12,1374.46 1758.02,1374.46 
  1758.93,1374.46 1759.83,1374.46 1760.72,1374.46 1761.62,1374.46 1762.5,1374.46 1767.91,1374.46 1772.82,1374.46 1777.68,1374.46 1782.59,1374.46 1787.15,1374.46 
  1792.11,1374.46 1796.55,1374.46 1800.83,1374.46 1805.14,1374.46 1809.51,1374.46 1813.58,1374.46 1827.26,1374.46 1840.26,1374.46 1852.39,1374.46 1874.28,1374.46 
  1877.3,1374.46 1880.24,1374.46 1883.17,1374.46 1886.08,1374.46 1888.91,1374.46 1891.72,1374.46 1894.52,1374.46 1897.45,1374.46 1900.17,1374.46 1902.86,1374.46 
  1905.45,1374.46 1908.1,1374.46 1910.61,1374.46 1913.12,1374.46 1915.73,1374.46 1924.26,1374.46 1932.13,1374.46 1939.73,1374.46 1947.13,1374.46 1954.18,1374.46 
  1963.24,1374.46 1969.88,1374.46 1976.3,1374.46 1982.77,1374.46 1988.77,1374.46 1995.01,1374.46 2000.78,1374.46 2006.32,1374.46 2012.13,1374.46 2015.38,1374.46 
  2020.74,1374.46 2036.69,1374.46 2051.01,1374.46 2063.25,1374.46 2071.52,1374.46 2080.84,1374.46 
  "/>
<path clip-path="url(#clip810)" d="
M1806.9 425.586 L2283.91 425.586 L2283.91 166.386 L1806.9 166.386  Z
  " fill="#ffffff" fill-rule="evenodd" fill-opacity="1"/>
<polyline clip-path="url(#clip810)" style="stroke:#000000; stroke-linecap:butt; stroke-linejoin:round; stroke-width:4; stroke-opacity:1; fill:none" points="
  1806.9,425.586 2283.91,425.586 2283.91,166.386 1806.9,166.386 1806.9,425.586 
  "/>
<polyline clip-path="url(#clip810)" style="stroke:#009af9; stroke-linecap:butt; stroke-linejoin:round; stroke-width:4; stroke-opacity:1; fill:none" points="
  1829.85,218.226 1967.54,218.226 
  "/>
<path clip-path="url(#clip810)" d="M2005.68 213.562 Q2004.96 213.145 2004.1 212.96 Q2003.27 212.752 2002.25 212.752 Q1998.64 212.752 1996.69 215.113 Q1994.77 217.451 1994.77 221.849 L1994.77 235.506 L1990.49 235.506 L1990.49 209.58 L1994.77 209.58 L1994.77 213.608 Q1996.12 211.247 1998.27 210.113 Q2000.42 208.955 2003.5 208.955 Q2003.94 208.955 2004.47 209.025 Q2005 209.071 2005.65 209.187 L2005.68 213.562 Z" fill="#000000" fill-rule="evenodd" fill-opacity="1" /><path clip-path="url(#clip810)" d="M2021.93 222.474 Q2016.76 222.474 2014.77 223.654 Q2012.78 224.835 2012.78 227.682 Q2012.78 229.951 2014.26 231.293 Q2015.77 232.613 2018.34 232.613 Q2021.88 232.613 2024.01 230.113 Q2026.16 227.59 2026.16 223.423 L2026.16 222.474 L2021.93 222.474 M2030.42 220.715 L2030.42 235.506 L2026.16 235.506 L2026.16 231.571 Q2024.7 233.932 2022.53 235.066 Q2020.35 236.178 2017.2 236.178 Q2013.22 236.178 2010.86 233.955 Q2008.52 231.71 2008.52 227.96 Q2008.52 223.585 2011.44 221.363 Q2014.38 219.141 2020.19 219.141 L2026.16 219.141 L2026.16 218.724 Q2026.16 215.784 2024.22 214.187 Q2022.3 212.567 2018.8 212.567 Q2016.58 212.567 2014.47 213.099 Q2012.37 213.631 2010.42 214.696 L2010.42 210.761 Q2012.76 209.858 2014.96 209.418 Q2017.16 208.955 2019.24 208.955 Q2024.87 208.955 2027.64 211.872 Q2030.42 214.789 2030.42 220.715 Z" fill="#000000" fill-rule="evenodd" fill-opacity="1" /><path clip-path="url(#clip810)" d="M2060.74 219.858 L2060.74 235.506 L2056.49 235.506 L2056.49 219.997 Q2056.49 216.317 2055.05 214.488 Q2053.61 212.659 2050.74 212.659 Q2047.3 212.659 2045.3 214.858 Q2043.31 217.057 2043.31 220.854 L2043.31 235.506 L2039.03 235.506 L2039.03 209.58 L2043.31 209.58 L2043.31 213.608 Q2044.84 211.27 2046.9 210.113 Q2048.99 208.955 2051.69 208.955 Q2056.16 208.955 2058.45 211.733 Q2060.74 214.488 2060.74 219.858 Z" fill="#000000" fill-rule="evenodd" fill-opacity="1" /><path clip-path="url(#clip810)" d="M2086.3 213.516 L2086.3 199.488 L2090.56 199.488 L2090.56 235.506 L2086.3 235.506 L2086.3 231.617 Q2084.96 233.932 2082.9 235.066 Q2080.86 236.178 2077.99 236.178 Q2073.29 236.178 2070.33 232.428 Q2067.39 228.678 2067.39 222.567 Q2067.39 216.455 2070.33 212.705 Q2073.29 208.955 2077.99 208.955 Q2080.86 208.955 2082.9 210.09 Q2084.96 211.201 2086.3 213.516 M2071.79 222.567 Q2071.79 227.266 2073.71 229.951 Q2075.65 232.613 2079.03 232.613 Q2082.41 232.613 2084.36 229.951 Q2086.3 227.266 2086.3 222.567 Q2086.3 217.867 2084.36 215.205 Q2082.41 212.52 2079.03 212.52 Q2075.65 212.52 2073.71 215.205 Q2071.79 217.867 2071.79 222.567 Z" fill="#000000" fill-rule="evenodd" fill-opacity="1" /><path clip-path="url(#clip810)" d="M2109.38 212.567 Q2105.95 212.567 2103.96 215.252 Q2101.97 217.914 2101.97 222.567 Q2101.97 227.219 2103.94 229.904 Q2105.93 232.566 2109.38 232.566 Q2112.78 232.566 2114.77 229.881 Q2116.76 227.196 2116.76 222.567 Q2116.76 217.96 2114.77 215.275 Q2112.78 212.567 2109.38 212.567 M2109.38 208.955 Q2114.93 208.955 2118.11 212.567 Q2121.28 216.178 2121.28 222.567 Q2121.28 228.932 2118.11 232.566 Q2114.93 236.178 2109.38 236.178 Q2103.8 236.178 2100.63 232.566 Q2097.48 228.932 2097.48 222.567 Q2097.48 216.178 2100.63 212.567 Q2103.8 208.955 2109.38 208.955 Z" fill="#000000" fill-rule="evenodd" fill-opacity="1" /><path clip-path="url(#clip810)" d="M2148.52 214.557 Q2150.12 211.687 2152.34 210.321 Q2154.56 208.955 2157.57 208.955 Q2161.62 208.955 2163.82 211.803 Q2166.02 214.627 2166.02 219.858 L2166.02 235.506 L2161.74 235.506 L2161.74 219.997 Q2161.74 216.27 2160.42 214.465 Q2159.1 212.659 2156.39 212.659 Q2153.08 212.659 2151.16 214.858 Q2149.24 217.057 2149.24 220.854 L2149.24 235.506 L2144.96 235.506 L2144.96 219.997 Q2144.96 216.247 2143.64 214.465 Q2142.32 212.659 2139.56 212.659 Q2136.3 212.659 2134.38 214.881 Q2132.46 217.08 2132.46 220.854 L2132.46 235.506 L2128.17 235.506 L2128.17 209.58 L2132.46 209.58 L2132.46 213.608 Q2133.92 211.224 2135.95 210.09 Q2137.99 208.955 2140.79 208.955 Q2143.61 208.955 2145.58 210.391 Q2147.57 211.826 2148.52 214.557 Z" fill="#000000" fill-rule="evenodd" fill-opacity="1" /><polyline clip-path="url(#clip810)" style="stroke:#e26f46; stroke-linecap:butt; stroke-linejoin:round; stroke-width:4; stroke-opacity:1; fill:none" points="
  1829.85,270.066 1967.54,270.066 
  "/>
<path clip-path="url(#clip810)" d="M1990.49 252.786 L1995.17 252.786 L1995.17 283.411 L2011.99 283.411 L2011.99 287.346 L1990.49 287.346 L1990.49 252.786 Z" fill="#000000" fill-rule="evenodd" fill-opacity="1" /><path clip-path="url(#clip810)" d="M2016.9 252.786 L2021.58 252.786 L2021.58 266.953 L2038.57 266.953 L2038.57 252.786 L2043.24 252.786 L2043.24 287.346 L2038.57 287.346 L2038.57 270.888 L2021.58 270.888 L2021.58 287.346 L2016.9 287.346 L2016.9 252.786 Z" fill="#000000" fill-rule="evenodd" fill-opacity="1" /><polyline clip-path="url(#clip810)" style="stroke:#3da44d; stroke-linecap:butt; stroke-linejoin:round; stroke-width:4; stroke-opacity:1; fill:none" points="
  1829.85,321.906 1967.54,321.906 
  "/>
<path clip-path="url(#clip810)" d="M1995.17 322.682 L1995.17 335.344 L2002.67 335.344 Q2006.44 335.344 2008.24 333.793 Q2010.07 332.219 2010.07 329.001 Q2010.07 325.76 2008.24 324.233 Q2006.44 322.682 2002.67 322.682 L1995.17 322.682 M1995.17 308.469 L1995.17 318.885 L2002.09 318.885 Q2005.51 318.885 2007.18 317.612 Q2008.87 316.316 2008.87 313.677 Q2008.87 311.061 2007.18 309.765 Q2005.51 308.469 2002.09 308.469 L1995.17 308.469 M1990.49 304.626 L2002.43 304.626 Q2007.78 304.626 2010.68 306.848 Q2013.57 309.071 2013.57 313.168 Q2013.57 316.339 2012.09 318.214 Q2010.61 320.089 2007.74 320.552 Q2011.18 321.293 2013.08 323.654 Q2015 325.992 2015 329.51 Q2015 334.14 2011.86 336.663 Q2008.71 339.186 2002.9 339.186 L1990.49 339.186 L1990.49 304.626 Z" fill="#000000" fill-rule="evenodd" fill-opacity="1" /><path clip-path="url(#clip810)" d="M2036.21 307.798 Q2031.11 307.798 2028.11 311.594 Q2025.12 315.39 2025.12 321.941 Q2025.12 328.469 2028.11 332.265 Q2031.11 336.061 2036.21 336.061 Q2041.3 336.061 2044.26 332.265 Q2047.25 328.469 2047.25 321.941 Q2047.25 315.39 2044.26 311.594 Q2041.3 307.798 2036.21 307.798 M2036.21 304.001 Q2043.48 304.001 2047.83 308.886 Q2052.18 313.747 2052.18 321.941 Q2052.18 330.112 2047.83 334.996 Q2043.48 339.858 2036.21 339.858 Q2028.92 339.858 2024.54 334.996 Q2020.19 330.135 2020.19 321.941 Q2020.19 313.747 2024.54 308.886 Q2028.92 304.001 2036.21 304.001 Z" fill="#000000" fill-rule="evenodd" fill-opacity="1" /><path clip-path="url(#clip810)" d="M2059.49 304.626 L2064.17 304.626 L2064.17 318.793 L2081.16 318.793 L2081.16 304.626 L2085.84 304.626 L2085.84 339.186 L2081.16 339.186 L2081.16 322.728 L2064.17 322.728 L2064.17 339.186 L2059.49 339.186 L2059.49 304.626 Z" fill="#000000" fill-rule="evenodd" fill-opacity="1" /><path clip-path="url(#clip810)" d="M2099.82 322.682 L2099.82 335.344 L2107.32 335.344 Q2111.09 335.344 2112.9 333.793 Q2114.73 332.219 2114.73 329.001 Q2114.73 325.76 2112.9 324.233 Q2111.09 322.682 2107.32 322.682 L2099.82 322.682 M2099.82 308.469 L2099.82 318.885 L2106.74 318.885 Q2110.17 318.885 2111.83 317.612 Q2113.52 316.316 2113.52 313.677 Q2113.52 311.061 2111.83 309.765 Q2110.17 308.469 2106.74 308.469 L2099.82 308.469 M2095.14 304.626 L2107.09 304.626 Q2112.43 304.626 2115.33 306.848 Q2118.22 309.071 2118.22 313.168 Q2118.22 316.339 2116.74 318.214 Q2115.26 320.089 2112.39 320.552 Q2115.84 321.293 2117.73 323.654 Q2119.66 325.992 2119.66 329.51 Q2119.66 334.14 2116.51 336.663 Q2113.36 339.186 2107.55 339.186 L2095.14 339.186 L2095.14 304.626 Z" fill="#000000" fill-rule="evenodd" fill-opacity="1" /><polyline clip-path="url(#clip810)" style="stroke:#c271d2; stroke-linecap:butt; stroke-linejoin:round; stroke-width:4; stroke-opacity:1; fill:none" points="
  1829.85,373.746 1967.54,373.746 
  "/>
<path clip-path="url(#clip810)" d="M2012.2 375.378 L2012.2 391.026 L2007.94 391.026 L2007.94 375.517 Q2007.94 371.837 2006.51 370.008 Q2005.07 368.179 2002.2 368.179 Q1998.75 368.179 1996.76 370.378 Q1994.77 372.577 1994.77 376.374 L1994.77 391.026 L1990.49 391.026 L1990.49 355.008 L1994.77 355.008 L1994.77 369.128 Q1996.3 366.79 1998.36 365.633 Q2000.44 364.475 2003.15 364.475 Q2007.62 364.475 2009.91 367.253 Q2012.2 370.008 2012.2 375.378 Z" fill="#000000" fill-rule="evenodd" fill-opacity="1" /><path clip-path="url(#clip810)" d="M2031.49 393.434 Q2029.68 398.063 2027.97 399.475 Q2026.25 400.887 2023.38 400.887 L2019.98 400.887 L2019.98 397.323 L2022.48 397.323 Q2024.24 397.323 2025.21 396.489 Q2026.18 395.656 2027.36 392.554 L2028.13 390.61 L2017.64 365.1 L2022.16 365.1 L2030.26 385.378 L2038.36 365.1 L2042.87 365.1 L2031.49 393.434 Z" fill="#000000" fill-rule="evenodd" fill-opacity="1" /><path clip-path="url(#clip810)" d="M2052.87 387.137 L2052.87 400.887 L2048.59 400.887 L2048.59 365.1 L2052.87 365.1 L2052.87 369.036 Q2054.22 366.721 2056.25 365.61 Q2058.31 364.475 2061.16 364.475 Q2065.88 364.475 2068.82 368.225 Q2071.79 371.975 2071.79 378.087 Q2071.79 384.198 2068.82 387.948 Q2065.88 391.698 2061.16 391.698 Q2058.31 391.698 2056.25 390.586 Q2054.22 389.452 2052.87 387.137 M2067.36 378.087 Q2067.36 373.387 2065.42 370.725 Q2063.5 368.04 2060.12 368.04 Q2056.74 368.04 2054.8 370.725 Q2052.87 373.387 2052.87 378.087 Q2052.87 382.786 2054.8 385.471 Q2056.74 388.133 2060.12 388.133 Q2063.5 388.133 2065.42 385.471 Q2067.36 382.786 2067.36 378.087 Z" fill="#000000" fill-rule="evenodd" fill-opacity="1" /><path clip-path="url(#clip810)" d="M2101.02 376.999 L2101.02 379.082 L2081.44 379.082 Q2081.72 383.48 2084.08 385.795 Q2086.46 388.086 2090.7 388.086 Q2093.15 388.086 2095.44 387.485 Q2097.76 386.883 2100.03 385.679 L2100.03 389.707 Q2097.73 390.679 2095.33 391.188 Q2092.92 391.698 2090.44 391.698 Q2084.24 391.698 2080.61 388.086 Q2076.99 384.475 2076.99 378.318 Q2076.99 371.952 2080.42 368.225 Q2083.87 364.475 2089.7 364.475 Q2094.93 364.475 2097.97 367.855 Q2101.02 371.212 2101.02 376.999 M2096.76 375.749 Q2096.72 372.253 2094.8 370.17 Q2092.9 368.087 2089.75 368.087 Q2086.18 368.087 2084.03 370.1 Q2081.9 372.114 2081.58 375.772 L2096.76 375.749 Z" fill="#000000" fill-rule="evenodd" fill-opacity="1" /><path clip-path="url(#clip810)" d="M2123.04 369.082 Q2122.32 368.665 2121.46 368.48 Q2120.63 368.272 2119.61 368.272 Q2116 368.272 2114.05 370.633 Q2112.13 372.971 2112.13 377.369 L2112.13 391.026 L2107.85 391.026 L2107.85 365.1 L2112.13 365.1 L2112.13 369.128 Q2113.48 366.767 2115.63 365.633 Q2117.78 364.475 2120.86 364.475 Q2121.3 364.475 2121.83 364.545 Q2122.36 364.591 2123.01 364.707 L2123.04 369.082 Z" fill="#000000" fill-rule="evenodd" fill-opacity="1" /><path clip-path="url(#clip810)" d="M2146.11 378.087 Q2146.11 373.387 2144.17 370.725 Q2142.25 368.04 2138.87 368.04 Q2135.49 368.04 2133.54 370.725 Q2131.62 373.387 2131.62 378.087 Q2131.62 382.786 2133.54 385.471 Q2135.49 388.133 2138.87 388.133 Q2142.25 388.133 2144.17 385.471 Q2146.11 382.786 2146.11 378.087 M2131.62 369.036 Q2132.97 366.721 2135 365.61 Q2137.06 364.475 2139.91 364.475 Q2144.63 364.475 2147.57 368.225 Q2150.54 371.975 2150.54 378.087 Q2150.54 384.198 2147.57 387.948 Q2144.63 391.698 2139.91 391.698 Q2137.06 391.698 2135 390.586 Q2132.97 389.452 2131.62 387.137 L2131.62 391.026 L2127.34 391.026 L2127.34 355.008 L2131.62 355.008 L2131.62 369.036 Z" fill="#000000" fill-rule="evenodd" fill-opacity="1" /><path clip-path="url(#clip810)" d="M2169.38 377.994 Q2164.22 377.994 2162.23 379.174 Q2160.23 380.355 2160.23 383.202 Q2160.23 385.471 2161.72 386.813 Q2163.22 388.133 2165.79 388.133 Q2169.33 388.133 2171.46 385.633 Q2173.61 383.11 2173.61 378.943 L2173.61 377.994 L2169.38 377.994 M2177.87 376.235 L2177.87 391.026 L2173.61 391.026 L2173.61 387.091 Q2172.16 389.452 2169.98 390.586 Q2167.8 391.698 2164.66 391.698 Q2160.67 391.698 2158.31 389.475 Q2155.98 387.23 2155.98 383.48 Q2155.98 379.105 2158.89 376.883 Q2161.83 374.661 2167.64 374.661 L2173.61 374.661 L2173.61 374.244 Q2173.61 371.304 2171.67 369.707 Q2169.75 368.087 2166.25 368.087 Q2164.03 368.087 2161.92 368.619 Q2159.82 369.151 2157.87 370.216 L2157.87 366.281 Q2160.21 365.378 2162.41 364.938 Q2164.61 364.475 2166.69 364.475 Q2172.32 364.475 2175.1 367.392 Q2177.87 370.309 2177.87 376.235 Z" fill="#000000" fill-rule="evenodd" fill-opacity="1" /><path clip-path="url(#clip810)" d="M2208.2 375.378 L2208.2 391.026 L2203.94 391.026 L2203.94 375.517 Q2203.94 371.837 2202.5 370.008 Q2201.07 368.179 2198.2 368.179 Q2194.75 368.179 2192.76 370.378 Q2190.77 372.577 2190.77 376.374 L2190.77 391.026 L2186.48 391.026 L2186.48 365.1 L2190.77 365.1 L2190.77 369.128 Q2192.29 366.79 2194.35 365.633 Q2196.44 364.475 2199.15 364.475 Q2203.61 364.475 2205.91 367.253 Q2208.2 370.008 2208.2 375.378 Z" fill="#000000" fill-rule="evenodd" fill-opacity="1" /><path clip-path="url(#clip810)" d="M2233.75 369.036 L2233.75 355.008 L2238.01 355.008 L2238.01 391.026 L2233.75 391.026 L2233.75 387.137 Q2232.41 389.452 2230.35 390.586 Q2228.31 391.698 2225.44 391.698 Q2220.74 391.698 2217.78 387.948 Q2214.84 384.198 2214.84 378.087 Q2214.84 371.975 2217.78 368.225 Q2220.74 364.475 2225.44 364.475 Q2228.31 364.475 2230.35 365.61 Q2232.41 366.721 2233.75 369.036 M2219.24 378.087 Q2219.24 382.786 2221.16 385.471 Q2223.1 388.133 2226.48 388.133 Q2229.86 388.133 2231.81 385.471 Q2233.75 382.786 2233.75 378.087 Q2233.75 373.387 2231.81 370.725 Q2229.86 368.04 2226.48 368.04 Q2223.1 368.04 2221.16 370.725 Q2219.24 373.387 2219.24 378.087 Z" fill="#000000" fill-rule="evenodd" fill-opacity="1" /></svg>
