<?xml version="1.0" encoding="utf-8"?>
<svg xmlns="http://www.w3.org/2000/svg" xmlns:xlink="http://www.w3.org/1999/xlink" width="900" height="450" viewBox="0 0 3600 1800">
<defs>
  <clipPath id="clip010">
    <rect x="0" y="0" width="3600" height="1800"/>
  </clipPath>
</defs>
<path clip-path="url(#clip010)" d="
M0 1800 L3600 1800 L3600 0 L0 0  Z
  " fill="#ffffff" fill-rule="evenodd" fill-opacity="1"/>
<defs>
  <clipPath id="clip011">
    <rect x="720" y="0" width="2521" height="1800"/>
  </clipPath>
</defs>
<path clip-path="url(#clip010)" d="
M168.598 1693.09 L2763.8 1693.09 L2763.8 47.2441 L168.598 47.2441  Z
  " fill="#ffffff" fill-rule="evenodd" fill-opacity="1"/>
<defs>
  <clipPath id="clip012">
    <rect x="168" y="47" width="2596" height="1647"/>
  </clipPath>
</defs>
<polyline clip-path="url(#clip012)" style="stroke:#000000; stroke-linecap:butt; stroke-linejoin:round; stroke-width:2; stroke-opacity:0.1; fill:none" points="
  436.548,1693.09 436.548,47.2441 
  "/>
<polyline clip-path="url(#clip012)" style="stroke:#000000; stroke-linecap:butt; stroke-linejoin:round; stroke-width:2; stroke-opacity:0.1; fill:none" points="
  783.021,1693.09 783.021,47.2441 
  "/>
<polyline clip-path="url(#clip012)" style="stroke:#000000; stroke-linecap:butt; stroke-linejoin:round; stroke-width:2; stroke-opacity:0.1; fill:none" points="
  1129.49,1693.09 1129.49,47.2441 
  "/>
<polyline clip-path="url(#clip012)" style="stroke:#000000; stroke-linecap:butt; stroke-linejoin:round; stroke-width:2; stroke-opacity:0.1; fill:none" points="
  1475.97,1693.09 1475.97,47.2441 
  "/>
<polyline clip-path="url(#clip012)" style="stroke:#000000; stroke-linecap:butt; stroke-linejoin:round; stroke-width:2; stroke-opacity:0.1; fill:none" points="
  1822.44,1693.09 1822.44,47.2441 
  "/>
<polyline clip-path="url(#clip012)" style="stroke:#000000; stroke-linecap:butt; stroke-linejoin:round; stroke-width:2; stroke-opacity:0.1; fill:none" points="
  2168.91,1693.09 2168.91,47.2441 
  "/>
<polyline clip-path="url(#clip012)" style="stroke:#000000; stroke-linecap:butt; stroke-linejoin:round; stroke-width:2; stroke-opacity:0.1; fill:none" points="
  2515.39,1693.09 2515.39,47.2441 
  "/>
<polyline clip-path="url(#clip010)" style="stroke:#000000; stroke-linecap:butt; stroke-linejoin:round; stroke-width:4; stroke-opacity:1; fill:none" points="
  168.598,1693.09 2763.8,1693.09 
  "/>
<polyline clip-path="url(#clip010)" style="stroke:#000000; stroke-linecap:butt; stroke-linejoin:round; stroke-width:4; stroke-opacity:1; fill:none" points="
  436.548,1693.09 436.548,1673.34 
  "/>
<polyline clip-path="url(#clip010)" style="stroke:#000000; stroke-linecap:butt; stroke-linejoin:round; stroke-width:4; stroke-opacity:1; fill:none" points="
  783.021,1693.09 783.021,1673.34 
  "/>
<polyline clip-path="url(#clip010)" style="stroke:#000000; stroke-linecap:butt; stroke-linejoin:round; stroke-width:4; stroke-opacity:1; fill:none" points="
  1129.49,1693.09 1129.49,1673.34 
  "/>
<polyline clip-path="url(#clip010)" style="stroke:#000000; stroke-linecap:butt; stroke-linejoin:round; stroke-width:4; stroke-opacity:1; fill:none" points="
  1475.97,1693.09 1475.97,1673.34 
  "/>
<polyline clip-path="url(#clip010)" style="stroke:#000000; stroke-linecap:butt; stroke-linejoin:round; stroke-width:4; stroke-opacity:1; fill:none" points="
  1822.44,1693.09 1822.44,1673.34 
  "/>
<polyline clip-path="url(#clip010)" style="stroke:#000000; stroke-linecap:butt; stroke-linejoin:round; stroke-width:4; stroke-opacity:1; fill:none" points="
  2168.91,1693.09 2168.91,1673.34 
  "/>
<polyline clip-path="url(#clip010)" style="stroke:#000000; stroke-linecap:butt; stroke-linejoin:round; stroke-width:4; stroke-opacity:1; fill:none" points="
  2515.39,1693.09 2515.39,1673.34 
  "/>
<path clip-path="url(#clip010)" d="M383.574 1746.53 L413.249 1746.53 L413.249 1750.47 L383.574 1750.47 L383.574 1746.53 Z" fill="#000000" fill-rule="evenodd" fill-opacity="1" /><path clip-path="url(#clip010)" d="M424.152 1759.42 L431.791 1759.42 L431.791 1733.06 L423.481 1734.73 L423.481 1730.47 L431.745 1728.8 L436.421 1728.8 L436.421 1759.42 L444.06 1759.42 L444.06 1763.36 L424.152 1763.36 L424.152 1759.42 Z" fill="#000000" fill-rule="evenodd" fill-opacity="1" /><path clip-path="url(#clip010)" d="M453.504 1757.48 L458.388 1757.48 L458.388 1763.36 L453.504 1763.36 L453.504 1757.48 Z" fill="#000000" fill-rule="evenodd" fill-opacity="1" /><path clip-path="url(#clip010)" d="M468.62 1728.8 L486.976 1728.8 L486.976 1732.74 L472.902 1732.74 L472.902 1741.21 Q473.92 1740.86 474.939 1740.7 Q475.957 1740.51 476.976 1740.51 Q482.763 1740.51 486.143 1743.68 Q489.522 1746.86 489.522 1752.27 Q489.522 1757.85 486.05 1760.95 Q482.578 1764.03 476.258 1764.03 Q474.082 1764.03 471.814 1763.66 Q469.569 1763.29 467.161 1762.55 L467.161 1757.85 Q469.245 1758.98 471.467 1759.54 Q473.689 1760.1 476.166 1760.1 Q480.17 1760.1 482.508 1757.99 Q484.846 1755.88 484.846 1752.27 Q484.846 1748.66 482.508 1746.55 Q480.17 1744.45 476.166 1744.45 Q474.291 1744.45 472.416 1744.86 Q470.564 1745.28 468.62 1746.16 L468.62 1728.8 Z" fill="#000000" fill-rule="evenodd" fill-opacity="1" /><path clip-path="url(#clip010)" d="M729.549 1746.53 L759.225 1746.53 L759.225 1750.47 L729.549 1750.47 L729.549 1746.53 Z" fill="#000000" fill-rule="evenodd" fill-opacity="1" /><path clip-path="url(#clip010)" d="M770.127 1759.42 L777.766 1759.42 L777.766 1733.06 L769.456 1734.73 L769.456 1730.47 L777.72 1728.8 L782.396 1728.8 L782.396 1759.42 L790.035 1759.42 L790.035 1763.36 L770.127 1763.36 L770.127 1759.42 Z" fill="#000000" fill-rule="evenodd" fill-opacity="1" /><path clip-path="url(#clip010)" d="M799.479 1757.48 L804.363 1757.48 L804.363 1763.36 L799.479 1763.36 L799.479 1757.48 Z" fill="#000000" fill-rule="evenodd" fill-opacity="1" /><path clip-path="url(#clip010)" d="M824.548 1731.88 Q820.937 1731.88 819.109 1735.44 Q817.303 1738.99 817.303 1746.11 Q817.303 1753.22 819.109 1756.79 Q820.937 1760.33 824.548 1760.33 Q828.183 1760.33 829.988 1756.79 Q831.817 1753.22 831.817 1746.11 Q831.817 1738.99 829.988 1735.44 Q828.183 1731.88 824.548 1731.88 M824.548 1728.17 Q830.359 1728.17 833.414 1732.78 Q836.493 1737.36 836.493 1746.11 Q836.493 1754.84 833.414 1759.45 Q830.359 1764.03 824.548 1764.03 Q818.738 1764.03 815.66 1759.45 Q812.604 1754.84 812.604 1746.11 Q812.604 1737.36 815.66 1732.78 Q818.738 1728.17 824.548 1728.17 Z" fill="#000000" fill-rule="evenodd" fill-opacity="1" /><path clip-path="url(#clip010)" d="M1076.52 1746.53 L1106.2 1746.53 L1106.2 1750.47 L1076.52 1750.47 L1076.52 1746.53 Z" fill="#000000" fill-rule="evenodd" fill-opacity="1" /><path clip-path="url(#clip010)" d="M1126.29 1731.88 Q1122.68 1731.88 1120.85 1735.44 Q1119.04 1738.99 1119.04 1746.11 Q1119.04 1753.22 1120.85 1756.79 Q1122.68 1760.33 1126.29 1760.33 Q1129.92 1760.33 1131.73 1756.79 Q1133.56 1753.22 1133.56 1746.11 Q1133.56 1738.99 1131.73 1735.44 Q1129.92 1731.88 1126.29 1731.88 M1126.29 1728.17 Q1132.1 1728.17 1135.15 1732.78 Q1138.23 1737.36 1138.23 1746.11 Q1138.23 1754.84 1135.15 1759.45 Q1132.1 1764.03 1126.29 1764.03 Q1120.48 1764.03 1117.4 1759.45 Q1114.34 1754.84 1114.34 1746.11 Q1114.34 1737.36 1117.4 1732.78 Q1120.48 1728.17 1126.29 1728.17 Z" fill="#000000" fill-rule="evenodd" fill-opacity="1" /><path clip-path="url(#clip010)" d="M1146.45 1757.48 L1151.33 1757.48 L1151.33 1763.36 L1146.45 1763.36 L1146.45 1757.48 Z" fill="#000000" fill-rule="evenodd" fill-opacity="1" /><path clip-path="url(#clip010)" d="M1161.57 1728.8 L1179.92 1728.8 L1179.92 1732.74 L1165.85 1732.74 L1165.85 1741.21 Q1166.87 1740.86 1167.88 1740.7 Q1168.9 1740.51 1169.92 1740.51 Q1175.71 1740.51 1179.09 1743.68 Q1182.47 1746.86 1182.47 1752.27 Q1182.47 1757.85 1179 1760.95 Q1175.52 1764.03 1169.2 1764.03 Q1167.03 1764.03 1164.76 1763.66 Q1162.51 1763.29 1160.11 1762.55 L1160.11 1757.85 Q1162.19 1758.98 1164.41 1759.54 Q1166.63 1760.1 1169.11 1760.1 Q1173.12 1760.1 1175.45 1757.99 Q1177.79 1755.88 1177.79 1752.27 Q1177.79 1748.66 1175.45 1746.55 Q1173.12 1744.45 1169.11 1744.45 Q1167.24 1744.45 1165.36 1744.86 Q1163.51 1745.28 1161.57 1746.16 L1161.57 1728.8 Z" fill="#000000" fill-rule="evenodd" fill-opacity="1" /><path clip-path="url(#clip010)" d="M1453.35 1731.88 Q1449.74 1731.88 1447.91 1735.44 Q1446.11 1738.99 1446.11 1746.11 Q1446.11 1753.22 1447.91 1756.79 Q1449.74 1760.33 1453.35 1760.33 Q1456.99 1760.33 1458.79 1756.79 Q1460.62 1753.22 1460.62 1746.11 Q1460.62 1738.99 1458.79 1735.44 Q1456.99 1731.88 1453.35 1731.88 M1453.35 1728.17 Q1459.16 1728.17 1462.22 1732.78 Q1465.3 1737.36 1465.3 1746.11 Q1465.3 1754.84 1462.22 1759.45 Q1459.16 1764.03 1453.35 1764.03 Q1447.54 1764.03 1444.46 1759.45 Q1441.41 1754.84 1441.41 1746.11 Q1441.41 1737.36 1444.46 1732.78 Q1447.54 1728.17 1453.35 1728.17 Z" fill="#000000" fill-rule="evenodd" fill-opacity="1" /><path clip-path="url(#clip010)" d="M1473.51 1757.48 L1478.4 1757.48 L1478.4 1763.36 L1473.51 1763.36 L1473.51 1757.48 Z" fill="#000000" fill-rule="evenodd" fill-opacity="1" /><path clip-path="url(#clip010)" d="M1498.58 1731.88 Q1494.97 1731.88 1493.14 1735.44 Q1491.34 1738.99 1491.34 1746.11 Q1491.34 1753.22 1493.14 1756.79 Q1494.97 1760.33 1498.58 1760.33 Q1502.22 1760.33 1504.02 1756.79 Q1505.85 1753.22 1505.85 1746.11 Q1505.85 1738.99 1504.02 1735.44 Q1502.22 1731.88 1498.58 1731.88 M1498.58 1728.17 Q1504.39 1728.17 1507.45 1732.78 Q1510.53 1737.36 1510.53 1746.11 Q1510.53 1754.84 1507.45 1759.45 Q1504.39 1764.03 1498.58 1764.03 Q1492.77 1764.03 1489.69 1759.45 Q1486.64 1754.84 1486.64 1746.11 Q1486.64 1737.36 1489.69 1732.78 Q1492.77 1728.17 1498.58 1728.17 Z" fill="#000000" fill-rule="evenodd" fill-opacity="1" /><path clip-path="url(#clip010)" d="M1800.32 1731.88 Q1796.71 1731.88 1794.88 1735.44 Q1793.08 1738.99 1793.08 1746.11 Q1793.08 1753.22 1794.88 1756.79 Q1796.71 1760.33 1800.32 1760.33 Q1803.96 1760.33 1805.76 1756.79 Q1807.59 1753.22 1807.59 1746.11 Q1807.59 1738.99 1805.76 1735.44 Q1803.96 1731.88 1800.32 1731.88 M1800.32 1728.17 Q1806.13 1728.17 1809.19 1732.78 Q1812.27 1737.36 1812.27 1746.11 Q1812.27 1754.84 1809.19 1759.45 Q1806.13 1764.03 1800.32 1764.03 Q1794.51 1764.03 1791.43 1759.45 Q1788.38 1754.84 1788.38 1746.11 Q1788.38 1737.36 1791.43 1732.78 Q1794.51 1728.17 1800.32 1728.17 Z" fill="#000000" fill-rule="evenodd" fill-opacity="1" /><path clip-path="url(#clip010)" d="M1820.48 1757.48 L1825.37 1757.48 L1825.37 1763.36 L1820.48 1763.36 L1820.48 1757.48 Z" fill="#000000" fill-rule="evenodd" fill-opacity="1" /><path clip-path="url(#clip010)" d="M1835.6 1728.8 L1853.96 1728.8 L1853.96 1732.74 L1839.88 1732.74 L1839.88 1741.21 Q1840.9 1740.86 1841.92 1740.7 Q1842.94 1740.51 1843.96 1740.51 Q1849.74 1740.51 1853.12 1743.68 Q1856.5 1746.86 1856.5 1752.27 Q1856.5 1757.85 1853.03 1760.95 Q1849.56 1764.03 1843.24 1764.03 Q1841.06 1764.03 1838.79 1763.66 Q1836.55 1763.29 1834.14 1762.55 L1834.14 1757.85 Q1836.22 1758.98 1838.45 1759.54 Q1840.67 1760.1 1843.15 1760.1 Q1847.15 1760.1 1849.49 1757.99 Q1851.83 1755.88 1851.83 1752.27 Q1851.83 1748.66 1849.49 1746.55 Q1847.15 1744.45 1843.15 1744.45 Q1841.27 1744.45 1839.4 1744.86 Q1837.54 1745.28 1835.6 1746.16 L1835.6 1728.8 Z" fill="#000000" fill-rule="evenodd" fill-opacity="1" /><path clip-path="url(#clip010)" d="M2136.07 1759.42 L2143.7 1759.42 L2143.7 1733.06 L2135.39 1734.73 L2135.39 1730.47 L2143.66 1728.8 L2148.33 1728.8 L2148.33 1759.42 L2155.97 1759.42 L2155.97 1763.36 L2136.07 1763.36 L2136.07 1759.42 Z" fill="#000000" fill-rule="evenodd" fill-opacity="1" /><path clip-path="url(#clip010)" d="M2165.42 1757.48 L2170.3 1757.48 L2170.3 1763.36 L2165.42 1763.36 L2165.42 1757.48 Z" fill="#000000" fill-rule="evenodd" fill-opacity="1" /><path clip-path="url(#clip010)" d="M2190.49 1731.88 Q2186.88 1731.88 2185.05 1735.44 Q2183.24 1738.99 2183.24 1746.11 Q2183.24 1753.22 2185.05 1756.79 Q2186.88 1760.33 2190.49 1760.33 Q2194.12 1760.33 2195.93 1756.79 Q2197.75 1753.22 2197.75 1746.11 Q2197.75 1738.99 2195.93 1735.44 Q2194.12 1731.88 2190.49 1731.88 M2190.49 1728.17 Q2196.3 1728.17 2199.35 1732.78 Q2202.43 1737.36 2202.43 1746.11 Q2202.43 1754.84 2199.35 1759.45 Q2196.3 1764.03 2190.49 1764.03 Q2184.68 1764.03 2181.6 1759.45 Q2178.54 1754.84 2178.54 1746.11 Q2178.54 1737.36 2181.6 1732.78 Q2184.68 1728.17 2190.49 1728.17 Z" fill="#000000" fill-rule="evenodd" fill-opacity="1" /><path clip-path="url(#clip010)" d="M2483.04 1759.42 L2490.67 1759.42 L2490.67 1733.06 L2482.36 1734.73 L2482.36 1730.47 L2490.63 1728.8 L2495.3 1728.8 L2495.3 1759.42 L2502.94 1759.42 L2502.94 1763.36 L2483.04 1763.36 L2483.04 1759.42 Z" fill="#000000" fill-rule="evenodd" fill-opacity="1" /><path clip-path="url(#clip010)" d="M2512.39 1757.48 L2517.27 1757.48 L2517.27 1763.36 L2512.39 1763.36 L2512.39 1757.48 Z" fill="#000000" fill-rule="evenodd" fill-opacity="1" /><path clip-path="url(#clip010)" d="M2527.5 1728.8 L2545.86 1728.8 L2545.86 1732.74 L2531.79 1732.74 L2531.79 1741.21 Q2532.8 1740.86 2533.82 1740.7 Q2534.84 1740.51 2535.86 1740.51 Q2541.65 1740.51 2545.03 1743.68 Q2548.41 1746.86 2548.41 1752.27 Q2548.41 1757.85 2544.93 1760.95 Q2541.46 1764.03 2535.14 1764.03 Q2532.97 1764.03 2530.7 1763.66 Q2528.45 1763.29 2526.04 1762.55 L2526.04 1757.85 Q2528.13 1758.98 2530.35 1759.54 Q2532.57 1760.1 2535.05 1760.1 Q2539.05 1760.1 2541.39 1757.99 Q2543.73 1755.88 2543.73 1752.27 Q2543.73 1748.66 2541.39 1746.55 Q2539.05 1744.45 2535.05 1744.45 Q2533.17 1744.45 2531.3 1744.86 Q2529.45 1745.28 2527.5 1746.16 L2527.5 1728.8 Z" fill="#000000" fill-rule="evenodd" fill-opacity="1" /><polyline clip-path="url(#clip012)" style="stroke:#000000; stroke-linecap:butt; stroke-linejoin:round; stroke-width:2; stroke-opacity:0.1; fill:none" points="
  168.598,1648.89 2763.8,1648.89 
  "/>
<polyline clip-path="url(#clip012)" style="stroke:#000000; stroke-linecap:butt; stroke-linejoin:round; stroke-width:2; stroke-opacity:0.1; fill:none" points="
  168.598,1269.5 2763.8,1269.5 
  "/>
<polyline clip-path="url(#clip012)" style="stroke:#000000; stroke-linecap:butt; stroke-linejoin:round; stroke-width:2; stroke-opacity:0.1; fill:none" points="
  168.598,890.118 2763.8,890.118 
  "/>
<polyline clip-path="url(#clip012)" style="stroke:#000000; stroke-linecap:butt; stroke-linejoin:round; stroke-width:2; stroke-opacity:0.1; fill:none" points="
  168.598,510.732 2763.8,510.732 
  "/>
<polyline clip-path="url(#clip012)" style="stroke:#000000; stroke-linecap:butt; stroke-linejoin:round; stroke-width:2; stroke-opacity:0.1; fill:none" points="
  168.598,131.345 2763.8,131.345 
  "/>
<polyline clip-path="url(#clip010)" style="stroke:#000000; stroke-linecap:butt; stroke-linejoin:round; stroke-width:4; stroke-opacity:1; fill:none" points="
  168.598,1693.09 168.598,47.2441 
  "/>
<polyline clip-path="url(#clip010)" style="stroke:#000000; stroke-linecap:butt; stroke-linejoin:round; stroke-width:4; stroke-opacity:1; fill:none" points="
  168.598,1648.89 199.741,1648.89 
  "/>
<polyline clip-path="url(#clip010)" style="stroke:#000000; stroke-linecap:butt; stroke-linejoin:round; stroke-width:4; stroke-opacity:1; fill:none" points="
  168.598,1269.5 199.741,1269.5 
  "/>
<polyline clip-path="url(#clip010)" style="stroke:#000000; stroke-linecap:butt; stroke-linejoin:round; stroke-width:4; stroke-opacity:1; fill:none" points="
  168.598,890.118 199.741,890.118 
  "/>
<polyline clip-path="url(#clip010)" style="stroke:#000000; stroke-linecap:butt; stroke-linejoin:round; stroke-width:4; stroke-opacity:1; fill:none" points="
  168.598,510.732 199.741,510.732 
  "/>
<polyline clip-path="url(#clip010)" style="stroke:#000000; stroke-linecap:butt; stroke-linejoin:round; stroke-width:4; stroke-opacity:1; fill:none" points="
  168.598,131.345 199.741,131.345 
  "/>
<path clip-path="url(#clip010)" d="M57.4226 1634.69 Q53.8115 1634.69 51.9828 1638.26 Q50.1773 1641.8 50.1773 1648.93 Q50.1773 1656.03 51.9828 1659.6 Q53.8115 1663.14 57.4226 1663.14 Q61.0569 1663.14 62.8624 1659.6 Q64.6911 1656.03 64.6911 1648.93 Q64.6911 1641.8 62.8624 1638.26 Q61.0569 1634.69 57.4226 1634.69 M57.4226 1630.99 Q63.2328 1630.99 66.2883 1635.59 Q69.367 1640.18 69.367 1648.93 Q69.367 1657.65 66.2883 1662.26 Q63.2328 1666.84 57.4226 1666.84 Q51.6125 1666.84 48.5338 1662.26 Q45.4782 1657.65 45.4782 1648.93 Q45.4782 1640.18 48.5338 1635.59 Q51.6125 1630.99 57.4226 1630.99 Z" fill="#000000" fill-rule="evenodd" fill-opacity="1" /><path clip-path="url(#clip010)" d="M77.5845 1660.29 L82.4688 1660.29 L82.4688 1666.17 L77.5845 1666.17 L77.5845 1660.29 Z" fill="#000000" fill-rule="evenodd" fill-opacity="1" /><path clip-path="url(#clip010)" d="M102.654 1634.69 Q99.0428 1634.69 97.2141 1638.26 Q95.4085 1641.8 95.4085 1648.93 Q95.4085 1656.03 97.2141 1659.6 Q99.0428 1663.14 102.654 1663.14 Q106.288 1663.14 108.094 1659.6 Q109.922 1656.03 109.922 1648.93 Q109.922 1641.8 108.094 1638.26 Q106.288 1634.69 102.654 1634.69 M102.654 1630.99 Q108.464 1630.99 111.52 1635.59 Q114.598 1640.18 114.598 1648.93 Q114.598 1657.65 111.52 1662.26 Q108.464 1666.84 102.654 1666.84 Q96.8437 1666.84 93.765 1662.26 Q90.7095 1657.65 90.7095 1648.93 Q90.7095 1640.18 93.765 1635.59 Q96.8437 1630.99 102.654 1630.99 Z" fill="#000000" fill-rule="evenodd" fill-opacity="1" /><path clip-path="url(#clip010)" d="M59.0198 1255.3 Q55.4087 1255.3 53.58 1258.87 Q51.7745 1262.41 51.7745 1269.54 Q51.7745 1276.65 53.58 1280.21 Q55.4087 1283.75 59.0198 1283.75 Q62.6541 1283.75 64.4596 1280.21 Q66.2883 1276.65 66.2883 1269.54 Q66.2883 1262.41 64.4596 1258.87 Q62.6541 1255.3 59.0198 1255.3 M59.0198 1251.6 Q64.83 1251.6 67.8855 1256.21 Q70.9642 1260.79 70.9642 1269.54 Q70.9642 1278.27 67.8855 1282.87 Q64.83 1287.46 59.0198 1287.46 Q53.2097 1287.46 50.131 1282.87 Q47.0754 1278.27 47.0754 1269.54 Q47.0754 1260.79 50.131 1256.21 Q53.2097 1251.6 59.0198 1251.6 Z" fill="#000000" fill-rule="evenodd" fill-opacity="1" /><path clip-path="url(#clip010)" d="M79.1818 1280.91 L84.066 1280.91 L84.066 1286.78 L79.1818 1286.78 L79.1818 1280.91 Z" fill="#000000" fill-rule="evenodd" fill-opacity="1" /><path clip-path="url(#clip010)" d="M98.2789 1282.85 L114.598 1282.85 L114.598 1286.78 L92.6539 1286.78 L92.6539 1282.85 Q95.3159 1280.1 99.8992 1275.47 Q104.506 1270.81 105.686 1269.47 Q107.932 1266.95 108.811 1265.21 Q109.714 1263.45 109.714 1261.76 Q109.714 1259.01 107.77 1257.27 Q105.848 1255.54 102.746 1255.54 Q100.547 1255.54 98.0937 1256.3 Q95.6632 1257.06 92.8854 1258.61 L92.8854 1253.89 Q95.7094 1252.76 98.1631 1252.18 Q100.617 1251.6 102.654 1251.6 Q108.024 1251.6 111.219 1254.29 Q114.413 1256.97 114.413 1261.46 Q114.413 1263.59 113.603 1265.51 Q112.816 1267.41 110.709 1270 Q110.131 1270.67 107.029 1273.89 Q103.927 1277.09 98.2789 1282.85 Z" fill="#000000" fill-rule="evenodd" fill-opacity="1" /><path clip-path="url(#clip010)" d="M56.9365 875.917 Q53.3254 875.917 51.4967 879.482 Q49.6912 883.024 49.6912 890.153 Q49.6912 897.26 51.4967 900.824 Q53.3254 904.366 56.9365 904.366 Q60.5707 904.366 62.3763 900.824 Q64.205 897.26 64.205 890.153 Q64.205 883.024 62.3763 879.482 Q60.5707 875.917 56.9365 875.917 M56.9365 872.213 Q62.7467 872.213 65.8022 876.82 Q68.8809 881.403 68.8809 890.153 Q68.8809 898.88 65.8022 903.486 Q62.7467 908.07 56.9365 908.07 Q51.1264 908.07 48.0477 903.486 Q44.9921 898.88 44.9921 890.153 Q44.9921 881.403 48.0477 876.82 Q51.1264 872.213 56.9365 872.213 Z" fill="#000000" fill-rule="evenodd" fill-opacity="1" /><path clip-path="url(#clip010)" d="M77.0984 901.519 L81.9827 901.519 L81.9827 907.398 L77.0984 907.398 L77.0984 901.519 Z" fill="#000000" fill-rule="evenodd" fill-opacity="1" /><path clip-path="url(#clip010)" d="M105.015 876.912 L93.2095 895.361 L105.015 895.361 L105.015 876.912 M103.788 872.838 L109.668 872.838 L109.668 895.361 L114.598 895.361 L114.598 899.25 L109.668 899.25 L109.668 907.398 L105.015 907.398 L105.015 899.25 L89.4132 899.25 L89.4132 894.736 L103.788 872.838 Z" fill="#000000" fill-rule="evenodd" fill-opacity="1" /><path clip-path="url(#clip010)" d="M57.2606 496.53 Q53.6495 496.53 51.8208 500.095 Q50.0152 503.637 50.0152 510.767 Q50.0152 517.873 51.8208 521.438 Q53.6495 524.979 57.2606 524.979 Q60.8948 524.979 62.7004 521.438 Q64.5291 517.873 64.5291 510.767 Q64.5291 503.637 62.7004 500.095 Q60.8948 496.53 57.2606 496.53 M57.2606 492.827 Q63.0707 492.827 66.1263 497.433 Q69.205 502.017 69.205 510.767 Q69.205 519.493 66.1263 524.1 Q63.0707 528.683 57.2606 528.683 Q51.4504 528.683 48.3717 524.1 Q45.3162 519.493 45.3162 510.767 Q45.3162 502.017 48.3717 497.433 Q51.4504 492.827 57.2606 492.827 Z" fill="#000000" fill-rule="evenodd" fill-opacity="1" /><path clip-path="url(#clip010)" d="M77.4225 522.132 L82.3067 522.132 L82.3067 528.012 L77.4225 528.012 L77.4225 522.132 Z" fill="#000000" fill-rule="evenodd" fill-opacity="1" /><path clip-path="url(#clip010)" d="M103.071 508.868 Q99.9224 508.868 98.0705 511.021 Q96.2419 513.174 96.2419 516.924 Q96.2419 520.651 98.0705 522.827 Q99.9224 524.979 103.071 524.979 Q106.219 524.979 108.047 522.827 Q109.899 520.651 109.899 516.924 Q109.899 513.174 108.047 511.021 Q106.219 508.868 103.071 508.868 M112.353 494.216 L112.353 498.475 Q110.594 497.642 108.788 497.202 Q107.006 496.762 105.246 496.762 Q100.617 496.762 98.1631 499.887 Q95.7326 503.012 95.3854 509.331 Q96.7511 507.317 98.8113 506.253 Q100.871 505.165 103.348 505.165 Q108.557 505.165 111.566 508.336 Q114.598 511.484 114.598 516.924 Q114.598 522.248 111.45 525.466 Q108.302 528.683 103.071 528.683 Q97.0752 528.683 93.9039 524.1 Q90.7326 519.493 90.7326 510.767 Q90.7326 502.572 94.6215 497.711 Q98.5104 492.827 105.061 492.827 Q106.82 492.827 108.603 493.174 Q110.408 493.521 112.353 494.216 Z" fill="#000000" fill-rule="evenodd" fill-opacity="1" /><path clip-path="url(#clip010)" d="M57.5152 117.144 Q53.9041 117.144 52.0754 120.709 Q50.2699 124.25 50.2699 131.38 Q50.2699 138.486 52.0754 142.051 Q53.9041 145.593 57.5152 145.593 Q61.1494 145.593 62.955 142.051 Q64.7837 138.486 64.7837 131.38 Q64.7837 124.25 62.955 120.709 Q61.1494 117.144 57.5152 117.144 M57.5152 113.44 Q63.3254 113.44 66.3809 118.047 Q69.4596 122.63 69.4596 131.38 Q69.4596 140.107 66.3809 144.713 Q63.3254 149.297 57.5152 149.297 Q51.7051 149.297 48.6264 144.713 Q45.5708 140.107 45.5708 131.38 Q45.5708 122.63 48.6264 118.047 Q51.7051 113.44 57.5152 113.44 Z" fill="#000000" fill-rule="evenodd" fill-opacity="1" /><path clip-path="url(#clip010)" d="M77.6771 142.746 L82.5614 142.746 L82.5614 148.625 L77.6771 148.625 L77.6771 142.746 Z" fill="#000000" fill-rule="evenodd" fill-opacity="1" /><path clip-path="url(#clip010)" d="M102.746 132.213 Q99.4131 132.213 97.4918 133.996 Q95.5937 135.778 95.5937 138.903 Q95.5937 142.028 97.4918 143.81 Q99.4131 145.593 102.746 145.593 Q106.08 145.593 108.001 143.81 Q109.922 142.005 109.922 138.903 Q109.922 135.778 108.001 133.996 Q106.103 132.213 102.746 132.213 M98.0705 130.223 Q95.0613 129.482 93.3715 127.422 Q91.7048 125.361 91.7048 122.398 Q91.7048 118.255 94.6446 115.848 Q97.6076 113.44 102.746 113.44 Q107.908 113.44 110.848 115.848 Q113.788 118.255 113.788 122.398 Q113.788 125.361 112.098 127.422 Q110.432 129.482 107.445 130.223 Q110.825 131.01 112.7 133.301 Q114.598 135.593 114.598 138.903 Q114.598 143.926 111.52 146.611 Q108.464 149.297 102.746 149.297 Q97.0289 149.297 93.9502 146.611 Q90.8947 143.926 90.8947 138.903 Q90.8947 135.593 92.7928 133.301 Q94.6909 131.01 98.0705 130.223 M96.3576 122.838 Q96.3576 125.523 98.0242 127.028 Q99.7141 128.533 102.746 128.533 Q105.756 128.533 107.445 127.028 Q109.158 125.523 109.158 122.838 Q109.158 120.153 107.445 118.649 Q105.756 117.144 102.746 117.144 Q99.7141 117.144 98.0242 118.649 Q96.3576 120.153 96.3576 122.838 Z" fill="#000000" fill-rule="evenodd" fill-opacity="1" /><polyline clip-path="url(#clip012)" style="stroke:#009af9; stroke-linecap:butt; stroke-linejoin:round; stroke-width:4; stroke-opacity:1; fill:none" points="
  242.047,1338.63 266.778,1373.53 291.508,1407.75 316.238,1361.79 340.968,1343.93 365.699,1437.83 390.429,1560.03 415.159,1626.3 439.89,1644.37 464.62,1639.17 
  489.35,1599.45 514.081,1487.45 538.811,1309.49 563.541,1165.1 588.271,1159.29 613.002,1296 637.732,1471.39 662.462,1565.09 687.193,1532.03 711.923,1413.93 
  736.653,1327.13 761.384,1331.28 786.114,1335.86 810.844,1300.34 835.574,1287.45 860.305,1249.72 885.035,1084.42 909.765,819.724 934.496,634.68 959.226,704.276 
  983.956,875.437 1008.69,845.259 1033.42,669.408 1058.15,610.148 1082.88,701.396 1107.61,730.152 1132.34,633.495 1157.07,652.32 1181.8,878.667 1206.53,1159.5 
  1231.26,1383.79 1255.99,1471.04 1280.72,1352.71 1305.45,1106 1330.18,954.774 1354.91,1004.85 1379.64,1162.15 1404.37,1321.44 1429.1,1361.15 1453.83,1158.84 
  1478.56,780.87 1503.29,541.405 1528.02,693.423 1552.75,1029.57 1577.48,1138.14 1602.21,954.249 1626.94,723.681 1651.67,646.089 1676.4,717.391 1701.13,817.882 
  1725.87,869.145 1750.6,861.175 1775.33,789.009 1800.06,620.581 1824.79,354.185 1849.52,188.671 1874.25,361.212 1898.98,716.779 1923.71,904.408 1948.44,840.545 
  1973.17,731.054 1997.9,760.752 2022.63,911.491 2047.36,1068.76 2072.09,1118.99 2096.82,1070.37 2121.55,1061.82 2146.28,1135.55 2171.01,1213.68 2195.74,1297.89 
  2220.47,1402.89 2245.2,1402.73 2269.93,1196.98 2294.66,930.861 2319.39,867.962 2344.12,1059.75 2368.85,1335.45 2393.58,1534.17 2418.31,1621.32 2443.04,1644.56 
  2467.77,1646.51 2492.5,1634.02 2517.23,1582.47 2541.97,1470.39 2566.7,1360.24 2591.43,1364.27 2616.16,1455.45 2640.89,1482.59 2665.62,1402.26 2690.35,1344.67 
  
  "/>
<polyline clip-path="url(#clip012)" style="stroke:#e26f46; stroke-linecap:butt; stroke-linejoin:round; stroke-width:4; stroke-opacity:1; fill:none" points="
  242.047,1437.37 266.778,1415.18 291.508,1408.5 316.238,1417.93 340.968,1441.89 365.699,1475.85 390.429,1511.8 415.159,1539.32 439.89,1548.49 464.62,1533.44 
  489.35,1495.29 514.081,1443.06 538.811,1391.69 563.541,1356.68 588.271,1347.11 613.002,1360.99 637.732,1386.29 662.462,1407.6 687.193,1413.99 711.923,1403.02 
  736.653,1378.84 761.384,1346.62 786.114,1307.82 810.844,1259.22 835.574,1196.08 860.305,1117.18 885.035,1028.26 909.765,941.044 934.496,867.491 959.226,813.401 
  983.956,776.467 1008.69,750.319 1033.42,730.658 1058.15,718.505 1082.88,719.415 1107.61,740.847 1132.34,789.131 1157.07,865.59 1181.8,962.502 1206.53,1062.3 
  1231.26,1143.06 1255.99,1188.76 1280.72,1197.69 1305.45,1182.81 1330.18,1162.76 1354.91,1149.31 1379.64,1140.08 1404.37,1122 1429.1,1083.21 1453.83,1024.49 
  1478.56,960.837 1503.29,911.354 1528.02,885.418 1552.75,876.764 1577.48,870.291 1602.21,854.959 1626.94,831.189 1651.67,807.278 1676.4,789.582 1701.13,775.62 
  1725.87,755.33 1750.6,718.84 1775.33,665.052 1800.06,605.411 1824.79,559.888 1849.52,546.664 1874.25,571.759 1898.98,626.124 1923.71,692.65 1948.44,757.389 
  1973.17,815.955 1997.9,871.161 2022.63,926.219 2047.36,980.717 2072.09,1032.09 2096.82,1079.22 2121.55,1123.42 2146.28,1165.58 2171.01,1202.52 2195.74,1226.63 
  2220.47,1230.32 2245.2,1213.09 2269.93,1186.03 2294.66,1169.19 2319.39,1181.95 2344.12,1232.3 2368.85,1312.32 2393.58,1402.67 2418.31,1482.2 2443.04,1536.1 
  2467.77,1559.09 2492.5,1554.25 2517.23,1530.2 2541.97,1497.95 2566.7,1467.63 2591.43,1445.62 2616.16,1433.87 2640.89,1431.85 2665.62,1439.34 2690.35,1457.27 
  
  "/>
<polyline clip-path="url(#clip012)" style="stroke:#3da44d; stroke-linecap:butt; stroke-linejoin:round; stroke-width:4; stroke-opacity:1; fill:none" points="
  242.047,1503.52 266.778,1493.52 291.508,1483.1 316.238,1472.26 340.968,1461 365.699,1449.3 390.429,1437.17 415.159,1424.6 439.89,1411.6 464.62,1398.18 
  489.35,1384.35 514.081,1370.12 538.811,1355.51 563.541,1340.57 588.271,1325.31 613.002,1309.79 637.732,1294.04 662.462,1278.12 687.193,1262.1 711.923,1246.02 
  736.653,1229.96 761.384,1213.98 786.114,1198.15 810.844,1182.54 835.574,1167.21 860.305,1152.22 885.035,1137.64 909.765,1123.51 934.496,1109.87 959.226,1096.76 
  983.956,1084.2 1008.69,1072.21 1033.42,1060.8 1058.15,1049.96 1082.88,1039.68 1107.61,1029.93 1132.34,1020.7 1157.07,1011.94 1181.8,1003.62 1206.53,995.694 
  1231.26,988.128 1255.99,980.879 1280.72,973.914 1305.45,967.199 1330.18,960.713 1354.91,954.439 1379.64,948.372 1404.37,942.515 1429.1,936.885 1453.83,931.507 
  1478.56,926.418 1503.29,921.666 1528.02,917.307 1552.75,913.406 1577.48,910.034 1602.21,907.267 1626.94,905.184 1651.67,903.866 1676.4,903.391 1701.13,903.835 
  1725.87,905.269 1750.6,907.755 1775.33,911.348 1800.06,916.093 1824.79,922.022 1849.52,929.156 1874.25,937.503 1898.98,947.057 1923.71,957.798 1948.44,969.694 
  1973.17,982.702 1997.9,996.764 2022.63,1011.81 2047.36,1027.78 2072.09,1044.56 2096.82,1062.09 2121.55,1080.26 2146.28,1098.97 2171.01,1118.13 2195.74,1137.63 
  2220.47,1157.37 2245.2,1177.26 2269.93,1197.21 2294.66,1217.12 2319.39,1236.91 2344.12,1256.51 2368.85,1275.85 2393.58,1294.86 2418.31,1313.48 2443.04,1331.68 
  2467.77,1349.4 2492.5,1366.61 2517.23,1383.29 2541.97,1399.41 2566.7,1414.95 2591.43,1429.91 2616.16,1444.27 2640.89,1458.03 2665.62,1471.19 2690.35,1483.75 
  
  "/>
<circle clip-path="url(#clip012)" cx="737.417" cy="93.8246" r="14" fill="#c271d2" fill-rule="evenodd" fill-opacity="1" stroke="#000000" stroke-opacity="1" stroke-width="3.6"/>
<circle clip-path="url(#clip012)" cx="2301.08" cy="93.8246" r="14" fill="#c271d2" fill-rule="evenodd" fill-opacity="1" stroke="#000000" stroke-opacity="1" stroke-width="3.6"/>
<circle clip-path="url(#clip012)" cx="1604.84" cy="93.8246" r="14" fill="#c271d2" fill-rule="evenodd" fill-opacity="1" stroke="#000000" stroke-opacity="1" stroke-width="3.6"/>
<circle clip-path="url(#clip012)" cx="556.19" cy="93.8246" r="14" fill="#c271d2" fill-rule="evenodd" fill-opacity="1" stroke="#000000" stroke-opacity="1" stroke-width="3.6"/>
<circle clip-path="url(#clip012)" cx="1511.98" cy="93.8246" r="14" fill="#c271d2" fill-rule="evenodd" fill-opacity="1" stroke="#000000" stroke-opacity="1" stroke-width="3.6"/>
<circle clip-path="url(#clip012)" cx="1844.12" cy="93.8246" r="14" fill="#c271d2" fill-rule="evenodd" fill-opacity="1" stroke="#000000" stroke-opacity="1" stroke-width="3.6"/>
<circle clip-path="url(#clip012)" cx="1807.24" cy="93.8246" r="14" fill="#c271d2" fill-rule="evenodd" fill-opacity="1" stroke="#000000" stroke-opacity="1" stroke-width="3.6"/>
<circle clip-path="url(#clip012)" cx="2033.36" cy="93.8246" r="14" fill="#c271d2" fill-rule="evenodd" fill-opacity="1" stroke="#000000" stroke-opacity="1" stroke-width="3.6"/>
<circle clip-path="url(#clip012)" cx="1510.57" cy="93.8246" r="14" fill="#c271d2" fill-rule="evenodd" fill-opacity="1" stroke="#000000" stroke-opacity="1" stroke-width="3.6"/>
<circle clip-path="url(#clip012)" cx="1072.41" cy="93.8246" r="14" fill="#c271d2" fill-rule="evenodd" fill-opacity="1" stroke="#000000" stroke-opacity="1" stroke-width="3.6"/>
<circle clip-path="url(#clip012)" cx="2577.58" cy="93.8246" r="14" fill="#c271d2" fill-rule="evenodd" fill-opacity="1" stroke="#000000" stroke-opacity="1" stroke-width="3.6"/>
<circle clip-path="url(#clip012)" cx="1904.97" cy="93.8246" r="14" fill="#c271d2" fill-rule="evenodd" fill-opacity="1" stroke="#000000" stroke-opacity="1" stroke-width="3.6"/>
<circle clip-path="url(#clip012)" cx="818.159" cy="93.8246" r="14" fill="#c271d2" fill-rule="evenodd" fill-opacity="1" stroke="#000000" stroke-opacity="1" stroke-width="3.6"/>
<circle clip-path="url(#clip012)" cx="1675.66" cy="93.8246" r="14" fill="#c271d2" fill-rule="evenodd" fill-opacity="1" stroke="#000000" stroke-opacity="1" stroke-width="3.6"/>
<circle clip-path="url(#clip012)" cx="1854.01" cy="93.8246" r="14" fill="#c271d2" fill-rule="evenodd" fill-opacity="1" stroke="#000000" stroke-opacity="1" stroke-width="3.6"/>
<circle clip-path="url(#clip012)" cx="2127.86" cy="93.8246" r="14" fill="#c271d2" fill-rule="evenodd" fill-opacity="1" stroke="#000000" stroke-opacity="1" stroke-width="3.6"/>
<circle clip-path="url(#clip012)" cx="1380.97" cy="93.8246" r="14" fill="#c271d2" fill-rule="evenodd" fill-opacity="1" stroke="#000000" stroke-opacity="1" stroke-width="3.6"/>
<circle clip-path="url(#clip012)" cx="1142.67" cy="93.8246" r="14" fill="#c271d2" fill-rule="evenodd" fill-opacity="1" stroke="#000000" stroke-opacity="1" stroke-width="3.6"/>
<circle clip-path="url(#clip012)" cx="934.143" cy="93.8246" r="14" fill="#c271d2" fill-rule="evenodd" fill-opacity="1" stroke="#000000" stroke-opacity="1" stroke-width="3.6"/>
<circle clip-path="url(#clip012)" cx="2188.52" cy="93.8246" r="14" fill="#c271d2" fill-rule="evenodd" fill-opacity="1" stroke="#000000" stroke-opacity="1" stroke-width="3.6"/>
<circle clip-path="url(#clip012)" cx="947.238" cy="93.8246" r="14" fill="#c271d2" fill-rule="evenodd" fill-opacity="1" stroke="#000000" stroke-opacity="1" stroke-width="3.6"/>
<circle clip-path="url(#clip012)" cx="1781.29" cy="93.8246" r="14" fill="#c271d2" fill-rule="evenodd" fill-opacity="1" stroke="#000000" stroke-opacity="1" stroke-width="3.6"/>
<circle clip-path="url(#clip012)" cx="336.173" cy="93.8246" r="14" fill="#c271d2" fill-rule="evenodd" fill-opacity="1" stroke="#000000" stroke-opacity="1" stroke-width="3.6"/>
<circle clip-path="url(#clip012)" cx="1632.67" cy="93.8246" r="14" fill="#c271d2" fill-rule="evenodd" fill-opacity="1" stroke="#000000" stroke-opacity="1" stroke-width="3.6"/>
<circle clip-path="url(#clip012)" cx="242.047" cy="93.8246" r="14" fill="#c271d2" fill-rule="evenodd" fill-opacity="1" stroke="#000000" stroke-opacity="1" stroke-width="3.6"/>
<circle clip-path="url(#clip012)" cx="2095.86" cy="93.8246" r="14" fill="#c271d2" fill-rule="evenodd" fill-opacity="1" stroke="#000000" stroke-opacity="1" stroke-width="3.6"/>
<circle clip-path="url(#clip012)" cx="1136.19" cy="93.8246" r="14" fill="#c271d2" fill-rule="evenodd" fill-opacity="1" stroke="#000000" stroke-opacity="1" stroke-width="3.6"/>
<circle clip-path="url(#clip012)" cx="951.121" cy="93.8246" r="14" fill="#c271d2" fill-rule="evenodd" fill-opacity="1" stroke="#000000" stroke-opacity="1" stroke-width="3.6"/>
<circle clip-path="url(#clip012)" cx="1710.36" cy="93.8246" r="14" fill="#c271d2" fill-rule="evenodd" fill-opacity="1" stroke="#000000" stroke-opacity="1" stroke-width="3.6"/>
<circle clip-path="url(#clip012)" cx="2302.6" cy="93.8246" r="14" fill="#c271d2" fill-rule="evenodd" fill-opacity="1" stroke="#000000" stroke-opacity="1" stroke-width="3.6"/>
<circle clip-path="url(#clip012)" cx="1860.69" cy="93.8246" r="14" fill="#c271d2" fill-rule="evenodd" fill-opacity="1" stroke="#000000" stroke-opacity="1" stroke-width="3.6"/>
<circle clip-path="url(#clip012)" cx="1200.62" cy="93.8246" r="14" fill="#c271d2" fill-rule="evenodd" fill-opacity="1" stroke="#000000" stroke-opacity="1" stroke-width="3.6"/>
<circle clip-path="url(#clip012)" cx="2690.35" cy="93.8246" r="14" fill="#c271d2" fill-rule="evenodd" fill-opacity="1" stroke="#000000" stroke-opacity="1" stroke-width="3.6"/>
<circle clip-path="url(#clip012)" cx="1319.16" cy="93.8246" r="14" fill="#c271d2" fill-rule="evenodd" fill-opacity="1" stroke="#000000" stroke-opacity="1" stroke-width="3.6"/>
<circle clip-path="url(#clip012)" cx="1515.46" cy="93.8246" r="14" fill="#c271d2" fill-rule="evenodd" fill-opacity="1" stroke="#000000" stroke-opacity="1" stroke-width="3.6"/>
<circle clip-path="url(#clip012)" cx="1477.29" cy="93.8246" r="14" fill="#c271d2" fill-rule="evenodd" fill-opacity="1" stroke="#000000" stroke-opacity="1" stroke-width="3.6"/>
<circle clip-path="url(#clip012)" cx="1856.54" cy="93.8246" r="14" fill="#c271d2" fill-rule="evenodd" fill-opacity="1" stroke="#000000" stroke-opacity="1" stroke-width="3.6"/>
<circle clip-path="url(#clip012)" cx="1961.95" cy="93.8246" r="14" fill="#c271d2" fill-rule="evenodd" fill-opacity="1" stroke="#000000" stroke-opacity="1" stroke-width="3.6"/>
<circle clip-path="url(#clip012)" cx="2001.91" cy="93.8246" r="14" fill="#c271d2" fill-rule="evenodd" fill-opacity="1" stroke="#000000" stroke-opacity="1" stroke-width="3.6"/>
<circle clip-path="url(#clip012)" cx="1745.07" cy="93.8246" r="14" fill="#c271d2" fill-rule="evenodd" fill-opacity="1" stroke="#000000" stroke-opacity="1" stroke-width="3.6"/>
<circle clip-path="url(#clip012)" cx="1330.78" cy="93.8246" r="14" fill="#c271d2" fill-rule="evenodd" fill-opacity="1" stroke="#000000" stroke-opacity="1" stroke-width="3.6"/>
<circle clip-path="url(#clip012)" cx="1153.74" cy="93.8246" r="14" fill="#c271d2" fill-rule="evenodd" fill-opacity="1" stroke="#000000" stroke-opacity="1" stroke-width="3.6"/>
<circle clip-path="url(#clip012)" cx="1649.4" cy="93.8246" r="14" fill="#c271d2" fill-rule="evenodd" fill-opacity="1" stroke="#000000" stroke-opacity="1" stroke-width="3.6"/>
<circle clip-path="url(#clip012)" cx="891.819" cy="93.8246" r="14" fill="#c271d2" fill-rule="evenodd" fill-opacity="1" stroke="#000000" stroke-opacity="1" stroke-width="3.6"/>
<circle clip-path="url(#clip012)" cx="1032.71" cy="93.8246" r="14" fill="#c271d2" fill-rule="evenodd" fill-opacity="1" stroke="#000000" stroke-opacity="1" stroke-width="3.6"/>
<circle clip-path="url(#clip012)" cx="1969.64" cy="93.8246" r="14" fill="#c271d2" fill-rule="evenodd" fill-opacity="1" stroke="#000000" stroke-opacity="1" stroke-width="3.6"/>
<circle clip-path="url(#clip012)" cx="1024.64" cy="93.8246" r="14" fill="#c271d2" fill-rule="evenodd" fill-opacity="1" stroke="#000000" stroke-opacity="1" stroke-width="3.6"/>
<circle clip-path="url(#clip012)" cx="1068.82" cy="93.8246" r="14" fill="#c271d2" fill-rule="evenodd" fill-opacity="1" stroke="#000000" stroke-opacity="1" stroke-width="3.6"/>
<circle clip-path="url(#clip012)" cx="597.392" cy="93.8246" r="14" fill="#c271d2" fill-rule="evenodd" fill-opacity="1" stroke="#000000" stroke-opacity="1" stroke-width="3.6"/>
<circle clip-path="url(#clip012)" cx="2341.2" cy="93.8246" r="14" fill="#c271d2" fill-rule="evenodd" fill-opacity="1" stroke="#000000" stroke-opacity="1" stroke-width="3.6"/>
<path clip-path="url(#clip010)" d="
M2876.6 404.506 L3552.76 404.506 L3552.76 102.106 L2876.6 102.106  Z
  " fill="#ffffff" fill-rule="evenodd" fill-opacity="1"/>
<polyline clip-path="url(#clip010)" style="stroke:#000000; stroke-linecap:butt; stroke-linejoin:round; stroke-width:4; stroke-opacity:1; fill:none" points="
  2876.6,404.506 3552.76,404.506 3552.76,102.106 2876.6,102.106 2876.6,404.506 
  "/>
<polyline clip-path="url(#clip010)" style="stroke:#009af9; stroke-linecap:butt; stroke-linejoin:round; stroke-width:4; stroke-opacity:1; fill:none" points="
  2914.2,162.586 3139.81,162.586 
  "/>
<path clip-path="url(#clip010)" d="M3189.36 148.384 Q3185.75 148.384 3183.92 151.949 Q3182.11 155.491 3182.11 162.62 Q3182.11 169.727 3183.92 173.292 Q3185.75 176.833 3189.36 176.833 Q3192.99 176.833 3194.8 173.292 Q3196.63 169.727 3196.63 162.62 Q3196.63 155.491 3194.8 151.949 Q3192.99 148.384 3189.36 148.384 M3189.36 144.681 Q3195.17 144.681 3198.23 149.287 Q3201.3 153.87 3201.3 162.62 Q3201.3 171.347 3198.23 175.954 Q3195.17 180.537 3189.36 180.537 Q3183.55 180.537 3180.47 175.954 Q3177.42 171.347 3177.42 162.62 Q3177.42 153.87 3180.47 149.287 Q3183.55 144.681 3189.36 144.681 Z" fill="#000000" fill-rule="evenodd" fill-opacity="1" /><path clip-path="url(#clip010)" d="M3209.52 173.986 L3214.41 173.986 L3214.41 179.866 L3209.52 179.866 L3209.52 173.986 Z" fill="#000000" fill-rule="evenodd" fill-opacity="1" /><path clip-path="url(#clip010)" d="M3234.59 148.384 Q3230.98 148.384 3229.15 151.949 Q3227.35 155.491 3227.35 162.62 Q3227.35 169.727 3229.15 173.292 Q3230.98 176.833 3234.59 176.833 Q3238.22 176.833 3240.03 173.292 Q3241.86 169.727 3241.86 162.62 Q3241.86 155.491 3240.03 151.949 Q3238.22 148.384 3234.59 148.384 M3234.59 144.681 Q3240.4 144.681 3243.46 149.287 Q3246.54 153.87 3246.54 162.62 Q3246.54 171.347 3243.46 175.954 Q3240.4 180.537 3234.59 180.537 Q3228.78 180.537 3225.7 175.954 Q3222.65 171.347 3222.65 162.62 Q3222.65 153.87 3225.7 149.287 Q3228.78 144.681 3234.59 144.681 Z" fill="#000000" fill-rule="evenodd" fill-opacity="1" /><path clip-path="url(#clip010)" d="M3254.8 145.306 L3273.16 145.306 L3273.16 149.241 L3259.08 149.241 L3259.08 157.713 Q3260.1 157.366 3261.12 157.204 Q3262.14 157.018 3263.16 157.018 Q3268.94 157.018 3272.32 160.19 Q3275.7 163.361 3275.7 168.778 Q3275.7 174.356 3272.23 177.458 Q3268.76 180.537 3262.44 180.537 Q3260.26 180.537 3257.99 180.166 Q3255.75 179.796 3253.34 179.055 L3253.34 174.356 Q3255.42 175.491 3257.65 176.046 Q3259.87 176.602 3262.35 176.602 Q3266.35 176.602 3268.69 174.495 Q3271.03 172.389 3271.03 168.778 Q3271.03 165.167 3268.69 163.06 Q3266.35 160.954 3262.35 160.954 Q3260.47 160.954 3258.6 161.37 Q3256.74 161.787 3254.8 162.667 L3254.8 145.306 Z" fill="#000000" fill-rule="evenodd" fill-opacity="1" /><polyline clip-path="url(#clip010)" style="stroke:#e26f46; stroke-linecap:butt; stroke-linejoin:round; stroke-width:4; stroke-opacity:1; fill:none" points="
  2914.2,223.066 3139.81,223.066 
  "/>
<path clip-path="url(#clip010)" d="M3189.36 208.864 Q3185.75 208.864 3183.92 212.429 Q3182.11 215.971 3182.11 223.1 Q3182.11 230.207 3183.92 233.772 Q3185.75 237.313 3189.36 237.313 Q3192.99 237.313 3194.8 233.772 Q3196.63 230.207 3196.63 223.1 Q3196.63 215.971 3194.8 212.429 Q3192.99 208.864 3189.36 208.864 M3189.36 205.161 Q3195.17 205.161 3198.23 209.767 Q3201.3 214.35 3201.3 223.1 Q3201.3 231.827 3198.23 236.434 Q3195.17 241.017 3189.36 241.017 Q3183.55 241.017 3180.47 236.434 Q3177.42 231.827 3177.42 223.1 Q3177.42 214.35 3180.47 209.767 Q3183.55 205.161 3189.36 205.161 Z" fill="#000000" fill-rule="evenodd" fill-opacity="1" /><path clip-path="url(#clip010)" d="M3209.52 234.466 L3214.41 234.466 L3214.41 240.346 L3209.52 240.346 L3209.52 234.466 Z" fill="#000000" fill-rule="evenodd" fill-opacity="1" /><path clip-path="url(#clip010)" d="M3225.4 236.41 L3233.04 236.41 L3233.04 210.045 L3224.73 211.711 L3224.73 207.452 L3232.99 205.786 L3237.67 205.786 L3237.67 236.41 L3245.31 236.41 L3245.31 240.346 L3225.4 240.346 L3225.4 236.41 Z" fill="#000000" fill-rule="evenodd" fill-opacity="1" /><polyline clip-path="url(#clip010)" style="stroke:#3da44d; stroke-linecap:butt; stroke-linejoin:round; stroke-width:4; stroke-opacity:1; fill:none" points="
  2914.2,283.546 3139.81,283.546 
  "/>
<path clip-path="url(#clip010)" d="M3189.36 269.344 Q3185.75 269.344 3183.92 272.909 Q3182.11 276.451 3182.11 283.58 Q3182.11 290.687 3183.92 294.252 Q3185.75 297.793 3189.36 297.793 Q3192.99 297.793 3194.8 294.252 Q3196.63 290.687 3196.63 283.58 Q3196.63 276.451 3194.8 272.909 Q3192.99 269.344 3189.36 269.344 M3189.36 265.641 Q3195.17 265.641 3198.23 270.247 Q3201.3 274.83 3201.3 283.58 Q3201.3 292.307 3198.23 296.914 Q3195.17 301.497 3189.36 301.497 Q3183.55 301.497 3180.47 296.914 Q3177.42 292.307 3177.42 283.58 Q3177.42 274.83 3180.47 270.247 Q3183.55 265.641 3189.36 265.641 Z" fill="#000000" fill-rule="evenodd" fill-opacity="1" /><path clip-path="url(#clip010)" d="M3209.52 294.946 L3214.41 294.946 L3214.41 300.826 L3209.52 300.826 L3209.52 294.946 Z" fill="#000000" fill-rule="evenodd" fill-opacity="1" /><path clip-path="url(#clip010)" d="M3224.64 266.266 L3242.99 266.266 L3242.99 270.201 L3228.92 270.201 L3228.92 278.673 Q3229.94 278.326 3230.96 278.164 Q3231.98 277.978 3232.99 277.978 Q3238.78 277.978 3242.16 281.15 Q3245.54 284.321 3245.54 289.738 Q3245.54 295.316 3242.07 298.418 Q3238.6 301.497 3232.28 301.497 Q3230.1 301.497 3227.83 301.126 Q3225.59 300.756 3223.18 300.015 L3223.18 295.316 Q3225.26 296.451 3227.48 297.006 Q3229.71 297.562 3232.18 297.562 Q3236.19 297.562 3238.53 295.455 Q3240.86 293.349 3240.86 289.738 Q3240.86 286.127 3238.53 284.02 Q3236.19 281.914 3232.18 281.914 Q3230.31 281.914 3228.43 282.33 Q3226.58 282.747 3224.64 283.627 L3224.64 266.266 Z" fill="#000000" fill-rule="evenodd" fill-opacity="1" /><circle clip-path="url(#clip010)" cx="3027.01" cy="344.026" r="23" fill="#c271d2" fill-rule="evenodd" fill-opacity="1" stroke="#000000" stroke-opacity="1" stroke-width="5.76"/>
<path clip-path="url(#clip010)" d="M3189.31 338.366 Q3185.89 338.366 3183.9 341.051 Q3181.91 343.713 3181.91 348.366 Q3181.91 353.019 3183.87 355.704 Q3185.86 358.366 3189.31 358.366 Q3192.72 358.366 3194.71 355.681 Q3196.7 352.995 3196.7 348.366 Q3196.7 343.759 3194.71 341.074 Q3192.72 338.366 3189.31 338.366 M3189.31 334.755 Q3194.87 334.755 3198.04 338.366 Q3201.21 341.977 3201.21 348.366 Q3201.21 354.732 3198.04 358.366 Q3194.87 361.977 3189.31 361.977 Q3183.73 361.977 3180.56 358.366 Q3177.42 354.732 3177.42 348.366 Q3177.42 341.977 3180.56 338.366 Q3183.73 334.755 3189.31 334.755 Z" fill="#000000" fill-rule="evenodd" fill-opacity="1" /><path clip-path="url(#clip010)" d="M3226.88 348.366 Q3226.88 343.667 3224.94 341.005 Q3223.02 338.32 3219.64 338.32 Q3216.26 338.32 3214.31 341.005 Q3212.39 343.667 3212.39 348.366 Q3212.39 353.065 3214.31 355.75 Q3216.26 358.412 3219.64 358.412 Q3223.02 358.412 3224.94 355.75 Q3226.88 353.065 3226.88 348.366 M3212.39 339.315 Q3213.73 337 3215.77 335.889 Q3217.83 334.755 3220.68 334.755 Q3225.4 334.755 3228.34 338.505 Q3231.3 342.255 3231.3 348.366 Q3231.3 354.477 3228.34 358.227 Q3225.4 361.977 3220.68 361.977 Q3217.83 361.977 3215.77 360.866 Q3213.73 359.731 3212.39 357.417 L3212.39 361.306 L3208.11 361.306 L3208.11 325.287 L3212.39 325.287 L3212.39 339.315 Z" fill="#000000" fill-rule="evenodd" fill-opacity="1" /><path clip-path="url(#clip010)" d="M3254.89 336.144 L3254.89 340.171 Q3253.09 339.245 3251.14 338.783 Q3249.2 338.32 3247.11 338.32 Q3243.94 338.32 3242.35 339.292 Q3240.77 340.264 3240.77 342.208 Q3240.77 343.69 3241.91 344.546 Q3243.04 345.38 3246.47 346.144 L3247.92 346.468 Q3252.46 347.44 3254.36 349.222 Q3256.28 350.982 3256.28 354.153 Q3256.28 357.764 3253.41 359.87 Q3250.56 361.977 3245.56 361.977 Q3243.48 361.977 3241.21 361.56 Q3238.97 361.167 3236.47 360.356 L3236.47 355.958 Q3238.83 357.185 3241.12 357.81 Q3243.41 358.412 3245.66 358.412 Q3248.66 358.412 3250.29 357.394 Q3251.91 356.352 3251.91 354.477 Q3251.91 352.741 3250.72 351.815 Q3249.57 350.889 3245.61 350.032 L3244.13 349.685 Q3240.17 348.852 3238.41 347.139 Q3236.65 345.403 3236.65 342.394 Q3236.65 338.736 3239.24 336.746 Q3241.84 334.755 3246.6 334.755 Q3248.97 334.755 3251.05 335.102 Q3253.13 335.449 3254.89 336.144 Z" fill="#000000" fill-rule="evenodd" fill-opacity="1" /><path clip-path="url(#clip010)" d="M3285.24 347.278 L3285.24 349.361 L3265.66 349.361 Q3265.93 353.759 3268.29 356.074 Q3270.68 358.366 3274.91 358.366 Q3277.37 358.366 3279.66 357.764 Q3281.97 357.162 3284.24 355.958 L3284.24 359.986 Q3281.95 360.958 3279.54 361.468 Q3277.14 361.977 3274.66 361.977 Q3268.46 361.977 3264.82 358.366 Q3261.21 354.755 3261.21 348.597 Q3261.21 342.232 3264.64 338.505 Q3268.09 334.755 3273.92 334.755 Q3279.15 334.755 3282.18 338.134 Q3285.24 341.491 3285.24 347.278 M3280.98 346.028 Q3280.93 342.533 3279.01 340.449 Q3277.11 338.366 3273.97 338.366 Q3270.4 338.366 3268.25 340.38 Q3266.12 342.394 3265.79 346.051 L3280.98 346.028 Z" fill="#000000" fill-rule="evenodd" fill-opacity="1" /><path clip-path="url(#clip010)" d="M3307.25 339.361 Q3306.53 338.945 3305.68 338.759 Q3304.84 338.551 3303.83 338.551 Q3300.22 338.551 3298.27 340.912 Q3296.35 343.25 3296.35 347.648 L3296.35 361.306 L3292.07 361.306 L3292.07 335.38 L3296.35 335.38 L3296.35 339.408 Q3297.69 337.046 3299.85 335.912 Q3302 334.755 3305.08 334.755 Q3305.52 334.755 3306.05 334.824 Q3306.58 334.871 3307.23 334.986 L3307.25 339.361 Z" fill="#000000" fill-rule="evenodd" fill-opacity="1" /><path clip-path="url(#clip010)" d="M3308.66 335.38 L3313.18 335.38 L3321.28 357.139 L3329.38 335.38 L3333.9 335.38 L3324.17 361.306 L3318.39 361.306 L3308.66 335.38 Z" fill="#000000" fill-rule="evenodd" fill-opacity="1" /><path clip-path="url(#clip010)" d="M3351.56 348.273 Q3346.4 348.273 3344.4 349.454 Q3342.41 350.634 3342.41 353.482 Q3342.41 355.75 3343.9 357.093 Q3345.4 358.412 3347.97 358.412 Q3351.51 358.412 3353.64 355.912 Q3355.79 353.389 3355.79 349.222 L3355.79 348.273 L3351.56 348.273 M3360.05 346.514 L3360.05 361.306 L3355.79 361.306 L3355.79 357.37 Q3354.34 359.731 3352.16 360.866 Q3349.98 361.977 3346.84 361.977 Q3342.85 361.977 3340.49 359.755 Q3338.16 357.509 3338.16 353.759 Q3338.16 349.384 3341.07 347.162 Q3344.01 344.94 3349.82 344.94 L3355.79 344.94 L3355.79 344.523 Q3355.79 341.583 3353.85 339.986 Q3351.93 338.366 3348.43 338.366 Q3346.21 338.366 3344.1 338.898 Q3342 339.431 3340.05 340.495 L3340.05 336.56 Q3342.39 335.658 3344.59 335.218 Q3346.79 334.755 3348.87 334.755 Q3354.5 334.755 3357.28 337.671 Q3360.05 340.588 3360.05 346.514 Z" fill="#000000" fill-rule="evenodd" fill-opacity="1" /><path clip-path="url(#clip010)" d="M3373.04 328.019 L3373.04 335.38 L3381.81 335.38 L3381.81 338.69 L3373.04 338.69 L3373.04 352.764 Q3373.04 355.935 3373.9 356.838 Q3374.78 357.741 3377.44 357.741 L3381.81 357.741 L3381.81 361.306 L3377.44 361.306 Q3372.51 361.306 3370.63 359.477 Q3368.76 357.625 3368.76 352.764 L3368.76 338.69 L3365.63 338.69 L3365.63 335.38 L3368.76 335.38 L3368.76 328.019 L3373.04 328.019 Z" fill="#000000" fill-rule="evenodd" fill-opacity="1" /><path clip-path="url(#clip010)" d="M3387.41 335.38 L3391.67 335.38 L3391.67 361.306 L3387.41 361.306 L3387.41 335.38 M3387.41 325.287 L3391.67 325.287 L3391.67 330.681 L3387.41 330.681 L3387.41 325.287 Z" fill="#000000" fill-rule="evenodd" fill-opacity="1" /><path clip-path="url(#clip010)" d="M3410.63 338.366 Q3407.21 338.366 3405.21 341.051 Q3403.22 343.713 3403.22 348.366 Q3403.22 353.019 3405.19 355.704 Q3407.18 358.366 3410.63 358.366 Q3414.03 358.366 3416.02 355.681 Q3418.02 352.995 3418.02 348.366 Q3418.02 343.759 3416.02 341.074 Q3414.03 338.366 3410.63 338.366 M3410.63 334.755 Q3416.19 334.755 3419.36 338.366 Q3422.53 341.977 3422.53 348.366 Q3422.53 354.732 3419.36 358.366 Q3416.19 361.977 3410.63 361.977 Q3405.05 361.977 3401.88 358.366 Q3398.73 354.732 3398.73 348.366 Q3398.73 341.977 3401.88 338.366 Q3405.05 334.755 3410.63 334.755 Z" fill="#000000" fill-rule="evenodd" fill-opacity="1" /><path clip-path="url(#clip010)" d="M3451.14 345.657 L3451.14 361.306 L3446.88 361.306 L3446.88 345.796 Q3446.88 342.116 3445.45 340.287 Q3444.01 338.458 3441.14 338.458 Q3437.69 338.458 3435.7 340.658 Q3433.71 342.857 3433.71 346.653 L3433.71 361.306 L3429.43 361.306 L3429.43 335.38 L3433.71 335.38 L3433.71 339.408 Q3435.24 337.07 3437.3 335.912 Q3439.38 334.755 3442.09 334.755 Q3446.56 334.755 3448.85 337.533 Q3451.14 340.287 3451.14 345.657 Z" fill="#000000" fill-rule="evenodd" fill-opacity="1" /><path clip-path="url(#clip010)" d="M3476.16 336.144 L3476.16 340.171 Q3474.36 339.245 3472.41 338.783 Q3470.47 338.32 3468.39 338.32 Q3465.21 338.32 3463.62 339.292 Q3462.04 340.264 3462.04 342.208 Q3462.04 343.69 3463.18 344.546 Q3464.31 345.38 3467.74 346.144 L3469.2 346.468 Q3473.73 347.44 3475.63 349.222 Q3477.55 350.982 3477.55 354.153 Q3477.55 357.764 3474.68 359.87 Q3471.83 361.977 3466.83 361.977 Q3464.75 361.977 3462.48 361.56 Q3460.24 361.167 3457.74 360.356 L3457.74 355.958 Q3460.1 357.185 3462.39 357.81 Q3464.68 358.412 3466.93 358.412 Q3469.94 358.412 3471.56 357.394 Q3473.18 356.352 3473.18 354.477 Q3473.18 352.741 3472 351.815 Q3470.84 350.889 3466.88 350.032 L3465.4 349.685 Q3461.44 348.852 3459.68 347.139 Q3457.92 345.403 3457.92 342.394 Q3457.92 338.736 3460.52 336.746 Q3463.11 334.755 3467.88 334.755 Q3470.24 334.755 3472.32 335.102 Q3474.4 335.449 3476.16 336.144 Z" fill="#000000" fill-rule="evenodd" fill-opacity="1" /></svg>
